M48
; DRILL file {KiCad (6.0.4)} date Sun Jan 29 14:49:06 2023
; FORMAT={-:-/ absolute / metric / decimal}
; #@! TF.CreationDate,2023-01-29T14:49:06+00:00
; #@! TF.GenerationSoftware,Kicad,Pcbnew,(6.0.4)
; #@! TF.FileFunction,Plated,1,4,PTH
FMAT,2
METRIC
; #@! TA.AperFunction,Plated,PTH,ViaDrill
T1C0.200
; #@! TA.AperFunction,Plated,PTH,ComponentDrill
T2C0.600
; #@! TA.AperFunction,Plated,PTH,ComponentDrill
T3C0.750
%
G90
G05
T1
X172.4Y-123.2
X176.7Y-113.9
X176.7Y-116.3
X177.2Y-114.1
X177.3Y-116.3
X177.4Y-114.6
X178.0Y-114.6
X178.0Y-116.3
X178.5Y-114.1
X178.5Y-118.8
X178.7Y-116.3
X178.725Y-124.59
X178.9Y-118.2
X179.2Y-113.8
X179.2Y-117.4
X179.3Y-125.8
X179.34Y-102.23
X179.5Y-116.5
X180.0Y-109.3
X180.0Y-110.3
X180.3Y-111.3
X180.4Y-108.5
X180.5Y-113.2
X180.5Y-114.5
X181.1Y-107.9
X181.2Y-111.3
X181.4Y-113.3
X181.5Y-111.9
X181.5Y-112.6
X181.7Y-118.7
X181.7Y-119.7
X182.0Y-107.6
X182.8Y-107.4
X182.92Y-106.2
X183.2Y-122.1
X183.5Y-102.77
X183.626Y-103.748
X183.7Y-107.4
X183.8Y-113.5
X184.3Y-112.8
X184.5Y-112.3
X184.7Y-107.4
X184.7Y-115.3
X185.1Y-111.9
X185.1Y-112.9
X185.6Y-112.3
X185.8Y-107.6
X185.9Y-111.6
X186.3Y-116.1
X186.584Y-103.549
X186.6Y-111.0
X186.8Y-108.0
X187.1Y-108.8
X187.2Y-109.6
X187.2Y-110.4
X187.4Y-113.9
X187.4Y-121.8
X187.633Y-104.232
X188.0Y-98.2
X188.0Y-120.0
X188.1Y-118.5
X188.1Y-119.1
X188.7Y-103.545
X191.8Y-117.5
X191.8Y-119.3
X192.4Y-103.3
X192.7Y-103.9
X193.1Y-111.8
X194.4Y-102.0
X195.117Y-110.03
T3
X177.0Y-103.0
X177.0Y-105.0
X177.0Y-119.5
X177.0Y-121.5
X191.0Y-103.0
X191.0Y-105.0
T2
G00X190.28Y-114.328
M15
G01X191.38Y-114.328
M16
G05
G00X190.28Y-122.978
M15
G01X191.38Y-122.978
M16
G05
G00X194.6Y-114.328
M15
G01X195.4Y-114.328
M16
G05
G00X194.6Y-122.978
M15
G01X195.4Y-122.978
M16
G05
T0
M30
