%TF.GenerationSoftware,KiCad,Pcbnew,(6.0.4)*%
%TF.CreationDate,2023-01-18T18:35:58+00:00*%
%TF.ProjectId,PrettySmallRobot,50726574-7479-4536-9d61-6c6c526f626f,rev?*%
%TF.SameCoordinates,Original*%
%TF.FileFunction,Copper,L3,Inr*%
%TF.FilePolarity,Positive*%
%FSLAX46Y46*%
G04 Gerber Fmt 4.6, Leading zero omitted, Abs format (unit mm)*
G04 Created by KiCad (PCBNEW (6.0.4)) date 2023-01-18 18:35:58*
%MOMM*%
%LPD*%
G01*
G04 APERTURE LIST*
%TA.AperFunction,ComponentPad*%
%ADD10C,3.800000*%
%TD*%
%TA.AperFunction,ComponentPad*%
%ADD11O,0.900000X1.700000*%
%TD*%
%TA.AperFunction,ComponentPad*%
%ADD12O,0.900000X2.000000*%
%TD*%
%TA.AperFunction,ViaPad*%
%ADD13C,0.500000*%
%TD*%
%TA.AperFunction,Conductor*%
%ADD14C,0.175000*%
%TD*%
%TA.AperFunction,Conductor*%
%ADD15C,0.150000*%
%TD*%
%TA.AperFunction,Conductor*%
%ADD16C,0.293370*%
%TD*%
%TA.AperFunction,Conductor*%
%ADD17C,0.254000*%
%TD*%
G04 APERTURE END LIST*
D10*
%TO.N,N/C*%
%TO.C,H2*%
X125050000Y-119200000D03*
%TD*%
%TO.N,N/C*%
%TO.C,H1*%
X146150000Y-98700000D03*
%TD*%
D11*
%TO.N,GND*%
%TO.C,J1*%
X143250000Y-119350000D03*
X134600000Y-119350000D03*
D12*
X143250000Y-115180000D03*
X134600000Y-115180000D03*
%TD*%
D13*
%TO.N,GND*%
X143550000Y-105730000D03*
%TO.N,/VBUS*%
X143000000Y-112000000D03*
X142510000Y-110120000D03*
%TO.N,+BATT*%
X140900000Y-100400000D03*
X135786500Y-101180000D03*
X131136000Y-98022276D03*
X141500000Y-99600000D03*
X134390000Y-99310000D03*
X133900000Y-109400000D03*
X142150000Y-99600000D03*
%TO.N,GND*%
X138140000Y-96920000D03*
X138600000Y-100700000D03*
X131600000Y-103700000D03*
X133000000Y-103130000D03*
X131010000Y-102790000D03*
X131600000Y-103100000D03*
X132600000Y-103700000D03*
X141550000Y-111550000D03*
X135700000Y-97660000D03*
X140450000Y-99400000D03*
X131490000Y-105300000D03*
X130800000Y-105450000D03*
X139600000Y-100400000D03*
X141700000Y-112250000D03*
X128150000Y-99750000D03*
X136120000Y-100580000D03*
X142599948Y-113139948D03*
X129340000Y-106250000D03*
X135400000Y-100250000D03*
X132635606Y-105246228D03*
X139850000Y-112750000D03*
X133330000Y-105290000D03*
X140600000Y-97100000D03*
%TO.N,+3V3*%
X128550000Y-106700000D03*
X129150000Y-119350000D03*
X140600000Y-111100000D03*
X142450000Y-101900000D03*
X128550000Y-109800000D03*
X137700000Y-111200000D03*
X131150000Y-99650000D03*
X129950000Y-119600000D03*
X130700000Y-117900000D03*
X140200000Y-102250000D03*
X131350000Y-101900000D03*
%TO.N,/~{RESET}*%
X132050000Y-105700000D03*
X134750000Y-103000000D03*
%TO.N,Net-(R7-Pad1)*%
X138800000Y-111300000D03*
%TO.N,Net-(D1-Pad1)*%
X142200000Y-111000000D03*
%TO.N,Net-(C22-Pad1)*%
X131700000Y-113900000D03*
%TO.N,/MOTORB_OUT1*%
X134750000Y-100300000D03*
%TO.N,/MOTORB_OUT2*%
X131200000Y-99000000D03*
%TO.N,/MOTORB_IN1*%
X133408623Y-108229895D03*
X132530000Y-100010000D03*
%TO.N,/MOTORA_OUT1*%
X131100000Y-97120000D03*
%TO.N,/MOTORA_OUT2*%
X135100000Y-96950000D03*
%TO.N,/MOTORA_IN1*%
X129600000Y-99800000D03*
X133900000Y-106900000D03*
%TO.N,/VDDA*%
X134410000Y-103730000D03*
X138300000Y-102400000D03*
X136300000Y-101650000D03*
%TO.N,/VDD3P3*%
X134100000Y-105300000D03*
%TO.N,/MOTORA_IN2*%
X129000000Y-100170000D03*
X133551500Y-107540000D03*
%TO.N,/MOTORB_IN2*%
X131800000Y-100000000D03*
X133480000Y-108890000D03*
%TO.N,/VDD_SPI*%
X142750000Y-109250000D03*
%TD*%
D14*
%TO.N,+BATT*%
X131163724Y-98050000D02*
X132250000Y-98050000D01*
X137000000Y-99700000D02*
X140050000Y-99700000D01*
X132250000Y-98050000D02*
X133950000Y-99750000D01*
X140900000Y-98350000D02*
X142150000Y-99600000D01*
X140550000Y-100200000D02*
X140750000Y-100400000D01*
X133950000Y-99750000D02*
X134350000Y-99750000D01*
D15*
X136112977Y-102101511D02*
X136748489Y-102101511D01*
X135786500Y-101180000D02*
X135786500Y-101775034D01*
X135786500Y-101775034D02*
X136112977Y-102101511D01*
D14*
X140250000Y-98350000D02*
X140900000Y-98350000D01*
D16*
X141500000Y-102700000D02*
X141500000Y-99600000D01*
D14*
X134400000Y-99300000D02*
X139300000Y-99300000D01*
D16*
X134800000Y-109400000D02*
X141500000Y-102700000D01*
X133900000Y-109400000D02*
X134800000Y-109400000D01*
D15*
X136748489Y-102101511D02*
X137000000Y-101850000D01*
D14*
X134390000Y-99310000D02*
X134400000Y-99300000D01*
X131136000Y-98022276D02*
X131163724Y-98050000D01*
X134400000Y-99700000D02*
X137000000Y-99700000D01*
D15*
X137000000Y-101850000D02*
X137000000Y-99700000D01*
D14*
X140750000Y-100400000D02*
X140900000Y-100400000D01*
X140050000Y-99700000D02*
X140550000Y-100200000D01*
X139300000Y-99300000D02*
X140250000Y-98350000D01*
X134350000Y-99750000D02*
X134400000Y-99700000D01*
D17*
%TO.N,+3V3*%
X127750000Y-106600000D02*
X127550000Y-106400000D01*
X127550000Y-106400000D02*
X127550000Y-100150000D01*
X127750000Y-107300000D02*
X127750000Y-106600000D01*
D15*
%TO.N,/MOTORB_IN1*%
X136000000Y-102797628D02*
X134002372Y-100800000D01*
X134002372Y-100800000D02*
X133320000Y-100800000D01*
X133772477Y-108229895D02*
X136000000Y-106002372D01*
X133320000Y-100800000D02*
X132530000Y-100010000D01*
X136000000Y-106002372D02*
X136000000Y-102797628D01*
X133408623Y-108229895D02*
X133772477Y-108229895D01*
%TO.N,/MOTORA_IN1*%
X135700000Y-105900000D02*
X135700000Y-102900000D01*
X133900000Y-106900000D02*
X134200000Y-106600000D01*
X135000000Y-106600000D02*
X135700000Y-105900000D01*
X131700000Y-101100000D02*
X130400000Y-99800000D01*
X133900000Y-101100000D02*
X131700000Y-101100000D01*
X135700000Y-102900000D02*
X133900000Y-101100000D01*
X134200000Y-106600000D02*
X135000000Y-106600000D01*
X130400000Y-99800000D02*
X129600000Y-99800000D01*
%TO.N,/MOTORA_IN2*%
X135415480Y-103017852D02*
X135415480Y-105782148D01*
X133400000Y-106700000D02*
X133400000Y-107100000D01*
X135415480Y-105782148D02*
X134897628Y-106300000D01*
X133800000Y-106300000D02*
X133400000Y-106700000D01*
X133798814Y-101401186D02*
X135415480Y-103017852D01*
X130497628Y-100300000D02*
X131598814Y-101401186D01*
X133400000Y-107100000D02*
X133551500Y-107251500D01*
X131598814Y-101401186D02*
X133798814Y-101401186D01*
X133551500Y-107251500D02*
X133551500Y-107540000D01*
X129000000Y-100170000D02*
X129130000Y-100300000D01*
X129130000Y-100300000D02*
X130497628Y-100300000D01*
X134897628Y-106300000D02*
X133800000Y-106300000D01*
%TO.N,/MOTORB_IN2*%
X136284520Y-106215480D02*
X136284520Y-102679776D01*
X132904744Y-99300000D02*
X132150000Y-99300000D01*
X131800000Y-99650000D02*
X131800000Y-100000000D01*
X132150000Y-99300000D02*
X131800000Y-99650000D01*
X133480000Y-108890000D02*
X133610000Y-108890000D01*
X133610000Y-108890000D02*
X136284520Y-106215480D01*
X136284520Y-102679776D02*
X132904744Y-99300000D01*
%TD*%
%TA.AperFunction,Conductor*%
%TO.N,+3V3*%
G36*
X134717163Y-96620002D02*
G01*
X134763656Y-96673658D01*
X134773760Y-96743932D01*
X134761308Y-96783204D01*
X134745059Y-96815095D01*
X134736500Y-96831892D01*
X134717794Y-96950000D01*
X134736500Y-97068108D01*
X134790789Y-97174655D01*
X134875345Y-97259211D01*
X134884177Y-97263711D01*
X134884178Y-97263712D01*
X134911816Y-97277794D01*
X134981892Y-97313500D01*
X135100000Y-97332206D01*
X135109793Y-97330655D01*
X135208311Y-97315052D01*
X135208313Y-97315051D01*
X135218108Y-97313500D01*
X135218176Y-97313932D01*
X135282105Y-97312103D01*
X135342904Y-97348764D01*
X135374232Y-97412475D01*
X135366141Y-97483009D01*
X135362345Y-97491168D01*
X135341001Y-97533058D01*
X135336500Y-97541892D01*
X135317794Y-97660000D01*
X135336500Y-97778108D01*
X135350943Y-97806454D01*
X135384431Y-97872176D01*
X135390789Y-97884655D01*
X135475345Y-97969211D01*
X135484177Y-97973711D01*
X135484178Y-97973712D01*
X135528618Y-97996355D01*
X135581892Y-98023500D01*
X135700000Y-98042206D01*
X135818108Y-98023500D01*
X135871382Y-97996355D01*
X135915822Y-97973712D01*
X135915823Y-97973711D01*
X135924655Y-97969211D01*
X136009211Y-97884655D01*
X136015570Y-97872176D01*
X136049057Y-97806454D01*
X136063500Y-97778108D01*
X136082206Y-97660000D01*
X136063500Y-97541892D01*
X136036356Y-97488619D01*
X136013712Y-97444178D01*
X136013711Y-97444177D01*
X136009211Y-97435345D01*
X135924655Y-97350789D01*
X135915823Y-97346289D01*
X135915822Y-97346288D01*
X135842638Y-97308999D01*
X135818108Y-97296500D01*
X135700000Y-97277794D01*
X135690207Y-97279345D01*
X135591689Y-97294948D01*
X135591687Y-97294949D01*
X135581892Y-97296500D01*
X135581824Y-97296068D01*
X135517895Y-97297897D01*
X135457096Y-97261236D01*
X135425768Y-97197525D01*
X135433859Y-97126991D01*
X135437655Y-97118832D01*
X135458999Y-97076942D01*
X135458999Y-97076941D01*
X135463500Y-97068108D01*
X135482206Y-96950000D01*
X135463500Y-96831892D01*
X135454942Y-96815095D01*
X135438692Y-96783204D01*
X135425587Y-96713427D01*
X135452286Y-96647643D01*
X135510313Y-96606736D01*
X135550958Y-96600000D01*
X137673756Y-96600000D01*
X137741877Y-96620002D01*
X137788370Y-96673658D01*
X137798474Y-96743932D01*
X137786023Y-96783203D01*
X137776500Y-96801892D01*
X137774949Y-96811685D01*
X137763468Y-96884178D01*
X137757794Y-96920000D01*
X137776500Y-97038108D01*
X137781001Y-97046941D01*
X137821789Y-97126991D01*
X137830789Y-97144655D01*
X137915345Y-97229211D01*
X137924177Y-97233711D01*
X137924178Y-97233712D01*
X137960463Y-97252200D01*
X138021892Y-97283500D01*
X138140000Y-97302206D01*
X138258108Y-97283500D01*
X138319537Y-97252200D01*
X138355822Y-97233712D01*
X138355823Y-97233711D01*
X138364655Y-97229211D01*
X138449211Y-97144655D01*
X138458212Y-97126991D01*
X138498999Y-97046941D01*
X138503500Y-97038108D01*
X138522206Y-96920000D01*
X138516533Y-96884178D01*
X138505051Y-96811685D01*
X138503500Y-96801892D01*
X138493978Y-96783204D01*
X138480873Y-96713429D01*
X138507572Y-96647643D01*
X138565598Y-96606736D01*
X138606244Y-96600000D01*
X140261944Y-96600000D01*
X140330065Y-96620002D01*
X140376558Y-96673658D01*
X140386662Y-96743932D01*
X140357168Y-96808512D01*
X140351039Y-96815095D01*
X140290789Y-96875345D01*
X140286289Y-96884177D01*
X140286288Y-96884178D01*
X140280598Y-96895345D01*
X140236500Y-96981892D01*
X140217794Y-97100000D01*
X140219345Y-97109793D01*
X140224866Y-97144655D01*
X140236500Y-97218108D01*
X140244451Y-97233712D01*
X140285428Y-97314133D01*
X140290789Y-97324655D01*
X140375345Y-97409211D01*
X140384177Y-97413711D01*
X140384178Y-97413712D01*
X140414597Y-97429211D01*
X140481892Y-97463500D01*
X140600000Y-97482206D01*
X140718108Y-97463500D01*
X140785403Y-97429211D01*
X140815822Y-97413712D01*
X140815823Y-97413711D01*
X140824655Y-97409211D01*
X140909211Y-97324655D01*
X140914573Y-97314133D01*
X140955549Y-97233712D01*
X140963500Y-97218108D01*
X140975134Y-97144655D01*
X140980655Y-97109793D01*
X140982206Y-97100000D01*
X140963500Y-96981892D01*
X140919402Y-96895345D01*
X140913712Y-96884178D01*
X140913711Y-96884177D01*
X140909211Y-96875345D01*
X140848961Y-96815095D01*
X140814935Y-96752783D01*
X140820000Y-96681968D01*
X140862547Y-96625132D01*
X140929067Y-96600321D01*
X140938056Y-96600000D01*
X143774000Y-96600000D01*
X143842121Y-96620002D01*
X143888614Y-96673658D01*
X143900000Y-96726000D01*
X143900000Y-100948918D01*
X143899802Y-100949000D01*
X143899235Y-100949235D01*
X143898918Y-100950000D01*
X143899000Y-100950198D01*
X143899000Y-105278532D01*
X143878998Y-105346653D01*
X143825342Y-105393146D01*
X143755068Y-105403250D01*
X143715797Y-105390799D01*
X143713016Y-105389382D01*
X143668108Y-105366500D01*
X143550000Y-105347794D01*
X143431892Y-105366500D01*
X143384223Y-105390789D01*
X143334178Y-105416288D01*
X143334177Y-105416289D01*
X143325345Y-105420789D01*
X143240789Y-105505345D01*
X143236289Y-105514177D01*
X143236288Y-105514178D01*
X143226718Y-105532961D01*
X143186500Y-105611892D01*
X143167794Y-105730000D01*
X143186500Y-105848108D01*
X143240789Y-105954655D01*
X143325345Y-106039211D01*
X143334177Y-106043711D01*
X143334178Y-106043712D01*
X143358485Y-106056097D01*
X143431892Y-106093500D01*
X143550000Y-106112206D01*
X143668108Y-106093500D01*
X143715797Y-106069201D01*
X143785573Y-106056097D01*
X143851358Y-106082797D01*
X143892265Y-106140824D01*
X143899000Y-106181468D01*
X143899000Y-114155962D01*
X143878998Y-114224083D01*
X143825342Y-114270576D01*
X143755068Y-114280680D01*
X143690488Y-114251186D01*
X143673037Y-114232665D01*
X143666906Y-114224675D01*
X143661878Y-114218122D01*
X143541242Y-114125555D01*
X143400758Y-114067365D01*
X143250000Y-114047517D01*
X143099242Y-114067365D01*
X142958759Y-114125555D01*
X142838122Y-114218122D01*
X142833096Y-114224672D01*
X142797873Y-114270576D01*
X142745555Y-114338759D01*
X142687365Y-114479242D01*
X142672500Y-114592151D01*
X142672500Y-115767849D01*
X142687365Y-115880758D01*
X142745555Y-116021241D01*
X142838122Y-116141878D01*
X142844672Y-116146904D01*
X142844673Y-116146905D01*
X142886137Y-116178721D01*
X142958758Y-116234445D01*
X143099242Y-116292635D01*
X143250000Y-116312483D01*
X143400758Y-116292635D01*
X143541241Y-116234445D01*
X143583793Y-116201794D01*
X143655328Y-116146904D01*
X143661878Y-116141878D01*
X143673037Y-116127335D01*
X143730374Y-116085467D01*
X143801245Y-116081245D01*
X143863148Y-116116008D01*
X143896430Y-116178721D01*
X143899000Y-116204038D01*
X143899000Y-118475962D01*
X143878998Y-118544083D01*
X143825342Y-118590576D01*
X143755068Y-118600680D01*
X143690488Y-118571186D01*
X143673037Y-118552665D01*
X143666906Y-118544675D01*
X143661878Y-118538122D01*
X143541242Y-118445555D01*
X143400758Y-118387365D01*
X143250000Y-118367517D01*
X143099242Y-118387365D01*
X142958759Y-118445555D01*
X142838122Y-118538122D01*
X142745555Y-118658759D01*
X142687365Y-118799242D01*
X142672500Y-118912151D01*
X142672500Y-119787849D01*
X142687365Y-119900758D01*
X142745555Y-120041241D01*
X142838122Y-120161878D01*
X142958758Y-120254445D01*
X143099242Y-120312635D01*
X143250000Y-120332483D01*
X143400758Y-120312635D01*
X143541241Y-120254445D01*
X143661878Y-120161878D01*
X143673037Y-120147335D01*
X143730374Y-120105467D01*
X143801245Y-120101245D01*
X143863148Y-120136008D01*
X143896430Y-120198721D01*
X143899000Y-120224038D01*
X143899000Y-121323000D01*
X143878998Y-121391121D01*
X143825342Y-121437614D01*
X143773000Y-121449000D01*
X127526000Y-121449000D01*
X127457879Y-121428998D01*
X127411386Y-121375342D01*
X127400000Y-121323000D01*
X127400000Y-119787849D01*
X134022500Y-119787849D01*
X134037365Y-119900758D01*
X134095555Y-120041241D01*
X134188122Y-120161878D01*
X134308758Y-120254445D01*
X134449242Y-120312635D01*
X134600000Y-120332483D01*
X134750758Y-120312635D01*
X134891241Y-120254445D01*
X135011878Y-120161878D01*
X135104445Y-120041241D01*
X135162635Y-119900758D01*
X135177500Y-119787849D01*
X135177500Y-118912151D01*
X135162635Y-118799242D01*
X135104445Y-118658759D01*
X135011878Y-118538122D01*
X134891242Y-118445555D01*
X134750758Y-118387365D01*
X134600000Y-118367517D01*
X134449242Y-118387365D01*
X134308759Y-118445555D01*
X134188122Y-118538122D01*
X134095555Y-118658759D01*
X134037365Y-118799242D01*
X134022500Y-118912151D01*
X134022500Y-119787849D01*
X127400000Y-119787849D01*
X127400000Y-115767849D01*
X134022500Y-115767849D01*
X134037365Y-115880758D01*
X134095555Y-116021241D01*
X134188122Y-116141878D01*
X134194672Y-116146904D01*
X134194673Y-116146905D01*
X134236137Y-116178721D01*
X134308758Y-116234445D01*
X134449242Y-116292635D01*
X134600000Y-116312483D01*
X134750758Y-116292635D01*
X134891241Y-116234445D01*
X134933793Y-116201794D01*
X135005328Y-116146904D01*
X135011878Y-116141878D01*
X135087454Y-116043385D01*
X135099416Y-116027795D01*
X135104445Y-116021241D01*
X135162635Y-115880758D01*
X135177500Y-115767849D01*
X135177500Y-115704891D01*
X135480420Y-115704891D01*
X135510233Y-115852743D01*
X135578707Y-115987132D01*
X135680799Y-116098156D01*
X135727860Y-116127335D01*
X135801687Y-116173110D01*
X135801690Y-116173111D01*
X135808986Y-116177635D01*
X135953825Y-116219715D01*
X135960803Y-116220227D01*
X135962208Y-116220331D01*
X135962219Y-116220331D01*
X135964515Y-116220500D01*
X136072785Y-116220500D01*
X136077030Y-116219918D01*
X136077037Y-116219918D01*
X136137522Y-116211632D01*
X136184432Y-116205206D01*
X136242608Y-116180031D01*
X136314971Y-116148717D01*
X136314973Y-116148716D01*
X136322855Y-116145305D01*
X136440070Y-116050386D01*
X136527442Y-115927442D01*
X136578533Y-115785532D01*
X136584455Y-115704891D01*
X141260420Y-115704891D01*
X141290233Y-115852743D01*
X141358707Y-115987132D01*
X141460799Y-116098156D01*
X141507860Y-116127335D01*
X141581687Y-116173110D01*
X141581690Y-116173111D01*
X141588986Y-116177635D01*
X141733825Y-116219715D01*
X141740803Y-116220227D01*
X141742208Y-116220331D01*
X141742219Y-116220331D01*
X141744515Y-116220500D01*
X141852785Y-116220500D01*
X141857030Y-116219918D01*
X141857037Y-116219918D01*
X141917522Y-116211632D01*
X141964432Y-116205206D01*
X142022608Y-116180031D01*
X142094971Y-116148717D01*
X142094973Y-116148716D01*
X142102855Y-116145305D01*
X142220070Y-116050386D01*
X142307442Y-115927442D01*
X142358533Y-115785532D01*
X142369580Y-115635109D01*
X142339767Y-115487257D01*
X142271293Y-115352868D01*
X142169201Y-115241844D01*
X142087654Y-115191283D01*
X142048313Y-115166890D01*
X142048310Y-115166889D01*
X142041014Y-115162365D01*
X141896175Y-115120285D01*
X141889197Y-115119773D01*
X141887792Y-115119669D01*
X141887781Y-115119669D01*
X141885485Y-115119500D01*
X141777215Y-115119500D01*
X141772970Y-115120082D01*
X141772963Y-115120082D01*
X141712478Y-115128368D01*
X141665568Y-115134794D01*
X141657684Y-115138206D01*
X141657683Y-115138206D01*
X141535029Y-115191283D01*
X141535027Y-115191284D01*
X141527145Y-115194695D01*
X141409930Y-115289614D01*
X141322558Y-115412558D01*
X141271467Y-115554468D01*
X141260420Y-115704891D01*
X136584455Y-115704891D01*
X136589580Y-115635109D01*
X136559767Y-115487257D01*
X136491293Y-115352868D01*
X136389201Y-115241844D01*
X136307654Y-115191283D01*
X136268313Y-115166890D01*
X136268310Y-115166889D01*
X136261014Y-115162365D01*
X136116175Y-115120285D01*
X136109197Y-115119773D01*
X136107792Y-115119669D01*
X136107781Y-115119669D01*
X136105485Y-115119500D01*
X135997215Y-115119500D01*
X135992970Y-115120082D01*
X135992963Y-115120082D01*
X135932478Y-115128368D01*
X135885568Y-115134794D01*
X135877684Y-115138206D01*
X135877683Y-115138206D01*
X135755029Y-115191283D01*
X135755027Y-115191284D01*
X135747145Y-115194695D01*
X135629930Y-115289614D01*
X135542558Y-115412558D01*
X135491467Y-115554468D01*
X135480420Y-115704891D01*
X135177500Y-115704891D01*
X135177500Y-114592151D01*
X135162635Y-114479242D01*
X135104445Y-114338759D01*
X135011878Y-114218122D01*
X134891242Y-114125555D01*
X134750758Y-114067365D01*
X134600000Y-114047517D01*
X134449242Y-114067365D01*
X134308759Y-114125555D01*
X134188122Y-114218122D01*
X134183096Y-114224672D01*
X134147873Y-114270576D01*
X134095555Y-114338759D01*
X134037365Y-114479242D01*
X134022500Y-114592151D01*
X134022500Y-115767849D01*
X127400000Y-115767849D01*
X127400000Y-113900000D01*
X131317794Y-113900000D01*
X131336500Y-114018108D01*
X131390789Y-114124655D01*
X131475345Y-114209211D01*
X131484177Y-114213711D01*
X131484178Y-114213712D01*
X131528618Y-114236355D01*
X131581892Y-114263500D01*
X131700000Y-114282206D01*
X131818108Y-114263500D01*
X131871381Y-114236356D01*
X131915822Y-114213712D01*
X131915823Y-114213711D01*
X131924655Y-114209211D01*
X132009211Y-114124655D01*
X132063500Y-114018108D01*
X132082206Y-113900000D01*
X132063500Y-113781892D01*
X132009211Y-113675345D01*
X131924655Y-113590789D01*
X131915823Y-113586289D01*
X131915822Y-113586288D01*
X131871382Y-113563645D01*
X131818108Y-113536500D01*
X131700000Y-113517794D01*
X131581892Y-113536500D01*
X131528619Y-113563644D01*
X131484178Y-113586288D01*
X131484177Y-113586289D01*
X131475345Y-113590789D01*
X131390789Y-113675345D01*
X131336500Y-113781892D01*
X131317794Y-113900000D01*
X127400000Y-113900000D01*
X127400000Y-113139948D01*
X142217742Y-113139948D01*
X142236448Y-113258056D01*
X142290737Y-113364603D01*
X142375293Y-113449159D01*
X142384125Y-113453659D01*
X142384126Y-113453660D01*
X142428567Y-113476304D01*
X142481840Y-113503448D01*
X142599948Y-113522154D01*
X142718056Y-113503448D01*
X142771329Y-113476304D01*
X142815770Y-113453660D01*
X142815771Y-113453659D01*
X142824603Y-113449159D01*
X142909159Y-113364603D01*
X142963448Y-113258056D01*
X142982154Y-113139948D01*
X142963448Y-113021840D01*
X142909159Y-112915293D01*
X142824603Y-112830737D01*
X142815771Y-112826237D01*
X142815770Y-112826236D01*
X142771329Y-112803592D01*
X142718056Y-112776448D01*
X142599948Y-112757742D01*
X142481840Y-112776448D01*
X142428567Y-112803592D01*
X142384126Y-112826236D01*
X142384125Y-112826237D01*
X142375293Y-112830737D01*
X142290737Y-112915293D01*
X142236448Y-113021840D01*
X142217742Y-113139948D01*
X127400000Y-113139948D01*
X127400000Y-112750000D01*
X139467794Y-112750000D01*
X139486500Y-112868108D01*
X139540789Y-112974655D01*
X139625345Y-113059211D01*
X139634177Y-113063711D01*
X139634178Y-113063712D01*
X139678618Y-113086355D01*
X139731892Y-113113500D01*
X139850000Y-113132206D01*
X139968108Y-113113500D01*
X140021382Y-113086355D01*
X140065822Y-113063712D01*
X140065823Y-113063711D01*
X140074655Y-113059211D01*
X140159211Y-112974655D01*
X140213500Y-112868108D01*
X140232206Y-112750000D01*
X140213500Y-112631892D01*
X140176467Y-112559211D01*
X140163712Y-112534178D01*
X140163711Y-112534177D01*
X140159211Y-112525345D01*
X140074655Y-112440789D01*
X140065823Y-112436289D01*
X140065822Y-112436288D01*
X140021382Y-112413645D01*
X139968108Y-112386500D01*
X139850000Y-112367794D01*
X139731892Y-112386500D01*
X139678618Y-112413645D01*
X139634178Y-112436288D01*
X139634177Y-112436289D01*
X139625345Y-112440789D01*
X139540789Y-112525345D01*
X139536289Y-112534177D01*
X139536288Y-112534178D01*
X139523533Y-112559211D01*
X139486500Y-112631892D01*
X139467794Y-112750000D01*
X127400000Y-112750000D01*
X127400000Y-111300000D01*
X138417794Y-111300000D01*
X138436500Y-111418108D01*
X138444118Y-111433059D01*
X138479995Y-111503470D01*
X138490789Y-111524655D01*
X138575345Y-111609211D01*
X138584177Y-111613711D01*
X138584178Y-111613712D01*
X138625858Y-111634949D01*
X138681892Y-111663500D01*
X138800000Y-111682206D01*
X138918108Y-111663500D01*
X138974142Y-111634949D01*
X139015822Y-111613712D01*
X139015823Y-111613711D01*
X139024655Y-111609211D01*
X139083866Y-111550000D01*
X141167794Y-111550000D01*
X141186500Y-111668108D01*
X141240789Y-111774655D01*
X141325345Y-111859211D01*
X141334177Y-111863711D01*
X141342205Y-111869544D01*
X141341087Y-111871082D01*
X141383850Y-111911469D01*
X141400917Y-111980383D01*
X141387300Y-112032192D01*
X141336500Y-112131892D01*
X141317794Y-112250000D01*
X141336500Y-112368108D01*
X141348165Y-112391001D01*
X141377106Y-112447800D01*
X141390789Y-112474655D01*
X141475345Y-112559211D01*
X141484177Y-112563711D01*
X141484178Y-112563712D01*
X141528619Y-112586356D01*
X141581892Y-112613500D01*
X141700000Y-112632206D01*
X141818108Y-112613500D01*
X141871381Y-112586356D01*
X141915822Y-112563712D01*
X141915823Y-112563711D01*
X141924655Y-112559211D01*
X142009211Y-112474655D01*
X142022895Y-112447800D01*
X142051835Y-112391001D01*
X142063500Y-112368108D01*
X142082206Y-112250000D01*
X142063500Y-112131892D01*
X142009211Y-112025345D01*
X141983866Y-112000000D01*
X142617794Y-112000000D01*
X142636500Y-112118108D01*
X142690789Y-112224655D01*
X142775345Y-112309211D01*
X142784177Y-112313711D01*
X142784178Y-112313712D01*
X142828619Y-112336356D01*
X142881892Y-112363500D01*
X143000000Y-112382206D01*
X143118108Y-112363500D01*
X143171381Y-112336356D01*
X143215822Y-112313712D01*
X143215823Y-112313711D01*
X143224655Y-112309211D01*
X143309211Y-112224655D01*
X143363500Y-112118108D01*
X143382206Y-112000000D01*
X143363500Y-111881892D01*
X143309211Y-111775345D01*
X143224655Y-111690789D01*
X143215823Y-111686289D01*
X143215822Y-111686288D01*
X143160922Y-111658315D01*
X143118108Y-111636500D01*
X143000000Y-111617794D01*
X142881892Y-111636500D01*
X142839078Y-111658315D01*
X142784178Y-111686288D01*
X142784177Y-111686289D01*
X142775345Y-111690789D01*
X142690789Y-111775345D01*
X142636500Y-111881892D01*
X142617794Y-112000000D01*
X141983866Y-112000000D01*
X141924655Y-111940789D01*
X141915823Y-111936289D01*
X141907795Y-111930456D01*
X141908913Y-111928918D01*
X141866150Y-111888531D01*
X141849083Y-111819617D01*
X141862700Y-111767808D01*
X141908999Y-111676942D01*
X141908999Y-111676941D01*
X141913500Y-111668108D01*
X141932206Y-111550000D01*
X141924836Y-111503468D01*
X141933935Y-111433059D01*
X141979657Y-111378745D01*
X142047485Y-111357772D01*
X142080412Y-111362746D01*
X142081892Y-111363500D01*
X142200000Y-111382206D01*
X142221853Y-111378745D01*
X142308315Y-111365051D01*
X142318108Y-111363500D01*
X142392991Y-111325345D01*
X142415822Y-111313712D01*
X142415823Y-111313711D01*
X142424655Y-111309211D01*
X142509211Y-111224655D01*
X142529443Y-111184949D01*
X142558999Y-111126941D01*
X142563500Y-111118108D01*
X142582206Y-111000000D01*
X142563500Y-110881892D01*
X142509211Y-110775345D01*
X142448385Y-110714519D01*
X142414359Y-110652207D01*
X142419424Y-110581392D01*
X142461971Y-110524556D01*
X142517769Y-110500976D01*
X142591655Y-110489273D01*
X142618316Y-110485051D01*
X142618317Y-110485051D01*
X142628108Y-110483500D01*
X142681382Y-110456355D01*
X142725822Y-110433712D01*
X142725823Y-110433711D01*
X142734655Y-110429211D01*
X142819211Y-110344655D01*
X142873500Y-110238108D01*
X142892206Y-110120000D01*
X142873500Y-110001892D01*
X142819211Y-109895345D01*
X142757447Y-109833581D01*
X142723421Y-109771269D01*
X142728486Y-109700454D01*
X142771033Y-109643618D01*
X142826832Y-109620037D01*
X142868108Y-109613500D01*
X142923855Y-109585095D01*
X142965822Y-109563712D01*
X142965823Y-109563711D01*
X142974655Y-109559211D01*
X143059211Y-109474655D01*
X143113500Y-109368108D01*
X143132206Y-109250000D01*
X143113500Y-109131892D01*
X143059211Y-109025345D01*
X142974655Y-108940789D01*
X142965823Y-108936289D01*
X142965822Y-108936288D01*
X142921382Y-108913645D01*
X142868108Y-108886500D01*
X142750000Y-108867794D01*
X142631892Y-108886500D01*
X142578619Y-108913644D01*
X142534178Y-108936288D01*
X142534177Y-108936289D01*
X142525345Y-108940789D01*
X142440789Y-109025345D01*
X142386500Y-109131892D01*
X142367794Y-109250000D01*
X142386500Y-109368108D01*
X142440789Y-109474655D01*
X142502553Y-109536419D01*
X142536579Y-109598731D01*
X142531514Y-109669546D01*
X142488967Y-109726382D01*
X142433168Y-109749963D01*
X142391892Y-109756500D01*
X142378154Y-109763500D01*
X142294178Y-109806288D01*
X142294177Y-109806289D01*
X142285345Y-109810789D01*
X142200789Y-109895345D01*
X142146500Y-110001892D01*
X142127794Y-110120000D01*
X142146500Y-110238108D01*
X142200789Y-110344655D01*
X142261615Y-110405481D01*
X142295641Y-110467793D01*
X142290576Y-110538608D01*
X142248029Y-110595444D01*
X142192231Y-110619024D01*
X142118345Y-110630727D01*
X142091684Y-110634949D01*
X142091683Y-110634949D01*
X142081892Y-110636500D01*
X142051066Y-110652207D01*
X141984178Y-110686288D01*
X141984177Y-110686289D01*
X141975345Y-110690789D01*
X141890789Y-110775345D01*
X141836500Y-110881892D01*
X141817794Y-111000000D01*
X141825164Y-111046532D01*
X141816065Y-111116941D01*
X141770343Y-111171255D01*
X141702515Y-111192228D01*
X141669588Y-111187254D01*
X141668108Y-111186500D01*
X141550000Y-111167794D01*
X141540207Y-111169345D01*
X141516757Y-111173059D01*
X141431892Y-111186500D01*
X141378619Y-111213644D01*
X141334178Y-111236288D01*
X141334177Y-111236289D01*
X141325345Y-111240789D01*
X141240789Y-111325345D01*
X141236289Y-111334177D01*
X141236288Y-111334178D01*
X141213645Y-111378618D01*
X141186500Y-111431892D01*
X141167794Y-111550000D01*
X139083866Y-111550000D01*
X139109211Y-111524655D01*
X139120006Y-111503470D01*
X139155882Y-111433059D01*
X139163500Y-111418108D01*
X139182206Y-111300000D01*
X139163500Y-111181892D01*
X139131000Y-111118108D01*
X139113712Y-111084178D01*
X139113711Y-111084177D01*
X139109211Y-111075345D01*
X139024655Y-110990789D01*
X139015823Y-110986289D01*
X139015822Y-110986288D01*
X138971381Y-110963644D01*
X138918108Y-110936500D01*
X138800000Y-110917794D01*
X138681892Y-110936500D01*
X138628618Y-110963645D01*
X138584178Y-110986288D01*
X138584177Y-110986289D01*
X138575345Y-110990789D01*
X138490789Y-111075345D01*
X138486289Y-111084177D01*
X138486288Y-111084178D01*
X138469000Y-111118108D01*
X138436500Y-111181892D01*
X138417794Y-111300000D01*
X127400000Y-111300000D01*
X127400000Y-105926000D01*
X127420002Y-105857879D01*
X127473658Y-105811386D01*
X127526000Y-105800000D01*
X128951944Y-105800000D01*
X129020065Y-105820002D01*
X129066558Y-105873658D01*
X129076662Y-105943932D01*
X129047168Y-106008512D01*
X129041039Y-106015095D01*
X129030789Y-106025345D01*
X129026289Y-106034177D01*
X129026288Y-106034178D01*
X129008443Y-106069201D01*
X128976500Y-106131892D01*
X128957794Y-106250000D01*
X128976500Y-106368108D01*
X129030789Y-106474655D01*
X129115345Y-106559211D01*
X129124177Y-106563711D01*
X129124178Y-106563712D01*
X129168619Y-106586356D01*
X129221892Y-106613500D01*
X129340000Y-106632206D01*
X129458108Y-106613500D01*
X129511382Y-106586355D01*
X129555822Y-106563712D01*
X129555823Y-106563711D01*
X129564655Y-106559211D01*
X129649211Y-106474655D01*
X129703500Y-106368108D01*
X129722206Y-106250000D01*
X129703500Y-106131892D01*
X129671557Y-106069201D01*
X129653712Y-106034178D01*
X129653711Y-106034177D01*
X129649211Y-106025345D01*
X129638961Y-106015095D01*
X129604935Y-105952783D01*
X129610000Y-105881968D01*
X129652547Y-105825132D01*
X129719067Y-105800321D01*
X129728056Y-105800000D01*
X130500000Y-105800000D01*
X130500000Y-105794681D01*
X130524651Y-105787443D01*
X130538071Y-105778819D01*
X130609068Y-105778822D01*
X130630768Y-105787451D01*
X130673056Y-105808998D01*
X130681892Y-105813500D01*
X130800000Y-105832206D01*
X130918108Y-105813500D01*
X130971381Y-105786356D01*
X131015822Y-105763712D01*
X131015823Y-105763711D01*
X131024655Y-105759211D01*
X131109211Y-105674655D01*
X131113711Y-105665823D01*
X131119544Y-105657795D01*
X131122126Y-105659671D01*
X131159406Y-105620196D01*
X131228320Y-105603127D01*
X131280131Y-105616745D01*
X131371892Y-105663500D01*
X131490000Y-105682206D01*
X131499793Y-105680655D01*
X131499794Y-105680655D01*
X131536246Y-105674882D01*
X131606657Y-105683982D01*
X131660970Y-105729705D01*
X131680404Y-105779619D01*
X131681645Y-105787451D01*
X131686500Y-105818108D01*
X131740789Y-105924655D01*
X131825345Y-106009211D01*
X131834177Y-106013711D01*
X131834178Y-106013712D01*
X131857009Y-106025345D01*
X131931892Y-106063500D01*
X132050000Y-106082206D01*
X132168108Y-106063500D01*
X132242991Y-106025345D01*
X132265822Y-106013712D01*
X132265823Y-106013711D01*
X132274655Y-106009211D01*
X132359211Y-105924655D01*
X132413500Y-105818108D01*
X132428530Y-105723207D01*
X132458942Y-105659055D01*
X132519210Y-105621528D01*
X132572688Y-105618469D01*
X132635606Y-105628434D01*
X132753714Y-105609728D01*
X132835397Y-105568108D01*
X132851428Y-105559940D01*
X132851429Y-105559939D01*
X132860261Y-105555439D01*
X132871822Y-105543878D01*
X132934134Y-105509852D01*
X133004949Y-105514917D01*
X133050012Y-105543878D01*
X133105345Y-105599211D01*
X133114177Y-105603711D01*
X133114178Y-105603712D01*
X133146530Y-105620196D01*
X133211892Y-105653500D01*
X133330000Y-105672206D01*
X133448108Y-105653500D01*
X133513470Y-105620196D01*
X133545822Y-105603712D01*
X133545823Y-105603711D01*
X133554655Y-105599211D01*
X133620905Y-105532961D01*
X133683217Y-105498935D01*
X133754032Y-105504000D01*
X133799095Y-105532961D01*
X133875345Y-105609211D01*
X133884177Y-105613711D01*
X133884178Y-105613712D01*
X133896904Y-105620196D01*
X133981892Y-105663500D01*
X134100000Y-105682206D01*
X134218108Y-105663500D01*
X134303096Y-105620196D01*
X134315822Y-105613712D01*
X134315823Y-105613711D01*
X134324655Y-105609211D01*
X134409211Y-105524655D01*
X134414307Y-105514655D01*
X134436355Y-105471382D01*
X134463500Y-105418108D01*
X134482206Y-105300000D01*
X134463500Y-105181892D01*
X134436355Y-105128618D01*
X134413712Y-105084178D01*
X134413711Y-105084177D01*
X134409211Y-105075345D01*
X134324655Y-104990789D01*
X134315823Y-104986289D01*
X134315822Y-104986288D01*
X134232882Y-104944028D01*
X134218108Y-104936500D01*
X134100000Y-104917794D01*
X133981892Y-104936500D01*
X133967118Y-104944028D01*
X133884178Y-104986288D01*
X133884177Y-104986289D01*
X133875345Y-104990789D01*
X133809095Y-105057039D01*
X133746783Y-105091065D01*
X133675968Y-105086000D01*
X133630905Y-105057039D01*
X133554655Y-104980789D01*
X133545823Y-104976289D01*
X133545822Y-104976288D01*
X133482508Y-104944028D01*
X133448108Y-104926500D01*
X133330000Y-104907794D01*
X133211892Y-104926500D01*
X133177492Y-104944028D01*
X133114178Y-104976288D01*
X133114177Y-104976289D01*
X133105345Y-104980789D01*
X133093784Y-104992350D01*
X133031472Y-105026376D01*
X132960657Y-105021311D01*
X132915594Y-104992350D01*
X132860261Y-104937017D01*
X132851429Y-104932517D01*
X132851428Y-104932516D01*
X132802908Y-104907794D01*
X132753714Y-104882728D01*
X132635606Y-104864022D01*
X132517498Y-104882728D01*
X132468304Y-104907794D01*
X132419784Y-104932516D01*
X132419783Y-104932517D01*
X132410951Y-104937017D01*
X132326395Y-105021573D01*
X132272106Y-105128120D01*
X132258167Y-105216134D01*
X132257076Y-105223020D01*
X132226664Y-105287173D01*
X132166396Y-105324700D01*
X132112918Y-105327759D01*
X132050000Y-105317794D01*
X132040207Y-105319345D01*
X132040206Y-105319345D01*
X132003754Y-105325118D01*
X131933343Y-105316018D01*
X131879030Y-105270295D01*
X131859596Y-105220381D01*
X131855051Y-105191683D01*
X131855050Y-105191681D01*
X131853500Y-105181892D01*
X131826355Y-105128618D01*
X131803712Y-105084178D01*
X131803711Y-105084177D01*
X131799211Y-105075345D01*
X131714655Y-104990789D01*
X131705823Y-104986289D01*
X131705822Y-104986288D01*
X131622882Y-104944028D01*
X131608108Y-104936500D01*
X131490000Y-104917794D01*
X131371892Y-104936500D01*
X131357118Y-104944028D01*
X131274178Y-104986288D01*
X131274177Y-104986289D01*
X131265345Y-104990789D01*
X131180789Y-105075345D01*
X131176289Y-105084177D01*
X131170456Y-105092205D01*
X131167874Y-105090329D01*
X131130594Y-105129804D01*
X131061680Y-105146873D01*
X131009869Y-105133255D01*
X130936099Y-105095667D01*
X130918108Y-105086500D01*
X130800000Y-105067794D01*
X130790207Y-105069345D01*
X130691683Y-105084949D01*
X130691681Y-105084950D01*
X130681892Y-105086500D01*
X130673061Y-105091000D01*
X130664935Y-105093640D01*
X130593968Y-105095667D01*
X130533170Y-105059004D01*
X130501845Y-104995292D01*
X130500000Y-104973807D01*
X130500000Y-103118056D01*
X130520002Y-103049935D01*
X130573658Y-103003442D01*
X130643932Y-102993338D01*
X130708512Y-103022832D01*
X130715095Y-103028961D01*
X130785345Y-103099211D01*
X130794177Y-103103711D01*
X130794178Y-103103712D01*
X130838619Y-103126356D01*
X130891892Y-103153500D01*
X131010000Y-103172206D01*
X131107529Y-103156759D01*
X131177938Y-103165859D01*
X131232252Y-103211581D01*
X131239503Y-103224001D01*
X131290789Y-103324655D01*
X131294507Y-103328373D01*
X131317498Y-103392802D01*
X131301420Y-103461954D01*
X131296457Y-103469677D01*
X131290789Y-103475345D01*
X131236500Y-103581892D01*
X131217794Y-103700000D01*
X131236500Y-103818108D01*
X131290789Y-103924655D01*
X131375345Y-104009211D01*
X131384177Y-104013711D01*
X131384178Y-104013712D01*
X131420463Y-104032200D01*
X131481892Y-104063500D01*
X131600000Y-104082206D01*
X131718108Y-104063500D01*
X131779537Y-104032200D01*
X131815822Y-104013712D01*
X131815823Y-104013711D01*
X131824655Y-104009211D01*
X131909211Y-103924655D01*
X131963500Y-103818108D01*
X131975551Y-103742019D01*
X131995098Y-103700784D01*
X131994382Y-103699216D01*
X132204902Y-103699216D01*
X132224449Y-103742019D01*
X132236500Y-103818108D01*
X132290789Y-103924655D01*
X132375345Y-104009211D01*
X132384177Y-104013711D01*
X132384178Y-104013712D01*
X132420463Y-104032200D01*
X132481892Y-104063500D01*
X132600000Y-104082206D01*
X132718108Y-104063500D01*
X132779537Y-104032200D01*
X132815822Y-104013712D01*
X132815823Y-104013711D01*
X132824655Y-104009211D01*
X132909211Y-103924655D01*
X132963500Y-103818108D01*
X132982206Y-103700000D01*
X132975551Y-103657981D01*
X132973337Y-103643998D01*
X132982437Y-103573587D01*
X133028160Y-103519274D01*
X133078076Y-103499840D01*
X133118108Y-103493500D01*
X133180020Y-103461954D01*
X133215822Y-103443712D01*
X133215823Y-103443711D01*
X133224655Y-103439211D01*
X133309211Y-103354655D01*
X133363500Y-103248108D01*
X133382206Y-103130000D01*
X133378043Y-103103712D01*
X133365051Y-103021685D01*
X133363500Y-103011892D01*
X133309211Y-102905345D01*
X133224655Y-102820789D01*
X133215823Y-102816289D01*
X133215822Y-102816288D01*
X133156944Y-102786288D01*
X133118108Y-102766500D01*
X133000000Y-102747794D01*
X132881892Y-102766500D01*
X132843056Y-102786288D01*
X132784178Y-102816288D01*
X132784177Y-102816289D01*
X132775345Y-102820789D01*
X132690789Y-102905345D01*
X132636500Y-103011892D01*
X132634949Y-103021685D01*
X132621958Y-103103712D01*
X132617794Y-103130000D01*
X132619345Y-103139793D01*
X132619345Y-103139794D01*
X132626663Y-103186002D01*
X132617563Y-103256413D01*
X132571840Y-103310726D01*
X132521924Y-103330160D01*
X132481892Y-103336500D01*
X132428902Y-103363500D01*
X132384178Y-103386288D01*
X132384177Y-103386289D01*
X132375345Y-103390789D01*
X132290789Y-103475345D01*
X132286289Y-103484177D01*
X132286288Y-103484178D01*
X132283832Y-103488999D01*
X132236500Y-103581892D01*
X132234949Y-103591685D01*
X132224449Y-103657981D01*
X132204902Y-103699216D01*
X131994382Y-103699216D01*
X131975551Y-103657981D01*
X131965051Y-103591685D01*
X131963500Y-103581892D01*
X131909211Y-103475345D01*
X131905493Y-103471627D01*
X131882502Y-103407198D01*
X131898580Y-103338046D01*
X131903543Y-103330323D01*
X131909211Y-103324655D01*
X131963500Y-103218108D01*
X131982206Y-103100000D01*
X131963500Y-102981892D01*
X131925905Y-102908108D01*
X131913712Y-102884178D01*
X131913711Y-102884177D01*
X131909211Y-102875345D01*
X131824655Y-102790789D01*
X131815823Y-102786289D01*
X131815822Y-102786288D01*
X131740273Y-102747794D01*
X131718108Y-102736500D01*
X131600000Y-102717794D01*
X131502471Y-102733241D01*
X131432062Y-102724141D01*
X131377748Y-102678419D01*
X131370495Y-102665995D01*
X131365884Y-102656945D01*
X131319211Y-102565345D01*
X131234655Y-102480789D01*
X131225823Y-102476289D01*
X131225822Y-102476288D01*
X131181382Y-102453645D01*
X131128108Y-102426500D01*
X131010000Y-102407794D01*
X130891892Y-102426500D01*
X130838618Y-102453645D01*
X130794178Y-102476288D01*
X130794177Y-102476289D01*
X130785345Y-102480789D01*
X130715095Y-102551039D01*
X130652783Y-102585065D01*
X130581968Y-102580000D01*
X130525132Y-102537453D01*
X130500321Y-102470933D01*
X130500000Y-102461944D01*
X130500000Y-100892940D01*
X130520002Y-100824819D01*
X130573658Y-100778326D01*
X130643932Y-100768222D01*
X130708512Y-100797716D01*
X130715095Y-100803845D01*
X131429612Y-101518362D01*
X131431398Y-101520363D01*
X131436260Y-101530487D01*
X131458158Y-101547999D01*
X131464835Y-101553975D01*
X131466762Y-101555512D01*
X131471769Y-101560519D01*
X131477759Y-101564284D01*
X131480129Y-101566174D01*
X131486911Y-101570994D01*
X131497328Y-101579325D01*
X131497331Y-101579327D01*
X131508413Y-101588189D01*
X131520051Y-101590865D01*
X131530163Y-101597221D01*
X131554785Y-101600005D01*
X131557527Y-101600315D01*
X131566022Y-101601767D01*
X131568856Y-101602089D01*
X131575803Y-101603686D01*
X131582931Y-101603686D01*
X131585583Y-101603987D01*
X131594405Y-101604484D01*
X131607866Y-101606006D01*
X131607867Y-101606006D01*
X131621967Y-101607600D01*
X131632714Y-101603847D01*
X131635593Y-101603686D01*
X133662746Y-101603686D01*
X133730867Y-101623688D01*
X133751841Y-101640591D01*
X134586014Y-102474764D01*
X134620040Y-102537076D01*
X134614975Y-102607891D01*
X134572428Y-102664727D01*
X134554123Y-102676125D01*
X134534180Y-102686287D01*
X134534179Y-102686288D01*
X134525345Y-102690789D01*
X134440789Y-102775345D01*
X134386500Y-102881892D01*
X134367794Y-103000000D01*
X134386500Y-103118108D01*
X134391002Y-103126943D01*
X134391002Y-103126944D01*
X134417813Y-103179563D01*
X134430918Y-103249340D01*
X134404218Y-103315125D01*
X134346191Y-103356032D01*
X134325258Y-103361215D01*
X134291892Y-103366500D01*
X134275061Y-103375076D01*
X134194178Y-103416288D01*
X134194177Y-103416289D01*
X134185345Y-103420789D01*
X134100789Y-103505345D01*
X134096289Y-103514177D01*
X134096288Y-103514178D01*
X134077813Y-103550437D01*
X134046500Y-103611892D01*
X134027794Y-103730000D01*
X134046500Y-103848108D01*
X134100789Y-103954655D01*
X134185345Y-104039211D01*
X134194177Y-104043711D01*
X134194178Y-104043712D01*
X134224181Y-104058999D01*
X134291892Y-104093500D01*
X134410000Y-104112206D01*
X134528108Y-104093500D01*
X134595819Y-104058999D01*
X134625822Y-104043712D01*
X134625823Y-104043711D01*
X134634655Y-104039211D01*
X134719211Y-103954655D01*
X134773500Y-103848108D01*
X134792206Y-103730000D01*
X134773500Y-103611892D01*
X134758214Y-103581892D01*
X134742187Y-103550437D01*
X134729082Y-103480660D01*
X134755782Y-103414875D01*
X134813809Y-103373968D01*
X134834742Y-103368785D01*
X134868108Y-103363500D01*
X134944345Y-103324655D01*
X134965822Y-103313712D01*
X134965823Y-103313711D01*
X134974655Y-103309211D01*
X134997885Y-103285981D01*
X135060197Y-103251955D01*
X135131012Y-103257020D01*
X135187848Y-103299567D01*
X135212659Y-103366087D01*
X135212980Y-103375076D01*
X135212980Y-105646080D01*
X135192978Y-105714201D01*
X135176075Y-105735175D01*
X134850655Y-106060595D01*
X134788343Y-106094621D01*
X134761560Y-106097500D01*
X133836779Y-106097500D01*
X133834107Y-106097348D01*
X133823513Y-106093628D01*
X133809413Y-106095197D01*
X133809412Y-106095197D01*
X133795664Y-106096727D01*
X133786674Y-106097226D01*
X133784240Y-106097500D01*
X133777169Y-106097500D01*
X133770280Y-106099071D01*
X133767296Y-106099407D01*
X133759059Y-106100800D01*
X133745794Y-106102276D01*
X133745792Y-106102277D01*
X133731692Y-106103846D01*
X133721571Y-106110183D01*
X133709926Y-106112839D01*
X133698828Y-106121682D01*
X133698827Y-106121683D01*
X133688389Y-106130001D01*
X133681350Y-106134985D01*
X133679123Y-106136758D01*
X133673082Y-106140540D01*
X133668041Y-106145581D01*
X133665956Y-106147241D01*
X133659371Y-106153124D01*
X133637672Y-106170415D01*
X133632727Y-106180667D01*
X133630801Y-106182821D01*
X133282824Y-106530798D01*
X133280823Y-106532584D01*
X133270699Y-106537446D01*
X133253187Y-106559344D01*
X133247211Y-106566021D01*
X133245674Y-106567948D01*
X133240667Y-106572955D01*
X133236902Y-106578945D01*
X133235012Y-106581315D01*
X133230192Y-106588097D01*
X133221861Y-106598514D01*
X133221859Y-106598517D01*
X133212997Y-106609599D01*
X133210321Y-106621237D01*
X133203965Y-106631349D01*
X133202371Y-106645451D01*
X133200871Y-106658713D01*
X133199419Y-106667208D01*
X133199097Y-106670042D01*
X133197500Y-106676989D01*
X133197500Y-106684117D01*
X133197199Y-106686769D01*
X133196702Y-106695591D01*
X133193586Y-106723153D01*
X133197339Y-106733900D01*
X133197500Y-106736779D01*
X133197500Y-107063213D01*
X133197348Y-107065891D01*
X133193627Y-107076487D01*
X133195196Y-107090586D01*
X133195196Y-107090587D01*
X133196727Y-107104341D01*
X133197224Y-107113306D01*
X133197500Y-107115757D01*
X133197500Y-107122831D01*
X133199074Y-107129729D01*
X133199412Y-107132733D01*
X133200800Y-107140940D01*
X133203846Y-107168308D01*
X133210183Y-107178429D01*
X133212839Y-107190074D01*
X133221683Y-107201173D01*
X133227836Y-107213958D01*
X133226030Y-107214827D01*
X133245990Y-107263776D01*
X133232907Y-107333758D01*
X133188000Y-107421892D01*
X133169294Y-107540000D01*
X133188000Y-107658108D01*
X133192501Y-107666941D01*
X133236411Y-107753119D01*
X133249515Y-107822895D01*
X133222815Y-107888680D01*
X133198206Y-107912258D01*
X133192809Y-107916179D01*
X133183968Y-107920684D01*
X133099412Y-108005240D01*
X133045123Y-108111787D01*
X133026417Y-108229895D01*
X133045123Y-108348003D01*
X133099412Y-108454550D01*
X133154473Y-108509611D01*
X133188499Y-108571923D01*
X133183434Y-108642738D01*
X133171887Y-108664247D01*
X133170789Y-108665345D01*
X133116500Y-108771892D01*
X133097794Y-108890000D01*
X133116500Y-109008108D01*
X133130452Y-109035490D01*
X133166284Y-109105813D01*
X133170789Y-109114655D01*
X133255345Y-109199211D01*
X133264177Y-109203711D01*
X133264178Y-109203712D01*
X133308619Y-109226356D01*
X133361892Y-109253500D01*
X133371683Y-109255051D01*
X133371684Y-109255051D01*
X133387677Y-109257584D01*
X133413056Y-109261603D01*
X133477208Y-109292015D01*
X133514735Y-109352283D01*
X133519345Y-109386052D01*
X133519345Y-109390207D01*
X133517794Y-109400000D01*
X133536500Y-109518108D01*
X133563645Y-109571382D01*
X133571787Y-109587361D01*
X133590789Y-109624655D01*
X133675345Y-109709211D01*
X133684177Y-109713711D01*
X133684178Y-109713712D01*
X133728619Y-109736356D01*
X133781892Y-109763500D01*
X133900000Y-109782206D01*
X134018108Y-109763500D01*
X134074265Y-109734886D01*
X134115818Y-109713714D01*
X134115821Y-109713712D01*
X134124655Y-109709211D01*
X134131670Y-109702196D01*
X134137101Y-109698250D01*
X134203968Y-109674391D01*
X134211164Y-109674185D01*
X134760583Y-109674185D01*
X134785164Y-109676606D01*
X134800000Y-109679557D01*
X134906982Y-109658277D01*
X134917300Y-109651383D01*
X134917302Y-109651382D01*
X134963536Y-109620489D01*
X134987361Y-109604570D01*
X134997677Y-109597677D01*
X135006084Y-109585095D01*
X135021754Y-109566002D01*
X141666002Y-102921754D01*
X141685095Y-102906084D01*
X141686201Y-102905345D01*
X141697677Y-102897677D01*
X141749052Y-102820789D01*
X141751382Y-102817302D01*
X141751383Y-102817300D01*
X141758277Y-102806982D01*
X141779558Y-102700000D01*
X141776606Y-102685159D01*
X141774185Y-102660578D01*
X141774185Y-100037805D01*
X141794187Y-99969684D01*
X141847843Y-99923191D01*
X141918117Y-99913087D01*
X141957389Y-99925538D01*
X142031892Y-99963500D01*
X142150000Y-99982206D01*
X142268108Y-99963500D01*
X142333162Y-99930353D01*
X142365822Y-99913712D01*
X142365823Y-99913711D01*
X142374655Y-99909211D01*
X142459211Y-99824655D01*
X142471774Y-99800000D01*
X142508999Y-99726941D01*
X142513500Y-99718108D01*
X142529700Y-99615822D01*
X142530655Y-99609793D01*
X142532206Y-99600000D01*
X142513500Y-99481892D01*
X142476763Y-99409793D01*
X142463712Y-99384178D01*
X142463711Y-99384177D01*
X142459211Y-99375345D01*
X142374655Y-99290789D01*
X142365823Y-99286289D01*
X142365822Y-99286288D01*
X142321382Y-99263645D01*
X142268108Y-99236500D01*
X142150000Y-99217794D01*
X142140207Y-99219345D01*
X142130290Y-99219345D01*
X142130290Y-99216415D01*
X142075517Y-99209329D01*
X142037138Y-99183082D01*
X141058337Y-98204281D01*
X141053796Y-98199496D01*
X141041652Y-98186009D01*
X141029197Y-98172176D01*
X141017100Y-98166790D01*
X141017097Y-98166788D01*
X141011962Y-98164502D01*
X140994590Y-98155069D01*
X140989880Y-98152010D01*
X140989876Y-98152009D01*
X140978770Y-98144796D01*
X140965692Y-98142725D01*
X140961832Y-98141243D01*
X140957794Y-98140385D01*
X140945700Y-98135000D01*
X140926840Y-98135000D01*
X140907129Y-98133449D01*
X140901574Y-98132569D01*
X140901573Y-98132569D01*
X140888497Y-98130498D01*
X140875708Y-98133925D01*
X140862480Y-98134618D01*
X140862449Y-98134033D01*
X140855106Y-98135000D01*
X140258919Y-98135000D01*
X140252324Y-98134827D01*
X140228843Y-98133596D01*
X140228842Y-98133596D01*
X140215616Y-98132903D01*
X140203249Y-98137650D01*
X140203250Y-98137650D01*
X140198008Y-98139662D01*
X140179049Y-98145278D01*
X140160598Y-98149200D01*
X140149886Y-98156982D01*
X140146109Y-98158664D01*
X140142647Y-98160912D01*
X140130287Y-98165657D01*
X140116949Y-98178995D01*
X140101916Y-98191835D01*
X140086655Y-98202923D01*
X140080035Y-98214390D01*
X140071172Y-98224233D01*
X140070736Y-98223841D01*
X140066228Y-98229716D01*
X139247849Y-99048095D01*
X139185537Y-99082121D01*
X139158754Y-99085000D01*
X134751056Y-99085000D01*
X134682935Y-99064998D01*
X134661961Y-99048095D01*
X134614655Y-99000789D01*
X134605823Y-98996289D01*
X134605822Y-98996288D01*
X134561382Y-98973645D01*
X134508108Y-98946500D01*
X134390000Y-98927794D01*
X134271892Y-98946500D01*
X134218619Y-98973644D01*
X134174178Y-98996288D01*
X134174177Y-98996289D01*
X134165345Y-99000789D01*
X134080789Y-99085345D01*
X134076289Y-99094177D01*
X134076288Y-99094178D01*
X134058038Y-99129996D01*
X134026500Y-99191892D01*
X134021613Y-99222752D01*
X134019989Y-99233003D01*
X133989577Y-99297157D01*
X133929310Y-99334684D01*
X133858320Y-99333671D01*
X133806445Y-99302389D01*
X132408337Y-97904281D01*
X132403796Y-97899496D01*
X132390433Y-97884655D01*
X132379197Y-97872176D01*
X132367100Y-97866790D01*
X132367097Y-97866788D01*
X132361962Y-97864502D01*
X132344590Y-97855069D01*
X132339880Y-97852010D01*
X132339876Y-97852009D01*
X132328770Y-97844796D01*
X132315692Y-97842725D01*
X132311832Y-97841243D01*
X132307794Y-97840385D01*
X132295700Y-97835000D01*
X132276840Y-97835000D01*
X132257129Y-97833449D01*
X132251574Y-97832569D01*
X132251573Y-97832569D01*
X132238497Y-97830498D01*
X132225708Y-97833925D01*
X132212480Y-97834618D01*
X132212449Y-97834033D01*
X132205106Y-97835000D01*
X131534650Y-97835000D01*
X131466529Y-97814998D01*
X131446634Y-97796198D01*
X131445211Y-97797621D01*
X131360655Y-97713065D01*
X131351821Y-97708564D01*
X131351820Y-97708563D01*
X131284444Y-97674232D01*
X131232829Y-97625483D01*
X131215764Y-97556568D01*
X131238666Y-97489367D01*
X131284445Y-97449699D01*
X131295281Y-97444178D01*
X131324655Y-97429211D01*
X131409211Y-97344655D01*
X131415830Y-97331666D01*
X131450454Y-97263712D01*
X131463500Y-97238108D01*
X131482206Y-97120000D01*
X131463500Y-97001892D01*
X131426763Y-96929793D01*
X131413712Y-96904178D01*
X131413711Y-96904177D01*
X131409211Y-96895345D01*
X131328961Y-96815095D01*
X131294935Y-96752783D01*
X131300000Y-96681968D01*
X131342547Y-96625132D01*
X131409067Y-96600321D01*
X131418056Y-96600000D01*
X134649042Y-96600000D01*
X134717163Y-96620002D01*
G37*
%TD.AperFunction*%
%TA.AperFunction,Conductor*%
G36*
X139315065Y-99935002D02*
G01*
X139361558Y-99988658D01*
X139371662Y-100058932D01*
X139342168Y-100123512D01*
X139336039Y-100130095D01*
X139290789Y-100175345D01*
X139286289Y-100184177D01*
X139286288Y-100184178D01*
X139270165Y-100215822D01*
X139236500Y-100281892D01*
X139234949Y-100291685D01*
X139223468Y-100364178D01*
X139217794Y-100400000D01*
X139236500Y-100518108D01*
X139241001Y-100526941D01*
X139283797Y-100610932D01*
X139290789Y-100624655D01*
X139375345Y-100709211D01*
X139384177Y-100713711D01*
X139384178Y-100713712D01*
X139428618Y-100736355D01*
X139481892Y-100763500D01*
X139600000Y-100782206D01*
X139718108Y-100763500D01*
X139771382Y-100736355D01*
X139815822Y-100713712D01*
X139815823Y-100713711D01*
X139824655Y-100709211D01*
X139909211Y-100624655D01*
X139916204Y-100610932D01*
X139958999Y-100526941D01*
X139963500Y-100518108D01*
X139982206Y-100400000D01*
X139976533Y-100364178D01*
X139965051Y-100291685D01*
X139963500Y-100281892D01*
X139946176Y-100247892D01*
X139933072Y-100178115D01*
X139959772Y-100112331D01*
X140017799Y-100071424D01*
X140088731Y-100068383D01*
X140147538Y-100101594D01*
X140504264Y-100458320D01*
X140534965Y-100508419D01*
X140536500Y-100518108D01*
X140541001Y-100526941D01*
X140583797Y-100610932D01*
X140590789Y-100624655D01*
X140675345Y-100709211D01*
X140684177Y-100713711D01*
X140684178Y-100713712D01*
X140728618Y-100736355D01*
X140781892Y-100763500D01*
X140900000Y-100782206D01*
X141018108Y-100763500D01*
X141042611Y-100751015D01*
X141112387Y-100737910D01*
X141178172Y-100764609D01*
X141219079Y-100822635D01*
X141225815Y-100863281D01*
X141225815Y-102534239D01*
X141205813Y-102602360D01*
X141188910Y-102623334D01*
X134723334Y-109088910D01*
X134661022Y-109122936D01*
X134634239Y-109125815D01*
X134211164Y-109125815D01*
X134143043Y-109105813D01*
X134137101Y-109101750D01*
X134131670Y-109097804D01*
X134124655Y-109090789D01*
X134115819Y-109086287D01*
X134115818Y-109086286D01*
X134026944Y-109041002D01*
X134026943Y-109041002D01*
X134018108Y-109036500D01*
X134009450Y-109035129D01*
X133951372Y-108995417D01*
X133923734Y-108930021D01*
X133935839Y-108860064D01*
X133959817Y-108826561D01*
X136401696Y-106384682D01*
X136403697Y-106382896D01*
X136413821Y-106378034D01*
X136431333Y-106356136D01*
X136437309Y-106349459D01*
X136438845Y-106347533D01*
X136443853Y-106342525D01*
X136447621Y-106336528D01*
X136449512Y-106334158D01*
X136454324Y-106327388D01*
X136462660Y-106316965D01*
X136462662Y-106316961D01*
X136471523Y-106305881D01*
X136474200Y-106294241D01*
X136480554Y-106284131D01*
X136483647Y-106256774D01*
X136485103Y-106248258D01*
X136485423Y-106245434D01*
X136487020Y-106238491D01*
X136487020Y-106231363D01*
X136487319Y-106228728D01*
X136487818Y-106219881D01*
X136489339Y-106206430D01*
X136489339Y-106206429D01*
X136490933Y-106192328D01*
X136487180Y-106181583D01*
X136487020Y-106178711D01*
X136487020Y-102716563D01*
X136487172Y-102713885D01*
X136490893Y-102703289D01*
X136488876Y-102685161D01*
X136487793Y-102675435D01*
X136487296Y-102666470D01*
X136487020Y-102664019D01*
X136487020Y-102656945D01*
X136485446Y-102650047D01*
X136485108Y-102647043D01*
X136483719Y-102638832D01*
X136480674Y-102611468D01*
X136474337Y-102601347D01*
X136471681Y-102589702D01*
X136454519Y-102568165D01*
X136449535Y-102561126D01*
X136447762Y-102558899D01*
X136443980Y-102552858D01*
X136438939Y-102547817D01*
X136437279Y-102545732D01*
X136431396Y-102539147D01*
X136422949Y-102528546D01*
X136422948Y-102528545D01*
X136414105Y-102517448D01*
X136414764Y-102516923D01*
X136382111Y-102470355D01*
X136379273Y-102400000D01*
X137917794Y-102400000D01*
X137936500Y-102518108D01*
X137954206Y-102552858D01*
X137984522Y-102612355D01*
X137990789Y-102624655D01*
X138075345Y-102709211D01*
X138084177Y-102713711D01*
X138084178Y-102713712D01*
X138104646Y-102724141D01*
X138181892Y-102763500D01*
X138300000Y-102782206D01*
X138418108Y-102763500D01*
X138495354Y-102724141D01*
X138515822Y-102713712D01*
X138515823Y-102713711D01*
X138524655Y-102709211D01*
X138609211Y-102624655D01*
X138615479Y-102612355D01*
X138645794Y-102552858D01*
X138663500Y-102518108D01*
X138682206Y-102400000D01*
X138663500Y-102281892D01*
X138609211Y-102175345D01*
X138524655Y-102090789D01*
X138515823Y-102086289D01*
X138515822Y-102086288D01*
X138471382Y-102063645D01*
X138418108Y-102036500D01*
X138300000Y-102017794D01*
X138181892Y-102036500D01*
X138128618Y-102063645D01*
X138084178Y-102086288D01*
X138084177Y-102086289D01*
X138075345Y-102090789D01*
X137990789Y-102175345D01*
X137936500Y-102281892D01*
X137917794Y-102400000D01*
X136379273Y-102400000D01*
X136379249Y-102399416D01*
X136415193Y-102338191D01*
X136478533Y-102306118D01*
X136501478Y-102304011D01*
X136711702Y-102304011D01*
X136714380Y-102304163D01*
X136724976Y-102307884D01*
X136739075Y-102306315D01*
X136739076Y-102306315D01*
X136752830Y-102304784D01*
X136761795Y-102304287D01*
X136764246Y-102304011D01*
X136771320Y-102304011D01*
X136778218Y-102302437D01*
X136781222Y-102302099D01*
X136789429Y-102300711D01*
X136816797Y-102297665D01*
X136826918Y-102291328D01*
X136838563Y-102288672D01*
X136860100Y-102271510D01*
X136867139Y-102266526D01*
X136869366Y-102264753D01*
X136875407Y-102260971D01*
X136880448Y-102255930D01*
X136882533Y-102254270D01*
X136889118Y-102248387D01*
X136899718Y-102239940D01*
X136910817Y-102231096D01*
X136915762Y-102220844D01*
X136917688Y-102218690D01*
X137117176Y-102019202D01*
X137119177Y-102017416D01*
X137129301Y-102012554D01*
X137146813Y-101990656D01*
X137152789Y-101983979D01*
X137154326Y-101982052D01*
X137159333Y-101977045D01*
X137163098Y-101971055D01*
X137164988Y-101968685D01*
X137169808Y-101961903D01*
X137178139Y-101951486D01*
X137178141Y-101951483D01*
X137187003Y-101940401D01*
X137189679Y-101928763D01*
X137196035Y-101918651D01*
X137197629Y-101904550D01*
X137197630Y-101904547D01*
X137199130Y-101891283D01*
X137200581Y-101882789D01*
X137200902Y-101879958D01*
X137202500Y-101873011D01*
X137202500Y-101865888D01*
X137202800Y-101863246D01*
X137203297Y-101854411D01*
X137204819Y-101840947D01*
X137206413Y-101826847D01*
X137202661Y-101816102D01*
X137202500Y-101813225D01*
X137202500Y-100700000D01*
X138217794Y-100700000D01*
X138236500Y-100818108D01*
X138259517Y-100863281D01*
X138275023Y-100893712D01*
X138290789Y-100924655D01*
X138375345Y-101009211D01*
X138384177Y-101013711D01*
X138384178Y-101013712D01*
X138428618Y-101036355D01*
X138481892Y-101063500D01*
X138600000Y-101082206D01*
X138718108Y-101063500D01*
X138771382Y-101036355D01*
X138815822Y-101013712D01*
X138815823Y-101013711D01*
X138824655Y-101009211D01*
X138909211Y-100924655D01*
X138924978Y-100893712D01*
X138940483Y-100863281D01*
X138963500Y-100818108D01*
X138982206Y-100700000D01*
X138963500Y-100581892D01*
X138909211Y-100475345D01*
X138824655Y-100390789D01*
X138815823Y-100386289D01*
X138815822Y-100386288D01*
X138741333Y-100348334D01*
X138718108Y-100336500D01*
X138600000Y-100317794D01*
X138481892Y-100336500D01*
X138458667Y-100348334D01*
X138384178Y-100386288D01*
X138384177Y-100386289D01*
X138375345Y-100390789D01*
X138290789Y-100475345D01*
X138236500Y-100581892D01*
X138217794Y-100700000D01*
X137202500Y-100700000D01*
X137202500Y-100041000D01*
X137222502Y-99972879D01*
X137276158Y-99926386D01*
X137328500Y-99915000D01*
X139246944Y-99915000D01*
X139315065Y-99935002D01*
G37*
%TD.AperFunction*%
%TA.AperFunction,Conductor*%
G36*
X130850065Y-96620002D02*
G01*
X130896558Y-96673658D01*
X130906662Y-96743932D01*
X130877168Y-96808512D01*
X130871039Y-96815095D01*
X130790789Y-96895345D01*
X130786289Y-96904177D01*
X130786288Y-96904178D01*
X130773237Y-96929793D01*
X130736500Y-97001892D01*
X130717794Y-97120000D01*
X130736500Y-97238108D01*
X130749546Y-97263712D01*
X130784171Y-97331666D01*
X130790789Y-97344655D01*
X130875345Y-97429211D01*
X130884177Y-97433711D01*
X130884180Y-97433713D01*
X130951556Y-97468044D01*
X131003171Y-97516793D01*
X131020236Y-97585708D01*
X130997334Y-97652909D01*
X130951556Y-97692576D01*
X130911345Y-97713065D01*
X130826789Y-97797621D01*
X130822289Y-97806453D01*
X130822288Y-97806454D01*
X130808236Y-97834033D01*
X130772500Y-97904168D01*
X130753794Y-98022276D01*
X130772500Y-98140384D01*
X130785954Y-98166788D01*
X130815224Y-98224233D01*
X130826789Y-98246931D01*
X130911345Y-98331487D01*
X130920177Y-98335987D01*
X130920178Y-98335988D01*
X130964618Y-98358631D01*
X131017892Y-98385776D01*
X131027685Y-98387327D01*
X131064697Y-98393189D01*
X131128850Y-98423601D01*
X131166378Y-98483869D01*
X131165364Y-98554859D01*
X131126132Y-98614031D01*
X131087181Y-98635662D01*
X131081892Y-98636500D01*
X131031502Y-98662175D01*
X130984178Y-98686288D01*
X130984177Y-98686289D01*
X130975345Y-98690789D01*
X130890789Y-98775345D01*
X130836500Y-98881892D01*
X130817794Y-99000000D01*
X130836500Y-99118108D01*
X130847995Y-99140667D01*
X130869595Y-99183059D01*
X130890789Y-99224655D01*
X130975345Y-99309211D01*
X130984177Y-99313711D01*
X130984178Y-99313712D01*
X131023350Y-99333671D01*
X131081892Y-99363500D01*
X131118797Y-99369345D01*
X131177927Y-99378710D01*
X131200000Y-99382206D01*
X131222074Y-99378710D01*
X131281203Y-99369345D01*
X131318108Y-99363500D01*
X131376650Y-99333671D01*
X131415822Y-99313712D01*
X131415823Y-99313711D01*
X131424655Y-99309211D01*
X131509211Y-99224655D01*
X131530406Y-99183059D01*
X131552005Y-99140667D01*
X131563500Y-99118108D01*
X131582206Y-99000000D01*
X131563500Y-98881892D01*
X131509211Y-98775345D01*
X131424655Y-98690789D01*
X131415823Y-98686289D01*
X131415822Y-98686288D01*
X131371381Y-98663644D01*
X131318108Y-98636500D01*
X131271303Y-98629087D01*
X131207150Y-98598675D01*
X131169622Y-98538407D01*
X131170636Y-98467417D01*
X131209868Y-98408245D01*
X131248819Y-98386614D01*
X131254108Y-98385776D01*
X131304498Y-98360101D01*
X131351822Y-98335988D01*
X131351823Y-98335987D01*
X131360655Y-98331487D01*
X131390237Y-98301905D01*
X131452549Y-98267879D01*
X131479332Y-98265000D01*
X132108754Y-98265000D01*
X132176875Y-98285002D01*
X132197849Y-98301905D01*
X132778349Y-98882405D01*
X132812375Y-98944717D01*
X132807310Y-99015532D01*
X132764763Y-99072368D01*
X132698243Y-99097179D01*
X132689254Y-99097500D01*
X132186788Y-99097500D01*
X132184110Y-99097348D01*
X132173514Y-99093627D01*
X132159415Y-99095196D01*
X132159414Y-99095196D01*
X132151313Y-99096098D01*
X132145658Y-99096727D01*
X132136693Y-99097224D01*
X132134243Y-99097500D01*
X132127169Y-99097500D01*
X132120271Y-99099074D01*
X132117267Y-99099412D01*
X132109060Y-99100800D01*
X132081692Y-99103846D01*
X132071570Y-99110183D01*
X132059926Y-99112839D01*
X132048830Y-99121681D01*
X132038395Y-99129996D01*
X132031347Y-99134987D01*
X132029127Y-99136755D01*
X132023082Y-99140539D01*
X132018035Y-99145586D01*
X132015954Y-99147243D01*
X132009366Y-99153128D01*
X131987672Y-99170415D01*
X131982727Y-99180666D01*
X131980807Y-99182814D01*
X131682818Y-99480804D01*
X131680823Y-99482585D01*
X131670699Y-99487446D01*
X131653187Y-99509344D01*
X131647211Y-99516021D01*
X131645674Y-99517948D01*
X131640667Y-99522955D01*
X131636902Y-99528945D01*
X131635012Y-99531315D01*
X131630192Y-99538097D01*
X131621861Y-99548514D01*
X131621859Y-99548517D01*
X131612997Y-99559599D01*
X131610321Y-99571237D01*
X131603965Y-99581349D01*
X131602228Y-99596715D01*
X131600871Y-99608713D01*
X131599419Y-99617211D01*
X131599098Y-99620039D01*
X131597500Y-99626989D01*
X131597500Y-99630598D01*
X131570492Y-99694731D01*
X131561945Y-99704189D01*
X131490789Y-99775345D01*
X131486289Y-99784177D01*
X131486288Y-99784178D01*
X131472621Y-99811001D01*
X131436500Y-99881892D01*
X131417794Y-100000000D01*
X131436500Y-100118108D01*
X131490789Y-100224655D01*
X131575345Y-100309211D01*
X131584177Y-100313711D01*
X131584178Y-100313712D01*
X131625858Y-100334949D01*
X131681892Y-100363500D01*
X131800000Y-100382206D01*
X131918108Y-100363500D01*
X131974142Y-100334949D01*
X132015822Y-100313712D01*
X132015823Y-100313711D01*
X132024655Y-100309211D01*
X132070905Y-100262961D01*
X132133217Y-100228935D01*
X132204032Y-100234000D01*
X132249095Y-100262961D01*
X132305345Y-100319211D01*
X132314177Y-100323711D01*
X132314178Y-100323712D01*
X132336232Y-100334949D01*
X132411892Y-100373500D01*
X132530000Y-100392206D01*
X132539793Y-100390655D01*
X132539798Y-100390655D01*
X132549321Y-100389147D01*
X132619732Y-100398248D01*
X132658123Y-100424501D01*
X132916027Y-100682405D01*
X132950053Y-100744717D01*
X132944988Y-100815532D01*
X132902441Y-100872368D01*
X132835921Y-100897179D01*
X132826932Y-100897500D01*
X131836069Y-100897500D01*
X131767948Y-100877498D01*
X131746974Y-100860595D01*
X130569200Y-99682822D01*
X130567415Y-99680822D01*
X130562554Y-99670699D01*
X130540656Y-99653187D01*
X130533979Y-99647211D01*
X130532052Y-99645674D01*
X130527045Y-99640667D01*
X130521055Y-99636902D01*
X130518685Y-99635012D01*
X130511903Y-99630192D01*
X130501486Y-99621861D01*
X130501483Y-99621859D01*
X130490401Y-99612997D01*
X130478763Y-99610321D01*
X130468651Y-99603965D01*
X130444029Y-99601181D01*
X130441287Y-99600871D01*
X130432792Y-99599419D01*
X130429958Y-99599097D01*
X130423011Y-99597500D01*
X130415883Y-99597500D01*
X130413231Y-99597199D01*
X130404409Y-99596702D01*
X130390948Y-99595180D01*
X130390947Y-99595180D01*
X130376847Y-99593586D01*
X130366100Y-99597339D01*
X130363221Y-99597500D01*
X129983556Y-99597500D01*
X129915435Y-99577498D01*
X129894461Y-99560595D01*
X129824655Y-99490789D01*
X129815823Y-99486289D01*
X129815822Y-99486288D01*
X129738866Y-99447077D01*
X129718108Y-99436500D01*
X129600000Y-99417794D01*
X129481892Y-99436500D01*
X129461134Y-99447077D01*
X129384178Y-99486288D01*
X129384177Y-99486289D01*
X129375345Y-99490789D01*
X129290789Y-99575345D01*
X129286289Y-99584177D01*
X129286288Y-99584178D01*
X129278192Y-99600067D01*
X129236500Y-99681892D01*
X129234949Y-99691686D01*
X129234061Y-99697291D01*
X129203651Y-99761445D01*
X129143384Y-99798974D01*
X129089903Y-99802033D01*
X129000000Y-99787794D01*
X128881892Y-99806500D01*
X128828619Y-99833644D01*
X128784178Y-99856288D01*
X128784177Y-99856289D01*
X128775345Y-99860789D01*
X128739807Y-99896327D01*
X128677495Y-99930353D01*
X128606680Y-99925288D01*
X128549844Y-99882741D01*
X128525033Y-99816221D01*
X128526263Y-99787521D01*
X128526793Y-99784178D01*
X128532206Y-99750000D01*
X128513500Y-99631892D01*
X128481115Y-99568334D01*
X128463712Y-99534178D01*
X128463711Y-99534177D01*
X128459211Y-99525345D01*
X128374655Y-99440789D01*
X128365823Y-99436289D01*
X128365822Y-99436288D01*
X128316863Y-99411342D01*
X128268108Y-99386500D01*
X128150000Y-99367794D01*
X128031892Y-99386500D01*
X127983137Y-99411342D01*
X127934178Y-99436288D01*
X127934177Y-99436289D01*
X127925345Y-99440789D01*
X127840789Y-99525345D01*
X127836289Y-99534177D01*
X127836288Y-99534178D01*
X127818885Y-99568334D01*
X127786500Y-99631892D01*
X127767794Y-99750000D01*
X127786500Y-99868108D01*
X127803871Y-99902200D01*
X127834669Y-99962643D01*
X127840789Y-99974655D01*
X127925345Y-100059211D01*
X127934177Y-100063711D01*
X127934178Y-100063712D01*
X127949314Y-100071424D01*
X128031892Y-100113500D01*
X128150000Y-100132206D01*
X128268108Y-100113500D01*
X128350686Y-100071424D01*
X128365822Y-100063712D01*
X128365823Y-100063711D01*
X128374655Y-100059211D01*
X128410193Y-100023673D01*
X128472505Y-99989647D01*
X128543320Y-99994712D01*
X128600156Y-100037259D01*
X128624967Y-100103779D01*
X128623737Y-100132475D01*
X128617794Y-100170000D01*
X128619345Y-100179793D01*
X128636500Y-100288108D01*
X128634275Y-100288460D01*
X128635922Y-100346025D01*
X128599263Y-100406825D01*
X128535552Y-100438153D01*
X128514060Y-100440000D01*
X127526000Y-100440000D01*
X127457879Y-100419998D01*
X127411386Y-100366342D01*
X127400000Y-100314000D01*
X127400000Y-96726000D01*
X127420002Y-96657879D01*
X127473658Y-96611386D01*
X127526000Y-96600000D01*
X130781944Y-96600000D01*
X130850065Y-96620002D01*
G37*
%TD.AperFunction*%
%TD*%
M02*
