%TF.GenerationSoftware,KiCad,Pcbnew,(6.0.4)*%
%TF.CreationDate,2023-01-29T14:49:02+00:00*%
%TF.ProjectId,PrettySmallRobot,50726574-7479-4536-9d61-6c6c526f626f,rev?*%
%TF.SameCoordinates,Original*%
%TF.FileFunction,Copper,L1,Top*%
%TF.FilePolarity,Positive*%
%FSLAX46Y46*%
G04 Gerber Fmt 4.6, Leading zero omitted, Abs format (unit mm)*
G04 Created by KiCad (PCBNEW (6.0.4)) date 2023-01-29 14:49:02*
%MOMM*%
%LPD*%
G01*
G04 APERTURE LIST*
G04 Aperture macros list*
%AMRoundRect*
0 Rectangle with rounded corners*
0 $1 Rounding radius*
0 $2 $3 $4 $5 $6 $7 $8 $9 X,Y pos of 4 corners*
0 Add a 4 corners polygon primitive as box body*
4,1,4,$2,$3,$4,$5,$6,$7,$8,$9,$2,$3,0*
0 Add four circle primitives for the rounded corners*
1,1,$1+$1,$2,$3*
1,1,$1+$1,$4,$5*
1,1,$1+$1,$6,$7*
1,1,$1+$1,$8,$9*
0 Add four rect primitives between the rounded corners*
20,1,$1+$1,$2,$3,$4,$5,0*
20,1,$1+$1,$4,$5,$6,$7,0*
20,1,$1+$1,$6,$7,$8,$9,0*
20,1,$1+$1,$8,$9,$2,$3,0*%
G04 Aperture macros list end*
%TA.AperFunction,SMDPad,CuDef*%
%ADD10RoundRect,0.002700X-0.417300X-0.132300X0.417300X-0.132300X0.417300X0.132300X-0.417300X0.132300X0*%
%TD*%
%TA.AperFunction,SMDPad,CuDef*%
%ADD11R,1.625000X1.425000*%
%TD*%
%TA.AperFunction,SMDPad,CuDef*%
%ADD12R,1.700000X0.900000*%
%TD*%
%TA.AperFunction,SMDPad,CuDef*%
%ADD13R,0.600000X0.450000*%
%TD*%
%TA.AperFunction,SMDPad,CuDef*%
%ADD14RoundRect,0.140000X0.170000X-0.140000X0.170000X0.140000X-0.170000X0.140000X-0.170000X-0.140000X0*%
%TD*%
%TA.AperFunction,SMDPad,CuDef*%
%ADD15RoundRect,0.150000X-0.512500X-0.150000X0.512500X-0.150000X0.512500X0.150000X-0.512500X0.150000X0*%
%TD*%
%TA.AperFunction,SMDPad,CuDef*%
%ADD16RoundRect,0.250000X0.650000X-0.325000X0.650000X0.325000X-0.650000X0.325000X-0.650000X-0.325000X0*%
%TD*%
%TA.AperFunction,SMDPad,CuDef*%
%ADD17RoundRect,0.140000X-0.140000X-0.170000X0.140000X-0.170000X0.140000X0.170000X-0.140000X0.170000X0*%
%TD*%
%TA.AperFunction,SMDPad,CuDef*%
%ADD18RoundRect,0.135000X-0.185000X0.135000X-0.185000X-0.135000X0.185000X-0.135000X0.185000X0.135000X0*%
%TD*%
%TA.AperFunction,SMDPad,CuDef*%
%ADD19RoundRect,0.050000X-0.387500X-0.050000X0.387500X-0.050000X0.387500X0.050000X-0.387500X0.050000X0*%
%TD*%
%TA.AperFunction,SMDPad,CuDef*%
%ADD20RoundRect,0.050000X-0.050000X-0.387500X0.050000X-0.387500X0.050000X0.387500X-0.050000X0.387500X0*%
%TD*%
%TA.AperFunction,SMDPad,CuDef*%
%ADD21R,5.600000X5.600000*%
%TD*%
%TA.AperFunction,ComponentPad*%
%ADD22RoundRect,0.250000X-0.625000X0.350000X-0.625000X-0.350000X0.625000X-0.350000X0.625000X0.350000X0*%
%TD*%
%TA.AperFunction,ComponentPad*%
%ADD23O,1.750000X1.200000*%
%TD*%
%TA.AperFunction,SMDPad,CuDef*%
%ADD24RoundRect,0.140000X-0.170000X0.140000X-0.170000X-0.140000X0.170000X-0.140000X0.170000X0.140000X0*%
%TD*%
%TA.AperFunction,SMDPad,CuDef*%
%ADD25RoundRect,0.147500X-0.147500X-0.172500X0.147500X-0.172500X0.147500X0.172500X-0.147500X0.172500X0*%
%TD*%
%TA.AperFunction,SMDPad,CuDef*%
%ADD26R,1.400000X1.200000*%
%TD*%
%TA.AperFunction,SMDPad,CuDef*%
%ADD27R,1.140000X0.600000*%
%TD*%
%TA.AperFunction,SMDPad,CuDef*%
%ADD28R,1.140000X0.300000*%
%TD*%
%TA.AperFunction,ComponentPad*%
%ADD29O,2.000000X0.900000*%
%TD*%
%TA.AperFunction,ComponentPad*%
%ADD30O,1.700000X0.900000*%
%TD*%
%TA.AperFunction,ComponentPad*%
%ADD31RoundRect,0.250000X0.625000X-0.350000X0.625000X0.350000X-0.625000X0.350000X-0.625000X-0.350000X0*%
%TD*%
%TA.AperFunction,SMDPad,CuDef*%
%ADD32RoundRect,0.135000X-0.135000X-0.185000X0.135000X-0.185000X0.135000X0.185000X-0.135000X0.185000X0*%
%TD*%
%TA.AperFunction,SMDPad,CuDef*%
%ADD33RoundRect,0.135000X0.135000X0.185000X-0.135000X0.185000X-0.135000X-0.185000X0.135000X-0.185000X0*%
%TD*%
%TA.AperFunction,SMDPad,CuDef*%
%ADD34RoundRect,0.147500X0.172500X-0.147500X0.172500X0.147500X-0.172500X0.147500X-0.172500X-0.147500X0*%
%TD*%
%TA.AperFunction,SMDPad,CuDef*%
%ADD35RoundRect,0.135000X0.185000X-0.135000X0.185000X0.135000X-0.185000X0.135000X-0.185000X-0.135000X0*%
%TD*%
%TA.AperFunction,ViaPad*%
%ADD36C,0.460000*%
%TD*%
%TA.AperFunction,Conductor*%
%ADD37C,0.254000*%
%TD*%
%TA.AperFunction,Conductor*%
%ADD38C,0.150000*%
%TD*%
%TA.AperFunction,Conductor*%
%ADD39C,0.200000*%
%TD*%
%TA.AperFunction,Conductor*%
%ADD40C,0.175000*%
%TD*%
%TA.AperFunction,Conductor*%
%ADD41C,0.293370*%
%TD*%
G04 APERTURE END LIST*
D10*
%TO.P,U3,1,VDD*%
%TO.N,/VBUS*%
X180065000Y-103750000D03*
%TO.P,U3,2,VDD*%
X180065000Y-104250000D03*
%TO.P,U3,3,VBAT*%
%TO.N,+BATT*%
X180065000Y-104750000D03*
%TO.P,U3,4,VBAT*%
X180065000Y-105250000D03*
%TO.P,U3,5,STAT*%
%TO.N,Net-(R5-Pad2)*%
X182935000Y-105250000D03*
%TO.P,U3,6,VSS*%
%TO.N,GND*%
X182935000Y-104750000D03*
%TO.P,U3,7*%
%TO.N,N/C*%
X182935000Y-104250000D03*
%TO.P,U3,8,PROG*%
%TO.N,Net-(R6-Pad2)*%
X182935000Y-103750000D03*
D11*
%TO.P,U3,9,EP*%
%TO.N,GND*%
X181500000Y-104500000D03*
%TD*%
D12*
%TO.P,RST1,1,1*%
%TO.N,GND*%
X194600000Y-108700000D03*
%TO.P,RST1,2,2*%
%TO.N,/~{RESET}*%
X194600000Y-112100000D03*
%TD*%
D13*
%TO.P,D3,1,K*%
%TO.N,Net-(C22-Pad1)*%
X185950000Y-99700000D03*
%TO.P,D3,2,A*%
%TO.N,+BATT*%
X188050000Y-99700000D03*
%TD*%
D14*
%TO.P,C22,1*%
%TO.N,Net-(C22-Pad1)*%
X185500000Y-102280000D03*
%TO.P,C22,2*%
%TO.N,GND*%
X185500000Y-101320000D03*
%TD*%
%TO.P,C23,1*%
%TO.N,+3V3*%
X187700000Y-102280000D03*
%TO.P,C23,2*%
%TO.N,GND*%
X187700000Y-101320000D03*
%TD*%
D15*
%TO.P,U6,1,VIN*%
%TO.N,Net-(C22-Pad1)*%
X185362500Y-103550000D03*
%TO.P,U6,2,GND*%
%TO.N,GND*%
X185362500Y-104500000D03*
%TO.P,U6,3,EN*%
%TO.N,Net-(C22-Pad1)*%
X185362500Y-105450000D03*
%TO.P,U6,4,NC*%
%TO.N,unconnected-(U6-Pad4)*%
X187637500Y-105450000D03*
%TO.P,U6,5,VOUT*%
%TO.N,+3V3*%
X187637500Y-103550000D03*
%TD*%
D16*
%TO.P,AE1,1,A*%
%TO.N,Net-(AE1-Pad1)*%
X174800000Y-115600000D03*
%TO.P,AE1,2*%
%TO.N,N/C*%
X174800000Y-112650000D03*
%TD*%
D17*
%TO.P,C21,1*%
%TO.N,+BATT*%
X180060000Y-106360000D03*
%TO.P,C21,2*%
%TO.N,GND*%
X181020000Y-106360000D03*
%TD*%
D18*
%TO.P,R7,1*%
%TO.N,Net-(R7-Pad1)*%
X184300000Y-122790000D03*
%TO.P,R7,2*%
%TO.N,+3V3*%
X184300000Y-123810000D03*
%TD*%
D19*
%TO.P,U4,1,VDDA*%
%TO.N,/VDDA*%
X180362500Y-115200000D03*
%TO.P,U4,2,LNA_IN/RF*%
%TO.N,Net-(C17-Pad1)*%
X180362500Y-115600000D03*
%TO.P,U4,3,VDD3P3*%
%TO.N,/VDD3P3*%
X180362500Y-116000000D03*
%TO.P,U4,4,VDD3P3*%
X180362500Y-116400000D03*
%TO.P,U4,5,GPIO0/BOOT*%
%TO.N,/BOOT*%
X180362500Y-116800000D03*
%TO.P,U4,6,GPIO1/ADC1_CH0*%
%TO.N,unconnected-(U4-Pad6)*%
X180362500Y-117200000D03*
%TO.P,U4,7,GPIO2/ADC1_CH1*%
%TO.N,unconnected-(U4-Pad7)*%
X180362500Y-117600000D03*
%TO.P,U4,8,GPIO3/ADC1_CH2*%
%TO.N,unconnected-(U4-Pad8)*%
X180362500Y-118000000D03*
%TO.P,U4,9,GPIO4/ADC1_CH3*%
%TO.N,/MOTORA_IN1*%
X180362500Y-118400000D03*
%TO.P,U4,10,GPIO5/ADC1_CH4*%
%TO.N,/MOTORA_IN2*%
X180362500Y-118800000D03*
%TO.P,U4,11,GPIO6/ADC1_CH5*%
%TO.N,/MOTORB_IN1*%
X180362500Y-119200000D03*
%TO.P,U4,12,GPIO7/ADC1_CH6*%
%TO.N,/MOTORB_IN2*%
X180362500Y-119600000D03*
%TO.P,U4,13,GPIO8/ADC1_CH7*%
%TO.N,unconnected-(U4-Pad13)*%
X180362500Y-120000000D03*
%TO.P,U4,14,GPIO9/ADC1_CH8*%
%TO.N,unconnected-(U4-Pad14)*%
X180362500Y-120400000D03*
D20*
%TO.P,U4,15,GPIO10/ADC1_CH9*%
%TO.N,unconnected-(U4-Pad15)*%
X181200000Y-121237500D03*
%TO.P,U4,16,GPIO11/ADC2_CH0*%
%TO.N,unconnected-(U4-Pad16)*%
X181600000Y-121237500D03*
%TO.P,U4,17,GPIO12/ADC2_CH1*%
%TO.N,unconnected-(U4-Pad17)*%
X182000000Y-121237500D03*
%TO.P,U4,18,GPIO13/ADC2_CH2*%
%TO.N,unconnected-(U4-Pad18)*%
X182400000Y-121237500D03*
%TO.P,U4,19,GPIO14/ADC2_CH3*%
%TO.N,unconnected-(U4-Pad19)*%
X182800000Y-121237500D03*
%TO.P,U4,20,VDD3P3_RTC*%
%TO.N,+3V3*%
X183200000Y-121237500D03*
%TO.P,U4,21,GPIO15/ADC2_CH4/XTAL_32K_P*%
%TO.N,unconnected-(U4-Pad21)*%
X183600000Y-121237500D03*
%TO.P,U4,22,GPIO16/ADC2_CH5/XTAL_32K_N*%
%TO.N,unconnected-(U4-Pad22)*%
X184000000Y-121237500D03*
%TO.P,U4,23,GPIO17/ADC2_CH6/DAC_1*%
%TO.N,unconnected-(U4-Pad23)*%
X184400000Y-121237500D03*
%TO.P,U4,24,GPIO18/ADC2_CH7/DAC_2*%
%TO.N,Net-(R7-Pad1)*%
X184800000Y-121237500D03*
%TO.P,U4,25,GPIO19/ADC2_CH8/USB_D-*%
%TO.N,/D-*%
X185200000Y-121237500D03*
%TO.P,U4,26,GPIO20/ADC2_CH9/USB_D+*%
%TO.N,/D+*%
X185600000Y-121237500D03*
%TO.P,U4,27,VDD3P3_RTC_IO*%
%TO.N,+3V3*%
X186000000Y-121237500D03*
%TO.P,U4,28,GPIO21*%
%TO.N,unconnected-(U4-Pad28)*%
X186400000Y-121237500D03*
D19*
%TO.P,U4,29,SPI_CS1/GPIO26*%
%TO.N,unconnected-(U4-Pad29)*%
X187237500Y-120400000D03*
%TO.P,U4,30,VDD_SPI*%
%TO.N,/VDD_SPI*%
X187237500Y-120000000D03*
%TO.P,U4,31,SPIHD/GPIO27*%
%TO.N,unconnected-(U4-Pad31)*%
X187237500Y-119600000D03*
%TO.P,U4,32,SPIWP/GPIO28*%
%TO.N,unconnected-(U4-Pad32)*%
X187237500Y-119200000D03*
%TO.P,U4,33,SPICS0/GPIO29*%
%TO.N,unconnected-(U4-Pad33)*%
X187237500Y-118800000D03*
%TO.P,U4,34,SPICLK/GPIO30*%
%TO.N,unconnected-(U4-Pad34)*%
X187237500Y-118400000D03*
%TO.P,U4,35,SPIQ/GPIO31*%
%TO.N,unconnected-(U4-Pad35)*%
X187237500Y-118000000D03*
%TO.P,U4,36,SPID/GPIO32*%
%TO.N,unconnected-(U4-Pad36)*%
X187237500Y-117600000D03*
%TO.P,U4,37,GPIO33*%
%TO.N,unconnected-(U4-Pad37)*%
X187237500Y-117200000D03*
%TO.P,U4,38,GPIO34*%
%TO.N,unconnected-(U4-Pad38)*%
X187237500Y-116800000D03*
%TO.P,U4,39,GPIO35*%
%TO.N,unconnected-(U4-Pad39)*%
X187237500Y-116400000D03*
%TO.P,U4,40,GPIO36*%
%TO.N,unconnected-(U4-Pad40)*%
X187237500Y-116000000D03*
%TO.P,U4,41,GPIO37*%
%TO.N,Net-(R10-Pad2)*%
X187237500Y-115600000D03*
%TO.P,U4,42,GPIO38*%
%TO.N,unconnected-(U4-Pad42)*%
X187237500Y-115200000D03*
D20*
%TO.P,U4,43,MTCK/JTAG/GPIO39*%
%TO.N,unconnected-(U4-Pad43)*%
X186400000Y-114362500D03*
%TO.P,U4,44,MTDO/JTAG/GPIO40*%
%TO.N,unconnected-(U4-Pad44)*%
X186000000Y-114362500D03*
%TO.P,U4,45,VDD3P3_CPU*%
%TO.N,+3V3*%
X185600000Y-114362500D03*
%TO.P,U4,46,MTDI/JTAG/GPIO41*%
%TO.N,unconnected-(U4-Pad46)*%
X185200000Y-114362500D03*
%TO.P,U4,47,MTMS/JTAG/GPIO42*%
%TO.N,unconnected-(U4-Pad47)*%
X184800000Y-114362500D03*
%TO.P,U4,48,U0TXD/GPIO43*%
%TO.N,unconnected-(U4-Pad48)*%
X184400000Y-114362500D03*
%TO.P,U4,49,U0RXD/GPIO44*%
%TO.N,unconnected-(U4-Pad49)*%
X184000000Y-114362500D03*
%TO.P,U4,50,GPIO45*%
%TO.N,unconnected-(U4-Pad50)*%
X183600000Y-114362500D03*
%TO.P,U4,51,VDDA*%
%TO.N,/VDDA*%
X183200000Y-114362500D03*
%TO.P,U4,52,XTAL_N*%
%TO.N,Net-(C14-Pad2)*%
X182800000Y-114362500D03*
%TO.P,U4,53,XTAL_P*%
%TO.N,Net-(R3-Pad2)*%
X182400000Y-114362500D03*
%TO.P,U4,54,VDDA*%
%TO.N,/VDDA*%
X182000000Y-114362500D03*
%TO.P,U4,55,GPIO46*%
%TO.N,unconnected-(U4-Pad55)*%
X181600000Y-114362500D03*
%TO.P,U4,56,CHIP_PU/RESET*%
%TO.N,/~{RESET}*%
X181200000Y-114362500D03*
D21*
%TO.P,U4,57,GND*%
%TO.N,GND*%
X183800000Y-117800000D03*
%TD*%
D14*
%TO.P,C17,1*%
%TO.N,Net-(C17-Pad1)*%
X179200000Y-115600000D03*
%TO.P,C17,2*%
%TO.N,GND*%
X179200000Y-114640000D03*
%TD*%
D22*
%TO.P,J9,1,Pin_1*%
%TO.N,/MOTORA_OUT1*%
X177000000Y-119500000D03*
D23*
%TO.P,J9,2,Pin_2*%
%TO.N,/MOTORA_OUT2*%
X177000000Y-121500000D03*
%TD*%
D24*
%TO.P,C9,1*%
%TO.N,+3V3*%
X183200000Y-122820000D03*
%TO.P,C9,2*%
%TO.N,GND*%
X183200000Y-123780000D03*
%TD*%
D25*
%TO.P,L2,1,1*%
%TO.N,Net-(AE1-Pad1)*%
X177330000Y-115550000D03*
%TO.P,L2,2,2*%
%TO.N,Net-(C17-Pad1)*%
X178300000Y-115550000D03*
%TD*%
D14*
%TO.P,C13,1*%
%TO.N,Net-(AE1-Pad1)*%
X176400000Y-115600000D03*
%TO.P,C13,2*%
%TO.N,GND*%
X176400000Y-114640000D03*
%TD*%
D12*
%TO.P,BOOT1,1,1*%
%TO.N,/BOOT*%
X190600000Y-112100000D03*
%TO.P,BOOT1,2,2*%
%TO.N,GND*%
X190600000Y-108700000D03*
%TD*%
D14*
%TO.P,C15,1*%
%TO.N,Net-(C15-Pad1)*%
X181000000Y-110560000D03*
%TO.P,C15,2*%
%TO.N,GND*%
X181000000Y-109600000D03*
%TD*%
D26*
%TO.P,Y1,1,1*%
%TO.N,Net-(C15-Pad1)*%
X182500000Y-110500000D03*
%TO.P,Y1,2,2*%
%TO.N,GND*%
X184700000Y-110500000D03*
%TO.P,Y1,3,3*%
%TO.N,Net-(C14-Pad2)*%
X184700000Y-108800000D03*
%TO.P,Y1,4,4*%
%TO.N,GND*%
X182500000Y-108800000D03*
%TD*%
D14*
%TO.P,C14,1*%
%TO.N,GND*%
X186200000Y-109760000D03*
%TO.P,C14,2*%
%TO.N,Net-(C14-Pad2)*%
X186200000Y-108800000D03*
%TD*%
D25*
%TO.P,D1,1,K*%
%TO.N,Net-(D1-Pad1)*%
X182005000Y-101200000D03*
%TO.P,D1,2,A*%
%TO.N,/VBUS*%
X182975000Y-101200000D03*
%TD*%
D17*
%TO.P,C8,1*%
%TO.N,+3V3*%
X185620000Y-112900000D03*
%TO.P,C8,2*%
%TO.N,GND*%
X186580000Y-112900000D03*
%TD*%
D27*
%TO.P,J1,A1_B12,GND*%
%TO.N,GND*%
X190250000Y-121852503D03*
%TO.P,J1,A4_B9,VBUS*%
%TO.N,/VBUS*%
X190250000Y-121052503D03*
D28*
%TO.P,J1,A5,CC1*%
%TO.N,Net-(J1-PadA5)*%
X190250000Y-119902503D03*
%TO.P,J1,A6,DP1*%
%TO.N,/D+*%
X190250000Y-118902503D03*
%TO.P,J1,A7,DN1*%
%TO.N,/D-*%
X190250000Y-118402503D03*
%TO.P,J1,A8,SBU1*%
%TO.N,unconnected-(J1-PadA8)*%
X190250000Y-117402503D03*
D27*
%TO.P,J1,B1_A12,GND*%
%TO.N,GND*%
X190250000Y-115452503D03*
%TO.P,J1,B4_A9,VBUS*%
%TO.N,/VBUS*%
X190250000Y-116252503D03*
D28*
%TO.P,J1,B5,CC2*%
%TO.N,Net-(J1-PadB5)*%
X190250000Y-116902503D03*
%TO.P,J1,B6,DP2*%
%TO.N,/D+*%
X190250000Y-117902503D03*
%TO.P,J1,B7,DN2*%
%TO.N,/D-*%
X190250000Y-119402503D03*
%TO.P,J1,B8,SBU2*%
%TO.N,unconnected-(J1-PadB8)*%
X190250000Y-120402503D03*
D29*
%TO.P,J1,S1,SHIELD*%
%TO.N,GND*%
X190830000Y-122977503D03*
%TO.P,J1,S2,SHIELD*%
X190830000Y-114327503D03*
D30*
%TO.P,J1,S3,SHIELD*%
X195000000Y-122977503D03*
%TO.P,J1,S4,SHIELD*%
X195000000Y-114327503D03*
%TD*%
D22*
%TO.P,J10,1,Pin_1*%
%TO.N,+BATT*%
X177000000Y-103000000D03*
D23*
%TO.P,J10,2,Pin_2*%
%TO.N,GND*%
X177000000Y-105000000D03*
%TD*%
D13*
%TO.P,D2,1,K*%
%TO.N,Net-(C22-Pad1)*%
X180950000Y-99700000D03*
%TO.P,D2,2,A*%
%TO.N,/VBUS*%
X183050000Y-99700000D03*
%TD*%
D31*
%TO.P,J8,1,Pin_1*%
%TO.N,/MOTORB_OUT1*%
X191000000Y-105000000D03*
D23*
%TO.P,J8,2,Pin_2*%
%TO.N,/MOTORB_OUT2*%
X191000000Y-103000000D03*
%TD*%
D18*
%TO.P,R3,1*%
%TO.N,Net-(C15-Pad1)*%
X182400000Y-112090000D03*
%TO.P,R3,2*%
%TO.N,Net-(R3-Pad2)*%
X182400000Y-113110000D03*
%TD*%
D32*
%TO.P,R6,1*%
%TO.N,GND*%
X181980000Y-102200000D03*
%TO.P,R6,2*%
%TO.N,Net-(R6-Pad2)*%
X183000000Y-102200000D03*
%TD*%
D33*
%TO.P,R5,1*%
%TO.N,Net-(D1-Pad1)*%
X181000000Y-101200000D03*
%TO.P,R5,2*%
%TO.N,Net-(R5-Pad2)*%
X179980000Y-101200000D03*
%TD*%
D34*
%TO.P,D4,1,K*%
%TO.N,GND*%
X188600000Y-117185000D03*
%TO.P,D4,2,A*%
%TO.N,Net-(D4-Pad2)*%
X188600000Y-116215000D03*
%TD*%
D35*
%TO.P,R10,1*%
%TO.N,Net-(D4-Pad2)*%
X188600000Y-115110000D03*
%TO.P,R10,2*%
%TO.N,Net-(R10-Pad2)*%
X188600000Y-114090000D03*
%TD*%
D17*
%TO.P,C12,1*%
%TO.N,/VBUS*%
X180000000Y-102230000D03*
%TO.P,C12,2*%
%TO.N,GND*%
X180960000Y-102230000D03*
%TD*%
D36*
%TO.N,Net-(R6-Pad2)*%
X183500000Y-102770000D03*
X183626500Y-103748500D03*
%TO.N,Net-(R5-Pad2)*%
X182920000Y-106200000D03*
X179340000Y-102230000D03*
%TO.N,+BATT*%
X188000000Y-98200000D03*
%TO.N,GND*%
X181500000Y-111900000D03*
X184700000Y-115300000D03*
X182000000Y-107600000D03*
X180300000Y-111300000D03*
X185900000Y-111600000D03*
X178700000Y-116300000D03*
X180000000Y-110300000D03*
X183700000Y-107400000D03*
X176700000Y-116300000D03*
X187100000Y-108800000D03*
X186600000Y-111000000D03*
X179200000Y-113800000D03*
X178500000Y-114100000D03*
X177300000Y-116300000D03*
X181700000Y-118700000D03*
X187200000Y-110400000D03*
X182800000Y-107400000D03*
X192400000Y-103300000D03*
X176700000Y-113900000D03*
X181700000Y-119700000D03*
X177400000Y-114600000D03*
X192700000Y-103900000D03*
X187200000Y-109600000D03*
X177200000Y-114100000D03*
X184300000Y-112800000D03*
X184700000Y-107400000D03*
X180400000Y-108500000D03*
X185100000Y-111900000D03*
X186300000Y-116100000D03*
X185800000Y-107600000D03*
X178000000Y-116300000D03*
X181200000Y-111300000D03*
X181100000Y-107900000D03*
X184500000Y-112300000D03*
X186800000Y-108000000D03*
X180000000Y-109300000D03*
X181500000Y-112600000D03*
X178000000Y-114600000D03*
%TO.N,Net-(J1-PadA5)*%
X191800000Y-119300000D03*
%TO.N,Net-(J1-PadB5)*%
X191800000Y-117500000D03*
%TO.N,+3V3*%
X187633289Y-104232317D03*
X172400000Y-123200000D03*
X188100000Y-118500000D03*
X188700000Y-103544532D03*
X187400000Y-121800000D03*
X188100000Y-119100000D03*
X193100000Y-111800000D03*
X186584294Y-103549480D03*
X185100000Y-112900000D03*
X185600000Y-112300000D03*
X183200000Y-122100000D03*
X194400000Y-102000000D03*
%TO.N,/~{RESET}*%
X180500000Y-113200000D03*
X195116733Y-110029643D03*
%TO.N,/MOTORB_IN1*%
X178725265Y-124590366D03*
%TO.N,/MOTORA_IN1*%
X178900000Y-118200000D03*
%TO.N,/VDDA*%
X181400000Y-113300000D03*
X183800000Y-113500000D03*
X180500000Y-114500000D03*
%TO.N,/VDD3P3*%
X179500000Y-116500000D03*
%TO.N,/BOOT*%
X179200000Y-117400000D03*
X187400000Y-113900000D03*
%TO.N,/MOTORA_IN2*%
X178500000Y-118800000D03*
%TO.N,/MOTORB_IN2*%
X179300000Y-125800000D03*
%TO.N,/VDD_SPI*%
X188000000Y-120000000D03*
%TD*%
D37*
%TO.N,/VBUS*%
X179460000Y-103750000D02*
X180065000Y-103750000D01*
X178790000Y-100690000D02*
X178790000Y-103080000D01*
X179030000Y-100450000D02*
X178790000Y-100690000D01*
X181720000Y-100450000D02*
X179030000Y-100450000D01*
X178790000Y-103080000D02*
X179460000Y-103750000D01*
X182470000Y-99700000D02*
X181720000Y-100450000D01*
X183050000Y-99700000D02*
X182470000Y-99700000D01*
D38*
%TO.N,Net-(R5-Pad2)*%
X179340000Y-102230000D02*
X179340000Y-101840000D01*
X179340000Y-101840000D02*
X179980000Y-101200000D01*
%TO.N,Net-(R6-Pad2)*%
X183000000Y-102270000D02*
X183500000Y-102770000D01*
X183000000Y-102200000D02*
X183000000Y-102270000D01*
X182935000Y-103750000D02*
X183625000Y-103750000D01*
X183625000Y-103750000D02*
X183626500Y-103748500D01*
D37*
%TO.N,/VBUS*%
X184110000Y-103180000D02*
X184110000Y-101200000D01*
X184110000Y-106160000D02*
X184110000Y-103180000D01*
X182975000Y-101200000D02*
X184110000Y-101200000D01*
X184110000Y-101200000D02*
X184110000Y-99850000D01*
X183960000Y-99700000D02*
X183050000Y-99700000D01*
X184110000Y-99850000D02*
X183960000Y-99700000D01*
X184650000Y-106700000D02*
X184110000Y-106160000D01*
X196300000Y-108000000D02*
X195000000Y-106700000D01*
X195000000Y-106700000D02*
X184650000Y-106700000D01*
X192900000Y-118200000D02*
X195600000Y-118200000D01*
X195600000Y-118200000D02*
X196300000Y-117500000D01*
X196300000Y-117500000D02*
X196300000Y-108000000D01*
D38*
%TO.N,Net-(C22-Pad1)*%
X185312500Y-103500000D02*
X185362500Y-103550000D01*
X184500000Y-103500000D02*
X185312500Y-103500000D01*
X184498480Y-105398480D02*
X184498480Y-103501520D01*
X184550000Y-105450000D02*
X184498480Y-105398480D01*
X184498480Y-103501520D02*
X184500000Y-103500000D01*
X185362500Y-105450000D02*
X184550000Y-105450000D01*
%TO.N,Net-(R5-Pad2)*%
X182935000Y-106185000D02*
X182920000Y-106200000D01*
X182935000Y-105250000D02*
X182935000Y-106185000D01*
D37*
%TO.N,+BATT*%
X180065000Y-106355000D02*
X180060000Y-106360000D01*
X180065000Y-105250000D02*
X180065000Y-106355000D01*
%TO.N,/VBUS*%
X180065000Y-103265000D02*
X180065000Y-102295000D01*
X180065000Y-103750000D02*
X180065000Y-103265000D01*
X180065000Y-102295000D02*
X180000000Y-102230000D01*
X180065000Y-104250000D02*
X180065000Y-103750000D01*
%TO.N,+BATT*%
X180065000Y-105250000D02*
X180065000Y-104750000D01*
X179250000Y-105250000D02*
X180065000Y-105250000D01*
X177000000Y-103000000D02*
X179250000Y-105250000D01*
%TO.N,/VBUS*%
X190436521Y-116439024D02*
X190250000Y-116252503D01*
X192900000Y-118200000D02*
X192900000Y-117400000D01*
X192900000Y-117400000D02*
X191939024Y-116439024D01*
X192900000Y-119300000D02*
X192900000Y-118200000D01*
X190250000Y-121052503D02*
X190302503Y-121000000D01*
X191939024Y-116439024D02*
X190436521Y-116439024D01*
X191039775Y-120865982D02*
X191334018Y-120865982D01*
X191334018Y-120865982D02*
X192900000Y-119300000D01*
X190905757Y-121000000D02*
X191039775Y-120865982D01*
X190302503Y-121000000D02*
X190905757Y-121000000D01*
%TO.N,+BATT*%
X188050000Y-99700000D02*
X188050000Y-98250000D01*
X188050000Y-98250000D02*
X188000000Y-98200000D01*
%TO.N,GND*%
X190250000Y-121852503D02*
X190250000Y-122397503D01*
X190250000Y-122397503D02*
X190830000Y-122977503D01*
D38*
%TO.N,Net-(J1-PadA5)*%
X191197497Y-119902503D02*
X191800000Y-119300000D01*
X190250000Y-119902503D02*
X191197497Y-119902503D01*
D39*
%TO.N,/D+*%
X188675000Y-121606800D02*
X188675000Y-118707503D01*
D40*
X191100000Y-118800000D02*
X190997497Y-118902503D01*
X191100000Y-118000000D02*
X191100000Y-118800000D01*
D39*
X189480000Y-117902503D02*
X190250000Y-117902503D01*
X185600000Y-121237500D02*
X185625001Y-121262501D01*
D40*
X190250000Y-117902503D02*
X191002503Y-117902503D01*
X191002503Y-117902503D02*
X191100000Y-118000000D01*
D39*
X187706800Y-122575000D02*
X188675000Y-121606800D01*
X185625001Y-121906801D02*
X186293200Y-122575000D01*
X188675000Y-118707503D02*
X189480000Y-117902503D01*
D40*
X190997497Y-118902503D02*
X190250000Y-118902503D01*
D39*
X185625001Y-121262501D02*
X185625001Y-121906801D01*
X186293200Y-122575000D02*
X187706800Y-122575000D01*
%TO.N,/D-*%
X190250000Y-119402503D02*
X189147497Y-119402503D01*
X186106800Y-123025000D02*
X187893200Y-123025000D01*
X185174999Y-122093199D02*
X186106800Y-123025000D01*
X189125000Y-119425000D02*
X189125000Y-118854481D01*
X189125000Y-121793200D02*
X189125000Y-119425000D01*
X189576978Y-118402503D02*
X190250000Y-118402503D01*
X185174999Y-121262501D02*
X185174999Y-122093199D01*
X189125000Y-118854481D02*
X189576978Y-118402503D01*
X187893200Y-123025000D02*
X189125000Y-121793200D01*
X189147497Y-119402503D02*
X189125000Y-119425000D01*
X185200000Y-121237500D02*
X185174999Y-121262501D01*
D38*
%TO.N,Net-(J1-PadB5)*%
X190250000Y-116902503D02*
X191202503Y-116902503D01*
X191202503Y-116902503D02*
X191800000Y-117500000D01*
D37*
%TO.N,+3V3*%
X188694532Y-103550000D02*
X188700000Y-103544532D01*
D38*
X185620000Y-112900000D02*
X185620000Y-112320000D01*
X185620000Y-112900000D02*
X185100000Y-112900000D01*
D37*
X186584814Y-103550000D02*
X186584294Y-103549480D01*
D38*
X183200000Y-122820000D02*
X183200000Y-122100000D01*
D37*
X187637500Y-103550000D02*
X187637500Y-104228106D01*
D38*
X185620000Y-114342500D02*
X185600000Y-114362500D01*
X183310000Y-122820000D02*
X184300000Y-123810000D01*
X185620000Y-112320000D02*
X185600000Y-112300000D01*
D37*
X187637500Y-104228106D02*
X187633289Y-104232317D01*
D38*
X187200000Y-122000000D02*
X186200000Y-122000000D01*
D37*
X187637500Y-103550000D02*
X186584814Y-103550000D01*
D38*
X186000000Y-121800000D02*
X186000000Y-121237500D01*
X183200000Y-122820000D02*
X183310000Y-122820000D01*
X187400000Y-121800000D02*
X187200000Y-122000000D01*
X183200000Y-122100000D02*
X183200000Y-121237500D01*
D37*
X187637500Y-103550000D02*
X187637500Y-102342500D01*
X187637500Y-103550000D02*
X188694532Y-103550000D01*
D38*
X185620000Y-112900000D02*
X185620000Y-114342500D01*
X186200000Y-122000000D02*
X186000000Y-121800000D01*
D37*
X187637500Y-102342500D02*
X187700000Y-102280000D01*
D38*
%TO.N,Net-(D4-Pad2)*%
X188600000Y-115110000D02*
X188600000Y-116215000D01*
%TO.N,Net-(R10-Pad2)*%
X187700000Y-115600000D02*
X188000000Y-115300000D01*
X187237500Y-115600000D02*
X187700000Y-115600000D01*
X188210000Y-114090000D02*
X188600000Y-114090000D01*
X188000000Y-115300000D02*
X188000000Y-114300000D01*
X188000000Y-114300000D02*
X188210000Y-114090000D01*
%TO.N,/~{RESET}*%
X194600000Y-110546376D02*
X194600000Y-112100000D01*
X195116733Y-110029643D02*
X194600000Y-110546376D01*
X180500000Y-113662500D02*
X181200000Y-114362500D01*
X180500000Y-113200000D02*
X180500000Y-113662500D01*
%TO.N,Net-(R7-Pad1)*%
X184300000Y-122790000D02*
X184800000Y-122290000D01*
X184800000Y-122290000D02*
X184800000Y-121237500D01*
%TO.N,Net-(D1-Pad1)*%
X181000000Y-101200000D02*
X182005000Y-101200000D01*
%TO.N,Net-(R3-Pad2)*%
X182400000Y-114362500D02*
X182400000Y-113110000D01*
D37*
%TO.N,Net-(C22-Pad1)*%
X180950000Y-99700000D02*
X181650000Y-99000000D01*
X184500000Y-102687500D02*
X185362500Y-103550000D01*
X184520000Y-102280000D02*
X184500000Y-102300000D01*
X184500000Y-99000000D02*
X184500000Y-102300000D01*
X185950000Y-99350000D02*
X185950000Y-99700000D01*
X184500000Y-102300000D02*
X184500000Y-102687500D01*
X185600000Y-99000000D02*
X185950000Y-99350000D01*
X185500000Y-102280000D02*
X184520000Y-102280000D01*
X181650000Y-99000000D02*
X184500000Y-99000000D01*
X184500000Y-99000000D02*
X185600000Y-99000000D01*
D38*
%TO.N,/MOTORB_IN1*%
X178725265Y-120374735D02*
X179900000Y-119200000D01*
X178725265Y-124590366D02*
X178725265Y-120374735D01*
%TO.N,/MOTORA_IN1*%
X179100000Y-118400000D02*
X180362500Y-118400000D01*
X178900000Y-118200000D02*
X179100000Y-118400000D01*
%TO.N,/VDDA*%
X183800000Y-113500000D02*
X183600000Y-113500000D01*
X183600000Y-113500000D02*
X183200000Y-113900000D01*
X182000000Y-113900000D02*
X182000000Y-114362500D01*
X181400000Y-113300000D02*
X182000000Y-113900000D01*
D40*
X180500000Y-114500000D02*
X180500000Y-115062500D01*
X180500000Y-115062500D02*
X180362500Y-115200000D01*
D41*
%TO.N,Net-(C17-Pad1)*%
X180362500Y-115600000D02*
X179200000Y-115600000D01*
X179200000Y-115600000D02*
X178350000Y-115600000D01*
X178350000Y-115600000D02*
X178300000Y-115550000D01*
D40*
%TO.N,/VDD3P3*%
X179500000Y-116500000D02*
X179749296Y-116500000D01*
X179849296Y-116400000D02*
X180362500Y-116400000D01*
X179500000Y-116500000D02*
X179500000Y-116379838D01*
X179500000Y-116379838D02*
X179879838Y-116000000D01*
X179879838Y-116000000D02*
X180362500Y-116000000D01*
X179749296Y-116500000D02*
X179849296Y-116400000D01*
D38*
%TO.N,/BOOT*%
X190600000Y-112100000D02*
X189200000Y-112100000D01*
X179900000Y-116800000D02*
X180362500Y-116800000D01*
X179300000Y-117400000D02*
X179900000Y-116800000D01*
X189200000Y-112100000D02*
X187400000Y-113900000D01*
X179200000Y-117400000D02*
X179300000Y-117400000D01*
%TO.N,/MOTORA_IN2*%
X178500000Y-118800000D02*
X180362500Y-118800000D01*
%TO.N,/MOTORB_IN2*%
X179969298Y-119600000D02*
X180362500Y-119600000D01*
X179300000Y-120269298D02*
X179969298Y-119600000D01*
X179300000Y-125800000D02*
X179300000Y-120269298D01*
D40*
%TO.N,/VDD_SPI*%
X188000000Y-120000000D02*
X187237500Y-120000000D01*
D41*
%TO.N,Net-(AE1-Pad1)*%
X177330000Y-115550000D02*
X176450000Y-115550000D01*
X176450000Y-115550000D02*
X176400000Y-115600000D01*
X176400000Y-115600000D02*
X174800000Y-115600000D01*
D38*
%TO.N,Net-(C15-Pad1)*%
X181000000Y-110560000D02*
X181060000Y-110500000D01*
X182400000Y-112090000D02*
X182500000Y-111990000D01*
X182500000Y-111990000D02*
X182500000Y-110500000D01*
X181060000Y-110500000D02*
X182500000Y-110500000D01*
%TO.N,Net-(C14-Pad2)*%
X184700000Y-108800000D02*
X183600000Y-109900000D01*
X182800000Y-113700000D02*
X182800000Y-114362500D01*
X183600000Y-109900000D02*
X183600000Y-112900000D01*
X186200000Y-108800000D02*
X184700000Y-108800000D01*
X183600000Y-112900000D02*
X182800000Y-113700000D01*
%TD*%
%TA.AperFunction,Conductor*%
%TO.N,GND*%
G36*
X187706511Y-97719407D02*
G01*
X187742475Y-97768907D01*
X187742475Y-97830093D01*
X187717144Y-97867929D01*
X187718115Y-97868786D01*
X187636485Y-97961215D01*
X187584077Y-98072840D01*
X187565105Y-98194686D01*
X187566020Y-98201683D01*
X187566020Y-98201684D01*
X187567683Y-98214397D01*
X187581095Y-98316960D01*
X187630759Y-98429832D01*
X187635296Y-98435230D01*
X187635297Y-98435231D01*
X187699283Y-98511351D01*
X187722253Y-98568061D01*
X187722500Y-98575053D01*
X187722500Y-99201029D01*
X187703593Y-99259220D01*
X187670970Y-99284938D01*
X187671769Y-99286133D01*
X187605448Y-99330448D01*
X187561133Y-99396769D01*
X187549500Y-99455252D01*
X187549500Y-99944748D01*
X187561133Y-100003231D01*
X187605448Y-100069552D01*
X187671769Y-100113867D01*
X187681332Y-100115769D01*
X187681334Y-100115770D01*
X187696136Y-100118714D01*
X187730252Y-100125500D01*
X188369748Y-100125500D01*
X188403864Y-100118714D01*
X188418666Y-100115770D01*
X188418668Y-100115769D01*
X188428231Y-100113867D01*
X188494552Y-100069552D01*
X188538867Y-100003231D01*
X188550500Y-99944748D01*
X188550500Y-99455252D01*
X188538867Y-99396769D01*
X188494552Y-99330448D01*
X188428231Y-99286133D01*
X188429298Y-99284537D01*
X188392088Y-99252755D01*
X188377500Y-99201029D01*
X188377500Y-98430985D01*
X188387406Y-98387820D01*
X188411263Y-98338578D01*
X188414338Y-98332232D01*
X188434797Y-98210626D01*
X188434927Y-98200000D01*
X188417445Y-98077930D01*
X188366405Y-97965674D01*
X188285910Y-97872255D01*
X188285078Y-97871716D01*
X188255086Y-97821602D01*
X188260524Y-97760659D01*
X188300746Y-97714552D01*
X188351587Y-97700500D01*
X196750500Y-97700500D01*
X196808691Y-97719407D01*
X196844655Y-97768907D01*
X196849500Y-97799500D01*
X196849500Y-126200500D01*
X196830593Y-126258691D01*
X196781093Y-126294655D01*
X196750500Y-126299500D01*
X179651730Y-126299500D01*
X179593539Y-126280593D01*
X179557575Y-126231093D01*
X179557575Y-126169907D01*
X179578332Y-126134064D01*
X179655836Y-126048439D01*
X179660571Y-126043208D01*
X179714338Y-125932232D01*
X179734797Y-125810626D01*
X179734927Y-125800000D01*
X179717445Y-125677930D01*
X179666405Y-125565674D01*
X179599501Y-125488028D01*
X179575840Y-125431603D01*
X179575500Y-125423405D01*
X179575500Y-124044390D01*
X182712856Y-124044390D01*
X182743531Y-124110174D01*
X182753315Y-124124147D01*
X182825853Y-124196685D01*
X182839826Y-124206469D01*
X182933776Y-124250278D01*
X182936388Y-124251040D01*
X182943569Y-124249708D01*
X182944805Y-124248406D01*
X182946000Y-124243126D01*
X182946000Y-124049680D01*
X182941878Y-124036995D01*
X182937757Y-124034000D01*
X182723691Y-124034000D01*
X182712856Y-124037521D01*
X182712856Y-124044390D01*
X179575500Y-124044390D01*
X179575500Y-120629354D01*
X179594407Y-120571163D01*
X179643907Y-120535199D01*
X179705093Y-120535199D01*
X179756816Y-120574353D01*
X179794399Y-120630601D01*
X179877260Y-120685966D01*
X179950326Y-120700500D01*
X180773799Y-120700500D01*
X180831990Y-120719407D01*
X180843803Y-120729496D01*
X180870504Y-120756197D01*
X180898281Y-120810714D01*
X180899500Y-120826201D01*
X180899500Y-121649674D01*
X180914034Y-121722740D01*
X180969399Y-121805601D01*
X181052260Y-121860966D01*
X181125326Y-121875500D01*
X181274674Y-121875500D01*
X181347740Y-121860966D01*
X181355848Y-121855548D01*
X181362114Y-121852953D01*
X181423110Y-121848152D01*
X181437886Y-121852953D01*
X181444152Y-121855548D01*
X181452260Y-121860966D01*
X181525326Y-121875500D01*
X181674674Y-121875500D01*
X181747740Y-121860966D01*
X181755848Y-121855548D01*
X181762114Y-121852953D01*
X181823110Y-121848152D01*
X181837886Y-121852953D01*
X181844152Y-121855548D01*
X181852260Y-121860966D01*
X181925326Y-121875500D01*
X182074674Y-121875500D01*
X182147740Y-121860966D01*
X182155848Y-121855548D01*
X182162114Y-121852953D01*
X182223110Y-121848152D01*
X182237886Y-121852953D01*
X182244152Y-121855548D01*
X182252260Y-121860966D01*
X182325326Y-121875500D01*
X182474674Y-121875500D01*
X182547740Y-121860966D01*
X182555848Y-121855548D01*
X182562114Y-121852953D01*
X182623110Y-121848152D01*
X182637886Y-121852953D01*
X182644152Y-121855548D01*
X182652260Y-121860966D01*
X182703900Y-121871238D01*
X182757284Y-121901135D01*
X182782900Y-121956700D01*
X182782407Y-121983565D01*
X182765105Y-122094686D01*
X182766020Y-122101683D01*
X182766020Y-122101684D01*
X182778767Y-122199156D01*
X182781095Y-122216960D01*
X182811273Y-122285546D01*
X182824222Y-122314975D01*
X182830352Y-122375852D01*
X182803610Y-122424850D01*
X182746776Y-122481684D01*
X182743116Y-122489532D01*
X182743115Y-122489534D01*
X182712298Y-122555621D01*
X182696028Y-122590513D01*
X182689500Y-122640099D01*
X182689501Y-122999900D01*
X182696028Y-123049487D01*
X182746776Y-123158316D01*
X182818810Y-123230350D01*
X182846587Y-123284867D01*
X182837016Y-123345299D01*
X182818810Y-123370358D01*
X182753315Y-123435853D01*
X182743531Y-123449826D01*
X182714638Y-123511788D01*
X182713250Y-123523096D01*
X182719477Y-123526000D01*
X183355000Y-123526000D01*
X183413191Y-123544907D01*
X183449155Y-123594407D01*
X183454000Y-123625000D01*
X183454000Y-124238506D01*
X183458122Y-124251191D01*
X183459545Y-124252225D01*
X183466224Y-124250278D01*
X183560174Y-124206469D01*
X183574147Y-124196685D01*
X183646683Y-124124149D01*
X183657378Y-124108874D01*
X183706242Y-124072051D01*
X183767418Y-124070981D01*
X183817539Y-124106074D01*
X183828197Y-124123810D01*
X183835935Y-124140404D01*
X183919596Y-124224065D01*
X183927444Y-124227725D01*
X183927446Y-124227726D01*
X184002279Y-124262621D01*
X184026827Y-124274068D01*
X184075684Y-124280500D01*
X184524316Y-124280500D01*
X184573173Y-124274068D01*
X184597721Y-124262621D01*
X184672554Y-124227726D01*
X184672556Y-124227725D01*
X184680404Y-124224065D01*
X184764065Y-124140404D01*
X184780074Y-124106074D01*
X184810865Y-124040042D01*
X184810865Y-124040041D01*
X184814068Y-124033173D01*
X184820500Y-123984316D01*
X184820500Y-123635684D01*
X184815205Y-123595467D01*
X184815057Y-123594339D01*
X184814068Y-123586827D01*
X184791451Y-123538325D01*
X184767726Y-123487446D01*
X184767725Y-123487444D01*
X184764065Y-123479596D01*
X184680404Y-123395935D01*
X184667081Y-123389723D01*
X184622336Y-123347995D01*
X184610662Y-123287933D01*
X184636521Y-123232481D01*
X184667080Y-123210278D01*
X184680404Y-123204065D01*
X184764065Y-123120404D01*
X184780615Y-123084914D01*
X184810865Y-123020042D01*
X184810865Y-123020041D01*
X184814068Y-123013173D01*
X184820500Y-122964316D01*
X184820500Y-122700124D01*
X184839407Y-122641933D01*
X184849496Y-122630120D01*
X184968731Y-122510885D01*
X184983733Y-122498574D01*
X184990514Y-122494043D01*
X184998624Y-122488624D01*
X185002377Y-122483008D01*
X185055206Y-122456091D01*
X185115638Y-122465662D01*
X185140697Y-122483868D01*
X185856480Y-123199651D01*
X185859180Y-123202780D01*
X185861375Y-123207269D01*
X185868078Y-123213487D01*
X185897622Y-123240893D01*
X185900298Y-123243469D01*
X185914077Y-123257248D01*
X185917787Y-123259793D01*
X185921700Y-123263229D01*
X185934405Y-123275014D01*
X185943446Y-123283401D01*
X185951932Y-123286787D01*
X185951934Y-123286788D01*
X185954137Y-123287667D01*
X185973448Y-123297978D01*
X185975407Y-123299322D01*
X185975410Y-123299323D01*
X185982946Y-123304493D01*
X185991838Y-123306603D01*
X185991840Y-123306604D01*
X186008866Y-123310644D01*
X186022685Y-123315014D01*
X186047422Y-123324883D01*
X186053715Y-123325500D01*
X186059885Y-123325500D01*
X186082741Y-123328175D01*
X186091866Y-123330340D01*
X186120788Y-123326404D01*
X186134137Y-123325500D01*
X187839692Y-123325500D01*
X187843817Y-123325803D01*
X187848542Y-123327425D01*
X187897961Y-123325570D01*
X187901674Y-123325500D01*
X187921148Y-123325500D01*
X187925578Y-123324675D01*
X187930771Y-123324339D01*
X187946802Y-123323737D01*
X187951275Y-123323569D01*
X187960408Y-123323226D01*
X187968802Y-123319620D01*
X187968805Y-123319619D01*
X187970983Y-123318683D01*
X187991934Y-123312317D01*
X188003253Y-123310209D01*
X188025929Y-123296232D01*
X188038796Y-123289548D01*
X188056842Y-123281795D01*
X188056843Y-123281794D01*
X188063263Y-123279036D01*
X188068149Y-123275022D01*
X188072513Y-123270658D01*
X188090568Y-123256387D01*
X188098548Y-123251468D01*
X188102390Y-123246416D01*
X189683925Y-123246416D01*
X189685263Y-123250535D01*
X189690524Y-123261716D01*
X189771851Y-123389866D01*
X189779725Y-123399385D01*
X189890360Y-123503277D01*
X189900364Y-123510545D01*
X190033360Y-123583661D01*
X190044848Y-123588209D01*
X190191858Y-123625955D01*
X190204110Y-123627503D01*
X190560320Y-123627503D01*
X190573005Y-123623381D01*
X190576000Y-123619260D01*
X190576000Y-123611823D01*
X191084000Y-123611823D01*
X191088122Y-123624508D01*
X191092243Y-123627503D01*
X191417789Y-123627503D01*
X191423977Y-123627113D01*
X191536755Y-123612867D01*
X191548721Y-123609794D01*
X191689842Y-123553920D01*
X191700664Y-123547971D01*
X191823456Y-123458757D01*
X191832461Y-123450301D01*
X191929205Y-123333356D01*
X191935827Y-123322923D01*
X191971828Y-123246416D01*
X194003925Y-123246416D01*
X194005263Y-123250535D01*
X194010524Y-123261716D01*
X194091851Y-123389866D01*
X194099725Y-123399385D01*
X194210360Y-123503277D01*
X194220364Y-123510545D01*
X194353360Y-123583661D01*
X194364848Y-123588209D01*
X194511858Y-123625955D01*
X194524110Y-123627503D01*
X194730320Y-123627503D01*
X194743005Y-123623381D01*
X194746000Y-123619260D01*
X194746000Y-123611823D01*
X195254000Y-123611823D01*
X195258122Y-123624508D01*
X195262243Y-123627503D01*
X195437789Y-123627503D01*
X195443977Y-123627113D01*
X195556755Y-123612867D01*
X195568721Y-123609794D01*
X195709842Y-123553920D01*
X195720664Y-123547971D01*
X195843456Y-123458757D01*
X195852461Y-123450301D01*
X195949205Y-123333356D01*
X195955827Y-123322923D01*
X195992170Y-123245689D01*
X195993598Y-123234389D01*
X195987465Y-123231503D01*
X195269680Y-123231503D01*
X195256995Y-123235625D01*
X195254000Y-123239746D01*
X195254000Y-123611823D01*
X194746000Y-123611823D01*
X194746000Y-123247183D01*
X194741878Y-123234498D01*
X194737757Y-123231503D01*
X194014759Y-123231503D01*
X194003925Y-123235023D01*
X194003925Y-123246416D01*
X191971828Y-123246416D01*
X191972170Y-123245689D01*
X191973598Y-123234389D01*
X191967465Y-123231503D01*
X191099680Y-123231503D01*
X191086995Y-123235625D01*
X191084000Y-123239746D01*
X191084000Y-123611823D01*
X190576000Y-123611823D01*
X190576000Y-123247183D01*
X190571878Y-123234498D01*
X190567757Y-123231503D01*
X189694759Y-123231503D01*
X189683925Y-123235023D01*
X189683925Y-123246416D01*
X188102390Y-123246416D01*
X188116218Y-123228231D01*
X188125010Y-123218161D01*
X189299656Y-122043516D01*
X189302781Y-122040819D01*
X189307269Y-122038625D01*
X189313486Y-122031923D01*
X189320823Y-122026474D01*
X189322920Y-122029298D01*
X189361847Y-122007582D01*
X189422597Y-122014875D01*
X189467457Y-122056482D01*
X189480000Y-122104712D01*
X189480000Y-122167343D01*
X189480948Y-122176965D01*
X189489702Y-122220977D01*
X189497021Y-122238645D01*
X189530389Y-122288585D01*
X189543918Y-122302114D01*
X189593858Y-122335482D01*
X189611526Y-122342801D01*
X189655538Y-122351555D01*
X189665160Y-122352503D01*
X189743066Y-122352503D01*
X189801257Y-122371410D01*
X189837221Y-122420910D01*
X189837221Y-122482096D01*
X189819347Y-122514608D01*
X189730795Y-122621650D01*
X189724173Y-122632083D01*
X189687830Y-122709317D01*
X189686402Y-122720617D01*
X189692535Y-122723503D01*
X191965241Y-122723503D01*
X191974124Y-122720617D01*
X194006402Y-122720617D01*
X194012535Y-122723503D01*
X194730320Y-122723503D01*
X194743005Y-122719381D01*
X194746000Y-122715260D01*
X194746000Y-122707823D01*
X195254000Y-122707823D01*
X195258122Y-122720508D01*
X195262243Y-122723503D01*
X195985241Y-122723503D01*
X195996075Y-122719983D01*
X195996075Y-122708590D01*
X195994737Y-122704471D01*
X195989476Y-122693290D01*
X195908149Y-122565140D01*
X195900275Y-122555621D01*
X195789640Y-122451729D01*
X195779636Y-122444461D01*
X195646640Y-122371345D01*
X195635152Y-122366797D01*
X195488142Y-122329051D01*
X195475890Y-122327503D01*
X195269680Y-122327503D01*
X195256995Y-122331625D01*
X195254000Y-122335746D01*
X195254000Y-122707823D01*
X194746000Y-122707823D01*
X194746000Y-122343183D01*
X194741878Y-122330498D01*
X194737757Y-122327503D01*
X194562211Y-122327503D01*
X194556023Y-122327893D01*
X194443245Y-122342139D01*
X194431279Y-122345212D01*
X194290158Y-122401086D01*
X194279336Y-122407035D01*
X194156544Y-122496249D01*
X194147539Y-122504705D01*
X194050795Y-122621650D01*
X194044173Y-122632083D01*
X194007830Y-122709317D01*
X194006402Y-122720617D01*
X191974124Y-122720617D01*
X191976075Y-122719983D01*
X191976075Y-122708590D01*
X191974737Y-122704471D01*
X191969476Y-122693290D01*
X191888149Y-122565140D01*
X191880275Y-122555621D01*
X191769640Y-122451729D01*
X191759636Y-122444461D01*
X191626640Y-122371345D01*
X191615152Y-122366797D01*
X191468142Y-122329051D01*
X191455890Y-122327503D01*
X191109741Y-122327503D01*
X191051550Y-122308596D01*
X191015586Y-122259096D01*
X191012643Y-122209190D01*
X191019052Y-122176967D01*
X191020000Y-122167343D01*
X191020000Y-122160499D01*
X191038907Y-122102308D01*
X191088407Y-122066344D01*
X191146620Y-122065430D01*
X191179667Y-122075031D01*
X191238825Y-122092218D01*
X191243995Y-122092598D01*
X191243997Y-122092598D01*
X191247714Y-122092871D01*
X191247721Y-122092871D01*
X191249515Y-122093003D01*
X191357785Y-122093003D01*
X191361128Y-122092545D01*
X191361129Y-122092545D01*
X191462749Y-122078625D01*
X191462753Y-122078624D01*
X191469432Y-122077709D01*
X191475618Y-122075032D01*
X191475622Y-122075031D01*
X191601661Y-122020489D01*
X191601665Y-122020487D01*
X191607855Y-122017808D01*
X191725070Y-121922889D01*
X191745311Y-121894407D01*
X191808535Y-121805443D01*
X191808536Y-121805442D01*
X191812442Y-121799945D01*
X191814726Y-121793600D01*
X191814728Y-121793597D01*
X191861248Y-121664383D01*
X191861249Y-121664380D01*
X191863533Y-121658035D01*
X191870316Y-121565674D01*
X191874086Y-121514345D01*
X191874086Y-121514342D01*
X191874580Y-121507612D01*
X191872452Y-121497055D01*
X191853092Y-121401045D01*
X191844767Y-121359760D01*
X191776293Y-121225371D01*
X191771729Y-121220408D01*
X191771725Y-121220402D01*
X191678394Y-121118906D01*
X191652923Y-121063274D01*
X191665017Y-121003296D01*
X191681263Y-120981891D01*
X192361799Y-120301356D01*
X193118414Y-119544741D01*
X193124782Y-119538906D01*
X193140966Y-119525326D01*
X193154750Y-119513760D01*
X193174325Y-119479855D01*
X193178946Y-119472603D01*
X193201394Y-119440543D01*
X193203636Y-119432175D01*
X193206144Y-119426798D01*
X193208168Y-119421237D01*
X193212497Y-119413739D01*
X193219291Y-119375210D01*
X193221160Y-119366778D01*
X193222294Y-119362548D01*
X193231287Y-119328984D01*
X193227877Y-119290011D01*
X193227500Y-119281383D01*
X193227500Y-118626500D01*
X193246407Y-118568309D01*
X193295907Y-118532345D01*
X193326500Y-118527500D01*
X195581383Y-118527500D01*
X195590011Y-118527877D01*
X195628984Y-118531287D01*
X195666781Y-118521159D01*
X195675210Y-118519291D01*
X195705211Y-118514001D01*
X195705212Y-118514001D01*
X195713739Y-118512497D01*
X195721237Y-118508168D01*
X195726798Y-118506144D01*
X195732177Y-118503636D01*
X195740543Y-118501394D01*
X195747636Y-118496428D01*
X195747639Y-118496426D01*
X195772587Y-118478956D01*
X195779874Y-118474314D01*
X195806261Y-118459080D01*
X195806263Y-118459078D01*
X195813760Y-118454750D01*
X195838911Y-118424776D01*
X195844746Y-118418408D01*
X196518420Y-117744735D01*
X196524775Y-117738912D01*
X196554750Y-117713760D01*
X196559080Y-117706261D01*
X196559082Y-117706258D01*
X196574318Y-117679869D01*
X196578958Y-117672585D01*
X196581570Y-117668854D01*
X196601394Y-117640543D01*
X196603636Y-117632178D01*
X196606141Y-117626806D01*
X196608167Y-117621240D01*
X196612497Y-117613739D01*
X196619292Y-117575201D01*
X196621162Y-117566767D01*
X196629044Y-117537352D01*
X196631286Y-117528985D01*
X196627877Y-117490020D01*
X196627500Y-117481392D01*
X196627500Y-108018617D01*
X196627877Y-108009988D01*
X196630532Y-107979643D01*
X196631287Y-107971016D01*
X196621160Y-107933220D01*
X196619291Y-107924790D01*
X196614001Y-107894791D01*
X196612497Y-107886261D01*
X196608166Y-107878760D01*
X196606141Y-107873197D01*
X196603638Y-107867828D01*
X196601395Y-107859457D01*
X196596426Y-107852361D01*
X196596425Y-107852358D01*
X196578952Y-107827405D01*
X196574312Y-107820121D01*
X196559083Y-107793744D01*
X196559081Y-107793742D01*
X196554750Y-107786240D01*
X196548117Y-107780674D01*
X196548115Y-107780672D01*
X196524782Y-107761094D01*
X196518414Y-107755259D01*
X195244746Y-106481592D01*
X195238911Y-106475224D01*
X195219325Y-106451882D01*
X195213760Y-106445250D01*
X195206263Y-106440922D01*
X195206261Y-106440920D01*
X195179874Y-106425686D01*
X195172587Y-106421044D01*
X195147639Y-106403574D01*
X195147636Y-106403572D01*
X195140543Y-106398606D01*
X195132177Y-106396364D01*
X195126798Y-106393856D01*
X195121237Y-106391832D01*
X195113739Y-106387503D01*
X195105212Y-106385999D01*
X195105211Y-106385999D01*
X195075210Y-106380709D01*
X195066781Y-106378841D01*
X195028984Y-106368713D01*
X194990012Y-106372123D01*
X194981383Y-106372500D01*
X184826662Y-106372500D01*
X184768471Y-106353593D01*
X184756659Y-106343504D01*
X184466497Y-106053343D01*
X184438719Y-105998826D01*
X184437500Y-105983339D01*
X184437500Y-105922215D01*
X184456407Y-105864024D01*
X184505907Y-105828060D01*
X184567093Y-105828060D01*
X184606442Y-105852150D01*
X184637859Y-105883513D01*
X184637862Y-105883515D01*
X184643650Y-105889293D01*
X184748482Y-105940536D01*
X184756084Y-105941645D01*
X184756087Y-105941646D01*
X184813237Y-105949983D01*
X184813239Y-105949983D01*
X184816782Y-105950500D01*
X185908218Y-105950500D01*
X185911801Y-105949972D01*
X185911808Y-105949972D01*
X185969499Y-105941479D01*
X185969501Y-105941478D01*
X185977112Y-105940358D01*
X185998299Y-105929956D01*
X186032192Y-105913315D01*
X186081855Y-105888932D01*
X186095325Y-105875439D01*
X186158513Y-105812140D01*
X186164293Y-105806350D01*
X186215536Y-105701518D01*
X186216645Y-105693916D01*
X186216646Y-105693913D01*
X186224983Y-105636763D01*
X186224983Y-105636761D01*
X186225500Y-105633218D01*
X186774500Y-105633218D01*
X186775028Y-105636801D01*
X186775028Y-105636808D01*
X186779354Y-105666193D01*
X186784642Y-105702112D01*
X186788033Y-105709018D01*
X186788033Y-105709019D01*
X186794895Y-105722995D01*
X186836068Y-105806855D01*
X186918650Y-105889293D01*
X187023482Y-105940536D01*
X187031084Y-105941645D01*
X187031087Y-105941646D01*
X187088237Y-105949983D01*
X187088239Y-105949983D01*
X187091782Y-105950500D01*
X188183218Y-105950500D01*
X188186801Y-105949972D01*
X188186808Y-105949972D01*
X188244499Y-105941479D01*
X188244501Y-105941478D01*
X188252112Y-105940358D01*
X188273299Y-105929956D01*
X188307192Y-105913315D01*
X188356855Y-105888932D01*
X188370325Y-105875439D01*
X188433513Y-105812140D01*
X188439293Y-105806350D01*
X188490536Y-105701518D01*
X188491645Y-105693916D01*
X188491646Y-105693913D01*
X188499983Y-105636763D01*
X188499983Y-105636761D01*
X188500500Y-105633218D01*
X188500500Y-105403834D01*
X189924500Y-105403834D01*
X189924718Y-105406135D01*
X189924718Y-105406145D01*
X189925036Y-105409505D01*
X189927481Y-105435369D01*
X189972366Y-105563184D01*
X189976761Y-105569135D01*
X189976762Y-105569136D01*
X190026746Y-105636808D01*
X190052850Y-105672150D01*
X190058807Y-105676550D01*
X190128263Y-105727851D01*
X190161816Y-105752634D01*
X190289631Y-105797519D01*
X190295638Y-105798087D01*
X190295639Y-105798087D01*
X190318855Y-105800282D01*
X190318865Y-105800282D01*
X190321166Y-105800500D01*
X191678834Y-105800500D01*
X191681135Y-105800282D01*
X191681145Y-105800282D01*
X191704361Y-105798087D01*
X191704362Y-105798087D01*
X191710369Y-105797519D01*
X191838184Y-105752634D01*
X191871738Y-105727851D01*
X191941193Y-105676550D01*
X191947150Y-105672150D01*
X191973254Y-105636808D01*
X192023238Y-105569136D01*
X192023239Y-105569135D01*
X192027634Y-105563184D01*
X192072519Y-105435369D01*
X192074964Y-105409505D01*
X192075282Y-105406145D01*
X192075282Y-105406135D01*
X192075500Y-105403834D01*
X192075500Y-104596166D01*
X192075199Y-104592972D01*
X192073087Y-104570639D01*
X192073087Y-104570638D01*
X192072519Y-104564631D01*
X192027634Y-104436816D01*
X192005669Y-104407077D01*
X191951550Y-104333807D01*
X191947150Y-104327850D01*
X191880520Y-104278636D01*
X191844136Y-104251762D01*
X191844135Y-104251761D01*
X191838184Y-104247366D01*
X191710369Y-104202481D01*
X191704362Y-104201913D01*
X191704361Y-104201913D01*
X191681145Y-104199718D01*
X191681135Y-104199718D01*
X191678834Y-104199500D01*
X190321166Y-104199500D01*
X190318865Y-104199718D01*
X190318855Y-104199718D01*
X190295639Y-104201913D01*
X190295638Y-104201913D01*
X190289631Y-104202481D01*
X190161816Y-104247366D01*
X190155865Y-104251761D01*
X190155864Y-104251762D01*
X190119480Y-104278636D01*
X190052850Y-104327850D01*
X190048450Y-104333807D01*
X189994332Y-104407077D01*
X189972366Y-104436816D01*
X189927481Y-104564631D01*
X189926913Y-104570638D01*
X189926913Y-104570639D01*
X189924802Y-104592972D01*
X189924500Y-104596166D01*
X189924500Y-105403834D01*
X188500500Y-105403834D01*
X188500500Y-105266782D01*
X188499226Y-105258122D01*
X188491479Y-105205501D01*
X188491478Y-105205499D01*
X188490358Y-105197888D01*
X188438932Y-105093145D01*
X188356350Y-105010707D01*
X188251518Y-104959464D01*
X188243916Y-104958355D01*
X188243913Y-104958354D01*
X188186763Y-104950017D01*
X188186761Y-104950017D01*
X188183218Y-104949500D01*
X187091782Y-104949500D01*
X187088199Y-104950028D01*
X187088192Y-104950028D01*
X187030501Y-104958521D01*
X187030499Y-104958522D01*
X187022888Y-104959642D01*
X186918145Y-105011068D01*
X186835707Y-105093650D01*
X186784464Y-105198482D01*
X186783355Y-105206084D01*
X186783354Y-105206087D01*
X186775797Y-105257892D01*
X186774500Y-105266782D01*
X186774500Y-105633218D01*
X186225500Y-105633218D01*
X186225500Y-105266782D01*
X186224226Y-105258122D01*
X186216479Y-105205501D01*
X186216478Y-105205499D01*
X186215358Y-105197888D01*
X186163932Y-105093145D01*
X186158140Y-105087363D01*
X186115427Y-105044724D01*
X186087602Y-104990232D01*
X186097121Y-104929791D01*
X186115305Y-104904718D01*
X186158101Y-104861848D01*
X186167474Y-104848707D01*
X186206881Y-104768088D01*
X186208476Y-104756807D01*
X186202734Y-104754000D01*
X185207500Y-104754000D01*
X185149309Y-104735093D01*
X185113345Y-104685593D01*
X185108500Y-104655000D01*
X185108500Y-104345000D01*
X185127407Y-104286809D01*
X185176907Y-104250845D01*
X185207500Y-104246000D01*
X186198196Y-104246000D01*
X186209031Y-104242479D01*
X186209031Y-104236132D01*
X186167127Y-104150784D01*
X186157730Y-104137658D01*
X186115428Y-104095430D01*
X186087602Y-104040937D01*
X186097121Y-103980497D01*
X186115304Y-103955424D01*
X186164293Y-103906350D01*
X186166518Y-103901798D01*
X186214370Y-103866389D01*
X186275553Y-103865855D01*
X186300640Y-103877861D01*
X186397053Y-103942039D01*
X186403780Y-103944141D01*
X186403783Y-103944142D01*
X186508025Y-103976709D01*
X186508026Y-103976709D01*
X186514757Y-103978812D01*
X186578126Y-103979974D01*
X186630999Y-103980943D01*
X186631001Y-103980943D01*
X186638052Y-103981072D01*
X186757024Y-103948636D01*
X186765373Y-103943510D01*
X186767585Y-103942977D01*
X186769507Y-103942145D01*
X186769651Y-103942479D01*
X186824854Y-103929175D01*
X186881402Y-103952541D01*
X186887114Y-103957812D01*
X186912859Y-103983513D01*
X186912862Y-103983515D01*
X186918650Y-103989293D01*
X187023482Y-104040536D01*
X187031084Y-104041645D01*
X187031087Y-104041646D01*
X187088237Y-104049983D01*
X187088239Y-104049983D01*
X187091782Y-104050500D01*
X187110269Y-104050500D01*
X187168460Y-104069407D01*
X187204424Y-104118907D01*
X187208090Y-104164731D01*
X187198394Y-104227003D01*
X187199309Y-104234000D01*
X187199309Y-104234001D01*
X187211007Y-104323450D01*
X187214384Y-104349277D01*
X187264048Y-104462149D01*
X187268585Y-104467547D01*
X187268586Y-104467548D01*
X187276999Y-104477556D01*
X187343396Y-104556545D01*
X187349267Y-104560453D01*
X187349268Y-104560454D01*
X187377172Y-104579028D01*
X187446048Y-104624876D01*
X187452775Y-104626978D01*
X187452778Y-104626979D01*
X187557020Y-104659546D01*
X187557021Y-104659546D01*
X187563752Y-104661649D01*
X187627121Y-104662811D01*
X187679994Y-104663780D01*
X187679996Y-104663780D01*
X187687047Y-104663909D01*
X187806019Y-104631473D01*
X187911106Y-104566950D01*
X187937414Y-104537886D01*
X187989125Y-104480756D01*
X187993860Y-104475525D01*
X188047627Y-104364549D01*
X188053801Y-104327850D01*
X188067452Y-104246714D01*
X188067452Y-104246708D01*
X188068086Y-104242943D01*
X188068216Y-104232317D01*
X188065989Y-104216766D01*
X188058366Y-104163534D01*
X188068833Y-104103251D01*
X188112735Y-104060633D01*
X188156366Y-104050500D01*
X188183218Y-104050500D01*
X188186801Y-104049972D01*
X188186808Y-104049972D01*
X188244499Y-104041479D01*
X188244501Y-104041478D01*
X188252112Y-104040358D01*
X188280389Y-104026475D01*
X188338143Y-103998119D01*
X188356855Y-103988932D01*
X188369770Y-103975995D01*
X188393474Y-103952249D01*
X188447967Y-103924423D01*
X188506162Y-103932836D01*
X188506885Y-103933181D01*
X188512759Y-103937091D01*
X188519489Y-103939194D01*
X188519492Y-103939195D01*
X188623731Y-103971761D01*
X188623732Y-103971761D01*
X188630463Y-103973864D01*
X188693832Y-103975026D01*
X188746705Y-103975995D01*
X188746707Y-103975995D01*
X188753758Y-103976124D01*
X188872730Y-103943688D01*
X188977817Y-103879165D01*
X188982757Y-103873708D01*
X189049021Y-103800500D01*
X189060571Y-103787740D01*
X189114338Y-103676764D01*
X189115508Y-103669810D01*
X189134163Y-103558929D01*
X189134163Y-103558923D01*
X189134797Y-103555158D01*
X189134927Y-103544532D01*
X189117445Y-103422462D01*
X189085173Y-103351484D01*
X189069326Y-103316630D01*
X189069325Y-103316629D01*
X189066405Y-103310206D01*
X188995261Y-103227639D01*
X188990515Y-103222131D01*
X188990514Y-103222130D01*
X188985910Y-103216787D01*
X188882431Y-103149715D01*
X188875673Y-103147694D01*
X188875671Y-103147693D01*
X188771047Y-103116404D01*
X188764286Y-103114382D01*
X188689287Y-103113924D01*
X188648025Y-103113672D01*
X188640974Y-103113629D01*
X188634197Y-103115566D01*
X188634196Y-103115566D01*
X188529190Y-103145577D01*
X188522406Y-103147516D01*
X188510086Y-103155289D01*
X188450783Y-103170347D01*
X188393955Y-103147671D01*
X188387321Y-103141624D01*
X188362140Y-103116487D01*
X188356350Y-103110707D01*
X188251518Y-103059464D01*
X188243916Y-103058355D01*
X188243913Y-103058354D01*
X188186763Y-103050017D01*
X188186761Y-103050017D01*
X188183218Y-103049500D01*
X188064000Y-103049500D01*
X188005809Y-103030593D01*
X187979496Y-102994376D01*
X189919455Y-102994376D01*
X189938227Y-103172983D01*
X189940011Y-103178223D01*
X189940011Y-103178224D01*
X189988851Y-103321690D01*
X189996103Y-103342993D01*
X189999001Y-103347703D01*
X189999003Y-103347708D01*
X190049237Y-103429361D01*
X190090206Y-103495955D01*
X190094074Y-103499904D01*
X190094074Y-103499905D01*
X190156041Y-103563184D01*
X190215859Y-103624268D01*
X190366817Y-103721554D01*
X190535578Y-103782978D01*
X190674283Y-103800500D01*
X191320155Y-103800500D01*
X191322909Y-103800191D01*
X191322911Y-103800191D01*
X191364561Y-103795519D01*
X191453472Y-103785546D01*
X191623073Y-103726485D01*
X191660979Y-103702799D01*
X191770685Y-103634247D01*
X191770687Y-103634245D01*
X191775375Y-103631316D01*
X191866583Y-103540742D01*
X191898879Y-103508671D01*
X191898880Y-103508669D01*
X191902807Y-103504770D01*
X191905774Y-103500095D01*
X191996071Y-103357810D01*
X191996072Y-103357809D01*
X191999037Y-103353136D01*
X192059281Y-103183951D01*
X192060904Y-103170347D01*
X192079890Y-103011120D01*
X192079890Y-103011117D01*
X192080545Y-103005624D01*
X192061773Y-102827017D01*
X192054844Y-102806662D01*
X192005682Y-102662249D01*
X192005680Y-102662245D01*
X192003897Y-102657007D01*
X192000999Y-102652297D01*
X192000997Y-102652292D01*
X191912691Y-102508754D01*
X191909794Y-102504045D01*
X191869715Y-102463117D01*
X191788012Y-102379685D01*
X191784141Y-102375732D01*
X191633183Y-102278446D01*
X191464422Y-102217022D01*
X191325717Y-102199500D01*
X190679845Y-102199500D01*
X190677091Y-102199809D01*
X190677089Y-102199809D01*
X190653269Y-102202481D01*
X190546528Y-102214454D01*
X190376927Y-102273515D01*
X190372234Y-102276447D01*
X190372235Y-102276447D01*
X190229315Y-102365753D01*
X190229313Y-102365755D01*
X190224625Y-102368684D01*
X190165670Y-102427229D01*
X190104351Y-102488122D01*
X190097193Y-102495230D01*
X190094227Y-102499904D01*
X190094226Y-102499905D01*
X190013914Y-102626457D01*
X190000963Y-102646864D01*
X189999107Y-102652075D01*
X189999107Y-102652076D01*
X189984770Y-102692340D01*
X189940719Y-102816049D01*
X189940065Y-102821536D01*
X189940064Y-102821539D01*
X189921963Y-102973343D01*
X189919455Y-102994376D01*
X187979496Y-102994376D01*
X187969845Y-102981093D01*
X187965000Y-102950500D01*
X187965000Y-102814470D01*
X187983907Y-102756279D01*
X188022157Y-102724748D01*
X188068316Y-102703224D01*
X188153224Y-102618316D01*
X188159832Y-102604147D01*
X188200769Y-102516356D01*
X188200769Y-102516355D01*
X188203972Y-102509487D01*
X188210500Y-102459901D01*
X188210499Y-102100100D01*
X188203972Y-102050513D01*
X188177940Y-101994686D01*
X193965105Y-101994686D01*
X193966020Y-102001683D01*
X193966020Y-102001684D01*
X193972406Y-102050513D01*
X193981095Y-102116960D01*
X194030759Y-102229832D01*
X194035296Y-102235230D01*
X194035297Y-102235231D01*
X194081788Y-102290539D01*
X194110107Y-102324228D01*
X194115978Y-102328136D01*
X194115979Y-102328137D01*
X194136613Y-102341872D01*
X194212759Y-102392559D01*
X194219486Y-102394661D01*
X194219489Y-102394662D01*
X194323731Y-102427229D01*
X194323732Y-102427229D01*
X194330463Y-102429332D01*
X194393832Y-102430494D01*
X194446705Y-102431463D01*
X194446707Y-102431463D01*
X194453758Y-102431592D01*
X194572730Y-102399156D01*
X194677817Y-102334633D01*
X194760571Y-102243208D01*
X194814338Y-102132232D01*
X194818084Y-102109966D01*
X194834163Y-102014397D01*
X194834163Y-102014391D01*
X194834797Y-102010626D01*
X194834927Y-102000000D01*
X194817445Y-101877930D01*
X194781785Y-101799500D01*
X194769326Y-101772098D01*
X194769325Y-101772097D01*
X194766405Y-101765674D01*
X194702397Y-101691389D01*
X194690515Y-101677599D01*
X194690514Y-101677598D01*
X194685910Y-101672255D01*
X194582431Y-101605183D01*
X194575673Y-101603162D01*
X194575671Y-101603161D01*
X194478153Y-101573997D01*
X194464286Y-101569850D01*
X194389287Y-101569392D01*
X194348025Y-101569140D01*
X194340974Y-101569097D01*
X194334197Y-101571034D01*
X194334196Y-101571034D01*
X194242486Y-101597245D01*
X194222406Y-101602984D01*
X194118115Y-101668786D01*
X194113444Y-101674075D01*
X194078124Y-101714068D01*
X194036485Y-101761215D01*
X193984077Y-101872840D01*
X193965105Y-101994686D01*
X188177940Y-101994686D01*
X188169079Y-101975684D01*
X188156885Y-101949534D01*
X188156884Y-101949532D01*
X188153224Y-101941684D01*
X188081190Y-101869650D01*
X188053413Y-101815133D01*
X188062984Y-101754701D01*
X188081190Y-101729642D01*
X188146685Y-101664147D01*
X188156469Y-101650174D01*
X188185362Y-101588212D01*
X188186750Y-101576904D01*
X188180523Y-101574000D01*
X187223691Y-101574000D01*
X187212856Y-101577521D01*
X187212856Y-101584390D01*
X187243531Y-101650174D01*
X187253315Y-101664147D01*
X187318810Y-101729642D01*
X187346587Y-101784159D01*
X187337016Y-101844591D01*
X187318810Y-101869650D01*
X187246776Y-101941684D01*
X187243116Y-101949532D01*
X187243115Y-101949534D01*
X187211744Y-102016809D01*
X187196028Y-102050513D01*
X187189500Y-102100099D01*
X187189501Y-102459900D01*
X187189924Y-102463110D01*
X187189924Y-102463117D01*
X187193395Y-102489487D01*
X187196028Y-102509487D01*
X187219020Y-102558792D01*
X187240169Y-102604147D01*
X187246776Y-102618316D01*
X187281004Y-102652544D01*
X187308781Y-102707061D01*
X187310000Y-102722548D01*
X187310000Y-102950500D01*
X187291093Y-103008691D01*
X187241593Y-103044655D01*
X187211000Y-103049500D01*
X187091782Y-103049500D01*
X187088199Y-103050028D01*
X187088192Y-103050028D01*
X187030501Y-103058521D01*
X187030499Y-103058522D01*
X187022888Y-103059642D01*
X187015982Y-103063033D01*
X187015981Y-103063033D01*
X186976726Y-103082306D01*
X186918145Y-103111068D01*
X186912364Y-103116859D01*
X186888652Y-103140613D01*
X186834160Y-103168438D01*
X186777060Y-103160540D01*
X186772643Y-103158499D01*
X186766725Y-103154663D01*
X186759969Y-103152643D01*
X186759968Y-103152642D01*
X186655341Y-103121352D01*
X186648580Y-103119330D01*
X186573581Y-103118872D01*
X186532319Y-103118620D01*
X186525268Y-103118577D01*
X186518491Y-103120514D01*
X186518490Y-103120514D01*
X186413484Y-103150525D01*
X186406700Y-103152464D01*
X186400732Y-103156230D01*
X186400731Y-103156230D01*
X186351385Y-103187365D01*
X186302409Y-103218266D01*
X186301600Y-103216985D01*
X186252508Y-103237216D01*
X186193039Y-103222825D01*
X186166228Y-103197821D01*
X186163932Y-103193145D01*
X186081350Y-103110707D01*
X185976518Y-103059464D01*
X185968916Y-103058355D01*
X185968913Y-103058354D01*
X185911763Y-103050017D01*
X185911761Y-103050017D01*
X185908218Y-103049500D01*
X185366162Y-103049500D01*
X185307971Y-103030593D01*
X185296164Y-103020509D01*
X185203876Y-102928222D01*
X185176100Y-102873706D01*
X185185671Y-102813274D01*
X185228936Y-102770009D01*
X185283603Y-102760616D01*
X185283652Y-102759865D01*
X185286781Y-102760070D01*
X185286804Y-102760066D01*
X185290099Y-102760500D01*
X185499967Y-102760500D01*
X185709900Y-102760499D01*
X185713110Y-102760076D01*
X185713117Y-102760076D01*
X185751975Y-102754961D01*
X185751976Y-102754961D01*
X185759487Y-102753972D01*
X185810670Y-102730105D01*
X185860466Y-102706885D01*
X185860468Y-102706884D01*
X185868316Y-102703224D01*
X185953224Y-102618316D01*
X185959832Y-102604147D01*
X186000769Y-102516356D01*
X186000769Y-102516355D01*
X186003972Y-102509487D01*
X186010500Y-102459901D01*
X186010499Y-102100100D01*
X186003972Y-102050513D01*
X185969079Y-101975684D01*
X185956885Y-101949534D01*
X185956884Y-101949532D01*
X185953224Y-101941684D01*
X185881190Y-101869650D01*
X185853413Y-101815133D01*
X185862984Y-101754701D01*
X185881190Y-101729642D01*
X185946685Y-101664147D01*
X185956469Y-101650174D01*
X185985362Y-101588212D01*
X185986750Y-101576904D01*
X185980523Y-101574000D01*
X185345000Y-101574000D01*
X185286809Y-101555093D01*
X185250845Y-101505593D01*
X185246000Y-101475000D01*
X185246000Y-101050320D01*
X185754000Y-101050320D01*
X185758122Y-101063005D01*
X185762243Y-101066000D01*
X185976309Y-101066000D01*
X185985245Y-101063096D01*
X187213250Y-101063096D01*
X187219477Y-101066000D01*
X187430320Y-101066000D01*
X187443005Y-101061878D01*
X187446000Y-101057757D01*
X187446000Y-101050320D01*
X187954000Y-101050320D01*
X187958122Y-101063005D01*
X187962243Y-101066000D01*
X188176309Y-101066000D01*
X188187144Y-101062479D01*
X188187144Y-101055610D01*
X188156469Y-100989826D01*
X188146685Y-100975853D01*
X188074147Y-100903315D01*
X188060174Y-100893531D01*
X187966224Y-100849722D01*
X187963612Y-100848960D01*
X187956431Y-100850292D01*
X187955195Y-100851594D01*
X187954000Y-100856874D01*
X187954000Y-101050320D01*
X187446000Y-101050320D01*
X187446000Y-100861494D01*
X187441878Y-100848809D01*
X187440455Y-100847775D01*
X187433776Y-100849722D01*
X187339826Y-100893531D01*
X187325853Y-100903315D01*
X187253315Y-100975853D01*
X187243531Y-100989826D01*
X187214638Y-101051788D01*
X187213250Y-101063096D01*
X185985245Y-101063096D01*
X185987144Y-101062479D01*
X185987144Y-101055610D01*
X185956469Y-100989826D01*
X185946685Y-100975853D01*
X185874147Y-100903315D01*
X185860174Y-100893531D01*
X185766224Y-100849722D01*
X185763612Y-100848960D01*
X185756431Y-100850292D01*
X185755195Y-100851594D01*
X185754000Y-100856874D01*
X185754000Y-101050320D01*
X185246000Y-101050320D01*
X185246000Y-100861494D01*
X185241878Y-100848809D01*
X185240455Y-100847775D01*
X185233776Y-100849722D01*
X185139826Y-100893531D01*
X185125853Y-100903315D01*
X185053315Y-100975853D01*
X185043531Y-100989826D01*
X185016224Y-101048387D01*
X184974496Y-101093135D01*
X184914435Y-101104810D01*
X184858982Y-101078952D01*
X184829319Y-101025438D01*
X184827500Y-101006548D01*
X184827500Y-99426500D01*
X184846407Y-99368309D01*
X184895907Y-99332345D01*
X184926500Y-99327500D01*
X185354279Y-99327500D01*
X185412470Y-99346407D01*
X185448434Y-99395907D01*
X185451377Y-99445811D01*
X185450448Y-99450481D01*
X185450447Y-99450491D01*
X185449500Y-99455252D01*
X185449500Y-99944748D01*
X185461133Y-100003231D01*
X185505448Y-100069552D01*
X185571769Y-100113867D01*
X185581332Y-100115769D01*
X185581334Y-100115770D01*
X185596136Y-100118714D01*
X185630252Y-100125500D01*
X186269748Y-100125500D01*
X186303864Y-100118714D01*
X186318666Y-100115770D01*
X186318668Y-100115769D01*
X186328231Y-100113867D01*
X186394552Y-100069552D01*
X186438867Y-100003231D01*
X186450500Y-99944748D01*
X186450500Y-99455252D01*
X186438867Y-99396769D01*
X186394552Y-99330448D01*
X186328231Y-99286133D01*
X186318670Y-99284231D01*
X186311442Y-99281237D01*
X186264917Y-99241499D01*
X186262558Y-99236609D01*
X186262497Y-99236261D01*
X186261850Y-99235141D01*
X186261846Y-99235132D01*
X186261690Y-99234862D01*
X186261534Y-99234487D01*
X186256303Y-99223641D01*
X186256143Y-99223200D01*
X186253637Y-99217826D01*
X186251395Y-99209457D01*
X186246426Y-99202361D01*
X186246425Y-99202358D01*
X186228952Y-99177405D01*
X186224312Y-99170121D01*
X186209083Y-99143744D01*
X186209081Y-99143742D01*
X186204750Y-99136240D01*
X186174768Y-99111082D01*
X186168415Y-99105260D01*
X185844752Y-98781598D01*
X185838916Y-98775230D01*
X185819325Y-98751882D01*
X185819324Y-98751881D01*
X185813760Y-98745250D01*
X185806263Y-98740922D01*
X185806261Y-98740920D01*
X185779874Y-98725686D01*
X185772587Y-98721044D01*
X185747639Y-98703574D01*
X185747636Y-98703572D01*
X185740543Y-98698606D01*
X185732177Y-98696364D01*
X185726798Y-98693856D01*
X185721237Y-98691832D01*
X185713739Y-98687503D01*
X185705212Y-98685999D01*
X185705211Y-98685999D01*
X185675210Y-98680709D01*
X185666781Y-98678841D01*
X185628984Y-98668713D01*
X185590012Y-98672123D01*
X185581383Y-98672500D01*
X181668608Y-98672500D01*
X181659980Y-98672123D01*
X181646618Y-98670954D01*
X181621015Y-98668714D01*
X181612648Y-98670956D01*
X181583233Y-98678838D01*
X181574799Y-98680708D01*
X181544791Y-98685999D01*
X181536261Y-98687503D01*
X181528760Y-98691833D01*
X181523194Y-98693859D01*
X181517822Y-98696364D01*
X181509457Y-98698606D01*
X181480620Y-98718798D01*
X181477415Y-98721042D01*
X181470131Y-98725682D01*
X181443742Y-98740918D01*
X181443739Y-98740920D01*
X181436240Y-98745250D01*
X181411088Y-98775225D01*
X181405265Y-98781579D01*
X180941342Y-99245503D01*
X180886825Y-99273281D01*
X180871338Y-99274500D01*
X180630252Y-99274500D01*
X180604005Y-99279721D01*
X180581334Y-99284230D01*
X180581332Y-99284231D01*
X180571769Y-99286133D01*
X180505448Y-99330448D01*
X180461133Y-99396769D01*
X180449500Y-99455252D01*
X180449500Y-99944748D01*
X180450448Y-99949512D01*
X180461133Y-100003231D01*
X180457336Y-100003986D01*
X180460704Y-100046574D01*
X180428755Y-100098756D01*
X180372236Y-100122192D01*
X180364431Y-100122500D01*
X179048609Y-100122500D01*
X179039981Y-100122123D01*
X179038753Y-100122016D01*
X179001016Y-100118714D01*
X178992652Y-100120955D01*
X178963231Y-100128838D01*
X178954801Y-100130707D01*
X178924789Y-100135999D01*
X178924788Y-100135999D01*
X178916261Y-100137503D01*
X178908762Y-100141832D01*
X178903203Y-100143856D01*
X178897824Y-100146364D01*
X178889457Y-100148606D01*
X178882361Y-100153575D01*
X178857415Y-100171042D01*
X178850131Y-100175682D01*
X178823742Y-100190918D01*
X178823739Y-100190920D01*
X178816240Y-100195250D01*
X178793769Y-100222031D01*
X178791093Y-100225219D01*
X178785259Y-100231586D01*
X178571598Y-100445248D01*
X178565230Y-100451084D01*
X178535250Y-100476240D01*
X178530922Y-100483737D01*
X178530920Y-100483739D01*
X178515686Y-100510126D01*
X178511044Y-100517413D01*
X178493574Y-100542361D01*
X178493572Y-100542364D01*
X178488606Y-100549457D01*
X178486364Y-100557823D01*
X178483856Y-100563202D01*
X178481832Y-100568763D01*
X178477503Y-100576261D01*
X178475999Y-100584788D01*
X178475999Y-100584789D01*
X178470709Y-100614790D01*
X178468841Y-100623219D01*
X178458713Y-100661016D01*
X178459468Y-100669643D01*
X178462123Y-100699988D01*
X178462500Y-100708617D01*
X178462500Y-103061383D01*
X178462123Y-103070011D01*
X178458713Y-103108984D01*
X178461803Y-103120514D01*
X178468840Y-103146778D01*
X178470709Y-103155210D01*
X178473042Y-103168438D01*
X178477503Y-103193739D01*
X178481832Y-103201237D01*
X178483856Y-103206798D01*
X178486364Y-103212177D01*
X178488606Y-103220543D01*
X178493572Y-103227636D01*
X178493574Y-103227639D01*
X178511044Y-103252587D01*
X178515686Y-103259874D01*
X178530920Y-103286261D01*
X178530922Y-103286263D01*
X178535250Y-103293760D01*
X178541882Y-103299325D01*
X178565224Y-103318911D01*
X178571592Y-103324746D01*
X179215265Y-103968420D01*
X179221088Y-103974775D01*
X179246240Y-104004750D01*
X179253739Y-104009080D01*
X179253742Y-104009082D01*
X179280131Y-104024318D01*
X179287415Y-104028958D01*
X179319457Y-104051394D01*
X179327823Y-104053636D01*
X179333197Y-104056142D01*
X179338762Y-104058167D01*
X179346261Y-104062497D01*
X179354788Y-104064001D01*
X179354789Y-104064001D01*
X179362690Y-104065394D01*
X179416714Y-104094118D01*
X179443536Y-104149111D01*
X179444500Y-104162890D01*
X179444500Y-104402314D01*
X179456290Y-104461585D01*
X179458825Y-104465379D01*
X179463369Y-104523111D01*
X179460390Y-104532279D01*
X179456290Y-104538415D01*
X179444500Y-104597686D01*
X179444500Y-104742337D01*
X179425593Y-104800528D01*
X179376093Y-104836492D01*
X179314907Y-104836492D01*
X179275496Y-104812341D01*
X178071338Y-103608183D01*
X178043561Y-103553666D01*
X178047934Y-103505377D01*
X178051243Y-103495955D01*
X178072519Y-103435369D01*
X178075500Y-103403834D01*
X178075500Y-102596166D01*
X178074562Y-102586235D01*
X178073087Y-102570639D01*
X178073087Y-102570638D01*
X178072519Y-102564631D01*
X178027634Y-102436816D01*
X178022406Y-102429737D01*
X177951550Y-102333807D01*
X177947150Y-102327850D01*
X177925898Y-102312153D01*
X177844136Y-102251762D01*
X177844135Y-102251761D01*
X177838184Y-102247366D01*
X177710369Y-102202481D01*
X177704362Y-102201913D01*
X177704361Y-102201913D01*
X177681145Y-102199718D01*
X177681135Y-102199718D01*
X177678834Y-102199500D01*
X176321166Y-102199500D01*
X176318865Y-102199718D01*
X176318855Y-102199718D01*
X176295639Y-102201913D01*
X176295638Y-102201913D01*
X176289631Y-102202481D01*
X176161816Y-102247366D01*
X176155865Y-102251761D01*
X176155864Y-102251762D01*
X176074102Y-102312153D01*
X176052850Y-102327850D01*
X176048450Y-102333807D01*
X175977595Y-102429737D01*
X175972366Y-102436816D01*
X175927481Y-102564631D01*
X175926913Y-102570638D01*
X175926913Y-102570639D01*
X175925439Y-102586235D01*
X175924500Y-102596166D01*
X175924500Y-103403834D01*
X175927481Y-103435369D01*
X175972366Y-103563184D01*
X175976761Y-103569135D01*
X175976762Y-103569136D01*
X176019698Y-103627266D01*
X176052850Y-103672150D01*
X176058807Y-103676550D01*
X176122444Y-103723553D01*
X176161816Y-103752634D01*
X176289631Y-103797519D01*
X176295638Y-103798087D01*
X176295639Y-103798087D01*
X176318855Y-103800282D01*
X176318865Y-103800282D01*
X176321166Y-103800500D01*
X177296338Y-103800500D01*
X177354529Y-103819407D01*
X177366342Y-103829496D01*
X177604573Y-104067727D01*
X177632350Y-104122244D01*
X177622779Y-104182676D01*
X177579514Y-104225941D01*
X177519082Y-104235512D01*
X177500710Y-104230761D01*
X177469508Y-104219405D01*
X177458810Y-104216817D01*
X177328775Y-104200390D01*
X177322587Y-104200000D01*
X177269680Y-104200000D01*
X177256995Y-104204122D01*
X177254000Y-104208243D01*
X177254000Y-104730320D01*
X177258122Y-104743005D01*
X177262243Y-104746000D01*
X178017985Y-104746000D01*
X178028579Y-104742558D01*
X178028501Y-104731353D01*
X178047002Y-104673031D01*
X178096249Y-104636722D01*
X178157433Y-104636295D01*
X178197502Y-104660656D01*
X178624208Y-105087363D01*
X179005259Y-105468414D01*
X179011094Y-105474782D01*
X179030672Y-105498115D01*
X179030674Y-105498117D01*
X179036240Y-105504750D01*
X179043742Y-105509081D01*
X179043744Y-105509083D01*
X179070121Y-105524312D01*
X179077405Y-105528952D01*
X179102358Y-105546425D01*
X179102361Y-105546426D01*
X179109457Y-105551395D01*
X179117828Y-105553638D01*
X179123197Y-105556141D01*
X179128760Y-105558166D01*
X179136261Y-105562497D01*
X179159419Y-105566581D01*
X179174790Y-105569291D01*
X179183222Y-105571160D01*
X179221016Y-105581287D01*
X179259993Y-105577877D01*
X179268621Y-105577500D01*
X179577716Y-105577500D01*
X179597030Y-105579402D01*
X179627686Y-105585500D01*
X179638500Y-105585500D01*
X179696691Y-105604407D01*
X179732655Y-105653907D01*
X179737500Y-105684500D01*
X179737500Y-105849952D01*
X179718593Y-105908143D01*
X179708504Y-105919956D01*
X179636776Y-105991684D01*
X179633116Y-105999532D01*
X179633115Y-105999534D01*
X179599553Y-106071508D01*
X179586028Y-106100513D01*
X179579500Y-106150099D01*
X179579501Y-106569900D01*
X179579924Y-106573110D01*
X179579924Y-106573117D01*
X179582760Y-106594662D01*
X179586028Y-106619487D01*
X179590619Y-106629332D01*
X179629827Y-106713413D01*
X179636776Y-106728316D01*
X179721684Y-106813224D01*
X179729532Y-106816884D01*
X179729534Y-106816885D01*
X179793580Y-106846750D01*
X179830513Y-106863972D01*
X179880099Y-106870500D01*
X180059972Y-106870500D01*
X180239900Y-106870499D01*
X180243110Y-106870076D01*
X180243117Y-106870076D01*
X180281975Y-106864961D01*
X180281976Y-106864961D01*
X180289487Y-106863972D01*
X180348810Y-106836309D01*
X180390466Y-106816885D01*
X180390468Y-106816884D01*
X180398316Y-106813224D01*
X180470350Y-106741190D01*
X180524867Y-106713413D01*
X180585299Y-106722984D01*
X180610358Y-106741190D01*
X180675853Y-106806685D01*
X180689826Y-106816469D01*
X180751788Y-106845362D01*
X180763096Y-106846750D01*
X180766000Y-106840523D01*
X180766000Y-106836309D01*
X181274000Y-106836309D01*
X181277521Y-106847144D01*
X181284390Y-106847144D01*
X181350174Y-106816469D01*
X181364147Y-106806685D01*
X181436685Y-106734147D01*
X181446469Y-106720174D01*
X181490278Y-106626224D01*
X181491040Y-106623612D01*
X181489708Y-106616431D01*
X181488406Y-106615195D01*
X181483126Y-106614000D01*
X181289680Y-106614000D01*
X181276995Y-106618122D01*
X181274000Y-106622243D01*
X181274000Y-106836309D01*
X180766000Y-106836309D01*
X180766000Y-106090320D01*
X181274000Y-106090320D01*
X181278122Y-106103005D01*
X181282243Y-106106000D01*
X181478506Y-106106000D01*
X181491191Y-106101878D01*
X181492225Y-106100455D01*
X181490278Y-106093776D01*
X181446469Y-105999826D01*
X181436685Y-105985853D01*
X181364147Y-105913315D01*
X181350174Y-105903531D01*
X181288212Y-105874638D01*
X181276904Y-105873250D01*
X181274000Y-105879477D01*
X181274000Y-106090320D01*
X180766000Y-106090320D01*
X180766000Y-105883691D01*
X180762479Y-105872856D01*
X180755610Y-105872856D01*
X180689826Y-105903531D01*
X180675853Y-105913315D01*
X180610358Y-105978810D01*
X180555841Y-106006587D01*
X180495409Y-105997016D01*
X180470350Y-105978810D01*
X180421496Y-105929956D01*
X180393719Y-105875439D01*
X180392500Y-105859952D01*
X180392500Y-105684500D01*
X180411407Y-105626309D01*
X180460907Y-105590345D01*
X180491500Y-105585500D01*
X180502314Y-105585500D01*
X180561585Y-105573710D01*
X180577339Y-105563184D01*
X180620686Y-105534220D01*
X180628799Y-105528799D01*
X180673710Y-105461585D01*
X180675767Y-105462960D01*
X180706409Y-105427086D01*
X180758132Y-105412500D01*
X181230320Y-105412500D01*
X181243005Y-105408378D01*
X181246000Y-105404257D01*
X181246000Y-103603180D01*
X181241878Y-103590495D01*
X181237757Y-103587500D01*
X180758132Y-103587500D01*
X180699941Y-103568593D01*
X180675308Y-103537347D01*
X180673710Y-103538415D01*
X180634220Y-103479314D01*
X180628799Y-103471201D01*
X180620686Y-103465780D01*
X180569694Y-103431708D01*
X180569693Y-103431708D01*
X180561585Y-103426290D01*
X180502314Y-103414500D01*
X180491500Y-103414500D01*
X180433309Y-103395593D01*
X180397345Y-103346093D01*
X180392500Y-103315500D01*
X180392500Y-102692340D01*
X180411407Y-102634149D01*
X180460907Y-102598185D01*
X180522093Y-102598185D01*
X180561504Y-102622336D01*
X180615853Y-102676685D01*
X180629826Y-102686469D01*
X180691788Y-102715362D01*
X180703096Y-102716750D01*
X180706000Y-102710523D01*
X180706000Y-102706309D01*
X181214000Y-102706309D01*
X181217521Y-102717144D01*
X181224390Y-102717144D01*
X181290174Y-102686469D01*
X181304147Y-102676685D01*
X181376685Y-102604147D01*
X181386465Y-102590179D01*
X181389456Y-102583764D01*
X181431183Y-102539015D01*
X181491244Y-102527339D01*
X181546698Y-102553195D01*
X181560279Y-102568818D01*
X181572474Y-102586235D01*
X181643765Y-102657526D01*
X181657738Y-102667309D01*
X181711788Y-102692514D01*
X181723096Y-102693902D01*
X181726000Y-102687675D01*
X181726000Y-102469680D01*
X181721878Y-102456995D01*
X181717757Y-102454000D01*
X181529596Y-102454000D01*
X181502436Y-102462825D01*
X181476352Y-102481775D01*
X181434186Y-102483708D01*
X181434186Y-102484000D01*
X181427820Y-102484000D01*
X181423916Y-102484179D01*
X181423125Y-102484000D01*
X181229680Y-102484000D01*
X181216995Y-102488122D01*
X181214000Y-102492243D01*
X181214000Y-102706309D01*
X180706000Y-102706309D01*
X180706000Y-102075000D01*
X180724907Y-102016809D01*
X180774407Y-101980845D01*
X180805000Y-101976000D01*
X181418506Y-101976000D01*
X181445666Y-101967175D01*
X181471750Y-101948225D01*
X181513916Y-101946292D01*
X181513916Y-101946000D01*
X181520282Y-101946000D01*
X181524186Y-101945821D01*
X181524977Y-101946000D01*
X182135000Y-101946000D01*
X182193191Y-101964907D01*
X182229155Y-102014407D01*
X182234000Y-102045000D01*
X182234000Y-102683461D01*
X182237521Y-102694296D01*
X182244390Y-102694296D01*
X182302262Y-102667309D01*
X182316235Y-102657526D01*
X182387526Y-102586235D01*
X182397308Y-102572265D01*
X182399999Y-102566493D01*
X182441727Y-102521745D01*
X182501788Y-102510070D01*
X182557241Y-102535928D01*
X182579447Y-102566491D01*
X182585935Y-102580404D01*
X182669596Y-102664065D01*
X182677444Y-102667725D01*
X182677446Y-102667726D01*
X182769225Y-102710523D01*
X182776827Y-102714068D01*
X182825684Y-102720500D01*
X182972430Y-102720500D01*
X183030621Y-102739407D01*
X183066585Y-102788907D01*
X183070594Y-102806662D01*
X183071459Y-102813274D01*
X183081095Y-102886960D01*
X183130759Y-102999832D01*
X183135296Y-103005230D01*
X183135297Y-103005231D01*
X183156616Y-103030593D01*
X183210107Y-103094228D01*
X183215978Y-103098136D01*
X183215979Y-103098137D01*
X183234863Y-103110707D01*
X183312759Y-103162559D01*
X183319487Y-103164661D01*
X183399575Y-103189682D01*
X183449479Y-103225082D01*
X183469046Y-103283055D01*
X183450800Y-103341456D01*
X183422879Y-103367905D01*
X183373236Y-103399227D01*
X183320409Y-103414500D01*
X182497686Y-103414500D01*
X182438415Y-103426290D01*
X182430307Y-103431708D01*
X182430306Y-103431708D01*
X182379314Y-103465780D01*
X182371201Y-103471201D01*
X182326290Y-103538415D01*
X182324233Y-103537040D01*
X182293591Y-103572914D01*
X182241868Y-103587500D01*
X181769680Y-103587500D01*
X181756995Y-103591622D01*
X181754000Y-103595743D01*
X181754000Y-105396820D01*
X181758122Y-105409505D01*
X181762243Y-105412500D01*
X182241868Y-105412500D01*
X182300059Y-105431407D01*
X182324692Y-105462653D01*
X182326290Y-105461585D01*
X182371201Y-105528799D01*
X182379314Y-105534220D01*
X182422662Y-105563184D01*
X182438415Y-105573710D01*
X182497686Y-105585500D01*
X182560500Y-105585500D01*
X182618691Y-105604407D01*
X182654655Y-105653907D01*
X182659500Y-105684500D01*
X182659500Y-105807114D01*
X182640593Y-105865305D01*
X182634704Y-105872648D01*
X182566414Y-105949972D01*
X182556485Y-105961215D01*
X182504077Y-106072840D01*
X182485105Y-106194686D01*
X182486020Y-106201683D01*
X182486020Y-106201684D01*
X182497151Y-106286798D01*
X182501095Y-106316960D01*
X182550759Y-106429832D01*
X182555296Y-106435230D01*
X182555297Y-106435231D01*
X182563719Y-106445250D01*
X182630107Y-106524228D01*
X182635978Y-106528136D01*
X182635979Y-106528137D01*
X182663883Y-106546711D01*
X182732759Y-106592559D01*
X182739486Y-106594661D01*
X182739489Y-106594662D01*
X182843731Y-106627229D01*
X182843732Y-106627229D01*
X182850463Y-106629332D01*
X182913832Y-106630494D01*
X182966705Y-106631463D01*
X182966707Y-106631463D01*
X182973758Y-106631592D01*
X183092730Y-106599156D01*
X183197817Y-106534633D01*
X183280571Y-106443208D01*
X183334338Y-106332232D01*
X183338476Y-106307639D01*
X183354163Y-106214397D01*
X183354163Y-106214391D01*
X183354797Y-106210626D01*
X183354927Y-106200000D01*
X183337445Y-106077930D01*
X183301478Y-105998826D01*
X183289326Y-105972098D01*
X183289325Y-105972097D01*
X183286405Y-105965674D01*
X183234500Y-105905435D01*
X183210840Y-105849012D01*
X183210500Y-105840814D01*
X183210500Y-105684500D01*
X183229407Y-105626309D01*
X183278907Y-105590345D01*
X183309500Y-105585500D01*
X183372314Y-105585500D01*
X183431585Y-105573710D01*
X183447339Y-105563184D01*
X183490686Y-105534220D01*
X183498799Y-105528799D01*
X183518310Y-105499599D01*
X183538292Y-105469694D01*
X183538292Y-105469693D01*
X183543710Y-105461585D01*
X183555500Y-105402314D01*
X183555500Y-105097686D01*
X183543710Y-105038415D01*
X183540922Y-105034242D01*
X183536355Y-104976224D01*
X183541156Y-104961447D01*
X183545142Y-104951825D01*
X183554052Y-104907028D01*
X183554753Y-104899919D01*
X183550878Y-104887995D01*
X183546757Y-104885000D01*
X182374000Y-104885000D01*
X182315809Y-104866093D01*
X182279845Y-104816593D01*
X182275000Y-104786000D01*
X182275000Y-104714000D01*
X182293907Y-104655809D01*
X182343407Y-104619845D01*
X182374000Y-104615000D01*
X183539320Y-104615000D01*
X183552005Y-104610878D01*
X183555000Y-104606757D01*
X183555000Y-104602594D01*
X183554052Y-104592972D01*
X183545142Y-104548175D01*
X183541156Y-104538553D01*
X183536355Y-104477556D01*
X183539494Y-104467895D01*
X183543710Y-104461585D01*
X183547249Y-104443797D01*
X183549821Y-104430864D01*
X183555500Y-104402314D01*
X183555500Y-104278636D01*
X183574407Y-104220445D01*
X183623907Y-104184481D01*
X183656314Y-104179653D01*
X183680258Y-104180092D01*
X183680259Y-104180092D01*
X183680225Y-104181931D01*
X183731341Y-104191772D01*
X183773149Y-104236445D01*
X183782500Y-104278445D01*
X183782500Y-106141383D01*
X183782123Y-106150011D01*
X183778713Y-106188984D01*
X183785523Y-106214397D01*
X183788840Y-106226778D01*
X183790709Y-106235210D01*
X183797503Y-106273739D01*
X183801832Y-106281237D01*
X183803856Y-106286798D01*
X183806364Y-106292177D01*
X183808606Y-106300543D01*
X183813572Y-106307636D01*
X183813574Y-106307639D01*
X183831044Y-106332587D01*
X183835686Y-106339874D01*
X183850920Y-106366261D01*
X183850922Y-106366263D01*
X183855250Y-106373760D01*
X183861882Y-106379325D01*
X183885224Y-106398911D01*
X183891592Y-106404746D01*
X184405265Y-106918420D01*
X184411088Y-106924775D01*
X184436240Y-106954750D01*
X184443739Y-106959080D01*
X184443742Y-106959082D01*
X184470131Y-106974318D01*
X184477415Y-106978958D01*
X184509457Y-107001394D01*
X184517822Y-107003636D01*
X184523194Y-107006141D01*
X184528760Y-107008167D01*
X184536261Y-107012497D01*
X184544791Y-107014001D01*
X184574799Y-107019292D01*
X184583233Y-107021162D01*
X184606886Y-107027500D01*
X184621015Y-107031286D01*
X184659980Y-107027877D01*
X184668608Y-107027500D01*
X194823338Y-107027500D01*
X194881529Y-107046407D01*
X194893342Y-107056496D01*
X195943504Y-108106659D01*
X195971281Y-108161176D01*
X195972500Y-108176663D01*
X195972500Y-113744671D01*
X195953593Y-113802862D01*
X195904093Y-113838826D01*
X195842907Y-113838826D01*
X195805729Y-113816838D01*
X195789640Y-113801729D01*
X195779636Y-113794461D01*
X195646640Y-113721345D01*
X195635152Y-113716797D01*
X195488142Y-113679051D01*
X195475890Y-113677503D01*
X195269680Y-113677503D01*
X195256995Y-113681625D01*
X195254000Y-113685746D01*
X195254000Y-114961823D01*
X195258122Y-114974508D01*
X195262243Y-114977503D01*
X195437789Y-114977503D01*
X195443977Y-114977113D01*
X195556755Y-114962867D01*
X195568721Y-114959794D01*
X195709842Y-114903920D01*
X195720664Y-114897971D01*
X195815309Y-114829207D01*
X195873500Y-114810300D01*
X195931691Y-114829207D01*
X195967655Y-114878707D01*
X195972500Y-114909300D01*
X195972500Y-117323337D01*
X195953593Y-117381528D01*
X195943504Y-117393340D01*
X195493342Y-117843503D01*
X195438825Y-117871281D01*
X195423338Y-117872500D01*
X193326500Y-117872500D01*
X193268309Y-117853593D01*
X193232345Y-117804093D01*
X193227500Y-117773500D01*
X193227500Y-117418608D01*
X193227877Y-117409980D01*
X193230531Y-117379643D01*
X193231286Y-117371015D01*
X193221162Y-117333233D01*
X193219292Y-117324799D01*
X193214001Y-117294791D01*
X193212497Y-117286261D01*
X193208167Y-117278760D01*
X193206141Y-117273194D01*
X193203636Y-117267822D01*
X193201394Y-117259457D01*
X193178958Y-117227415D01*
X193174318Y-117220131D01*
X193159082Y-117193741D01*
X193159078Y-117193736D01*
X193154750Y-117186240D01*
X193144934Y-117178003D01*
X193124782Y-117161094D01*
X193118414Y-117155259D01*
X192183770Y-116220616D01*
X192177935Y-116214248D01*
X192158349Y-116190906D01*
X192152784Y-116184274D01*
X192145287Y-116179946D01*
X192145285Y-116179944D01*
X192118898Y-116164710D01*
X192111611Y-116160068D01*
X192086663Y-116142598D01*
X192086660Y-116142596D01*
X192079567Y-116137630D01*
X192071201Y-116135388D01*
X192065822Y-116132880D01*
X192060261Y-116130856D01*
X192052763Y-116126527D01*
X192044236Y-116125023D01*
X192044235Y-116125023D01*
X192014234Y-116119733D01*
X192005805Y-116117865D01*
X191968008Y-116107737D01*
X191929036Y-116111147D01*
X191920407Y-116111524D01*
X191920334Y-116111524D01*
X191862143Y-116092617D01*
X191826179Y-116043117D01*
X191827187Y-115978989D01*
X191861248Y-115884383D01*
X191861249Y-115884380D01*
X191863533Y-115878035D01*
X191869264Y-115800000D01*
X191874086Y-115734345D01*
X191874086Y-115734342D01*
X191874580Y-115727612D01*
X191844767Y-115579760D01*
X191776293Y-115445371D01*
X191674201Y-115334347D01*
X191626633Y-115304853D01*
X191551753Y-115258426D01*
X191551751Y-115258425D01*
X191546014Y-115254868D01*
X191401175Y-115212788D01*
X191396005Y-115212408D01*
X191396003Y-115212408D01*
X191392286Y-115212135D01*
X191392279Y-115212135D01*
X191390485Y-115212003D01*
X191282215Y-115212003D01*
X191278872Y-115212461D01*
X191278871Y-115212461D01*
X191177251Y-115226381D01*
X191177247Y-115226382D01*
X191170568Y-115227297D01*
X191164381Y-115229974D01*
X191164375Y-115229976D01*
X191158317Y-115232598D01*
X191097403Y-115238356D01*
X191044739Y-115207210D01*
X191020439Y-115151056D01*
X191020000Y-115141740D01*
X191020000Y-115137663D01*
X191019052Y-115128039D01*
X191012643Y-115095816D01*
X191019835Y-115035055D01*
X191061368Y-114990125D01*
X191109741Y-114977503D01*
X191417789Y-114977503D01*
X191423977Y-114977113D01*
X191536755Y-114962867D01*
X191548721Y-114959794D01*
X191689842Y-114903920D01*
X191700664Y-114897971D01*
X191823456Y-114808757D01*
X191832461Y-114800301D01*
X191929205Y-114683356D01*
X191935827Y-114672923D01*
X191971828Y-114596416D01*
X194003925Y-114596416D01*
X194005263Y-114600535D01*
X194010524Y-114611716D01*
X194091851Y-114739866D01*
X194099725Y-114749385D01*
X194210360Y-114853277D01*
X194220364Y-114860545D01*
X194353360Y-114933661D01*
X194364848Y-114938209D01*
X194511858Y-114975955D01*
X194524110Y-114977503D01*
X194730320Y-114977503D01*
X194743005Y-114973381D01*
X194746000Y-114969260D01*
X194746000Y-114597183D01*
X194741878Y-114584498D01*
X194737757Y-114581503D01*
X194014759Y-114581503D01*
X194003925Y-114585023D01*
X194003925Y-114596416D01*
X191971828Y-114596416D01*
X191972170Y-114595689D01*
X191973598Y-114584389D01*
X191967465Y-114581503D01*
X189694759Y-114581503D01*
X189683925Y-114585023D01*
X189683925Y-114596416D01*
X189685263Y-114600535D01*
X189690524Y-114611716D01*
X189771851Y-114739866D01*
X189779725Y-114749385D01*
X189813749Y-114781335D01*
X189843225Y-114834952D01*
X189835557Y-114895655D01*
X189793673Y-114940257D01*
X189745979Y-114952503D01*
X189665160Y-114952503D01*
X189655538Y-114953451D01*
X189611526Y-114962205D01*
X189593858Y-114969524D01*
X189543918Y-115002892D01*
X189530389Y-115016421D01*
X189497021Y-115066361D01*
X189489702Y-115084029D01*
X189480948Y-115128041D01*
X189480000Y-115137663D01*
X189480000Y-115182823D01*
X189484122Y-115195508D01*
X189488243Y-115198503D01*
X190405000Y-115198503D01*
X190463191Y-115217410D01*
X190499155Y-115266910D01*
X190504000Y-115297503D01*
X190504000Y-115607503D01*
X190485093Y-115665694D01*
X190435593Y-115701658D01*
X190405000Y-115706503D01*
X189495680Y-115706503D01*
X189482995Y-115710625D01*
X189480000Y-115714746D01*
X189480000Y-115767343D01*
X189480948Y-115776965D01*
X189491604Y-115830539D01*
X189488151Y-115831226D01*
X189491499Y-115873724D01*
X189491133Y-115874272D01*
X189479500Y-115932755D01*
X189479500Y-116572251D01*
X189480448Y-116577015D01*
X189491133Y-116630734D01*
X189487836Y-116631390D01*
X189491203Y-116674167D01*
X189491133Y-116674272D01*
X189479500Y-116732755D01*
X189479500Y-117072251D01*
X189480448Y-117077015D01*
X189491133Y-117130734D01*
X189487836Y-117131390D01*
X189491203Y-117174167D01*
X189491133Y-117174272D01*
X189479500Y-117232755D01*
X189479500Y-117511787D01*
X189460593Y-117569978D01*
X189413417Y-117604254D01*
X189412792Y-117604277D01*
X189405071Y-117607594D01*
X189405068Y-117607595D01*
X189402217Y-117608820D01*
X189381266Y-117615186D01*
X189369947Y-117617294D01*
X189347272Y-117631271D01*
X189334405Y-117637954D01*
X189330096Y-117639806D01*
X189316358Y-117645708D01*
X189316357Y-117645709D01*
X189309937Y-117648467D01*
X189305051Y-117652481D01*
X189300687Y-117656845D01*
X189282632Y-117671116D01*
X189274652Y-117676035D01*
X189256982Y-117699272D01*
X189248190Y-117709342D01*
X188637877Y-118319655D01*
X188583360Y-118347432D01*
X188522928Y-118337861D01*
X188477752Y-118290629D01*
X188469327Y-118272099D01*
X188469325Y-118272095D01*
X188466405Y-118265674D01*
X188385910Y-118172255D01*
X188282431Y-118105183D01*
X188275673Y-118103162D01*
X188275671Y-118103161D01*
X188171047Y-118071872D01*
X188164286Y-118069850D01*
X188089287Y-118069392D01*
X188048025Y-118069140D01*
X188040974Y-118069097D01*
X188034197Y-118071034D01*
X188034196Y-118071034D01*
X188001705Y-118080320D01*
X187940559Y-118078131D01*
X187892377Y-118040419D01*
X187875500Y-117985131D01*
X187875500Y-117925326D01*
X187860966Y-117852260D01*
X187855548Y-117844152D01*
X187852953Y-117837886D01*
X187848152Y-117776890D01*
X187852953Y-117762114D01*
X187855548Y-117755848D01*
X187860966Y-117747740D01*
X187875500Y-117674674D01*
X187875500Y-117525326D01*
X187860966Y-117452260D01*
X187859048Y-117449390D01*
X188098582Y-117449390D01*
X188134792Y-117527043D01*
X188144576Y-117541016D01*
X188218984Y-117615424D01*
X188232957Y-117625208D01*
X188329306Y-117670136D01*
X188334888Y-117671763D01*
X188343570Y-117670154D01*
X188344804Y-117668854D01*
X188346000Y-117663569D01*
X188346000Y-117658952D01*
X188854000Y-117658952D01*
X188858122Y-117671637D01*
X188859574Y-117672693D01*
X188861361Y-117672857D01*
X188870694Y-117670136D01*
X188967043Y-117625208D01*
X188981016Y-117615424D01*
X189055424Y-117541016D01*
X189065208Y-117527043D01*
X189099636Y-117453212D01*
X189101024Y-117441904D01*
X189094797Y-117439000D01*
X188869680Y-117439000D01*
X188856995Y-117443122D01*
X188854000Y-117447243D01*
X188854000Y-117658952D01*
X188346000Y-117658952D01*
X188346000Y-117454680D01*
X188341878Y-117441995D01*
X188337757Y-117439000D01*
X188109417Y-117439000D01*
X188098582Y-117442521D01*
X188098582Y-117449390D01*
X187859048Y-117449390D01*
X187855548Y-117444152D01*
X187852953Y-117437886D01*
X187848152Y-117376890D01*
X187852953Y-117362114D01*
X187855548Y-117355848D01*
X187860966Y-117347740D01*
X187875500Y-117274674D01*
X187875500Y-117125326D01*
X187860966Y-117052260D01*
X187855548Y-117044152D01*
X187852953Y-117037886D01*
X187848152Y-116976890D01*
X187852953Y-116962114D01*
X187855548Y-116955848D01*
X187860966Y-116947740D01*
X187875500Y-116874674D01*
X187875500Y-116725326D01*
X187860966Y-116652260D01*
X187855548Y-116644152D01*
X187852953Y-116637886D01*
X187848152Y-116576890D01*
X187852953Y-116562114D01*
X187855548Y-116555848D01*
X187860966Y-116547740D01*
X187875500Y-116474674D01*
X187875500Y-116325326D01*
X187860966Y-116252260D01*
X187855548Y-116244152D01*
X187852953Y-116237886D01*
X187848152Y-116176890D01*
X187852953Y-116162114D01*
X187855548Y-116155848D01*
X187860966Y-116147740D01*
X187875500Y-116074674D01*
X187875500Y-115925326D01*
X187874553Y-115920565D01*
X187874552Y-115920555D01*
X187868193Y-115888590D01*
X187875383Y-115827829D01*
X187893221Y-115802234D01*
X187898624Y-115798624D01*
X187908574Y-115783733D01*
X187920885Y-115768731D01*
X188133721Y-115555895D01*
X188188238Y-115528118D01*
X188245565Y-115536175D01*
X188267340Y-115546329D01*
X188312088Y-115588057D01*
X188324500Y-115636053D01*
X188324500Y-115668680D01*
X188305593Y-115726871D01*
X188269132Y-115757546D01*
X188222120Y-115780628D01*
X188216339Y-115786419D01*
X188146050Y-115856830D01*
X188146048Y-115856833D01*
X188140270Y-115862621D01*
X188089392Y-115966706D01*
X188079500Y-116034514D01*
X188079500Y-116395486D01*
X188080028Y-116399069D01*
X188080028Y-116399076D01*
X188088448Y-116456271D01*
X188089569Y-116463884D01*
X188092960Y-116470790D01*
X188092960Y-116470791D01*
X188097205Y-116479437D01*
X188140628Y-116567880D01*
X188146419Y-116573661D01*
X188203143Y-116630286D01*
X188230969Y-116684779D01*
X188221450Y-116745219D01*
X188203205Y-116770355D01*
X188144576Y-116828984D01*
X188134792Y-116842957D01*
X188100364Y-116916788D01*
X188098976Y-116928096D01*
X188105203Y-116931000D01*
X189090583Y-116931000D01*
X189101418Y-116927479D01*
X189101418Y-116920610D01*
X189065208Y-116842957D01*
X189055424Y-116828984D01*
X188996833Y-116770393D01*
X188969056Y-116715876D01*
X188978627Y-116655444D01*
X188996772Y-116630447D01*
X189053950Y-116573170D01*
X189053952Y-116573167D01*
X189059730Y-116567379D01*
X189110608Y-116463294D01*
X189120500Y-116395486D01*
X189120500Y-116034514D01*
X189118356Y-116019945D01*
X189111552Y-115973729D01*
X189111551Y-115973727D01*
X189110431Y-115966116D01*
X189101137Y-115947185D01*
X189070302Y-115884383D01*
X189059372Y-115862120D01*
X188977379Y-115780270D01*
X188970032Y-115776679D01*
X188970027Y-115776675D01*
X188931023Y-115757609D01*
X188887047Y-115715068D01*
X188875500Y-115668667D01*
X188875500Y-115636053D01*
X188894407Y-115577862D01*
X188932660Y-115546329D01*
X188972554Y-115527726D01*
X188972556Y-115527725D01*
X188980404Y-115524065D01*
X189064065Y-115440404D01*
X189114068Y-115333173D01*
X189120500Y-115284316D01*
X189120500Y-114935684D01*
X189114068Y-114886827D01*
X189108596Y-114875093D01*
X189067726Y-114787446D01*
X189067725Y-114787444D01*
X189064065Y-114779596D01*
X188980404Y-114695935D01*
X188967081Y-114689723D01*
X188922336Y-114647995D01*
X188910662Y-114587933D01*
X188936521Y-114532481D01*
X188967080Y-114510278D01*
X188980404Y-114504065D01*
X189064065Y-114420404D01*
X189082995Y-114379810D01*
X189110865Y-114320042D01*
X189110865Y-114320041D01*
X189114068Y-114313173D01*
X189120500Y-114264316D01*
X189120500Y-114070617D01*
X189686402Y-114070617D01*
X189692535Y-114073503D01*
X190560320Y-114073503D01*
X190573005Y-114069381D01*
X190576000Y-114065260D01*
X190576000Y-114057823D01*
X191084000Y-114057823D01*
X191088122Y-114070508D01*
X191092243Y-114073503D01*
X191965241Y-114073503D01*
X191974124Y-114070617D01*
X194006402Y-114070617D01*
X194012535Y-114073503D01*
X194730320Y-114073503D01*
X194743005Y-114069381D01*
X194746000Y-114065260D01*
X194746000Y-113693183D01*
X194741878Y-113680498D01*
X194737757Y-113677503D01*
X194562211Y-113677503D01*
X194556023Y-113677893D01*
X194443245Y-113692139D01*
X194431279Y-113695212D01*
X194290158Y-113751086D01*
X194279336Y-113757035D01*
X194156544Y-113846249D01*
X194147539Y-113854705D01*
X194050795Y-113971650D01*
X194044173Y-113982083D01*
X194007830Y-114059317D01*
X194006402Y-114070617D01*
X191974124Y-114070617D01*
X191976075Y-114069983D01*
X191976075Y-114058590D01*
X191974737Y-114054471D01*
X191969476Y-114043290D01*
X191888149Y-113915140D01*
X191880275Y-113905621D01*
X191769640Y-113801729D01*
X191759636Y-113794461D01*
X191626640Y-113721345D01*
X191615152Y-113716797D01*
X191468142Y-113679051D01*
X191455890Y-113677503D01*
X191099680Y-113677503D01*
X191086995Y-113681625D01*
X191084000Y-113685746D01*
X191084000Y-114057823D01*
X190576000Y-114057823D01*
X190576000Y-113693183D01*
X190571878Y-113680498D01*
X190567757Y-113677503D01*
X190242211Y-113677503D01*
X190236023Y-113677893D01*
X190123245Y-113692139D01*
X190111279Y-113695212D01*
X189970158Y-113751086D01*
X189959336Y-113757035D01*
X189836544Y-113846249D01*
X189827539Y-113854705D01*
X189730795Y-113971650D01*
X189724173Y-113982083D01*
X189687830Y-114059317D01*
X189686402Y-114070617D01*
X189120500Y-114070617D01*
X189120500Y-113915684D01*
X189117300Y-113891376D01*
X189115057Y-113874339D01*
X189114068Y-113866827D01*
X189100683Y-113838122D01*
X189067726Y-113767446D01*
X189067725Y-113767444D01*
X189064065Y-113759596D01*
X188980404Y-113675935D01*
X188972556Y-113672275D01*
X188972554Y-113672274D01*
X188880042Y-113629135D01*
X188880041Y-113629135D01*
X188873173Y-113625932D01*
X188824316Y-113619500D01*
X188375684Y-113619500D01*
X188372471Y-113619923D01*
X188334338Y-113624943D01*
X188334337Y-113624943D01*
X188326827Y-113625932D01*
X188322960Y-113627735D01*
X188263432Y-113625918D01*
X188215052Y-113588461D01*
X188197929Y-113529721D01*
X188218603Y-113472134D01*
X188226879Y-113462737D01*
X189285120Y-112404496D01*
X189339637Y-112376719D01*
X189355124Y-112375500D01*
X189450500Y-112375500D01*
X189508691Y-112394407D01*
X189544655Y-112443907D01*
X189549500Y-112474500D01*
X189549500Y-112569748D01*
X189550448Y-112574512D01*
X189557918Y-112612067D01*
X189561133Y-112628231D01*
X189605448Y-112694552D01*
X189671769Y-112738867D01*
X189681332Y-112740769D01*
X189681334Y-112740770D01*
X189701978Y-112744876D01*
X189730252Y-112750500D01*
X191469748Y-112750500D01*
X191498022Y-112744876D01*
X191518666Y-112740770D01*
X191518668Y-112740769D01*
X191528231Y-112738867D01*
X191594552Y-112694552D01*
X191638867Y-112628231D01*
X191642083Y-112612067D01*
X191649552Y-112574512D01*
X191650500Y-112569748D01*
X191650500Y-111794686D01*
X192665105Y-111794686D01*
X192666020Y-111801683D01*
X192666020Y-111801684D01*
X192680118Y-111909486D01*
X192681095Y-111916960D01*
X192730759Y-112029832D01*
X192735296Y-112035230D01*
X192735297Y-112035231D01*
X192757139Y-112061215D01*
X192810107Y-112124228D01*
X192815978Y-112128136D01*
X192815979Y-112128137D01*
X192843883Y-112146711D01*
X192912759Y-112192559D01*
X192919486Y-112194661D01*
X192919489Y-112194662D01*
X193023731Y-112227229D01*
X193023732Y-112227229D01*
X193030463Y-112229332D01*
X193093832Y-112230494D01*
X193146705Y-112231463D01*
X193146707Y-112231463D01*
X193153758Y-112231592D01*
X193272730Y-112199156D01*
X193377817Y-112134633D01*
X193382551Y-112129403D01*
X193387263Y-112125491D01*
X193444113Y-112102869D01*
X193503402Y-112117983D01*
X193542485Y-112165060D01*
X193549500Y-112201663D01*
X193549500Y-112569748D01*
X193550448Y-112574512D01*
X193557918Y-112612067D01*
X193561133Y-112628231D01*
X193605448Y-112694552D01*
X193671769Y-112738867D01*
X193681332Y-112740769D01*
X193681334Y-112740770D01*
X193701978Y-112744876D01*
X193730252Y-112750500D01*
X195469748Y-112750500D01*
X195498022Y-112744876D01*
X195518666Y-112740770D01*
X195518668Y-112740769D01*
X195528231Y-112738867D01*
X195594552Y-112694552D01*
X195638867Y-112628231D01*
X195642083Y-112612067D01*
X195649552Y-112574512D01*
X195650500Y-112569748D01*
X195650500Y-111630252D01*
X195645279Y-111604005D01*
X195640770Y-111581334D01*
X195640769Y-111581332D01*
X195638867Y-111571769D01*
X195594552Y-111505448D01*
X195528231Y-111461133D01*
X195518668Y-111459231D01*
X195518666Y-111459230D01*
X195495995Y-111454721D01*
X195469748Y-111449500D01*
X194974500Y-111449500D01*
X194916309Y-111430593D01*
X194880345Y-111381093D01*
X194875500Y-111350500D01*
X194875500Y-110701500D01*
X194894407Y-110643309D01*
X194904496Y-110631496D01*
X195046730Y-110489262D01*
X195101247Y-110461485D01*
X195118548Y-110460283D01*
X195163438Y-110461106D01*
X195163440Y-110461106D01*
X195170491Y-110461235D01*
X195289463Y-110428799D01*
X195394550Y-110364276D01*
X195477304Y-110272851D01*
X195531071Y-110161875D01*
X195544930Y-110079500D01*
X195550896Y-110044040D01*
X195550896Y-110044034D01*
X195551530Y-110040269D01*
X195551660Y-110029643D01*
X195534178Y-109907573D01*
X195483138Y-109795317D01*
X195431958Y-109735920D01*
X195407248Y-109707242D01*
X195407247Y-109707241D01*
X195402643Y-109701898D01*
X195299164Y-109634826D01*
X195292406Y-109632805D01*
X195292404Y-109632804D01*
X195187780Y-109601515D01*
X195181019Y-109599493D01*
X195106020Y-109599035D01*
X195064758Y-109598783D01*
X195057707Y-109598740D01*
X195050930Y-109600677D01*
X195050929Y-109600677D01*
X194945923Y-109630688D01*
X194939139Y-109632627D01*
X194834848Y-109698429D01*
X194830177Y-109703718D01*
X194778552Y-109762173D01*
X194753218Y-109790858D01*
X194700810Y-109902483D01*
X194681838Y-110024329D01*
X194682753Y-110031329D01*
X194682718Y-110034235D01*
X194663102Y-110092191D01*
X194653729Y-110103031D01*
X194431269Y-110325491D01*
X194416267Y-110337802D01*
X194401376Y-110347752D01*
X194386007Y-110370753D01*
X194386006Y-110370754D01*
X194376903Y-110384378D01*
X194340485Y-110438881D01*
X194340485Y-110438882D01*
X194319103Y-110546376D01*
X194321005Y-110555937D01*
X194322598Y-110563945D01*
X194324500Y-110583260D01*
X194324500Y-111350500D01*
X194305593Y-111408691D01*
X194256093Y-111444655D01*
X194225500Y-111449500D01*
X193730252Y-111449500D01*
X193704005Y-111454721D01*
X193681334Y-111459230D01*
X193681332Y-111459231D01*
X193671769Y-111461133D01*
X193605448Y-111505448D01*
X193600029Y-111513558D01*
X193594382Y-111522009D01*
X193546331Y-111559887D01*
X193485193Y-111562287D01*
X193437069Y-111531628D01*
X193390515Y-111477599D01*
X193390514Y-111477598D01*
X193385910Y-111472255D01*
X193282431Y-111405183D01*
X193275673Y-111403162D01*
X193275671Y-111403161D01*
X193171047Y-111371872D01*
X193164286Y-111369850D01*
X193089287Y-111369392D01*
X193048025Y-111369140D01*
X193040974Y-111369097D01*
X193034197Y-111371034D01*
X193034196Y-111371034D01*
X192934596Y-111399500D01*
X192922406Y-111402984D01*
X192818115Y-111468786D01*
X192736485Y-111561215D01*
X192684077Y-111672840D01*
X192665105Y-111794686D01*
X191650500Y-111794686D01*
X191650500Y-111630252D01*
X191645279Y-111604005D01*
X191640770Y-111581334D01*
X191640769Y-111581332D01*
X191638867Y-111571769D01*
X191594552Y-111505448D01*
X191528231Y-111461133D01*
X191518668Y-111459231D01*
X191518666Y-111459230D01*
X191495995Y-111454721D01*
X191469748Y-111449500D01*
X189730252Y-111449500D01*
X189704005Y-111454721D01*
X189681334Y-111459230D01*
X189681332Y-111459231D01*
X189671769Y-111461133D01*
X189605448Y-111505448D01*
X189561133Y-111571769D01*
X189559231Y-111581332D01*
X189559230Y-111581334D01*
X189554721Y-111604005D01*
X189549500Y-111630252D01*
X189549500Y-111725500D01*
X189530593Y-111783691D01*
X189481093Y-111819655D01*
X189450500Y-111824500D01*
X189236879Y-111824500D01*
X189217566Y-111822598D01*
X189200000Y-111819104D01*
X189190437Y-111821006D01*
X189172876Y-111824499D01*
X189172868Y-111824500D01*
X189172865Y-111824500D01*
X189172860Y-111824501D01*
X189125928Y-111833837D01*
X189092505Y-111840485D01*
X189084397Y-111845903D01*
X189084396Y-111845903D01*
X189048557Y-111869850D01*
X189024378Y-111886006D01*
X189024377Y-111886007D01*
X189001376Y-111901376D01*
X188995957Y-111909486D01*
X188991426Y-111916267D01*
X188979115Y-111931269D01*
X187469925Y-113440459D01*
X187415408Y-113468236D01*
X187399317Y-113469453D01*
X187348026Y-113469140D01*
X187348025Y-113469140D01*
X187340974Y-113469097D01*
X187334197Y-113471034D01*
X187334196Y-113471034D01*
X187229190Y-113501045D01*
X187222406Y-113502984D01*
X187118115Y-113568786D01*
X187113444Y-113574075D01*
X187047721Y-113648493D01*
X187036485Y-113661215D01*
X186984077Y-113772840D01*
X186965105Y-113894686D01*
X186966020Y-113901683D01*
X186966020Y-113901684D01*
X186975170Y-113971650D01*
X186981095Y-114016960D01*
X187030759Y-114129832D01*
X187035296Y-114135230D01*
X187035297Y-114135231D01*
X187067949Y-114174075D01*
X187110107Y-114224228D01*
X187212759Y-114292559D01*
X187219486Y-114294661D01*
X187219489Y-114294662D01*
X187323731Y-114327229D01*
X187323732Y-114327229D01*
X187330463Y-114329332D01*
X187393832Y-114330494D01*
X187446705Y-114331463D01*
X187446707Y-114331463D01*
X187453758Y-114331592D01*
X187572730Y-114299156D01*
X187578739Y-114295466D01*
X187585213Y-114292665D01*
X187586436Y-114295491D01*
X187633179Y-114284225D01*
X187689728Y-114307589D01*
X187721744Y-114359730D01*
X187724500Y-114382927D01*
X187724500Y-114800500D01*
X187705593Y-114858691D01*
X187656093Y-114894655D01*
X187625500Y-114899500D01*
X186826201Y-114899500D01*
X186768010Y-114880593D01*
X186756197Y-114870504D01*
X186729496Y-114843803D01*
X186701719Y-114789286D01*
X186700500Y-114773799D01*
X186700500Y-113950326D01*
X186685966Y-113877260D01*
X186657984Y-113835381D01*
X186636020Y-113802509D01*
X186630601Y-113794399D01*
X186547740Y-113739034D01*
X186474674Y-113724500D01*
X186325326Y-113724500D01*
X186252260Y-113739034D01*
X186244153Y-113744451D01*
X186237886Y-113747047D01*
X186176890Y-113751848D01*
X186162114Y-113747047D01*
X186155847Y-113744451D01*
X186147740Y-113739034D01*
X186074674Y-113724500D01*
X185994500Y-113724500D01*
X185936309Y-113705593D01*
X185900345Y-113656093D01*
X185895500Y-113625500D01*
X185895500Y-113445585D01*
X185914407Y-113387394D01*
X185944113Y-113362908D01*
X185943373Y-113361851D01*
X185950466Y-113356884D01*
X185958316Y-113353224D01*
X186030350Y-113281190D01*
X186084867Y-113253413D01*
X186145299Y-113262984D01*
X186170358Y-113281190D01*
X186235853Y-113346685D01*
X186249826Y-113356469D01*
X186311788Y-113385362D01*
X186323096Y-113386750D01*
X186326000Y-113380523D01*
X186326000Y-113376309D01*
X186834000Y-113376309D01*
X186837521Y-113387144D01*
X186844390Y-113387144D01*
X186910174Y-113356469D01*
X186924147Y-113346685D01*
X186996685Y-113274147D01*
X187006469Y-113260174D01*
X187050278Y-113166224D01*
X187051040Y-113163612D01*
X187049708Y-113156431D01*
X187048406Y-113155195D01*
X187043126Y-113154000D01*
X186849680Y-113154000D01*
X186836995Y-113158122D01*
X186834000Y-113162243D01*
X186834000Y-113376309D01*
X186326000Y-113376309D01*
X186326000Y-112630320D01*
X186834000Y-112630320D01*
X186838122Y-112643005D01*
X186842243Y-112646000D01*
X187038506Y-112646000D01*
X187051191Y-112641878D01*
X187052225Y-112640455D01*
X187050278Y-112633776D01*
X187006469Y-112539826D01*
X186996685Y-112525853D01*
X186924147Y-112453315D01*
X186910174Y-112443531D01*
X186848212Y-112414638D01*
X186836904Y-112413250D01*
X186834000Y-112419477D01*
X186834000Y-112630320D01*
X186326000Y-112630320D01*
X186326000Y-112423691D01*
X186322479Y-112412856D01*
X186315610Y-112412856D01*
X186249826Y-112443531D01*
X186235853Y-112453315D01*
X186184289Y-112504879D01*
X186129772Y-112532656D01*
X186069340Y-112523085D01*
X186026075Y-112479820D01*
X186016657Y-112418450D01*
X186034163Y-112314397D01*
X186034163Y-112314391D01*
X186034797Y-112310626D01*
X186034927Y-112300000D01*
X186017445Y-112177930D01*
X185966405Y-112065674D01*
X185885910Y-111972255D01*
X185782431Y-111905183D01*
X185775673Y-111903162D01*
X185775671Y-111903161D01*
X185671047Y-111871872D01*
X185664286Y-111869850D01*
X185589287Y-111869392D01*
X185548025Y-111869140D01*
X185540974Y-111869097D01*
X185534197Y-111871034D01*
X185534196Y-111871034D01*
X185429190Y-111901045D01*
X185422406Y-111902984D01*
X185318115Y-111968786D01*
X185236485Y-112061215D01*
X185184077Y-112172840D01*
X185165105Y-112294686D01*
X185166020Y-112301683D01*
X185166020Y-112301684D01*
X185173315Y-112357467D01*
X185162113Y-112417618D01*
X185117694Y-112459697D01*
X185074546Y-112469302D01*
X185048025Y-112469140D01*
X185040974Y-112469097D01*
X185034197Y-112471034D01*
X185034196Y-112471034D01*
X184929190Y-112501045D01*
X184922406Y-112502984D01*
X184818115Y-112568786D01*
X184736485Y-112661215D01*
X184684077Y-112772840D01*
X184665105Y-112894686D01*
X184666020Y-112901683D01*
X184666020Y-112901684D01*
X184678331Y-112995821D01*
X184681095Y-113016960D01*
X184730759Y-113129832D01*
X184735296Y-113135230D01*
X184735297Y-113135231D01*
X184779412Y-113187712D01*
X184810107Y-113224228D01*
X184912759Y-113292559D01*
X184919486Y-113294661D01*
X184919489Y-113294662D01*
X185023731Y-113327229D01*
X185023732Y-113327229D01*
X185030463Y-113329332D01*
X185093832Y-113330494D01*
X185146705Y-113331463D01*
X185146707Y-113331463D01*
X185153758Y-113331592D01*
X185181858Y-113323931D01*
X185242971Y-113326866D01*
X185267880Y-113342964D01*
X185268463Y-113342131D01*
X185275561Y-113347101D01*
X185281684Y-113353224D01*
X185289534Y-113356885D01*
X185296627Y-113361851D01*
X185295495Y-113363467D01*
X185332084Y-113397583D01*
X185344500Y-113445585D01*
X185344500Y-113625500D01*
X185325593Y-113683691D01*
X185276093Y-113719655D01*
X185245500Y-113724500D01*
X185125326Y-113724500D01*
X185052260Y-113739034D01*
X185044153Y-113744451D01*
X185037886Y-113747047D01*
X184976890Y-113751848D01*
X184962114Y-113747047D01*
X184955847Y-113744451D01*
X184947740Y-113739034D01*
X184874674Y-113724500D01*
X184725326Y-113724500D01*
X184652260Y-113739034D01*
X184644153Y-113744451D01*
X184637886Y-113747047D01*
X184576890Y-113751848D01*
X184562114Y-113747047D01*
X184555847Y-113744451D01*
X184547740Y-113739034D01*
X184474674Y-113724500D01*
X184325326Y-113724500D01*
X184324243Y-113724716D01*
X184265643Y-113711859D01*
X184225000Y-113666123D01*
X184218074Y-113610023D01*
X184234163Y-113514397D01*
X184234163Y-113514391D01*
X184234797Y-113510626D01*
X184234845Y-113506750D01*
X184234880Y-113503825D01*
X184234927Y-113500000D01*
X184217445Y-113377930D01*
X184194393Y-113327229D01*
X184169326Y-113272098D01*
X184169325Y-113272097D01*
X184166405Y-113265674D01*
X184085910Y-113172255D01*
X183982431Y-113105183D01*
X183975673Y-113103162D01*
X183975671Y-113103161D01*
X183934382Y-113090813D01*
X183884048Y-113056025D01*
X183863775Y-112998296D01*
X183865649Y-112976655D01*
X183875500Y-112927133D01*
X183875500Y-112927132D01*
X183880897Y-112900000D01*
X183877402Y-112882428D01*
X183875500Y-112863115D01*
X183875500Y-111398429D01*
X183894407Y-111340238D01*
X183943907Y-111304274D01*
X183980302Y-111300327D01*
X183980302Y-111300000D01*
X183983320Y-111300000D01*
X183984196Y-111299905D01*
X183985161Y-111300000D01*
X184430320Y-111300000D01*
X184443005Y-111295878D01*
X184446000Y-111291757D01*
X184446000Y-111284320D01*
X184954000Y-111284320D01*
X184958122Y-111297005D01*
X184962243Y-111300000D01*
X185414840Y-111300000D01*
X185424462Y-111299052D01*
X185468474Y-111290298D01*
X185486142Y-111282979D01*
X185536082Y-111249611D01*
X185549611Y-111236082D01*
X185582979Y-111186142D01*
X185590298Y-111168474D01*
X185599052Y-111124462D01*
X185600000Y-111114840D01*
X185600000Y-110769680D01*
X185595878Y-110756995D01*
X185591757Y-110754000D01*
X184969680Y-110754000D01*
X184956995Y-110758122D01*
X184954000Y-110762243D01*
X184954000Y-111284320D01*
X184446000Y-111284320D01*
X184446000Y-110345000D01*
X184464907Y-110286809D01*
X184514407Y-110250845D01*
X184545000Y-110246000D01*
X185584320Y-110246000D01*
X185597005Y-110241878D01*
X185600000Y-110237757D01*
X185600000Y-110189840D01*
X185618907Y-110131649D01*
X185668407Y-110095685D01*
X185729593Y-110095685D01*
X185769004Y-110119836D01*
X185825853Y-110176685D01*
X185839826Y-110186469D01*
X185933776Y-110230278D01*
X185936388Y-110231040D01*
X185943569Y-110229708D01*
X185944805Y-110228406D01*
X185946000Y-110223126D01*
X185946000Y-110218506D01*
X186454000Y-110218506D01*
X186458122Y-110231191D01*
X186459545Y-110232225D01*
X186466224Y-110230278D01*
X186560174Y-110186469D01*
X186574147Y-110176685D01*
X186646685Y-110104147D01*
X186656469Y-110090174D01*
X186685362Y-110028212D01*
X186686750Y-110016904D01*
X186680523Y-110014000D01*
X186469680Y-110014000D01*
X186456995Y-110018122D01*
X186454000Y-110022243D01*
X186454000Y-110218506D01*
X185946000Y-110218506D01*
X185946000Y-109605000D01*
X185964907Y-109546809D01*
X186014407Y-109510845D01*
X186045000Y-109506000D01*
X186676309Y-109506000D01*
X186687144Y-109502479D01*
X186687144Y-109495610D01*
X186656469Y-109429826D01*
X186646685Y-109415853D01*
X186581190Y-109350358D01*
X186553413Y-109295841D01*
X186562984Y-109235409D01*
X186581190Y-109210350D01*
X186626700Y-109164840D01*
X189550000Y-109164840D01*
X189550948Y-109174462D01*
X189559702Y-109218474D01*
X189567021Y-109236142D01*
X189600389Y-109286082D01*
X189613918Y-109299611D01*
X189663858Y-109332979D01*
X189681526Y-109340298D01*
X189725538Y-109349052D01*
X189735160Y-109350000D01*
X190330320Y-109350000D01*
X190343005Y-109345878D01*
X190346000Y-109341757D01*
X190346000Y-109334320D01*
X190854000Y-109334320D01*
X190858122Y-109347005D01*
X190862243Y-109350000D01*
X191464840Y-109350000D01*
X191474462Y-109349052D01*
X191518474Y-109340298D01*
X191536142Y-109332979D01*
X191586082Y-109299611D01*
X191599611Y-109286082D01*
X191632979Y-109236142D01*
X191640298Y-109218474D01*
X191649052Y-109174462D01*
X191650000Y-109164840D01*
X193550000Y-109164840D01*
X193550948Y-109174462D01*
X193559702Y-109218474D01*
X193567021Y-109236142D01*
X193600389Y-109286082D01*
X193613918Y-109299611D01*
X193663858Y-109332979D01*
X193681526Y-109340298D01*
X193725538Y-109349052D01*
X193735160Y-109350000D01*
X194330320Y-109350000D01*
X194343005Y-109345878D01*
X194346000Y-109341757D01*
X194346000Y-109334320D01*
X194854000Y-109334320D01*
X194858122Y-109347005D01*
X194862243Y-109350000D01*
X195464840Y-109350000D01*
X195474462Y-109349052D01*
X195518474Y-109340298D01*
X195536142Y-109332979D01*
X195586082Y-109299611D01*
X195599611Y-109286082D01*
X195632979Y-109236142D01*
X195640298Y-109218474D01*
X195649052Y-109174462D01*
X195650000Y-109164840D01*
X195650000Y-108969680D01*
X195645878Y-108956995D01*
X195641757Y-108954000D01*
X194869680Y-108954000D01*
X194856995Y-108958122D01*
X194854000Y-108962243D01*
X194854000Y-109334320D01*
X194346000Y-109334320D01*
X194346000Y-108969680D01*
X194341878Y-108956995D01*
X194337757Y-108954000D01*
X193565680Y-108954000D01*
X193552995Y-108958122D01*
X193550000Y-108962243D01*
X193550000Y-109164840D01*
X191650000Y-109164840D01*
X191650000Y-108969680D01*
X191645878Y-108956995D01*
X191641757Y-108954000D01*
X190869680Y-108954000D01*
X190856995Y-108958122D01*
X190854000Y-108962243D01*
X190854000Y-109334320D01*
X190346000Y-109334320D01*
X190346000Y-108969680D01*
X190341878Y-108956995D01*
X190337757Y-108954000D01*
X189565680Y-108954000D01*
X189552995Y-108958122D01*
X189550000Y-108962243D01*
X189550000Y-109164840D01*
X186626700Y-109164840D01*
X186653224Y-109138316D01*
X186657232Y-109129722D01*
X186700769Y-109036356D01*
X186703972Y-109029487D01*
X186710500Y-108979901D01*
X186710499Y-108620100D01*
X186703972Y-108570513D01*
X186653224Y-108461684D01*
X186621860Y-108430320D01*
X189550000Y-108430320D01*
X189554122Y-108443005D01*
X189558243Y-108446000D01*
X190330320Y-108446000D01*
X190343005Y-108441878D01*
X190346000Y-108437757D01*
X190346000Y-108430320D01*
X190854000Y-108430320D01*
X190858122Y-108443005D01*
X190862243Y-108446000D01*
X191634320Y-108446000D01*
X191647005Y-108441878D01*
X191650000Y-108437757D01*
X191650000Y-108430320D01*
X193550000Y-108430320D01*
X193554122Y-108443005D01*
X193558243Y-108446000D01*
X194330320Y-108446000D01*
X194343005Y-108441878D01*
X194346000Y-108437757D01*
X194346000Y-108430320D01*
X194854000Y-108430320D01*
X194858122Y-108443005D01*
X194862243Y-108446000D01*
X195634320Y-108446000D01*
X195647005Y-108441878D01*
X195650000Y-108437757D01*
X195650000Y-108235160D01*
X195649052Y-108225538D01*
X195640298Y-108181526D01*
X195632979Y-108163858D01*
X195599611Y-108113918D01*
X195586082Y-108100389D01*
X195536142Y-108067021D01*
X195518474Y-108059702D01*
X195474462Y-108050948D01*
X195464840Y-108050000D01*
X194869680Y-108050000D01*
X194856995Y-108054122D01*
X194854000Y-108058243D01*
X194854000Y-108430320D01*
X194346000Y-108430320D01*
X194346000Y-108065680D01*
X194341878Y-108052995D01*
X194337757Y-108050000D01*
X193735160Y-108050000D01*
X193725538Y-108050948D01*
X193681526Y-108059702D01*
X193663858Y-108067021D01*
X193613918Y-108100389D01*
X193600389Y-108113918D01*
X193567021Y-108163858D01*
X193559702Y-108181526D01*
X193550948Y-108225538D01*
X193550000Y-108235160D01*
X193550000Y-108430320D01*
X191650000Y-108430320D01*
X191650000Y-108235160D01*
X191649052Y-108225538D01*
X191640298Y-108181526D01*
X191632979Y-108163858D01*
X191599611Y-108113918D01*
X191586082Y-108100389D01*
X191536142Y-108067021D01*
X191518474Y-108059702D01*
X191474462Y-108050948D01*
X191464840Y-108050000D01*
X190869680Y-108050000D01*
X190856995Y-108054122D01*
X190854000Y-108058243D01*
X190854000Y-108430320D01*
X190346000Y-108430320D01*
X190346000Y-108065680D01*
X190341878Y-108052995D01*
X190337757Y-108050000D01*
X189735160Y-108050000D01*
X189725538Y-108050948D01*
X189681526Y-108059702D01*
X189663858Y-108067021D01*
X189613918Y-108100389D01*
X189600389Y-108113918D01*
X189567021Y-108163858D01*
X189559702Y-108181526D01*
X189550948Y-108225538D01*
X189550000Y-108235160D01*
X189550000Y-108430320D01*
X186621860Y-108430320D01*
X186568316Y-108376776D01*
X186560468Y-108373116D01*
X186560466Y-108373115D01*
X186466356Y-108329231D01*
X186459487Y-108326028D01*
X186409901Y-108319500D01*
X186200033Y-108319500D01*
X185990100Y-108319501D01*
X185986890Y-108319924D01*
X185986883Y-108319924D01*
X185948025Y-108325039D01*
X185948024Y-108325039D01*
X185940513Y-108326028D01*
X185891208Y-108349020D01*
X185839534Y-108373115D01*
X185839532Y-108373116D01*
X185831684Y-108376776D01*
X185769504Y-108438956D01*
X185714987Y-108466733D01*
X185654555Y-108457162D01*
X185611290Y-108413897D01*
X185600500Y-108368952D01*
X185600500Y-108180252D01*
X185588867Y-108121769D01*
X185544552Y-108055448D01*
X185478231Y-108011133D01*
X185468668Y-108009231D01*
X185468666Y-108009230D01*
X185442984Y-108004122D01*
X185419748Y-107999500D01*
X183980252Y-107999500D01*
X183957016Y-108004122D01*
X183931334Y-108009230D01*
X183931332Y-108009231D01*
X183921769Y-108011133D01*
X183855448Y-108055448D01*
X183811133Y-108121769D01*
X183799500Y-108180252D01*
X183799500Y-109269876D01*
X183780593Y-109328067D01*
X183770504Y-109339880D01*
X183558594Y-109551790D01*
X183504077Y-109579567D01*
X183443645Y-109569996D01*
X183400380Y-109526731D01*
X183391492Y-109462473D01*
X183399052Y-109424464D01*
X183400000Y-109414840D01*
X183400000Y-109069680D01*
X183395878Y-109056995D01*
X183391757Y-109054000D01*
X181615680Y-109054000D01*
X181602995Y-109058122D01*
X181600000Y-109062243D01*
X181600000Y-109170160D01*
X181581093Y-109228351D01*
X181531593Y-109264315D01*
X181470407Y-109264315D01*
X181430996Y-109240164D01*
X181374147Y-109183315D01*
X181360174Y-109173531D01*
X181266224Y-109129722D01*
X181263612Y-109128960D01*
X181256431Y-109130292D01*
X181255195Y-109131594D01*
X181254000Y-109136874D01*
X181254000Y-109330320D01*
X181258122Y-109343005D01*
X181262243Y-109346000D01*
X181491989Y-109346000D01*
X181491989Y-109347151D01*
X181533951Y-109347151D01*
X181583451Y-109383115D01*
X181600456Y-109421992D01*
X181609702Y-109468474D01*
X181617021Y-109486142D01*
X181650389Y-109536082D01*
X181663919Y-109549612D01*
X181690518Y-109567385D01*
X181728397Y-109615435D01*
X181730799Y-109676573D01*
X181696806Y-109727447D01*
X181690530Y-109732007D01*
X181655448Y-109755448D01*
X181611133Y-109821769D01*
X181607769Y-109819521D01*
X181580396Y-109851595D01*
X181520906Y-109865900D01*
X181486798Y-109856926D01*
X181480523Y-109854000D01*
X180523691Y-109854000D01*
X180512856Y-109857521D01*
X180512856Y-109864390D01*
X180543531Y-109930174D01*
X180553315Y-109944147D01*
X180618810Y-110009642D01*
X180646587Y-110064159D01*
X180637016Y-110124591D01*
X180618810Y-110149650D01*
X180546776Y-110221684D01*
X180543116Y-110229532D01*
X180543115Y-110229534D01*
X180499231Y-110323644D01*
X180496028Y-110330513D01*
X180489500Y-110380099D01*
X180489501Y-110739900D01*
X180489924Y-110743110D01*
X180489924Y-110743117D01*
X180492442Y-110762243D01*
X180496028Y-110789487D01*
X180546776Y-110898316D01*
X180631684Y-110983224D01*
X180639532Y-110986884D01*
X180639534Y-110986885D01*
X180733644Y-111030769D01*
X180740513Y-111033972D01*
X180790099Y-111040500D01*
X180999967Y-111040500D01*
X181209900Y-111040499D01*
X181213110Y-111040076D01*
X181213117Y-111040076D01*
X181251975Y-111034961D01*
X181251976Y-111034961D01*
X181259487Y-111033972D01*
X181308792Y-111010980D01*
X181360466Y-110986885D01*
X181360468Y-110986884D01*
X181368316Y-110983224D01*
X181430496Y-110921044D01*
X181485013Y-110893267D01*
X181545445Y-110902838D01*
X181588710Y-110946103D01*
X181599500Y-110991048D01*
X181599500Y-111119748D01*
X181611133Y-111178231D01*
X181655448Y-111244552D01*
X181721769Y-111288867D01*
X181731332Y-111290769D01*
X181731334Y-111290770D01*
X181754005Y-111295279D01*
X181780252Y-111300500D01*
X182125500Y-111300500D01*
X182183691Y-111319407D01*
X182219655Y-111368907D01*
X182224500Y-111399500D01*
X182224500Y-111526253D01*
X182205593Y-111584444D01*
X182156093Y-111620408D01*
X182138428Y-111624405D01*
X182126827Y-111625932D01*
X182119959Y-111629135D01*
X182119958Y-111629135D01*
X182027446Y-111672274D01*
X182027444Y-111672275D01*
X182019596Y-111675935D01*
X181935935Y-111759596D01*
X181932275Y-111767444D01*
X181932274Y-111767446D01*
X181895689Y-111845903D01*
X181885932Y-111866827D01*
X181879500Y-111915684D01*
X181879500Y-112264316D01*
X181885932Y-112313173D01*
X181889135Y-112320041D01*
X181889135Y-112320042D01*
X181928517Y-112404496D01*
X181935935Y-112420404D01*
X182019596Y-112504065D01*
X182032919Y-112510277D01*
X182077664Y-112552005D01*
X182089338Y-112612067D01*
X182063479Y-112667519D01*
X182032920Y-112689722D01*
X182019596Y-112695935D01*
X181935935Y-112779596D01*
X181932275Y-112787444D01*
X181932274Y-112787446D01*
X181893296Y-112871034D01*
X181885932Y-112886827D01*
X181879500Y-112935684D01*
X181879500Y-112937498D01*
X181856941Y-112994047D01*
X181805195Y-113026697D01*
X181744141Y-113022697D01*
X181705826Y-112995368D01*
X181690516Y-112977600D01*
X181690514Y-112977598D01*
X181685910Y-112972255D01*
X181582431Y-112905183D01*
X181575673Y-112903162D01*
X181575671Y-112903161D01*
X181471047Y-112871872D01*
X181464286Y-112869850D01*
X181389287Y-112869392D01*
X181348025Y-112869140D01*
X181340974Y-112869097D01*
X181334197Y-112871034D01*
X181334196Y-112871034D01*
X181229190Y-112901045D01*
X181222406Y-112902984D01*
X181118115Y-112968786D01*
X181113444Y-112974075D01*
X181053992Y-113041392D01*
X181001300Y-113072492D01*
X180940391Y-113066682D01*
X180894531Y-113026179D01*
X180889666Y-113016834D01*
X180869326Y-112972098D01*
X180869325Y-112972097D01*
X180866405Y-112965674D01*
X180794676Y-112882428D01*
X180790515Y-112877599D01*
X180790514Y-112877598D01*
X180785910Y-112872255D01*
X180682431Y-112805183D01*
X180675673Y-112803162D01*
X180675671Y-112803161D01*
X180571047Y-112771872D01*
X180564286Y-112769850D01*
X180489287Y-112769392D01*
X180448025Y-112769140D01*
X180440974Y-112769097D01*
X180434197Y-112771034D01*
X180434196Y-112771034D01*
X180376772Y-112787446D01*
X180322406Y-112802984D01*
X180218115Y-112868786D01*
X180136485Y-112961215D01*
X180084077Y-113072840D01*
X180065105Y-113194686D01*
X180066020Y-113201683D01*
X180066020Y-113201684D01*
X180080031Y-113308821D01*
X180081095Y-113316960D01*
X180130759Y-113429832D01*
X180135296Y-113435230D01*
X180135297Y-113435231D01*
X180201283Y-113513731D01*
X180224253Y-113570441D01*
X180224500Y-113577433D01*
X180224500Y-113625616D01*
X180222598Y-113644929D01*
X180219103Y-113662500D01*
X180221005Y-113672062D01*
X180224500Y-113689632D01*
X180224500Y-113689633D01*
X180238417Y-113759596D01*
X180240485Y-113769995D01*
X180245904Y-113778105D01*
X180262855Y-113803475D01*
X180262857Y-113803477D01*
X180276723Y-113824228D01*
X180301376Y-113861124D01*
X180309486Y-113866543D01*
X180316267Y-113871074D01*
X180331269Y-113883385D01*
X180381125Y-113933241D01*
X180408902Y-113987758D01*
X180399331Y-114048190D01*
X180356066Y-114091455D01*
X180338326Y-114098434D01*
X180322406Y-114102984D01*
X180218115Y-114168786D01*
X180136485Y-114261215D01*
X180084077Y-114372840D01*
X180065105Y-114494686D01*
X180066020Y-114501683D01*
X180066020Y-114501684D01*
X180078509Y-114597183D01*
X180081095Y-114616960D01*
X180130759Y-114729832D01*
X180136605Y-114736787D01*
X180136612Y-114736795D01*
X180137248Y-114738365D01*
X180139025Y-114741220D01*
X180138530Y-114741528D01*
X180159585Y-114793504D01*
X180144837Y-114852885D01*
X180098002Y-114892257D01*
X180060832Y-114899500D01*
X179950326Y-114899500D01*
X179877260Y-114914034D01*
X179869153Y-114919451D01*
X179869150Y-114919452D01*
X179835561Y-114941895D01*
X179776673Y-114958503D01*
X179719270Y-114937325D01*
X179693973Y-114907575D01*
X179688514Y-114897726D01*
X179680523Y-114894000D01*
X178723691Y-114894000D01*
X178712856Y-114897521D01*
X178712856Y-114904389D01*
X178724664Y-114929711D01*
X178732121Y-114990441D01*
X178702458Y-115043955D01*
X178647006Y-115069813D01*
X178591464Y-115060494D01*
X178574619Y-115052260D01*
X178548294Y-115039392D01*
X178498771Y-115032167D01*
X178484031Y-115030017D01*
X178484029Y-115030017D01*
X178480486Y-115029500D01*
X178119514Y-115029500D01*
X178115931Y-115030028D01*
X178115924Y-115030028D01*
X178058729Y-115038448D01*
X178058727Y-115038449D01*
X178051116Y-115039569D01*
X178044210Y-115042960D01*
X178044209Y-115042960D01*
X178025267Y-115052260D01*
X177947120Y-115090628D01*
X177941339Y-115096419D01*
X177885101Y-115152755D01*
X177830609Y-115180580D01*
X177770169Y-115171061D01*
X177745094Y-115152876D01*
X177729855Y-115137663D01*
X177682379Y-115090270D01*
X177578294Y-115039392D01*
X177528771Y-115032167D01*
X177514031Y-115030017D01*
X177514029Y-115030017D01*
X177510486Y-115029500D01*
X177149514Y-115029500D01*
X177145931Y-115030028D01*
X177145924Y-115030028D01*
X177088729Y-115038448D01*
X177088727Y-115038449D01*
X177081116Y-115039569D01*
X177074210Y-115042960D01*
X177074209Y-115042960D01*
X176999795Y-115079495D01*
X176939227Y-115088169D01*
X176885129Y-115059585D01*
X176858164Y-115004662D01*
X176866440Y-114948788D01*
X176885362Y-114908211D01*
X176886750Y-114896904D01*
X176880523Y-114894000D01*
X176599000Y-114894000D01*
X176540809Y-114875093D01*
X176504845Y-114825593D01*
X176500000Y-114795000D01*
X176500000Y-114485000D01*
X176518907Y-114426809D01*
X176568407Y-114390845D01*
X176599000Y-114386000D01*
X176876309Y-114386000D01*
X176885245Y-114383096D01*
X178713250Y-114383096D01*
X178719477Y-114386000D01*
X178930320Y-114386000D01*
X178943005Y-114381878D01*
X178946000Y-114377757D01*
X178946000Y-114370320D01*
X179454000Y-114370320D01*
X179458122Y-114383005D01*
X179462243Y-114386000D01*
X179676309Y-114386000D01*
X179687144Y-114382479D01*
X179687144Y-114375610D01*
X179656469Y-114309826D01*
X179646685Y-114295853D01*
X179574147Y-114223315D01*
X179560174Y-114213531D01*
X179466224Y-114169722D01*
X179463612Y-114168960D01*
X179456431Y-114170292D01*
X179455195Y-114171594D01*
X179454000Y-114176874D01*
X179454000Y-114370320D01*
X178946000Y-114370320D01*
X178946000Y-114181494D01*
X178941878Y-114168809D01*
X178940455Y-114167775D01*
X178933776Y-114169722D01*
X178839826Y-114213531D01*
X178825853Y-114223315D01*
X178753315Y-114295853D01*
X178743531Y-114309826D01*
X178714638Y-114371788D01*
X178713250Y-114383096D01*
X176885245Y-114383096D01*
X176887144Y-114382479D01*
X176887144Y-114375610D01*
X176856469Y-114309826D01*
X176846685Y-114295853D01*
X176774147Y-114223315D01*
X176760174Y-114213531D01*
X176666225Y-114169722D01*
X176651843Y-114165530D01*
X176613053Y-114160423D01*
X176606599Y-114160000D01*
X176599000Y-114160000D01*
X176540809Y-114141093D01*
X176504845Y-114091593D01*
X176500000Y-114061000D01*
X176500000Y-110940000D01*
X172950000Y-110940000D01*
X172950000Y-116800000D01*
X176500000Y-116800000D01*
X176500000Y-116179499D01*
X176518907Y-116121308D01*
X176568407Y-116085344D01*
X176599000Y-116080499D01*
X176609900Y-116080499D01*
X176613110Y-116080076D01*
X176613117Y-116080076D01*
X176651975Y-116074961D01*
X176651976Y-116074961D01*
X176659487Y-116073972D01*
X176708792Y-116050980D01*
X176760466Y-116026885D01*
X176760468Y-116026884D01*
X176768316Y-116023224D01*
X176809688Y-115981852D01*
X176864205Y-115954075D01*
X176924637Y-115963646D01*
X176949632Y-115981790D01*
X176977621Y-116009730D01*
X177081706Y-116060608D01*
X177131229Y-116067833D01*
X177145969Y-116069983D01*
X177145971Y-116069983D01*
X177149514Y-116070500D01*
X177510486Y-116070500D01*
X177514069Y-116069972D01*
X177514076Y-116069972D01*
X177571271Y-116061552D01*
X177571273Y-116061551D01*
X177578884Y-116060431D01*
X177682880Y-116009372D01*
X177713210Y-115978989D01*
X177744899Y-115947245D01*
X177799391Y-115919420D01*
X177859831Y-115928939D01*
X177884905Y-115947123D01*
X177947621Y-116009730D01*
X178051706Y-116060608D01*
X178101229Y-116067833D01*
X178115969Y-116069983D01*
X178115971Y-116069983D01*
X178119514Y-116070500D01*
X178480486Y-116070500D01*
X178484069Y-116069972D01*
X178484076Y-116069972D01*
X178541271Y-116061552D01*
X178541273Y-116061551D01*
X178548884Y-116060431D01*
X178652880Y-116009372D01*
X178658658Y-116003584D01*
X178658662Y-116003581D01*
X178665282Y-115996949D01*
X178719775Y-115969125D01*
X178780215Y-115978645D01*
X178805349Y-115996889D01*
X178831684Y-116023224D01*
X178839532Y-116026884D01*
X178839534Y-116026885D01*
X178933067Y-116070500D01*
X178940513Y-116073972D01*
X178990099Y-116080500D01*
X179076572Y-116080500D01*
X179134763Y-116099407D01*
X179170727Y-116148907D01*
X179170727Y-116210093D01*
X179150777Y-116245032D01*
X179136485Y-116261215D01*
X179084077Y-116372840D01*
X179065105Y-116494686D01*
X179066020Y-116501683D01*
X179066020Y-116501684D01*
X179075433Y-116573661D01*
X179081095Y-116616960D01*
X179130759Y-116729832D01*
X179135296Y-116735230D01*
X179135297Y-116735231D01*
X179197415Y-116809129D01*
X179220385Y-116865839D01*
X179205634Y-116925220D01*
X179158798Y-116964590D01*
X179141868Y-116969102D01*
X179140974Y-116969097D01*
X179134198Y-116971034D01*
X179134195Y-116971034D01*
X179029190Y-117001045D01*
X179022406Y-117002984D01*
X178918115Y-117068786D01*
X178836485Y-117161215D01*
X178784077Y-117272840D01*
X178765105Y-117394686D01*
X178766020Y-117401683D01*
X178766020Y-117401684D01*
X178777009Y-117485711D01*
X178781095Y-117516960D01*
X178830759Y-117629832D01*
X178835297Y-117635231D01*
X178837533Y-117638823D01*
X178852231Y-117698217D01*
X178829210Y-117754906D01*
X178780690Y-117786325D01*
X178729194Y-117801043D01*
X178729188Y-117801046D01*
X178722406Y-117802984D01*
X178618115Y-117868786D01*
X178536485Y-117961215D01*
X178484077Y-118072840D01*
X178465105Y-118194686D01*
X178466020Y-118201683D01*
X178466020Y-118201684D01*
X178475161Y-118271581D01*
X178463959Y-118331732D01*
X178419541Y-118373811D01*
X178404207Y-118379605D01*
X178363442Y-118391256D01*
X178329189Y-118401045D01*
X178329187Y-118401046D01*
X178322406Y-118402984D01*
X178218115Y-118468786D01*
X178209133Y-118478956D01*
X178148386Y-118547740D01*
X178136485Y-118561215D01*
X178084077Y-118672840D01*
X178082992Y-118679809D01*
X178073457Y-118741045D01*
X178045822Y-118795634D01*
X177991378Y-118823553D01*
X177930921Y-118814140D01*
X177916818Y-118805446D01*
X177844136Y-118751762D01*
X177844135Y-118751761D01*
X177838184Y-118747366D01*
X177710369Y-118702481D01*
X177704362Y-118701913D01*
X177704361Y-118701913D01*
X177681145Y-118699718D01*
X177681135Y-118699718D01*
X177678834Y-118699500D01*
X176321166Y-118699500D01*
X176318865Y-118699718D01*
X176318855Y-118699718D01*
X176295639Y-118701913D01*
X176295638Y-118701913D01*
X176289631Y-118702481D01*
X176161816Y-118747366D01*
X176155865Y-118751761D01*
X176155864Y-118751762D01*
X176058807Y-118823450D01*
X176052850Y-118827850D01*
X176048450Y-118833807D01*
X175994575Y-118906748D01*
X175972366Y-118936816D01*
X175927481Y-119064631D01*
X175926913Y-119070638D01*
X175926913Y-119070639D01*
X175926454Y-119075500D01*
X175924500Y-119096166D01*
X175924500Y-119903834D01*
X175927481Y-119935369D01*
X175972366Y-120063184D01*
X175976761Y-120069135D01*
X175976762Y-120069136D01*
X176034820Y-120147740D01*
X176052850Y-120172150D01*
X176058807Y-120176550D01*
X176147231Y-120241861D01*
X176161816Y-120252634D01*
X176289631Y-120297519D01*
X176295638Y-120298087D01*
X176295639Y-120298087D01*
X176318855Y-120300282D01*
X176318865Y-120300282D01*
X176321166Y-120300500D01*
X177678834Y-120300500D01*
X177681135Y-120300282D01*
X177681145Y-120300282D01*
X177704361Y-120298087D01*
X177704362Y-120298087D01*
X177710369Y-120297519D01*
X177838184Y-120252634D01*
X177852770Y-120241861D01*
X177941193Y-120176550D01*
X177947150Y-120172150D01*
X177965180Y-120147740D01*
X178023238Y-120069136D01*
X178023239Y-120069135D01*
X178027634Y-120063184D01*
X178072519Y-119935369D01*
X178075500Y-119903834D01*
X178075500Y-119219454D01*
X178094407Y-119161263D01*
X178143907Y-119125299D01*
X178205093Y-119125299D01*
X178229358Y-119137042D01*
X178312759Y-119192559D01*
X178319486Y-119194661D01*
X178319489Y-119194662D01*
X178423731Y-119227229D01*
X178423732Y-119227229D01*
X178430463Y-119229332D01*
X178493832Y-119230494D01*
X178546705Y-119231463D01*
X178546707Y-119231463D01*
X178553758Y-119231592D01*
X178672730Y-119199156D01*
X178777817Y-119134633D01*
X178801867Y-119108064D01*
X178854934Y-119077610D01*
X178875264Y-119075500D01*
X179395876Y-119075500D01*
X179454067Y-119094407D01*
X179490031Y-119143907D01*
X179490031Y-119205093D01*
X179465880Y-119244504D01*
X178556534Y-120153850D01*
X178541532Y-120166161D01*
X178526641Y-120176111D01*
X178521222Y-120184221D01*
X178511272Y-120199112D01*
X178511271Y-120199113D01*
X178496988Y-120220489D01*
X178473872Y-120255085D01*
X178465750Y-120267240D01*
X178454196Y-120325326D01*
X178444368Y-120374735D01*
X178446270Y-120384296D01*
X178447863Y-120392304D01*
X178449765Y-120411619D01*
X178449765Y-124214465D01*
X178430858Y-124272656D01*
X178424981Y-124279985D01*
X178361750Y-124351581D01*
X178309342Y-124463206D01*
X178290370Y-124585052D01*
X178306360Y-124707326D01*
X178356024Y-124820198D01*
X178435372Y-124914594D01*
X178538024Y-124982925D01*
X178544751Y-124985027D01*
X178544754Y-124985028D01*
X178648996Y-125017595D01*
X178648997Y-125017595D01*
X178655728Y-125019698D01*
X178719097Y-125020860D01*
X178771970Y-125021829D01*
X178771972Y-125021829D01*
X178779023Y-125021958D01*
X178897995Y-124989522D01*
X178898767Y-124992355D01*
X178947094Y-124987786D01*
X178999760Y-125018931D01*
X179024060Y-125075083D01*
X179024500Y-125084402D01*
X179024500Y-125424099D01*
X179005593Y-125482290D01*
X178999716Y-125489619D01*
X178936485Y-125561215D01*
X178884077Y-125672840D01*
X178865105Y-125794686D01*
X178866020Y-125801683D01*
X178866020Y-125801684D01*
X178867683Y-125814397D01*
X178881095Y-125916960D01*
X178930759Y-126029832D01*
X178935296Y-126035230D01*
X178935297Y-126035231D01*
X178946400Y-126048439D01*
X179010107Y-126124228D01*
X179014719Y-126127298D01*
X179045147Y-126179578D01*
X179038964Y-126240450D01*
X178998183Y-126286063D01*
X178948383Y-126299500D01*
X171349500Y-126299500D01*
X171291309Y-126280593D01*
X171255345Y-126231093D01*
X171250500Y-126200500D01*
X171250500Y-123194686D01*
X171965105Y-123194686D01*
X171966020Y-123201683D01*
X171966020Y-123201684D01*
X171979741Y-123306604D01*
X171981095Y-123316960D01*
X172030759Y-123429832D01*
X172035296Y-123435230D01*
X172035297Y-123435231D01*
X172047965Y-123450301D01*
X172110107Y-123524228D01*
X172115978Y-123528136D01*
X172115979Y-123528137D01*
X172141173Y-123544907D01*
X172212759Y-123592559D01*
X172219486Y-123594661D01*
X172219489Y-123594662D01*
X172323731Y-123627229D01*
X172323732Y-123627229D01*
X172330463Y-123629332D01*
X172393832Y-123630494D01*
X172446705Y-123631463D01*
X172446707Y-123631463D01*
X172453758Y-123631592D01*
X172572730Y-123599156D01*
X172677817Y-123534633D01*
X172760571Y-123443208D01*
X172814338Y-123332232D01*
X172815666Y-123324338D01*
X172834163Y-123214397D01*
X172834163Y-123214391D01*
X172834797Y-123210626D01*
X172834927Y-123200000D01*
X172817445Y-123077930D01*
X172766405Y-122965674D01*
X172685910Y-122872255D01*
X172582431Y-122805183D01*
X172575673Y-122803162D01*
X172575671Y-122803161D01*
X172471047Y-122771872D01*
X172464286Y-122769850D01*
X172389287Y-122769392D01*
X172348025Y-122769140D01*
X172340974Y-122769097D01*
X172334197Y-122771034D01*
X172334196Y-122771034D01*
X172331264Y-122771872D01*
X172222406Y-122802984D01*
X172118115Y-122868786D01*
X172036485Y-122961215D01*
X171984077Y-123072840D01*
X171965105Y-123194686D01*
X171250500Y-123194686D01*
X171250500Y-121494376D01*
X175919455Y-121494376D01*
X175938227Y-121672983D01*
X175940011Y-121678223D01*
X175940011Y-121678224D01*
X175991373Y-121829098D01*
X175996103Y-121842993D01*
X175999001Y-121847703D01*
X175999003Y-121847708D01*
X176077007Y-121974500D01*
X176090206Y-121995955D01*
X176215859Y-122124268D01*
X176366817Y-122221554D01*
X176535578Y-122282978D01*
X176674283Y-122300500D01*
X177320155Y-122300500D01*
X177322909Y-122300191D01*
X177322911Y-122300191D01*
X177350291Y-122297120D01*
X177453472Y-122285546D01*
X177528223Y-122259515D01*
X177617847Y-122228305D01*
X177617848Y-122228305D01*
X177623073Y-122226485D01*
X177660979Y-122202799D01*
X177770685Y-122134247D01*
X177770687Y-122134245D01*
X177775375Y-122131316D01*
X177889678Y-122017808D01*
X177898879Y-122008671D01*
X177898880Y-122008669D01*
X177902807Y-122004770D01*
X177905774Y-122000095D01*
X177996071Y-121857810D01*
X177996072Y-121857809D01*
X177999037Y-121853136D01*
X178015062Y-121808134D01*
X178042582Y-121730847D01*
X178059281Y-121683951D01*
X178061615Y-121664383D01*
X178079890Y-121511120D01*
X178079890Y-121511117D01*
X178080545Y-121505624D01*
X178061773Y-121327017D01*
X178027170Y-121225371D01*
X178005682Y-121162249D01*
X178005680Y-121162245D01*
X178003897Y-121157007D01*
X178000999Y-121152297D01*
X178000997Y-121152292D01*
X177912691Y-121008754D01*
X177909794Y-121004045D01*
X177784141Y-120875732D01*
X177633183Y-120778446D01*
X177464422Y-120717022D01*
X177325717Y-120699500D01*
X176679845Y-120699500D01*
X176677091Y-120699809D01*
X176677089Y-120699809D01*
X176660062Y-120701719D01*
X176546528Y-120714454D01*
X176376927Y-120773515D01*
X176372234Y-120776447D01*
X176372235Y-120776447D01*
X176229315Y-120865753D01*
X176229313Y-120865755D01*
X176224625Y-120868684D01*
X176097193Y-120995230D01*
X176094227Y-120999904D01*
X176094226Y-120999905D01*
X176094106Y-121000095D01*
X176000963Y-121146864D01*
X175940719Y-121316049D01*
X175940065Y-121321536D01*
X175940064Y-121321539D01*
X175920110Y-121488880D01*
X175919455Y-121494376D01*
X171250500Y-121494376D01*
X171250500Y-109343096D01*
X180513250Y-109343096D01*
X180519477Y-109346000D01*
X180730320Y-109346000D01*
X180743005Y-109341878D01*
X180746000Y-109337757D01*
X180746000Y-109141494D01*
X180741878Y-109128809D01*
X180740455Y-109127775D01*
X180733776Y-109129722D01*
X180639826Y-109173531D01*
X180625853Y-109183315D01*
X180553315Y-109255853D01*
X180543531Y-109269826D01*
X180514638Y-109331788D01*
X180513250Y-109343096D01*
X171250500Y-109343096D01*
X171250500Y-108530320D01*
X181600000Y-108530320D01*
X181604122Y-108543005D01*
X181608243Y-108546000D01*
X182230320Y-108546000D01*
X182243005Y-108541878D01*
X182246000Y-108537757D01*
X182246000Y-108530320D01*
X182754000Y-108530320D01*
X182758122Y-108543005D01*
X182762243Y-108546000D01*
X183384320Y-108546000D01*
X183397005Y-108541878D01*
X183400000Y-108537757D01*
X183400000Y-108185160D01*
X183399052Y-108175538D01*
X183390298Y-108131526D01*
X183382979Y-108113858D01*
X183349611Y-108063918D01*
X183336082Y-108050389D01*
X183286142Y-108017021D01*
X183268474Y-108009702D01*
X183224462Y-108000948D01*
X183214840Y-108000000D01*
X182769680Y-108000000D01*
X182756995Y-108004122D01*
X182754000Y-108008243D01*
X182754000Y-108530320D01*
X182246000Y-108530320D01*
X182246000Y-108015680D01*
X182241878Y-108002995D01*
X182237757Y-108000000D01*
X181785160Y-108000000D01*
X181775538Y-108000948D01*
X181731526Y-108009702D01*
X181713858Y-108017021D01*
X181663918Y-108050389D01*
X181650389Y-108063918D01*
X181617021Y-108113858D01*
X181609702Y-108131526D01*
X181600948Y-108175538D01*
X181600000Y-108185160D01*
X181600000Y-108530320D01*
X171250500Y-108530320D01*
X171250500Y-105257442D01*
X175971421Y-105257442D01*
X175971503Y-105269181D01*
X175994773Y-105337536D01*
X175999460Y-105347496D01*
X176087701Y-105490931D01*
X176094473Y-105499599D01*
X176212306Y-105619925D01*
X176220829Y-105626876D01*
X176362391Y-105718108D01*
X176372237Y-105722995D01*
X176530496Y-105780596D01*
X176541190Y-105783183D01*
X176671225Y-105799610D01*
X176677413Y-105800000D01*
X176730320Y-105800000D01*
X176743005Y-105795878D01*
X176746000Y-105791757D01*
X176746000Y-105784320D01*
X177254000Y-105784320D01*
X177258122Y-105797005D01*
X177262243Y-105800000D01*
X177317356Y-105800000D01*
X177322885Y-105799691D01*
X177447855Y-105785673D01*
X177458592Y-105783234D01*
X177617629Y-105727851D01*
X177627548Y-105723099D01*
X177770370Y-105633854D01*
X177778987Y-105627024D01*
X177898488Y-105508355D01*
X177905382Y-105499779D01*
X177995618Y-105357591D01*
X178000442Y-105347701D01*
X178028548Y-105268770D01*
X178028852Y-105257892D01*
X178017419Y-105254000D01*
X177269680Y-105254000D01*
X177256995Y-105258122D01*
X177254000Y-105262243D01*
X177254000Y-105784320D01*
X176746000Y-105784320D01*
X176746000Y-105269680D01*
X176741878Y-105256995D01*
X176737757Y-105254000D01*
X175982015Y-105254000D01*
X175971421Y-105257442D01*
X171250500Y-105257442D01*
X171250500Y-104742108D01*
X175971148Y-104742108D01*
X175982581Y-104746000D01*
X176730320Y-104746000D01*
X176743005Y-104741878D01*
X176746000Y-104737757D01*
X176746000Y-104215680D01*
X176741878Y-104202995D01*
X176737757Y-104200000D01*
X176682644Y-104200000D01*
X176677115Y-104200309D01*
X176552145Y-104214327D01*
X176541408Y-104216766D01*
X176382371Y-104272149D01*
X176372452Y-104276901D01*
X176229630Y-104366146D01*
X176221013Y-104372976D01*
X176101512Y-104491645D01*
X176094618Y-104500221D01*
X176004382Y-104642409D01*
X175999558Y-104652299D01*
X175971452Y-104731230D01*
X175971148Y-104742108D01*
X171250500Y-104742108D01*
X171250500Y-97799500D01*
X171269407Y-97741309D01*
X171318907Y-97705345D01*
X171349500Y-97700500D01*
X187648320Y-97700500D01*
X187706511Y-97719407D01*
G37*
%TD.AperFunction*%
%TD*%
M02*
