%TF.GenerationSoftware,KiCad,Pcbnew,(6.0.4)*%
%TF.CreationDate,2023-01-18T18:35:58+00:00*%
%TF.ProjectId,PrettySmallRobot,50726574-7479-4536-9d61-6c6c526f626f,rev?*%
%TF.SameCoordinates,Original*%
%TF.FileFunction,Paste,Top*%
%TF.FilePolarity,Positive*%
%FSLAX46Y46*%
G04 Gerber Fmt 4.6, Leading zero omitted, Abs format (unit mm)*
G04 Created by KiCad (PCBNEW (6.0.4)) date 2023-01-18 18:35:58*
%MOMM*%
%LPD*%
G01*
G04 APERTURE LIST*
G04 Aperture macros list*
%AMRoundRect*
0 Rectangle with rounded corners*
0 $1 Rounding radius*
0 $2 $3 $4 $5 $6 $7 $8 $9 X,Y pos of 4 corners*
0 Add a 4 corners polygon primitive as box body*
4,1,4,$2,$3,$4,$5,$6,$7,$8,$9,$2,$3,0*
0 Add four circle primitives for the rounded corners*
1,1,$1+$1,$2,$3*
1,1,$1+$1,$4,$5*
1,1,$1+$1,$6,$7*
1,1,$1+$1,$8,$9*
0 Add four rect primitives between the rounded corners*
20,1,$1+$1,$2,$3,$4,$5,0*
20,1,$1+$1,$4,$5,$6,$7,0*
20,1,$1+$1,$6,$7,$8,$9,0*
20,1,$1+$1,$8,$9,$2,$3,0*%
G04 Aperture macros list end*
%ADD10R,1.700000X0.900000*%
%ADD11R,0.250000X0.500000*%
%ADD12R,0.650000X0.750000*%
%ADD13RoundRect,0.140000X0.170000X-0.140000X0.170000X0.140000X-0.170000X0.140000X-0.170000X-0.140000X0*%
%ADD14RoundRect,0.250000X0.650000X-0.325000X0.650000X0.325000X-0.650000X0.325000X-0.650000X-0.325000X0*%
%ADD15RoundRect,0.135000X0.185000X-0.135000X0.185000X0.135000X-0.185000X0.135000X-0.185000X-0.135000X0*%
%ADD16RoundRect,0.050000X-0.050000X-0.387500X0.050000X-0.387500X0.050000X0.387500X-0.050000X0.387500X0*%
%ADD17RoundRect,0.050000X-0.387500X-0.050000X0.387500X-0.050000X0.387500X0.050000X-0.387500X0.050000X0*%
%ADD18RoundRect,0.250000X-0.315000X-0.315000X0.315000X-0.315000X0.315000X0.315000X-0.315000X0.315000X0*%
%ADD19RoundRect,0.135000X-0.185000X0.135000X-0.185000X-0.135000X0.185000X-0.135000X0.185000X0.135000X0*%
%ADD20RoundRect,0.147500X-0.147500X-0.172500X0.147500X-0.172500X0.147500X0.172500X-0.147500X0.172500X0*%
%ADD21R,1.400000X1.200000*%
%ADD22RoundRect,0.140000X-0.170000X0.140000X-0.170000X-0.140000X0.170000X-0.140000X0.170000X0.140000X0*%
%ADD23RoundRect,0.147500X0.172500X-0.147500X0.172500X0.147500X-0.172500X0.147500X-0.172500X-0.147500X0*%
%ADD24R,0.300000X1.140000*%
%ADD25R,0.600000X1.140000*%
%ADD26R,0.600000X0.450000*%
G04 APERTURE END LIST*
D10*
%TO.C,RST1*%
X132000000Y-110000000D03*
X132000000Y-106600000D03*
%TD*%
%TO.C,BOOT1*%
X132000000Y-111900000D03*
X132000000Y-115300000D03*
%TD*%
D11*
%TO.C,U2*%
X133450000Y-99350000D03*
X132950000Y-99350000D03*
X132450000Y-99350000D03*
X131950000Y-99350000D03*
X131950000Y-97450000D03*
X132450000Y-97450000D03*
X132950000Y-97450000D03*
X133450000Y-97450000D03*
D12*
X132300000Y-98400000D03*
X133100000Y-98400000D03*
%TD*%
D13*
%TO.C,C3*%
X132400000Y-102060000D03*
X132400000Y-101100000D03*
%TD*%
D14*
%TO.C,AE1*%
X129300000Y-101650000D03*
X129300000Y-104600000D03*
%TD*%
D15*
%TO.C,R9*%
X128700000Y-108710000D03*
X128700000Y-107690000D03*
%TD*%
D16*
%TO.C,U4*%
X135700000Y-103362500D03*
X136100000Y-103362500D03*
X136500000Y-103362500D03*
X136900000Y-103362500D03*
X137300000Y-103362500D03*
X137700000Y-103362500D03*
X138100000Y-103362500D03*
X138500000Y-103362500D03*
X138900000Y-103362500D03*
X139300000Y-103362500D03*
X139700000Y-103362500D03*
X140100000Y-103362500D03*
X140500000Y-103362500D03*
X140900000Y-103362500D03*
D17*
X141737500Y-104200000D03*
X141737500Y-104600000D03*
X141737500Y-105000000D03*
X141737500Y-105400000D03*
X141737500Y-105800000D03*
X141737500Y-106200000D03*
X141737500Y-106600000D03*
X141737500Y-107000000D03*
X141737500Y-107400000D03*
X141737500Y-107800000D03*
X141737500Y-108200000D03*
X141737500Y-108600000D03*
X141737500Y-109000000D03*
X141737500Y-109400000D03*
D16*
X140900000Y-110237500D03*
X140500000Y-110237500D03*
X140100000Y-110237500D03*
X139700000Y-110237500D03*
X139300000Y-110237500D03*
X138900000Y-110237500D03*
X138500000Y-110237500D03*
X138100000Y-110237500D03*
X137700000Y-110237500D03*
X137300000Y-110237500D03*
X136900000Y-110237500D03*
X136500000Y-110237500D03*
X136100000Y-110237500D03*
X135700000Y-110237500D03*
D17*
X134862500Y-109400000D03*
X134862500Y-109000000D03*
X134862500Y-108600000D03*
X134862500Y-108200000D03*
X134862500Y-107800000D03*
X134862500Y-107400000D03*
X134862500Y-107000000D03*
X134862500Y-106600000D03*
X134862500Y-106200000D03*
X134862500Y-105800000D03*
X134862500Y-105400000D03*
X134862500Y-105000000D03*
X134862500Y-104600000D03*
X134862500Y-104200000D03*
D18*
X140400000Y-106100000D03*
X139000000Y-107500000D03*
X136200000Y-107500000D03*
X140400000Y-104700000D03*
X136200000Y-106100000D03*
X140400000Y-108900000D03*
X136200000Y-108900000D03*
X139000000Y-104700000D03*
X139000000Y-106100000D03*
X136200000Y-104700000D03*
X140400000Y-107500000D03*
X137600000Y-107500000D03*
X139000000Y-108900000D03*
X137600000Y-106100000D03*
X137600000Y-108900000D03*
X137600000Y-104700000D03*
%TD*%
D13*
%TO.C,C17*%
X133700000Y-104600000D03*
X133700000Y-103640000D03*
%TD*%
D19*
%TO.C,R2*%
X140700000Y-112067500D03*
X140700000Y-113087500D03*
%TD*%
D20*
%TO.C,L2*%
X131830000Y-104550000D03*
X132800000Y-104550000D03*
%TD*%
D19*
%TO.C,R1*%
X137675000Y-112117500D03*
X137675000Y-113137500D03*
%TD*%
D13*
%TO.C,C13*%
X130900000Y-104600000D03*
X130900000Y-103640000D03*
%TD*%
%TO.C,C2*%
X135100000Y-102060000D03*
X135100000Y-101100000D03*
%TD*%
%TO.C,C15*%
X135500000Y-99560000D03*
X135500000Y-98600000D03*
%TD*%
D21*
%TO.C,Y1*%
X137000000Y-97800000D03*
X139200000Y-97800000D03*
X139200000Y-99500000D03*
X137000000Y-99500000D03*
%TD*%
D13*
%TO.C,C14*%
X140700000Y-98760000D03*
X140700000Y-97800000D03*
%TD*%
D22*
%TO.C,C24*%
X129700000Y-107720000D03*
X129700000Y-108680000D03*
%TD*%
D23*
%TO.C,D1*%
X143280000Y-111105000D03*
X143280000Y-110135000D03*
%TD*%
D24*
%TO.C,J1*%
X137175000Y-114600000D03*
X138175000Y-114600000D03*
X139675000Y-114600000D03*
X140675000Y-114600000D03*
D25*
X141325000Y-114600000D03*
X142125000Y-114600000D03*
D24*
X140175000Y-114600000D03*
X139175000Y-114600000D03*
X138675000Y-114600000D03*
X137675000Y-114600000D03*
D25*
X136525000Y-114600000D03*
X135725000Y-114600000D03*
%TD*%
D26*
%TO.C,D2*%
X134225000Y-112587500D03*
X136325000Y-112587500D03*
%TD*%
D19*
%TO.C,R3*%
X136900000Y-101090000D03*
X136900000Y-102110000D03*
%TD*%
D13*
%TO.C,C7*%
X134200000Y-102060000D03*
X134200000Y-101100000D03*
%TD*%
D23*
%TO.C,D4*%
X142900000Y-106185000D03*
X142900000Y-105215000D03*
%TD*%
D19*
%TO.C,R10*%
X142900000Y-103090000D03*
X142900000Y-104110000D03*
%TD*%
D11*
%TO.C,U1*%
X130550000Y-99350000D03*
X130050000Y-99350000D03*
X129550000Y-99350000D03*
X129050000Y-99350000D03*
X129050000Y-97450000D03*
X129550000Y-97450000D03*
X130050000Y-97450000D03*
X130550000Y-97450000D03*
D12*
X129400000Y-98400000D03*
X130200000Y-98400000D03*
%TD*%
D13*
%TO.C,C6*%
X133300000Y-102060000D03*
X133300000Y-101100000D03*
%TD*%
M02*
