%TF.GenerationSoftware,KiCad,Pcbnew,(6.0.4)*%
%TF.CreationDate,2023-01-18T18:35:58+00:00*%
%TF.ProjectId,PrettySmallRobot,50726574-7479-4536-9d61-6c6c526f626f,rev?*%
%TF.SameCoordinates,Original*%
%TF.FileFunction,Legend,Top*%
%TF.FilePolarity,Positive*%
%FSLAX46Y46*%
G04 Gerber Fmt 4.6, Leading zero omitted, Abs format (unit mm)*
G04 Created by KiCad (PCBNEW (6.0.4)) date 2023-01-18 18:35:58*
%MOMM*%
%LPD*%
G01*
G04 APERTURE LIST*
%ADD10C,0.150000*%
%ADD11C,0.100000*%
%ADD12C,0.120000*%
%ADD13C,0.200000*%
%ADD14C,0.127000*%
G04 APERTURE END LIST*
D10*
X133560000Y-112250000D02*
X133560000Y-112850000D01*
X128162956Y-105240000D02*
G75*
G03*
X128162956Y-105240000I-102956J0D01*
G01*
X136552361Y-100430000D02*
G75*
G03*
X136552361Y-100430000I-22361J0D01*
G01*
X133756056Y-96660000D02*
G75*
G03*
X133756056Y-96660000I-36056J0D01*
G01*
X130882426Y-96660000D02*
G75*
G03*
X130882426Y-96660000I-42426J0D01*
G01*
X134270711Y-102890000D02*
G75*
G03*
X134270711Y-102890000I-70711J0D01*
G01*
D11*
G36*
X131094724Y-116316350D02*
G01*
X131193354Y-116331202D01*
X131290437Y-116354184D01*
X131385518Y-116385248D01*
X131478144Y-116424345D01*
X131567862Y-116471425D01*
X131654216Y-116526439D01*
X131736754Y-116589337D01*
X131815021Y-116660072D01*
X131843548Y-116688618D01*
X131870168Y-116716210D01*
X131894298Y-116742177D01*
X131915351Y-116765847D01*
X131932744Y-116786548D01*
X131945891Y-116803608D01*
X131950690Y-116810563D01*
X131954208Y-116816356D01*
X131956373Y-116820902D01*
X131957110Y-116824119D01*
X131956875Y-116827067D01*
X131956179Y-116830277D01*
X131955039Y-116833732D01*
X131953471Y-116837417D01*
X131951493Y-116841317D01*
X131949121Y-116845414D01*
X131943261Y-116854142D01*
X131936023Y-116863476D01*
X131927541Y-116873288D01*
X131917946Y-116883454D01*
X131907371Y-116893848D01*
X131895948Y-116904343D01*
X131883812Y-116914815D01*
X131871093Y-116925137D01*
X131857925Y-116935184D01*
X131844439Y-116944829D01*
X131830770Y-116953947D01*
X131817049Y-116962413D01*
X131803409Y-116970100D01*
X131794286Y-116974855D01*
X131790040Y-116976925D01*
X131785967Y-116978770D01*
X131782039Y-116980379D01*
X131778228Y-116981735D01*
X131774507Y-116982827D01*
X131770848Y-116983639D01*
X131767222Y-116984158D01*
X131763602Y-116984370D01*
X131759960Y-116984262D01*
X131756268Y-116983819D01*
X131752499Y-116983028D01*
X131748623Y-116981874D01*
X131744615Y-116980345D01*
X131740445Y-116978425D01*
X131736086Y-116976102D01*
X131731510Y-116973361D01*
X131726690Y-116970189D01*
X131721596Y-116966572D01*
X131716202Y-116962496D01*
X131710480Y-116957946D01*
X131704401Y-116952910D01*
X131697938Y-116947374D01*
X131683748Y-116934743D01*
X131667687Y-116919945D01*
X131649533Y-116902867D01*
X131629062Y-116883399D01*
X131592096Y-116849634D01*
X131554284Y-116818014D01*
X131515683Y-116788539D01*
X131476349Y-116761211D01*
X131436339Y-116736028D01*
X131395709Y-116712993D01*
X131354515Y-116692106D01*
X131312816Y-116673368D01*
X131270666Y-116656778D01*
X131228123Y-116642338D01*
X131185244Y-116630048D01*
X131142084Y-116619909D01*
X131098701Y-116611921D01*
X131055151Y-116606085D01*
X131011491Y-116602402D01*
X130967776Y-116600871D01*
X130924065Y-116601495D01*
X130880413Y-116604273D01*
X130836877Y-116609205D01*
X130793514Y-116616293D01*
X130750380Y-116625538D01*
X130707532Y-116636939D01*
X130665027Y-116650497D01*
X130622920Y-116666213D01*
X130581269Y-116684088D01*
X130540130Y-116704121D01*
X130499560Y-116726315D01*
X130459616Y-116750668D01*
X130420353Y-116777183D01*
X130381829Y-116805859D01*
X130344100Y-116836696D01*
X130307223Y-116869697D01*
X130280553Y-116894244D01*
X130254878Y-116917149D01*
X130230817Y-116937910D01*
X130208987Y-116956023D01*
X130190007Y-116970987D01*
X130174495Y-116982298D01*
X130168232Y-116986427D01*
X130163068Y-116989453D01*
X130159080Y-116991316D01*
X130156344Y-116991950D01*
X130155198Y-116991869D01*
X130153842Y-116991627D01*
X130150532Y-116990680D01*
X130146468Y-116989140D01*
X130141705Y-116987038D01*
X130136298Y-116984407D01*
X130130302Y-116981277D01*
X130123772Y-116977681D01*
X130116761Y-116973651D01*
X130109326Y-116969218D01*
X130101520Y-116964413D01*
X130093399Y-116959268D01*
X130085017Y-116953816D01*
X130076429Y-116948087D01*
X130067689Y-116942113D01*
X130058853Y-116935926D01*
X130049975Y-116929557D01*
X130050021Y-116929450D01*
X130041258Y-116922927D01*
X130032737Y-116916286D01*
X130024501Y-116909575D01*
X130016597Y-116902840D01*
X130009069Y-116896128D01*
X130001961Y-116889486D01*
X129995318Y-116882962D01*
X129989184Y-116876601D01*
X129983605Y-116870452D01*
X129978625Y-116864560D01*
X129974289Y-116858974D01*
X129970641Y-116853739D01*
X129967726Y-116848903D01*
X129965588Y-116844513D01*
X129964273Y-116840615D01*
X129963937Y-116838865D01*
X129963824Y-116837257D01*
X129964449Y-116832118D01*
X129966285Y-116826057D01*
X129969276Y-116819131D01*
X129973366Y-116811397D01*
X129984615Y-116793728D01*
X129999580Y-116773504D01*
X130017809Y-116751177D01*
X130038849Y-116727198D01*
X130062250Y-116702022D01*
X130087558Y-116676099D01*
X130114321Y-116649883D01*
X130142088Y-116623826D01*
X130170407Y-116598380D01*
X130198824Y-116573999D01*
X130226889Y-116551134D01*
X130254149Y-116530238D01*
X130280152Y-116511763D01*
X130304446Y-116496162D01*
X130399115Y-116444193D01*
X130495867Y-116400749D01*
X130594250Y-116365781D01*
X130693808Y-116339239D01*
X130794088Y-116321074D01*
X130894637Y-116311237D01*
X130995000Y-116309679D01*
X131094724Y-116316350D01*
G37*
X131094724Y-116316350D02*
X131193354Y-116331202D01*
X131290437Y-116354184D01*
X131385518Y-116385248D01*
X131478144Y-116424345D01*
X131567862Y-116471425D01*
X131654216Y-116526439D01*
X131736754Y-116589337D01*
X131815021Y-116660072D01*
X131843548Y-116688618D01*
X131870168Y-116716210D01*
X131894298Y-116742177D01*
X131915351Y-116765847D01*
X131932744Y-116786548D01*
X131945891Y-116803608D01*
X131950690Y-116810563D01*
X131954208Y-116816356D01*
X131956373Y-116820902D01*
X131957110Y-116824119D01*
X131956875Y-116827067D01*
X131956179Y-116830277D01*
X131955039Y-116833732D01*
X131953471Y-116837417D01*
X131951493Y-116841317D01*
X131949121Y-116845414D01*
X131943261Y-116854142D01*
X131936023Y-116863476D01*
X131927541Y-116873288D01*
X131917946Y-116883454D01*
X131907371Y-116893848D01*
X131895948Y-116904343D01*
X131883812Y-116914815D01*
X131871093Y-116925137D01*
X131857925Y-116935184D01*
X131844439Y-116944829D01*
X131830770Y-116953947D01*
X131817049Y-116962413D01*
X131803409Y-116970100D01*
X131794286Y-116974855D01*
X131790040Y-116976925D01*
X131785967Y-116978770D01*
X131782039Y-116980379D01*
X131778228Y-116981735D01*
X131774507Y-116982827D01*
X131770848Y-116983639D01*
X131767222Y-116984158D01*
X131763602Y-116984370D01*
X131759960Y-116984262D01*
X131756268Y-116983819D01*
X131752499Y-116983028D01*
X131748623Y-116981874D01*
X131744615Y-116980345D01*
X131740445Y-116978425D01*
X131736086Y-116976102D01*
X131731510Y-116973361D01*
X131726690Y-116970189D01*
X131721596Y-116966572D01*
X131716202Y-116962496D01*
X131710480Y-116957946D01*
X131704401Y-116952910D01*
X131697938Y-116947374D01*
X131683748Y-116934743D01*
X131667687Y-116919945D01*
X131649533Y-116902867D01*
X131629062Y-116883399D01*
X131592096Y-116849634D01*
X131554284Y-116818014D01*
X131515683Y-116788539D01*
X131476349Y-116761211D01*
X131436339Y-116736028D01*
X131395709Y-116712993D01*
X131354515Y-116692106D01*
X131312816Y-116673368D01*
X131270666Y-116656778D01*
X131228123Y-116642338D01*
X131185244Y-116630048D01*
X131142084Y-116619909D01*
X131098701Y-116611921D01*
X131055151Y-116606085D01*
X131011491Y-116602402D01*
X130967776Y-116600871D01*
X130924065Y-116601495D01*
X130880413Y-116604273D01*
X130836877Y-116609205D01*
X130793514Y-116616293D01*
X130750380Y-116625538D01*
X130707532Y-116636939D01*
X130665027Y-116650497D01*
X130622920Y-116666213D01*
X130581269Y-116684088D01*
X130540130Y-116704121D01*
X130499560Y-116726315D01*
X130459616Y-116750668D01*
X130420353Y-116777183D01*
X130381829Y-116805859D01*
X130344100Y-116836696D01*
X130307223Y-116869697D01*
X130280553Y-116894244D01*
X130254878Y-116917149D01*
X130230817Y-116937910D01*
X130208987Y-116956023D01*
X130190007Y-116970987D01*
X130174495Y-116982298D01*
X130168232Y-116986427D01*
X130163068Y-116989453D01*
X130159080Y-116991316D01*
X130156344Y-116991950D01*
X130155198Y-116991869D01*
X130153842Y-116991627D01*
X130150532Y-116990680D01*
X130146468Y-116989140D01*
X130141705Y-116987038D01*
X130136298Y-116984407D01*
X130130302Y-116981277D01*
X130123772Y-116977681D01*
X130116761Y-116973651D01*
X130109326Y-116969218D01*
X130101520Y-116964413D01*
X130093399Y-116959268D01*
X130085017Y-116953816D01*
X130076429Y-116948087D01*
X130067689Y-116942113D01*
X130058853Y-116935926D01*
X130049975Y-116929557D01*
X130050021Y-116929450D01*
X130041258Y-116922927D01*
X130032737Y-116916286D01*
X130024501Y-116909575D01*
X130016597Y-116902840D01*
X130009069Y-116896128D01*
X130001961Y-116889486D01*
X129995318Y-116882962D01*
X129989184Y-116876601D01*
X129983605Y-116870452D01*
X129978625Y-116864560D01*
X129974289Y-116858974D01*
X129970641Y-116853739D01*
X129967726Y-116848903D01*
X129965588Y-116844513D01*
X129964273Y-116840615D01*
X129963937Y-116838865D01*
X129963824Y-116837257D01*
X129964449Y-116832118D01*
X129966285Y-116826057D01*
X129969276Y-116819131D01*
X129973366Y-116811397D01*
X129984615Y-116793728D01*
X129999580Y-116773504D01*
X130017809Y-116751177D01*
X130038849Y-116727198D01*
X130062250Y-116702022D01*
X130087558Y-116676099D01*
X130114321Y-116649883D01*
X130142088Y-116623826D01*
X130170407Y-116598380D01*
X130198824Y-116573999D01*
X130226889Y-116551134D01*
X130254149Y-116530238D01*
X130280152Y-116511763D01*
X130304446Y-116496162D01*
X130399115Y-116444193D01*
X130495867Y-116400749D01*
X130594250Y-116365781D01*
X130693808Y-116339239D01*
X130794088Y-116321074D01*
X130894637Y-116311237D01*
X130995000Y-116309679D01*
X131094724Y-116316350D01*
G36*
X130990502Y-116812356D02*
G01*
X131010511Y-116813501D01*
X131029910Y-116815528D01*
X131066143Y-116821374D01*
X131103032Y-116829498D01*
X131140268Y-116839729D01*
X131177544Y-116851895D01*
X131214552Y-116865825D01*
X131250983Y-116881347D01*
X131286531Y-116898289D01*
X131320886Y-116916480D01*
X131353741Y-116935749D01*
X131384788Y-116955922D01*
X131413719Y-116976830D01*
X131440226Y-116998300D01*
X131464001Y-117020161D01*
X131484737Y-117042241D01*
X131502125Y-117064368D01*
X131515857Y-117086372D01*
X131519944Y-117094190D01*
X131523317Y-117101335D01*
X131524719Y-117104694D01*
X131525921Y-117107929D01*
X131526916Y-117111057D01*
X131527699Y-117114091D01*
X131528261Y-117117048D01*
X131528596Y-117119942D01*
X131528697Y-117122787D01*
X131528557Y-117125600D01*
X131528168Y-117128395D01*
X131527525Y-117131187D01*
X131526621Y-117133992D01*
X131525447Y-117136823D01*
X131523998Y-117139696D01*
X131522266Y-117142627D01*
X131520244Y-117145630D01*
X131517926Y-117148720D01*
X131515304Y-117151912D01*
X131512372Y-117155222D01*
X131509122Y-117158663D01*
X131505549Y-117162252D01*
X131497400Y-117169932D01*
X131487871Y-117178381D01*
X131476906Y-117187719D01*
X131464450Y-117198066D01*
X131447085Y-117212009D01*
X131430938Y-117224105D01*
X131415813Y-117234354D01*
X131408573Y-117238788D01*
X131401516Y-117242762D01*
X131394616Y-117246276D01*
X131387851Y-117249330D01*
X131381195Y-117251926D01*
X131374623Y-117254063D01*
X131368113Y-117255741D01*
X131361638Y-117256962D01*
X131355176Y-117257725D01*
X131348701Y-117258031D01*
X131342189Y-117257880D01*
X131335615Y-117257273D01*
X131328956Y-117256210D01*
X131322187Y-117254692D01*
X131315284Y-117252718D01*
X131308221Y-117250289D01*
X131300976Y-117247406D01*
X131293522Y-117244069D01*
X131285837Y-117240278D01*
X131277896Y-117236034D01*
X131261146Y-117226188D01*
X131243079Y-117214533D01*
X131223498Y-117201072D01*
X131191881Y-117180177D01*
X131159741Y-117162040D01*
X131127156Y-117146661D01*
X131094203Y-117134041D01*
X131060959Y-117124180D01*
X131027502Y-117117080D01*
X130993907Y-117112741D01*
X130960252Y-117111163D01*
X130926614Y-117112349D01*
X130893070Y-117116298D01*
X130859697Y-117123011D01*
X130826572Y-117132489D01*
X130793772Y-117144733D01*
X130761374Y-117159743D01*
X130729455Y-117177520D01*
X130698093Y-117198066D01*
X130678819Y-117211387D01*
X130661105Y-117223005D01*
X130644757Y-117232936D01*
X130629580Y-117241191D01*
X130622369Y-117244696D01*
X130615379Y-117247786D01*
X130608583Y-117250465D01*
X130601959Y-117252734D01*
X130595481Y-117254595D01*
X130589125Y-117256049D01*
X130582868Y-117257099D01*
X130576684Y-117257745D01*
X130570550Y-117257990D01*
X130564440Y-117257835D01*
X130558331Y-117257282D01*
X130552198Y-117256333D01*
X130546018Y-117254990D01*
X130539765Y-117253253D01*
X130533415Y-117251126D01*
X130526944Y-117248609D01*
X130513542Y-117242415D01*
X130499363Y-117234684D01*
X130484214Y-117225430D01*
X130467898Y-117214668D01*
X130467853Y-117213798D01*
X130452773Y-117203309D01*
X130439391Y-117193384D01*
X130427673Y-117183938D01*
X130422428Y-117179367D01*
X130417586Y-117174882D01*
X130413145Y-117170474D01*
X130409098Y-117166130D01*
X130405444Y-117161841D01*
X130402176Y-117157596D01*
X130399292Y-117153383D01*
X130396787Y-117149191D01*
X130394657Y-117145011D01*
X130392898Y-117140830D01*
X130391505Y-117136639D01*
X130390476Y-117132425D01*
X130389805Y-117128180D01*
X130389489Y-117123890D01*
X130389523Y-117119546D01*
X130389903Y-117115137D01*
X130390626Y-117110652D01*
X130391687Y-117106080D01*
X130393081Y-117101410D01*
X130394806Y-117096632D01*
X130396857Y-117091734D01*
X130399229Y-117086705D01*
X130401919Y-117081536D01*
X130404922Y-117076214D01*
X130411853Y-117065070D01*
X130421556Y-117051292D01*
X130432494Y-117037652D01*
X130444604Y-117024174D01*
X130457827Y-117010883D01*
X130472100Y-116997805D01*
X130487362Y-116984963D01*
X130520606Y-116960091D01*
X130557068Y-116936463D01*
X130596256Y-116914280D01*
X130637679Y-116893739D01*
X130680844Y-116875039D01*
X130725261Y-116858379D01*
X130770437Y-116843956D01*
X130815881Y-116831970D01*
X130861101Y-116822618D01*
X130905606Y-116816100D01*
X130948904Y-116812613D01*
X130969946Y-116812068D01*
X130990502Y-116812356D01*
G37*
X130990502Y-116812356D02*
X131010511Y-116813501D01*
X131029910Y-116815528D01*
X131066143Y-116821374D01*
X131103032Y-116829498D01*
X131140268Y-116839729D01*
X131177544Y-116851895D01*
X131214552Y-116865825D01*
X131250983Y-116881347D01*
X131286531Y-116898289D01*
X131320886Y-116916480D01*
X131353741Y-116935749D01*
X131384788Y-116955922D01*
X131413719Y-116976830D01*
X131440226Y-116998300D01*
X131464001Y-117020161D01*
X131484737Y-117042241D01*
X131502125Y-117064368D01*
X131515857Y-117086372D01*
X131519944Y-117094190D01*
X131523317Y-117101335D01*
X131524719Y-117104694D01*
X131525921Y-117107929D01*
X131526916Y-117111057D01*
X131527699Y-117114091D01*
X131528261Y-117117048D01*
X131528596Y-117119942D01*
X131528697Y-117122787D01*
X131528557Y-117125600D01*
X131528168Y-117128395D01*
X131527525Y-117131187D01*
X131526621Y-117133992D01*
X131525447Y-117136823D01*
X131523998Y-117139696D01*
X131522266Y-117142627D01*
X131520244Y-117145630D01*
X131517926Y-117148720D01*
X131515304Y-117151912D01*
X131512372Y-117155222D01*
X131509122Y-117158663D01*
X131505549Y-117162252D01*
X131497400Y-117169932D01*
X131487871Y-117178381D01*
X131476906Y-117187719D01*
X131464450Y-117198066D01*
X131447085Y-117212009D01*
X131430938Y-117224105D01*
X131415813Y-117234354D01*
X131408573Y-117238788D01*
X131401516Y-117242762D01*
X131394616Y-117246276D01*
X131387851Y-117249330D01*
X131381195Y-117251926D01*
X131374623Y-117254063D01*
X131368113Y-117255741D01*
X131361638Y-117256962D01*
X131355176Y-117257725D01*
X131348701Y-117258031D01*
X131342189Y-117257880D01*
X131335615Y-117257273D01*
X131328956Y-117256210D01*
X131322187Y-117254692D01*
X131315284Y-117252718D01*
X131308221Y-117250289D01*
X131300976Y-117247406D01*
X131293522Y-117244069D01*
X131285837Y-117240278D01*
X131277896Y-117236034D01*
X131261146Y-117226188D01*
X131243079Y-117214533D01*
X131223498Y-117201072D01*
X131191881Y-117180177D01*
X131159741Y-117162040D01*
X131127156Y-117146661D01*
X131094203Y-117134041D01*
X131060959Y-117124180D01*
X131027502Y-117117080D01*
X130993907Y-117112741D01*
X130960252Y-117111163D01*
X130926614Y-117112349D01*
X130893070Y-117116298D01*
X130859697Y-117123011D01*
X130826572Y-117132489D01*
X130793772Y-117144733D01*
X130761374Y-117159743D01*
X130729455Y-117177520D01*
X130698093Y-117198066D01*
X130678819Y-117211387D01*
X130661105Y-117223005D01*
X130644757Y-117232936D01*
X130629580Y-117241191D01*
X130622369Y-117244696D01*
X130615379Y-117247786D01*
X130608583Y-117250465D01*
X130601959Y-117252734D01*
X130595481Y-117254595D01*
X130589125Y-117256049D01*
X130582868Y-117257099D01*
X130576684Y-117257745D01*
X130570550Y-117257990D01*
X130564440Y-117257835D01*
X130558331Y-117257282D01*
X130552198Y-117256333D01*
X130546018Y-117254990D01*
X130539765Y-117253253D01*
X130533415Y-117251126D01*
X130526944Y-117248609D01*
X130513542Y-117242415D01*
X130499363Y-117234684D01*
X130484214Y-117225430D01*
X130467898Y-117214668D01*
X130467853Y-117213798D01*
X130452773Y-117203309D01*
X130439391Y-117193384D01*
X130427673Y-117183938D01*
X130422428Y-117179367D01*
X130417586Y-117174882D01*
X130413145Y-117170474D01*
X130409098Y-117166130D01*
X130405444Y-117161841D01*
X130402176Y-117157596D01*
X130399292Y-117153383D01*
X130396787Y-117149191D01*
X130394657Y-117145011D01*
X130392898Y-117140830D01*
X130391505Y-117136639D01*
X130390476Y-117132425D01*
X130389805Y-117128180D01*
X130389489Y-117123890D01*
X130389523Y-117119546D01*
X130389903Y-117115137D01*
X130390626Y-117110652D01*
X130391687Y-117106080D01*
X130393081Y-117101410D01*
X130394806Y-117096632D01*
X130396857Y-117091734D01*
X130399229Y-117086705D01*
X130401919Y-117081536D01*
X130404922Y-117076214D01*
X130411853Y-117065070D01*
X130421556Y-117051292D01*
X130432494Y-117037652D01*
X130444604Y-117024174D01*
X130457827Y-117010883D01*
X130472100Y-116997805D01*
X130487362Y-116984963D01*
X130520606Y-116960091D01*
X130557068Y-116936463D01*
X130596256Y-116914280D01*
X130637679Y-116893739D01*
X130680844Y-116875039D01*
X130725261Y-116858379D01*
X130770437Y-116843956D01*
X130815881Y-116831970D01*
X130861101Y-116822618D01*
X130905606Y-116816100D01*
X130948904Y-116812613D01*
X130969946Y-116812068D01*
X130990502Y-116812356D01*
G36*
X130958554Y-117322941D02*
G01*
X130968926Y-117324016D01*
X130979276Y-117325877D01*
X130989557Y-117328537D01*
X130999726Y-117332011D01*
X131009735Y-117336311D01*
X131019542Y-117341454D01*
X131029099Y-117347451D01*
X131038362Y-117354317D01*
X131047287Y-117362067D01*
X131055827Y-117370713D01*
X131063937Y-117380271D01*
X131068606Y-117386461D01*
X131072919Y-117392709D01*
X131076877Y-117399007D01*
X131080481Y-117405352D01*
X131083732Y-117411736D01*
X131086629Y-117418155D01*
X131089175Y-117424602D01*
X131091369Y-117431072D01*
X131093212Y-117437560D01*
X131094705Y-117444059D01*
X131095849Y-117450563D01*
X131096644Y-117457068D01*
X131097091Y-117463568D01*
X131097190Y-117470056D01*
X131096942Y-117476527D01*
X131096349Y-117482976D01*
X131095410Y-117489397D01*
X131094126Y-117495783D01*
X131092498Y-117502130D01*
X131090527Y-117508431D01*
X131088213Y-117514681D01*
X131085557Y-117520875D01*
X131082560Y-117527006D01*
X131079222Y-117533069D01*
X131075543Y-117539058D01*
X131071526Y-117544968D01*
X131067170Y-117550792D01*
X131062475Y-117556526D01*
X131057444Y-117562163D01*
X131052076Y-117567697D01*
X131046371Y-117573124D01*
X131040332Y-117578437D01*
X131031129Y-117585807D01*
X131022022Y-117592278D01*
X131012981Y-117597855D01*
X131008477Y-117600308D01*
X131003977Y-117602538D01*
X130999479Y-117604545D01*
X130994978Y-117606330D01*
X130990472Y-117607893D01*
X130985956Y-117609235D01*
X130981426Y-117610354D01*
X130976880Y-117611253D01*
X130972312Y-117611931D01*
X130967719Y-117612388D01*
X130963098Y-117612625D01*
X130958445Y-117612641D01*
X130953755Y-117612439D01*
X130949026Y-117612016D01*
X130944253Y-117611375D01*
X130939433Y-117610515D01*
X130934562Y-117609436D01*
X130929636Y-117608139D01*
X130924652Y-117606624D01*
X130919605Y-117604891D01*
X130909309Y-117600774D01*
X130898719Y-117595791D01*
X130887805Y-117589942D01*
X130887836Y-117589973D01*
X130877502Y-117583888D01*
X130868146Y-117577882D01*
X130859724Y-117571875D01*
X130855851Y-117568846D01*
X130852194Y-117565786D01*
X130848749Y-117562686D01*
X130845511Y-117559535D01*
X130842473Y-117556324D01*
X130839631Y-117553041D01*
X130836979Y-117549678D01*
X130834511Y-117546225D01*
X130832223Y-117542670D01*
X130830108Y-117539005D01*
X130828161Y-117535218D01*
X130826377Y-117531301D01*
X130824750Y-117527242D01*
X130823275Y-117523032D01*
X130821947Y-117518661D01*
X130820759Y-117514119D01*
X130819707Y-117509396D01*
X130818785Y-117504481D01*
X130817987Y-117499365D01*
X130817309Y-117494037D01*
X130816287Y-117482708D01*
X130815676Y-117470412D01*
X130815433Y-117457069D01*
X130815852Y-117444875D01*
X130817197Y-117433173D01*
X130819422Y-117421978D01*
X130822483Y-117411302D01*
X130826334Y-117401161D01*
X130830930Y-117391568D01*
X130836226Y-117382538D01*
X130842177Y-117374083D01*
X130848737Y-117366218D01*
X130855861Y-117358957D01*
X130863504Y-117352314D01*
X130871622Y-117346303D01*
X130880168Y-117340938D01*
X130889098Y-117336232D01*
X130898366Y-117332201D01*
X130907928Y-117328857D01*
X130917737Y-117326214D01*
X130927750Y-117324288D01*
X130937920Y-117323090D01*
X130948203Y-117322637D01*
X130958554Y-117322941D01*
G37*
X130958554Y-117322941D02*
X130968926Y-117324016D01*
X130979276Y-117325877D01*
X130989557Y-117328537D01*
X130999726Y-117332011D01*
X131009735Y-117336311D01*
X131019542Y-117341454D01*
X131029099Y-117347451D01*
X131038362Y-117354317D01*
X131047287Y-117362067D01*
X131055827Y-117370713D01*
X131063937Y-117380271D01*
X131068606Y-117386461D01*
X131072919Y-117392709D01*
X131076877Y-117399007D01*
X131080481Y-117405352D01*
X131083732Y-117411736D01*
X131086629Y-117418155D01*
X131089175Y-117424602D01*
X131091369Y-117431072D01*
X131093212Y-117437560D01*
X131094705Y-117444059D01*
X131095849Y-117450563D01*
X131096644Y-117457068D01*
X131097091Y-117463568D01*
X131097190Y-117470056D01*
X131096942Y-117476527D01*
X131096349Y-117482976D01*
X131095410Y-117489397D01*
X131094126Y-117495783D01*
X131092498Y-117502130D01*
X131090527Y-117508431D01*
X131088213Y-117514681D01*
X131085557Y-117520875D01*
X131082560Y-117527006D01*
X131079222Y-117533069D01*
X131075543Y-117539058D01*
X131071526Y-117544968D01*
X131067170Y-117550792D01*
X131062475Y-117556526D01*
X131057444Y-117562163D01*
X131052076Y-117567697D01*
X131046371Y-117573124D01*
X131040332Y-117578437D01*
X131031129Y-117585807D01*
X131022022Y-117592278D01*
X131012981Y-117597855D01*
X131008477Y-117600308D01*
X131003977Y-117602538D01*
X130999479Y-117604545D01*
X130994978Y-117606330D01*
X130990472Y-117607893D01*
X130985956Y-117609235D01*
X130981426Y-117610354D01*
X130976880Y-117611253D01*
X130972312Y-117611931D01*
X130967719Y-117612388D01*
X130963098Y-117612625D01*
X130958445Y-117612641D01*
X130953755Y-117612439D01*
X130949026Y-117612016D01*
X130944253Y-117611375D01*
X130939433Y-117610515D01*
X130934562Y-117609436D01*
X130929636Y-117608139D01*
X130924652Y-117606624D01*
X130919605Y-117604891D01*
X130909309Y-117600774D01*
X130898719Y-117595791D01*
X130887805Y-117589942D01*
X130887836Y-117589973D01*
X130877502Y-117583888D01*
X130868146Y-117577882D01*
X130859724Y-117571875D01*
X130855851Y-117568846D01*
X130852194Y-117565786D01*
X130848749Y-117562686D01*
X130845511Y-117559535D01*
X130842473Y-117556324D01*
X130839631Y-117553041D01*
X130836979Y-117549678D01*
X130834511Y-117546225D01*
X130832223Y-117542670D01*
X130830108Y-117539005D01*
X130828161Y-117535218D01*
X130826377Y-117531301D01*
X130824750Y-117527242D01*
X130823275Y-117523032D01*
X130821947Y-117518661D01*
X130820759Y-117514119D01*
X130819707Y-117509396D01*
X130818785Y-117504481D01*
X130817987Y-117499365D01*
X130817309Y-117494037D01*
X130816287Y-117482708D01*
X130815676Y-117470412D01*
X130815433Y-117457069D01*
X130815852Y-117444875D01*
X130817197Y-117433173D01*
X130819422Y-117421978D01*
X130822483Y-117411302D01*
X130826334Y-117401161D01*
X130830930Y-117391568D01*
X130836226Y-117382538D01*
X130842177Y-117374083D01*
X130848737Y-117366218D01*
X130855861Y-117358957D01*
X130863504Y-117352314D01*
X130871622Y-117346303D01*
X130880168Y-117340938D01*
X130889098Y-117336232D01*
X130898366Y-117332201D01*
X130907928Y-117328857D01*
X130917737Y-117326214D01*
X130927750Y-117324288D01*
X130937920Y-117323090D01*
X130948203Y-117322637D01*
X130958554Y-117322941D01*
G36*
X129224122Y-119126762D02*
G01*
X129228824Y-119123923D01*
X129262740Y-119084084D01*
X129338149Y-118993756D01*
X129568851Y-118715263D01*
X129695242Y-118563246D01*
X129804938Y-118433303D01*
X129886180Y-118339225D01*
X129912454Y-118309947D01*
X129927203Y-118294807D01*
X129930897Y-118291755D01*
X129934965Y-118288878D01*
X129939544Y-118286170D01*
X129944773Y-118283626D01*
X129950790Y-118281241D01*
X129957734Y-118279010D01*
X129965743Y-118276927D01*
X129974955Y-118274988D01*
X129985508Y-118273188D01*
X129997542Y-118271521D01*
X130011193Y-118269983D01*
X130026602Y-118268568D01*
X130043905Y-118267272D01*
X130063241Y-118266089D01*
X130108565Y-118264043D01*
X130163682Y-118262389D01*
X130229698Y-118261088D01*
X130307719Y-118260097D01*
X130398851Y-118259378D01*
X130504202Y-118258889D01*
X130624878Y-118258590D01*
X130916629Y-118258399D01*
X131396622Y-118259561D01*
X131692168Y-118263938D01*
X131784581Y-118267751D01*
X131847450Y-118272870D01*
X131886299Y-118279463D01*
X131906650Y-118287696D01*
X131912305Y-118292803D01*
X131920540Y-118301899D01*
X131931198Y-118314761D01*
X131944116Y-118331166D01*
X131976102Y-118373715D01*
X132015222Y-118427760D01*
X132060200Y-118491521D01*
X132109762Y-118563213D01*
X132162631Y-118641053D01*
X132217532Y-118723258D01*
X132486590Y-119129523D01*
X132759418Y-119129996D01*
X132889669Y-119129616D01*
X132941494Y-119130476D01*
X132985338Y-119133400D01*
X133004473Y-119135954D01*
X133021862Y-119139408D01*
X133037587Y-119143888D01*
X133051731Y-119149524D01*
X133064376Y-119156441D01*
X133075607Y-119164768D01*
X133085505Y-119174633D01*
X133094153Y-119186164D01*
X133101636Y-119199488D01*
X133108034Y-119214733D01*
X133113432Y-119232027D01*
X133117912Y-119251498D01*
X133121558Y-119273273D01*
X133124451Y-119297480D01*
X133128314Y-119353701D01*
X133130163Y-119421184D01*
X133130663Y-119500951D01*
X133130267Y-119701423D01*
X133130267Y-120193000D01*
X133072070Y-120243095D01*
X133062508Y-120251105D01*
X133053340Y-120258223D01*
X133048822Y-120261464D01*
X133044305Y-120264501D01*
X133039758Y-120267340D01*
X133035147Y-120269989D01*
X133030440Y-120272454D01*
X133025606Y-120274741D01*
X133020611Y-120276856D01*
X133015423Y-120278807D01*
X133010010Y-120280599D01*
X133004339Y-120282239D01*
X132998379Y-120283734D01*
X132992097Y-120285091D01*
X132985460Y-120286314D01*
X132978437Y-120287412D01*
X132970994Y-120288391D01*
X132963100Y-120289256D01*
X132945828Y-120290674D01*
X132926362Y-120291718D01*
X132904443Y-120292439D01*
X132879813Y-120292890D01*
X132852213Y-120293123D01*
X132821384Y-120293189D01*
X132628894Y-120293189D01*
X132605289Y-120166618D01*
X132599263Y-120137660D01*
X132592078Y-120109298D01*
X132583761Y-120081553D01*
X132574336Y-120054446D01*
X132563831Y-120028000D01*
X132552272Y-120002235D01*
X132539685Y-119977174D01*
X132526096Y-119952837D01*
X132511531Y-119929246D01*
X132496016Y-119906423D01*
X132479578Y-119884390D01*
X132462243Y-119863167D01*
X132444037Y-119842777D01*
X132424986Y-119823240D01*
X132405116Y-119804579D01*
X132384454Y-119786815D01*
X132363025Y-119769969D01*
X132340857Y-119754064D01*
X132317975Y-119739119D01*
X132294405Y-119725158D01*
X132270173Y-119712202D01*
X132245306Y-119700272D01*
X132219830Y-119689389D01*
X132193771Y-119679576D01*
X132167155Y-119670853D01*
X132140009Y-119663242D01*
X132112359Y-119656766D01*
X132084230Y-119651444D01*
X132055649Y-119647300D01*
X132026642Y-119644354D01*
X131997236Y-119642627D01*
X131967456Y-119642142D01*
X131938074Y-119642983D01*
X131908988Y-119645110D01*
X131880232Y-119648496D01*
X131851838Y-119653115D01*
X131823840Y-119658936D01*
X131796272Y-119665934D01*
X131769166Y-119674080D01*
X131742556Y-119683347D01*
X131716476Y-119693706D01*
X131690959Y-119705131D01*
X131666038Y-119717592D01*
X131641746Y-119731063D01*
X131618117Y-119745516D01*
X131595184Y-119760922D01*
X131572981Y-119777255D01*
X131551541Y-119794486D01*
X131530898Y-119812588D01*
X131511084Y-119831533D01*
X131492132Y-119851293D01*
X131474078Y-119871840D01*
X131456953Y-119893146D01*
X131440791Y-119915185D01*
X131425625Y-119937928D01*
X131411490Y-119961347D01*
X131398417Y-119985414D01*
X131386441Y-120010103D01*
X131375595Y-120035384D01*
X131365912Y-120061231D01*
X131357426Y-120087615D01*
X131350170Y-120114509D01*
X131344177Y-120141885D01*
X131339480Y-120169715D01*
X131323184Y-120282798D01*
X130560412Y-120288795D01*
X129797626Y-120294791D01*
X129797626Y-120232490D01*
X129796852Y-120215830D01*
X129794599Y-120197331D01*
X129790966Y-120177250D01*
X129786053Y-120155843D01*
X129779959Y-120133366D01*
X129772785Y-120110075D01*
X129764630Y-120086226D01*
X129755593Y-120062076D01*
X129745776Y-120037880D01*
X129735277Y-120013895D01*
X129724196Y-119990377D01*
X129712634Y-119967582D01*
X129700689Y-119945766D01*
X129688463Y-119925186D01*
X129676054Y-119906096D01*
X129663562Y-119888755D01*
X129651427Y-119873502D01*
X129638567Y-119858593D01*
X129610800Y-119829862D01*
X129580531Y-119802674D01*
X129548027Y-119777145D01*
X129513557Y-119753388D01*
X129477388Y-119731516D01*
X129439790Y-119711644D01*
X129401029Y-119693885D01*
X129361374Y-119678354D01*
X129321093Y-119665163D01*
X129280455Y-119654428D01*
X129239728Y-119646262D01*
X129199179Y-119640778D01*
X129159077Y-119638091D01*
X129119690Y-119638315D01*
X129100349Y-119639554D01*
X129081286Y-119641563D01*
X129054296Y-119645565D01*
X129027629Y-119650676D01*
X129001313Y-119656867D01*
X128975376Y-119664114D01*
X128949844Y-119672389D01*
X128924745Y-119681667D01*
X128900106Y-119691922D01*
X128875954Y-119703126D01*
X128829220Y-119728282D01*
X128784760Y-119756925D01*
X128742792Y-119788846D01*
X128703532Y-119823835D01*
X128667199Y-119861682D01*
X128634009Y-119902179D01*
X128604179Y-119945115D01*
X128590593Y-119967433D01*
X128577928Y-119990282D01*
X128566212Y-120013636D01*
X128555472Y-120037470D01*
X128545735Y-120061756D01*
X128537029Y-120086469D01*
X128529380Y-120111582D01*
X128522815Y-120137070D01*
X128517363Y-120162906D01*
X128513049Y-120189063D01*
X128508444Y-120220083D01*
X128506220Y-120232692D01*
X128503860Y-120243558D01*
X128501225Y-120252825D01*
X128499760Y-120256904D01*
X128498173Y-120260636D01*
X128496447Y-120264041D01*
X128494564Y-120267135D01*
X128492507Y-120269937D01*
X128490258Y-120272464D01*
X128487800Y-120274735D01*
X128485115Y-120276767D01*
X128482185Y-120278579D01*
X128478993Y-120280187D01*
X128475521Y-120281611D01*
X128471752Y-120282868D01*
X128467668Y-120283976D01*
X128463252Y-120284953D01*
X128453353Y-120286585D01*
X128441913Y-120287908D01*
X128413852Y-120290199D01*
X128401723Y-120290957D01*
X128390340Y-120291342D01*
X128379631Y-120291332D01*
X128369522Y-120290904D01*
X128359941Y-120290038D01*
X128350816Y-120288710D01*
X128342074Y-120286900D01*
X128333642Y-120284585D01*
X128325448Y-120281744D01*
X128317420Y-120278355D01*
X128309485Y-120274396D01*
X128301570Y-120269846D01*
X128293603Y-120264682D01*
X128285512Y-120258883D01*
X128277223Y-120252427D01*
X128268664Y-120245292D01*
X128268832Y-120244239D01*
X128209338Y-120193046D01*
X128209338Y-119776557D01*
X128210409Y-119546328D01*
X128212320Y-119470944D01*
X128215653Y-119416312D01*
X128217973Y-119395436D01*
X128220792Y-119378135D01*
X128224157Y-119363873D01*
X128228116Y-119352112D01*
X128232716Y-119342314D01*
X128238006Y-119333942D01*
X128250842Y-119319328D01*
X128254171Y-119316279D01*
X128257905Y-119313295D01*
X128262080Y-119310368D01*
X128266738Y-119307489D01*
X128271914Y-119304652D01*
X128277650Y-119301846D01*
X128283982Y-119299065D01*
X128290950Y-119296300D01*
X128306947Y-119290786D01*
X128325948Y-119285237D01*
X128348264Y-119279590D01*
X128374202Y-119273778D01*
X128404071Y-119267736D01*
X128438180Y-119261400D01*
X128476837Y-119254703D01*
X128520351Y-119247580D01*
X128569030Y-119239965D01*
X128623184Y-119231795D01*
X128749148Y-119213523D01*
X128928318Y-119186320D01*
X129078479Y-119160363D01*
X129137763Y-119148769D01*
X129183894Y-119138586D01*
X129213787Y-119130485D01*
X129607806Y-119130485D01*
X130865497Y-119130485D01*
X131753753Y-119127246D01*
X132023962Y-119123777D01*
X132123202Y-119119590D01*
X132123248Y-119119590D01*
X132122277Y-119117028D01*
X132119429Y-119111689D01*
X132108482Y-119093277D01*
X132091174Y-119065548D01*
X132068269Y-119029695D01*
X132008735Y-118938386D01*
X131936008Y-118828895D01*
X131748782Y-118549140D01*
X130092639Y-118549140D01*
X129888095Y-118792487D01*
X129732518Y-118978267D01*
X129645709Y-119083183D01*
X129607806Y-119130485D01*
X129213787Y-119130485D01*
X129214903Y-119130182D01*
X129224122Y-119126762D01*
G37*
X129224122Y-119126762D02*
X129228824Y-119123923D01*
X129262740Y-119084084D01*
X129338149Y-118993756D01*
X129568851Y-118715263D01*
X129695242Y-118563246D01*
X129804938Y-118433303D01*
X129886180Y-118339225D01*
X129912454Y-118309947D01*
X129927203Y-118294807D01*
X129930897Y-118291755D01*
X129934965Y-118288878D01*
X129939544Y-118286170D01*
X129944773Y-118283626D01*
X129950790Y-118281241D01*
X129957734Y-118279010D01*
X129965743Y-118276927D01*
X129974955Y-118274988D01*
X129985508Y-118273188D01*
X129997542Y-118271521D01*
X130011193Y-118269983D01*
X130026602Y-118268568D01*
X130043905Y-118267272D01*
X130063241Y-118266089D01*
X130108565Y-118264043D01*
X130163682Y-118262389D01*
X130229698Y-118261088D01*
X130307719Y-118260097D01*
X130398851Y-118259378D01*
X130504202Y-118258889D01*
X130624878Y-118258590D01*
X130916629Y-118258399D01*
X131396622Y-118259561D01*
X131692168Y-118263938D01*
X131784581Y-118267751D01*
X131847450Y-118272870D01*
X131886299Y-118279463D01*
X131906650Y-118287696D01*
X131912305Y-118292803D01*
X131920540Y-118301899D01*
X131931198Y-118314761D01*
X131944116Y-118331166D01*
X131976102Y-118373715D01*
X132015222Y-118427760D01*
X132060200Y-118491521D01*
X132109762Y-118563213D01*
X132162631Y-118641053D01*
X132217532Y-118723258D01*
X132486590Y-119129523D01*
X132759418Y-119129996D01*
X132889669Y-119129616D01*
X132941494Y-119130476D01*
X132985338Y-119133400D01*
X133004473Y-119135954D01*
X133021862Y-119139408D01*
X133037587Y-119143888D01*
X133051731Y-119149524D01*
X133064376Y-119156441D01*
X133075607Y-119164768D01*
X133085505Y-119174633D01*
X133094153Y-119186164D01*
X133101636Y-119199488D01*
X133108034Y-119214733D01*
X133113432Y-119232027D01*
X133117912Y-119251498D01*
X133121558Y-119273273D01*
X133124451Y-119297480D01*
X133128314Y-119353701D01*
X133130163Y-119421184D01*
X133130663Y-119500951D01*
X133130267Y-119701423D01*
X133130267Y-120193000D01*
X133072070Y-120243095D01*
X133062508Y-120251105D01*
X133053340Y-120258223D01*
X133048822Y-120261464D01*
X133044305Y-120264501D01*
X133039758Y-120267340D01*
X133035147Y-120269989D01*
X133030440Y-120272454D01*
X133025606Y-120274741D01*
X133020611Y-120276856D01*
X133015423Y-120278807D01*
X133010010Y-120280599D01*
X133004339Y-120282239D01*
X132998379Y-120283734D01*
X132992097Y-120285091D01*
X132985460Y-120286314D01*
X132978437Y-120287412D01*
X132970994Y-120288391D01*
X132963100Y-120289256D01*
X132945828Y-120290674D01*
X132926362Y-120291718D01*
X132904443Y-120292439D01*
X132879813Y-120292890D01*
X132852213Y-120293123D01*
X132821384Y-120293189D01*
X132628894Y-120293189D01*
X132605289Y-120166618D01*
X132599263Y-120137660D01*
X132592078Y-120109298D01*
X132583761Y-120081553D01*
X132574336Y-120054446D01*
X132563831Y-120028000D01*
X132552272Y-120002235D01*
X132539685Y-119977174D01*
X132526096Y-119952837D01*
X132511531Y-119929246D01*
X132496016Y-119906423D01*
X132479578Y-119884390D01*
X132462243Y-119863167D01*
X132444037Y-119842777D01*
X132424986Y-119823240D01*
X132405116Y-119804579D01*
X132384454Y-119786815D01*
X132363025Y-119769969D01*
X132340857Y-119754064D01*
X132317975Y-119739119D01*
X132294405Y-119725158D01*
X132270173Y-119712202D01*
X132245306Y-119700272D01*
X132219830Y-119689389D01*
X132193771Y-119679576D01*
X132167155Y-119670853D01*
X132140009Y-119663242D01*
X132112359Y-119656766D01*
X132084230Y-119651444D01*
X132055649Y-119647300D01*
X132026642Y-119644354D01*
X131997236Y-119642627D01*
X131967456Y-119642142D01*
X131938074Y-119642983D01*
X131908988Y-119645110D01*
X131880232Y-119648496D01*
X131851838Y-119653115D01*
X131823840Y-119658936D01*
X131796272Y-119665934D01*
X131769166Y-119674080D01*
X131742556Y-119683347D01*
X131716476Y-119693706D01*
X131690959Y-119705131D01*
X131666038Y-119717592D01*
X131641746Y-119731063D01*
X131618117Y-119745516D01*
X131595184Y-119760922D01*
X131572981Y-119777255D01*
X131551541Y-119794486D01*
X131530898Y-119812588D01*
X131511084Y-119831533D01*
X131492132Y-119851293D01*
X131474078Y-119871840D01*
X131456953Y-119893146D01*
X131440791Y-119915185D01*
X131425625Y-119937928D01*
X131411490Y-119961347D01*
X131398417Y-119985414D01*
X131386441Y-120010103D01*
X131375595Y-120035384D01*
X131365912Y-120061231D01*
X131357426Y-120087615D01*
X131350170Y-120114509D01*
X131344177Y-120141885D01*
X131339480Y-120169715D01*
X131323184Y-120282798D01*
X130560412Y-120288795D01*
X129797626Y-120294791D01*
X129797626Y-120232490D01*
X129796852Y-120215830D01*
X129794599Y-120197331D01*
X129790966Y-120177250D01*
X129786053Y-120155843D01*
X129779959Y-120133366D01*
X129772785Y-120110075D01*
X129764630Y-120086226D01*
X129755593Y-120062076D01*
X129745776Y-120037880D01*
X129735277Y-120013895D01*
X129724196Y-119990377D01*
X129712634Y-119967582D01*
X129700689Y-119945766D01*
X129688463Y-119925186D01*
X129676054Y-119906096D01*
X129663562Y-119888755D01*
X129651427Y-119873502D01*
X129638567Y-119858593D01*
X129610800Y-119829862D01*
X129580531Y-119802674D01*
X129548027Y-119777145D01*
X129513557Y-119753388D01*
X129477388Y-119731516D01*
X129439790Y-119711644D01*
X129401029Y-119693885D01*
X129361374Y-119678354D01*
X129321093Y-119665163D01*
X129280455Y-119654428D01*
X129239728Y-119646262D01*
X129199179Y-119640778D01*
X129159077Y-119638091D01*
X129119690Y-119638315D01*
X129100349Y-119639554D01*
X129081286Y-119641563D01*
X129054296Y-119645565D01*
X129027629Y-119650676D01*
X129001313Y-119656867D01*
X128975376Y-119664114D01*
X128949844Y-119672389D01*
X128924745Y-119681667D01*
X128900106Y-119691922D01*
X128875954Y-119703126D01*
X128829220Y-119728282D01*
X128784760Y-119756925D01*
X128742792Y-119788846D01*
X128703532Y-119823835D01*
X128667199Y-119861682D01*
X128634009Y-119902179D01*
X128604179Y-119945115D01*
X128590593Y-119967433D01*
X128577928Y-119990282D01*
X128566212Y-120013636D01*
X128555472Y-120037470D01*
X128545735Y-120061756D01*
X128537029Y-120086469D01*
X128529380Y-120111582D01*
X128522815Y-120137070D01*
X128517363Y-120162906D01*
X128513049Y-120189063D01*
X128508444Y-120220083D01*
X128506220Y-120232692D01*
X128503860Y-120243558D01*
X128501225Y-120252825D01*
X128499760Y-120256904D01*
X128498173Y-120260636D01*
X128496447Y-120264041D01*
X128494564Y-120267135D01*
X128492507Y-120269937D01*
X128490258Y-120272464D01*
X128487800Y-120274735D01*
X128485115Y-120276767D01*
X128482185Y-120278579D01*
X128478993Y-120280187D01*
X128475521Y-120281611D01*
X128471752Y-120282868D01*
X128467668Y-120283976D01*
X128463252Y-120284953D01*
X128453353Y-120286585D01*
X128441913Y-120287908D01*
X128413852Y-120290199D01*
X128401723Y-120290957D01*
X128390340Y-120291342D01*
X128379631Y-120291332D01*
X128369522Y-120290904D01*
X128359941Y-120290038D01*
X128350816Y-120288710D01*
X128342074Y-120286900D01*
X128333642Y-120284585D01*
X128325448Y-120281744D01*
X128317420Y-120278355D01*
X128309485Y-120274396D01*
X128301570Y-120269846D01*
X128293603Y-120264682D01*
X128285512Y-120258883D01*
X128277223Y-120252427D01*
X128268664Y-120245292D01*
X128268832Y-120244239D01*
X128209338Y-120193046D01*
X128209338Y-119776557D01*
X128210409Y-119546328D01*
X128212320Y-119470944D01*
X128215653Y-119416312D01*
X128217973Y-119395436D01*
X128220792Y-119378135D01*
X128224157Y-119363873D01*
X128228116Y-119352112D01*
X128232716Y-119342314D01*
X128238006Y-119333942D01*
X128250842Y-119319328D01*
X128254171Y-119316279D01*
X128257905Y-119313295D01*
X128262080Y-119310368D01*
X128266738Y-119307489D01*
X128271914Y-119304652D01*
X128277650Y-119301846D01*
X128283982Y-119299065D01*
X128290950Y-119296300D01*
X128306947Y-119290786D01*
X128325948Y-119285237D01*
X128348264Y-119279590D01*
X128374202Y-119273778D01*
X128404071Y-119267736D01*
X128438180Y-119261400D01*
X128476837Y-119254703D01*
X128520351Y-119247580D01*
X128569030Y-119239965D01*
X128623184Y-119231795D01*
X128749148Y-119213523D01*
X128928318Y-119186320D01*
X129078479Y-119160363D01*
X129137763Y-119148769D01*
X129183894Y-119138586D01*
X129213787Y-119130485D01*
X129607806Y-119130485D01*
X130865497Y-119130485D01*
X131753753Y-119127246D01*
X132023962Y-119123777D01*
X132123202Y-119119590D01*
X132123248Y-119119590D01*
X132122277Y-119117028D01*
X132119429Y-119111689D01*
X132108482Y-119093277D01*
X132091174Y-119065548D01*
X132068269Y-119029695D01*
X132008735Y-118938386D01*
X131936008Y-118828895D01*
X131748782Y-118549140D01*
X130092639Y-118549140D01*
X129888095Y-118792487D01*
X129732518Y-118978267D01*
X129645709Y-119083183D01*
X129607806Y-119130485D01*
X129213787Y-119130485D01*
X129214903Y-119130182D01*
X129224122Y-119126762D01*
G36*
X128650084Y-120231939D02*
G01*
X128653632Y-120205212D01*
X128658675Y-120178577D01*
X128665237Y-120152090D01*
X128673340Y-120125808D01*
X128683005Y-120099791D01*
X128694254Y-120074093D01*
X128707110Y-120048774D01*
X128723693Y-120020274D01*
X128741537Y-119993313D01*
X128760573Y-119967898D01*
X128780733Y-119944038D01*
X128801948Y-119921743D01*
X128824148Y-119901021D01*
X128847266Y-119881882D01*
X128871231Y-119864334D01*
X128895975Y-119848385D01*
X128921429Y-119834046D01*
X128947525Y-119821325D01*
X128974192Y-119810230D01*
X129001363Y-119800771D01*
X129028968Y-119792956D01*
X129056939Y-119786795D01*
X129085206Y-119782296D01*
X129113701Y-119779469D01*
X129142354Y-119778321D01*
X129171097Y-119778863D01*
X129199861Y-119781103D01*
X129228577Y-119785049D01*
X129257176Y-119790711D01*
X129285589Y-119798098D01*
X129313747Y-119807219D01*
X129341581Y-119818081D01*
X129369022Y-119830695D01*
X129396002Y-119845070D01*
X129422451Y-119861213D01*
X129448301Y-119879135D01*
X129473482Y-119898843D01*
X129497926Y-119920347D01*
X129521564Y-119943656D01*
X129537948Y-119961505D01*
X129553171Y-119979673D01*
X129567247Y-119998196D01*
X129580189Y-120017108D01*
X129592010Y-120036446D01*
X129602725Y-120056246D01*
X129612346Y-120076541D01*
X129620887Y-120097369D01*
X129628361Y-120118765D01*
X129634781Y-120140763D01*
X129640162Y-120163400D01*
X129644516Y-120186711D01*
X129647857Y-120210732D01*
X129650198Y-120235498D01*
X129651553Y-120261044D01*
X129651935Y-120287406D01*
X129651270Y-120314598D01*
X129649471Y-120341016D01*
X129646520Y-120366699D01*
X129642402Y-120391683D01*
X129637100Y-120416006D01*
X129630597Y-120439708D01*
X129622876Y-120462824D01*
X129613921Y-120485395D01*
X129603716Y-120507456D01*
X129592243Y-120529047D01*
X129579487Y-120550205D01*
X129565430Y-120570967D01*
X129550057Y-120591373D01*
X129533349Y-120611459D01*
X129515292Y-120631264D01*
X129495868Y-120650825D01*
X129470089Y-120673987D01*
X129442761Y-120695141D01*
X129414037Y-120714254D01*
X129384068Y-120731292D01*
X129353006Y-120746223D01*
X129321004Y-120759014D01*
X129288213Y-120769631D01*
X129254787Y-120778043D01*
X129220876Y-120784216D01*
X129186632Y-120788117D01*
X129152209Y-120789713D01*
X129117758Y-120788971D01*
X129083431Y-120785859D01*
X129049380Y-120780344D01*
X129015757Y-120772391D01*
X128982715Y-120761970D01*
X128956070Y-120751605D01*
X128930367Y-120739897D01*
X128905627Y-120726904D01*
X128881874Y-120712682D01*
X128859129Y-120697291D01*
X128837414Y-120680785D01*
X128816752Y-120663224D01*
X128797164Y-120644664D01*
X128778673Y-120625163D01*
X128761301Y-120604778D01*
X128745071Y-120583567D01*
X128730003Y-120561586D01*
X128716122Y-120538893D01*
X128703448Y-120515546D01*
X128692003Y-120491602D01*
X128681811Y-120467118D01*
X128672894Y-120442152D01*
X128665272Y-120416761D01*
X128658969Y-120391002D01*
X128654007Y-120364933D01*
X128650408Y-120338610D01*
X128648194Y-120312093D01*
X128647387Y-120285436D01*
X128647447Y-120282844D01*
X128946384Y-120282844D01*
X128946710Y-120300207D01*
X128947705Y-120316588D01*
X128949393Y-120332033D01*
X128951799Y-120346588D01*
X128954946Y-120360297D01*
X128958860Y-120373208D01*
X128963564Y-120385366D01*
X128969083Y-120396817D01*
X128975441Y-120407607D01*
X128982663Y-120417782D01*
X128990772Y-120427388D01*
X128999794Y-120436470D01*
X129009752Y-120445075D01*
X129020671Y-120453248D01*
X129032575Y-120461035D01*
X129045489Y-120468482D01*
X129058946Y-120475382D01*
X129072255Y-120481381D01*
X129085436Y-120486479D01*
X129098511Y-120490675D01*
X129111501Y-120493969D01*
X129124426Y-120496359D01*
X129137308Y-120497846D01*
X129150168Y-120498429D01*
X129163027Y-120498108D01*
X129175906Y-120496881D01*
X129188826Y-120494749D01*
X129201809Y-120491710D01*
X129214874Y-120487765D01*
X129228043Y-120482912D01*
X129241338Y-120477151D01*
X129254779Y-120470481D01*
X129254870Y-120471305D01*
X129265239Y-120465521D01*
X129275097Y-120459175D01*
X129284439Y-120452296D01*
X129293262Y-120444913D01*
X129301560Y-120437054D01*
X129309328Y-120428749D01*
X129316561Y-120420027D01*
X129323255Y-120410917D01*
X129329404Y-120401447D01*
X129335003Y-120391646D01*
X129340048Y-120381544D01*
X129344533Y-120371170D01*
X129348454Y-120360552D01*
X129351806Y-120349719D01*
X129354584Y-120338700D01*
X129356782Y-120327525D01*
X129358396Y-120316222D01*
X129359422Y-120304821D01*
X129359853Y-120293349D01*
X129359686Y-120281837D01*
X129358915Y-120270312D01*
X129357535Y-120258805D01*
X129355542Y-120247344D01*
X129352930Y-120235957D01*
X129349695Y-120224675D01*
X129345831Y-120213525D01*
X129341334Y-120202537D01*
X129336198Y-120191740D01*
X129330420Y-120181163D01*
X129323994Y-120170834D01*
X129316914Y-120160783D01*
X129309177Y-120151038D01*
X129302957Y-120143878D01*
X129296636Y-120137061D01*
X129290214Y-120130588D01*
X129283692Y-120124457D01*
X129277071Y-120118671D01*
X129270353Y-120113228D01*
X129263537Y-120108129D01*
X129256626Y-120103374D01*
X129249619Y-120098963D01*
X129242519Y-120094897D01*
X129235325Y-120091176D01*
X129228039Y-120087800D01*
X129220662Y-120084770D01*
X129213194Y-120082084D01*
X129205637Y-120079744D01*
X129197991Y-120077750D01*
X129190259Y-120076102D01*
X129182439Y-120074801D01*
X129174534Y-120073845D01*
X129166544Y-120073236D01*
X129158471Y-120072974D01*
X129150315Y-120073059D01*
X129142077Y-120073492D01*
X129133758Y-120074271D01*
X129125359Y-120075399D01*
X129116881Y-120076874D01*
X129108326Y-120078697D01*
X129099693Y-120080868D01*
X129090984Y-120083388D01*
X129082200Y-120086256D01*
X129073342Y-120089473D01*
X129064410Y-120093040D01*
X129048830Y-120099990D01*
X129034503Y-120107340D01*
X129027800Y-120111182D01*
X129021397Y-120115144D01*
X129015290Y-120119233D01*
X129009476Y-120123456D01*
X129003949Y-120127820D01*
X128998706Y-120132332D01*
X128993741Y-120136999D01*
X128989052Y-120141827D01*
X128984634Y-120146823D01*
X128980481Y-120151995D01*
X128976591Y-120157348D01*
X128972959Y-120162891D01*
X128969580Y-120168629D01*
X128966450Y-120174569D01*
X128963564Y-120180719D01*
X128960920Y-120187086D01*
X128958511Y-120193675D01*
X128956335Y-120200495D01*
X128954386Y-120207551D01*
X128952661Y-120214851D01*
X128951155Y-120222401D01*
X128949863Y-120230209D01*
X128948782Y-120238281D01*
X128947907Y-120246624D01*
X128946759Y-120264151D01*
X128946384Y-120282844D01*
X128647447Y-120282844D01*
X128648009Y-120258699D01*
X128650084Y-120231939D01*
G37*
X128650084Y-120231939D02*
X128653632Y-120205212D01*
X128658675Y-120178577D01*
X128665237Y-120152090D01*
X128673340Y-120125808D01*
X128683005Y-120099791D01*
X128694254Y-120074093D01*
X128707110Y-120048774D01*
X128723693Y-120020274D01*
X128741537Y-119993313D01*
X128760573Y-119967898D01*
X128780733Y-119944038D01*
X128801948Y-119921743D01*
X128824148Y-119901021D01*
X128847266Y-119881882D01*
X128871231Y-119864334D01*
X128895975Y-119848385D01*
X128921429Y-119834046D01*
X128947525Y-119821325D01*
X128974192Y-119810230D01*
X129001363Y-119800771D01*
X129028968Y-119792956D01*
X129056939Y-119786795D01*
X129085206Y-119782296D01*
X129113701Y-119779469D01*
X129142354Y-119778321D01*
X129171097Y-119778863D01*
X129199861Y-119781103D01*
X129228577Y-119785049D01*
X129257176Y-119790711D01*
X129285589Y-119798098D01*
X129313747Y-119807219D01*
X129341581Y-119818081D01*
X129369022Y-119830695D01*
X129396002Y-119845070D01*
X129422451Y-119861213D01*
X129448301Y-119879135D01*
X129473482Y-119898843D01*
X129497926Y-119920347D01*
X129521564Y-119943656D01*
X129537948Y-119961505D01*
X129553171Y-119979673D01*
X129567247Y-119998196D01*
X129580189Y-120017108D01*
X129592010Y-120036446D01*
X129602725Y-120056246D01*
X129612346Y-120076541D01*
X129620887Y-120097369D01*
X129628361Y-120118765D01*
X129634781Y-120140763D01*
X129640162Y-120163400D01*
X129644516Y-120186711D01*
X129647857Y-120210732D01*
X129650198Y-120235498D01*
X129651553Y-120261044D01*
X129651935Y-120287406D01*
X129651270Y-120314598D01*
X129649471Y-120341016D01*
X129646520Y-120366699D01*
X129642402Y-120391683D01*
X129637100Y-120416006D01*
X129630597Y-120439708D01*
X129622876Y-120462824D01*
X129613921Y-120485395D01*
X129603716Y-120507456D01*
X129592243Y-120529047D01*
X129579487Y-120550205D01*
X129565430Y-120570967D01*
X129550057Y-120591373D01*
X129533349Y-120611459D01*
X129515292Y-120631264D01*
X129495868Y-120650825D01*
X129470089Y-120673987D01*
X129442761Y-120695141D01*
X129414037Y-120714254D01*
X129384068Y-120731292D01*
X129353006Y-120746223D01*
X129321004Y-120759014D01*
X129288213Y-120769631D01*
X129254787Y-120778043D01*
X129220876Y-120784216D01*
X129186632Y-120788117D01*
X129152209Y-120789713D01*
X129117758Y-120788971D01*
X129083431Y-120785859D01*
X129049380Y-120780344D01*
X129015757Y-120772391D01*
X128982715Y-120761970D01*
X128956070Y-120751605D01*
X128930367Y-120739897D01*
X128905627Y-120726904D01*
X128881874Y-120712682D01*
X128859129Y-120697291D01*
X128837414Y-120680785D01*
X128816752Y-120663224D01*
X128797164Y-120644664D01*
X128778673Y-120625163D01*
X128761301Y-120604778D01*
X128745071Y-120583567D01*
X128730003Y-120561586D01*
X128716122Y-120538893D01*
X128703448Y-120515546D01*
X128692003Y-120491602D01*
X128681811Y-120467118D01*
X128672894Y-120442152D01*
X128665272Y-120416761D01*
X128658969Y-120391002D01*
X128654007Y-120364933D01*
X128650408Y-120338610D01*
X128648194Y-120312093D01*
X128647387Y-120285436D01*
X128647447Y-120282844D01*
X128946384Y-120282844D01*
X128946710Y-120300207D01*
X128947705Y-120316588D01*
X128949393Y-120332033D01*
X128951799Y-120346588D01*
X128954946Y-120360297D01*
X128958860Y-120373208D01*
X128963564Y-120385366D01*
X128969083Y-120396817D01*
X128975441Y-120407607D01*
X128982663Y-120417782D01*
X128990772Y-120427388D01*
X128999794Y-120436470D01*
X129009752Y-120445075D01*
X129020671Y-120453248D01*
X129032575Y-120461035D01*
X129045489Y-120468482D01*
X129058946Y-120475382D01*
X129072255Y-120481381D01*
X129085436Y-120486479D01*
X129098511Y-120490675D01*
X129111501Y-120493969D01*
X129124426Y-120496359D01*
X129137308Y-120497846D01*
X129150168Y-120498429D01*
X129163027Y-120498108D01*
X129175906Y-120496881D01*
X129188826Y-120494749D01*
X129201809Y-120491710D01*
X129214874Y-120487765D01*
X129228043Y-120482912D01*
X129241338Y-120477151D01*
X129254779Y-120470481D01*
X129254870Y-120471305D01*
X129265239Y-120465521D01*
X129275097Y-120459175D01*
X129284439Y-120452296D01*
X129293262Y-120444913D01*
X129301560Y-120437054D01*
X129309328Y-120428749D01*
X129316561Y-120420027D01*
X129323255Y-120410917D01*
X129329404Y-120401447D01*
X129335003Y-120391646D01*
X129340048Y-120381544D01*
X129344533Y-120371170D01*
X129348454Y-120360552D01*
X129351806Y-120349719D01*
X129354584Y-120338700D01*
X129356782Y-120327525D01*
X129358396Y-120316222D01*
X129359422Y-120304821D01*
X129359853Y-120293349D01*
X129359686Y-120281837D01*
X129358915Y-120270312D01*
X129357535Y-120258805D01*
X129355542Y-120247344D01*
X129352930Y-120235957D01*
X129349695Y-120224675D01*
X129345831Y-120213525D01*
X129341334Y-120202537D01*
X129336198Y-120191740D01*
X129330420Y-120181163D01*
X129323994Y-120170834D01*
X129316914Y-120160783D01*
X129309177Y-120151038D01*
X129302957Y-120143878D01*
X129296636Y-120137061D01*
X129290214Y-120130588D01*
X129283692Y-120124457D01*
X129277071Y-120118671D01*
X129270353Y-120113228D01*
X129263537Y-120108129D01*
X129256626Y-120103374D01*
X129249619Y-120098963D01*
X129242519Y-120094897D01*
X129235325Y-120091176D01*
X129228039Y-120087800D01*
X129220662Y-120084770D01*
X129213194Y-120082084D01*
X129205637Y-120079744D01*
X129197991Y-120077750D01*
X129190259Y-120076102D01*
X129182439Y-120074801D01*
X129174534Y-120073845D01*
X129166544Y-120073236D01*
X129158471Y-120072974D01*
X129150315Y-120073059D01*
X129142077Y-120073492D01*
X129133758Y-120074271D01*
X129125359Y-120075399D01*
X129116881Y-120076874D01*
X129108326Y-120078697D01*
X129099693Y-120080868D01*
X129090984Y-120083388D01*
X129082200Y-120086256D01*
X129073342Y-120089473D01*
X129064410Y-120093040D01*
X129048830Y-120099990D01*
X129034503Y-120107340D01*
X129027800Y-120111182D01*
X129021397Y-120115144D01*
X129015290Y-120119233D01*
X129009476Y-120123456D01*
X129003949Y-120127820D01*
X128998706Y-120132332D01*
X128993741Y-120136999D01*
X128989052Y-120141827D01*
X128984634Y-120146823D01*
X128980481Y-120151995D01*
X128976591Y-120157348D01*
X128972959Y-120162891D01*
X128969580Y-120168629D01*
X128966450Y-120174569D01*
X128963564Y-120180719D01*
X128960920Y-120187086D01*
X128958511Y-120193675D01*
X128956335Y-120200495D01*
X128954386Y-120207551D01*
X128952661Y-120214851D01*
X128951155Y-120222401D01*
X128949863Y-120230209D01*
X128948782Y-120238281D01*
X128947907Y-120246624D01*
X128946759Y-120264151D01*
X128946384Y-120282844D01*
X128647447Y-120282844D01*
X128648009Y-120258699D01*
X128650084Y-120231939D01*
G36*
X131467406Y-120245012D02*
G01*
X131470627Y-120214336D01*
X131475773Y-120183813D01*
X131482865Y-120153533D01*
X131491926Y-120123589D01*
X131502976Y-120094073D01*
X131516038Y-120065075D01*
X131531132Y-120036689D01*
X131548280Y-120009004D01*
X131567503Y-119982114D01*
X131588823Y-119956110D01*
X131612262Y-119931083D01*
X131636837Y-119907926D01*
X131662242Y-119886719D01*
X131688400Y-119867445D01*
X131715235Y-119850091D01*
X131742671Y-119834644D01*
X131770632Y-119821087D01*
X131799043Y-119809408D01*
X131827827Y-119799591D01*
X131856908Y-119791623D01*
X131886210Y-119785489D01*
X131915657Y-119781175D01*
X131945174Y-119778667D01*
X131974684Y-119777950D01*
X132004111Y-119779010D01*
X132033380Y-119781832D01*
X132062413Y-119786403D01*
X132091136Y-119792708D01*
X132119472Y-119800732D01*
X132147346Y-119810462D01*
X132174681Y-119821884D01*
X132201401Y-119834982D01*
X132227430Y-119849742D01*
X132252693Y-119866151D01*
X132277113Y-119884194D01*
X132300614Y-119903856D01*
X132323121Y-119925123D01*
X132344557Y-119947982D01*
X132364846Y-119972417D01*
X132383913Y-119998415D01*
X132401681Y-120025961D01*
X132418074Y-120055040D01*
X132433017Y-120085639D01*
X132447897Y-120122298D01*
X132459510Y-120159082D01*
X132467961Y-120195878D01*
X132473353Y-120232575D01*
X132475792Y-120269059D01*
X132475382Y-120305218D01*
X132472227Y-120340939D01*
X132466431Y-120376110D01*
X132458099Y-120410616D01*
X132447336Y-120444347D01*
X132434245Y-120477189D01*
X132418930Y-120509030D01*
X132401498Y-120539756D01*
X132382051Y-120569256D01*
X132360694Y-120597416D01*
X132337531Y-120624124D01*
X132312668Y-120649267D01*
X132286207Y-120672732D01*
X132258254Y-120694407D01*
X132228914Y-120714179D01*
X132198289Y-120731935D01*
X132166485Y-120747563D01*
X132133607Y-120760949D01*
X132099758Y-120771982D01*
X132065043Y-120780549D01*
X132029566Y-120786536D01*
X131993431Y-120789831D01*
X131956744Y-120790322D01*
X131919608Y-120787895D01*
X131882128Y-120782439D01*
X131844408Y-120773840D01*
X131806552Y-120761985D01*
X131806552Y-120761970D01*
X131774293Y-120749279D01*
X131743510Y-120734816D01*
X131714223Y-120718670D01*
X131686454Y-120700934D01*
X131660224Y-120681701D01*
X131635556Y-120661060D01*
X131612469Y-120639105D01*
X131590987Y-120615926D01*
X131571129Y-120591616D01*
X131552918Y-120566266D01*
X131536375Y-120539968D01*
X131521522Y-120512813D01*
X131508380Y-120484894D01*
X131496969Y-120456301D01*
X131487313Y-120427127D01*
X131479432Y-120397464D01*
X131473348Y-120367403D01*
X131469082Y-120337035D01*
X131466655Y-120306453D01*
X131466276Y-120285908D01*
X131757139Y-120285908D01*
X131757556Y-120294110D01*
X131758596Y-120302344D01*
X131760268Y-120310731D01*
X131762583Y-120319393D01*
X131765552Y-120328452D01*
X131769184Y-120338030D01*
X131773490Y-120348250D01*
X131778481Y-120359233D01*
X131784167Y-120371101D01*
X131791087Y-120384433D01*
X131798424Y-120397061D01*
X131806161Y-120408980D01*
X131814276Y-120420186D01*
X131822750Y-120430676D01*
X131831564Y-120440447D01*
X131840697Y-120449495D01*
X131850129Y-120457816D01*
X131859842Y-120465407D01*
X131869814Y-120472264D01*
X131880027Y-120478384D01*
X131890460Y-120483763D01*
X131901094Y-120488398D01*
X131911909Y-120492284D01*
X131922884Y-120495420D01*
X131934001Y-120497800D01*
X131945239Y-120499422D01*
X131956579Y-120500281D01*
X131968001Y-120500375D01*
X131979485Y-120499700D01*
X131991011Y-120498252D01*
X132002559Y-120496028D01*
X132014110Y-120493024D01*
X132025643Y-120489236D01*
X132037140Y-120484661D01*
X132048580Y-120479296D01*
X132059943Y-120473137D01*
X132071210Y-120466180D01*
X132082361Y-120458422D01*
X132093375Y-120449859D01*
X132104234Y-120440488D01*
X132114917Y-120430305D01*
X132114932Y-120430305D01*
X132123283Y-120421679D01*
X132131123Y-120413014D01*
X132138453Y-120404312D01*
X132145272Y-120395577D01*
X132151580Y-120386811D01*
X132157378Y-120378016D01*
X132162664Y-120369195D01*
X132167440Y-120360350D01*
X132171704Y-120351484D01*
X132175457Y-120342600D01*
X132178698Y-120333699D01*
X132181428Y-120324785D01*
X132183646Y-120315860D01*
X132185353Y-120306926D01*
X132186548Y-120297986D01*
X132187230Y-120289043D01*
X132187401Y-120280098D01*
X132187059Y-120271156D01*
X132186205Y-120262217D01*
X132184839Y-120253285D01*
X132182960Y-120244362D01*
X132180569Y-120235450D01*
X132177665Y-120226553D01*
X132174248Y-120217672D01*
X132170318Y-120208811D01*
X132165875Y-120199971D01*
X132160918Y-120191155D01*
X132155449Y-120182366D01*
X132149466Y-120173607D01*
X132142970Y-120164879D01*
X132135960Y-120156186D01*
X132128436Y-120147529D01*
X132117576Y-120136208D01*
X132106298Y-120125842D01*
X132094640Y-120116423D01*
X132082644Y-120107942D01*
X132070348Y-120100391D01*
X132057793Y-120093763D01*
X132045019Y-120088049D01*
X132032065Y-120083242D01*
X132018970Y-120079334D01*
X132005776Y-120076316D01*
X131992521Y-120074181D01*
X131979246Y-120072921D01*
X131965991Y-120072527D01*
X131952794Y-120072992D01*
X131939697Y-120074308D01*
X131926738Y-120076467D01*
X131913958Y-120079460D01*
X131901396Y-120083281D01*
X131889093Y-120087920D01*
X131877088Y-120093370D01*
X131865420Y-120099623D01*
X131854131Y-120106671D01*
X131843259Y-120114507D01*
X131832844Y-120123121D01*
X131822926Y-120132506D01*
X131813546Y-120142654D01*
X131804742Y-120153558D01*
X131796555Y-120165208D01*
X131789025Y-120177598D01*
X131782190Y-120190719D01*
X131776092Y-120204564D01*
X131770770Y-120219123D01*
X131767122Y-120230522D01*
X131764023Y-120241097D01*
X131761485Y-120250973D01*
X131759517Y-120260270D01*
X131758129Y-120269110D01*
X131757333Y-120277615D01*
X131757139Y-120285908D01*
X131466276Y-120285908D01*
X131466089Y-120275748D01*
X131467406Y-120245012D01*
G37*
X131467406Y-120245012D02*
X131470627Y-120214336D01*
X131475773Y-120183813D01*
X131482865Y-120153533D01*
X131491926Y-120123589D01*
X131502976Y-120094073D01*
X131516038Y-120065075D01*
X131531132Y-120036689D01*
X131548280Y-120009004D01*
X131567503Y-119982114D01*
X131588823Y-119956110D01*
X131612262Y-119931083D01*
X131636837Y-119907926D01*
X131662242Y-119886719D01*
X131688400Y-119867445D01*
X131715235Y-119850091D01*
X131742671Y-119834644D01*
X131770632Y-119821087D01*
X131799043Y-119809408D01*
X131827827Y-119799591D01*
X131856908Y-119791623D01*
X131886210Y-119785489D01*
X131915657Y-119781175D01*
X131945174Y-119778667D01*
X131974684Y-119777950D01*
X132004111Y-119779010D01*
X132033380Y-119781832D01*
X132062413Y-119786403D01*
X132091136Y-119792708D01*
X132119472Y-119800732D01*
X132147346Y-119810462D01*
X132174681Y-119821884D01*
X132201401Y-119834982D01*
X132227430Y-119849742D01*
X132252693Y-119866151D01*
X132277113Y-119884194D01*
X132300614Y-119903856D01*
X132323121Y-119925123D01*
X132344557Y-119947982D01*
X132364846Y-119972417D01*
X132383913Y-119998415D01*
X132401681Y-120025961D01*
X132418074Y-120055040D01*
X132433017Y-120085639D01*
X132447897Y-120122298D01*
X132459510Y-120159082D01*
X132467961Y-120195878D01*
X132473353Y-120232575D01*
X132475792Y-120269059D01*
X132475382Y-120305218D01*
X132472227Y-120340939D01*
X132466431Y-120376110D01*
X132458099Y-120410616D01*
X132447336Y-120444347D01*
X132434245Y-120477189D01*
X132418930Y-120509030D01*
X132401498Y-120539756D01*
X132382051Y-120569256D01*
X132360694Y-120597416D01*
X132337531Y-120624124D01*
X132312668Y-120649267D01*
X132286207Y-120672732D01*
X132258254Y-120694407D01*
X132228914Y-120714179D01*
X132198289Y-120731935D01*
X132166485Y-120747563D01*
X132133607Y-120760949D01*
X132099758Y-120771982D01*
X132065043Y-120780549D01*
X132029566Y-120786536D01*
X131993431Y-120789831D01*
X131956744Y-120790322D01*
X131919608Y-120787895D01*
X131882128Y-120782439D01*
X131844408Y-120773840D01*
X131806552Y-120761985D01*
X131806552Y-120761970D01*
X131774293Y-120749279D01*
X131743510Y-120734816D01*
X131714223Y-120718670D01*
X131686454Y-120700934D01*
X131660224Y-120681701D01*
X131635556Y-120661060D01*
X131612469Y-120639105D01*
X131590987Y-120615926D01*
X131571129Y-120591616D01*
X131552918Y-120566266D01*
X131536375Y-120539968D01*
X131521522Y-120512813D01*
X131508380Y-120484894D01*
X131496969Y-120456301D01*
X131487313Y-120427127D01*
X131479432Y-120397464D01*
X131473348Y-120367403D01*
X131469082Y-120337035D01*
X131466655Y-120306453D01*
X131466276Y-120285908D01*
X131757139Y-120285908D01*
X131757556Y-120294110D01*
X131758596Y-120302344D01*
X131760268Y-120310731D01*
X131762583Y-120319393D01*
X131765552Y-120328452D01*
X131769184Y-120338030D01*
X131773490Y-120348250D01*
X131778481Y-120359233D01*
X131784167Y-120371101D01*
X131791087Y-120384433D01*
X131798424Y-120397061D01*
X131806161Y-120408980D01*
X131814276Y-120420186D01*
X131822750Y-120430676D01*
X131831564Y-120440447D01*
X131840697Y-120449495D01*
X131850129Y-120457816D01*
X131859842Y-120465407D01*
X131869814Y-120472264D01*
X131880027Y-120478384D01*
X131890460Y-120483763D01*
X131901094Y-120488398D01*
X131911909Y-120492284D01*
X131922884Y-120495420D01*
X131934001Y-120497800D01*
X131945239Y-120499422D01*
X131956579Y-120500281D01*
X131968001Y-120500375D01*
X131979485Y-120499700D01*
X131991011Y-120498252D01*
X132002559Y-120496028D01*
X132014110Y-120493024D01*
X132025643Y-120489236D01*
X132037140Y-120484661D01*
X132048580Y-120479296D01*
X132059943Y-120473137D01*
X132071210Y-120466180D01*
X132082361Y-120458422D01*
X132093375Y-120449859D01*
X132104234Y-120440488D01*
X132114917Y-120430305D01*
X132114932Y-120430305D01*
X132123283Y-120421679D01*
X132131123Y-120413014D01*
X132138453Y-120404312D01*
X132145272Y-120395577D01*
X132151580Y-120386811D01*
X132157378Y-120378016D01*
X132162664Y-120369195D01*
X132167440Y-120360350D01*
X132171704Y-120351484D01*
X132175457Y-120342600D01*
X132178698Y-120333699D01*
X132181428Y-120324785D01*
X132183646Y-120315860D01*
X132185353Y-120306926D01*
X132186548Y-120297986D01*
X132187230Y-120289043D01*
X132187401Y-120280098D01*
X132187059Y-120271156D01*
X132186205Y-120262217D01*
X132184839Y-120253285D01*
X132182960Y-120244362D01*
X132180569Y-120235450D01*
X132177665Y-120226553D01*
X132174248Y-120217672D01*
X132170318Y-120208811D01*
X132165875Y-120199971D01*
X132160918Y-120191155D01*
X132155449Y-120182366D01*
X132149466Y-120173607D01*
X132142970Y-120164879D01*
X132135960Y-120156186D01*
X132128436Y-120147529D01*
X132117576Y-120136208D01*
X132106298Y-120125842D01*
X132094640Y-120116423D01*
X132082644Y-120107942D01*
X132070348Y-120100391D01*
X132057793Y-120093763D01*
X132045019Y-120088049D01*
X132032065Y-120083242D01*
X132018970Y-120079334D01*
X132005776Y-120076316D01*
X131992521Y-120074181D01*
X131979246Y-120072921D01*
X131965991Y-120072527D01*
X131952794Y-120072992D01*
X131939697Y-120074308D01*
X131926738Y-120076467D01*
X131913958Y-120079460D01*
X131901396Y-120083281D01*
X131889093Y-120087920D01*
X131877088Y-120093370D01*
X131865420Y-120099623D01*
X131854131Y-120106671D01*
X131843259Y-120114507D01*
X131832844Y-120123121D01*
X131822926Y-120132506D01*
X131813546Y-120142654D01*
X131804742Y-120153558D01*
X131796555Y-120165208D01*
X131789025Y-120177598D01*
X131782190Y-120190719D01*
X131776092Y-120204564D01*
X131770770Y-120219123D01*
X131767122Y-120230522D01*
X131764023Y-120241097D01*
X131761485Y-120250973D01*
X131759517Y-120260270D01*
X131758129Y-120269110D01*
X131757333Y-120277615D01*
X131757139Y-120285908D01*
X131466276Y-120285908D01*
X131466089Y-120275748D01*
X131467406Y-120245012D01*
D10*
%TO.C,RST1*%
X127876190Y-106752380D02*
X127542857Y-106276190D01*
X127304761Y-106752380D02*
X127304761Y-105752380D01*
X127685714Y-105752380D01*
X127780952Y-105800000D01*
X127828571Y-105847619D01*
X127876190Y-105942857D01*
X127876190Y-106085714D01*
X127828571Y-106180952D01*
X127780952Y-106228571D01*
X127685714Y-106276190D01*
X127304761Y-106276190D01*
X128257142Y-106704761D02*
X128400000Y-106752380D01*
X128638095Y-106752380D01*
X128733333Y-106704761D01*
X128780952Y-106657142D01*
X128828571Y-106561904D01*
X128828571Y-106466666D01*
X128780952Y-106371428D01*
X128733333Y-106323809D01*
X128638095Y-106276190D01*
X128447619Y-106228571D01*
X128352380Y-106180952D01*
X128304761Y-106133333D01*
X128257142Y-106038095D01*
X128257142Y-105942857D01*
X128304761Y-105847619D01*
X128352380Y-105800000D01*
X128447619Y-105752380D01*
X128685714Y-105752380D01*
X128828571Y-105800000D01*
X129114285Y-105752380D02*
X129685714Y-105752380D01*
X129400000Y-106752380D02*
X129400000Y-105752380D01*
X130542857Y-106752380D02*
X129971428Y-106752380D01*
X130257142Y-106752380D02*
X130257142Y-105752380D01*
X130161904Y-105895238D01*
X130066666Y-105990476D01*
X129971428Y-106038095D01*
%TO.C,BOOT1*%
X129028571Y-115933333D02*
X129076190Y-115790476D01*
X129123809Y-115742857D01*
X129219047Y-115695238D01*
X129361904Y-115695238D01*
X129457142Y-115742857D01*
X129504761Y-115790476D01*
X129552380Y-115885714D01*
X129552380Y-116266666D01*
X128552380Y-116266666D01*
X128552380Y-115933333D01*
X128600000Y-115838095D01*
X128647619Y-115790476D01*
X128742857Y-115742857D01*
X128838095Y-115742857D01*
X128933333Y-115790476D01*
X128980952Y-115838095D01*
X129028571Y-115933333D01*
X129028571Y-116266666D01*
X128552380Y-115076190D02*
X128552380Y-114885714D01*
X128600000Y-114790476D01*
X128695238Y-114695238D01*
X128885714Y-114647619D01*
X129219047Y-114647619D01*
X129409523Y-114695238D01*
X129504761Y-114790476D01*
X129552380Y-114885714D01*
X129552380Y-115076190D01*
X129504761Y-115171428D01*
X129409523Y-115266666D01*
X129219047Y-115314285D01*
X128885714Y-115314285D01*
X128695238Y-115266666D01*
X128600000Y-115171428D01*
X128552380Y-115076190D01*
X128552380Y-114028571D02*
X128552380Y-113838095D01*
X128600000Y-113742857D01*
X128695238Y-113647619D01*
X128885714Y-113600000D01*
X129219047Y-113600000D01*
X129409523Y-113647619D01*
X129504761Y-113742857D01*
X129552380Y-113838095D01*
X129552380Y-114028571D01*
X129504761Y-114123809D01*
X129409523Y-114219047D01*
X129219047Y-114266666D01*
X128885714Y-114266666D01*
X128695238Y-114219047D01*
X128600000Y-114123809D01*
X128552380Y-114028571D01*
X128552380Y-113314285D02*
X128552380Y-112742857D01*
X129552380Y-113028571D02*
X128552380Y-113028571D01*
X129552380Y-111885714D02*
X129552380Y-112457142D01*
X129552380Y-112171428D02*
X128552380Y-112171428D01*
X128695238Y-112266666D01*
X128790476Y-112361904D01*
X128838095Y-112457142D01*
%TO.C,U2*%
X134052380Y-99541904D02*
X134861904Y-99541904D01*
X134957142Y-99494285D01*
X135004761Y-99446666D01*
X135052380Y-99351428D01*
X135052380Y-99160952D01*
X135004761Y-99065714D01*
X134957142Y-99018095D01*
X134861904Y-98970476D01*
X134052380Y-98970476D01*
X134147619Y-98541904D02*
X134100000Y-98494285D01*
X134052380Y-98399047D01*
X134052380Y-98160952D01*
X134100000Y-98065714D01*
X134147619Y-98018095D01*
X134242857Y-97970476D01*
X134338095Y-97970476D01*
X134480952Y-98018095D01*
X135052380Y-98589523D01*
X135052380Y-97970476D01*
%TO.C,C3*%
X131657142Y-101916666D02*
X131704761Y-101964285D01*
X131752380Y-102107142D01*
X131752380Y-102202380D01*
X131704761Y-102345238D01*
X131609523Y-102440476D01*
X131514285Y-102488095D01*
X131323809Y-102535714D01*
X131180952Y-102535714D01*
X130990476Y-102488095D01*
X130895238Y-102440476D01*
X130800000Y-102345238D01*
X130752380Y-102202380D01*
X130752380Y-102107142D01*
X130800000Y-101964285D01*
X130847619Y-101916666D01*
X130752380Y-101583333D02*
X130752380Y-100964285D01*
X131133333Y-101297619D01*
X131133333Y-101154761D01*
X131180952Y-101059523D01*
X131228571Y-101011904D01*
X131323809Y-100964285D01*
X131561904Y-100964285D01*
X131657142Y-101011904D01*
X131704761Y-101059523D01*
X131752380Y-101154761D01*
X131752380Y-101440476D01*
X131704761Y-101535714D01*
X131657142Y-101583333D01*
%TO.C,R9*%
X129052380Y-110516666D02*
X128576190Y-110850000D01*
X129052380Y-111088095D02*
X128052380Y-111088095D01*
X128052380Y-110707142D01*
X128100000Y-110611904D01*
X128147619Y-110564285D01*
X128242857Y-110516666D01*
X128385714Y-110516666D01*
X128480952Y-110564285D01*
X128528571Y-110611904D01*
X128576190Y-110707142D01*
X128576190Y-111088095D01*
X129052380Y-110040476D02*
X129052380Y-109850000D01*
X129004761Y-109754761D01*
X128957142Y-109707142D01*
X128814285Y-109611904D01*
X128623809Y-109564285D01*
X128242857Y-109564285D01*
X128147619Y-109611904D01*
X128100000Y-109659523D01*
X128052380Y-109754761D01*
X128052380Y-109945238D01*
X128100000Y-110040476D01*
X128147619Y-110088095D01*
X128242857Y-110135714D01*
X128480952Y-110135714D01*
X128576190Y-110088095D01*
X128623809Y-110040476D01*
X128671428Y-109945238D01*
X128671428Y-109754761D01*
X128623809Y-109659523D01*
X128576190Y-109611904D01*
X128480952Y-109564285D01*
%TO.C,U4*%
X138788095Y-101552380D02*
X138788095Y-102361904D01*
X138835714Y-102457142D01*
X138883333Y-102504761D01*
X138978571Y-102552380D01*
X139169047Y-102552380D01*
X139264285Y-102504761D01*
X139311904Y-102457142D01*
X139359523Y-102361904D01*
X139359523Y-101552380D01*
X140264285Y-101885714D02*
X140264285Y-102552380D01*
X140026190Y-101504761D02*
X139788095Y-102219047D01*
X140407142Y-102219047D01*
%TO.C,R2*%
X142322380Y-112744166D02*
X141846190Y-113077500D01*
X142322380Y-113315595D02*
X141322380Y-113315595D01*
X141322380Y-112934642D01*
X141370000Y-112839404D01*
X141417619Y-112791785D01*
X141512857Y-112744166D01*
X141655714Y-112744166D01*
X141750952Y-112791785D01*
X141798571Y-112839404D01*
X141846190Y-112934642D01*
X141846190Y-113315595D01*
X141417619Y-112363214D02*
X141370000Y-112315595D01*
X141322380Y-112220357D01*
X141322380Y-111982261D01*
X141370000Y-111887023D01*
X141417619Y-111839404D01*
X141512857Y-111791785D01*
X141608095Y-111791785D01*
X141750952Y-111839404D01*
X142322380Y-112410833D01*
X142322380Y-111791785D01*
%TO.C,R1*%
X139297380Y-112794166D02*
X138821190Y-113127500D01*
X139297380Y-113365595D02*
X138297380Y-113365595D01*
X138297380Y-112984642D01*
X138345000Y-112889404D01*
X138392619Y-112841785D01*
X138487857Y-112794166D01*
X138630714Y-112794166D01*
X138725952Y-112841785D01*
X138773571Y-112889404D01*
X138821190Y-112984642D01*
X138821190Y-113365595D01*
X139297380Y-111841785D02*
X139297380Y-112413214D01*
X139297380Y-112127500D02*
X138297380Y-112127500D01*
X138440238Y-112222738D01*
X138535476Y-112317976D01*
X138583095Y-112413214D01*
%TO.C,H2*%
X124288095Y-116752380D02*
X124288095Y-115752380D01*
X124288095Y-116228571D02*
X124859523Y-116228571D01*
X124859523Y-116752380D02*
X124859523Y-115752380D01*
X125288095Y-115847619D02*
X125335714Y-115800000D01*
X125430952Y-115752380D01*
X125669047Y-115752380D01*
X125764285Y-115800000D01*
X125811904Y-115847619D01*
X125859523Y-115942857D01*
X125859523Y-116038095D01*
X125811904Y-116180952D01*
X125240476Y-116752380D01*
X125859523Y-116752380D01*
%TO.C,C13*%
X129957142Y-104762857D02*
X130004761Y-104810476D01*
X130052380Y-104953333D01*
X130052380Y-105048571D01*
X130004761Y-105191428D01*
X129909523Y-105286666D01*
X129814285Y-105334285D01*
X129623809Y-105381904D01*
X129480952Y-105381904D01*
X129290476Y-105334285D01*
X129195238Y-105286666D01*
X129100000Y-105191428D01*
X129052380Y-105048571D01*
X129052380Y-104953333D01*
X129100000Y-104810476D01*
X129147619Y-104762857D01*
X130052380Y-103810476D02*
X130052380Y-104381904D01*
X130052380Y-104096190D02*
X129052380Y-104096190D01*
X129195238Y-104191428D01*
X129290476Y-104286666D01*
X129338095Y-104381904D01*
X129052380Y-103477142D02*
X129052380Y-102858095D01*
X129433333Y-103191428D01*
X129433333Y-103048571D01*
X129480952Y-102953333D01*
X129528571Y-102905714D01*
X129623809Y-102858095D01*
X129861904Y-102858095D01*
X129957142Y-102905714D01*
X130004761Y-102953333D01*
X130052380Y-103048571D01*
X130052380Y-103334285D01*
X130004761Y-103429523D01*
X129957142Y-103477142D01*
%TO.C,H1*%
X145388095Y-96252380D02*
X145388095Y-95252380D01*
X145388095Y-95728571D02*
X145959523Y-95728571D01*
X145959523Y-96252380D02*
X145959523Y-95252380D01*
X146959523Y-96252380D02*
X146388095Y-96252380D01*
X146673809Y-96252380D02*
X146673809Y-95252380D01*
X146578571Y-95395238D01*
X146483333Y-95490476D01*
X146388095Y-95538095D01*
%TO.C,Y1*%
X134423809Y-97276190D02*
X134423809Y-97752380D01*
X134090476Y-96752380D02*
X134423809Y-97276190D01*
X134757142Y-96752380D01*
X135614285Y-97752380D02*
X135042857Y-97752380D01*
X135328571Y-97752380D02*
X135328571Y-96752380D01*
X135233333Y-96895238D01*
X135138095Y-96990476D01*
X135042857Y-97038095D01*
%TO.C,C14*%
X142307142Y-98992857D02*
X142354761Y-99040476D01*
X142402380Y-99183333D01*
X142402380Y-99278571D01*
X142354761Y-99421428D01*
X142259523Y-99516666D01*
X142164285Y-99564285D01*
X141973809Y-99611904D01*
X141830952Y-99611904D01*
X141640476Y-99564285D01*
X141545238Y-99516666D01*
X141450000Y-99421428D01*
X141402380Y-99278571D01*
X141402380Y-99183333D01*
X141450000Y-99040476D01*
X141497619Y-98992857D01*
X142402380Y-98040476D02*
X142402380Y-98611904D01*
X142402380Y-98326190D02*
X141402380Y-98326190D01*
X141545238Y-98421428D01*
X141640476Y-98516666D01*
X141688095Y-98611904D01*
X141735714Y-97183333D02*
X142402380Y-97183333D01*
X141354761Y-97421428D02*
X142069047Y-97659523D01*
X142069047Y-97040476D01*
%TO.C,C24*%
X130107142Y-111342857D02*
X130154761Y-111390476D01*
X130202380Y-111533333D01*
X130202380Y-111628571D01*
X130154761Y-111771428D01*
X130059523Y-111866666D01*
X129964285Y-111914285D01*
X129773809Y-111961904D01*
X129630952Y-111961904D01*
X129440476Y-111914285D01*
X129345238Y-111866666D01*
X129250000Y-111771428D01*
X129202380Y-111628571D01*
X129202380Y-111533333D01*
X129250000Y-111390476D01*
X129297619Y-111342857D01*
X129297619Y-110961904D02*
X129250000Y-110914285D01*
X129202380Y-110819047D01*
X129202380Y-110580952D01*
X129250000Y-110485714D01*
X129297619Y-110438095D01*
X129392857Y-110390476D01*
X129488095Y-110390476D01*
X129630952Y-110438095D01*
X130202380Y-111009523D01*
X130202380Y-110390476D01*
X129535714Y-109533333D02*
X130202380Y-109533333D01*
X129154761Y-109771428D02*
X129869047Y-110009523D01*
X129869047Y-109390476D01*
%TO.C,D1*%
X143782380Y-109523095D02*
X142782380Y-109523095D01*
X142782380Y-109285000D01*
X142830000Y-109142142D01*
X142925238Y-109046904D01*
X143020476Y-108999285D01*
X143210952Y-108951666D01*
X143353809Y-108951666D01*
X143544285Y-108999285D01*
X143639523Y-109046904D01*
X143734761Y-109142142D01*
X143782380Y-109285000D01*
X143782380Y-109523095D01*
X143782380Y-107999285D02*
X143782380Y-108570714D01*
X143782380Y-108285000D02*
X142782380Y-108285000D01*
X142925238Y-108380238D01*
X143020476Y-108475476D01*
X143068095Y-108570714D01*
%TO.C,J1*%
X138741666Y-118639880D02*
X138741666Y-119354166D01*
X138694047Y-119497023D01*
X138598809Y-119592261D01*
X138455952Y-119639880D01*
X138360714Y-119639880D01*
X139741666Y-119639880D02*
X139170238Y-119639880D01*
X139455952Y-119639880D02*
X139455952Y-118639880D01*
X139360714Y-118782738D01*
X139265476Y-118877976D01*
X139170238Y-118925595D01*
%TO.C,D2*%
X133861904Y-111552380D02*
X133861904Y-110552380D01*
X134100000Y-110552380D01*
X134242857Y-110600000D01*
X134338095Y-110695238D01*
X134385714Y-110790476D01*
X134433333Y-110980952D01*
X134433333Y-111123809D01*
X134385714Y-111314285D01*
X134338095Y-111409523D01*
X134242857Y-111504761D01*
X134100000Y-111552380D01*
X133861904Y-111552380D01*
X134814285Y-110647619D02*
X134861904Y-110600000D01*
X134957142Y-110552380D01*
X135195238Y-110552380D01*
X135290476Y-110600000D01*
X135338095Y-110647619D01*
X135385714Y-110742857D01*
X135385714Y-110838095D01*
X135338095Y-110980952D01*
X134766666Y-111552380D01*
X135385714Y-111552380D01*
%TO.C,R3*%
X138502380Y-101766666D02*
X138026190Y-102100000D01*
X138502380Y-102338095D02*
X137502380Y-102338095D01*
X137502380Y-101957142D01*
X137550000Y-101861904D01*
X137597619Y-101814285D01*
X137692857Y-101766666D01*
X137835714Y-101766666D01*
X137930952Y-101814285D01*
X137978571Y-101861904D01*
X138026190Y-101957142D01*
X138026190Y-102338095D01*
X137502380Y-101433333D02*
X137502380Y-100814285D01*
X137883333Y-101147619D01*
X137883333Y-101004761D01*
X137930952Y-100909523D01*
X137978571Y-100861904D01*
X138073809Y-100814285D01*
X138311904Y-100814285D01*
X138407142Y-100861904D01*
X138454761Y-100909523D01*
X138502380Y-101004761D01*
X138502380Y-101290476D01*
X138454761Y-101385714D01*
X138407142Y-101433333D01*
%TO.C,D4*%
X143371428Y-107842857D02*
X142771428Y-107842857D01*
X142771428Y-107700000D01*
X142800000Y-107614285D01*
X142857142Y-107557142D01*
X142914285Y-107528571D01*
X143028571Y-107500000D01*
X143114285Y-107500000D01*
X143228571Y-107528571D01*
X143285714Y-107557142D01*
X143342857Y-107614285D01*
X143371428Y-107700000D01*
X143371428Y-107842857D01*
X142971428Y-106985714D02*
X143371428Y-106985714D01*
X142742857Y-107128571D02*
X143171428Y-107271428D01*
X143171428Y-106900000D01*
%TO.C,R10*%
X143452380Y-101992857D02*
X142976190Y-102326190D01*
X143452380Y-102564285D02*
X142452380Y-102564285D01*
X142452380Y-102183333D01*
X142500000Y-102088095D01*
X142547619Y-102040476D01*
X142642857Y-101992857D01*
X142785714Y-101992857D01*
X142880952Y-102040476D01*
X142928571Y-102088095D01*
X142976190Y-102183333D01*
X142976190Y-102564285D01*
X143452380Y-101040476D02*
X143452380Y-101611904D01*
X143452380Y-101326190D02*
X142452380Y-101326190D01*
X142595238Y-101421428D01*
X142690476Y-101516666D01*
X142738095Y-101611904D01*
X142452380Y-100421428D02*
X142452380Y-100326190D01*
X142500000Y-100230952D01*
X142547619Y-100183333D01*
X142642857Y-100135714D01*
X142833333Y-100088095D01*
X143071428Y-100088095D01*
X143261904Y-100135714D01*
X143357142Y-100183333D01*
X143404761Y-100230952D01*
X143452380Y-100326190D01*
X143452380Y-100421428D01*
X143404761Y-100516666D01*
X143357142Y-100564285D01*
X143261904Y-100611904D01*
X143071428Y-100659523D01*
X142833333Y-100659523D01*
X142642857Y-100611904D01*
X142547619Y-100564285D01*
X142500000Y-100516666D01*
X142452380Y-100421428D01*
%TO.C,U1*%
X127402380Y-99111904D02*
X128211904Y-99111904D01*
X128307142Y-99064285D01*
X128354761Y-99016666D01*
X128402380Y-98921428D01*
X128402380Y-98730952D01*
X128354761Y-98635714D01*
X128307142Y-98588095D01*
X128211904Y-98540476D01*
X127402380Y-98540476D01*
X128402380Y-97540476D02*
X128402380Y-98111904D01*
X128402380Y-97826190D02*
X127402380Y-97826190D01*
X127545238Y-97921428D01*
X127640476Y-98016666D01*
X127688095Y-98111904D01*
D12*
%TO.C,RST1*%
X130600000Y-106650000D02*
X130900000Y-106650000D01*
X133400000Y-109950000D02*
X133400000Y-106650000D01*
X130900000Y-109950000D02*
X130600000Y-109950000D01*
X133100000Y-109950000D02*
X133400000Y-109950000D01*
X130600000Y-109950000D02*
X130600000Y-106650000D01*
X133400000Y-106650000D02*
X133100000Y-106650000D01*
%TO.C,BOOT1*%
X130900000Y-111950000D02*
X130600000Y-111950000D01*
X130600000Y-111950000D02*
X130600000Y-115250000D01*
X133400000Y-115250000D02*
X133100000Y-115250000D01*
X130600000Y-115250000D02*
X130900000Y-115250000D01*
X133400000Y-111950000D02*
X133400000Y-115250000D01*
X133100000Y-111950000D02*
X133400000Y-111950000D01*
%TO.C,U2*%
X131580000Y-98900000D02*
X131580000Y-97900000D01*
X133820000Y-96900000D02*
X133820000Y-98900000D01*
%TO.C,C3*%
X132040000Y-101687836D02*
X132040000Y-101472164D01*
X132760000Y-101687836D02*
X132760000Y-101472164D01*
%TO.C,AE1*%
X128390000Y-103836252D02*
X128390000Y-102413748D01*
X130210000Y-103836252D02*
X130210000Y-102413748D01*
%TO.C,R9*%
X128320000Y-108353641D02*
X128320000Y-108046359D01*
X129080000Y-108353641D02*
X129080000Y-108046359D01*
%TO.C,U4*%
X141910000Y-103190000D02*
X141910000Y-103840000D01*
X135340000Y-110410000D02*
X134690000Y-110410000D01*
X141910000Y-110410000D02*
X141910000Y-109760000D01*
X141260000Y-103190000D02*
X141910000Y-103190000D01*
X135340000Y-103190000D02*
X134690000Y-103190000D01*
X141260000Y-110410000D02*
X141910000Y-110410000D01*
X134690000Y-110410000D02*
X134690000Y-109760000D01*
%TO.C,C17*%
X133340000Y-104227836D02*
X133340000Y-104012164D01*
X134060000Y-104227836D02*
X134060000Y-104012164D01*
%TO.C,R2*%
X141080000Y-112423859D02*
X141080000Y-112731141D01*
X140320000Y-112423859D02*
X140320000Y-112731141D01*
%TO.C,R1*%
X137295000Y-112473859D02*
X137295000Y-112781141D01*
X138055000Y-112473859D02*
X138055000Y-112781141D01*
%TO.C,C13*%
X130540000Y-104227836D02*
X130540000Y-104012164D01*
X131260000Y-104227836D02*
X131260000Y-104012164D01*
%TO.C,C2*%
X135460000Y-101687836D02*
X135460000Y-101472164D01*
X134740000Y-101687836D02*
X134740000Y-101472164D01*
%TO.C,C15*%
X135140000Y-99187836D02*
X135140000Y-98972164D01*
X135860000Y-99187836D02*
X135860000Y-98972164D01*
%TO.C,Y1*%
X136100000Y-100300000D02*
X140100000Y-100300000D01*
X136100000Y-97000000D02*
X136100000Y-100300000D01*
%TO.C,C14*%
X141060000Y-98387836D02*
X141060000Y-98172164D01*
X140340000Y-98387836D02*
X140340000Y-98172164D01*
%TO.C,C24*%
X129340000Y-108092164D02*
X129340000Y-108307836D01*
X130060000Y-108092164D02*
X130060000Y-108307836D01*
D11*
%TO.C,D1*%
X143330000Y-111710000D02*
G75*
G03*
X143330000Y-111710000I-50000J0D01*
G01*
D13*
%TO.C,J1*%
X135825000Y-113350000D02*
G75*
G03*
X135825000Y-113350000I-100000J0D01*
G01*
D14*
X134455000Y-121950000D02*
X143395000Y-121950000D01*
X143395000Y-116500000D02*
X143395000Y-118180000D01*
X143395000Y-121950000D02*
X143395000Y-120520000D01*
X134455000Y-116500000D02*
X134455000Y-118180000D01*
X134455000Y-121950000D02*
X134455000Y-120520000D01*
D12*
%TO.C,D2*%
X133775000Y-113437500D02*
X136325000Y-113437500D01*
X133775000Y-111737500D02*
X136325000Y-111737500D01*
X133775000Y-111737500D02*
X133775000Y-113437500D01*
%TO.C,R3*%
X137280000Y-101446359D02*
X137280000Y-101753641D01*
X136520000Y-101446359D02*
X136520000Y-101753641D01*
%TO.C,C7*%
X134560000Y-101687836D02*
X134560000Y-101472164D01*
X133840000Y-101687836D02*
X133840000Y-101472164D01*
D11*
%TO.C,D4*%
X142950000Y-106790000D02*
G75*
G03*
X142950000Y-106790000I-50000J0D01*
G01*
D12*
%TO.C,R10*%
X143280000Y-103446359D02*
X143280000Y-103753641D01*
X142520000Y-103446359D02*
X142520000Y-103753641D01*
%TO.C,U1*%
X128680000Y-98900000D02*
X128680000Y-97900000D01*
X130920000Y-96900000D02*
X130920000Y-98900000D01*
%TO.C,C6*%
X133660000Y-101687836D02*
X133660000Y-101472164D01*
X132940000Y-101687836D02*
X132940000Y-101472164D01*
%TD*%
M02*
