%TF.GenerationSoftware,KiCad,Pcbnew,(6.0.4)*%
%TF.CreationDate,2023-01-28T19:19:13+00:00*%
%TF.ProjectId,PrettySmallRobot,50726574-7479-4536-9d61-6c6c526f626f,rev?*%
%TF.SameCoordinates,Original*%
%TF.FileFunction,Soldermask,Bot*%
%TF.FilePolarity,Negative*%
%FSLAX46Y46*%
G04 Gerber Fmt 4.6, Leading zero omitted, Abs format (unit mm)*
G04 Created by KiCad (PCBNEW (6.0.4)) date 2023-01-28 19:19:13*
%MOMM*%
%LPD*%
G01*
G04 APERTURE LIST*
G04 Aperture macros list*
%AMRoundRect*
0 Rectangle with rounded corners*
0 $1 Rounding radius*
0 $2 $3 $4 $5 $6 $7 $8 $9 X,Y pos of 4 corners*
0 Add a 4 corners polygon primitive as box body*
4,1,4,$2,$3,$4,$5,$6,$7,$8,$9,$2,$3,0*
0 Add four circle primitives for the rounded corners*
1,1,$1+$1,$2,$3*
1,1,$1+$1,$4,$5*
1,1,$1+$1,$6,$7*
1,1,$1+$1,$8,$9*
0 Add four rect primitives between the rounded corners*
20,1,$1+$1,$2,$3,$4,$5,0*
20,1,$1+$1,$4,$5,$6,$7,0*
20,1,$1+$1,$6,$7,$8,$9,0*
20,1,$1+$1,$8,$9,$2,$3,0*%
G04 Aperture macros list end*
%ADD10C,0.600000*%
%ADD11O,2.000000X0.900000*%
%ADD12O,1.700000X0.900000*%
%ADD13R,0.250000X0.500000*%
%ADD14R,1.600000X0.900000*%
%ADD15RoundRect,0.140000X0.140000X0.170000X-0.140000X0.170000X-0.140000X-0.170000X0.140000X-0.170000X0*%
%ADD16RoundRect,0.135000X0.185000X-0.135000X0.185000X0.135000X-0.185000X0.135000X-0.185000X-0.135000X0*%
%ADD17RoundRect,0.140000X-0.140000X-0.170000X0.140000X-0.170000X0.140000X0.170000X-0.140000X0.170000X0*%
%ADD18RoundRect,0.250000X-0.625000X0.350000X-0.625000X-0.350000X0.625000X-0.350000X0.625000X0.350000X0*%
%ADD19O,1.750000X1.200000*%
%ADD20RoundRect,0.140000X-0.170000X0.140000X-0.170000X-0.140000X0.170000X-0.140000X0.170000X0.140000X0*%
%ADD21RoundRect,0.250000X0.625000X-0.350000X0.625000X0.350000X-0.625000X0.350000X-0.625000X-0.350000X0*%
%ADD22RoundRect,0.140000X0.170000X-0.140000X0.170000X0.140000X-0.170000X0.140000X-0.170000X-0.140000X0*%
%ADD23RoundRect,0.135000X-0.185000X0.135000X-0.185000X-0.135000X0.185000X-0.135000X0.185000X0.135000X0*%
%ADD24RoundRect,0.147500X0.147500X0.172500X-0.147500X0.172500X-0.147500X-0.172500X0.147500X-0.172500X0*%
%ADD25RoundRect,0.225000X-0.250000X0.225000X-0.250000X-0.225000X0.250000X-0.225000X0.250000X0.225000X0*%
G04 APERTURE END LIST*
D10*
%TO.C,J1*%
X191320000Y-115762503D03*
X191320000Y-121542503D03*
D11*
X190830000Y-122977503D03*
X190830000Y-114327503D03*
D12*
X195000000Y-122977503D03*
X195000000Y-114327503D03*
%TD*%
D13*
%TO.C,U2*%
X195050000Y-104850000D03*
X194550000Y-104850000D03*
X194050000Y-104850000D03*
X193550000Y-104850000D03*
X193550000Y-102950000D03*
X194050000Y-102950000D03*
X194550000Y-102950000D03*
X195050000Y-102950000D03*
D14*
X194300000Y-103900000D03*
%TD*%
D15*
%TO.C,C3*%
X193680000Y-101700000D03*
X192720000Y-101700000D03*
%TD*%
D16*
%TO.C,R9*%
X193100000Y-111010000D03*
X193100000Y-109990000D03*
%TD*%
D17*
%TO.C,C10*%
X186720000Y-120900000D03*
X187680000Y-120900000D03*
%TD*%
D18*
%TO.C,J9*%
X177000000Y-119500000D03*
D19*
X177000000Y-121500000D03*
%TD*%
D20*
%TO.C,C2*%
X196100000Y-105720000D03*
X196100000Y-106680000D03*
%TD*%
%TO.C,C24*%
X194200000Y-110020000D03*
X194200000Y-110980000D03*
%TD*%
D18*
%TO.C,J10*%
X177000000Y-103000000D03*
D19*
X177000000Y-105000000D03*
%TD*%
D21*
%TO.C,J8*%
X191000000Y-105000000D03*
D19*
X191000000Y-103000000D03*
%TD*%
D17*
%TO.C,C7*%
X172920000Y-117600000D03*
X173880000Y-117600000D03*
%TD*%
D13*
%TO.C,U1*%
X172850000Y-119550000D03*
X173350000Y-119550000D03*
X173850000Y-119550000D03*
X174350000Y-119550000D03*
X174350000Y-121450000D03*
X173850000Y-121450000D03*
X173350000Y-121450000D03*
X172850000Y-121450000D03*
D14*
X173600000Y-120500000D03*
%TD*%
D17*
%TO.C,C6*%
X173420000Y-123200000D03*
X174380000Y-123200000D03*
%TD*%
D20*
%TO.C,C20*%
X183496152Y-115531320D03*
X183496152Y-116491320D03*
%TD*%
D22*
%TO.C,C11*%
X185500000Y-119980000D03*
X185500000Y-119020000D03*
%TD*%
D23*
%TO.C,R2*%
X193200000Y-115490000D03*
X193200000Y-116510000D03*
%TD*%
%TO.C,R1*%
X193800000Y-120290000D03*
X193800000Y-121310000D03*
%TD*%
D20*
%TO.C,C19*%
X181500000Y-115540000D03*
X181500000Y-116500000D03*
%TD*%
D22*
%TO.C,C5*%
X186000000Y-117980000D03*
X186000000Y-117020000D03*
%TD*%
%TO.C,C4*%
X185000000Y-117980000D03*
X185000000Y-117020000D03*
%TD*%
D24*
%TO.C,L1*%
X182477296Y-117624897D03*
X181507296Y-117624897D03*
%TD*%
D22*
%TO.C,C16*%
X186500000Y-119980000D03*
X186500000Y-119020000D03*
%TD*%
D25*
%TO.C,C1*%
X183718091Y-119241600D03*
X183718091Y-117691600D03*
%TD*%
D20*
%TO.C,C18*%
X182496227Y-115538867D03*
X182496227Y-116498867D03*
%TD*%
M02*
