%TF.GenerationSoftware,KiCad,Pcbnew,(6.0.4)*%
%TF.CreationDate,2023-01-29T14:49:02+00:00*%
%TF.ProjectId,PrettySmallRobot,50726574-7479-4536-9d61-6c6c526f626f,rev?*%
%TF.SameCoordinates,Original*%
%TF.FileFunction,Copper,L4,Bot*%
%TF.FilePolarity,Positive*%
%FSLAX46Y46*%
G04 Gerber Fmt 4.6, Leading zero omitted, Abs format (unit mm)*
G04 Created by KiCad (PCBNEW (6.0.4)) date 2023-01-29 14:49:02*
%MOMM*%
%LPD*%
G01*
G04 APERTURE LIST*
G04 Aperture macros list*
%AMRoundRect*
0 Rectangle with rounded corners*
0 $1 Rounding radius*
0 $2 $3 $4 $5 $6 $7 $8 $9 X,Y pos of 4 corners*
0 Add a 4 corners polygon primitive as box body*
4,1,4,$2,$3,$4,$5,$6,$7,$8,$9,$2,$3,0*
0 Add four circle primitives for the rounded corners*
1,1,$1+$1,$2,$3*
1,1,$1+$1,$4,$5*
1,1,$1+$1,$6,$7*
1,1,$1+$1,$8,$9*
0 Add four rect primitives between the rounded corners*
20,1,$1+$1,$2,$3,$4,$5,0*
20,1,$1+$1,$4,$5,$6,$7,0*
20,1,$1+$1,$6,$7,$8,$9,0*
20,1,$1+$1,$8,$9,$2,$3,0*%
G04 Aperture macros list end*
%TA.AperFunction,ComponentPad*%
%ADD10RoundRect,0.250000X-0.625000X0.350000X-0.625000X-0.350000X0.625000X-0.350000X0.625000X0.350000X0*%
%TD*%
%TA.AperFunction,ComponentPad*%
%ADD11O,1.750000X1.200000*%
%TD*%
%TA.AperFunction,ComponentPad*%
%ADD12O,2.000000X0.900000*%
%TD*%
%TA.AperFunction,ComponentPad*%
%ADD13O,1.700000X0.900000*%
%TD*%
%TA.AperFunction,ComponentPad*%
%ADD14RoundRect,0.250000X0.625000X-0.350000X0.625000X0.350000X-0.625000X0.350000X-0.625000X-0.350000X0*%
%TD*%
%TA.AperFunction,SMDPad,CuDef*%
%ADD15RoundRect,0.140000X-0.170000X0.140000X-0.170000X-0.140000X0.170000X-0.140000X0.170000X0.140000X0*%
%TD*%
%TA.AperFunction,SMDPad,CuDef*%
%ADD16R,0.250000X0.500000*%
%TD*%
%TA.AperFunction,SMDPad,CuDef*%
%ADD17R,1.600000X0.900000*%
%TD*%
%TA.AperFunction,SMDPad,CuDef*%
%ADD18RoundRect,0.140000X0.140000X0.170000X-0.140000X0.170000X-0.140000X-0.170000X0.140000X-0.170000X0*%
%TD*%
%TA.AperFunction,SMDPad,CuDef*%
%ADD19RoundRect,0.140000X0.170000X-0.140000X0.170000X0.140000X-0.170000X0.140000X-0.170000X-0.140000X0*%
%TD*%
%TA.AperFunction,SMDPad,CuDef*%
%ADD20RoundRect,0.135000X0.185000X-0.135000X0.185000X0.135000X-0.185000X0.135000X-0.185000X-0.135000X0*%
%TD*%
%TA.AperFunction,SMDPad,CuDef*%
%ADD21RoundRect,0.140000X-0.140000X-0.170000X0.140000X-0.170000X0.140000X0.170000X-0.140000X0.170000X0*%
%TD*%
%TA.AperFunction,SMDPad,CuDef*%
%ADD22RoundRect,0.135000X-0.185000X0.135000X-0.185000X-0.135000X0.185000X-0.135000X0.185000X0.135000X0*%
%TD*%
%TA.AperFunction,SMDPad,CuDef*%
%ADD23RoundRect,0.147500X0.147500X0.172500X-0.147500X0.172500X-0.147500X-0.172500X0.147500X-0.172500X0*%
%TD*%
%TA.AperFunction,SMDPad,CuDef*%
%ADD24RoundRect,0.225000X-0.250000X0.225000X-0.250000X-0.225000X0.250000X-0.225000X0.250000X0.225000X0*%
%TD*%
%TA.AperFunction,ViaPad*%
%ADD25C,0.460000*%
%TD*%
%TA.AperFunction,Conductor*%
%ADD26C,0.150000*%
%TD*%
%TA.AperFunction,Conductor*%
%ADD27C,0.254000*%
%TD*%
%TA.AperFunction,Conductor*%
%ADD28C,0.175000*%
%TD*%
G04 APERTURE END LIST*
D10*
%TO.P,J9,1,Pin_1*%
%TO.N,/MOTORA_OUT1*%
X177000000Y-119500000D03*
D11*
%TO.P,J9,2,Pin_2*%
%TO.N,/MOTORA_OUT2*%
X177000000Y-121500000D03*
%TD*%
D12*
%TO.P,J1,S1,SHIELD*%
%TO.N,GND*%
X190830000Y-122977503D03*
%TO.P,J1,S2,SHIELD*%
X190830000Y-114327503D03*
D13*
%TO.P,J1,S3,SHIELD*%
X195000000Y-122977503D03*
%TO.P,J1,S4,SHIELD*%
X195000000Y-114327503D03*
%TD*%
D10*
%TO.P,J10,1,Pin_1*%
%TO.N,+BATT*%
X177000000Y-103000000D03*
D11*
%TO.P,J10,2,Pin_2*%
%TO.N,GND*%
X177000000Y-105000000D03*
%TD*%
D14*
%TO.P,J8,1,Pin_1*%
%TO.N,/MOTORB_OUT1*%
X191000000Y-105000000D03*
D11*
%TO.P,J8,2,Pin_2*%
%TO.N,/MOTORB_OUT2*%
X191000000Y-103000000D03*
%TD*%
D15*
%TO.P,C20,1*%
%TO.N,/VDDA*%
X183496152Y-115531320D03*
%TO.P,C20,2*%
%TO.N,GND*%
X183496152Y-116491320D03*
%TD*%
D16*
%TO.P,U2,1,VM*%
%TO.N,+BATT*%
X195050000Y-104850000D03*
%TO.P,U2,2,OUT1*%
%TO.N,/MOTORB_OUT1*%
X194550000Y-104850000D03*
%TO.P,U2,3,OUT2*%
%TO.N,/MOTORB_OUT2*%
X194050000Y-104850000D03*
%TO.P,U2,4,GND*%
%TO.N,GND*%
X193550000Y-104850000D03*
%TO.P,U2,5,IN2*%
%TO.N,/MOTORB_IN2*%
X193550000Y-102950000D03*
%TO.P,U2,6,IN1*%
%TO.N,/MOTORB_IN1*%
X194050000Y-102950000D03*
%TO.P,U2,7,~{SLEEP}*%
%TO.N,+3V3*%
X194550000Y-102950000D03*
%TO.P,U2,8,VCC*%
X195050000Y-102950000D03*
D17*
%TO.P,U2,9,GND*%
%TO.N,GND*%
X194300000Y-103900000D03*
%TD*%
D18*
%TO.P,C3,1*%
%TO.N,+3V3*%
X193680000Y-101700000D03*
%TO.P,C3,2*%
%TO.N,GND*%
X192720000Y-101700000D03*
%TD*%
D19*
%TO.P,C11,1*%
%TO.N,/VDD_SPI*%
X185500000Y-119980000D03*
%TO.P,C11,2*%
%TO.N,GND*%
X185500000Y-119020000D03*
%TD*%
D20*
%TO.P,R9,1*%
%TO.N,+3V3*%
X193100000Y-111010000D03*
%TO.P,R9,2*%
%TO.N,/~{RESET}*%
X193100000Y-109990000D03*
%TD*%
D21*
%TO.P,C10,1*%
%TO.N,+3V3*%
X186720000Y-120900000D03*
%TO.P,C10,2*%
%TO.N,GND*%
X187680000Y-120900000D03*
%TD*%
D22*
%TO.P,R2,1*%
%TO.N,GND*%
X193200000Y-115490000D03*
%TO.P,R2,2*%
%TO.N,Net-(J1-PadB5)*%
X193200000Y-116510000D03*
%TD*%
%TO.P,R1,1*%
%TO.N,GND*%
X193800000Y-120290000D03*
%TO.P,R1,2*%
%TO.N,Net-(J1-PadA5)*%
X193800000Y-121310000D03*
%TD*%
D15*
%TO.P,C2,1*%
%TO.N,+BATT*%
X196100000Y-105720000D03*
%TO.P,C2,2*%
%TO.N,GND*%
X196100000Y-106680000D03*
%TD*%
%TO.P,C19,1*%
%TO.N,/VDDA*%
X181500000Y-115540000D03*
%TO.P,C19,2*%
%TO.N,GND*%
X181500000Y-116500000D03*
%TD*%
%TO.P,C24,1*%
%TO.N,/~{RESET}*%
X194200000Y-110020000D03*
%TO.P,C24,2*%
%TO.N,GND*%
X194200000Y-110980000D03*
%TD*%
D19*
%TO.P,C5,1*%
%TO.N,+3V3*%
X186000000Y-117980000D03*
%TO.P,C5,2*%
%TO.N,GND*%
X186000000Y-117020000D03*
%TD*%
%TO.P,C4,1*%
%TO.N,+3V3*%
X185000000Y-117980000D03*
%TO.P,C4,2*%
%TO.N,GND*%
X185000000Y-117020000D03*
%TD*%
D23*
%TO.P,L1,1*%
%TO.N,+3V3*%
X182477296Y-117624897D03*
%TO.P,L1,2*%
%TO.N,/VDD3P3*%
X181507296Y-117624897D03*
%TD*%
D21*
%TO.P,C7,1*%
%TO.N,+BATT*%
X172920000Y-117600000D03*
%TO.P,C7,2*%
%TO.N,GND*%
X173880000Y-117600000D03*
%TD*%
D19*
%TO.P,C16,1*%
%TO.N,/VDD_SPI*%
X186500000Y-119980000D03*
%TO.P,C16,2*%
%TO.N,GND*%
X186500000Y-119020000D03*
%TD*%
D24*
%TO.P,C1,1*%
%TO.N,+3V3*%
X183718091Y-117691600D03*
%TO.P,C1,2*%
%TO.N,GND*%
X183718091Y-119241600D03*
%TD*%
D16*
%TO.P,U1,1,VM*%
%TO.N,+BATT*%
X172850000Y-119550000D03*
%TO.P,U1,2,OUT1*%
%TO.N,/MOTORA_OUT1*%
X173350000Y-119550000D03*
%TO.P,U1,3,OUT2*%
%TO.N,/MOTORA_OUT2*%
X173850000Y-119550000D03*
%TO.P,U1,4,GND*%
%TO.N,GND*%
X174350000Y-119550000D03*
%TO.P,U1,5,IN2*%
%TO.N,/MOTORA_IN2*%
X174350000Y-121450000D03*
%TO.P,U1,6,IN1*%
%TO.N,/MOTORA_IN1*%
X173850000Y-121450000D03*
%TO.P,U1,7,~{SLEEP}*%
%TO.N,+3V3*%
X173350000Y-121450000D03*
%TO.P,U1,8,VCC*%
X172850000Y-121450000D03*
D17*
%TO.P,U1,9,GND*%
%TO.N,GND*%
X173600000Y-120500000D03*
%TD*%
D21*
%TO.P,C6,1*%
%TO.N,+3V3*%
X173420000Y-123200000D03*
%TO.P,C6,2*%
%TO.N,GND*%
X174380000Y-123200000D03*
%TD*%
D15*
%TO.P,C18,1*%
%TO.N,/VDDA*%
X182496227Y-115538867D03*
%TO.P,C18,2*%
%TO.N,GND*%
X182496227Y-116498867D03*
%TD*%
D25*
%TO.N,Net-(R6-Pad2)*%
X183500000Y-102770000D03*
X183626500Y-103748500D03*
%TO.N,Net-(R5-Pad2)*%
X182920000Y-106200000D03*
X179340000Y-102230000D03*
%TO.N,+BATT*%
X188000000Y-98200000D03*
%TO.N,GND*%
X181500000Y-111900000D03*
X184700000Y-115300000D03*
X182000000Y-107600000D03*
X180300000Y-111300000D03*
X185900000Y-111600000D03*
X178700000Y-116300000D03*
X180000000Y-110300000D03*
X183700000Y-107400000D03*
X176700000Y-116300000D03*
X187100000Y-108800000D03*
X186600000Y-111000000D03*
X179200000Y-113800000D03*
X178500000Y-114100000D03*
X177300000Y-116300000D03*
X181700000Y-118700000D03*
X187200000Y-110400000D03*
X182800000Y-107400000D03*
X192400000Y-103300000D03*
X176700000Y-113900000D03*
X181700000Y-119700000D03*
X177400000Y-114600000D03*
X192700000Y-103900000D03*
X187200000Y-109600000D03*
X177200000Y-114100000D03*
X184300000Y-112800000D03*
X184700000Y-107400000D03*
X180400000Y-108500000D03*
X185100000Y-111900000D03*
X186300000Y-116100000D03*
X185800000Y-107600000D03*
X178000000Y-116300000D03*
X181200000Y-111300000D03*
X181100000Y-107900000D03*
X184500000Y-112300000D03*
X186800000Y-108000000D03*
X180000000Y-109300000D03*
X181500000Y-112600000D03*
X178000000Y-114600000D03*
%TO.N,Net-(J1-PadA5)*%
X191800000Y-119300000D03*
%TO.N,Net-(J1-PadB5)*%
X191800000Y-117500000D03*
%TO.N,+3V3*%
X187633289Y-104232317D03*
X172400000Y-123200000D03*
X188100000Y-118500000D03*
X188700000Y-103544532D03*
X187400000Y-121800000D03*
X188100000Y-119100000D03*
X193100000Y-111800000D03*
X186584294Y-103549480D03*
X185100000Y-112900000D03*
X185600000Y-112300000D03*
X183200000Y-122100000D03*
X194400000Y-102000000D03*
%TO.N,/~{RESET}*%
X180500000Y-113200000D03*
X195116733Y-110029643D03*
%TO.N,/MOTORB_IN1*%
X178725265Y-124590366D03*
%TO.N,/MOTORA_IN1*%
X178900000Y-118200000D03*
%TO.N,/VDDA*%
X181400000Y-113300000D03*
X183800000Y-113500000D03*
X180500000Y-114500000D03*
%TO.N,/VDD3P3*%
X179500000Y-116500000D03*
%TO.N,/BOOT*%
X179200000Y-117400000D03*
X187400000Y-113900000D03*
%TO.N,/MOTORA_IN2*%
X178500000Y-118800000D03*
%TO.N,/MOTORB_IN2*%
X179300000Y-125800000D03*
%TO.N,/VDD_SPI*%
X188000000Y-120000000D03*
%TD*%
D26*
%TO.N,Net-(R5-Pad2)*%
X181310000Y-106200000D02*
X182920000Y-106200000D01*
X179340000Y-102230000D02*
X179070000Y-102500000D01*
X179070000Y-103960000D02*
X181310000Y-106200000D01*
X179070000Y-102500000D02*
X179070000Y-103960000D01*
%TO.N,Net-(R6-Pad2)*%
X183626500Y-102896500D02*
X183500000Y-102770000D01*
X183626500Y-103748500D02*
X183626500Y-102896500D01*
D27*
%TO.N,+BATT*%
X196100000Y-105720000D02*
X196020000Y-105720000D01*
X195600000Y-104800000D02*
X195550000Y-104850000D01*
X171900000Y-118600000D02*
X172850000Y-119550000D01*
X195600000Y-105300000D02*
X195600000Y-104800000D01*
X196020000Y-105720000D02*
X195600000Y-105300000D01*
X195550000Y-104850000D02*
X195050000Y-104850000D01*
X188000000Y-98200000D02*
X191500000Y-98200000D01*
X171900000Y-108100000D02*
X171900000Y-117600000D01*
X178900000Y-98200000D02*
X188000000Y-98200000D01*
X195600000Y-102300000D02*
X195600000Y-104800000D01*
X177000000Y-100100000D02*
X178900000Y-98200000D01*
X177000000Y-103000000D02*
X171900000Y-108100000D01*
X177000000Y-103000000D02*
X177000000Y-100100000D01*
X172920000Y-117600000D02*
X171900000Y-117600000D01*
X171900000Y-117600000D02*
X171900000Y-118600000D01*
X191500000Y-98200000D02*
X195600000Y-102300000D01*
%TO.N,GND*%
X184700000Y-115400000D02*
X184700000Y-115300000D01*
X183608680Y-116491320D02*
X184700000Y-115400000D01*
X183496152Y-116491320D02*
X183608680Y-116491320D01*
D26*
%TO.N,Net-(J1-PadA5)*%
X191800000Y-119310000D02*
X193800000Y-121310000D01*
X191800000Y-119300000D02*
X191800000Y-119310000D01*
%TO.N,Net-(J1-PadB5)*%
X192790000Y-116510000D02*
X193200000Y-116510000D01*
X191800000Y-117500000D02*
X192790000Y-116510000D01*
D27*
%TO.N,+3V3*%
X194100000Y-101700000D02*
X194400000Y-102000000D01*
X194550000Y-102150000D02*
X194550000Y-102950000D01*
X173350000Y-123130000D02*
X173420000Y-123200000D01*
D26*
X186720000Y-121120000D02*
X187400000Y-121800000D01*
D27*
X182876541Y-117500000D02*
X182485000Y-117500000D01*
X173350000Y-121450000D02*
X172850000Y-121450000D01*
X188100000Y-118500000D02*
X187580000Y-117980000D01*
X193680000Y-101700000D02*
X194100000Y-101700000D01*
X184423061Y-117673426D02*
X183736265Y-117673426D01*
X183718091Y-117691600D02*
X183068141Y-117691600D01*
D26*
X193100000Y-111010000D02*
X193100000Y-111800000D01*
D27*
X183736265Y-117673426D02*
X183718091Y-117691600D01*
X173420000Y-123200000D02*
X172400000Y-123200000D01*
X185000000Y-117980000D02*
X184729635Y-117980000D01*
X184729635Y-117980000D02*
X184423061Y-117673426D01*
X188100000Y-119100000D02*
X188100000Y-118500000D01*
D26*
X186720000Y-120900000D02*
X186720000Y-121120000D01*
D27*
X186000000Y-117980000D02*
X185000000Y-117980000D01*
X195050000Y-102650000D02*
X195050000Y-102950000D01*
X183068141Y-117691600D02*
X182876541Y-117500000D01*
X187580000Y-117980000D02*
X186000000Y-117980000D01*
X173350000Y-121450000D02*
X173350000Y-123130000D01*
X194550000Y-102150000D02*
X195050000Y-102650000D01*
X194400000Y-102000000D02*
X194550000Y-102150000D01*
D26*
%TO.N,/~{RESET}*%
X194200000Y-110020000D02*
X195107090Y-110020000D01*
X184013521Y-116986479D02*
X181193497Y-116986479D01*
X193100000Y-109990000D02*
X188690000Y-114400000D01*
X195107090Y-110020000D02*
X195116733Y-110029643D01*
X194170000Y-109990000D02*
X194200000Y-110020000D01*
X186300000Y-114400000D02*
X184200000Y-116500000D01*
X188690000Y-114400000D02*
X186300000Y-114400000D01*
X184200000Y-116800000D02*
X184013521Y-116986479D01*
X180988480Y-115397216D02*
X180591264Y-115000000D01*
X184200000Y-116500000D02*
X184200000Y-116800000D01*
X193100000Y-109990000D02*
X194170000Y-109990000D01*
X180300000Y-115000000D02*
X180000000Y-114700000D01*
X181193497Y-116986479D02*
X180988480Y-116781462D01*
X180000000Y-113700000D02*
X180500000Y-113200000D01*
X180000000Y-114700000D02*
X180000000Y-113700000D01*
X180591264Y-115000000D02*
X180300000Y-115000000D01*
X180988480Y-116781462D02*
X180988480Y-115397216D01*
D27*
%TO.N,/MOTORB_OUT1*%
X194550000Y-105950000D02*
X194550000Y-104850000D01*
X191000000Y-105000000D02*
X192200000Y-106200000D01*
X192200000Y-106200000D02*
X194300000Y-106200000D01*
X194300000Y-106200000D02*
X194550000Y-105950000D01*
%TO.N,/MOTORB_OUT2*%
X192600000Y-104600000D02*
X192600000Y-105300000D01*
X193704000Y-105700000D02*
X194050000Y-105354000D01*
X191000000Y-103000000D02*
X192600000Y-104600000D01*
X192600000Y-105300000D02*
X193000000Y-105700000D01*
X193000000Y-105700000D02*
X193704000Y-105700000D01*
X194050000Y-105354000D02*
X194050000Y-104850000D01*
D26*
%TO.N,/MOTORB_IN1*%
X192600000Y-102400000D02*
X192000000Y-101800000D01*
X189423480Y-102476520D02*
X189423480Y-105614538D01*
X194050000Y-102550000D02*
X193900000Y-102400000D01*
X193900000Y-102400000D02*
X192600000Y-102400000D01*
X196300000Y-124508942D02*
X195304471Y-125504471D01*
X190100000Y-101800000D02*
X189423480Y-102476520D01*
X190985462Y-107176520D02*
X194885462Y-107176520D01*
X192000000Y-101800000D02*
X190100000Y-101800000D01*
X195304471Y-125504471D02*
X179639370Y-125504471D01*
X195754471Y-108045529D02*
X196300000Y-108591058D01*
X194885462Y-107176520D02*
X195754471Y-108045529D01*
X196300000Y-108591058D02*
X196300000Y-124508942D01*
X179639370Y-125504471D02*
X178725265Y-124590366D01*
X189423480Y-105614538D02*
X190985462Y-107176520D01*
X194050000Y-102950000D02*
X194050000Y-102550000D01*
D27*
%TO.N,/MOTORA_OUT1*%
X173700000Y-118300000D02*
X173350000Y-118650000D01*
X177000000Y-119500000D02*
X175800000Y-118300000D01*
X173350000Y-118650000D02*
X173350000Y-119550000D01*
X175800000Y-118300000D02*
X173700000Y-118300000D01*
%TO.N,/MOTORA_OUT2*%
X173996000Y-118900000D02*
X175000000Y-118900000D01*
X175400000Y-119300000D02*
X175400000Y-121200000D01*
X173850000Y-119550000D02*
X173850000Y-119046000D01*
X175700000Y-121500000D02*
X177000000Y-121500000D01*
X175400000Y-121200000D02*
X175700000Y-121500000D01*
X173850000Y-119046000D02*
X173996000Y-118900000D01*
X175000000Y-118900000D02*
X175400000Y-119300000D01*
D26*
%TO.N,/MOTORA_IN1*%
X175300000Y-122600000D02*
X175400000Y-122600000D01*
X173850000Y-121450000D02*
X173850000Y-122350000D01*
X175400000Y-122600000D02*
X175800000Y-123000000D01*
X176000000Y-123200000D02*
X179100000Y-123200000D01*
X173850000Y-122350000D02*
X174100000Y-122600000D01*
X175800000Y-123000000D02*
X176000000Y-123200000D01*
X179100000Y-118400000D02*
X178900000Y-118200000D01*
X174100000Y-122600000D02*
X175300000Y-122600000D01*
X179100000Y-123200000D02*
X179100000Y-118400000D01*
D28*
%TO.N,/VDDA*%
X182503774Y-115531320D02*
X182496227Y-115538867D01*
D26*
X183496152Y-113803848D02*
X183800000Y-113500000D01*
D28*
X183496152Y-115531320D02*
X182503774Y-115531320D01*
X181501133Y-115538867D02*
X181500000Y-115540000D01*
X181500000Y-115540000D02*
X181500000Y-115500000D01*
D26*
X181500000Y-113400000D02*
X181400000Y-113300000D01*
D28*
X182496227Y-115538867D02*
X181501133Y-115538867D01*
D26*
X183496152Y-115531320D02*
X183496152Y-113803848D01*
X181500000Y-115540000D02*
X181500000Y-113400000D01*
D28*
X181500000Y-115500000D02*
X180500000Y-114500000D01*
D27*
%TO.N,/VDD3P3*%
X181515000Y-117500000D02*
X180500000Y-117500000D01*
X180500000Y-117500000D02*
X179500000Y-116500000D01*
D26*
%TO.N,/MOTORA_IN2*%
X176100000Y-122900000D02*
X176123480Y-122923480D01*
X178823480Y-119123480D02*
X178500000Y-118800000D01*
X178823480Y-122900000D02*
X178823480Y-119200000D01*
X174500000Y-122300000D02*
X175500000Y-122300000D01*
X175500000Y-122300000D02*
X176100000Y-122900000D01*
X174350000Y-122150000D02*
X174500000Y-122300000D01*
X174350000Y-121450000D02*
X174350000Y-122150000D01*
X178800000Y-122923480D02*
X178823480Y-122900000D01*
X178823480Y-119200000D02*
X178823480Y-119123480D01*
X176123480Y-122923480D02*
X178800000Y-122923480D01*
%TO.N,/MOTORB_IN2*%
X189700000Y-102600000D02*
X189700000Y-105500000D01*
X196600000Y-124600000D02*
X195400000Y-125800000D01*
X195400000Y-125800000D02*
X179300000Y-125800000D01*
X193550000Y-102950000D02*
X192750000Y-102950000D01*
X191100000Y-106900000D02*
X195000000Y-106900000D01*
X195000000Y-106900000D02*
X196600000Y-108500000D01*
X192750000Y-102950000D02*
X191900000Y-102100000D01*
X189700000Y-105500000D02*
X191100000Y-106900000D01*
X190200000Y-102100000D02*
X189700000Y-102600000D01*
X191900000Y-102100000D02*
X190200000Y-102100000D01*
X196600000Y-108500000D02*
X196600000Y-124600000D01*
D28*
%TO.N,/VDD_SPI*%
X186500000Y-119980000D02*
X187980000Y-119980000D01*
X187980000Y-119980000D02*
X188000000Y-120000000D01*
X185500000Y-119980000D02*
X186500000Y-119980000D01*
%TD*%
%TA.AperFunction,Conductor*%
%TO.N,GND*%
G36*
X196973566Y-97518313D02*
G01*
X196998876Y-97562150D01*
X197000000Y-97575000D01*
X197000000Y-126425000D01*
X196982687Y-126472566D01*
X196938850Y-126497876D01*
X196926000Y-126499000D01*
X171125000Y-126499000D01*
X171077434Y-126481687D01*
X171052124Y-126437850D01*
X171051000Y-126425000D01*
X171051000Y-123200000D01*
X172024882Y-123200000D01*
X172025793Y-123205752D01*
X172027678Y-123217654D01*
X172043242Y-123315918D01*
X172045885Y-123321106D01*
X172045886Y-123321108D01*
X172062090Y-123352909D01*
X172096523Y-123420489D01*
X172179511Y-123503477D01*
X172229489Y-123528942D01*
X172278892Y-123554114D01*
X172278894Y-123554115D01*
X172284082Y-123556758D01*
X172400000Y-123575118D01*
X172515918Y-123556758D01*
X172521106Y-123554115D01*
X172521108Y-123554114D01*
X172570511Y-123528942D01*
X172620489Y-123503477D01*
X172647792Y-123476174D01*
X172693668Y-123454782D01*
X172700118Y-123454500D01*
X172975187Y-123454500D01*
X173022753Y-123471813D01*
X173036716Y-123487388D01*
X173081301Y-123554114D01*
X173087143Y-123562857D01*
X173175627Y-123621980D01*
X173182770Y-123623401D01*
X173182773Y-123623402D01*
X173250082Y-123636790D01*
X173250083Y-123636790D01*
X173253652Y-123637500D01*
X173586348Y-123637500D01*
X173589917Y-123636790D01*
X173589918Y-123636790D01*
X173657227Y-123623402D01*
X173657230Y-123623401D01*
X173664373Y-123621980D01*
X173752857Y-123562857D01*
X173798748Y-123494176D01*
X173839570Y-123464245D01*
X173890081Y-123467556D01*
X173927344Y-123504015D01*
X173954457Y-123562158D01*
X173961769Y-123572601D01*
X174037399Y-123648231D01*
X174047842Y-123655543D01*
X174145513Y-123701088D01*
X174156258Y-123704220D01*
X174197753Y-123709683D01*
X174202588Y-123710000D01*
X174266952Y-123710000D01*
X174276948Y-123706362D01*
X174280000Y-123701075D01*
X174280000Y-123696952D01*
X174480000Y-123696952D01*
X174483638Y-123706948D01*
X174488925Y-123710000D01*
X174557412Y-123710000D01*
X174562247Y-123709683D01*
X174603742Y-123704220D01*
X174614487Y-123701088D01*
X174712158Y-123655543D01*
X174722601Y-123648231D01*
X174798231Y-123572601D01*
X174805543Y-123562158D01*
X174851088Y-123464487D01*
X174854220Y-123453742D01*
X174859683Y-123412247D01*
X174860000Y-123407412D01*
X174860000Y-123313048D01*
X174856362Y-123303052D01*
X174851075Y-123300000D01*
X174493048Y-123300000D01*
X174483052Y-123303638D01*
X174480000Y-123308925D01*
X174480000Y-123696952D01*
X174280000Y-123696952D01*
X174280000Y-123174000D01*
X174297313Y-123126434D01*
X174341150Y-123101124D01*
X174354000Y-123100000D01*
X174846952Y-123100000D01*
X174856948Y-123096362D01*
X174860000Y-123091075D01*
X174860000Y-122992588D01*
X174859683Y-122987753D01*
X174854220Y-122946258D01*
X174851088Y-122935511D01*
X174838154Y-122907775D01*
X174833741Y-122857348D01*
X174862775Y-122815883D01*
X174905220Y-122802500D01*
X175285470Y-122802500D01*
X175333036Y-122819813D01*
X175337796Y-122824174D01*
X175824753Y-123311131D01*
X175830339Y-123317389D01*
X175833838Y-123321787D01*
X175837446Y-123329301D01*
X175861591Y-123348610D01*
X175867691Y-123354069D01*
X175872955Y-123359333D01*
X175876466Y-123361540D01*
X175876469Y-123361542D01*
X175878948Y-123363100D01*
X175885790Y-123367962D01*
X175903090Y-123381798D01*
X175903091Y-123381799D01*
X175909599Y-123387003D01*
X175917722Y-123388871D01*
X175920933Y-123390423D01*
X175924292Y-123391599D01*
X175931349Y-123396035D01*
X175952760Y-123398456D01*
X175961648Y-123399461D01*
X175969912Y-123400873D01*
X175972908Y-123401562D01*
X175972911Y-123401562D01*
X175976989Y-123402500D01*
X175984360Y-123402500D01*
X175992672Y-123402968D01*
X176023153Y-123406414D01*
X176031019Y-123403667D01*
X176037313Y-123402961D01*
X176045562Y-123402500D01*
X179092894Y-123402500D01*
X179137682Y-123402539D01*
X179137683Y-123402539D01*
X179146017Y-123402546D01*
X179159701Y-123395975D01*
X179175274Y-123390537D01*
X179181947Y-123389015D01*
X179181948Y-123389015D01*
X179190074Y-123387161D01*
X179196591Y-123381968D01*
X179196593Y-123381967D01*
X179201751Y-123377856D01*
X179215837Y-123369020D01*
X179221786Y-123366163D01*
X179221787Y-123366162D01*
X179229301Y-123362554D01*
X179238781Y-123350700D01*
X179250454Y-123339047D01*
X179262328Y-123329585D01*
X179268820Y-123316125D01*
X179277672Y-123302070D01*
X179287003Y-123290401D01*
X179290405Y-123275609D01*
X179295869Y-123260048D01*
X179298847Y-123253874D01*
X179302466Y-123246371D01*
X179302486Y-123223071D01*
X179302500Y-123223011D01*
X179302500Y-123207106D01*
X179302520Y-123184170D01*
X179302546Y-123154253D01*
X179302546Y-123153983D01*
X179302506Y-123153900D01*
X179302500Y-123153844D01*
X179302500Y-123085551D01*
X189635513Y-123085551D01*
X189636147Y-123095623D01*
X189637878Y-123104696D01*
X189685749Y-123252029D01*
X189689684Y-123260392D01*
X189772691Y-123391191D01*
X189778580Y-123398309D01*
X189891512Y-123504359D01*
X189898978Y-123509783D01*
X190034741Y-123584420D01*
X190043324Y-123587818D01*
X190193379Y-123626346D01*
X190202538Y-123627503D01*
X190716952Y-123627503D01*
X190726948Y-123623865D01*
X190730000Y-123618578D01*
X190730000Y-123614455D01*
X190930000Y-123614455D01*
X190933638Y-123624451D01*
X190938925Y-123627503D01*
X191418563Y-123627503D01*
X191423211Y-123627210D01*
X191538312Y-123612670D01*
X191547264Y-123610371D01*
X191691298Y-123553344D01*
X191699397Y-123548891D01*
X191824724Y-123457835D01*
X191831460Y-123451510D01*
X191930206Y-123332147D01*
X191935158Y-123324344D01*
X192001119Y-123184170D01*
X192003972Y-123175389D01*
X192020200Y-123090320D01*
X192019427Y-123085551D01*
X193955513Y-123085551D01*
X193956147Y-123095623D01*
X193957878Y-123104696D01*
X194005749Y-123252029D01*
X194009684Y-123260392D01*
X194092691Y-123391191D01*
X194098580Y-123398309D01*
X194211512Y-123504359D01*
X194218978Y-123509783D01*
X194354741Y-123584420D01*
X194363324Y-123587818D01*
X194513379Y-123626346D01*
X194522538Y-123627503D01*
X194886952Y-123627503D01*
X194896948Y-123623865D01*
X194900000Y-123618578D01*
X194900000Y-123090551D01*
X194896362Y-123080555D01*
X194891075Y-123077503D01*
X193968055Y-123077503D01*
X193958059Y-123081141D01*
X193955513Y-123085551D01*
X192019427Y-123085551D01*
X192018499Y-123079820D01*
X192015815Y-123077503D01*
X190943048Y-123077503D01*
X190933052Y-123081141D01*
X190930000Y-123086428D01*
X190930000Y-123614455D01*
X190730000Y-123614455D01*
X190730000Y-123090551D01*
X190726362Y-123080555D01*
X190721075Y-123077503D01*
X189648055Y-123077503D01*
X189638059Y-123081141D01*
X189635513Y-123085551D01*
X179302500Y-123085551D01*
X179302500Y-122864686D01*
X189639800Y-122864686D01*
X189641501Y-122875186D01*
X189644185Y-122877503D01*
X190716952Y-122877503D01*
X190726948Y-122873865D01*
X190730000Y-122868578D01*
X190730000Y-122864455D01*
X190930000Y-122864455D01*
X190933638Y-122874451D01*
X190938925Y-122877503D01*
X192011945Y-122877503D01*
X192021941Y-122873865D01*
X192024487Y-122869455D01*
X192024187Y-122864686D01*
X193959800Y-122864686D01*
X193961501Y-122875186D01*
X193964185Y-122877503D01*
X194886952Y-122877503D01*
X194896948Y-122873865D01*
X194900000Y-122868578D01*
X194900000Y-122340551D01*
X194896362Y-122330555D01*
X194891075Y-122327503D01*
X194561437Y-122327503D01*
X194556789Y-122327796D01*
X194441688Y-122342336D01*
X194432736Y-122344635D01*
X194288702Y-122401662D01*
X194280603Y-122406115D01*
X194155276Y-122497171D01*
X194148540Y-122503496D01*
X194049794Y-122622859D01*
X194044842Y-122630662D01*
X193978881Y-122770836D01*
X193976028Y-122779617D01*
X193959800Y-122864686D01*
X192024187Y-122864686D01*
X192023853Y-122859383D01*
X192022122Y-122850310D01*
X191974251Y-122702977D01*
X191970316Y-122694614D01*
X191887309Y-122563815D01*
X191881420Y-122556697D01*
X191768488Y-122450647D01*
X191761022Y-122445223D01*
X191625259Y-122370586D01*
X191616676Y-122367188D01*
X191466621Y-122328660D01*
X191457462Y-122327503D01*
X190943048Y-122327503D01*
X190933052Y-122331141D01*
X190930000Y-122336428D01*
X190930000Y-122864455D01*
X190730000Y-122864455D01*
X190730000Y-122340551D01*
X190726362Y-122330555D01*
X190721075Y-122327503D01*
X190241437Y-122327503D01*
X190236789Y-122327796D01*
X190121688Y-122342336D01*
X190112736Y-122344635D01*
X189968702Y-122401662D01*
X189960603Y-122406115D01*
X189835276Y-122497171D01*
X189828540Y-122503496D01*
X189729794Y-122622859D01*
X189724842Y-122630662D01*
X189658881Y-122770836D01*
X189656028Y-122779617D01*
X189639800Y-122864686D01*
X179302500Y-122864686D01*
X179302500Y-122100000D01*
X182824882Y-122100000D01*
X182843242Y-122215918D01*
X182845885Y-122221106D01*
X182845886Y-122221108D01*
X182855550Y-122240074D01*
X182896523Y-122320489D01*
X182979511Y-122403477D01*
X183008619Y-122418308D01*
X183078892Y-122454114D01*
X183078894Y-122454115D01*
X183084082Y-122456758D01*
X183200000Y-122475118D01*
X183315918Y-122456758D01*
X183321106Y-122454115D01*
X183321108Y-122454114D01*
X183391381Y-122418308D01*
X183420489Y-122403477D01*
X183503477Y-122320489D01*
X183544450Y-122240074D01*
X183554114Y-122221108D01*
X183554115Y-122221106D01*
X183556758Y-122215918D01*
X183575118Y-122100000D01*
X183556758Y-121984082D01*
X183503477Y-121879511D01*
X183420489Y-121796523D01*
X183347799Y-121759486D01*
X183321108Y-121745886D01*
X183321106Y-121745885D01*
X183315918Y-121743242D01*
X183200000Y-121724882D01*
X183084082Y-121743242D01*
X183078894Y-121745885D01*
X183078892Y-121745886D01*
X183052201Y-121759486D01*
X182979511Y-121796523D01*
X182896523Y-121879511D01*
X182843242Y-121984082D01*
X182824882Y-122100000D01*
X179302500Y-122100000D01*
X179302500Y-119497141D01*
X183043092Y-119497141D01*
X183043547Y-119502924D01*
X183057942Y-119593815D01*
X183061499Y-119604761D01*
X183117327Y-119714331D01*
X183124092Y-119723642D01*
X183211049Y-119810599D01*
X183220360Y-119817364D01*
X183329929Y-119873192D01*
X183340877Y-119876750D01*
X183431767Y-119891145D01*
X183437549Y-119891600D01*
X183605043Y-119891600D01*
X183615039Y-119887962D01*
X183618091Y-119882675D01*
X183618091Y-119878551D01*
X183818091Y-119878551D01*
X183821729Y-119888547D01*
X183827016Y-119891599D01*
X183998632Y-119891599D01*
X184004415Y-119891144D01*
X184095306Y-119876749D01*
X184106252Y-119873192D01*
X184215822Y-119817364D01*
X184225133Y-119810599D01*
X184312090Y-119723642D01*
X184318855Y-119714331D01*
X184374683Y-119604762D01*
X184378241Y-119593814D01*
X184392636Y-119502924D01*
X184393091Y-119497142D01*
X184393091Y-119354648D01*
X184389453Y-119344652D01*
X184384166Y-119341600D01*
X183831139Y-119341600D01*
X183821143Y-119345238D01*
X183818091Y-119350525D01*
X183818091Y-119878551D01*
X183618091Y-119878551D01*
X183618091Y-119354648D01*
X183614453Y-119344652D01*
X183609166Y-119341600D01*
X183056140Y-119341600D01*
X183046144Y-119345238D01*
X183043092Y-119350525D01*
X183043092Y-119497141D01*
X179302500Y-119497141D01*
X179302500Y-119197412D01*
X184990000Y-119197412D01*
X184990317Y-119202247D01*
X184995780Y-119243742D01*
X184998912Y-119254487D01*
X185044457Y-119352158D01*
X185051769Y-119362601D01*
X185127399Y-119438231D01*
X185137842Y-119445543D01*
X185195985Y-119472656D01*
X185231778Y-119508449D01*
X185236189Y-119558876D01*
X185205824Y-119601252D01*
X185137143Y-119647143D01*
X185078020Y-119735627D01*
X185076599Y-119742770D01*
X185076598Y-119742773D01*
X185069291Y-119779511D01*
X185062500Y-119813652D01*
X185062500Y-120146348D01*
X185063210Y-120149917D01*
X185063210Y-120149918D01*
X185076598Y-120217227D01*
X185076599Y-120217230D01*
X185078020Y-120224373D01*
X185137143Y-120312857D01*
X185225627Y-120371980D01*
X185232770Y-120373401D01*
X185232773Y-120373402D01*
X185300082Y-120386790D01*
X185300083Y-120386790D01*
X185303652Y-120387500D01*
X185696348Y-120387500D01*
X185699917Y-120386790D01*
X185699918Y-120386790D01*
X185767227Y-120373402D01*
X185767230Y-120373401D01*
X185774373Y-120371980D01*
X185862857Y-120312857D01*
X185919632Y-120227887D01*
X185960452Y-120197956D01*
X185981160Y-120195000D01*
X186018840Y-120195000D01*
X186066406Y-120212313D01*
X186080368Y-120227886D01*
X186137143Y-120312857D01*
X186225627Y-120371980D01*
X186232770Y-120373401D01*
X186232773Y-120373402D01*
X186300082Y-120386790D01*
X186300083Y-120386790D01*
X186303652Y-120387500D01*
X186367154Y-120387500D01*
X186414720Y-120404813D01*
X186440030Y-120448650D01*
X186431240Y-120498500D01*
X186408266Y-120523029D01*
X186387143Y-120537143D01*
X186328020Y-120625627D01*
X186326599Y-120632770D01*
X186326598Y-120632773D01*
X186325919Y-120636189D01*
X186312500Y-120703652D01*
X186312500Y-121096348D01*
X186313210Y-121099917D01*
X186313210Y-121099918D01*
X186326598Y-121167227D01*
X186326599Y-121167230D01*
X186328020Y-121174373D01*
X186387143Y-121262857D01*
X186475627Y-121321980D01*
X186482770Y-121323401D01*
X186482773Y-121323402D01*
X186550082Y-121336790D01*
X186550083Y-121336790D01*
X186553652Y-121337500D01*
X186620470Y-121337500D01*
X186668036Y-121354813D01*
X186672796Y-121359174D01*
X187010354Y-121696732D01*
X187031746Y-121742608D01*
X187031117Y-121760635D01*
X187026139Y-121792065D01*
X187024882Y-121800000D01*
X187043242Y-121915918D01*
X187045885Y-121921106D01*
X187045886Y-121921108D01*
X187054879Y-121938757D01*
X187096523Y-122020489D01*
X187179511Y-122103477D01*
X187208411Y-122118202D01*
X187278892Y-122154114D01*
X187278894Y-122154115D01*
X187284082Y-122156758D01*
X187400000Y-122175118D01*
X187515918Y-122156758D01*
X187521106Y-122154115D01*
X187521108Y-122154114D01*
X187591589Y-122118202D01*
X187620489Y-122103477D01*
X187703477Y-122020489D01*
X187745121Y-121938757D01*
X187754114Y-121921108D01*
X187754115Y-121921106D01*
X187756758Y-121915918D01*
X187775118Y-121800000D01*
X187756758Y-121684082D01*
X187748717Y-121668299D01*
X187706119Y-121584697D01*
X187703477Y-121579511D01*
X187701360Y-121577394D01*
X190765420Y-121577394D01*
X190766417Y-121582338D01*
X190766417Y-121582340D01*
X190793394Y-121716126D01*
X190795233Y-121725246D01*
X190863707Y-121859635D01*
X190907139Y-121906867D01*
X190962382Y-121966944D01*
X190962386Y-121966947D01*
X190965799Y-121970659D01*
X190970085Y-121973316D01*
X190970088Y-121973319D01*
X191041843Y-122017808D01*
X191093986Y-122050138D01*
X191149003Y-122066122D01*
X191235103Y-122091137D01*
X191235106Y-122091138D01*
X191238825Y-122092218D01*
X191243697Y-122092576D01*
X191248160Y-122092904D01*
X191248174Y-122092904D01*
X191249515Y-122093003D01*
X191357785Y-122093003D01*
X191469432Y-122077709D01*
X191607855Y-122017808D01*
X191705475Y-121938757D01*
X191721151Y-121926063D01*
X191721153Y-121926061D01*
X191725070Y-121922889D01*
X191765238Y-121866367D01*
X191809521Y-121804056D01*
X191809523Y-121804053D01*
X191812442Y-121799945D01*
X191815331Y-121791922D01*
X191861824Y-121662782D01*
X191863533Y-121658035D01*
X191864983Y-121638300D01*
X191874210Y-121512645D01*
X191874580Y-121507612D01*
X191871515Y-121492409D01*
X191845764Y-121364703D01*
X191845763Y-121364701D01*
X191844767Y-121359760D01*
X191776293Y-121225371D01*
X191715209Y-121158943D01*
X191677618Y-121118062D01*
X191677614Y-121118059D01*
X191674201Y-121114347D01*
X191669915Y-121111690D01*
X191669912Y-121111687D01*
X191559152Y-121043014D01*
X191546014Y-121034868D01*
X191458016Y-121009302D01*
X191404897Y-120993869D01*
X191404894Y-120993868D01*
X191401175Y-120992788D01*
X191396303Y-120992430D01*
X191391840Y-120992102D01*
X191391826Y-120992102D01*
X191390485Y-120992003D01*
X191282215Y-120992003D01*
X191170568Y-121007297D01*
X191032145Y-121067198D01*
X190977206Y-121111687D01*
X190918849Y-121158943D01*
X190918847Y-121158945D01*
X190914930Y-121162117D01*
X190894347Y-121191080D01*
X190830479Y-121280950D01*
X190830477Y-121280953D01*
X190827558Y-121285061D01*
X190825850Y-121289805D01*
X190785157Y-121402833D01*
X190776467Y-121426971D01*
X190776098Y-121432000D01*
X190776097Y-121432003D01*
X190772196Y-121485121D01*
X190765420Y-121577394D01*
X187701360Y-121577394D01*
X187620489Y-121496523D01*
X187615303Y-121493881D01*
X187610588Y-121490455D01*
X187611438Y-121489286D01*
X187581579Y-121457264D01*
X187579441Y-121416427D01*
X187579157Y-121416402D01*
X187579334Y-121414383D01*
X187578932Y-121406715D01*
X187580000Y-121404259D01*
X187580000Y-121396952D01*
X187780000Y-121396952D01*
X187783638Y-121406948D01*
X187788925Y-121410000D01*
X187857412Y-121410000D01*
X187862247Y-121409683D01*
X187903742Y-121404220D01*
X187914487Y-121401088D01*
X188012158Y-121355543D01*
X188022601Y-121348231D01*
X188098231Y-121272601D01*
X188105543Y-121262158D01*
X188151088Y-121164487D01*
X188154220Y-121153742D01*
X188159683Y-121112247D01*
X188160000Y-121107412D01*
X188160000Y-121013048D01*
X188156362Y-121003052D01*
X188151075Y-121000000D01*
X187793048Y-121000000D01*
X187783052Y-121003638D01*
X187780000Y-121008925D01*
X187780000Y-121396952D01*
X187580000Y-121396952D01*
X187580000Y-120403048D01*
X187576362Y-120393052D01*
X187571075Y-120390000D01*
X187502588Y-120390000D01*
X187497753Y-120390317D01*
X187456258Y-120395780D01*
X187445513Y-120398912D01*
X187347842Y-120444457D01*
X187337399Y-120451769D01*
X187261769Y-120527399D01*
X187254457Y-120537842D01*
X187227344Y-120595985D01*
X187191551Y-120631778D01*
X187141124Y-120636189D01*
X187098748Y-120605824D01*
X187096896Y-120603052D01*
X187052857Y-120537143D01*
X186964373Y-120478020D01*
X186957230Y-120476599D01*
X186957227Y-120476598D01*
X186889918Y-120463210D01*
X186889917Y-120463210D01*
X186886348Y-120462500D01*
X186882709Y-120462500D01*
X186879094Y-120462144D01*
X186879190Y-120461169D01*
X186835280Y-120445187D01*
X186809970Y-120401350D01*
X186818760Y-120351500D01*
X186841734Y-120326971D01*
X186856796Y-120316907D01*
X186856797Y-120316906D01*
X186862857Y-120312857D01*
X186919632Y-120227887D01*
X186960452Y-120197956D01*
X186981160Y-120195000D01*
X187641425Y-120195000D01*
X187688991Y-120212313D01*
X187696411Y-120220269D01*
X187696523Y-120220489D01*
X187774607Y-120298573D01*
X187795999Y-120344449D01*
X187786366Y-120387901D01*
X187780000Y-120398927D01*
X187780000Y-120786952D01*
X187783638Y-120796948D01*
X187788925Y-120800000D01*
X188146952Y-120800000D01*
X188156948Y-120796362D01*
X188160000Y-120791075D01*
X188160000Y-120692588D01*
X188159683Y-120687753D01*
X188154220Y-120646258D01*
X188151088Y-120635513D01*
X188105543Y-120537842D01*
X188098231Y-120527399D01*
X188056035Y-120485203D01*
X188034643Y-120439327D01*
X188047744Y-120390432D01*
X188089208Y-120361398D01*
X188096781Y-120359789D01*
X188115918Y-120356758D01*
X188121106Y-120354115D01*
X188121108Y-120354114D01*
X188174379Y-120326971D01*
X188220489Y-120303477D01*
X188303477Y-120220489D01*
X188339434Y-120149918D01*
X188354114Y-120121108D01*
X188354115Y-120121106D01*
X188356758Y-120115918D01*
X188375118Y-120000000D01*
X188356758Y-119884082D01*
X188353023Y-119876750D01*
X188325772Y-119823268D01*
X188303477Y-119779511D01*
X188220489Y-119696523D01*
X188144233Y-119657669D01*
X188121108Y-119645886D01*
X188121106Y-119645885D01*
X188115918Y-119643242D01*
X188000000Y-119624882D01*
X187884082Y-119643242D01*
X187878894Y-119645885D01*
X187878892Y-119645886D01*
X187855767Y-119657669D01*
X187779511Y-119696523D01*
X187732708Y-119743326D01*
X187686832Y-119764718D01*
X187680382Y-119765000D01*
X186981160Y-119765000D01*
X186933594Y-119747687D01*
X186919631Y-119732112D01*
X186895852Y-119696523D01*
X186862857Y-119647143D01*
X186794176Y-119601252D01*
X186764245Y-119560430D01*
X186767556Y-119509919D01*
X186804015Y-119472656D01*
X186862158Y-119445543D01*
X186872601Y-119438231D01*
X186948231Y-119362601D01*
X186955543Y-119352158D01*
X187001088Y-119254487D01*
X187004220Y-119243742D01*
X187009683Y-119202247D01*
X187010000Y-119197412D01*
X187010000Y-119133048D01*
X187006362Y-119123052D01*
X187001075Y-119120000D01*
X185003048Y-119120000D01*
X184993052Y-119123638D01*
X184990000Y-119128925D01*
X184990000Y-119197412D01*
X179302500Y-119197412D01*
X179302500Y-119128552D01*
X183043091Y-119128552D01*
X183046729Y-119138548D01*
X183052016Y-119141600D01*
X183605043Y-119141600D01*
X183615039Y-119137962D01*
X183618091Y-119132675D01*
X183618091Y-119128552D01*
X183818091Y-119128552D01*
X183821729Y-119138548D01*
X183827016Y-119141600D01*
X184380042Y-119141600D01*
X184390038Y-119137962D01*
X184393090Y-119132675D01*
X184393090Y-118986059D01*
X184392635Y-118980276D01*
X184381022Y-118906952D01*
X184990000Y-118906952D01*
X184993638Y-118916948D01*
X184998925Y-118920000D01*
X185386952Y-118920000D01*
X185396948Y-118916362D01*
X185400000Y-118911075D01*
X185400000Y-118906952D01*
X185600000Y-118906952D01*
X185603638Y-118916948D01*
X185608925Y-118920000D01*
X186386952Y-118920000D01*
X186396948Y-118916362D01*
X186400000Y-118911075D01*
X186400000Y-118906952D01*
X186600000Y-118906952D01*
X186603638Y-118916948D01*
X186608925Y-118920000D01*
X186996952Y-118920000D01*
X187006948Y-118916362D01*
X187010000Y-118911075D01*
X187010000Y-118842588D01*
X187009683Y-118837753D01*
X187004220Y-118796258D01*
X187001088Y-118785513D01*
X186955543Y-118687842D01*
X186948231Y-118677399D01*
X186872601Y-118601769D01*
X186862158Y-118594457D01*
X186764487Y-118548912D01*
X186753742Y-118545780D01*
X186712247Y-118540317D01*
X186707412Y-118540000D01*
X186613048Y-118540000D01*
X186603052Y-118543638D01*
X186600000Y-118548925D01*
X186600000Y-118906952D01*
X186400000Y-118906952D01*
X186400000Y-118553048D01*
X186396362Y-118543052D01*
X186391075Y-118540000D01*
X186292588Y-118540000D01*
X186287753Y-118540317D01*
X186246258Y-118545780D01*
X186235513Y-118548912D01*
X186137842Y-118594457D01*
X186127399Y-118601769D01*
X186052326Y-118676842D01*
X186006450Y-118698234D01*
X185957555Y-118685133D01*
X185947674Y-118676842D01*
X185872601Y-118601769D01*
X185862158Y-118594457D01*
X185764487Y-118548912D01*
X185753742Y-118545780D01*
X185712247Y-118540317D01*
X185707412Y-118540000D01*
X185613048Y-118540000D01*
X185603052Y-118543638D01*
X185600000Y-118548925D01*
X185600000Y-118906952D01*
X185400000Y-118906952D01*
X185400000Y-118553048D01*
X185396362Y-118543052D01*
X185391075Y-118540000D01*
X185292588Y-118540000D01*
X185287753Y-118540317D01*
X185246258Y-118545780D01*
X185235513Y-118548912D01*
X185137842Y-118594457D01*
X185127399Y-118601769D01*
X185051769Y-118677399D01*
X185044457Y-118687842D01*
X184998912Y-118785513D01*
X184995780Y-118796258D01*
X184990317Y-118837753D01*
X184990000Y-118842588D01*
X184990000Y-118906952D01*
X184381022Y-118906952D01*
X184378240Y-118889385D01*
X184374683Y-118878439D01*
X184318855Y-118768869D01*
X184312090Y-118759558D01*
X184225133Y-118672601D01*
X184215822Y-118665836D01*
X184106253Y-118610008D01*
X184095305Y-118606450D01*
X184004415Y-118592055D01*
X183998633Y-118591600D01*
X183831139Y-118591600D01*
X183821143Y-118595238D01*
X183818091Y-118600525D01*
X183818091Y-119128552D01*
X183618091Y-119128552D01*
X183618091Y-118604649D01*
X183614453Y-118594653D01*
X183609166Y-118591601D01*
X183437550Y-118591601D01*
X183431767Y-118592056D01*
X183340876Y-118606451D01*
X183329930Y-118610008D01*
X183220360Y-118665836D01*
X183211049Y-118672601D01*
X183124092Y-118759558D01*
X183117327Y-118768869D01*
X183061499Y-118878438D01*
X183057941Y-118889386D01*
X183043546Y-118980276D01*
X183043091Y-118986058D01*
X183043091Y-119128552D01*
X179302500Y-119128552D01*
X179302500Y-118445337D01*
X179302976Y-118436960D01*
X179303612Y-118431376D01*
X179306373Y-118423514D01*
X179302954Y-118392792D01*
X179302500Y-118384607D01*
X179302500Y-118377169D01*
X179300926Y-118370268D01*
X179299527Y-118361999D01*
X179297076Y-118339974D01*
X179297076Y-118339973D01*
X179296154Y-118331692D01*
X179291731Y-118324627D01*
X179290558Y-118321259D01*
X179289014Y-118318051D01*
X179287161Y-118309926D01*
X179281968Y-118303410D01*
X179278354Y-118295899D01*
X179279764Y-118295221D01*
X179266804Y-118256594D01*
X179267691Y-118246894D01*
X179274207Y-118205752D01*
X179275118Y-118200000D01*
X179256758Y-118084082D01*
X179250805Y-118072397D01*
X179223748Y-118019295D01*
X179203477Y-117979511D01*
X179122316Y-117898350D01*
X179100924Y-117852474D01*
X179114025Y-117803579D01*
X179155489Y-117774545D01*
X179186218Y-117772935D01*
X179200000Y-117775118D01*
X179315918Y-117756758D01*
X179321106Y-117754115D01*
X179321108Y-117754114D01*
X179377266Y-117725500D01*
X179420489Y-117703477D01*
X179503477Y-117620489D01*
X179556758Y-117515918D01*
X179575118Y-117400000D01*
X179556758Y-117284082D01*
X179550348Y-117271500D01*
X179506119Y-117184697D01*
X179503477Y-117179511D01*
X179420489Y-117096523D01*
X179370511Y-117071058D01*
X179321108Y-117045886D01*
X179321106Y-117045885D01*
X179315918Y-117043242D01*
X179200000Y-117024882D01*
X179084082Y-117043242D01*
X179078894Y-117045885D01*
X179078892Y-117045886D01*
X179029489Y-117071058D01*
X178979511Y-117096523D01*
X178896523Y-117179511D01*
X178893881Y-117184697D01*
X178849653Y-117271500D01*
X178843242Y-117284082D01*
X178824882Y-117400000D01*
X178843242Y-117515918D01*
X178896523Y-117620489D01*
X178977684Y-117701650D01*
X178999076Y-117747526D01*
X178985975Y-117796421D01*
X178944511Y-117825455D01*
X178913782Y-117827065D01*
X178900000Y-117824882D01*
X178784082Y-117843242D01*
X178778894Y-117845885D01*
X178778892Y-117845886D01*
X178729489Y-117871058D01*
X178679511Y-117896523D01*
X178596523Y-117979511D01*
X178576252Y-118019295D01*
X178549196Y-118072397D01*
X178543242Y-118084082D01*
X178524882Y-118200000D01*
X178543242Y-118315918D01*
X178545887Y-118321108D01*
X178547686Y-118326647D01*
X178546069Y-118327172D01*
X178551315Y-118369900D01*
X178523745Y-118412352D01*
X178490788Y-118426341D01*
X178384082Y-118443242D01*
X178378894Y-118445885D01*
X178378892Y-118445886D01*
X178346350Y-118462467D01*
X178279511Y-118496523D01*
X178196523Y-118579511D01*
X178185816Y-118600525D01*
X178149092Y-118672601D01*
X178143242Y-118684082D01*
X178124882Y-118800000D01*
X178143242Y-118915918D01*
X178145885Y-118921106D01*
X178145886Y-118921108D01*
X178171058Y-118970511D01*
X178196523Y-119020489D01*
X178279511Y-119103477D01*
X178317930Y-119123052D01*
X178378892Y-119154114D01*
X178378894Y-119154115D01*
X178384082Y-119156758D01*
X178482346Y-119172322D01*
X178487954Y-119173210D01*
X178500000Y-119175118D01*
X178535403Y-119169510D01*
X178585092Y-119179168D01*
X178616948Y-119218506D01*
X178620980Y-119242599D01*
X178620980Y-122646980D01*
X178603667Y-122694546D01*
X178559830Y-122719856D01*
X178546980Y-122720980D01*
X176238010Y-122720980D01*
X176190444Y-122703667D01*
X176185684Y-122699306D01*
X175675247Y-122188869D01*
X175669661Y-122182611D01*
X175666162Y-122178213D01*
X175662554Y-122170699D01*
X175638409Y-122151390D01*
X175632309Y-122145931D01*
X175627045Y-122140667D01*
X175623534Y-122138460D01*
X175623531Y-122138458D01*
X175621052Y-122136900D01*
X175614210Y-122132038D01*
X175596910Y-122118202D01*
X175596909Y-122118201D01*
X175590401Y-122112997D01*
X175582278Y-122111129D01*
X175579067Y-122109577D01*
X175575708Y-122108401D01*
X175568651Y-122103965D01*
X175547240Y-122101544D01*
X175538352Y-122100539D01*
X175530088Y-122099127D01*
X175527092Y-122098438D01*
X175527089Y-122098438D01*
X175523011Y-122097500D01*
X175515640Y-122097500D01*
X175507327Y-122097032D01*
X175485126Y-122094522D01*
X175476847Y-122093586D01*
X175468981Y-122096333D01*
X175462687Y-122097039D01*
X175454438Y-122097500D01*
X174626500Y-122097500D01*
X174578934Y-122080187D01*
X174553624Y-122036350D01*
X174552500Y-122023500D01*
X174552500Y-121834985D01*
X174567929Y-121792595D01*
X174566922Y-121791922D01*
X174595102Y-121749748D01*
X174596578Y-121742331D01*
X174601790Y-121716126D01*
X174602500Y-121712558D01*
X174602500Y-121187442D01*
X174595102Y-121150252D01*
X174578388Y-121125237D01*
X174566357Y-121076070D01*
X174578388Y-121043014D01*
X174584348Y-121034094D01*
X174589818Y-121020890D01*
X174599290Y-120973268D01*
X174600000Y-120966058D01*
X174600000Y-120613048D01*
X174596362Y-120603052D01*
X174591075Y-120600000D01*
X172613048Y-120600000D01*
X172603052Y-120603638D01*
X172600000Y-120608925D01*
X172600000Y-120966058D01*
X172600710Y-120973268D01*
X172610182Y-121020890D01*
X172615652Y-121034094D01*
X172621612Y-121043014D01*
X172633643Y-121092182D01*
X172621613Y-121125237D01*
X172604898Y-121150252D01*
X172597500Y-121187442D01*
X172597500Y-121407591D01*
X172596078Y-121422028D01*
X172590514Y-121450000D01*
X172591936Y-121457149D01*
X172596078Y-121477972D01*
X172597500Y-121492409D01*
X172597500Y-121712558D01*
X172598210Y-121716126D01*
X172603423Y-121742331D01*
X172604898Y-121749748D01*
X172633078Y-121791922D01*
X172675252Y-121820102D01*
X172682398Y-121821523D01*
X172682399Y-121821524D01*
X172692937Y-121823620D01*
X172712442Y-121827500D01*
X172987558Y-121827500D01*
X173007063Y-121823620D01*
X173057092Y-121831319D01*
X173090468Y-121869376D01*
X173095500Y-121896198D01*
X173095500Y-122802188D01*
X173083029Y-122843300D01*
X173036716Y-122912612D01*
X172995894Y-122942544D01*
X172975187Y-122945500D01*
X172700118Y-122945500D01*
X172652552Y-122928187D01*
X172647792Y-122923826D01*
X172620489Y-122896523D01*
X172570511Y-122871058D01*
X172521108Y-122845886D01*
X172521106Y-122845885D01*
X172515918Y-122843242D01*
X172400000Y-122824882D01*
X172284082Y-122843242D01*
X172278894Y-122845885D01*
X172278892Y-122845886D01*
X172229489Y-122871058D01*
X172179511Y-122896523D01*
X172096523Y-122979511D01*
X172043242Y-123084082D01*
X172024882Y-123200000D01*
X171051000Y-123200000D01*
X171051000Y-118600000D01*
X171640514Y-118600000D01*
X171645500Y-118625067D01*
X171657120Y-118683484D01*
X171660266Y-118699301D01*
X171670958Y-118715303D01*
X171702313Y-118762230D01*
X171702322Y-118762242D01*
X171709177Y-118772501D01*
X171716516Y-118783484D01*
X171731704Y-118793632D01*
X171742915Y-118802833D01*
X172575826Y-119635744D01*
X172597218Y-119681620D01*
X172597500Y-119688070D01*
X172597500Y-119812558D01*
X172604898Y-119849748D01*
X172621612Y-119874763D01*
X172633643Y-119923930D01*
X172621612Y-119956986D01*
X172615652Y-119965906D01*
X172610182Y-119979110D01*
X172600710Y-120026732D01*
X172600000Y-120033942D01*
X172600000Y-120386952D01*
X172603638Y-120396948D01*
X172608925Y-120400000D01*
X174586952Y-120400000D01*
X174596948Y-120396362D01*
X174600000Y-120391075D01*
X174600000Y-120033942D01*
X174599289Y-120026727D01*
X174596281Y-120011601D01*
X174603982Y-119961571D01*
X174616533Y-119944840D01*
X174623241Y-119938132D01*
X174659348Y-119884094D01*
X174664818Y-119870890D01*
X174674290Y-119823268D01*
X174675000Y-119816058D01*
X174675000Y-119663048D01*
X174671362Y-119653052D01*
X174666075Y-119650000D01*
X174324000Y-119650000D01*
X174276434Y-119632687D01*
X174251124Y-119588850D01*
X174250000Y-119576000D01*
X174250000Y-119524000D01*
X174267313Y-119476434D01*
X174311150Y-119451124D01*
X174324000Y-119450000D01*
X174661952Y-119450000D01*
X174671948Y-119446362D01*
X174675000Y-119441075D01*
X174675000Y-119283942D01*
X174674290Y-119276730D01*
X174667568Y-119242936D01*
X174675269Y-119192906D01*
X174713326Y-119159531D01*
X174740146Y-119154500D01*
X174863930Y-119154500D01*
X174911496Y-119171813D01*
X174916256Y-119176174D01*
X175123826Y-119383743D01*
X175145218Y-119429619D01*
X175145500Y-119436069D01*
X175145500Y-121167646D01*
X175144078Y-121182082D01*
X175140514Y-121200000D01*
X175145500Y-121225067D01*
X175157908Y-121287446D01*
X175160266Y-121299301D01*
X175176370Y-121323402D01*
X175202313Y-121362230D01*
X175202322Y-121362242D01*
X175212466Y-121377423D01*
X175216516Y-121383484D01*
X175231704Y-121393632D01*
X175242915Y-121402833D01*
X175497167Y-121657085D01*
X175506368Y-121668296D01*
X175516516Y-121683484D01*
X175522577Y-121687534D01*
X175537758Y-121697678D01*
X175537766Y-121697684D01*
X175600699Y-121739734D01*
X175607842Y-121741155D01*
X175607845Y-121741156D01*
X175692851Y-121758064D01*
X175700000Y-121759486D01*
X175707149Y-121758064D01*
X175717918Y-121755922D01*
X175732354Y-121754500D01*
X175993711Y-121754500D01*
X176041277Y-121771813D01*
X176061803Y-121799527D01*
X176088768Y-121862900D01*
X176091318Y-121866364D01*
X176091319Y-121866367D01*
X176186768Y-121996068D01*
X176186772Y-121996072D01*
X176189318Y-121999532D01*
X176192595Y-122002316D01*
X176192596Y-122002317D01*
X176311670Y-122103477D01*
X176318603Y-122109367D01*
X176322429Y-122111321D01*
X176322431Y-122111322D01*
X176375574Y-122138458D01*
X176469687Y-122186515D01*
X176634468Y-122226837D01*
X176637757Y-122227041D01*
X176644027Y-122227430D01*
X176644028Y-122227430D01*
X176645156Y-122227500D01*
X177317483Y-122227500D01*
X177319608Y-122227252D01*
X177319612Y-122227252D01*
X177439230Y-122213306D01*
X177443501Y-122212808D01*
X177447542Y-122211341D01*
X177447543Y-122211341D01*
X177598916Y-122156395D01*
X177598919Y-122156394D01*
X177602962Y-122154926D01*
X177744832Y-122061912D01*
X177861498Y-121938757D01*
X177871750Y-121921108D01*
X177944544Y-121795782D01*
X177946703Y-121792065D01*
X177958081Y-121754500D01*
X177978154Y-121688221D01*
X177995877Y-121629706D01*
X177998669Y-121584697D01*
X178006115Y-121464684D01*
X178006115Y-121464681D01*
X178006381Y-121460390D01*
X177977652Y-121293198D01*
X177972441Y-121280950D01*
X177934954Y-121192851D01*
X177911232Y-121137100D01*
X177908681Y-121133633D01*
X177813232Y-121003932D01*
X177813228Y-121003928D01*
X177810682Y-121000468D01*
X177802915Y-120993869D01*
X177684673Y-120893416D01*
X177684672Y-120893415D01*
X177681397Y-120890633D01*
X177677571Y-120888679D01*
X177677569Y-120888678D01*
X177575265Y-120836439D01*
X177530313Y-120813485D01*
X177365532Y-120773163D01*
X177358842Y-120772748D01*
X177355973Y-120772570D01*
X177355972Y-120772570D01*
X177354844Y-120772500D01*
X176682517Y-120772500D01*
X176680392Y-120772748D01*
X176680388Y-120772748D01*
X176560770Y-120786694D01*
X176556499Y-120787192D01*
X176552458Y-120788659D01*
X176552457Y-120788659D01*
X176401084Y-120843605D01*
X176401081Y-120843606D01*
X176397038Y-120845074D01*
X176255168Y-120938088D01*
X176138502Y-121061243D01*
X176136342Y-121064961D01*
X176136341Y-121064963D01*
X176067273Y-121183874D01*
X176053297Y-121207935D01*
X176051346Y-121206802D01*
X176022030Y-121237714D01*
X175988990Y-121245500D01*
X175836070Y-121245500D01*
X175788504Y-121228187D01*
X175783744Y-121223826D01*
X175676174Y-121116256D01*
X175654782Y-121070380D01*
X175654500Y-121063930D01*
X175654500Y-119332350D01*
X175655922Y-119317915D01*
X175658063Y-119307151D01*
X175658063Y-119307149D01*
X175659485Y-119300000D01*
X175654500Y-119274937D01*
X175654500Y-119274933D01*
X175648296Y-119243742D01*
X175641156Y-119207846D01*
X175641155Y-119207844D01*
X175639734Y-119200699D01*
X175602718Y-119145301D01*
X175597683Y-119137766D01*
X175583484Y-119116516D01*
X175568293Y-119106366D01*
X175557082Y-119097165D01*
X175202833Y-118742915D01*
X175193630Y-118731701D01*
X175187533Y-118722576D01*
X175183484Y-118716516D01*
X175177423Y-118712466D01*
X175162242Y-118702322D01*
X175162234Y-118702316D01*
X175143845Y-118690029D01*
X175113913Y-118649208D01*
X175117224Y-118598697D01*
X175152227Y-118562132D01*
X175184957Y-118554500D01*
X175663930Y-118554500D01*
X175711496Y-118571813D01*
X175716256Y-118576174D01*
X176027513Y-118887431D01*
X176048905Y-118933307D01*
X176041669Y-118972254D01*
X176008231Y-119040661D01*
X175997500Y-119114219D01*
X175997501Y-119885780D01*
X175997894Y-119888448D01*
X175997894Y-119888452D01*
X176006194Y-119944840D01*
X176008422Y-119959979D01*
X176010955Y-119965139D01*
X176010956Y-119965141D01*
X176033767Y-120011601D01*
X176063810Y-120072790D01*
X176068137Y-120077109D01*
X176068138Y-120077111D01*
X176148426Y-120157259D01*
X176152753Y-120161578D01*
X176204654Y-120186948D01*
X176260501Y-120214247D01*
X176260503Y-120214247D01*
X176265661Y-120216769D01*
X176339219Y-120227500D01*
X176997666Y-120227500D01*
X177660780Y-120227499D01*
X177663448Y-120227106D01*
X177663452Y-120227106D01*
X177729288Y-120217416D01*
X177729290Y-120217415D01*
X177734979Y-120216578D01*
X177740139Y-120214045D01*
X177740141Y-120214044D01*
X177842301Y-120163885D01*
X177847790Y-120161190D01*
X177852109Y-120156863D01*
X177852111Y-120156862D01*
X177932259Y-120076574D01*
X177932260Y-120076572D01*
X177936578Y-120072247D01*
X177988559Y-119965906D01*
X177989247Y-119964499D01*
X177989247Y-119964497D01*
X177991769Y-119959339D01*
X178001651Y-119891599D01*
X178002113Y-119888434D01*
X178002500Y-119885781D01*
X178002499Y-119114220D01*
X178002106Y-119111548D01*
X177992416Y-119045712D01*
X177992415Y-119045710D01*
X177991578Y-119040021D01*
X177981989Y-119020489D01*
X177938885Y-118932699D01*
X177936190Y-118927210D01*
X177931863Y-118922891D01*
X177931862Y-118922889D01*
X177851574Y-118842741D01*
X177851572Y-118842740D01*
X177847247Y-118838422D01*
X177774241Y-118802736D01*
X177739499Y-118785753D01*
X177739497Y-118785753D01*
X177734339Y-118783231D01*
X177660781Y-118772500D01*
X177578069Y-118772500D01*
X176663071Y-118772501D01*
X176615505Y-118755188D01*
X176610745Y-118750827D01*
X176002833Y-118142915D01*
X175993630Y-118131701D01*
X175991798Y-118128958D01*
X175983484Y-118116516D01*
X175977423Y-118112466D01*
X175962242Y-118102322D01*
X175962234Y-118102316D01*
X175943556Y-118089836D01*
X175899301Y-118060266D01*
X175892158Y-118058845D01*
X175892155Y-118058844D01*
X175807149Y-118041936D01*
X175800000Y-118040514D01*
X175792851Y-118041936D01*
X175782082Y-118044078D01*
X175767646Y-118045500D01*
X174382837Y-118045500D01*
X174335271Y-118028187D01*
X174309961Y-117984350D01*
X174315770Y-117940226D01*
X174351089Y-117864487D01*
X174354220Y-117853742D01*
X174359683Y-117812247D01*
X174360000Y-117807412D01*
X174360000Y-117713048D01*
X174356362Y-117703052D01*
X174351075Y-117700000D01*
X173854000Y-117700000D01*
X173806434Y-117682687D01*
X173781124Y-117638850D01*
X173780000Y-117626000D01*
X173780000Y-117486952D01*
X173980000Y-117486952D01*
X173983638Y-117496948D01*
X173988925Y-117500000D01*
X174346952Y-117500000D01*
X174356948Y-117496362D01*
X174360000Y-117491075D01*
X174360000Y-117392588D01*
X174359683Y-117387753D01*
X174354220Y-117346258D01*
X174351088Y-117335513D01*
X174305543Y-117237842D01*
X174298231Y-117227399D01*
X174222601Y-117151769D01*
X174212158Y-117144457D01*
X174114487Y-117098912D01*
X174103742Y-117095780D01*
X174062247Y-117090317D01*
X174057412Y-117090000D01*
X173993048Y-117090000D01*
X173983052Y-117093638D01*
X173980000Y-117098925D01*
X173980000Y-117486952D01*
X173780000Y-117486952D01*
X173780000Y-117103048D01*
X173776362Y-117093052D01*
X173771075Y-117090000D01*
X173702588Y-117090000D01*
X173697753Y-117090317D01*
X173656258Y-117095780D01*
X173645513Y-117098912D01*
X173547842Y-117144457D01*
X173537399Y-117151769D01*
X173461769Y-117227399D01*
X173454457Y-117237842D01*
X173427344Y-117295985D01*
X173391551Y-117331778D01*
X173341124Y-117336189D01*
X173298748Y-117305824D01*
X173288065Y-117289836D01*
X173252857Y-117237143D01*
X173164373Y-117178020D01*
X173157230Y-117176599D01*
X173157227Y-117176598D01*
X173089918Y-117163210D01*
X173089917Y-117163210D01*
X173086348Y-117162500D01*
X172753652Y-117162500D01*
X172750083Y-117163210D01*
X172750082Y-117163210D01*
X172682773Y-117176598D01*
X172682770Y-117176599D01*
X172675627Y-117178020D01*
X172587143Y-117237143D01*
X172583095Y-117243202D01*
X172583093Y-117243204D01*
X172536716Y-117312612D01*
X172495894Y-117342544D01*
X172475187Y-117345500D01*
X172228500Y-117345500D01*
X172180934Y-117328187D01*
X172155624Y-117284350D01*
X172154500Y-117271500D01*
X172154500Y-116800000D01*
X172950000Y-116800000D01*
X176500000Y-116800000D01*
X176500000Y-116500000D01*
X179124882Y-116500000D01*
X179143242Y-116615918D01*
X179196523Y-116720489D01*
X179279511Y-116803477D01*
X179302698Y-116815291D01*
X179378892Y-116854114D01*
X179378894Y-116854115D01*
X179384082Y-116856758D01*
X179494312Y-116874217D01*
X179535062Y-116894980D01*
X180297165Y-117657082D01*
X180306366Y-117668293D01*
X180316516Y-117683484D01*
X180337766Y-117697683D01*
X180337767Y-117697684D01*
X180400699Y-117739734D01*
X180407842Y-117741155D01*
X180407845Y-117741156D01*
X180492851Y-117758064D01*
X180500000Y-117759486D01*
X180507149Y-117758064D01*
X180517918Y-117755922D01*
X180532354Y-117754500D01*
X181011191Y-117754500D01*
X181058757Y-117771813D01*
X181084067Y-117815650D01*
X181084796Y-117820966D01*
X181084796Y-117824485D01*
X181085503Y-117828042D01*
X181085504Y-117828047D01*
X181092753Y-117864487D01*
X181100751Y-117904697D01*
X181104800Y-117910756D01*
X181147991Y-117975395D01*
X181161532Y-117995661D01*
X181252496Y-118056442D01*
X181259645Y-118057864D01*
X181329138Y-118071687D01*
X181329139Y-118071687D01*
X181332708Y-118072397D01*
X181681884Y-118072397D01*
X181685453Y-118071687D01*
X181685454Y-118071687D01*
X181754947Y-118057864D01*
X181762096Y-118056442D01*
X181853060Y-117995661D01*
X181866602Y-117975395D01*
X181909792Y-117910756D01*
X181913841Y-117904697D01*
X181919718Y-117875151D01*
X181945978Y-117831877D01*
X181993910Y-117815606D01*
X182041087Y-117833952D01*
X182064874Y-117875151D01*
X182070751Y-117904697D01*
X182074800Y-117910756D01*
X182117991Y-117975395D01*
X182131532Y-117995661D01*
X182222496Y-118056442D01*
X182229645Y-118057864D01*
X182299138Y-118071687D01*
X182299139Y-118071687D01*
X182302708Y-118072397D01*
X182651884Y-118072397D01*
X182655453Y-118071687D01*
X182655454Y-118071687D01*
X182724947Y-118057864D01*
X182732096Y-118056442D01*
X182823060Y-117995661D01*
X182827108Y-117989603D01*
X182827111Y-117989600D01*
X182856661Y-117945376D01*
X182897482Y-117915445D01*
X182947993Y-117918756D01*
X182959302Y-117924961D01*
X182962781Y-117927286D01*
X182962783Y-117927287D01*
X182968840Y-117931334D01*
X182975985Y-117932755D01*
X182975987Y-117932756D01*
X183043067Y-117946099D01*
X183043072Y-117946100D01*
X183043075Y-117946100D01*
X183043083Y-117946101D01*
X183066009Y-117950661D01*
X183109284Y-117976920D01*
X183122932Y-118008212D01*
X183123246Y-118008114D01*
X183124130Y-118010960D01*
X183124784Y-118012458D01*
X183125790Y-118019295D01*
X183128323Y-118024454D01*
X183174813Y-118119144D01*
X183174815Y-118119146D01*
X183177510Y-118124636D01*
X183260563Y-118207544D01*
X183321756Y-118237456D01*
X183360833Y-118256558D01*
X183360835Y-118256559D01*
X183365993Y-118259080D01*
X183434680Y-118269100D01*
X183717090Y-118269100D01*
X184001501Y-118269099D01*
X184004169Y-118268706D01*
X184004173Y-118268706D01*
X184039347Y-118263528D01*
X184070786Y-118258901D01*
X184095241Y-118246894D01*
X184170635Y-118209878D01*
X184170637Y-118209876D01*
X184176127Y-118207181D01*
X184259035Y-118124128D01*
X184297178Y-118046097D01*
X184333621Y-118010966D01*
X184384120Y-118007480D01*
X184415986Y-118026269D01*
X184526802Y-118137085D01*
X184536003Y-118148296D01*
X184546151Y-118163484D01*
X184552212Y-118167534D01*
X184554442Y-118169764D01*
X184574694Y-118207653D01*
X184575207Y-118210229D01*
X184578020Y-118224373D01*
X184637143Y-118312857D01*
X184725627Y-118371980D01*
X184732770Y-118373401D01*
X184732773Y-118373402D01*
X184800082Y-118386790D01*
X184800083Y-118386790D01*
X184803652Y-118387500D01*
X185196348Y-118387500D01*
X185199917Y-118386790D01*
X185199918Y-118386790D01*
X185267227Y-118373402D01*
X185267230Y-118373401D01*
X185274373Y-118371980D01*
X185362857Y-118312857D01*
X185393238Y-118267388D01*
X185434059Y-118237456D01*
X185454767Y-118234500D01*
X185545233Y-118234500D01*
X185592799Y-118251813D01*
X185606761Y-118267387D01*
X185637143Y-118312857D01*
X185725627Y-118371980D01*
X185732770Y-118373401D01*
X185732773Y-118373402D01*
X185800082Y-118386790D01*
X185800083Y-118386790D01*
X185803652Y-118387500D01*
X186196348Y-118387500D01*
X186199917Y-118386790D01*
X186199918Y-118386790D01*
X186267227Y-118373402D01*
X186267230Y-118373401D01*
X186274373Y-118371980D01*
X186362857Y-118312857D01*
X186393238Y-118267388D01*
X186434059Y-118237456D01*
X186454767Y-118234500D01*
X187443930Y-118234500D01*
X187491496Y-118251813D01*
X187496256Y-118256174D01*
X187705020Y-118464938D01*
X187725783Y-118505688D01*
X187743242Y-118615918D01*
X187745885Y-118621106D01*
X187745886Y-118621108D01*
X187760204Y-118649208D01*
X187796523Y-118720489D01*
X187823708Y-118747674D01*
X187845100Y-118793550D01*
X187831999Y-118842445D01*
X187823708Y-118852326D01*
X187796523Y-118879511D01*
X187782541Y-118906952D01*
X187762704Y-118945886D01*
X187743242Y-118984082D01*
X187724882Y-119100000D01*
X187743242Y-119215918D01*
X187796523Y-119320489D01*
X187879511Y-119403477D01*
X187914114Y-119421108D01*
X187978892Y-119454114D01*
X187978894Y-119454115D01*
X187984082Y-119456758D01*
X188100000Y-119475118D01*
X188215918Y-119456758D01*
X188221106Y-119454115D01*
X188221108Y-119454114D01*
X188285886Y-119421108D01*
X188320489Y-119403477D01*
X188403477Y-119320489D01*
X188413917Y-119300000D01*
X191424882Y-119300000D01*
X191443242Y-119415918D01*
X191445885Y-119421106D01*
X191445886Y-119421108D01*
X191464051Y-119456758D01*
X191496523Y-119520489D01*
X191579511Y-119603477D01*
X191621521Y-119624882D01*
X191678892Y-119654114D01*
X191678894Y-119654115D01*
X191684082Y-119656758D01*
X191800000Y-119675118D01*
X191830734Y-119670250D01*
X191880421Y-119679908D01*
X191894635Y-119691013D01*
X193330826Y-121127204D01*
X193352218Y-121173080D01*
X193352500Y-121179530D01*
X193352500Y-121470856D01*
X193367730Y-121547423D01*
X193425748Y-121634252D01*
X193512577Y-121692270D01*
X193519726Y-121693692D01*
X193585574Y-121706790D01*
X193585575Y-121706790D01*
X193589144Y-121707500D01*
X194010856Y-121707500D01*
X194014425Y-121706790D01*
X194014426Y-121706790D01*
X194080274Y-121693692D01*
X194087423Y-121692270D01*
X194174252Y-121634252D01*
X194232270Y-121547423D01*
X194247500Y-121470856D01*
X194247500Y-121149144D01*
X194241318Y-121118062D01*
X194233692Y-121079726D01*
X194232270Y-121072577D01*
X194174252Y-120985748D01*
X194087423Y-120927730D01*
X194073389Y-120924939D01*
X194014426Y-120913210D01*
X194014425Y-120913210D01*
X194010856Y-120912500D01*
X193719530Y-120912500D01*
X193671964Y-120895187D01*
X193667204Y-120890826D01*
X193658693Y-120882315D01*
X193637301Y-120836439D01*
X193650402Y-120787544D01*
X193685710Y-120760452D01*
X193696948Y-120756362D01*
X193700000Y-120751075D01*
X193700000Y-120746951D01*
X193900000Y-120746951D01*
X193903638Y-120756947D01*
X193908925Y-120759999D01*
X194021824Y-120759999D01*
X194026664Y-120759682D01*
X194067430Y-120754316D01*
X194078170Y-120751186D01*
X194174246Y-120706384D01*
X194184689Y-120699072D01*
X194259072Y-120624689D01*
X194266384Y-120614246D01*
X194311184Y-120518173D01*
X194314316Y-120507428D01*
X194319683Y-120466662D01*
X194320000Y-120461827D01*
X194320000Y-120403048D01*
X194316362Y-120393052D01*
X194311075Y-120390000D01*
X193913048Y-120390000D01*
X193903052Y-120393638D01*
X193900000Y-120398925D01*
X193900000Y-120746951D01*
X193700000Y-120746951D01*
X193700000Y-120403048D01*
X193696362Y-120393052D01*
X193691075Y-120390000D01*
X193293049Y-120390000D01*
X193270190Y-120398320D01*
X193251123Y-120414320D01*
X193200504Y-120414321D01*
X193173487Y-120397109D01*
X192953330Y-120176952D01*
X193280000Y-120176952D01*
X193283638Y-120186948D01*
X193288925Y-120190000D01*
X193686952Y-120190000D01*
X193696948Y-120186362D01*
X193700000Y-120181075D01*
X193700000Y-120176952D01*
X193900000Y-120176952D01*
X193903638Y-120186948D01*
X193908925Y-120190000D01*
X194306951Y-120190000D01*
X194316947Y-120186362D01*
X194319999Y-120181075D01*
X194319999Y-120118176D01*
X194319682Y-120113336D01*
X194314316Y-120072570D01*
X194311186Y-120061830D01*
X194266384Y-119965754D01*
X194259072Y-119955311D01*
X194184689Y-119880928D01*
X194174246Y-119873616D01*
X194078173Y-119828816D01*
X194067428Y-119825684D01*
X194026662Y-119820317D01*
X194021827Y-119820000D01*
X193913048Y-119820000D01*
X193903052Y-119823638D01*
X193900000Y-119828925D01*
X193900000Y-120176952D01*
X193700000Y-120176952D01*
X193700000Y-119833049D01*
X193696362Y-119823053D01*
X193691075Y-119820001D01*
X193578176Y-119820001D01*
X193573336Y-119820318D01*
X193532570Y-119825684D01*
X193521830Y-119828814D01*
X193425754Y-119873616D01*
X193415311Y-119880928D01*
X193340928Y-119955311D01*
X193333616Y-119965754D01*
X193288816Y-120061827D01*
X193285684Y-120072572D01*
X193280317Y-120113338D01*
X193280000Y-120118173D01*
X193280000Y-120176952D01*
X192953330Y-120176952D01*
X192188279Y-119411901D01*
X192166887Y-119366025D01*
X192167516Y-119347999D01*
X192174207Y-119305753D01*
X192174207Y-119305752D01*
X192175118Y-119300000D01*
X192156758Y-119184082D01*
X192151727Y-119174207D01*
X192115097Y-119102317D01*
X192103477Y-119079511D01*
X192020489Y-118996523D01*
X191970511Y-118971058D01*
X191921108Y-118945886D01*
X191921106Y-118945885D01*
X191915918Y-118943242D01*
X191800000Y-118924882D01*
X191684082Y-118943242D01*
X191678894Y-118945885D01*
X191678892Y-118945886D01*
X191629489Y-118971058D01*
X191579511Y-118996523D01*
X191496523Y-119079511D01*
X191484903Y-119102317D01*
X191448274Y-119174207D01*
X191443242Y-119184082D01*
X191424882Y-119300000D01*
X188413917Y-119300000D01*
X188456758Y-119215918D01*
X188475118Y-119100000D01*
X188456758Y-118984082D01*
X188437297Y-118945886D01*
X188417459Y-118906952D01*
X188403477Y-118879511D01*
X188376292Y-118852326D01*
X188354900Y-118806450D01*
X188368001Y-118757555D01*
X188376292Y-118747674D01*
X188403477Y-118720489D01*
X188439796Y-118649208D01*
X188454114Y-118621108D01*
X188454115Y-118621106D01*
X188456758Y-118615918D01*
X188475118Y-118500000D01*
X188456758Y-118384082D01*
X188451317Y-118373402D01*
X188411827Y-118295899D01*
X188403477Y-118279511D01*
X188320489Y-118196523D01*
X188243752Y-118157424D01*
X188221108Y-118145886D01*
X188221106Y-118145885D01*
X188215918Y-118143242D01*
X188105688Y-118125783D01*
X188064938Y-118105020D01*
X187782833Y-117822915D01*
X187773630Y-117811701D01*
X187770765Y-117807412D01*
X187763484Y-117796516D01*
X187757423Y-117792466D01*
X187742242Y-117782322D01*
X187742234Y-117782316D01*
X187685359Y-117744314D01*
X187685360Y-117744314D01*
X187679301Y-117740266D01*
X187672158Y-117738845D01*
X187672155Y-117738844D01*
X187587149Y-117721936D01*
X187580000Y-117720514D01*
X187572851Y-117721936D01*
X187562082Y-117724078D01*
X187547646Y-117725500D01*
X186454767Y-117725500D01*
X186407201Y-117708187D01*
X186393238Y-117692612D01*
X186386607Y-117682687D01*
X186362857Y-117647143D01*
X186294176Y-117601252D01*
X186264245Y-117560430D01*
X186267556Y-117509919D01*
X186277261Y-117500000D01*
X191424882Y-117500000D01*
X191443242Y-117615918D01*
X191445885Y-117621106D01*
X191445886Y-117621108D01*
X191448379Y-117626000D01*
X191496523Y-117720489D01*
X191579511Y-117803477D01*
X191614379Y-117821243D01*
X191678892Y-117854114D01*
X191678894Y-117854115D01*
X191684082Y-117856758D01*
X191800000Y-117875118D01*
X191915918Y-117856758D01*
X191921106Y-117854115D01*
X191921108Y-117854114D01*
X191985621Y-117821243D01*
X192020489Y-117803477D01*
X192103477Y-117720489D01*
X192151621Y-117626000D01*
X192154114Y-117621108D01*
X192154115Y-117621106D01*
X192156758Y-117615918D01*
X192175118Y-117500000D01*
X192168883Y-117460635D01*
X192178541Y-117410945D01*
X192189646Y-117396732D01*
X192738672Y-116847706D01*
X192784548Y-116826314D01*
X192832111Y-116838504D01*
X192906514Y-116888220D01*
X192906519Y-116888222D01*
X192912577Y-116892270D01*
X192919726Y-116893692D01*
X192985574Y-116906790D01*
X192985575Y-116906790D01*
X192989144Y-116907500D01*
X193410856Y-116907500D01*
X193414425Y-116906790D01*
X193414426Y-116906790D01*
X193480274Y-116893692D01*
X193487423Y-116892270D01*
X193554117Y-116847706D01*
X193568194Y-116838300D01*
X193574252Y-116834252D01*
X193586922Y-116815291D01*
X193594815Y-116803477D01*
X193632270Y-116747423D01*
X193647500Y-116670856D01*
X193647500Y-116349144D01*
X193640292Y-116312904D01*
X193633692Y-116279726D01*
X193632270Y-116272577D01*
X193574252Y-116185748D01*
X193487423Y-116127730D01*
X193473105Y-116124882D01*
X193414426Y-116113210D01*
X193414425Y-116113210D01*
X193410856Y-116112500D01*
X192989144Y-116112500D01*
X192985575Y-116113210D01*
X192985574Y-116113210D01*
X192926895Y-116124882D01*
X192912577Y-116127730D01*
X192825748Y-116185748D01*
X192767730Y-116272577D01*
X192767233Y-116275074D01*
X192734865Y-116310400D01*
X192728686Y-116313068D01*
X192721692Y-116313846D01*
X192714630Y-116318268D01*
X192711263Y-116319440D01*
X192708050Y-116320986D01*
X192699926Y-116322839D01*
X192693411Y-116328031D01*
X192693406Y-116328033D01*
X192676076Y-116341843D01*
X192669229Y-116346691D01*
X192666631Y-116348318D01*
X192663082Y-116350540D01*
X192657865Y-116355757D01*
X192651655Y-116361304D01*
X192637034Y-116372955D01*
X192627672Y-116380415D01*
X192624051Y-116387923D01*
X192620108Y-116392862D01*
X192614601Y-116399021D01*
X191903268Y-117110354D01*
X191857392Y-117131746D01*
X191839365Y-117131117D01*
X191805752Y-117125793D01*
X191805751Y-117125793D01*
X191800000Y-117124882D01*
X191684082Y-117143242D01*
X191678894Y-117145885D01*
X191678892Y-117145886D01*
X191644892Y-117163210D01*
X191579511Y-117196523D01*
X191496523Y-117279511D01*
X191478679Y-117314533D01*
X191452006Y-117366882D01*
X191443242Y-117384082D01*
X191424882Y-117500000D01*
X186277261Y-117500000D01*
X186304015Y-117472656D01*
X186362158Y-117445543D01*
X186372601Y-117438231D01*
X186448231Y-117362601D01*
X186455543Y-117352158D01*
X186501088Y-117254487D01*
X186504220Y-117243742D01*
X186509683Y-117202247D01*
X186510000Y-117197412D01*
X186510000Y-117133048D01*
X186506362Y-117123052D01*
X186501075Y-117120000D01*
X184503048Y-117120000D01*
X184493052Y-117123638D01*
X184490000Y-117128925D01*
X184490000Y-117197412D01*
X184490317Y-117202247D01*
X184495780Y-117243742D01*
X184498911Y-117254487D01*
X184526912Y-117314533D01*
X184531324Y-117364959D01*
X184502290Y-117406424D01*
X184453396Y-117419525D01*
X184445409Y-117418385D01*
X184430211Y-117415362D01*
X184430210Y-117415362D01*
X184423061Y-117413940D01*
X184415912Y-117415362D01*
X184405143Y-117417504D01*
X184390707Y-117418926D01*
X184381054Y-117418926D01*
X184333488Y-117401613D01*
X184310956Y-117367739D01*
X184310392Y-117363905D01*
X184304668Y-117352246D01*
X184261369Y-117264056D01*
X184261367Y-117264054D01*
X184258672Y-117258564D01*
X184254343Y-117254243D01*
X184254342Y-117254241D01*
X184195560Y-117195562D01*
X184174127Y-117149704D01*
X184187186Y-117100798D01*
X184195514Y-117090864D01*
X184311131Y-116975247D01*
X184317389Y-116969661D01*
X184321787Y-116966162D01*
X184329301Y-116962554D01*
X184348610Y-116938409D01*
X184354069Y-116932309D01*
X184359333Y-116927045D01*
X184361540Y-116923534D01*
X184361542Y-116923531D01*
X184363100Y-116921052D01*
X184367956Y-116914218D01*
X184371371Y-116909948D01*
X184414598Y-116883613D01*
X184464641Y-116891224D01*
X184479963Y-116909052D01*
X184498925Y-116920000D01*
X184886952Y-116920000D01*
X184896948Y-116916362D01*
X184900000Y-116911075D01*
X184900000Y-116906952D01*
X185100000Y-116906952D01*
X185103638Y-116916948D01*
X185108925Y-116920000D01*
X185886952Y-116920000D01*
X185896948Y-116916362D01*
X185900000Y-116911075D01*
X185900000Y-116906952D01*
X186100000Y-116906952D01*
X186103638Y-116916948D01*
X186108925Y-116920000D01*
X186496952Y-116920000D01*
X186506948Y-116916362D01*
X186510000Y-116911075D01*
X186510000Y-116842588D01*
X186509683Y-116837753D01*
X186504220Y-116796258D01*
X186501088Y-116785513D01*
X186455543Y-116687842D01*
X186448231Y-116677399D01*
X186372601Y-116601769D01*
X186362158Y-116594457D01*
X186264487Y-116548912D01*
X186253742Y-116545780D01*
X186212247Y-116540317D01*
X186207412Y-116540000D01*
X186113048Y-116540000D01*
X186103052Y-116543638D01*
X186100000Y-116548925D01*
X186100000Y-116906952D01*
X185900000Y-116906952D01*
X185900000Y-116553048D01*
X185896362Y-116543052D01*
X185891075Y-116540000D01*
X185792588Y-116540000D01*
X185787753Y-116540317D01*
X185746258Y-116545780D01*
X185735513Y-116548912D01*
X185637842Y-116594457D01*
X185627399Y-116601769D01*
X185552326Y-116676842D01*
X185506450Y-116698234D01*
X185457555Y-116685133D01*
X185447674Y-116676842D01*
X185372601Y-116601769D01*
X185362158Y-116594457D01*
X185264487Y-116548912D01*
X185253742Y-116545780D01*
X185212247Y-116540317D01*
X185207412Y-116540000D01*
X185113048Y-116540000D01*
X185103052Y-116543638D01*
X185100000Y-116548925D01*
X185100000Y-116906952D01*
X184900000Y-116906952D01*
X184900000Y-116553048D01*
X184896362Y-116543052D01*
X184891075Y-116540000D01*
X184792588Y-116540000D01*
X184787753Y-116540317D01*
X184746258Y-116545780D01*
X184735513Y-116548912D01*
X184637842Y-116594457D01*
X184627399Y-116601769D01*
X184551769Y-116677399D01*
X184544455Y-116687844D01*
X184543567Y-116689749D01*
X184542080Y-116691236D01*
X184540742Y-116693147D01*
X184540405Y-116692911D01*
X184507774Y-116725543D01*
X184457348Y-116729955D01*
X184415883Y-116700921D01*
X184402500Y-116658476D01*
X184402500Y-116614530D01*
X184419813Y-116566964D01*
X184424174Y-116562204D01*
X185188984Y-115797394D01*
X190765420Y-115797394D01*
X190766417Y-115802338D01*
X190766417Y-115802340D01*
X190792558Y-115931980D01*
X190795233Y-115945246D01*
X190863707Y-116079635D01*
X190893928Y-116112500D01*
X190962382Y-116186944D01*
X190962386Y-116186947D01*
X190965799Y-116190659D01*
X190970085Y-116193316D01*
X190970088Y-116193319D01*
X191041843Y-116237808D01*
X191093986Y-116270138D01*
X191112081Y-116275395D01*
X191235103Y-116311137D01*
X191235106Y-116311138D01*
X191238825Y-116312218D01*
X191243697Y-116312576D01*
X191248160Y-116312904D01*
X191248174Y-116312904D01*
X191249515Y-116313003D01*
X191357785Y-116313003D01*
X191469432Y-116297709D01*
X191607855Y-116237808D01*
X191672144Y-116185748D01*
X191721151Y-116146063D01*
X191721153Y-116146061D01*
X191725070Y-116142889D01*
X191753985Y-116102202D01*
X191809521Y-116024056D01*
X191809523Y-116024053D01*
X191812442Y-116019945D01*
X191863533Y-115878035D01*
X191863914Y-115872857D01*
X191871574Y-115768547D01*
X191874580Y-115727612D01*
X191870511Y-115707430D01*
X191861315Y-115661824D01*
X192680001Y-115661824D01*
X192680318Y-115666664D01*
X192685684Y-115707430D01*
X192688814Y-115718170D01*
X192733616Y-115814246D01*
X192740928Y-115824689D01*
X192815311Y-115899072D01*
X192825754Y-115906384D01*
X192921827Y-115951184D01*
X192932572Y-115954316D01*
X192973338Y-115959683D01*
X192978173Y-115960000D01*
X193086952Y-115960000D01*
X193096948Y-115956362D01*
X193100000Y-115951075D01*
X193100000Y-115946951D01*
X193300000Y-115946951D01*
X193303638Y-115956947D01*
X193308925Y-115959999D01*
X193421824Y-115959999D01*
X193426664Y-115959682D01*
X193467430Y-115954316D01*
X193478170Y-115951186D01*
X193574246Y-115906384D01*
X193584689Y-115899072D01*
X193659072Y-115824689D01*
X193666384Y-115814246D01*
X193711184Y-115718173D01*
X193714316Y-115707428D01*
X193719683Y-115666662D01*
X193720000Y-115661827D01*
X193720000Y-115603048D01*
X193716362Y-115593052D01*
X193711075Y-115590000D01*
X193313048Y-115590000D01*
X193303052Y-115593638D01*
X193300000Y-115598925D01*
X193300000Y-115946951D01*
X193100000Y-115946951D01*
X193100000Y-115603048D01*
X193096362Y-115593052D01*
X193091075Y-115590000D01*
X192693049Y-115590000D01*
X192683053Y-115593638D01*
X192680001Y-115598925D01*
X192680001Y-115661824D01*
X191861315Y-115661824D01*
X191845764Y-115584703D01*
X191845763Y-115584701D01*
X191844767Y-115579760D01*
X191776293Y-115445371D01*
X191722570Y-115386948D01*
X191713378Y-115376952D01*
X192680000Y-115376952D01*
X192683638Y-115386948D01*
X192688925Y-115390000D01*
X193086952Y-115390000D01*
X193096948Y-115386362D01*
X193100000Y-115381075D01*
X193100000Y-115376952D01*
X193300000Y-115376952D01*
X193303638Y-115386948D01*
X193308925Y-115390000D01*
X193706951Y-115390000D01*
X193716947Y-115386362D01*
X193719999Y-115381075D01*
X193719999Y-115318176D01*
X193719682Y-115313336D01*
X193714316Y-115272570D01*
X193711186Y-115261830D01*
X193666384Y-115165754D01*
X193659072Y-115155311D01*
X193584689Y-115080928D01*
X193574246Y-115073616D01*
X193478173Y-115028816D01*
X193467428Y-115025684D01*
X193426662Y-115020317D01*
X193421827Y-115020000D01*
X193313048Y-115020000D01*
X193303052Y-115023638D01*
X193300000Y-115028925D01*
X193300000Y-115376952D01*
X193100000Y-115376952D01*
X193100000Y-115033049D01*
X193096362Y-115023053D01*
X193091075Y-115020001D01*
X192978176Y-115020001D01*
X192973336Y-115020318D01*
X192932570Y-115025684D01*
X192921830Y-115028814D01*
X192825754Y-115073616D01*
X192815311Y-115080928D01*
X192740928Y-115155311D01*
X192733616Y-115165754D01*
X192688816Y-115261827D01*
X192685684Y-115272572D01*
X192680317Y-115313338D01*
X192680000Y-115318173D01*
X192680000Y-115376952D01*
X191713378Y-115376952D01*
X191677618Y-115338062D01*
X191677614Y-115338059D01*
X191674201Y-115334347D01*
X191669915Y-115331690D01*
X191669912Y-115331687D01*
X191574568Y-115272572D01*
X191546014Y-115254868D01*
X191451115Y-115227297D01*
X191404897Y-115213869D01*
X191404894Y-115213868D01*
X191401175Y-115212788D01*
X191396303Y-115212430D01*
X191391840Y-115212102D01*
X191391826Y-115212102D01*
X191390485Y-115212003D01*
X191282215Y-115212003D01*
X191170568Y-115227297D01*
X191032145Y-115287198D01*
X190990513Y-115320911D01*
X190918849Y-115378943D01*
X190918847Y-115378945D01*
X190914930Y-115382117D01*
X190912008Y-115386229D01*
X190830479Y-115500950D01*
X190830477Y-115500953D01*
X190827558Y-115505061D01*
X190776467Y-115646971D01*
X190776098Y-115652000D01*
X190776097Y-115652003D01*
X190772027Y-115707428D01*
X190765420Y-115797394D01*
X185188984Y-115797394D01*
X186362205Y-114624174D01*
X186408081Y-114602782D01*
X186414531Y-114602500D01*
X188644664Y-114602500D01*
X188653041Y-114602976D01*
X188658625Y-114603612D01*
X188666487Y-114606373D01*
X188697207Y-114602954D01*
X188705393Y-114602500D01*
X188712831Y-114602500D01*
X188717759Y-114601376D01*
X188719732Y-114600926D01*
X188728001Y-114599527D01*
X188736586Y-114598571D01*
X188758308Y-114596154D01*
X188765370Y-114591733D01*
X188768734Y-114590561D01*
X188771948Y-114589014D01*
X188780074Y-114587161D01*
X188786589Y-114581969D01*
X188786594Y-114581967D01*
X188803924Y-114568157D01*
X188810771Y-114563309D01*
X188813369Y-114561682D01*
X188813370Y-114561681D01*
X188816918Y-114559460D01*
X188822135Y-114554243D01*
X188828345Y-114548696D01*
X188845809Y-114534780D01*
X188845810Y-114534779D01*
X188852328Y-114529585D01*
X188855949Y-114522077D01*
X188859892Y-114517138D01*
X188865399Y-114510979D01*
X188940827Y-114435551D01*
X189635513Y-114435551D01*
X189636147Y-114445623D01*
X189637878Y-114454696D01*
X189685749Y-114602029D01*
X189689684Y-114610392D01*
X189772691Y-114741191D01*
X189778580Y-114748309D01*
X189891512Y-114854359D01*
X189898978Y-114859783D01*
X190034741Y-114934420D01*
X190043324Y-114937818D01*
X190193379Y-114976346D01*
X190202538Y-114977503D01*
X190716952Y-114977503D01*
X190726948Y-114973865D01*
X190730000Y-114968578D01*
X190730000Y-114964455D01*
X190930000Y-114964455D01*
X190933638Y-114974451D01*
X190938925Y-114977503D01*
X191418563Y-114977503D01*
X191423211Y-114977210D01*
X191538312Y-114962670D01*
X191547264Y-114960371D01*
X191691298Y-114903344D01*
X191699397Y-114898891D01*
X191824724Y-114807835D01*
X191831460Y-114801510D01*
X191930206Y-114682147D01*
X191935158Y-114674344D01*
X192001119Y-114534170D01*
X192003972Y-114525389D01*
X192020200Y-114440320D01*
X192019427Y-114435551D01*
X193955513Y-114435551D01*
X193956147Y-114445623D01*
X193957878Y-114454696D01*
X194005749Y-114602029D01*
X194009684Y-114610392D01*
X194092691Y-114741191D01*
X194098580Y-114748309D01*
X194211512Y-114854359D01*
X194218978Y-114859783D01*
X194354741Y-114934420D01*
X194363324Y-114937818D01*
X194513379Y-114976346D01*
X194522538Y-114977503D01*
X194886952Y-114977503D01*
X194896948Y-114973865D01*
X194900000Y-114968578D01*
X194900000Y-114440551D01*
X194896362Y-114430555D01*
X194891075Y-114427503D01*
X193968055Y-114427503D01*
X193958059Y-114431141D01*
X193955513Y-114435551D01*
X192019427Y-114435551D01*
X192018499Y-114429820D01*
X192015815Y-114427503D01*
X190943048Y-114427503D01*
X190933052Y-114431141D01*
X190930000Y-114436428D01*
X190930000Y-114964455D01*
X190730000Y-114964455D01*
X190730000Y-114440551D01*
X190726362Y-114430555D01*
X190721075Y-114427503D01*
X189648055Y-114427503D01*
X189638059Y-114431141D01*
X189635513Y-114435551D01*
X188940827Y-114435551D01*
X189161692Y-114214686D01*
X189639800Y-114214686D01*
X189641501Y-114225186D01*
X189644185Y-114227503D01*
X190716952Y-114227503D01*
X190726948Y-114223865D01*
X190730000Y-114218578D01*
X190730000Y-114214455D01*
X190930000Y-114214455D01*
X190933638Y-114224451D01*
X190938925Y-114227503D01*
X192011945Y-114227503D01*
X192021941Y-114223865D01*
X192024487Y-114219455D01*
X192024187Y-114214686D01*
X193959800Y-114214686D01*
X193961501Y-114225186D01*
X193964185Y-114227503D01*
X194886952Y-114227503D01*
X194896948Y-114223865D01*
X194900000Y-114218578D01*
X194900000Y-113690551D01*
X194896362Y-113680555D01*
X194891075Y-113677503D01*
X194561437Y-113677503D01*
X194556789Y-113677796D01*
X194441688Y-113692336D01*
X194432736Y-113694635D01*
X194288702Y-113751662D01*
X194280603Y-113756115D01*
X194155276Y-113847171D01*
X194148540Y-113853496D01*
X194049794Y-113972859D01*
X194044842Y-113980662D01*
X193978881Y-114120836D01*
X193976028Y-114129617D01*
X193959800Y-114214686D01*
X192024187Y-114214686D01*
X192023853Y-114209383D01*
X192022122Y-114200310D01*
X191974251Y-114052977D01*
X191970316Y-114044614D01*
X191887309Y-113913815D01*
X191881420Y-113906697D01*
X191768488Y-113800647D01*
X191761022Y-113795223D01*
X191625259Y-113720586D01*
X191616676Y-113717188D01*
X191466621Y-113678660D01*
X191457462Y-113677503D01*
X190943048Y-113677503D01*
X190933052Y-113681141D01*
X190930000Y-113686428D01*
X190930000Y-114214455D01*
X190730000Y-114214455D01*
X190730000Y-113690551D01*
X190726362Y-113680555D01*
X190721075Y-113677503D01*
X190241437Y-113677503D01*
X190236789Y-113677796D01*
X190121688Y-113692336D01*
X190112736Y-113694635D01*
X189968702Y-113751662D01*
X189960603Y-113756115D01*
X189835276Y-113847171D01*
X189828540Y-113853496D01*
X189729794Y-113972859D01*
X189724842Y-113980662D01*
X189658881Y-114120836D01*
X189656028Y-114129617D01*
X189639800Y-114214686D01*
X189161692Y-114214686D01*
X192526174Y-110850204D01*
X192572050Y-110828812D01*
X192620945Y-110841913D01*
X192649979Y-110883377D01*
X192652500Y-110902530D01*
X192652500Y-111170856D01*
X192667730Y-111247423D01*
X192725748Y-111334252D01*
X192812577Y-111392270D01*
X192819726Y-111393692D01*
X192826457Y-111396480D01*
X192826008Y-111397564D01*
X192862855Y-111419926D01*
X192879123Y-111467860D01*
X192857467Y-111518567D01*
X192796523Y-111579511D01*
X192743242Y-111684082D01*
X192724882Y-111800000D01*
X192743242Y-111915918D01*
X192745885Y-111921106D01*
X192745886Y-111921108D01*
X192756700Y-111942331D01*
X192796523Y-112020489D01*
X192879511Y-112103477D01*
X192929489Y-112128942D01*
X192978892Y-112154114D01*
X192978894Y-112154115D01*
X192984082Y-112156758D01*
X193100000Y-112175118D01*
X193215918Y-112156758D01*
X193221106Y-112154115D01*
X193221108Y-112154114D01*
X193270511Y-112128942D01*
X193320489Y-112103477D01*
X193403477Y-112020489D01*
X193443300Y-111942331D01*
X193454114Y-111921108D01*
X193454115Y-111921106D01*
X193456758Y-111915918D01*
X193475118Y-111800000D01*
X193456758Y-111684082D01*
X193403477Y-111579511D01*
X193342533Y-111518567D01*
X193321141Y-111472691D01*
X193334242Y-111423796D01*
X193374088Y-111397795D01*
X193373543Y-111396480D01*
X193380274Y-111393692D01*
X193387423Y-111392270D01*
X193474252Y-111334252D01*
X193532270Y-111247423D01*
X193546678Y-111174988D01*
X193572937Y-111131713D01*
X193620870Y-111115442D01*
X193668047Y-111133788D01*
X193692623Y-111179764D01*
X193695780Y-111203743D01*
X193698912Y-111214487D01*
X193744457Y-111312158D01*
X193751769Y-111322601D01*
X193827399Y-111398231D01*
X193837842Y-111405543D01*
X193935513Y-111451088D01*
X193946258Y-111454220D01*
X193987753Y-111459683D01*
X193992588Y-111460000D01*
X194086952Y-111460000D01*
X194096948Y-111456362D01*
X194100000Y-111451075D01*
X194100000Y-111446952D01*
X194300000Y-111446952D01*
X194303638Y-111456948D01*
X194308925Y-111460000D01*
X194407412Y-111460000D01*
X194412247Y-111459683D01*
X194453742Y-111454220D01*
X194464487Y-111451088D01*
X194562158Y-111405543D01*
X194572601Y-111398231D01*
X194648231Y-111322601D01*
X194655543Y-111312158D01*
X194701088Y-111214487D01*
X194704220Y-111203742D01*
X194709683Y-111162247D01*
X194710000Y-111157412D01*
X194710000Y-111093048D01*
X194706362Y-111083052D01*
X194701075Y-111080000D01*
X194313048Y-111080000D01*
X194303052Y-111083638D01*
X194300000Y-111088925D01*
X194300000Y-111446952D01*
X194100000Y-111446952D01*
X194100000Y-110954000D01*
X194117313Y-110906434D01*
X194161150Y-110881124D01*
X194174000Y-110880000D01*
X194696952Y-110880000D01*
X194706948Y-110876362D01*
X194710000Y-110871075D01*
X194710000Y-110802588D01*
X194709683Y-110797753D01*
X194704220Y-110756258D01*
X194701088Y-110745513D01*
X194655543Y-110647842D01*
X194648231Y-110637399D01*
X194572601Y-110561769D01*
X194562158Y-110554457D01*
X194504015Y-110527344D01*
X194468222Y-110491551D01*
X194463811Y-110441124D01*
X194494176Y-110398748D01*
X194511291Y-110387312D01*
X194562857Y-110352857D01*
X194621980Y-110264373D01*
X194622212Y-110264528D01*
X194653063Y-110230860D01*
X194687231Y-110222500D01*
X194756601Y-110222500D01*
X194804167Y-110239813D01*
X194812612Y-110248869D01*
X194813256Y-110250132D01*
X194896244Y-110333120D01*
X194942925Y-110356905D01*
X194995625Y-110383757D01*
X194995627Y-110383758D01*
X195000815Y-110386401D01*
X195116733Y-110404761D01*
X195232651Y-110386401D01*
X195237839Y-110383758D01*
X195237841Y-110383757D01*
X195290541Y-110356905D01*
X195337222Y-110333120D01*
X195420210Y-110250132D01*
X195473491Y-110145561D01*
X195491851Y-110029643D01*
X195473491Y-109913725D01*
X195420210Y-109809154D01*
X195337222Y-109726166D01*
X195272528Y-109693203D01*
X195237841Y-109675529D01*
X195237839Y-109675528D01*
X195232651Y-109672885D01*
X195116733Y-109654525D01*
X195000815Y-109672885D01*
X194995627Y-109675528D01*
X194995625Y-109675529D01*
X194960938Y-109693203D01*
X194896244Y-109726166D01*
X194826584Y-109795826D01*
X194780708Y-109817218D01*
X194774258Y-109817500D01*
X194687231Y-109817500D01*
X194639665Y-109800187D01*
X194622100Y-109776232D01*
X194621980Y-109775627D01*
X194562857Y-109687143D01*
X194474373Y-109628020D01*
X194467230Y-109626599D01*
X194467227Y-109626598D01*
X194399918Y-109613210D01*
X194399917Y-109613210D01*
X194396348Y-109612500D01*
X194003652Y-109612500D01*
X194000083Y-109613210D01*
X194000082Y-109613210D01*
X193932773Y-109626598D01*
X193932770Y-109626599D01*
X193925627Y-109628020D01*
X193837143Y-109687143D01*
X193793422Y-109752577D01*
X193792062Y-109754612D01*
X193751241Y-109784544D01*
X193730533Y-109787500D01*
X193594642Y-109787500D01*
X193547076Y-109770187D01*
X193533542Y-109751727D01*
X193532270Y-109752577D01*
X193478300Y-109671806D01*
X193474252Y-109665748D01*
X193387423Y-109607730D01*
X193373389Y-109604939D01*
X193314426Y-109593210D01*
X193314425Y-109593210D01*
X193310856Y-109592500D01*
X192889144Y-109592500D01*
X192885575Y-109593210D01*
X192885574Y-109593210D01*
X192826611Y-109604939D01*
X192812577Y-109607730D01*
X192725748Y-109665748D01*
X192667730Y-109752577D01*
X192652500Y-109829144D01*
X192652500Y-110120470D01*
X192635187Y-110168036D01*
X192630826Y-110172796D01*
X188627796Y-114175826D01*
X188581920Y-114197218D01*
X188575470Y-114197500D01*
X187784995Y-114197500D01*
X187737429Y-114180187D01*
X187712119Y-114136350D01*
X187719060Y-114089905D01*
X187754114Y-114021108D01*
X187754115Y-114021106D01*
X187756758Y-114015918D01*
X187775118Y-113900000D01*
X187756758Y-113784082D01*
X187753026Y-113776756D01*
X187725713Y-113723153D01*
X187703477Y-113679511D01*
X187620489Y-113596523D01*
X187558213Y-113564792D01*
X187521108Y-113545886D01*
X187521106Y-113545885D01*
X187515918Y-113543242D01*
X187400000Y-113524882D01*
X187284082Y-113543242D01*
X187278894Y-113545885D01*
X187278892Y-113545886D01*
X187241787Y-113564792D01*
X187179511Y-113596523D01*
X187096523Y-113679511D01*
X187074287Y-113723153D01*
X187046975Y-113776756D01*
X187043242Y-113784082D01*
X187024882Y-113900000D01*
X187043242Y-114015918D01*
X187045885Y-114021106D01*
X187045886Y-114021108D01*
X187080940Y-114089905D01*
X187087108Y-114140147D01*
X187059539Y-114182599D01*
X187015005Y-114197500D01*
X186345329Y-114197500D01*
X186336952Y-114197024D01*
X186331373Y-114196388D01*
X186323513Y-114193628D01*
X186315235Y-114194549D01*
X186315233Y-114194549D01*
X186294057Y-114196906D01*
X186292996Y-114197024D01*
X186292798Y-114197046D01*
X186284614Y-114197500D01*
X186277169Y-114197500D01*
X186271606Y-114198769D01*
X186270262Y-114199075D01*
X186261997Y-114200473D01*
X186255656Y-114201179D01*
X186231692Y-114203846D01*
X186224630Y-114208267D01*
X186221266Y-114209439D01*
X186218052Y-114210986D01*
X186209926Y-114212839D01*
X186203411Y-114218031D01*
X186203406Y-114218033D01*
X186186076Y-114231843D01*
X186179229Y-114236691D01*
X186176631Y-114238318D01*
X186173082Y-114240540D01*
X186167865Y-114245757D01*
X186161656Y-114251303D01*
X186137672Y-114270415D01*
X186134051Y-114277923D01*
X186130108Y-114282862D01*
X186124601Y-114289021D01*
X184121639Y-116291983D01*
X184075763Y-116313375D01*
X184026868Y-116300274D01*
X183998268Y-116260360D01*
X183997240Y-116256832D01*
X183951695Y-116159162D01*
X183944383Y-116148719D01*
X183868753Y-116073089D01*
X183858310Y-116065777D01*
X183800167Y-116038664D01*
X183764374Y-116002871D01*
X183759963Y-115952444D01*
X183790328Y-115910068D01*
X183792181Y-115908830D01*
X183859009Y-115864177D01*
X183918132Y-115775693D01*
X183919553Y-115768550D01*
X183919554Y-115768547D01*
X183932942Y-115701238D01*
X183932942Y-115701237D01*
X183933652Y-115697668D01*
X183933652Y-115364972D01*
X183932942Y-115361402D01*
X183919554Y-115294093D01*
X183919553Y-115294090D01*
X183918132Y-115286947D01*
X183859009Y-115198463D01*
X183770525Y-115139340D01*
X183758216Y-115136892D01*
X183714942Y-115110634D01*
X183698652Y-115064314D01*
X183698652Y-113945709D01*
X183715965Y-113898143D01*
X183759802Y-113872833D01*
X183784229Y-113872620D01*
X183794248Y-113874207D01*
X183794249Y-113874207D01*
X183800000Y-113875118D01*
X183915918Y-113856758D01*
X183921106Y-113854115D01*
X183921108Y-113854114D01*
X183974320Y-113827001D01*
X184020489Y-113803477D01*
X184103477Y-113720489D01*
X184133458Y-113661648D01*
X184154114Y-113621108D01*
X184154115Y-113621106D01*
X184156758Y-113615918D01*
X184175118Y-113500000D01*
X184156758Y-113384082D01*
X184103477Y-113279511D01*
X184020489Y-113196523D01*
X183970511Y-113171058D01*
X183921108Y-113145886D01*
X183921106Y-113145885D01*
X183915918Y-113143242D01*
X183800000Y-113124882D01*
X183684082Y-113143242D01*
X183678894Y-113145885D01*
X183678892Y-113145886D01*
X183629489Y-113171058D01*
X183579511Y-113196523D01*
X183496523Y-113279511D01*
X183443242Y-113384082D01*
X183424882Y-113500000D01*
X183425793Y-113505751D01*
X183425793Y-113505752D01*
X183431117Y-113539365D01*
X183421459Y-113589055D01*
X183410354Y-113603268D01*
X183385021Y-113628601D01*
X183378763Y-113634187D01*
X183374365Y-113637686D01*
X183366851Y-113641294D01*
X183347542Y-113665439D01*
X183342083Y-113671539D01*
X183336819Y-113676803D01*
X183334612Y-113680314D01*
X183334610Y-113680317D01*
X183333052Y-113682796D01*
X183328191Y-113689637D01*
X183309149Y-113713447D01*
X183307281Y-113721570D01*
X183305729Y-113724781D01*
X183304553Y-113728140D01*
X183300117Y-113735197D01*
X183297752Y-113756115D01*
X183296691Y-113765496D01*
X183295279Y-113773760D01*
X183293652Y-113780837D01*
X183293652Y-113788208D01*
X183293184Y-113796520D01*
X183289738Y-113827001D01*
X183292485Y-113834867D01*
X183293191Y-113841161D01*
X183293652Y-113849410D01*
X183293652Y-115064314D01*
X183276339Y-115111880D01*
X183234088Y-115136892D01*
X183221779Y-115139340D01*
X183133295Y-115198463D01*
X183083779Y-115272570D01*
X183076521Y-115283432D01*
X183035700Y-115313364D01*
X183014992Y-115316320D01*
X182972345Y-115316320D01*
X182924779Y-115299007D01*
X182910816Y-115283432D01*
X182863134Y-115212071D01*
X182863133Y-115212070D01*
X182859084Y-115206010D01*
X182770600Y-115146887D01*
X182763457Y-115145466D01*
X182763454Y-115145465D01*
X182696145Y-115132077D01*
X182696144Y-115132077D01*
X182692575Y-115131367D01*
X182299879Y-115131367D01*
X182296310Y-115132077D01*
X182296309Y-115132077D01*
X182229000Y-115145465D01*
X182228997Y-115145466D01*
X182221854Y-115146887D01*
X182133370Y-115206010D01*
X182077002Y-115290372D01*
X182076596Y-115290979D01*
X182035775Y-115320911D01*
X182015067Y-115323867D01*
X181980403Y-115323867D01*
X181932837Y-115306554D01*
X181918874Y-115290979D01*
X181918469Y-115290372D01*
X181862857Y-115207143D01*
X181774373Y-115148020D01*
X181762064Y-115145572D01*
X181718790Y-115119314D01*
X181702500Y-115072994D01*
X181702500Y-113540173D01*
X181710565Y-113506578D01*
X181754114Y-113421108D01*
X181754115Y-113421106D01*
X181756758Y-113415918D01*
X181775118Y-113300000D01*
X181756758Y-113184082D01*
X181737297Y-113145886D01*
X181721714Y-113115303D01*
X181703477Y-113079511D01*
X181620489Y-112996523D01*
X181570511Y-112971058D01*
X181521108Y-112945886D01*
X181521106Y-112945885D01*
X181515918Y-112943242D01*
X181400000Y-112924882D01*
X181284082Y-112943242D01*
X181278894Y-112945885D01*
X181278892Y-112945886D01*
X181229489Y-112971058D01*
X181179511Y-112996523D01*
X181096523Y-113079511D01*
X181078286Y-113115303D01*
X181062704Y-113145886D01*
X181043242Y-113184082D01*
X181024882Y-113300000D01*
X181043242Y-113415918D01*
X181096523Y-113520489D01*
X181179511Y-113603477D01*
X181184697Y-113606119D01*
X181184702Y-113606123D01*
X181257095Y-113643009D01*
X181291617Y-113680029D01*
X181297500Y-113708943D01*
X181297500Y-114814792D01*
X181280187Y-114862358D01*
X181236350Y-114887668D01*
X181186500Y-114878878D01*
X181171174Y-114867118D01*
X180892063Y-114588007D01*
X180870671Y-114542131D01*
X180871300Y-114524104D01*
X180872126Y-114518893D01*
X180875118Y-114500000D01*
X180856758Y-114384082D01*
X180803477Y-114279511D01*
X180720489Y-114196523D01*
X180647903Y-114159539D01*
X180621108Y-114145886D01*
X180621106Y-114145885D01*
X180615918Y-114143242D01*
X180500000Y-114124882D01*
X180384082Y-114143242D01*
X180378894Y-114145885D01*
X180378892Y-114145886D01*
X180310095Y-114180940D01*
X180259853Y-114187108D01*
X180217401Y-114159539D01*
X180202500Y-114115005D01*
X180202500Y-113814530D01*
X180219813Y-113766964D01*
X180224174Y-113762204D01*
X180396732Y-113589646D01*
X180442608Y-113568254D01*
X180460635Y-113568883D01*
X180494248Y-113574207D01*
X180494249Y-113574207D01*
X180500000Y-113575118D01*
X180615918Y-113556758D01*
X180621106Y-113554115D01*
X180621108Y-113554114D01*
X180678720Y-113524759D01*
X180720489Y-113503477D01*
X180803477Y-113420489D01*
X180856758Y-113315918D01*
X180875118Y-113200000D01*
X180856758Y-113084082D01*
X180803477Y-112979511D01*
X180723966Y-112900000D01*
X184724882Y-112900000D01*
X184743242Y-113015918D01*
X184796523Y-113120489D01*
X184879511Y-113203477D01*
X184929489Y-113228942D01*
X184978892Y-113254114D01*
X184978894Y-113254115D01*
X184984082Y-113256758D01*
X185100000Y-113275118D01*
X185215918Y-113256758D01*
X185221106Y-113254115D01*
X185221108Y-113254114D01*
X185270511Y-113228942D01*
X185320489Y-113203477D01*
X185403477Y-113120489D01*
X185456758Y-113015918D01*
X185475118Y-112900000D01*
X185456758Y-112784082D01*
X185454114Y-112778892D01*
X185454112Y-112778887D01*
X185449725Y-112770277D01*
X185443556Y-112720036D01*
X185471125Y-112677583D01*
X185519532Y-112662783D01*
X185527235Y-112663593D01*
X185594248Y-112674207D01*
X185600000Y-112675118D01*
X185715918Y-112656758D01*
X185721106Y-112654115D01*
X185721108Y-112654114D01*
X185770511Y-112628942D01*
X185820489Y-112603477D01*
X185903477Y-112520489D01*
X185956758Y-112415918D01*
X185975118Y-112300000D01*
X185956758Y-112184082D01*
X185951727Y-112174207D01*
X185906119Y-112084697D01*
X185903477Y-112079511D01*
X185820489Y-111996523D01*
X185770511Y-111971058D01*
X185721108Y-111945886D01*
X185721106Y-111945885D01*
X185715918Y-111943242D01*
X185600000Y-111924882D01*
X185484082Y-111943242D01*
X185478894Y-111945885D01*
X185478892Y-111945886D01*
X185429489Y-111971058D01*
X185379511Y-111996523D01*
X185296523Y-112079511D01*
X185293881Y-112084697D01*
X185248274Y-112174207D01*
X185243242Y-112184082D01*
X185224882Y-112300000D01*
X185243242Y-112415918D01*
X185245886Y-112421108D01*
X185245888Y-112421113D01*
X185250275Y-112429723D01*
X185256444Y-112479964D01*
X185228875Y-112522417D01*
X185180468Y-112537217D01*
X185172765Y-112536407D01*
X185105752Y-112525793D01*
X185100000Y-112524882D01*
X184984082Y-112543242D01*
X184978894Y-112545885D01*
X184978892Y-112545886D01*
X184929489Y-112571058D01*
X184879511Y-112596523D01*
X184796523Y-112679511D01*
X184743242Y-112784082D01*
X184724882Y-112900000D01*
X180723966Y-112900000D01*
X180720489Y-112896523D01*
X180670511Y-112871058D01*
X180621108Y-112845886D01*
X180621106Y-112845885D01*
X180615918Y-112843242D01*
X180500000Y-112824882D01*
X180384082Y-112843242D01*
X180378894Y-112845885D01*
X180378892Y-112845886D01*
X180329489Y-112871058D01*
X180279511Y-112896523D01*
X180196523Y-112979511D01*
X180143242Y-113084082D01*
X180124882Y-113200000D01*
X180125793Y-113205751D01*
X180131117Y-113239364D01*
X180121459Y-113289054D01*
X180110354Y-113303267D01*
X179888863Y-113524759D01*
X179882603Y-113530346D01*
X179878212Y-113533838D01*
X179870699Y-113537446D01*
X179851390Y-113561591D01*
X179845931Y-113567691D01*
X179840667Y-113572955D01*
X179838460Y-113576466D01*
X179838458Y-113576469D01*
X179836900Y-113578948D01*
X179832038Y-113585790D01*
X179820163Y-113600639D01*
X179812997Y-113609599D01*
X179811129Y-113617722D01*
X179809577Y-113620933D01*
X179808401Y-113624292D01*
X179803965Y-113631349D01*
X179803029Y-113639631D01*
X179800539Y-113661648D01*
X179799127Y-113669912D01*
X179797500Y-113676989D01*
X179797500Y-113684360D01*
X179797032Y-113692672D01*
X179793586Y-113723153D01*
X179796333Y-113731019D01*
X179797039Y-113737313D01*
X179797500Y-113745562D01*
X179797500Y-114654664D01*
X179797024Y-114663041D01*
X179796388Y-114668625D01*
X179793627Y-114676487D01*
X179794549Y-114684768D01*
X179797046Y-114707208D01*
X179797500Y-114715393D01*
X179797500Y-114722831D01*
X179798425Y-114726885D01*
X179799074Y-114729732D01*
X179800473Y-114738001D01*
X179803846Y-114768308D01*
X179808267Y-114775370D01*
X179809439Y-114778734D01*
X179810986Y-114781948D01*
X179812839Y-114790074D01*
X179818031Y-114796589D01*
X179818033Y-114796594D01*
X179831843Y-114813924D01*
X179836691Y-114820771D01*
X179838318Y-114823369D01*
X179840540Y-114826918D01*
X179845757Y-114832135D01*
X179851303Y-114838344D01*
X179870415Y-114862328D01*
X179877923Y-114865949D01*
X179882862Y-114869892D01*
X179889021Y-114875399D01*
X180124753Y-115111131D01*
X180130339Y-115117389D01*
X180133838Y-115121787D01*
X180137446Y-115129301D01*
X180161591Y-115148610D01*
X180167691Y-115154069D01*
X180172955Y-115159333D01*
X180176466Y-115161540D01*
X180176469Y-115161542D01*
X180178948Y-115163100D01*
X180185790Y-115167962D01*
X180203090Y-115181798D01*
X180203091Y-115181799D01*
X180209599Y-115187003D01*
X180217722Y-115188871D01*
X180220933Y-115190423D01*
X180224292Y-115191599D01*
X180231349Y-115196035D01*
X180252760Y-115198456D01*
X180261648Y-115199461D01*
X180269912Y-115200873D01*
X180272908Y-115201562D01*
X180272911Y-115201562D01*
X180276989Y-115202500D01*
X180284360Y-115202500D01*
X180292672Y-115202968D01*
X180323153Y-115206414D01*
X180331019Y-115203667D01*
X180337313Y-115202961D01*
X180345562Y-115202500D01*
X180476734Y-115202500D01*
X180524300Y-115219813D01*
X180529060Y-115224174D01*
X180764306Y-115459420D01*
X180785698Y-115505296D01*
X180785980Y-115511746D01*
X180785980Y-116736126D01*
X180785504Y-116744503D01*
X180784868Y-116750087D01*
X180782107Y-116757949D01*
X180783029Y-116766230D01*
X180785526Y-116788670D01*
X180785980Y-116796855D01*
X180785980Y-116804293D01*
X180786905Y-116808347D01*
X180787554Y-116811194D01*
X180788953Y-116819463D01*
X180792326Y-116849770D01*
X180796747Y-116856832D01*
X180797919Y-116860196D01*
X180799466Y-116863410D01*
X180801319Y-116871536D01*
X180806511Y-116878051D01*
X180806513Y-116878056D01*
X180820323Y-116895386D01*
X180825171Y-116902233D01*
X180826798Y-116904831D01*
X180829020Y-116908380D01*
X180834237Y-116913597D01*
X180839783Y-116919806D01*
X180858895Y-116943790D01*
X180866403Y-116947411D01*
X180871342Y-116951354D01*
X180877501Y-116956861D01*
X181018250Y-117097610D01*
X181023835Y-117103868D01*
X181027336Y-117108270D01*
X181030943Y-117115780D01*
X181037451Y-117120985D01*
X181040989Y-117125432D01*
X181057053Y-117173435D01*
X181038502Y-117220532D01*
X180994018Y-117244687D01*
X180983078Y-117245500D01*
X180636069Y-117245500D01*
X180588503Y-117228187D01*
X180583743Y-117223826D01*
X179894980Y-116535062D01*
X179874217Y-116494312D01*
X179867590Y-116452470D01*
X179856758Y-116384082D01*
X179846930Y-116364792D01*
X179820491Y-116312904D01*
X179803477Y-116279511D01*
X179720489Y-116196523D01*
X179647163Y-116159162D01*
X179621108Y-116145886D01*
X179621106Y-116145885D01*
X179615918Y-116143242D01*
X179500000Y-116124882D01*
X179384082Y-116143242D01*
X179378894Y-116145885D01*
X179378892Y-116145886D01*
X179352837Y-116159162D01*
X179279511Y-116196523D01*
X179196523Y-116279511D01*
X179179509Y-116312904D01*
X179153071Y-116364792D01*
X179143242Y-116384082D01*
X179124882Y-116500000D01*
X176500000Y-116500000D01*
X176500000Y-110940000D01*
X172950000Y-110940000D01*
X172950000Y-116800000D01*
X172154500Y-116800000D01*
X172154500Y-108236070D01*
X172171813Y-108188504D01*
X172176174Y-108183744D01*
X175252367Y-105107551D01*
X175931853Y-105107551D01*
X175938286Y-105168767D01*
X175940050Y-105176787D01*
X175995226Y-105338868D01*
X175998723Y-105346298D01*
X176088435Y-105492123D01*
X176093497Y-105498602D01*
X176213280Y-105620919D01*
X176219656Y-105626120D01*
X176363566Y-105718864D01*
X176370930Y-105722519D01*
X176531807Y-105781074D01*
X176539802Y-105783008D01*
X176671992Y-105799707D01*
X176676639Y-105800000D01*
X176886952Y-105800000D01*
X176896948Y-105796362D01*
X176900000Y-105791075D01*
X176900000Y-105786952D01*
X177100000Y-105786952D01*
X177103638Y-105796948D01*
X177108925Y-105800000D01*
X177318058Y-105800000D01*
X177322186Y-105799769D01*
X177449250Y-105785517D01*
X177457266Y-105783696D01*
X177618952Y-105727390D01*
X177626360Y-105723841D01*
X177771553Y-105633115D01*
X177777999Y-105628005D01*
X177899476Y-105507373D01*
X177904635Y-105500957D01*
X177996366Y-105356412D01*
X177999974Y-105349015D01*
X178057402Y-105187739D01*
X178059281Y-105179724D01*
X178067243Y-105112957D01*
X178064814Y-105102600D01*
X178061338Y-105100000D01*
X177113048Y-105100000D01*
X177103052Y-105103638D01*
X177100000Y-105108925D01*
X177100000Y-105786952D01*
X176900000Y-105786952D01*
X176900000Y-105113048D01*
X176896362Y-105103052D01*
X176891075Y-105100000D01*
X175944107Y-105100000D01*
X175934111Y-105103638D01*
X175931853Y-105107551D01*
X175252367Y-105107551D01*
X175472875Y-104887043D01*
X175932757Y-104887043D01*
X175935186Y-104897400D01*
X175938662Y-104900000D01*
X176886952Y-104900000D01*
X176896948Y-104896362D01*
X176900000Y-104891075D01*
X176900000Y-104886952D01*
X177100000Y-104886952D01*
X177103638Y-104896948D01*
X177108925Y-104900000D01*
X178055893Y-104900000D01*
X178065889Y-104896362D01*
X178068147Y-104892449D01*
X178061714Y-104831233D01*
X178059950Y-104823213D01*
X178004774Y-104661132D01*
X178001277Y-104653702D01*
X177911565Y-104507877D01*
X177906503Y-104501398D01*
X177786720Y-104379081D01*
X177780344Y-104373880D01*
X177636434Y-104281136D01*
X177629070Y-104277481D01*
X177468193Y-104218926D01*
X177460198Y-104216992D01*
X177328008Y-104200293D01*
X177323361Y-104200000D01*
X177113048Y-104200000D01*
X177103052Y-104203638D01*
X177100000Y-104208925D01*
X177100000Y-104886952D01*
X176900000Y-104886952D01*
X176900000Y-104213048D01*
X176896362Y-104203052D01*
X176891075Y-104200000D01*
X176681942Y-104200000D01*
X176677814Y-104200231D01*
X176550750Y-104214483D01*
X176542734Y-104216304D01*
X176381048Y-104272610D01*
X176373640Y-104276159D01*
X176228447Y-104366885D01*
X176222001Y-104371995D01*
X176100524Y-104492627D01*
X176095365Y-104499043D01*
X176003634Y-104643588D01*
X176000026Y-104650985D01*
X175942598Y-104812261D01*
X175940719Y-104820276D01*
X175932757Y-104887043D01*
X175472875Y-104887043D01*
X176610744Y-103749174D01*
X176656620Y-103727782D01*
X176663070Y-103727500D01*
X177577529Y-103727499D01*
X177660780Y-103727499D01*
X177663448Y-103727106D01*
X177663452Y-103727106D01*
X177729288Y-103717416D01*
X177729290Y-103717415D01*
X177734979Y-103716578D01*
X177740139Y-103714045D01*
X177740141Y-103714044D01*
X177842301Y-103663885D01*
X177847790Y-103661190D01*
X177852109Y-103656863D01*
X177852111Y-103656862D01*
X177932259Y-103576574D01*
X177932260Y-103576572D01*
X177936578Y-103572247D01*
X177991769Y-103459339D01*
X178002500Y-103385781D01*
X178002499Y-102614220D01*
X178001191Y-102605331D01*
X177992416Y-102545712D01*
X177992415Y-102545710D01*
X177991578Y-102540021D01*
X177986345Y-102529361D01*
X177983297Y-102523153D01*
X178863586Y-102523153D01*
X178866333Y-102531019D01*
X178867039Y-102537313D01*
X178867500Y-102545562D01*
X178867500Y-103914664D01*
X178867024Y-103923041D01*
X178866388Y-103928625D01*
X178863627Y-103936487D01*
X178864549Y-103944768D01*
X178867046Y-103967208D01*
X178867500Y-103975393D01*
X178867500Y-103982831D01*
X178868425Y-103986885D01*
X178869074Y-103989732D01*
X178870473Y-103998001D01*
X178871429Y-104006586D01*
X178873846Y-104028308D01*
X178878267Y-104035370D01*
X178879439Y-104038734D01*
X178880986Y-104041948D01*
X178882839Y-104050074D01*
X178888031Y-104056589D01*
X178888033Y-104056594D01*
X178901843Y-104073924D01*
X178906691Y-104080771D01*
X178908318Y-104083369D01*
X178910540Y-104086918D01*
X178915757Y-104092135D01*
X178921304Y-104098345D01*
X178927539Y-104106169D01*
X178940415Y-104122328D01*
X178947923Y-104125949D01*
X178952862Y-104129892D01*
X178959021Y-104135399D01*
X181134753Y-106311131D01*
X181140339Y-106317389D01*
X181143838Y-106321787D01*
X181147446Y-106329301D01*
X181171591Y-106348610D01*
X181177691Y-106354069D01*
X181182955Y-106359333D01*
X181186477Y-106361546D01*
X181186479Y-106361548D01*
X181188942Y-106363096D01*
X181195787Y-106367960D01*
X181219599Y-106387003D01*
X181227720Y-106388871D01*
X181230927Y-106390421D01*
X181234294Y-106391600D01*
X181241349Y-106396034D01*
X181255859Y-106397675D01*
X181271640Y-106399459D01*
X181279907Y-106400872D01*
X181281838Y-106401316D01*
X181286989Y-106402500D01*
X181294369Y-106402500D01*
X181302681Y-106402968D01*
X181333153Y-106406413D01*
X181341019Y-106403666D01*
X181347304Y-106402961D01*
X181355553Y-106402500D01*
X182567882Y-106402500D01*
X182615448Y-106419813D01*
X182620208Y-106424174D01*
X182699511Y-106503477D01*
X182749489Y-106528942D01*
X182798892Y-106554114D01*
X182798894Y-106554115D01*
X182804082Y-106556758D01*
X182920000Y-106575118D01*
X183035918Y-106556758D01*
X183041106Y-106554115D01*
X183041108Y-106554114D01*
X183090511Y-106528942D01*
X183140489Y-106503477D01*
X183223477Y-106420489D01*
X183257319Y-106354069D01*
X183274114Y-106321108D01*
X183274115Y-106321106D01*
X183276758Y-106315918D01*
X183295118Y-106200000D01*
X183276758Y-106084082D01*
X183259037Y-106049301D01*
X183248942Y-106029489D01*
X183223477Y-105979511D01*
X183140489Y-105896523D01*
X183073198Y-105862237D01*
X183041108Y-105845886D01*
X183041106Y-105845885D01*
X183035918Y-105843242D01*
X182920000Y-105824882D01*
X182804082Y-105843242D01*
X182798894Y-105845885D01*
X182798892Y-105845886D01*
X182766802Y-105862237D01*
X182699511Y-105896523D01*
X182620208Y-105975826D01*
X182574332Y-105997218D01*
X182567882Y-105997500D01*
X181424530Y-105997500D01*
X181376964Y-105980187D01*
X181372204Y-105975826D01*
X179628695Y-104232317D01*
X187258171Y-104232317D01*
X187276531Y-104348235D01*
X187279174Y-104353423D01*
X187279175Y-104353425D01*
X187296995Y-104388399D01*
X187329812Y-104452806D01*
X187412800Y-104535794D01*
X187441176Y-104550252D01*
X187512181Y-104586431D01*
X187512183Y-104586432D01*
X187517371Y-104589075D01*
X187633289Y-104607435D01*
X187749207Y-104589075D01*
X187754395Y-104586432D01*
X187754397Y-104586431D01*
X187825402Y-104550252D01*
X187853778Y-104535794D01*
X187936766Y-104452806D01*
X187969583Y-104388399D01*
X187987403Y-104353425D01*
X187987404Y-104353423D01*
X187990047Y-104348235D01*
X188008407Y-104232317D01*
X187990047Y-104116399D01*
X187984371Y-104105258D01*
X187956253Y-104050074D01*
X187936766Y-104011828D01*
X187853778Y-103928840D01*
X187801495Y-103902201D01*
X187754397Y-103878203D01*
X187754395Y-103878202D01*
X187749207Y-103875559D01*
X187650943Y-103859995D01*
X187639041Y-103858110D01*
X187633289Y-103857199D01*
X187627537Y-103858110D01*
X187615635Y-103859995D01*
X187517371Y-103875559D01*
X187512183Y-103878202D01*
X187512181Y-103878203D01*
X187465083Y-103902201D01*
X187412800Y-103928840D01*
X187329812Y-104011828D01*
X187310325Y-104050074D01*
X187282208Y-104105258D01*
X187276531Y-104116399D01*
X187258171Y-104232317D01*
X179628695Y-104232317D01*
X179294174Y-103897796D01*
X179272782Y-103851920D01*
X179272500Y-103845470D01*
X179272500Y-102770000D01*
X183124882Y-102770000D01*
X183143242Y-102885918D01*
X183196523Y-102990489D01*
X183279511Y-103073477D01*
X183284694Y-103076118D01*
X183284697Y-103076120D01*
X183383595Y-103126510D01*
X183418117Y-103163531D01*
X183424000Y-103192445D01*
X183424000Y-103396382D01*
X183406687Y-103443948D01*
X183402326Y-103448708D01*
X183323023Y-103528011D01*
X183304760Y-103563855D01*
X183281571Y-103609367D01*
X183269742Y-103632582D01*
X183251382Y-103748500D01*
X183269742Y-103864418D01*
X183272385Y-103869606D01*
X183272386Y-103869608D01*
X183286749Y-103897796D01*
X183323023Y-103968989D01*
X183406011Y-104051977D01*
X183449085Y-104073924D01*
X183505392Y-104102614D01*
X183505394Y-104102615D01*
X183510582Y-104105258D01*
X183608846Y-104120822D01*
X183617251Y-104122153D01*
X183626500Y-104123618D01*
X183635750Y-104122153D01*
X183644154Y-104120822D01*
X183742418Y-104105258D01*
X183747606Y-104102615D01*
X183747608Y-104102614D01*
X183803915Y-104073924D01*
X183846989Y-104051977D01*
X183929977Y-103968989D01*
X183966251Y-103897796D01*
X183980614Y-103869608D01*
X183980615Y-103869606D01*
X183983258Y-103864418D01*
X184001618Y-103748500D01*
X183983258Y-103632582D01*
X183971430Y-103609367D01*
X183948240Y-103563855D01*
X183940916Y-103549480D01*
X186209176Y-103549480D01*
X186227536Y-103665398D01*
X186230179Y-103670586D01*
X186230180Y-103670588D01*
X186238816Y-103687537D01*
X186280817Y-103769969D01*
X186363805Y-103852957D01*
X186409269Y-103876122D01*
X186463186Y-103903594D01*
X186463188Y-103903595D01*
X186468376Y-103906238D01*
X186584294Y-103924598D01*
X186700212Y-103906238D01*
X186705400Y-103903595D01*
X186705402Y-103903594D01*
X186759319Y-103876122D01*
X186804783Y-103852957D01*
X186887771Y-103769969D01*
X186929772Y-103687537D01*
X186938408Y-103670588D01*
X186938409Y-103670586D01*
X186941052Y-103665398D01*
X186959412Y-103549480D01*
X186958628Y-103544532D01*
X188324882Y-103544532D01*
X188343242Y-103660450D01*
X188345885Y-103665638D01*
X188345886Y-103665640D01*
X188357043Y-103687537D01*
X188396523Y-103765021D01*
X188479511Y-103848009D01*
X188497548Y-103857199D01*
X188578892Y-103898646D01*
X188578894Y-103898647D01*
X188584082Y-103901290D01*
X188700000Y-103919650D01*
X188815918Y-103901290D01*
X188821106Y-103898647D01*
X188821108Y-103898646D01*
X188902452Y-103857199D01*
X188920489Y-103848009D01*
X189003477Y-103765021D01*
X189042957Y-103687537D01*
X189054114Y-103665640D01*
X189054115Y-103665638D01*
X189056758Y-103660450D01*
X189073891Y-103552279D01*
X189076623Y-103547349D01*
X189073891Y-103536785D01*
X189068432Y-103502317D01*
X189056758Y-103428614D01*
X189036286Y-103388434D01*
X189006119Y-103329229D01*
X189003477Y-103324043D01*
X188920489Y-103241055D01*
X188853263Y-103206802D01*
X188821108Y-103190418D01*
X188821106Y-103190417D01*
X188815918Y-103187774D01*
X188700000Y-103169414D01*
X188584082Y-103187774D01*
X188578894Y-103190417D01*
X188578892Y-103190418D01*
X188546737Y-103206802D01*
X188479511Y-103241055D01*
X188396523Y-103324043D01*
X188393881Y-103329229D01*
X188363715Y-103388434D01*
X188343242Y-103428614D01*
X188324882Y-103544532D01*
X186958628Y-103544532D01*
X186941052Y-103433562D01*
X186935887Y-103423424D01*
X186890413Y-103334177D01*
X186887771Y-103328991D01*
X186804783Y-103246003D01*
X186727846Y-103206802D01*
X186705402Y-103195366D01*
X186705400Y-103195365D01*
X186700212Y-103192722D01*
X186584294Y-103174362D01*
X186468376Y-103192722D01*
X186463188Y-103195365D01*
X186463186Y-103195366D01*
X186440742Y-103206802D01*
X186363805Y-103246003D01*
X186280817Y-103328991D01*
X186278175Y-103334177D01*
X186232702Y-103423424D01*
X186227536Y-103433562D01*
X186209176Y-103549480D01*
X183940916Y-103549480D01*
X183929977Y-103528011D01*
X183850674Y-103448708D01*
X183829282Y-103402832D01*
X183829000Y-103396382D01*
X183829000Y-102958163D01*
X183837065Y-102924568D01*
X183854114Y-102891108D01*
X183854115Y-102891106D01*
X183856758Y-102885918D01*
X183875118Y-102770000D01*
X183856758Y-102654082D01*
X183848106Y-102637100D01*
X183815706Y-102573513D01*
X183803477Y-102549511D01*
X183720489Y-102466523D01*
X183664682Y-102438088D01*
X183621108Y-102415886D01*
X183621106Y-102415885D01*
X183615918Y-102413242D01*
X183500000Y-102394882D01*
X183384082Y-102413242D01*
X183378894Y-102415885D01*
X183378892Y-102415886D01*
X183335318Y-102438088D01*
X183279511Y-102466523D01*
X183196523Y-102549511D01*
X183184294Y-102573513D01*
X183151895Y-102637100D01*
X183143242Y-102654082D01*
X183124882Y-102770000D01*
X179272500Y-102770000D01*
X179272500Y-102678207D01*
X179289813Y-102630641D01*
X179333650Y-102605331D01*
X179338607Y-102604897D01*
X179340000Y-102605118D01*
X179455918Y-102586758D01*
X179461106Y-102584115D01*
X179461108Y-102584114D01*
X179518842Y-102554697D01*
X179560489Y-102533477D01*
X179643477Y-102450489D01*
X179676275Y-102386119D01*
X179694114Y-102351108D01*
X179694115Y-102351106D01*
X179696758Y-102345918D01*
X179712573Y-102246067D01*
X179714207Y-102235752D01*
X179715118Y-102230000D01*
X179696758Y-102114082D01*
X179690764Y-102102317D01*
X179646119Y-102014697D01*
X179643477Y-102009511D01*
X179560489Y-101926523D01*
X179477193Y-101884082D01*
X179461108Y-101875886D01*
X179461106Y-101875885D01*
X179455918Y-101873242D01*
X179340000Y-101854882D01*
X179224082Y-101873242D01*
X179218894Y-101875885D01*
X179218892Y-101875886D01*
X179202807Y-101884082D01*
X179119511Y-101926523D01*
X179036523Y-102009511D01*
X179033881Y-102014697D01*
X178989237Y-102102317D01*
X178983242Y-102114082D01*
X178964882Y-102230000D01*
X178965793Y-102235751D01*
X178965793Y-102235753D01*
X178970872Y-102267820D01*
X178961213Y-102317509D01*
X178945933Y-102334933D01*
X178940699Y-102337446D01*
X178921390Y-102361591D01*
X178915931Y-102367691D01*
X178910667Y-102372955D01*
X178908460Y-102376466D01*
X178908458Y-102376469D01*
X178906900Y-102378948D01*
X178902038Y-102385790D01*
X178892711Y-102397453D01*
X178882997Y-102409599D01*
X178881129Y-102417722D01*
X178879577Y-102420933D01*
X178878401Y-102424292D01*
X178873965Y-102431349D01*
X178872260Y-102446432D01*
X178870539Y-102461648D01*
X178869127Y-102469912D01*
X178868746Y-102471571D01*
X178867500Y-102476989D01*
X178867500Y-102484360D01*
X178867032Y-102492672D01*
X178863586Y-102523153D01*
X177983297Y-102523153D01*
X177938885Y-102432699D01*
X177936190Y-102427210D01*
X177931863Y-102422891D01*
X177931862Y-102422889D01*
X177851574Y-102342741D01*
X177851572Y-102342740D01*
X177847247Y-102338422D01*
X177771261Y-102301279D01*
X177739499Y-102285753D01*
X177739497Y-102285753D01*
X177734339Y-102283231D01*
X177660781Y-102272500D01*
X177328500Y-102272500D01*
X177280934Y-102255187D01*
X177255624Y-102211350D01*
X177254500Y-102198500D01*
X177254500Y-100236070D01*
X177271813Y-100188504D01*
X177276174Y-100183744D01*
X178983743Y-98476174D01*
X179029619Y-98454782D01*
X179036069Y-98454500D01*
X187699882Y-98454500D01*
X187747448Y-98471813D01*
X187752208Y-98476174D01*
X187779511Y-98503477D01*
X187829489Y-98528942D01*
X187878892Y-98554114D01*
X187878894Y-98554115D01*
X187884082Y-98556758D01*
X188000000Y-98575118D01*
X188115918Y-98556758D01*
X188121106Y-98554115D01*
X188121108Y-98554114D01*
X188170511Y-98528942D01*
X188220489Y-98503477D01*
X188247792Y-98476174D01*
X188293668Y-98454782D01*
X188300118Y-98454500D01*
X191363930Y-98454500D01*
X191411496Y-98471813D01*
X191416256Y-98476174D01*
X193176153Y-100236070D01*
X194282078Y-101341995D01*
X194303470Y-101387871D01*
X194290369Y-101436766D01*
X194248905Y-101465800D01*
X194203088Y-101462796D01*
X194199301Y-101460266D01*
X194109220Y-101442348D01*
X194065946Y-101416088D01*
X194062128Y-101410882D01*
X194016907Y-101343204D01*
X194016905Y-101343202D01*
X194012857Y-101337143D01*
X193924373Y-101278020D01*
X193917230Y-101276599D01*
X193917227Y-101276598D01*
X193849918Y-101263210D01*
X193849917Y-101263210D01*
X193846348Y-101262500D01*
X193513652Y-101262500D01*
X193510083Y-101263210D01*
X193510082Y-101263210D01*
X193442773Y-101276598D01*
X193442770Y-101276599D01*
X193435627Y-101278020D01*
X193347143Y-101337143D01*
X193313248Y-101387871D01*
X193301252Y-101405824D01*
X193260430Y-101435755D01*
X193209919Y-101432444D01*
X193172656Y-101395985D01*
X193145543Y-101337842D01*
X193138231Y-101327399D01*
X193062601Y-101251769D01*
X193052158Y-101244457D01*
X192954487Y-101198912D01*
X192943742Y-101195780D01*
X192902247Y-101190317D01*
X192897412Y-101190000D01*
X192833048Y-101190000D01*
X192823052Y-101193638D01*
X192820000Y-101198925D01*
X192820000Y-101726000D01*
X192802687Y-101773566D01*
X192758850Y-101798876D01*
X192746000Y-101800000D01*
X192694000Y-101800000D01*
X192646434Y-101782687D01*
X192621124Y-101738850D01*
X192620000Y-101726000D01*
X192620000Y-101203048D01*
X192616362Y-101193052D01*
X192611075Y-101190000D01*
X192542588Y-101190000D01*
X192537753Y-101190317D01*
X192496258Y-101195780D01*
X192485513Y-101198912D01*
X192387842Y-101244457D01*
X192377399Y-101251769D01*
X192301769Y-101327399D01*
X192294457Y-101337842D01*
X192248912Y-101435513D01*
X192245780Y-101446258D01*
X192240317Y-101487753D01*
X192240000Y-101492588D01*
X192240000Y-101577748D01*
X192222687Y-101625314D01*
X192178850Y-101650624D01*
X192126623Y-101640401D01*
X192121051Y-101636899D01*
X192114210Y-101632038D01*
X192096910Y-101618202D01*
X192096909Y-101618201D01*
X192090401Y-101612997D01*
X192082278Y-101611129D01*
X192079067Y-101609577D01*
X192075708Y-101608401D01*
X192068651Y-101603965D01*
X192047240Y-101601544D01*
X192038352Y-101600539D01*
X192030088Y-101599127D01*
X192027092Y-101598438D01*
X192027089Y-101598438D01*
X192023011Y-101597500D01*
X192015640Y-101597500D01*
X192007327Y-101597032D01*
X192007257Y-101597024D01*
X191976847Y-101593586D01*
X191968981Y-101596333D01*
X191962687Y-101597039D01*
X191954438Y-101597500D01*
X190145337Y-101597500D01*
X190136960Y-101597024D01*
X190131376Y-101596388D01*
X190123514Y-101593627D01*
X190095174Y-101596781D01*
X190092792Y-101597046D01*
X190084607Y-101597500D01*
X190077169Y-101597500D01*
X190072241Y-101598624D01*
X190070268Y-101599074D01*
X190061999Y-101600473D01*
X190039974Y-101602924D01*
X190039973Y-101602924D01*
X190031692Y-101603846D01*
X190024627Y-101608269D01*
X190021259Y-101609442D01*
X190018051Y-101610986D01*
X190009926Y-101612839D01*
X190003409Y-101618032D01*
X190003407Y-101618033D01*
X189986079Y-101631841D01*
X189979240Y-101636684D01*
X189973082Y-101640539D01*
X189967860Y-101645761D01*
X189961651Y-101651307D01*
X189937672Y-101670415D01*
X189934051Y-101677922D01*
X189930108Y-101682861D01*
X189924602Y-101689019D01*
X189312343Y-102301279D01*
X189306083Y-102306866D01*
X189301692Y-102310358D01*
X189294179Y-102313966D01*
X189274870Y-102338111D01*
X189269411Y-102344211D01*
X189264147Y-102349475D01*
X189261940Y-102352986D01*
X189261938Y-102352989D01*
X189260380Y-102355468D01*
X189255518Y-102362310D01*
X189242212Y-102378948D01*
X189236477Y-102386119D01*
X189234609Y-102394242D01*
X189233057Y-102397453D01*
X189231881Y-102400812D01*
X189227445Y-102407869D01*
X189225747Y-102422889D01*
X189224019Y-102438168D01*
X189222607Y-102446432D01*
X189220980Y-102453509D01*
X189220980Y-102460880D01*
X189220512Y-102469192D01*
X189217066Y-102499673D01*
X189219813Y-102507539D01*
X189220519Y-102513833D01*
X189220980Y-102522082D01*
X189220980Y-103525209D01*
X189214908Y-103541892D01*
X189219620Y-103549735D01*
X189220980Y-103563855D01*
X189220980Y-105569202D01*
X189220504Y-105577579D01*
X189219868Y-105583163D01*
X189217107Y-105591025D01*
X189218029Y-105599306D01*
X189220526Y-105621746D01*
X189220980Y-105629931D01*
X189220980Y-105637369D01*
X189221905Y-105641423D01*
X189222554Y-105644270D01*
X189223953Y-105652539D01*
X189227326Y-105682846D01*
X189231747Y-105689908D01*
X189232919Y-105693272D01*
X189234466Y-105696486D01*
X189236319Y-105704612D01*
X189241511Y-105711127D01*
X189241513Y-105711132D01*
X189255323Y-105728462D01*
X189260171Y-105735309D01*
X189261798Y-105737907D01*
X189264020Y-105741456D01*
X189269237Y-105746673D01*
X189274783Y-105752882D01*
X189293895Y-105776866D01*
X189301403Y-105780487D01*
X189306342Y-105784430D01*
X189312501Y-105789937D01*
X190810215Y-107287651D01*
X190815801Y-107293909D01*
X190819300Y-107298307D01*
X190822908Y-107305821D01*
X190847053Y-107325130D01*
X190853153Y-107330589D01*
X190858417Y-107335853D01*
X190861928Y-107338060D01*
X190861931Y-107338062D01*
X190864410Y-107339620D01*
X190871252Y-107344482D01*
X190888552Y-107358318D01*
X190888553Y-107358319D01*
X190895061Y-107363523D01*
X190903184Y-107365391D01*
X190906395Y-107366943D01*
X190909754Y-107368119D01*
X190916811Y-107372555D01*
X190938222Y-107374976D01*
X190947110Y-107375981D01*
X190955374Y-107377393D01*
X190958370Y-107378082D01*
X190958373Y-107378082D01*
X190962451Y-107379020D01*
X190969822Y-107379020D01*
X190978134Y-107379488D01*
X191008615Y-107382934D01*
X191016481Y-107380187D01*
X191022775Y-107379481D01*
X191031024Y-107379020D01*
X194770932Y-107379020D01*
X194818498Y-107396333D01*
X194823258Y-107400694D01*
X196075826Y-108653262D01*
X196097218Y-108699138D01*
X196097500Y-108705588D01*
X196097500Y-113958800D01*
X196080187Y-114006366D01*
X196036350Y-114031676D01*
X195986500Y-114022886D01*
X195961020Y-113998451D01*
X195907309Y-113913815D01*
X195901420Y-113906697D01*
X195788488Y-113800647D01*
X195781022Y-113795223D01*
X195645259Y-113720586D01*
X195636676Y-113717188D01*
X195486621Y-113678660D01*
X195477462Y-113677503D01*
X195113048Y-113677503D01*
X195103052Y-113681141D01*
X195100000Y-113686428D01*
X195100000Y-114964455D01*
X195103638Y-114974451D01*
X195108925Y-114977503D01*
X195438563Y-114977503D01*
X195443211Y-114977210D01*
X195558312Y-114962670D01*
X195567264Y-114960371D01*
X195711298Y-114903344D01*
X195719397Y-114898891D01*
X195844724Y-114807835D01*
X195851460Y-114801510D01*
X195950206Y-114682147D01*
X195955157Y-114674346D01*
X195956543Y-114671400D01*
X195992462Y-114635733D01*
X196042903Y-114631498D01*
X196084266Y-114660677D01*
X196097500Y-114702909D01*
X196097500Y-122608800D01*
X196080187Y-122656366D01*
X196036350Y-122681676D01*
X195986500Y-122672886D01*
X195961020Y-122648451D01*
X195907309Y-122563815D01*
X195901420Y-122556697D01*
X195788488Y-122450647D01*
X195781022Y-122445223D01*
X195645259Y-122370586D01*
X195636676Y-122367188D01*
X195486621Y-122328660D01*
X195477462Y-122327503D01*
X195113048Y-122327503D01*
X195103052Y-122331141D01*
X195100000Y-122336428D01*
X195100000Y-123614455D01*
X195103638Y-123624451D01*
X195108925Y-123627503D01*
X195438563Y-123627503D01*
X195443211Y-123627210D01*
X195558312Y-123612670D01*
X195567264Y-123610371D01*
X195711298Y-123553344D01*
X195719397Y-123548891D01*
X195844724Y-123457835D01*
X195851460Y-123451510D01*
X195950206Y-123332147D01*
X195955157Y-123324346D01*
X195956543Y-123321400D01*
X195992462Y-123285733D01*
X196042903Y-123281498D01*
X196084266Y-123310677D01*
X196097500Y-123352909D01*
X196097500Y-124394411D01*
X196080187Y-124441977D01*
X196075826Y-124446737D01*
X195242267Y-125280297D01*
X195196391Y-125301689D01*
X195189941Y-125301971D01*
X179753901Y-125301971D01*
X179706335Y-125284658D01*
X179701575Y-125280297D01*
X179114911Y-124693633D01*
X179093519Y-124647757D01*
X179094148Y-124629730D01*
X179094567Y-124627088D01*
X179100383Y-124590366D01*
X179082023Y-124474448D01*
X179065479Y-124441977D01*
X179054207Y-124419855D01*
X179028742Y-124369877D01*
X178945754Y-124286889D01*
X178895776Y-124261424D01*
X178846373Y-124236252D01*
X178846371Y-124236251D01*
X178841183Y-124233608D01*
X178725265Y-124215248D01*
X178609347Y-124233608D01*
X178604159Y-124236251D01*
X178604157Y-124236252D01*
X178554754Y-124261424D01*
X178504776Y-124286889D01*
X178421788Y-124369877D01*
X178396323Y-124419855D01*
X178385052Y-124441977D01*
X178368507Y-124474448D01*
X178350147Y-124590366D01*
X178368507Y-124706284D01*
X178371150Y-124711472D01*
X178371151Y-124711474D01*
X178381767Y-124732309D01*
X178421788Y-124810855D01*
X178504776Y-124893843D01*
X178554754Y-124919308D01*
X178604157Y-124944480D01*
X178604159Y-124944481D01*
X178609347Y-124947124D01*
X178725265Y-124965484D01*
X178731016Y-124964573D01*
X178731017Y-124964573D01*
X178764630Y-124959249D01*
X178814320Y-124968907D01*
X178828533Y-124980012D01*
X179183396Y-125334875D01*
X179204788Y-125380751D01*
X179191687Y-125429646D01*
X179164667Y-125453134D01*
X179079511Y-125496523D01*
X178996523Y-125579511D01*
X178943242Y-125684082D01*
X178924882Y-125800000D01*
X178943242Y-125915918D01*
X178945885Y-125921106D01*
X178945886Y-125921108D01*
X178966560Y-125961682D01*
X178996523Y-126020489D01*
X179079511Y-126103477D01*
X179129489Y-126128942D01*
X179178892Y-126154114D01*
X179178894Y-126154115D01*
X179184082Y-126156758D01*
X179300000Y-126175118D01*
X179415918Y-126156758D01*
X179421106Y-126154115D01*
X179421108Y-126154114D01*
X179470511Y-126128942D01*
X179520489Y-126103477D01*
X179599792Y-126024174D01*
X179645668Y-126002782D01*
X179652118Y-126002500D01*
X195354664Y-126002500D01*
X195363041Y-126002976D01*
X195368625Y-126003612D01*
X195376487Y-126006373D01*
X195407207Y-126002954D01*
X195415393Y-126002500D01*
X195422831Y-126002500D01*
X195427759Y-126001376D01*
X195429732Y-126000926D01*
X195438001Y-125999527D01*
X195446586Y-125998571D01*
X195468308Y-125996154D01*
X195475370Y-125991733D01*
X195478734Y-125990561D01*
X195481948Y-125989014D01*
X195490074Y-125987161D01*
X195496589Y-125981969D01*
X195496594Y-125981967D01*
X195513924Y-125968157D01*
X195520771Y-125963309D01*
X195523369Y-125961682D01*
X195523370Y-125961681D01*
X195526918Y-125959460D01*
X195532135Y-125954243D01*
X195538345Y-125948696D01*
X195555809Y-125934780D01*
X195555810Y-125934779D01*
X195562328Y-125929585D01*
X195565949Y-125922077D01*
X195569892Y-125917138D01*
X195575399Y-125910979D01*
X196711131Y-124775247D01*
X196717389Y-124769661D01*
X196721787Y-124766162D01*
X196729301Y-124762554D01*
X196748610Y-124738409D01*
X196754069Y-124732309D01*
X196759333Y-124727045D01*
X196761540Y-124723534D01*
X196761542Y-124723531D01*
X196763100Y-124721052D01*
X196767962Y-124714210D01*
X196781798Y-124696910D01*
X196781799Y-124696909D01*
X196787003Y-124690401D01*
X196788870Y-124682280D01*
X196790422Y-124679070D01*
X196791599Y-124675708D01*
X196796035Y-124668651D01*
X196799460Y-124638352D01*
X196800874Y-124630082D01*
X196801562Y-124627088D01*
X196802500Y-124623011D01*
X196802500Y-124615634D01*
X196802968Y-124607321D01*
X196805477Y-124585127D01*
X196806413Y-124576847D01*
X196803666Y-124568981D01*
X196802961Y-124562696D01*
X196802500Y-124554447D01*
X196802500Y-108545337D01*
X196802976Y-108536960D01*
X196803612Y-108531376D01*
X196806373Y-108523514D01*
X196802954Y-108492792D01*
X196802500Y-108484607D01*
X196802500Y-108477169D01*
X196800926Y-108470268D01*
X196799527Y-108461999D01*
X196797076Y-108439974D01*
X196797076Y-108439973D01*
X196796154Y-108431692D01*
X196791731Y-108424627D01*
X196790558Y-108421259D01*
X196789014Y-108418051D01*
X196787161Y-108409926D01*
X196781968Y-108403409D01*
X196781967Y-108403407D01*
X196768159Y-108386079D01*
X196763316Y-108379240D01*
X196759461Y-108373082D01*
X196754239Y-108367860D01*
X196748692Y-108361650D01*
X196734779Y-108344190D01*
X196729585Y-108337672D01*
X196722078Y-108334051D01*
X196717139Y-108330108D01*
X196710981Y-108324602D01*
X195243790Y-106857412D01*
X195590000Y-106857412D01*
X195590317Y-106862247D01*
X195595780Y-106903742D01*
X195598912Y-106914487D01*
X195644457Y-107012158D01*
X195651769Y-107022601D01*
X195727399Y-107098231D01*
X195737842Y-107105543D01*
X195835513Y-107151088D01*
X195846258Y-107154220D01*
X195887753Y-107159683D01*
X195892588Y-107160000D01*
X195986952Y-107160000D01*
X195996948Y-107156362D01*
X196000000Y-107151075D01*
X196000000Y-107146952D01*
X196200000Y-107146952D01*
X196203638Y-107156948D01*
X196208925Y-107160000D01*
X196307412Y-107160000D01*
X196312247Y-107159683D01*
X196353742Y-107154220D01*
X196364487Y-107151088D01*
X196462158Y-107105543D01*
X196472601Y-107098231D01*
X196548231Y-107022601D01*
X196555543Y-107012158D01*
X196601088Y-106914487D01*
X196604220Y-106903742D01*
X196609683Y-106862247D01*
X196610000Y-106857412D01*
X196610000Y-106793048D01*
X196606362Y-106783052D01*
X196601075Y-106780000D01*
X196213048Y-106780000D01*
X196203052Y-106783638D01*
X196200000Y-106788925D01*
X196200000Y-107146952D01*
X196000000Y-107146952D01*
X196000000Y-106793048D01*
X195996362Y-106783052D01*
X195991075Y-106780000D01*
X195603048Y-106780000D01*
X195593052Y-106783638D01*
X195590000Y-106788925D01*
X195590000Y-106857412D01*
X195243790Y-106857412D01*
X195175241Y-106788863D01*
X195169654Y-106782603D01*
X195166162Y-106778212D01*
X195162554Y-106770699D01*
X195138409Y-106751390D01*
X195132309Y-106745931D01*
X195127045Y-106740667D01*
X195123534Y-106738460D01*
X195123531Y-106738458D01*
X195121052Y-106736900D01*
X195114210Y-106732038D01*
X195096910Y-106718202D01*
X195096909Y-106718201D01*
X195090401Y-106712997D01*
X195082278Y-106711129D01*
X195079067Y-106709577D01*
X195075708Y-106708401D01*
X195068651Y-106703965D01*
X195047240Y-106701544D01*
X195038352Y-106700539D01*
X195030088Y-106699127D01*
X195027092Y-106698438D01*
X195027089Y-106698438D01*
X195023011Y-106697500D01*
X195015640Y-106697500D01*
X195007327Y-106697032D01*
X194985126Y-106694522D01*
X194976847Y-106693586D01*
X194968981Y-106696333D01*
X194962687Y-106697039D01*
X194954438Y-106697500D01*
X191214530Y-106697500D01*
X191166964Y-106680187D01*
X191162204Y-106675826D01*
X190340204Y-105853826D01*
X190318812Y-105807950D01*
X190331913Y-105759055D01*
X190373377Y-105730021D01*
X190392530Y-105727500D01*
X190992161Y-105727499D01*
X191336929Y-105727499D01*
X191384495Y-105744812D01*
X191389255Y-105749173D01*
X191997167Y-106357085D01*
X192006368Y-106368296D01*
X192016516Y-106383484D01*
X192022577Y-106387534D01*
X192037758Y-106397678D01*
X192037766Y-106397684D01*
X192100699Y-106439734D01*
X192107844Y-106441155D01*
X192107846Y-106441156D01*
X192174926Y-106454499D01*
X192174931Y-106454500D01*
X192174934Y-106454500D01*
X192174942Y-106454501D01*
X192200000Y-106459485D01*
X192207149Y-106458063D01*
X192207151Y-106458063D01*
X192217915Y-106455922D01*
X192232350Y-106454500D01*
X194267646Y-106454500D01*
X194282082Y-106455922D01*
X194300000Y-106459486D01*
X194307149Y-106458064D01*
X194392155Y-106441156D01*
X194392158Y-106441155D01*
X194399301Y-106439734D01*
X194462234Y-106397684D01*
X194462242Y-106397678D01*
X194477423Y-106387534D01*
X194483484Y-106383484D01*
X194493632Y-106368296D01*
X194502833Y-106357085D01*
X194707082Y-106152835D01*
X194718293Y-106143634D01*
X194733484Y-106133484D01*
X194789734Y-106049301D01*
X194804500Y-105975067D01*
X194804500Y-105975063D01*
X194809485Y-105950000D01*
X194805922Y-105932085D01*
X194804500Y-105917650D01*
X194804500Y-105296198D01*
X194821813Y-105248632D01*
X194865650Y-105223322D01*
X194892937Y-105223620D01*
X194912442Y-105227500D01*
X195187558Y-105227500D01*
X195208561Y-105223322D01*
X195217601Y-105221524D01*
X195217602Y-105221523D01*
X195224748Y-105220102D01*
X195230807Y-105216054D01*
X195237541Y-105213264D01*
X195238411Y-105215365D01*
X195277202Y-105205867D01*
X195322604Y-105228248D01*
X195342997Y-105274578D01*
X195341936Y-105290788D01*
X195341936Y-105292851D01*
X195340514Y-105300000D01*
X195341936Y-105307149D01*
X195358844Y-105392155D01*
X195358845Y-105392158D01*
X195360266Y-105399301D01*
X195364314Y-105405359D01*
X195402313Y-105462230D01*
X195402322Y-105462242D01*
X195416516Y-105483484D01*
X195431704Y-105493632D01*
X195442915Y-105502833D01*
X195640826Y-105700743D01*
X195662218Y-105746619D01*
X195662500Y-105753069D01*
X195662500Y-105886348D01*
X195663210Y-105889917D01*
X195663210Y-105889918D01*
X195676598Y-105957227D01*
X195676599Y-105957230D01*
X195678020Y-105964373D01*
X195737143Y-106052857D01*
X195783875Y-106084082D01*
X195805824Y-106098748D01*
X195835755Y-106139570D01*
X195832444Y-106190081D01*
X195795985Y-106227344D01*
X195737842Y-106254457D01*
X195727399Y-106261769D01*
X195651769Y-106337399D01*
X195644457Y-106347842D01*
X195598912Y-106445513D01*
X195595780Y-106456258D01*
X195590317Y-106497753D01*
X195590000Y-106502588D01*
X195590000Y-106566952D01*
X195593638Y-106576948D01*
X195598925Y-106580000D01*
X196596952Y-106580000D01*
X196606948Y-106576362D01*
X196610000Y-106571075D01*
X196610000Y-106502588D01*
X196609683Y-106497753D01*
X196604220Y-106456258D01*
X196601088Y-106445513D01*
X196555543Y-106347842D01*
X196548231Y-106337399D01*
X196472601Y-106261769D01*
X196462158Y-106254457D01*
X196404015Y-106227344D01*
X196368222Y-106191551D01*
X196363811Y-106141124D01*
X196394176Y-106098748D01*
X196416125Y-106084082D01*
X196462857Y-106052857D01*
X196521980Y-105964373D01*
X196523401Y-105957230D01*
X196523402Y-105957227D01*
X196536790Y-105889918D01*
X196536790Y-105889917D01*
X196537500Y-105886348D01*
X196537500Y-105553652D01*
X196530058Y-105516237D01*
X196523402Y-105482773D01*
X196523401Y-105482770D01*
X196521980Y-105475627D01*
X196462857Y-105387143D01*
X196374373Y-105328020D01*
X196367230Y-105326599D01*
X196367227Y-105326598D01*
X196299918Y-105313210D01*
X196299917Y-105313210D01*
X196296348Y-105312500D01*
X196003070Y-105312500D01*
X195955504Y-105295187D01*
X195950744Y-105290826D01*
X195876174Y-105216256D01*
X195854782Y-105170380D01*
X195854500Y-105163930D01*
X195854500Y-104832354D01*
X195855922Y-104817918D01*
X195858064Y-104807149D01*
X195859486Y-104800000D01*
X195855922Y-104782082D01*
X195854500Y-104767646D01*
X195854500Y-102332354D01*
X195855922Y-102317918D01*
X195858064Y-102307149D01*
X195859486Y-102300000D01*
X195847499Y-102239734D01*
X195839734Y-102200699D01*
X195783484Y-102116516D01*
X195768293Y-102106366D01*
X195757082Y-102097165D01*
X191702833Y-98042915D01*
X191693630Y-98031701D01*
X191687533Y-98022576D01*
X191683484Y-98016516D01*
X191677423Y-98012466D01*
X191662242Y-98002322D01*
X191662234Y-98002316D01*
X191605359Y-97964314D01*
X191605360Y-97964314D01*
X191599301Y-97960266D01*
X191592158Y-97958845D01*
X191592155Y-97958844D01*
X191507149Y-97941936D01*
X191500000Y-97940514D01*
X191492851Y-97941936D01*
X191482082Y-97944078D01*
X191467646Y-97945500D01*
X188300118Y-97945500D01*
X188252552Y-97928187D01*
X188247792Y-97923826D01*
X188220489Y-97896523D01*
X188170511Y-97871058D01*
X188121108Y-97845886D01*
X188121106Y-97845885D01*
X188115918Y-97843242D01*
X188000000Y-97824882D01*
X187884082Y-97843242D01*
X187878894Y-97845885D01*
X187878892Y-97845886D01*
X187829489Y-97871058D01*
X187779511Y-97896523D01*
X187752208Y-97923826D01*
X187706332Y-97945218D01*
X187699882Y-97945500D01*
X178932354Y-97945500D01*
X178917918Y-97944078D01*
X178907149Y-97941936D01*
X178900000Y-97940514D01*
X178892851Y-97941936D01*
X178807845Y-97958844D01*
X178807842Y-97958845D01*
X178800699Y-97960266D01*
X178737767Y-98002316D01*
X178737766Y-98002317D01*
X178716516Y-98016516D01*
X178712467Y-98022576D01*
X178706368Y-98031704D01*
X178697165Y-98042918D01*
X176842915Y-99897167D01*
X176831704Y-99906368D01*
X176816516Y-99916516D01*
X176812466Y-99922577D01*
X176802322Y-99937758D01*
X176802316Y-99937766D01*
X176760266Y-100000699D01*
X176758845Y-100007842D01*
X176758844Y-100007845D01*
X176741936Y-100092851D01*
X176740514Y-100100000D01*
X176741936Y-100107149D01*
X176744078Y-100117918D01*
X176745500Y-100132354D01*
X176745500Y-102198501D01*
X176728187Y-102246067D01*
X176684350Y-102271377D01*
X176671500Y-102272501D01*
X176339220Y-102272501D01*
X176336552Y-102272894D01*
X176336548Y-102272894D01*
X176270712Y-102282584D01*
X176270710Y-102282585D01*
X176265021Y-102283422D01*
X176259861Y-102285955D01*
X176259859Y-102285956D01*
X176182020Y-102324174D01*
X176152210Y-102338810D01*
X176147891Y-102343137D01*
X176147889Y-102343138D01*
X176067741Y-102423426D01*
X176063422Y-102427753D01*
X176044812Y-102465825D01*
X176011311Y-102534361D01*
X176008231Y-102540661D01*
X175997500Y-102614219D01*
X175997501Y-103385780D01*
X175997894Y-103388448D01*
X175997894Y-103388452D01*
X176006221Y-103445023D01*
X176008422Y-103459979D01*
X176010955Y-103465139D01*
X176010956Y-103465141D01*
X176041629Y-103527613D01*
X176047052Y-103577941D01*
X176027529Y-103612553D01*
X171742915Y-107897167D01*
X171731704Y-107906368D01*
X171716516Y-107916516D01*
X171712466Y-107922577D01*
X171702322Y-107937758D01*
X171702316Y-107937766D01*
X171660266Y-108000699D01*
X171658845Y-108007842D01*
X171658844Y-108007845D01*
X171641936Y-108092851D01*
X171640514Y-108100000D01*
X171641936Y-108107149D01*
X171644078Y-108117918D01*
X171645500Y-108132354D01*
X171645500Y-117567646D01*
X171644078Y-117582082D01*
X171640514Y-117600000D01*
X171641936Y-117607149D01*
X171644078Y-117617918D01*
X171645500Y-117632354D01*
X171645500Y-118567646D01*
X171644078Y-118582082D01*
X171640514Y-118600000D01*
X171051000Y-118600000D01*
X171051000Y-97575000D01*
X171068313Y-97527434D01*
X171112150Y-97502124D01*
X171125000Y-97501000D01*
X196926000Y-97501000D01*
X196973566Y-97518313D01*
G37*
%TD.AperFunction*%
%TA.AperFunction,Conductor*%
G36*
X191833036Y-102319813D02*
G01*
X191837796Y-102324174D01*
X191874021Y-102360399D01*
X191895155Y-102405721D01*
X191924398Y-102412823D01*
X191935719Y-102422097D01*
X192574753Y-103061131D01*
X192580339Y-103067389D01*
X192583838Y-103071787D01*
X192587446Y-103079301D01*
X192611591Y-103098610D01*
X192617691Y-103104069D01*
X192622955Y-103109333D01*
X192626466Y-103111540D01*
X192626469Y-103111542D01*
X192628948Y-103113100D01*
X192635790Y-103117962D01*
X192653090Y-103131798D01*
X192653091Y-103131799D01*
X192659599Y-103137003D01*
X192667722Y-103138871D01*
X192670933Y-103140423D01*
X192674292Y-103141599D01*
X192681349Y-103146035D01*
X192702760Y-103148456D01*
X192711648Y-103149461D01*
X192719912Y-103150873D01*
X192722908Y-103151562D01*
X192722911Y-103151562D01*
X192726989Y-103152500D01*
X192734360Y-103152500D01*
X192742672Y-103152968D01*
X192773153Y-103156414D01*
X192781019Y-103153667D01*
X192787313Y-103152961D01*
X192795562Y-103152500D01*
X193224873Y-103152500D01*
X193272439Y-103169813D01*
X193297158Y-103212626D01*
X193297500Y-103212558D01*
X193297820Y-103214166D01*
X193303169Y-103241055D01*
X193304898Y-103249748D01*
X193321612Y-103274763D01*
X193333643Y-103323930D01*
X193321612Y-103356986D01*
X193315652Y-103365906D01*
X193310182Y-103379110D01*
X193300710Y-103426732D01*
X193300000Y-103433942D01*
X193300000Y-103786952D01*
X193303638Y-103796948D01*
X193308925Y-103800000D01*
X194326000Y-103800000D01*
X194373566Y-103817313D01*
X194398876Y-103861150D01*
X194400000Y-103874000D01*
X194400000Y-103926000D01*
X194382687Y-103973566D01*
X194338850Y-103998876D01*
X194326000Y-104000000D01*
X193313048Y-104000000D01*
X193303052Y-104003638D01*
X193300000Y-104008925D01*
X193300000Y-104366058D01*
X193300711Y-104373273D01*
X193303719Y-104388399D01*
X193296018Y-104438429D01*
X193283467Y-104455160D01*
X193276759Y-104461868D01*
X193240652Y-104515906D01*
X193235182Y-104529110D01*
X193225710Y-104576732D01*
X193225000Y-104583942D01*
X193225000Y-104736952D01*
X193228638Y-104746948D01*
X193233925Y-104750000D01*
X193576000Y-104750000D01*
X193623566Y-104767313D01*
X193648876Y-104811150D01*
X193650000Y-104824000D01*
X193650000Y-104876000D01*
X193632687Y-104923566D01*
X193588850Y-104948876D01*
X193576000Y-104950000D01*
X193238048Y-104950000D01*
X193228052Y-104953638D01*
X193225000Y-104958925D01*
X193225000Y-105116058D01*
X193225710Y-105123268D01*
X193235182Y-105170890D01*
X193240652Y-105184094D01*
X193276759Y-105238132D01*
X193286868Y-105248241D01*
X193340906Y-105284348D01*
X193354111Y-105289818D01*
X193399882Y-105298922D01*
X193443156Y-105325182D01*
X193459427Y-105373114D01*
X193441081Y-105420292D01*
X193396702Y-105444639D01*
X193385445Y-105445500D01*
X193136069Y-105445500D01*
X193088503Y-105428187D01*
X193083743Y-105423826D01*
X192876174Y-105216256D01*
X192854782Y-105170379D01*
X192854500Y-105163930D01*
X192854500Y-104632354D01*
X192855922Y-104617918D01*
X192858064Y-104607149D01*
X192859486Y-104600000D01*
X192851583Y-104560266D01*
X192839734Y-104500699D01*
X192783484Y-104416516D01*
X192768293Y-104406366D01*
X192757082Y-104397165D01*
X191878675Y-103518758D01*
X191857283Y-103472882D01*
X191867012Y-103429265D01*
X191944544Y-103295782D01*
X191946703Y-103292065D01*
X191995877Y-103129706D01*
X191997323Y-103106400D01*
X192006115Y-102964684D01*
X192006115Y-102964681D01*
X192006381Y-102960390D01*
X191977652Y-102793198D01*
X191911232Y-102637100D01*
X191896382Y-102616920D01*
X191823793Y-102518284D01*
X191813082Y-102481775D01*
X191790421Y-102479792D01*
X191773784Y-102469121D01*
X191737350Y-102438168D01*
X191731144Y-102432896D01*
X191706102Y-102388905D01*
X191715196Y-102339110D01*
X191754170Y-102306810D01*
X191779055Y-102302500D01*
X191785470Y-102302500D01*
X191833036Y-102319813D01*
G37*
%TD.AperFunction*%
%TA.AperFunction,Conductor*%
G36*
X183569718Y-116408633D02*
G01*
X183595028Y-116452470D01*
X183596152Y-116465320D01*
X183596152Y-116517320D01*
X183578839Y-116564886D01*
X183535002Y-116590196D01*
X183522152Y-116591320D01*
X183059275Y-116591320D01*
X183050802Y-116594404D01*
X183025492Y-116598867D01*
X182053314Y-116598867D01*
X182046887Y-116600000D01*
X181474000Y-116600000D01*
X181426434Y-116582687D01*
X181401124Y-116538850D01*
X181400000Y-116526000D01*
X181400000Y-116474000D01*
X181417313Y-116426434D01*
X181461150Y-116401124D01*
X181474000Y-116400000D01*
X181942913Y-116400000D01*
X181949340Y-116398867D01*
X182933104Y-116398867D01*
X182941577Y-116395783D01*
X182966887Y-116391320D01*
X183522152Y-116391320D01*
X183569718Y-116408633D01*
G37*
%TD.AperFunction*%
%TD*%
M02*
