%TF.GenerationSoftware,KiCad,Pcbnew,(6.0.4)*%
%TF.CreationDate,2023-01-18T18:35:58+00:00*%
%TF.ProjectId,PrettySmallRobot,50726574-7479-4536-9d61-6c6c526f626f,rev?*%
%TF.SameCoordinates,Original*%
%TF.FileFunction,Soldermask,Bot*%
%TF.FilePolarity,Negative*%
%FSLAX46Y46*%
G04 Gerber Fmt 4.6, Leading zero omitted, Abs format (unit mm)*
G04 Created by KiCad (PCBNEW (6.0.4)) date 2023-01-18 18:35:58*
%MOMM*%
%LPD*%
G01*
G04 APERTURE LIST*
G04 Aperture macros list*
%AMRoundRect*
0 Rectangle with rounded corners*
0 $1 Rounding radius*
0 $2 $3 $4 $5 $6 $7 $8 $9 X,Y pos of 4 corners*
0 Add a 4 corners polygon primitive as box body*
4,1,4,$2,$3,$4,$5,$6,$7,$8,$9,$2,$3,0*
0 Add four circle primitives for the rounded corners*
1,1,$1+$1,$2,$3*
1,1,$1+$1,$4,$5*
1,1,$1+$1,$6,$7*
1,1,$1+$1,$8,$9*
0 Add four rect primitives between the rounded corners*
20,1,$1+$1,$2,$3,$4,$5,0*
20,1,$1+$1,$4,$5,$6,$7,0*
20,1,$1+$1,$6,$7,$8,$9,0*
20,1,$1+$1,$8,$9,$2,$3,0*%
G04 Aperture macros list end*
%ADD10RoundRect,0.150000X0.512500X0.150000X-0.512500X0.150000X-0.512500X-0.150000X0.512500X-0.150000X0*%
%ADD11C,3.800000*%
%ADD12O,0.900000X1.700000*%
%ADD13O,0.900000X2.000000*%
%ADD14C,0.600000*%
%ADD15RoundRect,0.140000X0.170000X-0.140000X0.170000X0.140000X-0.170000X0.140000X-0.170000X-0.140000X0*%
%ADD16R,0.450000X0.600000*%
%ADD17RoundRect,0.140000X0.140000X0.170000X-0.140000X0.170000X-0.140000X-0.170000X0.140000X-0.170000X0*%
%ADD18RoundRect,0.150000X-0.150000X0.512500X-0.150000X-0.512500X0.150000X-0.512500X0.150000X0.512500X0*%
%ADD19RoundRect,0.140000X-0.170000X0.140000X-0.170000X-0.140000X0.170000X-0.140000X0.170000X0.140000X0*%
%ADD20RoundRect,0.135000X-0.185000X0.135000X-0.185000X-0.135000X0.185000X-0.135000X0.185000X0.135000X0*%
%ADD21RoundRect,0.250000X-0.250000X-0.750000X0.250000X-0.750000X0.250000X0.750000X-0.250000X0.750000X0*%
%ADD22RoundRect,0.250000X0.250000X0.750000X-0.250000X0.750000X-0.250000X-0.750000X0.250000X-0.750000X0*%
%ADD23RoundRect,0.147500X-0.147500X-0.172500X0.147500X-0.172500X0.147500X0.172500X-0.147500X0.172500X0*%
%ADD24RoundRect,0.135000X0.135000X0.185000X-0.135000X0.185000X-0.135000X-0.185000X0.135000X-0.185000X0*%
%ADD25RoundRect,0.225000X-0.250000X0.225000X-0.250000X-0.225000X0.250000X-0.225000X0.250000X0.225000X0*%
G04 APERTURE END LIST*
D10*
%TO.C,U3*%
X139857500Y-106520000D03*
X139857500Y-107470000D03*
X139857500Y-108420000D03*
X137582500Y-108420000D03*
X137582500Y-106520000D03*
%TD*%
D11*
%TO.C,H2*%
X125050000Y-119200000D03*
%TD*%
%TO.C,H1*%
X146150000Y-98700000D03*
%TD*%
D12*
%TO.C,J1*%
X143250000Y-119350000D03*
X134600000Y-119350000D03*
D13*
X143250000Y-115180000D03*
X134600000Y-115180000D03*
D14*
X136035000Y-115670000D03*
X141815000Y-115670000D03*
%TD*%
D15*
%TO.C,C20*%
X138300000Y-104100000D03*
X138300000Y-103140000D03*
%TD*%
D16*
%TO.C,D3*%
X135600000Y-109950000D03*
X135600000Y-107850000D03*
%TD*%
D17*
%TO.C,C22*%
X131000000Y-114400000D03*
X130040000Y-114400000D03*
%TD*%
D15*
%TO.C,C23*%
X128650000Y-117630000D03*
X128650000Y-116670000D03*
%TD*%
D18*
%TO.C,U6*%
X129950000Y-116062500D03*
X130900000Y-116062500D03*
X131850000Y-116062500D03*
X131850000Y-118337500D03*
X129950000Y-118337500D03*
%TD*%
D17*
%TO.C,C11*%
X142660000Y-108600000D03*
X141700000Y-108600000D03*
%TD*%
D19*
%TO.C,C21*%
X137160000Y-109620000D03*
X137160000Y-110580000D03*
%TD*%
D20*
%TO.C,R7*%
X138500000Y-111900000D03*
X138500000Y-112920000D03*
%TD*%
D19*
%TO.C,C10*%
X137650000Y-111900000D03*
X137650000Y-112860000D03*
%TD*%
D21*
%TO.C,J3*%
X134100000Y-97900000D03*
%TD*%
D19*
%TO.C,C9*%
X140750000Y-111720000D03*
X140750000Y-112680000D03*
%TD*%
D15*
%TO.C,C19*%
X140320000Y-104060000D03*
X140320000Y-103100000D03*
%TD*%
D19*
%TO.C,C5*%
X129400000Y-107320000D03*
X129400000Y-108280000D03*
%TD*%
D22*
%TO.C,J5*%
X128400000Y-97900000D03*
%TD*%
D21*
%TO.C,J4*%
X132500000Y-97900000D03*
%TD*%
D19*
%TO.C,C8*%
X141700000Y-102400000D03*
X141700000Y-103360000D03*
%TD*%
%TO.C,C4*%
X130400000Y-107320000D03*
X130400000Y-108280000D03*
%TD*%
D22*
%TO.C,J7*%
X143000000Y-97900000D03*
%TD*%
D23*
%TO.C,L1*%
X133000000Y-106000000D03*
X133970000Y-106000000D03*
%TD*%
D22*
%TO.C,J6*%
X141500000Y-97900000D03*
%TD*%
D24*
%TO.C,R6*%
X139310000Y-105250000D03*
X138290000Y-105250000D03*
%TD*%
D17*
%TO.C,C16*%
X142660000Y-107600000D03*
X141700000Y-107600000D03*
%TD*%
D24*
%TO.C,R5*%
X142690000Y-106540000D03*
X141670000Y-106540000D03*
%TD*%
D21*
%TO.C,J2*%
X130000000Y-97900000D03*
%TD*%
D25*
%TO.C,C1*%
X131700000Y-106975000D03*
X131700000Y-108525000D03*
%TD*%
D15*
%TO.C,C18*%
X139300000Y-104100000D03*
X139300000Y-103140000D03*
%TD*%
D17*
%TO.C,C12*%
X140070000Y-110270000D03*
X139110000Y-110270000D03*
%TD*%
M02*
