%TF.GenerationSoftware,KiCad,Pcbnew,(6.0.4)*%
%TF.CreationDate,2023-01-28T19:19:13+00:00*%
%TF.ProjectId,PrettySmallRobot,50726574-7479-4536-9d61-6c6c526f626f,rev?*%
%TF.SameCoordinates,Original*%
%TF.FileFunction,Legend,Top*%
%TF.FilePolarity,Positive*%
%FSLAX46Y46*%
G04 Gerber Fmt 4.6, Leading zero omitted, Abs format (unit mm)*
G04 Created by KiCad (PCBNEW (6.0.4)) date 2023-01-28 19:19:13*
%MOMM*%
%LPD*%
G01*
G04 APERTURE LIST*
%ADD10C,0.150000*%
%ADD11C,0.100000*%
%ADD12C,0.127000*%
%ADD13C,0.200000*%
%ADD14C,0.120000*%
G04 APERTURE END LIST*
D10*
X191414285Y-113242857D02*
X191328571Y-113214285D01*
X191300000Y-113185714D01*
X191271428Y-113128571D01*
X191271428Y-113042857D01*
X191300000Y-112985714D01*
X191328571Y-112957142D01*
X191385714Y-112928571D01*
X191614285Y-112928571D01*
X191614285Y-113528571D01*
X191414285Y-113528571D01*
X191357142Y-113500000D01*
X191328571Y-113471428D01*
X191300000Y-113414285D01*
X191300000Y-113357142D01*
X191328571Y-113300000D01*
X191357142Y-113271428D01*
X191414285Y-113242857D01*
X191614285Y-113242857D01*
X190900000Y-113528571D02*
X190785714Y-113528571D01*
X190728571Y-113500000D01*
X190671428Y-113442857D01*
X190642857Y-113328571D01*
X190642857Y-113128571D01*
X190671428Y-113014285D01*
X190728571Y-112957142D01*
X190785714Y-112928571D01*
X190900000Y-112928571D01*
X190957142Y-112957142D01*
X191014285Y-113014285D01*
X191042857Y-113128571D01*
X191042857Y-113328571D01*
X191014285Y-113442857D01*
X190957142Y-113500000D01*
X190900000Y-113528571D01*
X190271428Y-113528571D02*
X190157142Y-113528571D01*
X190100000Y-113500000D01*
X190042857Y-113442857D01*
X190014285Y-113328571D01*
X190014285Y-113128571D01*
X190042857Y-113014285D01*
X190100000Y-112957142D01*
X190157142Y-112928571D01*
X190271428Y-112928571D01*
X190328571Y-112957142D01*
X190385714Y-113014285D01*
X190414285Y-113128571D01*
X190414285Y-113328571D01*
X190385714Y-113442857D01*
X190328571Y-113500000D01*
X190271428Y-113528571D01*
X189842857Y-113528571D02*
X189500000Y-113528571D01*
X189671428Y-112928571D02*
X189671428Y-113528571D01*
X194828571Y-112928571D02*
X195028571Y-113214285D01*
X195171428Y-112928571D02*
X195171428Y-113528571D01*
X194942857Y-113528571D01*
X194885714Y-113500000D01*
X194857142Y-113471428D01*
X194828571Y-113414285D01*
X194828571Y-113328571D01*
X194857142Y-113271428D01*
X194885714Y-113242857D01*
X194942857Y-113214285D01*
X195171428Y-113214285D01*
X194600000Y-112957142D02*
X194514285Y-112928571D01*
X194371428Y-112928571D01*
X194314285Y-112957142D01*
X194285714Y-112985714D01*
X194257142Y-113042857D01*
X194257142Y-113100000D01*
X194285714Y-113157142D01*
X194314285Y-113185714D01*
X194371428Y-113214285D01*
X194485714Y-113242857D01*
X194542857Y-113271428D01*
X194571428Y-113300000D01*
X194600000Y-113357142D01*
X194600000Y-113414285D01*
X194571428Y-113471428D01*
X194542857Y-113500000D01*
X194485714Y-113528571D01*
X194342857Y-113528571D01*
X194257142Y-113500000D01*
X194085714Y-113528571D02*
X193742857Y-113528571D01*
X193914285Y-112928571D02*
X193914285Y-113528571D01*
X179119047Y-102271428D02*
X179880952Y-102271428D01*
X179500000Y-102652380D02*
X179500000Y-101890476D01*
X185100000Y-99400000D02*
X185100000Y-100000000D01*
X180100000Y-99300000D02*
X180100000Y-100000000D01*
X171690476Y-124952380D02*
X171690476Y-123952380D01*
X172023809Y-124666666D01*
X172357142Y-123952380D01*
X172357142Y-124952380D01*
X172976190Y-124952380D02*
X172880952Y-124904761D01*
X172833333Y-124857142D01*
X172785714Y-124761904D01*
X172785714Y-124476190D01*
X172833333Y-124380952D01*
X172880952Y-124333333D01*
X172976190Y-124285714D01*
X173119047Y-124285714D01*
X173214285Y-124333333D01*
X173261904Y-124380952D01*
X173309523Y-124476190D01*
X173309523Y-124761904D01*
X173261904Y-124857142D01*
X173214285Y-124904761D01*
X173119047Y-124952380D01*
X172976190Y-124952380D01*
X173595238Y-124285714D02*
X173976190Y-124285714D01*
X173738095Y-123952380D02*
X173738095Y-124809523D01*
X173785714Y-124904761D01*
X173880952Y-124952380D01*
X173976190Y-124952380D01*
X174452380Y-124952380D02*
X174357142Y-124904761D01*
X174309523Y-124857142D01*
X174261904Y-124761904D01*
X174261904Y-124476190D01*
X174309523Y-124380952D01*
X174357142Y-124333333D01*
X174452380Y-124285714D01*
X174595238Y-124285714D01*
X174690476Y-124333333D01*
X174738095Y-124380952D01*
X174785714Y-124476190D01*
X174785714Y-124761904D01*
X174738095Y-124857142D01*
X174690476Y-124904761D01*
X174595238Y-124952380D01*
X174452380Y-124952380D01*
X175214285Y-124952380D02*
X175214285Y-124285714D01*
X175214285Y-124476190D02*
X175261904Y-124380952D01*
X175309523Y-124333333D01*
X175404761Y-124285714D01*
X175500000Y-124285714D01*
X175785714Y-124047619D02*
X175833333Y-124000000D01*
X175928571Y-123952380D01*
X176166666Y-123952380D01*
X176261904Y-124000000D01*
X176309523Y-124047619D01*
X176357142Y-124142857D01*
X176357142Y-124238095D01*
X176309523Y-124380952D01*
X175738095Y-124952380D01*
X176357142Y-124952380D01*
X189190476Y-100452380D02*
X189190476Y-99452380D01*
X189523809Y-100166666D01*
X189857142Y-99452380D01*
X189857142Y-100452380D01*
X190476190Y-100452380D02*
X190380952Y-100404761D01*
X190333333Y-100357142D01*
X190285714Y-100261904D01*
X190285714Y-99976190D01*
X190333333Y-99880952D01*
X190380952Y-99833333D01*
X190476190Y-99785714D01*
X190619047Y-99785714D01*
X190714285Y-99833333D01*
X190761904Y-99880952D01*
X190809523Y-99976190D01*
X190809523Y-100261904D01*
X190761904Y-100357142D01*
X190714285Y-100404761D01*
X190619047Y-100452380D01*
X190476190Y-100452380D01*
X191095238Y-99785714D02*
X191476190Y-99785714D01*
X191238095Y-99452380D02*
X191238095Y-100309523D01*
X191285714Y-100404761D01*
X191380952Y-100452380D01*
X191476190Y-100452380D01*
X191952380Y-100452380D02*
X191857142Y-100404761D01*
X191809523Y-100357142D01*
X191761904Y-100261904D01*
X191761904Y-99976190D01*
X191809523Y-99880952D01*
X191857142Y-99833333D01*
X191952380Y-99785714D01*
X192095238Y-99785714D01*
X192190476Y-99833333D01*
X192238095Y-99880952D01*
X192285714Y-99976190D01*
X192285714Y-100261904D01*
X192238095Y-100357142D01*
X192190476Y-100404761D01*
X192095238Y-100452380D01*
X191952380Y-100452380D01*
X192714285Y-100452380D02*
X192714285Y-99785714D01*
X192714285Y-99976190D02*
X192761904Y-99880952D01*
X192809523Y-99833333D01*
X192904761Y-99785714D01*
X193000000Y-99785714D01*
X193857142Y-100452380D02*
X193285714Y-100452380D01*
X193571428Y-100452380D02*
X193571428Y-99452380D01*
X193476190Y-99595238D01*
X193380952Y-99690476D01*
X193285714Y-99738095D01*
X172047619Y-99928571D02*
X172190476Y-99976190D01*
X172238095Y-100023809D01*
X172285714Y-100119047D01*
X172285714Y-100261904D01*
X172238095Y-100357142D01*
X172190476Y-100404761D01*
X172095238Y-100452380D01*
X171714285Y-100452380D01*
X171714285Y-99452380D01*
X172047619Y-99452380D01*
X172142857Y-99500000D01*
X172190476Y-99547619D01*
X172238095Y-99642857D01*
X172238095Y-99738095D01*
X172190476Y-99833333D01*
X172142857Y-99880952D01*
X172047619Y-99928571D01*
X171714285Y-99928571D01*
X173142857Y-100452380D02*
X173142857Y-99928571D01*
X173095238Y-99833333D01*
X173000000Y-99785714D01*
X172809523Y-99785714D01*
X172714285Y-99833333D01*
X173142857Y-100404761D02*
X173047619Y-100452380D01*
X172809523Y-100452380D01*
X172714285Y-100404761D01*
X172666666Y-100309523D01*
X172666666Y-100214285D01*
X172714285Y-100119047D01*
X172809523Y-100071428D01*
X173047619Y-100071428D01*
X173142857Y-100023809D01*
X173476190Y-99785714D02*
X173857142Y-99785714D01*
X173619047Y-99452380D02*
X173619047Y-100309523D01*
X173666666Y-100404761D01*
X173761904Y-100452380D01*
X173857142Y-100452380D01*
X174047619Y-99785714D02*
X174428571Y-99785714D01*
X174190476Y-99452380D02*
X174190476Y-100309523D01*
X174238095Y-100404761D01*
X174333333Y-100452380D01*
X174428571Y-100452380D01*
D11*
G36*
X177658625Y-111896277D02*
G01*
X177663327Y-111893438D01*
X177697243Y-111853599D01*
X177772652Y-111763271D01*
X178003354Y-111484778D01*
X178129745Y-111332761D01*
X178239441Y-111202818D01*
X178320683Y-111108740D01*
X178346957Y-111079462D01*
X178361706Y-111064322D01*
X178365400Y-111061270D01*
X178369468Y-111058393D01*
X178374047Y-111055685D01*
X178379276Y-111053141D01*
X178385293Y-111050756D01*
X178392237Y-111048525D01*
X178400246Y-111046442D01*
X178409458Y-111044503D01*
X178420011Y-111042703D01*
X178432045Y-111041036D01*
X178445696Y-111039498D01*
X178461105Y-111038083D01*
X178478408Y-111036787D01*
X178497744Y-111035604D01*
X178543068Y-111033558D01*
X178598185Y-111031904D01*
X178664201Y-111030603D01*
X178742222Y-111029612D01*
X178833354Y-111028893D01*
X178938705Y-111028404D01*
X179059381Y-111028105D01*
X179351132Y-111027914D01*
X179831125Y-111029076D01*
X180126671Y-111033453D01*
X180219084Y-111037266D01*
X180281953Y-111042385D01*
X180320802Y-111048978D01*
X180341153Y-111057211D01*
X180346808Y-111062318D01*
X180355043Y-111071414D01*
X180365701Y-111084276D01*
X180378619Y-111100681D01*
X180410605Y-111143230D01*
X180449725Y-111197275D01*
X180494703Y-111261036D01*
X180544265Y-111332728D01*
X180597134Y-111410568D01*
X180652035Y-111492773D01*
X180921093Y-111899038D01*
X181193921Y-111899511D01*
X181324172Y-111899131D01*
X181375997Y-111899991D01*
X181419841Y-111902915D01*
X181438976Y-111905469D01*
X181456365Y-111908923D01*
X181472090Y-111913403D01*
X181486234Y-111919039D01*
X181498879Y-111925956D01*
X181510110Y-111934283D01*
X181520008Y-111944148D01*
X181528656Y-111955679D01*
X181536139Y-111969003D01*
X181542537Y-111984248D01*
X181547935Y-112001542D01*
X181552415Y-112021013D01*
X181556061Y-112042788D01*
X181558954Y-112066995D01*
X181562817Y-112123216D01*
X181564666Y-112190699D01*
X181565166Y-112270466D01*
X181564770Y-112470938D01*
X181564770Y-112962515D01*
X181506573Y-113012610D01*
X181497011Y-113020620D01*
X181487843Y-113027738D01*
X181483325Y-113030979D01*
X181478808Y-113034016D01*
X181474261Y-113036855D01*
X181469650Y-113039504D01*
X181464943Y-113041969D01*
X181460109Y-113044256D01*
X181455114Y-113046371D01*
X181449926Y-113048322D01*
X181444513Y-113050114D01*
X181438842Y-113051754D01*
X181432882Y-113053249D01*
X181426600Y-113054606D01*
X181419963Y-113055829D01*
X181412940Y-113056927D01*
X181405497Y-113057906D01*
X181397603Y-113058771D01*
X181380331Y-113060189D01*
X181360865Y-113061233D01*
X181338946Y-113061954D01*
X181314316Y-113062405D01*
X181286716Y-113062638D01*
X181255887Y-113062704D01*
X181063397Y-113062704D01*
X181039792Y-112936133D01*
X181033766Y-112907175D01*
X181026581Y-112878813D01*
X181018264Y-112851068D01*
X181008839Y-112823961D01*
X180998334Y-112797515D01*
X180986775Y-112771750D01*
X180974188Y-112746689D01*
X180960599Y-112722352D01*
X180946034Y-112698761D01*
X180930519Y-112675938D01*
X180914081Y-112653905D01*
X180896746Y-112632682D01*
X180878540Y-112612292D01*
X180859489Y-112592755D01*
X180839619Y-112574094D01*
X180818957Y-112556330D01*
X180797528Y-112539484D01*
X180775360Y-112523579D01*
X180752478Y-112508634D01*
X180728908Y-112494673D01*
X180704676Y-112481717D01*
X180679809Y-112469787D01*
X180654333Y-112458904D01*
X180628274Y-112449091D01*
X180601658Y-112440368D01*
X180574512Y-112432757D01*
X180546862Y-112426281D01*
X180518733Y-112420959D01*
X180490152Y-112416815D01*
X180461145Y-112413869D01*
X180431739Y-112412142D01*
X180401959Y-112411657D01*
X180372577Y-112412498D01*
X180343491Y-112414625D01*
X180314735Y-112418011D01*
X180286341Y-112422630D01*
X180258343Y-112428451D01*
X180230775Y-112435449D01*
X180203669Y-112443595D01*
X180177059Y-112452862D01*
X180150979Y-112463221D01*
X180125462Y-112474646D01*
X180100541Y-112487107D01*
X180076249Y-112500578D01*
X180052620Y-112515031D01*
X180029687Y-112530437D01*
X180007484Y-112546770D01*
X179986044Y-112564001D01*
X179965401Y-112582103D01*
X179945587Y-112601048D01*
X179926635Y-112620808D01*
X179908581Y-112641355D01*
X179891456Y-112662661D01*
X179875294Y-112684700D01*
X179860128Y-112707443D01*
X179845993Y-112730862D01*
X179832920Y-112754929D01*
X179820944Y-112779618D01*
X179810098Y-112804899D01*
X179800415Y-112830746D01*
X179791929Y-112857130D01*
X179784673Y-112884024D01*
X179778680Y-112911400D01*
X179773983Y-112939230D01*
X179757687Y-113052313D01*
X178994915Y-113058310D01*
X178232129Y-113064306D01*
X178232129Y-113002005D01*
X178231355Y-112985345D01*
X178229102Y-112966846D01*
X178225469Y-112946765D01*
X178220556Y-112925358D01*
X178214462Y-112902881D01*
X178207288Y-112879590D01*
X178199133Y-112855741D01*
X178190096Y-112831591D01*
X178180279Y-112807395D01*
X178169780Y-112783410D01*
X178158699Y-112759892D01*
X178147137Y-112737097D01*
X178135192Y-112715281D01*
X178122966Y-112694701D01*
X178110557Y-112675611D01*
X178098065Y-112658270D01*
X178085930Y-112643017D01*
X178073070Y-112628108D01*
X178045303Y-112599377D01*
X178015034Y-112572189D01*
X177982530Y-112546660D01*
X177948060Y-112522903D01*
X177911891Y-112501031D01*
X177874293Y-112481159D01*
X177835532Y-112463400D01*
X177795877Y-112447869D01*
X177755596Y-112434678D01*
X177714958Y-112423943D01*
X177674231Y-112415777D01*
X177633682Y-112410293D01*
X177593580Y-112407606D01*
X177554193Y-112407830D01*
X177534852Y-112409069D01*
X177515789Y-112411078D01*
X177488799Y-112415080D01*
X177462132Y-112420191D01*
X177435816Y-112426382D01*
X177409879Y-112433629D01*
X177384347Y-112441904D01*
X177359248Y-112451182D01*
X177334609Y-112461437D01*
X177310457Y-112472641D01*
X177263723Y-112497797D01*
X177219263Y-112526440D01*
X177177295Y-112558361D01*
X177138035Y-112593350D01*
X177101702Y-112631197D01*
X177068512Y-112671694D01*
X177038682Y-112714630D01*
X177025096Y-112736948D01*
X177012431Y-112759797D01*
X177000715Y-112783151D01*
X176989975Y-112806985D01*
X176980238Y-112831271D01*
X176971532Y-112855984D01*
X176963883Y-112881097D01*
X176957318Y-112906585D01*
X176951866Y-112932421D01*
X176947552Y-112958578D01*
X176942947Y-112989598D01*
X176940723Y-113002207D01*
X176938363Y-113013073D01*
X176935728Y-113022340D01*
X176934263Y-113026419D01*
X176932676Y-113030151D01*
X176930950Y-113033556D01*
X176929067Y-113036650D01*
X176927010Y-113039452D01*
X176924761Y-113041979D01*
X176922303Y-113044250D01*
X176919618Y-113046282D01*
X176916688Y-113048094D01*
X176913496Y-113049702D01*
X176910024Y-113051126D01*
X176906255Y-113052383D01*
X176902171Y-113053491D01*
X176897755Y-113054468D01*
X176887856Y-113056100D01*
X176876416Y-113057423D01*
X176848355Y-113059714D01*
X176836226Y-113060472D01*
X176824843Y-113060857D01*
X176814134Y-113060847D01*
X176804025Y-113060419D01*
X176794444Y-113059553D01*
X176785319Y-113058225D01*
X176776577Y-113056415D01*
X176768145Y-113054100D01*
X176759951Y-113051259D01*
X176751923Y-113047870D01*
X176743988Y-113043911D01*
X176736073Y-113039361D01*
X176728106Y-113034197D01*
X176720015Y-113028398D01*
X176711726Y-113021942D01*
X176703167Y-113014807D01*
X176703335Y-113013754D01*
X176643841Y-112962561D01*
X176643841Y-112546072D01*
X176644912Y-112315843D01*
X176646823Y-112240459D01*
X176650156Y-112185827D01*
X176652476Y-112164951D01*
X176655295Y-112147650D01*
X176658660Y-112133388D01*
X176662619Y-112121627D01*
X176667219Y-112111829D01*
X176672509Y-112103457D01*
X176685345Y-112088843D01*
X176688674Y-112085794D01*
X176692408Y-112082810D01*
X176696583Y-112079883D01*
X176701241Y-112077004D01*
X176706417Y-112074167D01*
X176712153Y-112071361D01*
X176718485Y-112068580D01*
X176725453Y-112065815D01*
X176741450Y-112060301D01*
X176760451Y-112054752D01*
X176782767Y-112049105D01*
X176808705Y-112043293D01*
X176838574Y-112037251D01*
X176872683Y-112030915D01*
X176911340Y-112024218D01*
X176954854Y-112017095D01*
X177003533Y-112009480D01*
X177057687Y-112001310D01*
X177183651Y-111983038D01*
X177362821Y-111955835D01*
X177512982Y-111929878D01*
X177572266Y-111918284D01*
X177618397Y-111908101D01*
X177648290Y-111900000D01*
X178042309Y-111900000D01*
X179300000Y-111900000D01*
X180188256Y-111896761D01*
X180458465Y-111893292D01*
X180557705Y-111889105D01*
X180557751Y-111889105D01*
X180556780Y-111886543D01*
X180553932Y-111881204D01*
X180542985Y-111862792D01*
X180525677Y-111835063D01*
X180502772Y-111799210D01*
X180443238Y-111707901D01*
X180370511Y-111598410D01*
X180183285Y-111318655D01*
X178527142Y-111318655D01*
X178322598Y-111562002D01*
X178167021Y-111747782D01*
X178080212Y-111852698D01*
X178042309Y-111900000D01*
X177648290Y-111900000D01*
X177649406Y-111899697D01*
X177658625Y-111896277D01*
G37*
X177658625Y-111896277D02*
X177663327Y-111893438D01*
X177697243Y-111853599D01*
X177772652Y-111763271D01*
X178003354Y-111484778D01*
X178129745Y-111332761D01*
X178239441Y-111202818D01*
X178320683Y-111108740D01*
X178346957Y-111079462D01*
X178361706Y-111064322D01*
X178365400Y-111061270D01*
X178369468Y-111058393D01*
X178374047Y-111055685D01*
X178379276Y-111053141D01*
X178385293Y-111050756D01*
X178392237Y-111048525D01*
X178400246Y-111046442D01*
X178409458Y-111044503D01*
X178420011Y-111042703D01*
X178432045Y-111041036D01*
X178445696Y-111039498D01*
X178461105Y-111038083D01*
X178478408Y-111036787D01*
X178497744Y-111035604D01*
X178543068Y-111033558D01*
X178598185Y-111031904D01*
X178664201Y-111030603D01*
X178742222Y-111029612D01*
X178833354Y-111028893D01*
X178938705Y-111028404D01*
X179059381Y-111028105D01*
X179351132Y-111027914D01*
X179831125Y-111029076D01*
X180126671Y-111033453D01*
X180219084Y-111037266D01*
X180281953Y-111042385D01*
X180320802Y-111048978D01*
X180341153Y-111057211D01*
X180346808Y-111062318D01*
X180355043Y-111071414D01*
X180365701Y-111084276D01*
X180378619Y-111100681D01*
X180410605Y-111143230D01*
X180449725Y-111197275D01*
X180494703Y-111261036D01*
X180544265Y-111332728D01*
X180597134Y-111410568D01*
X180652035Y-111492773D01*
X180921093Y-111899038D01*
X181193921Y-111899511D01*
X181324172Y-111899131D01*
X181375997Y-111899991D01*
X181419841Y-111902915D01*
X181438976Y-111905469D01*
X181456365Y-111908923D01*
X181472090Y-111913403D01*
X181486234Y-111919039D01*
X181498879Y-111925956D01*
X181510110Y-111934283D01*
X181520008Y-111944148D01*
X181528656Y-111955679D01*
X181536139Y-111969003D01*
X181542537Y-111984248D01*
X181547935Y-112001542D01*
X181552415Y-112021013D01*
X181556061Y-112042788D01*
X181558954Y-112066995D01*
X181562817Y-112123216D01*
X181564666Y-112190699D01*
X181565166Y-112270466D01*
X181564770Y-112470938D01*
X181564770Y-112962515D01*
X181506573Y-113012610D01*
X181497011Y-113020620D01*
X181487843Y-113027738D01*
X181483325Y-113030979D01*
X181478808Y-113034016D01*
X181474261Y-113036855D01*
X181469650Y-113039504D01*
X181464943Y-113041969D01*
X181460109Y-113044256D01*
X181455114Y-113046371D01*
X181449926Y-113048322D01*
X181444513Y-113050114D01*
X181438842Y-113051754D01*
X181432882Y-113053249D01*
X181426600Y-113054606D01*
X181419963Y-113055829D01*
X181412940Y-113056927D01*
X181405497Y-113057906D01*
X181397603Y-113058771D01*
X181380331Y-113060189D01*
X181360865Y-113061233D01*
X181338946Y-113061954D01*
X181314316Y-113062405D01*
X181286716Y-113062638D01*
X181255887Y-113062704D01*
X181063397Y-113062704D01*
X181039792Y-112936133D01*
X181033766Y-112907175D01*
X181026581Y-112878813D01*
X181018264Y-112851068D01*
X181008839Y-112823961D01*
X180998334Y-112797515D01*
X180986775Y-112771750D01*
X180974188Y-112746689D01*
X180960599Y-112722352D01*
X180946034Y-112698761D01*
X180930519Y-112675938D01*
X180914081Y-112653905D01*
X180896746Y-112632682D01*
X180878540Y-112612292D01*
X180859489Y-112592755D01*
X180839619Y-112574094D01*
X180818957Y-112556330D01*
X180797528Y-112539484D01*
X180775360Y-112523579D01*
X180752478Y-112508634D01*
X180728908Y-112494673D01*
X180704676Y-112481717D01*
X180679809Y-112469787D01*
X180654333Y-112458904D01*
X180628274Y-112449091D01*
X180601658Y-112440368D01*
X180574512Y-112432757D01*
X180546862Y-112426281D01*
X180518733Y-112420959D01*
X180490152Y-112416815D01*
X180461145Y-112413869D01*
X180431739Y-112412142D01*
X180401959Y-112411657D01*
X180372577Y-112412498D01*
X180343491Y-112414625D01*
X180314735Y-112418011D01*
X180286341Y-112422630D01*
X180258343Y-112428451D01*
X180230775Y-112435449D01*
X180203669Y-112443595D01*
X180177059Y-112452862D01*
X180150979Y-112463221D01*
X180125462Y-112474646D01*
X180100541Y-112487107D01*
X180076249Y-112500578D01*
X180052620Y-112515031D01*
X180029687Y-112530437D01*
X180007484Y-112546770D01*
X179986044Y-112564001D01*
X179965401Y-112582103D01*
X179945587Y-112601048D01*
X179926635Y-112620808D01*
X179908581Y-112641355D01*
X179891456Y-112662661D01*
X179875294Y-112684700D01*
X179860128Y-112707443D01*
X179845993Y-112730862D01*
X179832920Y-112754929D01*
X179820944Y-112779618D01*
X179810098Y-112804899D01*
X179800415Y-112830746D01*
X179791929Y-112857130D01*
X179784673Y-112884024D01*
X179778680Y-112911400D01*
X179773983Y-112939230D01*
X179757687Y-113052313D01*
X178994915Y-113058310D01*
X178232129Y-113064306D01*
X178232129Y-113002005D01*
X178231355Y-112985345D01*
X178229102Y-112966846D01*
X178225469Y-112946765D01*
X178220556Y-112925358D01*
X178214462Y-112902881D01*
X178207288Y-112879590D01*
X178199133Y-112855741D01*
X178190096Y-112831591D01*
X178180279Y-112807395D01*
X178169780Y-112783410D01*
X178158699Y-112759892D01*
X178147137Y-112737097D01*
X178135192Y-112715281D01*
X178122966Y-112694701D01*
X178110557Y-112675611D01*
X178098065Y-112658270D01*
X178085930Y-112643017D01*
X178073070Y-112628108D01*
X178045303Y-112599377D01*
X178015034Y-112572189D01*
X177982530Y-112546660D01*
X177948060Y-112522903D01*
X177911891Y-112501031D01*
X177874293Y-112481159D01*
X177835532Y-112463400D01*
X177795877Y-112447869D01*
X177755596Y-112434678D01*
X177714958Y-112423943D01*
X177674231Y-112415777D01*
X177633682Y-112410293D01*
X177593580Y-112407606D01*
X177554193Y-112407830D01*
X177534852Y-112409069D01*
X177515789Y-112411078D01*
X177488799Y-112415080D01*
X177462132Y-112420191D01*
X177435816Y-112426382D01*
X177409879Y-112433629D01*
X177384347Y-112441904D01*
X177359248Y-112451182D01*
X177334609Y-112461437D01*
X177310457Y-112472641D01*
X177263723Y-112497797D01*
X177219263Y-112526440D01*
X177177295Y-112558361D01*
X177138035Y-112593350D01*
X177101702Y-112631197D01*
X177068512Y-112671694D01*
X177038682Y-112714630D01*
X177025096Y-112736948D01*
X177012431Y-112759797D01*
X177000715Y-112783151D01*
X176989975Y-112806985D01*
X176980238Y-112831271D01*
X176971532Y-112855984D01*
X176963883Y-112881097D01*
X176957318Y-112906585D01*
X176951866Y-112932421D01*
X176947552Y-112958578D01*
X176942947Y-112989598D01*
X176940723Y-113002207D01*
X176938363Y-113013073D01*
X176935728Y-113022340D01*
X176934263Y-113026419D01*
X176932676Y-113030151D01*
X176930950Y-113033556D01*
X176929067Y-113036650D01*
X176927010Y-113039452D01*
X176924761Y-113041979D01*
X176922303Y-113044250D01*
X176919618Y-113046282D01*
X176916688Y-113048094D01*
X176913496Y-113049702D01*
X176910024Y-113051126D01*
X176906255Y-113052383D01*
X176902171Y-113053491D01*
X176897755Y-113054468D01*
X176887856Y-113056100D01*
X176876416Y-113057423D01*
X176848355Y-113059714D01*
X176836226Y-113060472D01*
X176824843Y-113060857D01*
X176814134Y-113060847D01*
X176804025Y-113060419D01*
X176794444Y-113059553D01*
X176785319Y-113058225D01*
X176776577Y-113056415D01*
X176768145Y-113054100D01*
X176759951Y-113051259D01*
X176751923Y-113047870D01*
X176743988Y-113043911D01*
X176736073Y-113039361D01*
X176728106Y-113034197D01*
X176720015Y-113028398D01*
X176711726Y-113021942D01*
X176703167Y-113014807D01*
X176703335Y-113013754D01*
X176643841Y-112962561D01*
X176643841Y-112546072D01*
X176644912Y-112315843D01*
X176646823Y-112240459D01*
X176650156Y-112185827D01*
X176652476Y-112164951D01*
X176655295Y-112147650D01*
X176658660Y-112133388D01*
X176662619Y-112121627D01*
X176667219Y-112111829D01*
X176672509Y-112103457D01*
X176685345Y-112088843D01*
X176688674Y-112085794D01*
X176692408Y-112082810D01*
X176696583Y-112079883D01*
X176701241Y-112077004D01*
X176706417Y-112074167D01*
X176712153Y-112071361D01*
X176718485Y-112068580D01*
X176725453Y-112065815D01*
X176741450Y-112060301D01*
X176760451Y-112054752D01*
X176782767Y-112049105D01*
X176808705Y-112043293D01*
X176838574Y-112037251D01*
X176872683Y-112030915D01*
X176911340Y-112024218D01*
X176954854Y-112017095D01*
X177003533Y-112009480D01*
X177057687Y-112001310D01*
X177183651Y-111983038D01*
X177362821Y-111955835D01*
X177512982Y-111929878D01*
X177572266Y-111918284D01*
X177618397Y-111908101D01*
X177648290Y-111900000D01*
X178042309Y-111900000D01*
X179300000Y-111900000D01*
X180188256Y-111896761D01*
X180458465Y-111893292D01*
X180557705Y-111889105D01*
X180557751Y-111889105D01*
X180556780Y-111886543D01*
X180553932Y-111881204D01*
X180542985Y-111862792D01*
X180525677Y-111835063D01*
X180502772Y-111799210D01*
X180443238Y-111707901D01*
X180370511Y-111598410D01*
X180183285Y-111318655D01*
X178527142Y-111318655D01*
X178322598Y-111562002D01*
X178167021Y-111747782D01*
X178080212Y-111852698D01*
X178042309Y-111900000D01*
X177648290Y-111900000D01*
X177649406Y-111899697D01*
X177658625Y-111896277D01*
G36*
X177084587Y-113001454D02*
G01*
X177088135Y-112974727D01*
X177093178Y-112948092D01*
X177099740Y-112921605D01*
X177107843Y-112895323D01*
X177117508Y-112869306D01*
X177128757Y-112843608D01*
X177141613Y-112818289D01*
X177158196Y-112789789D01*
X177176040Y-112762828D01*
X177195076Y-112737413D01*
X177215236Y-112713553D01*
X177236451Y-112691258D01*
X177258651Y-112670536D01*
X177281769Y-112651397D01*
X177305734Y-112633849D01*
X177330478Y-112617900D01*
X177355932Y-112603561D01*
X177382028Y-112590840D01*
X177408695Y-112579745D01*
X177435866Y-112570286D01*
X177463471Y-112562471D01*
X177491442Y-112556310D01*
X177519709Y-112551811D01*
X177548204Y-112548984D01*
X177576857Y-112547836D01*
X177605600Y-112548378D01*
X177634364Y-112550618D01*
X177663080Y-112554564D01*
X177691679Y-112560226D01*
X177720092Y-112567613D01*
X177748250Y-112576734D01*
X177776084Y-112587596D01*
X177803525Y-112600210D01*
X177830505Y-112614585D01*
X177856954Y-112630728D01*
X177882804Y-112648650D01*
X177907985Y-112668358D01*
X177932429Y-112689862D01*
X177956067Y-112713171D01*
X177972451Y-112731020D01*
X177987674Y-112749188D01*
X178001750Y-112767711D01*
X178014692Y-112786623D01*
X178026513Y-112805961D01*
X178037228Y-112825761D01*
X178046849Y-112846056D01*
X178055390Y-112866884D01*
X178062864Y-112888280D01*
X178069284Y-112910278D01*
X178074665Y-112932915D01*
X178079019Y-112956226D01*
X178082360Y-112980247D01*
X178084701Y-113005013D01*
X178086056Y-113030559D01*
X178086438Y-113056921D01*
X178085773Y-113084113D01*
X178083974Y-113110531D01*
X178081023Y-113136214D01*
X178076905Y-113161198D01*
X178071603Y-113185521D01*
X178065100Y-113209223D01*
X178057379Y-113232339D01*
X178048424Y-113254910D01*
X178038219Y-113276971D01*
X178026746Y-113298562D01*
X178013990Y-113319720D01*
X177999933Y-113340482D01*
X177984560Y-113360888D01*
X177967852Y-113380974D01*
X177949795Y-113400779D01*
X177930371Y-113420340D01*
X177904592Y-113443502D01*
X177877264Y-113464656D01*
X177848540Y-113483769D01*
X177818571Y-113500807D01*
X177787509Y-113515738D01*
X177755507Y-113528529D01*
X177722716Y-113539146D01*
X177689290Y-113547558D01*
X177655379Y-113553731D01*
X177621135Y-113557632D01*
X177586712Y-113559228D01*
X177552261Y-113558486D01*
X177517934Y-113555374D01*
X177483883Y-113549859D01*
X177450260Y-113541906D01*
X177417218Y-113531485D01*
X177390573Y-113521120D01*
X177364870Y-113509412D01*
X177340130Y-113496419D01*
X177316377Y-113482197D01*
X177293632Y-113466806D01*
X177271917Y-113450300D01*
X177251255Y-113432739D01*
X177231667Y-113414179D01*
X177213176Y-113394678D01*
X177195804Y-113374293D01*
X177179574Y-113353082D01*
X177164506Y-113331101D01*
X177150625Y-113308408D01*
X177137951Y-113285061D01*
X177126506Y-113261117D01*
X177116314Y-113236633D01*
X177107397Y-113211667D01*
X177099775Y-113186276D01*
X177093472Y-113160517D01*
X177088510Y-113134448D01*
X177084911Y-113108125D01*
X177082697Y-113081608D01*
X177081890Y-113054951D01*
X177081950Y-113052359D01*
X177380887Y-113052359D01*
X177381213Y-113069722D01*
X177382208Y-113086103D01*
X177383896Y-113101548D01*
X177386302Y-113116103D01*
X177389449Y-113129812D01*
X177393363Y-113142723D01*
X177398067Y-113154881D01*
X177403586Y-113166332D01*
X177409944Y-113177122D01*
X177417166Y-113187297D01*
X177425275Y-113196903D01*
X177434297Y-113205985D01*
X177444255Y-113214590D01*
X177455174Y-113222763D01*
X177467078Y-113230550D01*
X177479992Y-113237997D01*
X177493449Y-113244897D01*
X177506758Y-113250896D01*
X177519939Y-113255994D01*
X177533014Y-113260190D01*
X177546004Y-113263484D01*
X177558929Y-113265874D01*
X177571811Y-113267361D01*
X177584671Y-113267944D01*
X177597530Y-113267623D01*
X177610409Y-113266396D01*
X177623329Y-113264264D01*
X177636312Y-113261225D01*
X177649377Y-113257280D01*
X177662546Y-113252427D01*
X177675841Y-113246666D01*
X177689282Y-113239996D01*
X177689373Y-113240820D01*
X177699742Y-113235036D01*
X177709600Y-113228690D01*
X177718942Y-113221811D01*
X177727765Y-113214428D01*
X177736063Y-113206569D01*
X177743831Y-113198264D01*
X177751064Y-113189542D01*
X177757758Y-113180432D01*
X177763907Y-113170962D01*
X177769506Y-113161161D01*
X177774551Y-113151059D01*
X177779036Y-113140685D01*
X177782957Y-113130067D01*
X177786309Y-113119234D01*
X177789087Y-113108215D01*
X177791285Y-113097040D01*
X177792899Y-113085737D01*
X177793925Y-113074336D01*
X177794356Y-113062864D01*
X177794189Y-113051352D01*
X177793418Y-113039827D01*
X177792038Y-113028320D01*
X177790045Y-113016859D01*
X177787433Y-113005472D01*
X177784198Y-112994190D01*
X177780334Y-112983040D01*
X177775837Y-112972052D01*
X177770701Y-112961255D01*
X177764923Y-112950678D01*
X177758497Y-112940349D01*
X177751417Y-112930298D01*
X177743680Y-112920553D01*
X177737460Y-112913393D01*
X177731139Y-112906576D01*
X177724717Y-112900103D01*
X177718195Y-112893972D01*
X177711574Y-112888186D01*
X177704856Y-112882743D01*
X177698040Y-112877644D01*
X177691129Y-112872889D01*
X177684122Y-112868478D01*
X177677022Y-112864412D01*
X177669828Y-112860691D01*
X177662542Y-112857315D01*
X177655165Y-112854285D01*
X177647697Y-112851599D01*
X177640140Y-112849259D01*
X177632494Y-112847265D01*
X177624762Y-112845617D01*
X177616942Y-112844316D01*
X177609037Y-112843360D01*
X177601047Y-112842751D01*
X177592974Y-112842489D01*
X177584818Y-112842574D01*
X177576580Y-112843007D01*
X177568261Y-112843786D01*
X177559862Y-112844914D01*
X177551384Y-112846389D01*
X177542829Y-112848212D01*
X177534196Y-112850383D01*
X177525487Y-112852903D01*
X177516703Y-112855771D01*
X177507845Y-112858988D01*
X177498913Y-112862555D01*
X177483333Y-112869505D01*
X177469006Y-112876855D01*
X177462303Y-112880697D01*
X177455900Y-112884659D01*
X177449793Y-112888748D01*
X177443979Y-112892971D01*
X177438452Y-112897335D01*
X177433209Y-112901847D01*
X177428244Y-112906514D01*
X177423555Y-112911342D01*
X177419137Y-112916338D01*
X177414984Y-112921510D01*
X177411094Y-112926863D01*
X177407462Y-112932406D01*
X177404083Y-112938144D01*
X177400953Y-112944084D01*
X177398067Y-112950234D01*
X177395423Y-112956601D01*
X177393014Y-112963190D01*
X177390838Y-112970010D01*
X177388889Y-112977066D01*
X177387164Y-112984366D01*
X177385658Y-112991916D01*
X177384366Y-112999724D01*
X177383285Y-113007796D01*
X177382410Y-113016139D01*
X177381262Y-113033666D01*
X177380887Y-113052359D01*
X177081950Y-113052359D01*
X177082512Y-113028214D01*
X177084587Y-113001454D01*
G37*
X177084587Y-113001454D02*
X177088135Y-112974727D01*
X177093178Y-112948092D01*
X177099740Y-112921605D01*
X177107843Y-112895323D01*
X177117508Y-112869306D01*
X177128757Y-112843608D01*
X177141613Y-112818289D01*
X177158196Y-112789789D01*
X177176040Y-112762828D01*
X177195076Y-112737413D01*
X177215236Y-112713553D01*
X177236451Y-112691258D01*
X177258651Y-112670536D01*
X177281769Y-112651397D01*
X177305734Y-112633849D01*
X177330478Y-112617900D01*
X177355932Y-112603561D01*
X177382028Y-112590840D01*
X177408695Y-112579745D01*
X177435866Y-112570286D01*
X177463471Y-112562471D01*
X177491442Y-112556310D01*
X177519709Y-112551811D01*
X177548204Y-112548984D01*
X177576857Y-112547836D01*
X177605600Y-112548378D01*
X177634364Y-112550618D01*
X177663080Y-112554564D01*
X177691679Y-112560226D01*
X177720092Y-112567613D01*
X177748250Y-112576734D01*
X177776084Y-112587596D01*
X177803525Y-112600210D01*
X177830505Y-112614585D01*
X177856954Y-112630728D01*
X177882804Y-112648650D01*
X177907985Y-112668358D01*
X177932429Y-112689862D01*
X177956067Y-112713171D01*
X177972451Y-112731020D01*
X177987674Y-112749188D01*
X178001750Y-112767711D01*
X178014692Y-112786623D01*
X178026513Y-112805961D01*
X178037228Y-112825761D01*
X178046849Y-112846056D01*
X178055390Y-112866884D01*
X178062864Y-112888280D01*
X178069284Y-112910278D01*
X178074665Y-112932915D01*
X178079019Y-112956226D01*
X178082360Y-112980247D01*
X178084701Y-113005013D01*
X178086056Y-113030559D01*
X178086438Y-113056921D01*
X178085773Y-113084113D01*
X178083974Y-113110531D01*
X178081023Y-113136214D01*
X178076905Y-113161198D01*
X178071603Y-113185521D01*
X178065100Y-113209223D01*
X178057379Y-113232339D01*
X178048424Y-113254910D01*
X178038219Y-113276971D01*
X178026746Y-113298562D01*
X178013990Y-113319720D01*
X177999933Y-113340482D01*
X177984560Y-113360888D01*
X177967852Y-113380974D01*
X177949795Y-113400779D01*
X177930371Y-113420340D01*
X177904592Y-113443502D01*
X177877264Y-113464656D01*
X177848540Y-113483769D01*
X177818571Y-113500807D01*
X177787509Y-113515738D01*
X177755507Y-113528529D01*
X177722716Y-113539146D01*
X177689290Y-113547558D01*
X177655379Y-113553731D01*
X177621135Y-113557632D01*
X177586712Y-113559228D01*
X177552261Y-113558486D01*
X177517934Y-113555374D01*
X177483883Y-113549859D01*
X177450260Y-113541906D01*
X177417218Y-113531485D01*
X177390573Y-113521120D01*
X177364870Y-113509412D01*
X177340130Y-113496419D01*
X177316377Y-113482197D01*
X177293632Y-113466806D01*
X177271917Y-113450300D01*
X177251255Y-113432739D01*
X177231667Y-113414179D01*
X177213176Y-113394678D01*
X177195804Y-113374293D01*
X177179574Y-113353082D01*
X177164506Y-113331101D01*
X177150625Y-113308408D01*
X177137951Y-113285061D01*
X177126506Y-113261117D01*
X177116314Y-113236633D01*
X177107397Y-113211667D01*
X177099775Y-113186276D01*
X177093472Y-113160517D01*
X177088510Y-113134448D01*
X177084911Y-113108125D01*
X177082697Y-113081608D01*
X177081890Y-113054951D01*
X177081950Y-113052359D01*
X177380887Y-113052359D01*
X177381213Y-113069722D01*
X177382208Y-113086103D01*
X177383896Y-113101548D01*
X177386302Y-113116103D01*
X177389449Y-113129812D01*
X177393363Y-113142723D01*
X177398067Y-113154881D01*
X177403586Y-113166332D01*
X177409944Y-113177122D01*
X177417166Y-113187297D01*
X177425275Y-113196903D01*
X177434297Y-113205985D01*
X177444255Y-113214590D01*
X177455174Y-113222763D01*
X177467078Y-113230550D01*
X177479992Y-113237997D01*
X177493449Y-113244897D01*
X177506758Y-113250896D01*
X177519939Y-113255994D01*
X177533014Y-113260190D01*
X177546004Y-113263484D01*
X177558929Y-113265874D01*
X177571811Y-113267361D01*
X177584671Y-113267944D01*
X177597530Y-113267623D01*
X177610409Y-113266396D01*
X177623329Y-113264264D01*
X177636312Y-113261225D01*
X177649377Y-113257280D01*
X177662546Y-113252427D01*
X177675841Y-113246666D01*
X177689282Y-113239996D01*
X177689373Y-113240820D01*
X177699742Y-113235036D01*
X177709600Y-113228690D01*
X177718942Y-113221811D01*
X177727765Y-113214428D01*
X177736063Y-113206569D01*
X177743831Y-113198264D01*
X177751064Y-113189542D01*
X177757758Y-113180432D01*
X177763907Y-113170962D01*
X177769506Y-113161161D01*
X177774551Y-113151059D01*
X177779036Y-113140685D01*
X177782957Y-113130067D01*
X177786309Y-113119234D01*
X177789087Y-113108215D01*
X177791285Y-113097040D01*
X177792899Y-113085737D01*
X177793925Y-113074336D01*
X177794356Y-113062864D01*
X177794189Y-113051352D01*
X177793418Y-113039827D01*
X177792038Y-113028320D01*
X177790045Y-113016859D01*
X177787433Y-113005472D01*
X177784198Y-112994190D01*
X177780334Y-112983040D01*
X177775837Y-112972052D01*
X177770701Y-112961255D01*
X177764923Y-112950678D01*
X177758497Y-112940349D01*
X177751417Y-112930298D01*
X177743680Y-112920553D01*
X177737460Y-112913393D01*
X177731139Y-112906576D01*
X177724717Y-112900103D01*
X177718195Y-112893972D01*
X177711574Y-112888186D01*
X177704856Y-112882743D01*
X177698040Y-112877644D01*
X177691129Y-112872889D01*
X177684122Y-112868478D01*
X177677022Y-112864412D01*
X177669828Y-112860691D01*
X177662542Y-112857315D01*
X177655165Y-112854285D01*
X177647697Y-112851599D01*
X177640140Y-112849259D01*
X177632494Y-112847265D01*
X177624762Y-112845617D01*
X177616942Y-112844316D01*
X177609037Y-112843360D01*
X177601047Y-112842751D01*
X177592974Y-112842489D01*
X177584818Y-112842574D01*
X177576580Y-112843007D01*
X177568261Y-112843786D01*
X177559862Y-112844914D01*
X177551384Y-112846389D01*
X177542829Y-112848212D01*
X177534196Y-112850383D01*
X177525487Y-112852903D01*
X177516703Y-112855771D01*
X177507845Y-112858988D01*
X177498913Y-112862555D01*
X177483333Y-112869505D01*
X177469006Y-112876855D01*
X177462303Y-112880697D01*
X177455900Y-112884659D01*
X177449793Y-112888748D01*
X177443979Y-112892971D01*
X177438452Y-112897335D01*
X177433209Y-112901847D01*
X177428244Y-112906514D01*
X177423555Y-112911342D01*
X177419137Y-112916338D01*
X177414984Y-112921510D01*
X177411094Y-112926863D01*
X177407462Y-112932406D01*
X177404083Y-112938144D01*
X177400953Y-112944084D01*
X177398067Y-112950234D01*
X177395423Y-112956601D01*
X177393014Y-112963190D01*
X177390838Y-112970010D01*
X177388889Y-112977066D01*
X177387164Y-112984366D01*
X177385658Y-112991916D01*
X177384366Y-112999724D01*
X177383285Y-113007796D01*
X177382410Y-113016139D01*
X177381262Y-113033666D01*
X177380887Y-113052359D01*
X177081950Y-113052359D01*
X177082512Y-113028214D01*
X177084587Y-113001454D01*
D10*
X179770711Y-113890000D02*
G75*
G03*
X179770711Y-113890000I-70711J0D01*
G01*
X179256056Y-107660000D02*
G75*
G03*
X179256056Y-107660000I-36056J0D01*
G01*
D11*
G36*
X179393057Y-110092456D02*
G01*
X179403429Y-110093531D01*
X179413779Y-110095392D01*
X179424060Y-110098052D01*
X179434229Y-110101526D01*
X179444238Y-110105826D01*
X179454045Y-110110969D01*
X179463602Y-110116966D01*
X179472865Y-110123832D01*
X179481790Y-110131582D01*
X179490330Y-110140228D01*
X179498440Y-110149786D01*
X179503109Y-110155976D01*
X179507422Y-110162224D01*
X179511380Y-110168522D01*
X179514984Y-110174867D01*
X179518235Y-110181251D01*
X179521132Y-110187670D01*
X179523678Y-110194117D01*
X179525872Y-110200587D01*
X179527715Y-110207075D01*
X179529208Y-110213574D01*
X179530352Y-110220078D01*
X179531147Y-110226583D01*
X179531594Y-110233083D01*
X179531693Y-110239571D01*
X179531445Y-110246042D01*
X179530852Y-110252491D01*
X179529913Y-110258912D01*
X179528629Y-110265298D01*
X179527001Y-110271645D01*
X179525030Y-110277946D01*
X179522716Y-110284196D01*
X179520060Y-110290390D01*
X179517063Y-110296521D01*
X179513725Y-110302584D01*
X179510046Y-110308573D01*
X179506029Y-110314483D01*
X179501673Y-110320307D01*
X179496978Y-110326041D01*
X179491947Y-110331678D01*
X179486579Y-110337212D01*
X179480874Y-110342639D01*
X179474835Y-110347952D01*
X179465632Y-110355322D01*
X179456525Y-110361793D01*
X179447484Y-110367370D01*
X179442980Y-110369823D01*
X179438480Y-110372053D01*
X179433982Y-110374060D01*
X179429481Y-110375845D01*
X179424975Y-110377408D01*
X179420459Y-110378750D01*
X179415929Y-110379869D01*
X179411383Y-110380768D01*
X179406815Y-110381446D01*
X179402222Y-110381903D01*
X179397601Y-110382140D01*
X179392948Y-110382156D01*
X179388258Y-110381954D01*
X179383529Y-110381531D01*
X179378756Y-110380890D01*
X179373936Y-110380030D01*
X179369065Y-110378951D01*
X179364139Y-110377654D01*
X179359155Y-110376139D01*
X179354108Y-110374406D01*
X179343812Y-110370289D01*
X179333222Y-110365306D01*
X179322308Y-110359457D01*
X179322339Y-110359488D01*
X179312005Y-110353403D01*
X179302649Y-110347397D01*
X179294227Y-110341390D01*
X179290354Y-110338361D01*
X179286697Y-110335301D01*
X179283252Y-110332201D01*
X179280014Y-110329050D01*
X179276976Y-110325839D01*
X179274134Y-110322556D01*
X179271482Y-110319193D01*
X179269014Y-110315740D01*
X179266726Y-110312185D01*
X179264611Y-110308520D01*
X179262664Y-110304733D01*
X179260880Y-110300816D01*
X179259253Y-110296757D01*
X179257778Y-110292547D01*
X179256450Y-110288176D01*
X179255262Y-110283634D01*
X179254210Y-110278911D01*
X179253288Y-110273996D01*
X179252490Y-110268880D01*
X179251812Y-110263552D01*
X179250790Y-110252223D01*
X179250179Y-110239927D01*
X179249936Y-110226584D01*
X179250355Y-110214390D01*
X179251700Y-110202688D01*
X179253925Y-110191493D01*
X179256986Y-110180817D01*
X179260837Y-110170676D01*
X179265433Y-110161083D01*
X179270729Y-110152053D01*
X179276680Y-110143598D01*
X179283240Y-110135733D01*
X179290364Y-110128472D01*
X179298007Y-110121829D01*
X179306125Y-110115818D01*
X179314671Y-110110453D01*
X179323601Y-110105747D01*
X179332869Y-110101716D01*
X179342431Y-110098372D01*
X179352240Y-110095729D01*
X179362253Y-110093803D01*
X179372423Y-110092605D01*
X179382706Y-110092152D01*
X179393057Y-110092456D01*
G37*
X179393057Y-110092456D02*
X179403429Y-110093531D01*
X179413779Y-110095392D01*
X179424060Y-110098052D01*
X179434229Y-110101526D01*
X179444238Y-110105826D01*
X179454045Y-110110969D01*
X179463602Y-110116966D01*
X179472865Y-110123832D01*
X179481790Y-110131582D01*
X179490330Y-110140228D01*
X179498440Y-110149786D01*
X179503109Y-110155976D01*
X179507422Y-110162224D01*
X179511380Y-110168522D01*
X179514984Y-110174867D01*
X179518235Y-110181251D01*
X179521132Y-110187670D01*
X179523678Y-110194117D01*
X179525872Y-110200587D01*
X179527715Y-110207075D01*
X179529208Y-110213574D01*
X179530352Y-110220078D01*
X179531147Y-110226583D01*
X179531594Y-110233083D01*
X179531693Y-110239571D01*
X179531445Y-110246042D01*
X179530852Y-110252491D01*
X179529913Y-110258912D01*
X179528629Y-110265298D01*
X179527001Y-110271645D01*
X179525030Y-110277946D01*
X179522716Y-110284196D01*
X179520060Y-110290390D01*
X179517063Y-110296521D01*
X179513725Y-110302584D01*
X179510046Y-110308573D01*
X179506029Y-110314483D01*
X179501673Y-110320307D01*
X179496978Y-110326041D01*
X179491947Y-110331678D01*
X179486579Y-110337212D01*
X179480874Y-110342639D01*
X179474835Y-110347952D01*
X179465632Y-110355322D01*
X179456525Y-110361793D01*
X179447484Y-110367370D01*
X179442980Y-110369823D01*
X179438480Y-110372053D01*
X179433982Y-110374060D01*
X179429481Y-110375845D01*
X179424975Y-110377408D01*
X179420459Y-110378750D01*
X179415929Y-110379869D01*
X179411383Y-110380768D01*
X179406815Y-110381446D01*
X179402222Y-110381903D01*
X179397601Y-110382140D01*
X179392948Y-110382156D01*
X179388258Y-110381954D01*
X179383529Y-110381531D01*
X179378756Y-110380890D01*
X179373936Y-110380030D01*
X179369065Y-110378951D01*
X179364139Y-110377654D01*
X179359155Y-110376139D01*
X179354108Y-110374406D01*
X179343812Y-110370289D01*
X179333222Y-110365306D01*
X179322308Y-110359457D01*
X179322339Y-110359488D01*
X179312005Y-110353403D01*
X179302649Y-110347397D01*
X179294227Y-110341390D01*
X179290354Y-110338361D01*
X179286697Y-110335301D01*
X179283252Y-110332201D01*
X179280014Y-110329050D01*
X179276976Y-110325839D01*
X179274134Y-110322556D01*
X179271482Y-110319193D01*
X179269014Y-110315740D01*
X179266726Y-110312185D01*
X179264611Y-110308520D01*
X179262664Y-110304733D01*
X179260880Y-110300816D01*
X179259253Y-110296757D01*
X179257778Y-110292547D01*
X179256450Y-110288176D01*
X179255262Y-110283634D01*
X179254210Y-110278911D01*
X179253288Y-110273996D01*
X179252490Y-110268880D01*
X179251812Y-110263552D01*
X179250790Y-110252223D01*
X179250179Y-110239927D01*
X179249936Y-110226584D01*
X179250355Y-110214390D01*
X179251700Y-110202688D01*
X179253925Y-110191493D01*
X179256986Y-110180817D01*
X179260837Y-110170676D01*
X179265433Y-110161083D01*
X179270729Y-110152053D01*
X179276680Y-110143598D01*
X179283240Y-110135733D01*
X179290364Y-110128472D01*
X179298007Y-110121829D01*
X179306125Y-110115818D01*
X179314671Y-110110453D01*
X179323601Y-110105747D01*
X179332869Y-110101716D01*
X179342431Y-110098372D01*
X179352240Y-110095729D01*
X179362253Y-110093803D01*
X179372423Y-110092605D01*
X179382706Y-110092152D01*
X179393057Y-110092456D01*
G36*
X179425005Y-109581871D02*
G01*
X179445014Y-109583016D01*
X179464413Y-109585043D01*
X179500646Y-109590889D01*
X179537535Y-109599013D01*
X179574771Y-109609244D01*
X179612047Y-109621410D01*
X179649055Y-109635340D01*
X179685486Y-109650862D01*
X179721034Y-109667804D01*
X179755389Y-109685995D01*
X179788244Y-109705264D01*
X179819291Y-109725437D01*
X179848222Y-109746345D01*
X179874729Y-109767815D01*
X179898504Y-109789676D01*
X179919240Y-109811756D01*
X179936628Y-109833883D01*
X179950360Y-109855887D01*
X179954447Y-109863705D01*
X179957820Y-109870850D01*
X179959222Y-109874209D01*
X179960424Y-109877444D01*
X179961419Y-109880572D01*
X179962202Y-109883606D01*
X179962764Y-109886563D01*
X179963099Y-109889457D01*
X179963200Y-109892302D01*
X179963060Y-109895115D01*
X179962671Y-109897910D01*
X179962028Y-109900702D01*
X179961124Y-109903507D01*
X179959950Y-109906338D01*
X179958501Y-109909211D01*
X179956769Y-109912142D01*
X179954747Y-109915145D01*
X179952429Y-109918235D01*
X179949807Y-109921427D01*
X179946875Y-109924737D01*
X179943625Y-109928178D01*
X179940052Y-109931767D01*
X179931903Y-109939447D01*
X179922374Y-109947896D01*
X179911409Y-109957234D01*
X179898953Y-109967581D01*
X179881588Y-109981524D01*
X179865441Y-109993620D01*
X179850316Y-110003869D01*
X179843076Y-110008303D01*
X179836019Y-110012277D01*
X179829119Y-110015791D01*
X179822354Y-110018845D01*
X179815698Y-110021441D01*
X179809126Y-110023578D01*
X179802616Y-110025256D01*
X179796141Y-110026477D01*
X179789679Y-110027240D01*
X179783204Y-110027546D01*
X179776692Y-110027395D01*
X179770118Y-110026788D01*
X179763459Y-110025725D01*
X179756690Y-110024207D01*
X179749787Y-110022233D01*
X179742724Y-110019804D01*
X179735479Y-110016921D01*
X179728025Y-110013584D01*
X179720340Y-110009793D01*
X179712399Y-110005549D01*
X179695649Y-109995703D01*
X179677582Y-109984048D01*
X179658001Y-109970587D01*
X179626384Y-109949692D01*
X179594244Y-109931555D01*
X179561659Y-109916176D01*
X179528706Y-109903556D01*
X179495462Y-109893695D01*
X179462005Y-109886595D01*
X179428410Y-109882256D01*
X179394755Y-109880678D01*
X179361117Y-109881864D01*
X179327573Y-109885813D01*
X179294200Y-109892526D01*
X179261075Y-109902004D01*
X179228275Y-109914248D01*
X179195877Y-109929258D01*
X179163958Y-109947035D01*
X179132596Y-109967581D01*
X179113322Y-109980902D01*
X179095608Y-109992520D01*
X179079260Y-110002451D01*
X179064083Y-110010706D01*
X179056872Y-110014211D01*
X179049882Y-110017301D01*
X179043086Y-110019980D01*
X179036462Y-110022249D01*
X179029984Y-110024110D01*
X179023628Y-110025564D01*
X179017371Y-110026614D01*
X179011187Y-110027260D01*
X179005053Y-110027505D01*
X178998943Y-110027350D01*
X178992834Y-110026797D01*
X178986701Y-110025848D01*
X178980521Y-110024505D01*
X178974268Y-110022768D01*
X178967918Y-110020641D01*
X178961447Y-110018124D01*
X178948045Y-110011930D01*
X178933866Y-110004199D01*
X178918717Y-109994945D01*
X178902401Y-109984183D01*
X178902356Y-109983313D01*
X178887276Y-109972824D01*
X178873894Y-109962899D01*
X178862176Y-109953453D01*
X178856931Y-109948882D01*
X178852089Y-109944397D01*
X178847648Y-109939989D01*
X178843601Y-109935645D01*
X178839947Y-109931356D01*
X178836679Y-109927111D01*
X178833795Y-109922898D01*
X178831290Y-109918706D01*
X178829160Y-109914526D01*
X178827401Y-109910345D01*
X178826008Y-109906154D01*
X178824979Y-109901940D01*
X178824308Y-109897695D01*
X178823992Y-109893405D01*
X178824026Y-109889061D01*
X178824406Y-109884652D01*
X178825129Y-109880167D01*
X178826190Y-109875595D01*
X178827584Y-109870925D01*
X178829309Y-109866147D01*
X178831360Y-109861249D01*
X178833732Y-109856220D01*
X178836422Y-109851051D01*
X178839425Y-109845729D01*
X178846356Y-109834585D01*
X178856059Y-109820807D01*
X178866997Y-109807167D01*
X178879107Y-109793689D01*
X178892330Y-109780398D01*
X178906603Y-109767320D01*
X178921865Y-109754478D01*
X178955109Y-109729606D01*
X178991571Y-109705978D01*
X179030759Y-109683795D01*
X179072182Y-109663254D01*
X179115347Y-109644554D01*
X179159764Y-109627894D01*
X179204940Y-109613471D01*
X179250384Y-109601485D01*
X179295604Y-109592133D01*
X179340109Y-109585615D01*
X179383407Y-109582128D01*
X179404449Y-109581583D01*
X179425005Y-109581871D01*
G37*
X179425005Y-109581871D02*
X179445014Y-109583016D01*
X179464413Y-109585043D01*
X179500646Y-109590889D01*
X179537535Y-109599013D01*
X179574771Y-109609244D01*
X179612047Y-109621410D01*
X179649055Y-109635340D01*
X179685486Y-109650862D01*
X179721034Y-109667804D01*
X179755389Y-109685995D01*
X179788244Y-109705264D01*
X179819291Y-109725437D01*
X179848222Y-109746345D01*
X179874729Y-109767815D01*
X179898504Y-109789676D01*
X179919240Y-109811756D01*
X179936628Y-109833883D01*
X179950360Y-109855887D01*
X179954447Y-109863705D01*
X179957820Y-109870850D01*
X179959222Y-109874209D01*
X179960424Y-109877444D01*
X179961419Y-109880572D01*
X179962202Y-109883606D01*
X179962764Y-109886563D01*
X179963099Y-109889457D01*
X179963200Y-109892302D01*
X179963060Y-109895115D01*
X179962671Y-109897910D01*
X179962028Y-109900702D01*
X179961124Y-109903507D01*
X179959950Y-109906338D01*
X179958501Y-109909211D01*
X179956769Y-109912142D01*
X179954747Y-109915145D01*
X179952429Y-109918235D01*
X179949807Y-109921427D01*
X179946875Y-109924737D01*
X179943625Y-109928178D01*
X179940052Y-109931767D01*
X179931903Y-109939447D01*
X179922374Y-109947896D01*
X179911409Y-109957234D01*
X179898953Y-109967581D01*
X179881588Y-109981524D01*
X179865441Y-109993620D01*
X179850316Y-110003869D01*
X179843076Y-110008303D01*
X179836019Y-110012277D01*
X179829119Y-110015791D01*
X179822354Y-110018845D01*
X179815698Y-110021441D01*
X179809126Y-110023578D01*
X179802616Y-110025256D01*
X179796141Y-110026477D01*
X179789679Y-110027240D01*
X179783204Y-110027546D01*
X179776692Y-110027395D01*
X179770118Y-110026788D01*
X179763459Y-110025725D01*
X179756690Y-110024207D01*
X179749787Y-110022233D01*
X179742724Y-110019804D01*
X179735479Y-110016921D01*
X179728025Y-110013584D01*
X179720340Y-110009793D01*
X179712399Y-110005549D01*
X179695649Y-109995703D01*
X179677582Y-109984048D01*
X179658001Y-109970587D01*
X179626384Y-109949692D01*
X179594244Y-109931555D01*
X179561659Y-109916176D01*
X179528706Y-109903556D01*
X179495462Y-109893695D01*
X179462005Y-109886595D01*
X179428410Y-109882256D01*
X179394755Y-109880678D01*
X179361117Y-109881864D01*
X179327573Y-109885813D01*
X179294200Y-109892526D01*
X179261075Y-109902004D01*
X179228275Y-109914248D01*
X179195877Y-109929258D01*
X179163958Y-109947035D01*
X179132596Y-109967581D01*
X179113322Y-109980902D01*
X179095608Y-109992520D01*
X179079260Y-110002451D01*
X179064083Y-110010706D01*
X179056872Y-110014211D01*
X179049882Y-110017301D01*
X179043086Y-110019980D01*
X179036462Y-110022249D01*
X179029984Y-110024110D01*
X179023628Y-110025564D01*
X179017371Y-110026614D01*
X179011187Y-110027260D01*
X179005053Y-110027505D01*
X178998943Y-110027350D01*
X178992834Y-110026797D01*
X178986701Y-110025848D01*
X178980521Y-110024505D01*
X178974268Y-110022768D01*
X178967918Y-110020641D01*
X178961447Y-110018124D01*
X178948045Y-110011930D01*
X178933866Y-110004199D01*
X178918717Y-109994945D01*
X178902401Y-109984183D01*
X178902356Y-109983313D01*
X178887276Y-109972824D01*
X178873894Y-109962899D01*
X178862176Y-109953453D01*
X178856931Y-109948882D01*
X178852089Y-109944397D01*
X178847648Y-109939989D01*
X178843601Y-109935645D01*
X178839947Y-109931356D01*
X178836679Y-109927111D01*
X178833795Y-109922898D01*
X178831290Y-109918706D01*
X178829160Y-109914526D01*
X178827401Y-109910345D01*
X178826008Y-109906154D01*
X178824979Y-109901940D01*
X178824308Y-109897695D01*
X178823992Y-109893405D01*
X178824026Y-109889061D01*
X178824406Y-109884652D01*
X178825129Y-109880167D01*
X178826190Y-109875595D01*
X178827584Y-109870925D01*
X178829309Y-109866147D01*
X178831360Y-109861249D01*
X178833732Y-109856220D01*
X178836422Y-109851051D01*
X178839425Y-109845729D01*
X178846356Y-109834585D01*
X178856059Y-109820807D01*
X178866997Y-109807167D01*
X178879107Y-109793689D01*
X178892330Y-109780398D01*
X178906603Y-109767320D01*
X178921865Y-109754478D01*
X178955109Y-109729606D01*
X178991571Y-109705978D01*
X179030759Y-109683795D01*
X179072182Y-109663254D01*
X179115347Y-109644554D01*
X179159764Y-109627894D01*
X179204940Y-109613471D01*
X179250384Y-109601485D01*
X179295604Y-109592133D01*
X179340109Y-109585615D01*
X179383407Y-109582128D01*
X179404449Y-109581583D01*
X179425005Y-109581871D01*
D10*
X176382426Y-107660000D02*
G75*
G03*
X176382426Y-107660000I-42426J0D01*
G01*
X180702500Y-115280000D02*
X180702500Y-115880000D01*
D11*
G36*
X179901909Y-113014527D02*
G01*
X179905130Y-112983851D01*
X179910276Y-112953328D01*
X179917368Y-112923048D01*
X179926429Y-112893104D01*
X179937479Y-112863588D01*
X179950541Y-112834590D01*
X179965635Y-112806204D01*
X179982783Y-112778519D01*
X180002006Y-112751629D01*
X180023326Y-112725625D01*
X180046765Y-112700598D01*
X180071340Y-112677441D01*
X180096745Y-112656234D01*
X180122903Y-112636960D01*
X180149738Y-112619606D01*
X180177174Y-112604159D01*
X180205135Y-112590602D01*
X180233546Y-112578923D01*
X180262330Y-112569106D01*
X180291411Y-112561138D01*
X180320713Y-112555004D01*
X180350160Y-112550690D01*
X180379677Y-112548182D01*
X180409187Y-112547465D01*
X180438614Y-112548525D01*
X180467883Y-112551347D01*
X180496916Y-112555918D01*
X180525639Y-112562223D01*
X180553975Y-112570247D01*
X180581849Y-112579977D01*
X180609184Y-112591399D01*
X180635904Y-112604497D01*
X180661933Y-112619257D01*
X180687196Y-112635666D01*
X180711616Y-112653709D01*
X180735117Y-112673371D01*
X180757624Y-112694638D01*
X180779060Y-112717497D01*
X180799349Y-112741932D01*
X180818416Y-112767930D01*
X180836184Y-112795476D01*
X180852577Y-112824555D01*
X180867520Y-112855154D01*
X180882400Y-112891813D01*
X180894013Y-112928597D01*
X180902464Y-112965393D01*
X180907856Y-113002090D01*
X180910295Y-113038574D01*
X180909885Y-113074733D01*
X180906730Y-113110454D01*
X180900934Y-113145625D01*
X180892602Y-113180131D01*
X180881839Y-113213862D01*
X180868748Y-113246704D01*
X180853433Y-113278545D01*
X180836001Y-113309271D01*
X180816554Y-113338771D01*
X180795197Y-113366931D01*
X180772034Y-113393639D01*
X180747171Y-113418782D01*
X180720710Y-113442247D01*
X180692757Y-113463922D01*
X180663417Y-113483694D01*
X180632792Y-113501450D01*
X180600988Y-113517078D01*
X180568110Y-113530464D01*
X180534261Y-113541497D01*
X180499546Y-113550064D01*
X180464069Y-113556051D01*
X180427934Y-113559346D01*
X180391247Y-113559837D01*
X180354111Y-113557410D01*
X180316631Y-113551954D01*
X180278911Y-113543355D01*
X180241055Y-113531500D01*
X180241055Y-113531485D01*
X180208796Y-113518794D01*
X180178013Y-113504331D01*
X180148726Y-113488185D01*
X180120957Y-113470449D01*
X180094727Y-113451216D01*
X180070059Y-113430575D01*
X180046972Y-113408620D01*
X180025490Y-113385441D01*
X180005632Y-113361131D01*
X179987421Y-113335781D01*
X179970878Y-113309483D01*
X179956025Y-113282328D01*
X179942883Y-113254409D01*
X179931472Y-113225816D01*
X179921816Y-113196642D01*
X179913935Y-113166979D01*
X179907851Y-113136918D01*
X179903585Y-113106550D01*
X179901158Y-113075968D01*
X179900779Y-113055423D01*
X180191642Y-113055423D01*
X180192059Y-113063625D01*
X180193099Y-113071859D01*
X180194771Y-113080246D01*
X180197086Y-113088908D01*
X180200055Y-113097967D01*
X180203687Y-113107545D01*
X180207993Y-113117765D01*
X180212984Y-113128748D01*
X180218670Y-113140616D01*
X180225590Y-113153948D01*
X180232927Y-113166576D01*
X180240664Y-113178495D01*
X180248779Y-113189701D01*
X180257253Y-113200191D01*
X180266067Y-113209962D01*
X180275200Y-113219010D01*
X180284632Y-113227331D01*
X180294345Y-113234922D01*
X180304317Y-113241779D01*
X180314530Y-113247899D01*
X180324963Y-113253278D01*
X180335597Y-113257913D01*
X180346412Y-113261799D01*
X180357387Y-113264935D01*
X180368504Y-113267315D01*
X180379742Y-113268937D01*
X180391082Y-113269796D01*
X180402504Y-113269890D01*
X180413988Y-113269215D01*
X180425514Y-113267767D01*
X180437062Y-113265543D01*
X180448613Y-113262539D01*
X180460146Y-113258751D01*
X180471643Y-113254176D01*
X180483083Y-113248811D01*
X180494446Y-113242652D01*
X180505713Y-113235695D01*
X180516864Y-113227937D01*
X180527878Y-113219374D01*
X180538737Y-113210003D01*
X180549420Y-113199820D01*
X180549435Y-113199820D01*
X180557786Y-113191194D01*
X180565626Y-113182529D01*
X180572956Y-113173827D01*
X180579775Y-113165092D01*
X180586083Y-113156326D01*
X180591881Y-113147531D01*
X180597167Y-113138710D01*
X180601943Y-113129865D01*
X180606207Y-113120999D01*
X180609960Y-113112115D01*
X180613201Y-113103214D01*
X180615931Y-113094300D01*
X180618149Y-113085375D01*
X180619856Y-113076441D01*
X180621051Y-113067501D01*
X180621733Y-113058558D01*
X180621904Y-113049613D01*
X180621562Y-113040671D01*
X180620708Y-113031732D01*
X180619342Y-113022800D01*
X180617463Y-113013877D01*
X180615072Y-113004965D01*
X180612168Y-112996068D01*
X180608751Y-112987187D01*
X180604821Y-112978326D01*
X180600378Y-112969486D01*
X180595421Y-112960670D01*
X180589952Y-112951881D01*
X180583969Y-112943122D01*
X180577473Y-112934394D01*
X180570463Y-112925701D01*
X180562939Y-112917044D01*
X180552079Y-112905723D01*
X180540801Y-112895357D01*
X180529143Y-112885938D01*
X180517147Y-112877457D01*
X180504851Y-112869906D01*
X180492296Y-112863278D01*
X180479522Y-112857564D01*
X180466568Y-112852757D01*
X180453473Y-112848849D01*
X180440279Y-112845831D01*
X180427024Y-112843696D01*
X180413749Y-112842436D01*
X180400494Y-112842042D01*
X180387297Y-112842507D01*
X180374200Y-112843823D01*
X180361241Y-112845982D01*
X180348461Y-112848975D01*
X180335899Y-112852796D01*
X180323596Y-112857435D01*
X180311591Y-112862885D01*
X180299923Y-112869138D01*
X180288634Y-112876186D01*
X180277762Y-112884022D01*
X180267347Y-112892636D01*
X180257429Y-112902021D01*
X180248049Y-112912169D01*
X180239245Y-112923073D01*
X180231058Y-112934723D01*
X180223528Y-112947113D01*
X180216693Y-112960234D01*
X180210595Y-112974079D01*
X180205273Y-112988638D01*
X180201625Y-113000037D01*
X180198526Y-113010612D01*
X180195988Y-113020488D01*
X180194020Y-113029785D01*
X180192632Y-113038625D01*
X180191836Y-113047130D01*
X180191642Y-113055423D01*
X179900779Y-113055423D01*
X179900592Y-113045263D01*
X179901909Y-113014527D01*
G37*
X179901909Y-113014527D02*
X179905130Y-112983851D01*
X179910276Y-112953328D01*
X179917368Y-112923048D01*
X179926429Y-112893104D01*
X179937479Y-112863588D01*
X179950541Y-112834590D01*
X179965635Y-112806204D01*
X179982783Y-112778519D01*
X180002006Y-112751629D01*
X180023326Y-112725625D01*
X180046765Y-112700598D01*
X180071340Y-112677441D01*
X180096745Y-112656234D01*
X180122903Y-112636960D01*
X180149738Y-112619606D01*
X180177174Y-112604159D01*
X180205135Y-112590602D01*
X180233546Y-112578923D01*
X180262330Y-112569106D01*
X180291411Y-112561138D01*
X180320713Y-112555004D01*
X180350160Y-112550690D01*
X180379677Y-112548182D01*
X180409187Y-112547465D01*
X180438614Y-112548525D01*
X180467883Y-112551347D01*
X180496916Y-112555918D01*
X180525639Y-112562223D01*
X180553975Y-112570247D01*
X180581849Y-112579977D01*
X180609184Y-112591399D01*
X180635904Y-112604497D01*
X180661933Y-112619257D01*
X180687196Y-112635666D01*
X180711616Y-112653709D01*
X180735117Y-112673371D01*
X180757624Y-112694638D01*
X180779060Y-112717497D01*
X180799349Y-112741932D01*
X180818416Y-112767930D01*
X180836184Y-112795476D01*
X180852577Y-112824555D01*
X180867520Y-112855154D01*
X180882400Y-112891813D01*
X180894013Y-112928597D01*
X180902464Y-112965393D01*
X180907856Y-113002090D01*
X180910295Y-113038574D01*
X180909885Y-113074733D01*
X180906730Y-113110454D01*
X180900934Y-113145625D01*
X180892602Y-113180131D01*
X180881839Y-113213862D01*
X180868748Y-113246704D01*
X180853433Y-113278545D01*
X180836001Y-113309271D01*
X180816554Y-113338771D01*
X180795197Y-113366931D01*
X180772034Y-113393639D01*
X180747171Y-113418782D01*
X180720710Y-113442247D01*
X180692757Y-113463922D01*
X180663417Y-113483694D01*
X180632792Y-113501450D01*
X180600988Y-113517078D01*
X180568110Y-113530464D01*
X180534261Y-113541497D01*
X180499546Y-113550064D01*
X180464069Y-113556051D01*
X180427934Y-113559346D01*
X180391247Y-113559837D01*
X180354111Y-113557410D01*
X180316631Y-113551954D01*
X180278911Y-113543355D01*
X180241055Y-113531500D01*
X180241055Y-113531485D01*
X180208796Y-113518794D01*
X180178013Y-113504331D01*
X180148726Y-113488185D01*
X180120957Y-113470449D01*
X180094727Y-113451216D01*
X180070059Y-113430575D01*
X180046972Y-113408620D01*
X180025490Y-113385441D01*
X180005632Y-113361131D01*
X179987421Y-113335781D01*
X179970878Y-113309483D01*
X179956025Y-113282328D01*
X179942883Y-113254409D01*
X179931472Y-113225816D01*
X179921816Y-113196642D01*
X179913935Y-113166979D01*
X179907851Y-113136918D01*
X179903585Y-113106550D01*
X179901158Y-113075968D01*
X179900779Y-113055423D01*
X180191642Y-113055423D01*
X180192059Y-113063625D01*
X180193099Y-113071859D01*
X180194771Y-113080246D01*
X180197086Y-113088908D01*
X180200055Y-113097967D01*
X180203687Y-113107545D01*
X180207993Y-113117765D01*
X180212984Y-113128748D01*
X180218670Y-113140616D01*
X180225590Y-113153948D01*
X180232927Y-113166576D01*
X180240664Y-113178495D01*
X180248779Y-113189701D01*
X180257253Y-113200191D01*
X180266067Y-113209962D01*
X180275200Y-113219010D01*
X180284632Y-113227331D01*
X180294345Y-113234922D01*
X180304317Y-113241779D01*
X180314530Y-113247899D01*
X180324963Y-113253278D01*
X180335597Y-113257913D01*
X180346412Y-113261799D01*
X180357387Y-113264935D01*
X180368504Y-113267315D01*
X180379742Y-113268937D01*
X180391082Y-113269796D01*
X180402504Y-113269890D01*
X180413988Y-113269215D01*
X180425514Y-113267767D01*
X180437062Y-113265543D01*
X180448613Y-113262539D01*
X180460146Y-113258751D01*
X180471643Y-113254176D01*
X180483083Y-113248811D01*
X180494446Y-113242652D01*
X180505713Y-113235695D01*
X180516864Y-113227937D01*
X180527878Y-113219374D01*
X180538737Y-113210003D01*
X180549420Y-113199820D01*
X180549435Y-113199820D01*
X180557786Y-113191194D01*
X180565626Y-113182529D01*
X180572956Y-113173827D01*
X180579775Y-113165092D01*
X180586083Y-113156326D01*
X180591881Y-113147531D01*
X180597167Y-113138710D01*
X180601943Y-113129865D01*
X180606207Y-113120999D01*
X180609960Y-113112115D01*
X180613201Y-113103214D01*
X180615931Y-113094300D01*
X180618149Y-113085375D01*
X180619856Y-113076441D01*
X180621051Y-113067501D01*
X180621733Y-113058558D01*
X180621904Y-113049613D01*
X180621562Y-113040671D01*
X180620708Y-113031732D01*
X180619342Y-113022800D01*
X180617463Y-113013877D01*
X180615072Y-113004965D01*
X180612168Y-112996068D01*
X180608751Y-112987187D01*
X180604821Y-112978326D01*
X180600378Y-112969486D01*
X180595421Y-112960670D01*
X180589952Y-112951881D01*
X180583969Y-112943122D01*
X180577473Y-112934394D01*
X180570463Y-112925701D01*
X180562939Y-112917044D01*
X180552079Y-112905723D01*
X180540801Y-112895357D01*
X180529143Y-112885938D01*
X180517147Y-112877457D01*
X180504851Y-112869906D01*
X180492296Y-112863278D01*
X180479522Y-112857564D01*
X180466568Y-112852757D01*
X180453473Y-112848849D01*
X180440279Y-112845831D01*
X180427024Y-112843696D01*
X180413749Y-112842436D01*
X180400494Y-112842042D01*
X180387297Y-112842507D01*
X180374200Y-112843823D01*
X180361241Y-112845982D01*
X180348461Y-112848975D01*
X180335899Y-112852796D01*
X180323596Y-112857435D01*
X180311591Y-112862885D01*
X180299923Y-112869138D01*
X180288634Y-112876186D01*
X180277762Y-112884022D01*
X180267347Y-112892636D01*
X180257429Y-112902021D01*
X180248049Y-112912169D01*
X180239245Y-112923073D01*
X180231058Y-112934723D01*
X180223528Y-112947113D01*
X180216693Y-112960234D01*
X180210595Y-112974079D01*
X180205273Y-112988638D01*
X180201625Y-113000037D01*
X180198526Y-113010612D01*
X180195988Y-113020488D01*
X180194020Y-113029785D01*
X180192632Y-113038625D01*
X180191836Y-113047130D01*
X180191642Y-113055423D01*
X179900779Y-113055423D01*
X179900592Y-113045263D01*
X179901909Y-113014527D01*
D10*
X182052361Y-111430000D02*
G75*
G03*
X182052361Y-111430000I-22361J0D01*
G01*
D11*
G36*
X179529227Y-109085865D02*
G01*
X179627857Y-109100717D01*
X179724940Y-109123699D01*
X179820021Y-109154763D01*
X179912647Y-109193860D01*
X180002365Y-109240940D01*
X180088719Y-109295954D01*
X180171257Y-109358852D01*
X180249524Y-109429587D01*
X180278051Y-109458133D01*
X180304671Y-109485725D01*
X180328801Y-109511692D01*
X180349854Y-109535362D01*
X180367247Y-109556063D01*
X180380394Y-109573123D01*
X180385193Y-109580078D01*
X180388711Y-109585871D01*
X180390876Y-109590417D01*
X180391613Y-109593634D01*
X180391378Y-109596582D01*
X180390682Y-109599792D01*
X180389542Y-109603247D01*
X180387974Y-109606932D01*
X180385996Y-109610832D01*
X180383624Y-109614929D01*
X180377764Y-109623657D01*
X180370526Y-109632991D01*
X180362044Y-109642803D01*
X180352449Y-109652969D01*
X180341874Y-109663363D01*
X180330451Y-109673858D01*
X180318315Y-109684330D01*
X180305596Y-109694652D01*
X180292428Y-109704699D01*
X180278942Y-109714344D01*
X180265273Y-109723462D01*
X180251552Y-109731928D01*
X180237912Y-109739615D01*
X180228789Y-109744370D01*
X180224543Y-109746440D01*
X180220470Y-109748285D01*
X180216542Y-109749894D01*
X180212731Y-109751250D01*
X180209010Y-109752342D01*
X180205351Y-109753154D01*
X180201725Y-109753673D01*
X180198105Y-109753885D01*
X180194463Y-109753777D01*
X180190771Y-109753334D01*
X180187002Y-109752543D01*
X180183126Y-109751389D01*
X180179118Y-109749860D01*
X180174948Y-109747940D01*
X180170589Y-109745617D01*
X180166013Y-109742876D01*
X180161193Y-109739704D01*
X180156099Y-109736087D01*
X180150705Y-109732011D01*
X180144983Y-109727461D01*
X180138904Y-109722425D01*
X180132441Y-109716889D01*
X180118251Y-109704258D01*
X180102190Y-109689460D01*
X180084036Y-109672382D01*
X180063565Y-109652914D01*
X180026599Y-109619149D01*
X179988787Y-109587529D01*
X179950186Y-109558054D01*
X179910852Y-109530726D01*
X179870842Y-109505543D01*
X179830212Y-109482508D01*
X179789018Y-109461621D01*
X179747319Y-109442883D01*
X179705169Y-109426293D01*
X179662626Y-109411853D01*
X179619747Y-109399563D01*
X179576587Y-109389424D01*
X179533204Y-109381436D01*
X179489654Y-109375600D01*
X179445994Y-109371917D01*
X179402279Y-109370386D01*
X179358568Y-109371010D01*
X179314916Y-109373788D01*
X179271380Y-109378720D01*
X179228017Y-109385808D01*
X179184883Y-109395053D01*
X179142035Y-109406454D01*
X179099530Y-109420012D01*
X179057423Y-109435728D01*
X179015772Y-109453603D01*
X178974633Y-109473636D01*
X178934063Y-109495830D01*
X178894119Y-109520183D01*
X178854856Y-109546698D01*
X178816332Y-109575374D01*
X178778603Y-109606211D01*
X178741726Y-109639212D01*
X178715056Y-109663759D01*
X178689381Y-109686664D01*
X178665320Y-109707425D01*
X178643490Y-109725538D01*
X178624510Y-109740502D01*
X178608998Y-109751813D01*
X178602735Y-109755942D01*
X178597571Y-109758968D01*
X178593583Y-109760831D01*
X178590847Y-109761465D01*
X178589701Y-109761384D01*
X178588345Y-109761142D01*
X178585035Y-109760195D01*
X178580971Y-109758655D01*
X178576208Y-109756553D01*
X178570801Y-109753922D01*
X178564805Y-109750792D01*
X178558275Y-109747196D01*
X178551264Y-109743166D01*
X178543829Y-109738733D01*
X178536023Y-109733928D01*
X178527902Y-109728783D01*
X178519520Y-109723331D01*
X178510932Y-109717602D01*
X178502192Y-109711628D01*
X178493356Y-109705441D01*
X178484478Y-109699072D01*
X178484524Y-109698965D01*
X178475761Y-109692442D01*
X178467240Y-109685801D01*
X178459004Y-109679090D01*
X178451100Y-109672355D01*
X178443572Y-109665643D01*
X178436464Y-109659001D01*
X178429821Y-109652477D01*
X178423687Y-109646116D01*
X178418108Y-109639967D01*
X178413128Y-109634075D01*
X178408792Y-109628489D01*
X178405144Y-109623254D01*
X178402229Y-109618418D01*
X178400091Y-109614028D01*
X178398776Y-109610130D01*
X178398440Y-109608380D01*
X178398327Y-109606772D01*
X178398952Y-109601633D01*
X178400788Y-109595572D01*
X178403779Y-109588646D01*
X178407869Y-109580912D01*
X178419118Y-109563243D01*
X178434083Y-109543019D01*
X178452312Y-109520692D01*
X178473352Y-109496713D01*
X178496753Y-109471537D01*
X178522061Y-109445614D01*
X178548824Y-109419398D01*
X178576591Y-109393341D01*
X178604910Y-109367895D01*
X178633327Y-109343514D01*
X178661392Y-109320649D01*
X178688652Y-109299753D01*
X178714655Y-109281278D01*
X178738949Y-109265677D01*
X178833618Y-109213708D01*
X178930370Y-109170264D01*
X179028753Y-109135296D01*
X179128311Y-109108754D01*
X179228591Y-109090589D01*
X179329140Y-109080752D01*
X179429503Y-109079194D01*
X179529227Y-109085865D01*
G37*
X179529227Y-109085865D02*
X179627857Y-109100717D01*
X179724940Y-109123699D01*
X179820021Y-109154763D01*
X179912647Y-109193860D01*
X180002365Y-109240940D01*
X180088719Y-109295954D01*
X180171257Y-109358852D01*
X180249524Y-109429587D01*
X180278051Y-109458133D01*
X180304671Y-109485725D01*
X180328801Y-109511692D01*
X180349854Y-109535362D01*
X180367247Y-109556063D01*
X180380394Y-109573123D01*
X180385193Y-109580078D01*
X180388711Y-109585871D01*
X180390876Y-109590417D01*
X180391613Y-109593634D01*
X180391378Y-109596582D01*
X180390682Y-109599792D01*
X180389542Y-109603247D01*
X180387974Y-109606932D01*
X180385996Y-109610832D01*
X180383624Y-109614929D01*
X180377764Y-109623657D01*
X180370526Y-109632991D01*
X180362044Y-109642803D01*
X180352449Y-109652969D01*
X180341874Y-109663363D01*
X180330451Y-109673858D01*
X180318315Y-109684330D01*
X180305596Y-109694652D01*
X180292428Y-109704699D01*
X180278942Y-109714344D01*
X180265273Y-109723462D01*
X180251552Y-109731928D01*
X180237912Y-109739615D01*
X180228789Y-109744370D01*
X180224543Y-109746440D01*
X180220470Y-109748285D01*
X180216542Y-109749894D01*
X180212731Y-109751250D01*
X180209010Y-109752342D01*
X180205351Y-109753154D01*
X180201725Y-109753673D01*
X180198105Y-109753885D01*
X180194463Y-109753777D01*
X180190771Y-109753334D01*
X180187002Y-109752543D01*
X180183126Y-109751389D01*
X180179118Y-109749860D01*
X180174948Y-109747940D01*
X180170589Y-109745617D01*
X180166013Y-109742876D01*
X180161193Y-109739704D01*
X180156099Y-109736087D01*
X180150705Y-109732011D01*
X180144983Y-109727461D01*
X180138904Y-109722425D01*
X180132441Y-109716889D01*
X180118251Y-109704258D01*
X180102190Y-109689460D01*
X180084036Y-109672382D01*
X180063565Y-109652914D01*
X180026599Y-109619149D01*
X179988787Y-109587529D01*
X179950186Y-109558054D01*
X179910852Y-109530726D01*
X179870842Y-109505543D01*
X179830212Y-109482508D01*
X179789018Y-109461621D01*
X179747319Y-109442883D01*
X179705169Y-109426293D01*
X179662626Y-109411853D01*
X179619747Y-109399563D01*
X179576587Y-109389424D01*
X179533204Y-109381436D01*
X179489654Y-109375600D01*
X179445994Y-109371917D01*
X179402279Y-109370386D01*
X179358568Y-109371010D01*
X179314916Y-109373788D01*
X179271380Y-109378720D01*
X179228017Y-109385808D01*
X179184883Y-109395053D01*
X179142035Y-109406454D01*
X179099530Y-109420012D01*
X179057423Y-109435728D01*
X179015772Y-109453603D01*
X178974633Y-109473636D01*
X178934063Y-109495830D01*
X178894119Y-109520183D01*
X178854856Y-109546698D01*
X178816332Y-109575374D01*
X178778603Y-109606211D01*
X178741726Y-109639212D01*
X178715056Y-109663759D01*
X178689381Y-109686664D01*
X178665320Y-109707425D01*
X178643490Y-109725538D01*
X178624510Y-109740502D01*
X178608998Y-109751813D01*
X178602735Y-109755942D01*
X178597571Y-109758968D01*
X178593583Y-109760831D01*
X178590847Y-109761465D01*
X178589701Y-109761384D01*
X178588345Y-109761142D01*
X178585035Y-109760195D01*
X178580971Y-109758655D01*
X178576208Y-109756553D01*
X178570801Y-109753922D01*
X178564805Y-109750792D01*
X178558275Y-109747196D01*
X178551264Y-109743166D01*
X178543829Y-109738733D01*
X178536023Y-109733928D01*
X178527902Y-109728783D01*
X178519520Y-109723331D01*
X178510932Y-109717602D01*
X178502192Y-109711628D01*
X178493356Y-109705441D01*
X178484478Y-109699072D01*
X178484524Y-109698965D01*
X178475761Y-109692442D01*
X178467240Y-109685801D01*
X178459004Y-109679090D01*
X178451100Y-109672355D01*
X178443572Y-109665643D01*
X178436464Y-109659001D01*
X178429821Y-109652477D01*
X178423687Y-109646116D01*
X178418108Y-109639967D01*
X178413128Y-109634075D01*
X178408792Y-109628489D01*
X178405144Y-109623254D01*
X178402229Y-109618418D01*
X178400091Y-109614028D01*
X178398776Y-109610130D01*
X178398440Y-109608380D01*
X178398327Y-109606772D01*
X178398952Y-109601633D01*
X178400788Y-109595572D01*
X178403779Y-109588646D01*
X178407869Y-109580912D01*
X178419118Y-109563243D01*
X178434083Y-109543019D01*
X178452312Y-109520692D01*
X178473352Y-109496713D01*
X178496753Y-109471537D01*
X178522061Y-109445614D01*
X178548824Y-109419398D01*
X178576591Y-109393341D01*
X178604910Y-109367895D01*
X178633327Y-109343514D01*
X178661392Y-109320649D01*
X178688652Y-109299753D01*
X178714655Y-109281278D01*
X178738949Y-109265677D01*
X178833618Y-109213708D01*
X178930370Y-109170264D01*
X179028753Y-109135296D01*
X179128311Y-109108754D01*
X179228591Y-109090589D01*
X179329140Y-109080752D01*
X179429503Y-109079194D01*
X179529227Y-109085865D01*
D12*
%TO.C,J1*%
X197600000Y-123122503D02*
X196170000Y-123122503D01*
X192150000Y-123122503D02*
X193830000Y-123122503D01*
X197600000Y-114182503D02*
X196170000Y-114182503D01*
X192150000Y-114182503D02*
X193830000Y-114182503D01*
X197600000Y-123122503D02*
X197600000Y-114182503D01*
D13*
X189100000Y-121852503D02*
G75*
G03*
X189100000Y-121852503I-100000J0D01*
G01*
D14*
%TO.C,D3*%
X185500000Y-98850000D02*
X188050000Y-98850000D01*
X185500000Y-98850000D02*
X185500000Y-100550000D01*
X185500000Y-100550000D02*
X188050000Y-100550000D01*
%TO.C,RST1*%
X193200000Y-112050000D02*
X193500000Y-112050000D01*
X196000000Y-108750000D02*
X196000000Y-112050000D01*
X193500000Y-108750000D02*
X193200000Y-108750000D01*
X195700000Y-108750000D02*
X196000000Y-108750000D01*
X193200000Y-108750000D02*
X193200000Y-112050000D01*
X196000000Y-112050000D02*
X195700000Y-112050000D01*
%TO.C,U6*%
X186500000Y-102940000D02*
X184700000Y-102940000D01*
X186500000Y-106060000D02*
X185700000Y-106060000D01*
X186500000Y-102940000D02*
X187300000Y-102940000D01*
X186500000Y-106060000D02*
X187300000Y-106060000D01*
%TO.C,AE1*%
X175710000Y-114836252D02*
X175710000Y-113413748D01*
X173890000Y-114836252D02*
X173890000Y-113413748D01*
%TO.C,R7*%
X184680000Y-123146359D02*
X184680000Y-123453641D01*
X183920000Y-123146359D02*
X183920000Y-123453641D01*
%TO.C,U4*%
X180190000Y-121410000D02*
X180190000Y-120760000D01*
X186760000Y-121410000D02*
X187410000Y-121410000D01*
X180840000Y-114190000D02*
X180190000Y-114190000D01*
X186760000Y-114190000D02*
X187410000Y-114190000D01*
X187410000Y-121410000D02*
X187410000Y-120760000D01*
X180840000Y-121410000D02*
X180190000Y-121410000D01*
X187410000Y-114190000D02*
X187410000Y-114840000D01*
%TO.C,C17*%
X178840000Y-115227836D02*
X178840000Y-115012164D01*
X179560000Y-115227836D02*
X179560000Y-115012164D01*
%TO.C,J9*%
X175000000Y-121000000D02*
X170640000Y-121000000D01*
X176860000Y-118360000D02*
X178460000Y-118360000D01*
X174500000Y-121800000D02*
X174500000Y-122800000D01*
X174500000Y-119200000D02*
X174500000Y-118200000D01*
X170640000Y-123560000D02*
X178460000Y-123560000D01*
X178460000Y-117440000D02*
X170640000Y-117440000D01*
X172900000Y-121800000D02*
X174500000Y-121800000D01*
X176860000Y-117440000D02*
X176860000Y-118360000D01*
X170640000Y-120000000D02*
X175000000Y-120000000D01*
X178460000Y-123560000D02*
X178460000Y-122640000D01*
X172900000Y-119200000D02*
X170640000Y-119200000D01*
X175000000Y-120000000D02*
X175000000Y-121000000D01*
X176860000Y-118640000D02*
X178075000Y-118640000D01*
X172900000Y-118200000D02*
X172900000Y-119200000D01*
X170640000Y-117440000D02*
X170640000Y-123560000D01*
X176860000Y-118640000D02*
X176860000Y-118360000D01*
X178460000Y-122640000D02*
X176860000Y-122640000D01*
X174500000Y-122800000D02*
X172900000Y-122800000D01*
X172900000Y-118700000D02*
X170640000Y-118700000D01*
X176860000Y-122640000D02*
X176860000Y-122360000D01*
X172900000Y-122800000D02*
X172900000Y-121800000D01*
X172900000Y-119200000D02*
X174500000Y-119200000D01*
X174500000Y-118200000D02*
X172900000Y-118200000D01*
X178460000Y-118360000D02*
X178460000Y-117440000D01*
X176860000Y-123560000D02*
X176860000Y-122640000D01*
%TO.C,C9*%
X183560000Y-123192164D02*
X183560000Y-123407836D01*
X182840000Y-123192164D02*
X182840000Y-123407836D01*
%TO.C,C13*%
X176040000Y-115227836D02*
X176040000Y-115012164D01*
X176760000Y-115227836D02*
X176760000Y-115012164D01*
%TO.C,BOOT1*%
X191700000Y-112050000D02*
X192000000Y-112050000D01*
X192000000Y-112050000D02*
X192000000Y-108750000D01*
X189200000Y-108750000D02*
X189500000Y-108750000D01*
X192000000Y-108750000D02*
X191700000Y-108750000D01*
X189200000Y-112050000D02*
X189200000Y-108750000D01*
X189500000Y-112050000D02*
X189200000Y-112050000D01*
%TO.C,C15*%
X180640000Y-110187836D02*
X180640000Y-109972164D01*
X181360000Y-110187836D02*
X181360000Y-109972164D01*
%TO.C,Y1*%
X181600000Y-108000000D02*
X181600000Y-111300000D01*
X181600000Y-111300000D02*
X185600000Y-111300000D01*
%TO.C,C14*%
X186560000Y-109387836D02*
X186560000Y-109172164D01*
X185840000Y-109387836D02*
X185840000Y-109172164D01*
D11*
%TO.C,D1*%
X181450000Y-101200000D02*
G75*
G03*
X181450000Y-101200000I-50000J0D01*
G01*
D14*
%TO.C,J10*%
X172900000Y-105300000D02*
X174500000Y-105300000D01*
X174500000Y-101700000D02*
X172900000Y-101700000D01*
X176860000Y-102140000D02*
X176860000Y-101860000D01*
X172900000Y-102200000D02*
X170640000Y-102200000D01*
X174500000Y-102700000D02*
X174500000Y-101700000D01*
X178460000Y-100940000D02*
X170640000Y-100940000D01*
X176860000Y-101860000D02*
X178460000Y-101860000D01*
X176860000Y-107060000D02*
X176860000Y-106140000D01*
X170640000Y-100940000D02*
X170640000Y-107060000D01*
X172900000Y-102700000D02*
X174500000Y-102700000D01*
X174500000Y-106300000D02*
X172900000Y-106300000D01*
X170640000Y-107060000D02*
X178460000Y-107060000D01*
X178460000Y-107060000D02*
X178460000Y-106140000D01*
X170640000Y-103500000D02*
X175000000Y-103500000D01*
X176860000Y-100940000D02*
X176860000Y-101860000D01*
X175000000Y-103500000D02*
X175000000Y-104500000D01*
X178460000Y-101860000D02*
X178460000Y-100940000D01*
X172900000Y-106300000D02*
X172900000Y-105300000D01*
X175000000Y-104500000D02*
X170640000Y-104500000D01*
X174500000Y-105300000D02*
X174500000Y-106300000D01*
X172900000Y-101700000D02*
X172900000Y-102700000D01*
X176860000Y-102140000D02*
X178075000Y-102140000D01*
X172900000Y-102700000D02*
X170640000Y-102700000D01*
X176860000Y-106140000D02*
X176860000Y-105860000D01*
X178460000Y-106140000D02*
X176860000Y-106140000D01*
%TO.C,J8*%
X189540000Y-100940000D02*
X189540000Y-101860000D01*
X193500000Y-102700000D02*
X193500000Y-101700000D01*
X191140000Y-100940000D02*
X191140000Y-101860000D01*
X193000000Y-103500000D02*
X197360000Y-103500000D01*
X195100000Y-105800000D02*
X197360000Y-105800000D01*
X193000000Y-104500000D02*
X193000000Y-103500000D01*
X191140000Y-105860000D02*
X189925000Y-105860000D01*
X195100000Y-106300000D02*
X195100000Y-105300000D01*
X189540000Y-107060000D02*
X197360000Y-107060000D01*
X193500000Y-106300000D02*
X195100000Y-106300000D01*
X197360000Y-104500000D02*
X193000000Y-104500000D01*
X197360000Y-100940000D02*
X189540000Y-100940000D01*
X191140000Y-105860000D02*
X191140000Y-106140000D01*
X191140000Y-101860000D02*
X191140000Y-102140000D01*
X189540000Y-106140000D02*
X189540000Y-107060000D01*
X193500000Y-105300000D02*
X193500000Y-106300000D01*
X195100000Y-105300000D02*
X197360000Y-105300000D01*
X195100000Y-101700000D02*
X195100000Y-102700000D01*
X189540000Y-101860000D02*
X191140000Y-101860000D01*
X191140000Y-106140000D02*
X189540000Y-106140000D01*
X195100000Y-105300000D02*
X193500000Y-105300000D01*
X197360000Y-107060000D02*
X197360000Y-100940000D01*
X191140000Y-107060000D02*
X191140000Y-106140000D01*
X195100000Y-102700000D02*
X193500000Y-102700000D01*
X193500000Y-101700000D02*
X195100000Y-101700000D01*
%TO.C,R3*%
X182780000Y-112446359D02*
X182780000Y-112753641D01*
X182020000Y-112446359D02*
X182020000Y-112753641D01*
D11*
%TO.C,D4*%
X188650000Y-117790000D02*
G75*
G03*
X188650000Y-117790000I-50000J0D01*
G01*
D14*
%TO.C,R10*%
X188220000Y-114753641D02*
X188220000Y-114446359D01*
X188980000Y-114753641D02*
X188980000Y-114446359D01*
%TO.C,C22*%
X185860000Y-101907836D02*
X185860000Y-101692164D01*
X185140000Y-101907836D02*
X185140000Y-101692164D01*
%TO.C,C23*%
X187340000Y-101907836D02*
X187340000Y-101692164D01*
X188060000Y-101907836D02*
X188060000Y-101692164D01*
%TO.C,C21*%
X179960000Y-107192164D02*
X179960000Y-107407836D01*
X179240000Y-107192164D02*
X179240000Y-107407836D01*
%TO.C,C8*%
X185992164Y-113260000D02*
X186207836Y-113260000D01*
X185992164Y-112540000D02*
X186207836Y-112540000D01*
%TO.C,U3*%
X181500000Y-102940000D02*
X179700000Y-102940000D01*
X181500000Y-106060000D02*
X180700000Y-106060000D01*
X181500000Y-102940000D02*
X182300000Y-102940000D01*
X181500000Y-106060000D02*
X182300000Y-106060000D01*
%TO.C,D2*%
X180500000Y-100550000D02*
X183050000Y-100550000D01*
X180500000Y-98850000D02*
X183050000Y-98850000D01*
X180500000Y-98850000D02*
X180500000Y-100550000D01*
%TO.C,R6*%
X182336359Y-102580000D02*
X182643641Y-102580000D01*
X182336359Y-101820000D02*
X182643641Y-101820000D01*
%TO.C,R5*%
X180643641Y-101580000D02*
X180336359Y-101580000D01*
X180643641Y-100820000D02*
X180336359Y-100820000D01*
%TO.C,C12*%
X181507836Y-107060000D02*
X181292164Y-107060000D01*
X181507836Y-106340000D02*
X181292164Y-106340000D01*
%TD*%
M02*
