%TF.GenerationSoftware,KiCad,Pcbnew,(6.0.4)*%
%TF.CreationDate,2023-01-18T18:35:58+00:00*%
%TF.ProjectId,PrettySmallRobot,50726574-7479-4536-9d61-6c6c526f626f,rev?*%
%TF.SameCoordinates,Original*%
%TF.FileFunction,Copper,L2,Inr*%
%TF.FilePolarity,Positive*%
%FSLAX46Y46*%
G04 Gerber Fmt 4.6, Leading zero omitted, Abs format (unit mm)*
G04 Created by KiCad (PCBNEW (6.0.4)) date 2023-01-18 18:35:58*
%MOMM*%
%LPD*%
G01*
G04 APERTURE LIST*
%TA.AperFunction,ComponentPad*%
%ADD10C,3.800000*%
%TD*%
%TA.AperFunction,ComponentPad*%
%ADD11O,0.900000X1.700000*%
%TD*%
%TA.AperFunction,ComponentPad*%
%ADD12O,0.900000X2.000000*%
%TD*%
%TA.AperFunction,ViaPad*%
%ADD13C,0.500000*%
%TD*%
G04 APERTURE END LIST*
D10*
%TO.N,N/C*%
%TO.C,H2*%
X125050000Y-119200000D03*
%TD*%
%TO.N,N/C*%
%TO.C,H1*%
X146150000Y-98700000D03*
%TD*%
D11*
%TO.N,GND*%
%TO.C,J1*%
X143250000Y-119350000D03*
X134600000Y-119350000D03*
D12*
X143250000Y-115180000D03*
X134600000Y-115180000D03*
%TD*%
D13*
%TO.N,GND*%
X143550000Y-105730000D03*
%TO.N,/VBUS*%
X143000000Y-112000000D03*
X142510000Y-110120000D03*
%TO.N,+BATT*%
X140900000Y-100400000D03*
X135786500Y-101180000D03*
X131136000Y-98022276D03*
X141500000Y-99600000D03*
X134390000Y-99310000D03*
X133900000Y-109400000D03*
X142150000Y-99600000D03*
%TO.N,GND*%
X138140000Y-96920000D03*
X138600000Y-100700000D03*
X131600000Y-103700000D03*
X133000000Y-103130000D03*
X131010000Y-102790000D03*
X131600000Y-103100000D03*
X132600000Y-103700000D03*
X141550000Y-111550000D03*
X135700000Y-97660000D03*
X140450000Y-99400000D03*
X131490000Y-105300000D03*
X130800000Y-105450000D03*
X139600000Y-100400000D03*
X141700000Y-112250000D03*
X128150000Y-99750000D03*
X136120000Y-100580000D03*
X142599948Y-113139948D03*
X129340000Y-106250000D03*
X135400000Y-100250000D03*
X132635606Y-105246228D03*
X139850000Y-112750000D03*
X133330000Y-105290000D03*
X140600000Y-97100000D03*
%TO.N,+3V3*%
X128550000Y-106700000D03*
X129150000Y-119350000D03*
X140600000Y-111100000D03*
X142450000Y-101900000D03*
X128550000Y-109800000D03*
X137700000Y-111200000D03*
X131150000Y-99650000D03*
X129950000Y-119600000D03*
X130700000Y-117900000D03*
X140200000Y-102250000D03*
X131350000Y-101900000D03*
%TO.N,/~{RESET}*%
X132050000Y-105700000D03*
X134750000Y-103000000D03*
%TO.N,Net-(R7-Pad1)*%
X138800000Y-111300000D03*
%TO.N,Net-(D1-Pad1)*%
X142200000Y-111000000D03*
%TO.N,Net-(C22-Pad1)*%
X131700000Y-113900000D03*
%TO.N,/MOTORB_OUT1*%
X134750000Y-100300000D03*
%TO.N,/MOTORB_OUT2*%
X131200000Y-99000000D03*
%TO.N,/MOTORB_IN1*%
X133408623Y-108229895D03*
X132530000Y-100010000D03*
%TO.N,/MOTORA_OUT1*%
X131100000Y-97120000D03*
%TO.N,/MOTORA_OUT2*%
X135100000Y-96950000D03*
%TO.N,/MOTORA_IN1*%
X129600000Y-99800000D03*
X133900000Y-106900000D03*
%TO.N,/VDDA*%
X134410000Y-103730000D03*
X138300000Y-102400000D03*
X136300000Y-101650000D03*
%TO.N,/VDD3P3*%
X134100000Y-105300000D03*
%TO.N,/MOTORA_IN2*%
X129000000Y-100170000D03*
X133551500Y-107540000D03*
%TO.N,/MOTORB_IN2*%
X131800000Y-100000000D03*
X133480000Y-108890000D03*
%TO.N,/VDD_SPI*%
X142750000Y-109250000D03*
%TD*%
%TA.AperFunction,Conductor*%
%TO.N,GND*%
G36*
X131068508Y-96520002D02*
G01*
X131100419Y-96556830D01*
X131118469Y-96529607D01*
X131183464Y-96501039D01*
X131199613Y-96500000D01*
X134711944Y-96500000D01*
X134780065Y-96520002D01*
X134826558Y-96573658D01*
X134836662Y-96643932D01*
X134807168Y-96708512D01*
X134801039Y-96715095D01*
X134790789Y-96725345D01*
X134786289Y-96734177D01*
X134786288Y-96734178D01*
X134772621Y-96761001D01*
X134736500Y-96831892D01*
X134717794Y-96950000D01*
X134736500Y-97068108D01*
X134790789Y-97174655D01*
X134875345Y-97259211D01*
X134884177Y-97263711D01*
X134884178Y-97263712D01*
X134928618Y-97286355D01*
X134981892Y-97313500D01*
X135100000Y-97332206D01*
X135218108Y-97313500D01*
X135271382Y-97286355D01*
X135315822Y-97263712D01*
X135315823Y-97263711D01*
X135324655Y-97259211D01*
X135409211Y-97174655D01*
X135463500Y-97068108D01*
X135482206Y-96950000D01*
X135463500Y-96831892D01*
X135427379Y-96761001D01*
X135413712Y-96734178D01*
X135413711Y-96734177D01*
X135409211Y-96725345D01*
X135398961Y-96715095D01*
X135364935Y-96652783D01*
X135370000Y-96581968D01*
X135412547Y-96525132D01*
X135479067Y-96500321D01*
X135488056Y-96500000D01*
X143874000Y-96500000D01*
X143942121Y-96520002D01*
X143988614Y-96573658D01*
X144000000Y-96626000D01*
X144000000Y-100825984D01*
X143979998Y-100894105D01*
X143926342Y-100940598D01*
X143910966Y-100946333D01*
X143907658Y-100949000D01*
X143900198Y-100949000D01*
X143900000Y-100948918D01*
X143899802Y-100949000D01*
X143899235Y-100949235D01*
X143898918Y-100950000D01*
X143899000Y-100950198D01*
X143899000Y-113679210D01*
X143878998Y-113747331D01*
X143825342Y-113793824D01*
X143755068Y-113803928D01*
X143717370Y-113792265D01*
X143591375Y-113730268D01*
X143579481Y-113725845D01*
X143521530Y-113710749D01*
X143507436Y-113711183D01*
X143504000Y-113719364D01*
X143504000Y-116639229D01*
X143507973Y-116652760D01*
X143514075Y-116653637D01*
X143666136Y-116597690D01*
X143677549Y-116592124D01*
X143706603Y-116574109D01*
X143775038Y-116555211D01*
X143842826Y-116576313D01*
X143888445Y-116630714D01*
X143899000Y-116681195D01*
X143899000Y-117999210D01*
X143878998Y-118067331D01*
X143825342Y-118113824D01*
X143755068Y-118123928D01*
X143717370Y-118112265D01*
X143591375Y-118050268D01*
X143579481Y-118045845D01*
X143521530Y-118030749D01*
X143507436Y-118031183D01*
X143504000Y-118039364D01*
X143504000Y-120659229D01*
X143507973Y-120672760D01*
X143514075Y-120673637D01*
X143666136Y-120617690D01*
X143677549Y-120612124D01*
X143706603Y-120594109D01*
X143775038Y-120575211D01*
X143842826Y-120596313D01*
X143888445Y-120650714D01*
X143899000Y-120701195D01*
X143899000Y-121323000D01*
X143878998Y-121391121D01*
X143825342Y-121437614D01*
X143773000Y-121449000D01*
X127626000Y-121449000D01*
X127557879Y-121428998D01*
X127511386Y-121375342D01*
X127500000Y-121323000D01*
X127500000Y-119350000D01*
X128767794Y-119350000D01*
X128786500Y-119468108D01*
X128840789Y-119574655D01*
X128925345Y-119659211D01*
X128934177Y-119663711D01*
X128934178Y-119663712D01*
X128949477Y-119671507D01*
X129031892Y-119713500D01*
X129150000Y-119732206D01*
X129268108Y-119713500D01*
X129350523Y-119671507D01*
X129365822Y-119663712D01*
X129365823Y-119663711D01*
X129374655Y-119659211D01*
X129381666Y-119652200D01*
X129389687Y-119646372D01*
X129391791Y-119649268D01*
X129438257Y-119623895D01*
X129509072Y-119628960D01*
X129565908Y-119671507D01*
X129584874Y-119708082D01*
X129584948Y-119708311D01*
X129586500Y-119718108D01*
X129591001Y-119726941D01*
X129591002Y-119726944D01*
X129625907Y-119795447D01*
X129640789Y-119824655D01*
X129725345Y-119909211D01*
X129734177Y-119913711D01*
X129734178Y-119913712D01*
X129778619Y-119936356D01*
X129831892Y-119963500D01*
X129950000Y-119982206D01*
X130068108Y-119963500D01*
X130121382Y-119936355D01*
X130165822Y-119913712D01*
X130165823Y-119913711D01*
X130174655Y-119909211D01*
X130259211Y-119824655D01*
X130274094Y-119795447D01*
X133642000Y-119795447D01*
X133642323Y-119801822D01*
X133656082Y-119937277D01*
X133658636Y-119949717D01*
X133713016Y-120123244D01*
X133718025Y-120134932D01*
X133806187Y-120293979D01*
X133813438Y-120304412D01*
X133931785Y-120442491D01*
X133940976Y-120451244D01*
X134084680Y-120562711D01*
X134095440Y-120569435D01*
X134258625Y-120649732D01*
X134270519Y-120654155D01*
X134328470Y-120669251D01*
X134342564Y-120668817D01*
X134346000Y-120660636D01*
X134346000Y-120659229D01*
X134854000Y-120659229D01*
X134857973Y-120672760D01*
X134864075Y-120673637D01*
X135016136Y-120617690D01*
X135027549Y-120612123D01*
X135182108Y-120516292D01*
X135192174Y-120508540D01*
X135324303Y-120383592D01*
X135332605Y-120373974D01*
X135436908Y-120225013D01*
X135443108Y-120213919D01*
X135515332Y-120047020D01*
X135519171Y-120034917D01*
X135556675Y-119855400D01*
X135557915Y-119845848D01*
X135558000Y-119842616D01*
X135558000Y-119795447D01*
X142292000Y-119795447D01*
X142292323Y-119801822D01*
X142306082Y-119937277D01*
X142308636Y-119949717D01*
X142363016Y-120123244D01*
X142368025Y-120134932D01*
X142456187Y-120293979D01*
X142463438Y-120304412D01*
X142581785Y-120442491D01*
X142590976Y-120451244D01*
X142734680Y-120562711D01*
X142745440Y-120569435D01*
X142908625Y-120649732D01*
X142920519Y-120654155D01*
X142978470Y-120669251D01*
X142992564Y-120668817D01*
X142996000Y-120660636D01*
X142996000Y-119622115D01*
X142991525Y-119606876D01*
X142990135Y-119605671D01*
X142982452Y-119604000D01*
X142310115Y-119604000D01*
X142294876Y-119608475D01*
X142293671Y-119609865D01*
X142292000Y-119617548D01*
X142292000Y-119795447D01*
X135558000Y-119795447D01*
X135558000Y-119622115D01*
X135553525Y-119606876D01*
X135552135Y-119605671D01*
X135544452Y-119604000D01*
X134872115Y-119604000D01*
X134856876Y-119608475D01*
X134855671Y-119609865D01*
X134854000Y-119617548D01*
X134854000Y-120659229D01*
X134346000Y-120659229D01*
X134346000Y-119622115D01*
X134341525Y-119606876D01*
X134340135Y-119605671D01*
X134332452Y-119604000D01*
X133660115Y-119604000D01*
X133644876Y-119608475D01*
X133643671Y-119609865D01*
X133642000Y-119617548D01*
X133642000Y-119795447D01*
X130274094Y-119795447D01*
X130286355Y-119771382D01*
X130313500Y-119718108D01*
X130327619Y-119628960D01*
X130330655Y-119609793D01*
X130332206Y-119600000D01*
X130313500Y-119481892D01*
X130259211Y-119375345D01*
X130174655Y-119290789D01*
X130165823Y-119286289D01*
X130165822Y-119286288D01*
X130078741Y-119241918D01*
X130068108Y-119236500D01*
X129950000Y-119217794D01*
X129831892Y-119236500D01*
X129821259Y-119241918D01*
X129734178Y-119286288D01*
X129734177Y-119286289D01*
X129725345Y-119290789D01*
X129718334Y-119297800D01*
X129710313Y-119303628D01*
X129708209Y-119300732D01*
X129661743Y-119326105D01*
X129590928Y-119321040D01*
X129534092Y-119278493D01*
X129515126Y-119241918D01*
X129515052Y-119241689D01*
X129513500Y-119231892D01*
X129459211Y-119125345D01*
X129411751Y-119077885D01*
X133642000Y-119077885D01*
X133646475Y-119093124D01*
X133647865Y-119094329D01*
X133655548Y-119096000D01*
X134327885Y-119096000D01*
X134343124Y-119091525D01*
X134344329Y-119090135D01*
X134346000Y-119082452D01*
X134346000Y-119077885D01*
X134854000Y-119077885D01*
X134858475Y-119093124D01*
X134859865Y-119094329D01*
X134867548Y-119096000D01*
X135539885Y-119096000D01*
X135555124Y-119091525D01*
X135556329Y-119090135D01*
X135558000Y-119082452D01*
X135558000Y-119077885D01*
X142292000Y-119077885D01*
X142296475Y-119093124D01*
X142297865Y-119094329D01*
X142305548Y-119096000D01*
X142977885Y-119096000D01*
X142993124Y-119091525D01*
X142994329Y-119090135D01*
X142996000Y-119082452D01*
X142996000Y-118040771D01*
X142992027Y-118027240D01*
X142985925Y-118026363D01*
X142833864Y-118082310D01*
X142822451Y-118087877D01*
X142667892Y-118183708D01*
X142657826Y-118191460D01*
X142525697Y-118316408D01*
X142517395Y-118326026D01*
X142413092Y-118474987D01*
X142406892Y-118486081D01*
X142334668Y-118652980D01*
X142330829Y-118665083D01*
X142293325Y-118844600D01*
X142292085Y-118854152D01*
X142292000Y-118857384D01*
X142292000Y-119077885D01*
X135558000Y-119077885D01*
X135558000Y-118904553D01*
X135557677Y-118898178D01*
X135543918Y-118762723D01*
X135541364Y-118750283D01*
X135486984Y-118576756D01*
X135481975Y-118565068D01*
X135393813Y-118406021D01*
X135386562Y-118395588D01*
X135268215Y-118257509D01*
X135259024Y-118248756D01*
X135115320Y-118137289D01*
X135104560Y-118130565D01*
X134941375Y-118050268D01*
X134929481Y-118045845D01*
X134871530Y-118030749D01*
X134857436Y-118031183D01*
X134854000Y-118039364D01*
X134854000Y-119077885D01*
X134346000Y-119077885D01*
X134346000Y-118040771D01*
X134342027Y-118027240D01*
X134335925Y-118026363D01*
X134183864Y-118082310D01*
X134172451Y-118087877D01*
X134017892Y-118183708D01*
X134007826Y-118191460D01*
X133875697Y-118316408D01*
X133867395Y-118326026D01*
X133763092Y-118474987D01*
X133756892Y-118486081D01*
X133684668Y-118652980D01*
X133680829Y-118665083D01*
X133643325Y-118844600D01*
X133642085Y-118854152D01*
X133642000Y-118857384D01*
X133642000Y-119077885D01*
X129411751Y-119077885D01*
X129374655Y-119040789D01*
X129365823Y-119036289D01*
X129365822Y-119036288D01*
X129321382Y-119013645D01*
X129268108Y-118986500D01*
X129150000Y-118967794D01*
X129031892Y-118986500D01*
X128978618Y-119013645D01*
X128934178Y-119036288D01*
X128934177Y-119036289D01*
X128925345Y-119040789D01*
X128840789Y-119125345D01*
X128786500Y-119231892D01*
X128784949Y-119241685D01*
X128771579Y-119326105D01*
X128767794Y-119350000D01*
X127500000Y-119350000D01*
X127500000Y-117900000D01*
X130317794Y-117900000D01*
X130336500Y-118018108D01*
X130390789Y-118124655D01*
X130475345Y-118209211D01*
X130484177Y-118213711D01*
X130484178Y-118213712D01*
X130528619Y-118236356D01*
X130581892Y-118263500D01*
X130700000Y-118282206D01*
X130818108Y-118263500D01*
X130871382Y-118236355D01*
X130915822Y-118213712D01*
X130915823Y-118213711D01*
X130924655Y-118209211D01*
X131009211Y-118124655D01*
X131063500Y-118018108D01*
X131082206Y-117900000D01*
X131063500Y-117781892D01*
X131009211Y-117675345D01*
X130924655Y-117590789D01*
X130915823Y-117586289D01*
X130915822Y-117586288D01*
X130871382Y-117563645D01*
X130818108Y-117536500D01*
X130700000Y-117517794D01*
X130581892Y-117536500D01*
X130528618Y-117563645D01*
X130484178Y-117586288D01*
X130484177Y-117586289D01*
X130475345Y-117590789D01*
X130390789Y-117675345D01*
X130336500Y-117781892D01*
X130317794Y-117900000D01*
X127500000Y-117900000D01*
X127500000Y-115775447D01*
X133642000Y-115775447D01*
X133642323Y-115781822D01*
X133656082Y-115917277D01*
X133658636Y-115929717D01*
X133713016Y-116103244D01*
X133718025Y-116114932D01*
X133806187Y-116273979D01*
X133813438Y-116284412D01*
X133931785Y-116422491D01*
X133940976Y-116431244D01*
X134084680Y-116542711D01*
X134095440Y-116549435D01*
X134258625Y-116629732D01*
X134270519Y-116634155D01*
X134328470Y-116649251D01*
X134342564Y-116648817D01*
X134346000Y-116640636D01*
X134346000Y-116639229D01*
X134854000Y-116639229D01*
X134857973Y-116652760D01*
X134864075Y-116653637D01*
X135016136Y-116597690D01*
X135027549Y-116592123D01*
X135182108Y-116496292D01*
X135192174Y-116488540D01*
X135324303Y-116363592D01*
X135332605Y-116353974D01*
X135436908Y-116205013D01*
X135443110Y-116193916D01*
X135470294Y-116131097D01*
X135515705Y-116076522D01*
X135583412Y-116055162D01*
X135651919Y-116073798D01*
X135667879Y-116086950D01*
X135668368Y-116086359D01*
X135674984Y-116091832D01*
X135680799Y-116098156D01*
X135733928Y-116131097D01*
X135801687Y-116173110D01*
X135801690Y-116173111D01*
X135808986Y-116177635D01*
X135953825Y-116219715D01*
X135960803Y-116220227D01*
X135962208Y-116220331D01*
X135962219Y-116220331D01*
X135964515Y-116220500D01*
X136072785Y-116220500D01*
X136077030Y-116219918D01*
X136077037Y-116219918D01*
X136137522Y-116211632D01*
X136184432Y-116205206D01*
X136248145Y-116177635D01*
X136314971Y-116148717D01*
X136314973Y-116148716D01*
X136322855Y-116145305D01*
X136440070Y-116050386D01*
X136527442Y-115927442D01*
X136578533Y-115785532D01*
X136584455Y-115704891D01*
X141260420Y-115704891D01*
X141290233Y-115852743D01*
X141358707Y-115987132D01*
X141460799Y-116098156D01*
X141513928Y-116131097D01*
X141581687Y-116173110D01*
X141581690Y-116173111D01*
X141588986Y-116177635D01*
X141733825Y-116219715D01*
X141740803Y-116220227D01*
X141742208Y-116220331D01*
X141742219Y-116220331D01*
X141744515Y-116220500D01*
X141852785Y-116220500D01*
X141857030Y-116219918D01*
X141857037Y-116219918D01*
X141917522Y-116211632D01*
X141964432Y-116205206D01*
X142028145Y-116177635D01*
X142094971Y-116148717D01*
X142094973Y-116148716D01*
X142102855Y-116145305D01*
X142180799Y-116082187D01*
X142246324Y-116054863D01*
X142316223Y-116067303D01*
X142370293Y-116119023D01*
X142456187Y-116273979D01*
X142463438Y-116284412D01*
X142581785Y-116422491D01*
X142590976Y-116431244D01*
X142734680Y-116542711D01*
X142745440Y-116549435D01*
X142908625Y-116629732D01*
X142920519Y-116634155D01*
X142978470Y-116649251D01*
X142992564Y-116648817D01*
X142996000Y-116640636D01*
X142996000Y-115452115D01*
X142991525Y-115436876D01*
X142990135Y-115435671D01*
X142982452Y-115434000D01*
X142389844Y-115434000D01*
X142321723Y-115413998D01*
X142277577Y-115365201D01*
X142271293Y-115352868D01*
X142169201Y-115241844D01*
X142087654Y-115191283D01*
X142048313Y-115166890D01*
X142048310Y-115166889D01*
X142041014Y-115162365D01*
X141896175Y-115120285D01*
X141889197Y-115119773D01*
X141887792Y-115119669D01*
X141887781Y-115119669D01*
X141885485Y-115119500D01*
X141777215Y-115119500D01*
X141772970Y-115120082D01*
X141772963Y-115120082D01*
X141712478Y-115128368D01*
X141665568Y-115134794D01*
X141657684Y-115138206D01*
X141657683Y-115138206D01*
X141535029Y-115191283D01*
X141535027Y-115191284D01*
X141527145Y-115194695D01*
X141409930Y-115289614D01*
X141322558Y-115412558D01*
X141271467Y-115554468D01*
X141260420Y-115704891D01*
X136584455Y-115704891D01*
X136589580Y-115635109D01*
X136559767Y-115487257D01*
X136491293Y-115352868D01*
X136389201Y-115241844D01*
X136307654Y-115191283D01*
X136268313Y-115166890D01*
X136268310Y-115166889D01*
X136261014Y-115162365D01*
X136116175Y-115120285D01*
X136109197Y-115119773D01*
X136107792Y-115119669D01*
X136107781Y-115119669D01*
X136105485Y-115119500D01*
X135997215Y-115119500D01*
X135992970Y-115120082D01*
X135992963Y-115120082D01*
X135932478Y-115128368D01*
X135885568Y-115134794D01*
X135877684Y-115138206D01*
X135877683Y-115138206D01*
X135755029Y-115191283D01*
X135755027Y-115191284D01*
X135747145Y-115194695D01*
X135629930Y-115289614D01*
X135624955Y-115296615D01*
X135564992Y-115380990D01*
X135509226Y-115424930D01*
X135462286Y-115434000D01*
X134872115Y-115434000D01*
X134856876Y-115438475D01*
X134855671Y-115439865D01*
X134854000Y-115447548D01*
X134854000Y-116639229D01*
X134346000Y-116639229D01*
X134346000Y-115452115D01*
X134341525Y-115436876D01*
X134340135Y-115435671D01*
X134332452Y-115434000D01*
X133660115Y-115434000D01*
X133644876Y-115438475D01*
X133643671Y-115439865D01*
X133642000Y-115447548D01*
X133642000Y-115775447D01*
X127500000Y-115775447D01*
X127500000Y-114907885D01*
X133642000Y-114907885D01*
X133646475Y-114923124D01*
X133647865Y-114924329D01*
X133655548Y-114926000D01*
X134327885Y-114926000D01*
X134343124Y-114921525D01*
X134344329Y-114920135D01*
X134346000Y-114912452D01*
X134346000Y-114907885D01*
X134854000Y-114907885D01*
X134858475Y-114923124D01*
X134859865Y-114924329D01*
X134867548Y-114926000D01*
X135539885Y-114926000D01*
X135555124Y-114921525D01*
X135556329Y-114920135D01*
X135558000Y-114912452D01*
X135558000Y-114907885D01*
X142292000Y-114907885D01*
X142296475Y-114923124D01*
X142297865Y-114924329D01*
X142305548Y-114926000D01*
X142977885Y-114926000D01*
X142993124Y-114921525D01*
X142994329Y-114920135D01*
X142996000Y-114912452D01*
X142996000Y-113720771D01*
X142992027Y-113707240D01*
X142985925Y-113706363D01*
X142833864Y-113762310D01*
X142822451Y-113767877D01*
X142667892Y-113863708D01*
X142657826Y-113871460D01*
X142525697Y-113996408D01*
X142517395Y-114006026D01*
X142413092Y-114154987D01*
X142406892Y-114166081D01*
X142334668Y-114332980D01*
X142330829Y-114345083D01*
X142293325Y-114524600D01*
X142292085Y-114534152D01*
X142292000Y-114537384D01*
X142292000Y-114907885D01*
X135558000Y-114907885D01*
X135558000Y-114584553D01*
X135557677Y-114578178D01*
X135543918Y-114442723D01*
X135541364Y-114430283D01*
X135486984Y-114256756D01*
X135481975Y-114245068D01*
X135393813Y-114086021D01*
X135386562Y-114075588D01*
X135268215Y-113937509D01*
X135259024Y-113928756D01*
X135115320Y-113817289D01*
X135104560Y-113810565D01*
X134941375Y-113730268D01*
X134929481Y-113725845D01*
X134871530Y-113710749D01*
X134857436Y-113711183D01*
X134854000Y-113719364D01*
X134854000Y-114907885D01*
X134346000Y-114907885D01*
X134346000Y-113720771D01*
X134342027Y-113707240D01*
X134335925Y-113706363D01*
X134183864Y-113762310D01*
X134172451Y-113767877D01*
X134017892Y-113863708D01*
X134007826Y-113871460D01*
X133875697Y-113996408D01*
X133867395Y-114006026D01*
X133763092Y-114154987D01*
X133756892Y-114166081D01*
X133684668Y-114332980D01*
X133680829Y-114345083D01*
X133643325Y-114524600D01*
X133642085Y-114534152D01*
X133642000Y-114537384D01*
X133642000Y-114907885D01*
X127500000Y-114907885D01*
X127500000Y-113900000D01*
X131317794Y-113900000D01*
X131336500Y-114018108D01*
X131390789Y-114124655D01*
X131475345Y-114209211D01*
X131484177Y-114213711D01*
X131484178Y-114213712D01*
X131528618Y-114236355D01*
X131581892Y-114263500D01*
X131700000Y-114282206D01*
X131818108Y-114263500D01*
X131871381Y-114236356D01*
X131915822Y-114213712D01*
X131915823Y-114213711D01*
X131924655Y-114209211D01*
X132009211Y-114124655D01*
X132063500Y-114018108D01*
X132082206Y-113900000D01*
X132063500Y-113781892D01*
X132027472Y-113711183D01*
X132013712Y-113684178D01*
X132013711Y-113684177D01*
X132009211Y-113675345D01*
X131924655Y-113590789D01*
X131915823Y-113586289D01*
X131915822Y-113586288D01*
X131871382Y-113563645D01*
X131818108Y-113536500D01*
X131700000Y-113517794D01*
X131581892Y-113536500D01*
X131528619Y-113563644D01*
X131484178Y-113586288D01*
X131484177Y-113586289D01*
X131475345Y-113590789D01*
X131390789Y-113675345D01*
X131386289Y-113684177D01*
X131386288Y-113684178D01*
X131372528Y-113711183D01*
X131336500Y-113781892D01*
X131317794Y-113900000D01*
X127500000Y-113900000D01*
X127500000Y-112000000D01*
X142617794Y-112000000D01*
X142636500Y-112118108D01*
X142690789Y-112224655D01*
X142775345Y-112309211D01*
X142784177Y-112313711D01*
X142784178Y-112313712D01*
X142828619Y-112336356D01*
X142881892Y-112363500D01*
X143000000Y-112382206D01*
X143118108Y-112363500D01*
X143171381Y-112336356D01*
X143215822Y-112313712D01*
X143215823Y-112313711D01*
X143224655Y-112309211D01*
X143309211Y-112224655D01*
X143363500Y-112118108D01*
X143382206Y-112000000D01*
X143363500Y-111881892D01*
X143309211Y-111775345D01*
X143224655Y-111690789D01*
X143215823Y-111686289D01*
X143215822Y-111686288D01*
X143162264Y-111658999D01*
X143118108Y-111636500D01*
X143000000Y-111617794D01*
X142881892Y-111636500D01*
X142837736Y-111658999D01*
X142784178Y-111686288D01*
X142784177Y-111686289D01*
X142775345Y-111690789D01*
X142690789Y-111775345D01*
X142636500Y-111881892D01*
X142617794Y-112000000D01*
X127500000Y-112000000D01*
X127500000Y-111200000D01*
X137317794Y-111200000D01*
X137336500Y-111318108D01*
X137390789Y-111424655D01*
X137475345Y-111509211D01*
X137484177Y-111513711D01*
X137484178Y-111513712D01*
X137505655Y-111524655D01*
X137581892Y-111563500D01*
X137700000Y-111582206D01*
X137818108Y-111563500D01*
X137894345Y-111524655D01*
X137915822Y-111513712D01*
X137915823Y-111513711D01*
X137924655Y-111509211D01*
X138009211Y-111424655D01*
X138063500Y-111318108D01*
X138066368Y-111300000D01*
X138417794Y-111300000D01*
X138436500Y-111418108D01*
X138490789Y-111524655D01*
X138575345Y-111609211D01*
X138584177Y-111613711D01*
X138584178Y-111613712D01*
X138625858Y-111634949D01*
X138681892Y-111663500D01*
X138800000Y-111682206D01*
X138918108Y-111663500D01*
X138974142Y-111634949D01*
X139015822Y-111613712D01*
X139015823Y-111613711D01*
X139024655Y-111609211D01*
X139109211Y-111524655D01*
X139163500Y-111418108D01*
X139182206Y-111300000D01*
X139163500Y-111181892D01*
X139126010Y-111108315D01*
X139121773Y-111100000D01*
X140217794Y-111100000D01*
X140236500Y-111218108D01*
X140263644Y-111271381D01*
X140278227Y-111300000D01*
X140290789Y-111324655D01*
X140375345Y-111409211D01*
X140384177Y-111413711D01*
X140384178Y-111413712D01*
X140419415Y-111431666D01*
X140481892Y-111463500D01*
X140600000Y-111482206D01*
X140718108Y-111463500D01*
X140780585Y-111431666D01*
X140815822Y-111413712D01*
X140815823Y-111413711D01*
X140824655Y-111409211D01*
X140909211Y-111324655D01*
X140921774Y-111300000D01*
X140936355Y-111271382D01*
X140963500Y-111218108D01*
X140982206Y-111100000D01*
X140966368Y-111000000D01*
X141817794Y-111000000D01*
X141836500Y-111118108D01*
X141841001Y-111126941D01*
X141878227Y-111200000D01*
X141890789Y-111224655D01*
X141975345Y-111309211D01*
X141984177Y-111313711D01*
X141984178Y-111313712D01*
X142019415Y-111331666D01*
X142081892Y-111363500D01*
X142200000Y-111382206D01*
X142318108Y-111363500D01*
X142380585Y-111331666D01*
X142415822Y-111313712D01*
X142415823Y-111313711D01*
X142424655Y-111309211D01*
X142509211Y-111224655D01*
X142521774Y-111200000D01*
X142558999Y-111126941D01*
X142563500Y-111118108D01*
X142582206Y-111000000D01*
X142563500Y-110881892D01*
X142509211Y-110775345D01*
X142448385Y-110714519D01*
X142414359Y-110652207D01*
X142419424Y-110581392D01*
X142461971Y-110524556D01*
X142517769Y-110500976D01*
X142591655Y-110489273D01*
X142618316Y-110485051D01*
X142618317Y-110485051D01*
X142628108Y-110483500D01*
X142681382Y-110456355D01*
X142725822Y-110433712D01*
X142725823Y-110433711D01*
X142734655Y-110429211D01*
X142819211Y-110344655D01*
X142873500Y-110238108D01*
X142892206Y-110120000D01*
X142873500Y-110001892D01*
X142835310Y-109926941D01*
X142823712Y-109904178D01*
X142823711Y-109904177D01*
X142819211Y-109895345D01*
X142757447Y-109833581D01*
X142723421Y-109771269D01*
X142728486Y-109700454D01*
X142771033Y-109643618D01*
X142826832Y-109620037D01*
X142868108Y-109613500D01*
X142942991Y-109575345D01*
X142965822Y-109563712D01*
X142965823Y-109563711D01*
X142974655Y-109559211D01*
X143059211Y-109474655D01*
X143079443Y-109434949D01*
X143108999Y-109376941D01*
X143113500Y-109368108D01*
X143132206Y-109250000D01*
X143113500Y-109131892D01*
X143059211Y-109025345D01*
X142974655Y-108940789D01*
X142965823Y-108936289D01*
X142965822Y-108936288D01*
X142902351Y-108903948D01*
X142868108Y-108886500D01*
X142750000Y-108867794D01*
X142631892Y-108886500D01*
X142597649Y-108903948D01*
X142534178Y-108936288D01*
X142534177Y-108936289D01*
X142525345Y-108940789D01*
X142440789Y-109025345D01*
X142386500Y-109131892D01*
X142367794Y-109250000D01*
X142386500Y-109368108D01*
X142391001Y-109376941D01*
X142420558Y-109434949D01*
X142440789Y-109474655D01*
X142502553Y-109536419D01*
X142536579Y-109598731D01*
X142531514Y-109669546D01*
X142488967Y-109726382D01*
X142433168Y-109749963D01*
X142391892Y-109756500D01*
X142378154Y-109763500D01*
X142294178Y-109806288D01*
X142294177Y-109806289D01*
X142285345Y-109810789D01*
X142200789Y-109895345D01*
X142196289Y-109904177D01*
X142196288Y-109904178D01*
X142184690Y-109926941D01*
X142146500Y-110001892D01*
X142127794Y-110120000D01*
X142146500Y-110238108D01*
X142200789Y-110344655D01*
X142261615Y-110405481D01*
X142295641Y-110467793D01*
X142290576Y-110538608D01*
X142248029Y-110595444D01*
X142192231Y-110619024D01*
X142118345Y-110630727D01*
X142091684Y-110634949D01*
X142091683Y-110634949D01*
X142081892Y-110636500D01*
X142051066Y-110652207D01*
X141984178Y-110686288D01*
X141984177Y-110686289D01*
X141975345Y-110690789D01*
X141890789Y-110775345D01*
X141836500Y-110881892D01*
X141817794Y-111000000D01*
X140966368Y-111000000D01*
X140963500Y-110981892D01*
X140909211Y-110875345D01*
X140824655Y-110790789D01*
X140815823Y-110786289D01*
X140815822Y-110786288D01*
X140771381Y-110763644D01*
X140718108Y-110736500D01*
X140600000Y-110717794D01*
X140481892Y-110736500D01*
X140428618Y-110763645D01*
X140384178Y-110786288D01*
X140384177Y-110786289D01*
X140375345Y-110790789D01*
X140290789Y-110875345D01*
X140236500Y-110981892D01*
X140217794Y-111100000D01*
X139121773Y-111100000D01*
X139113712Y-111084178D01*
X139113711Y-111084177D01*
X139109211Y-111075345D01*
X139024655Y-110990789D01*
X139015823Y-110986289D01*
X139015822Y-110986288D01*
X138971381Y-110963644D01*
X138918108Y-110936500D01*
X138800000Y-110917794D01*
X138681892Y-110936500D01*
X138628618Y-110963645D01*
X138584178Y-110986288D01*
X138584177Y-110986289D01*
X138575345Y-110990789D01*
X138490789Y-111075345D01*
X138486289Y-111084177D01*
X138486288Y-111084178D01*
X138473990Y-111108315D01*
X138436500Y-111181892D01*
X138417794Y-111300000D01*
X138066368Y-111300000D01*
X138082206Y-111200000D01*
X138063500Y-111081892D01*
X138026763Y-111009793D01*
X138013712Y-110984178D01*
X138013711Y-110984177D01*
X138009211Y-110975345D01*
X137924655Y-110890789D01*
X137915823Y-110886289D01*
X137915822Y-110886288D01*
X137871382Y-110863645D01*
X137818108Y-110836500D01*
X137700000Y-110817794D01*
X137581892Y-110836500D01*
X137528618Y-110863645D01*
X137484178Y-110886288D01*
X137484177Y-110886289D01*
X137475345Y-110890789D01*
X137390789Y-110975345D01*
X137386289Y-110984177D01*
X137386288Y-110984178D01*
X137373237Y-111009793D01*
X137336500Y-111081892D01*
X137317794Y-111200000D01*
X127500000Y-111200000D01*
X127500000Y-109800000D01*
X128167794Y-109800000D01*
X128186500Y-109918108D01*
X128191001Y-109926941D01*
X128229191Y-110001892D01*
X128240789Y-110024655D01*
X128325345Y-110109211D01*
X128334177Y-110113711D01*
X128334178Y-110113712D01*
X128346519Y-110120000D01*
X128431892Y-110163500D01*
X128550000Y-110182206D01*
X128668108Y-110163500D01*
X128753481Y-110120000D01*
X128765822Y-110113712D01*
X128765823Y-110113711D01*
X128774655Y-110109211D01*
X128859211Y-110024655D01*
X128870810Y-110001892D01*
X128908999Y-109926941D01*
X128913500Y-109918108D01*
X128932206Y-109800000D01*
X128913500Y-109681892D01*
X128879835Y-109615822D01*
X128863712Y-109584178D01*
X128863711Y-109584177D01*
X128859211Y-109575345D01*
X128774655Y-109490789D01*
X128765823Y-109486289D01*
X128765822Y-109486288D01*
X128721381Y-109463644D01*
X128668108Y-109436500D01*
X128550000Y-109417794D01*
X128431892Y-109436500D01*
X128378619Y-109463644D01*
X128334178Y-109486288D01*
X128334177Y-109486289D01*
X128325345Y-109490789D01*
X128240789Y-109575345D01*
X128236289Y-109584177D01*
X128236288Y-109584178D01*
X128220165Y-109615822D01*
X128186500Y-109681892D01*
X128167794Y-109800000D01*
X127500000Y-109800000D01*
X127500000Y-108229895D01*
X133026417Y-108229895D01*
X133045123Y-108348003D01*
X133099412Y-108454550D01*
X133154473Y-108509611D01*
X133188499Y-108571923D01*
X133183434Y-108642738D01*
X133171887Y-108664247D01*
X133170789Y-108665345D01*
X133116500Y-108771892D01*
X133097794Y-108890000D01*
X133116500Y-109008108D01*
X133130967Y-109036500D01*
X133158629Y-109090789D01*
X133170789Y-109114655D01*
X133255345Y-109199211D01*
X133264177Y-109203711D01*
X133264178Y-109203712D01*
X133308619Y-109226356D01*
X133361892Y-109253500D01*
X133371683Y-109255051D01*
X133371684Y-109255051D01*
X133387677Y-109257584D01*
X133413056Y-109261603D01*
X133477208Y-109292015D01*
X133514735Y-109352283D01*
X133519345Y-109386052D01*
X133519345Y-109390207D01*
X133517794Y-109400000D01*
X133536500Y-109518108D01*
X133590789Y-109624655D01*
X133675345Y-109709211D01*
X133684177Y-109713711D01*
X133684178Y-109713712D01*
X133728619Y-109736356D01*
X133781892Y-109763500D01*
X133900000Y-109782206D01*
X134018108Y-109763500D01*
X134071381Y-109736356D01*
X134115822Y-109713712D01*
X134115823Y-109713711D01*
X134124655Y-109709211D01*
X134209211Y-109624655D01*
X134263500Y-109518108D01*
X134282206Y-109400000D01*
X134263500Y-109281892D01*
X134223665Y-109203712D01*
X134213712Y-109184178D01*
X134213711Y-109184177D01*
X134209211Y-109175345D01*
X134124655Y-109090789D01*
X134115823Y-109086289D01*
X134115822Y-109086288D01*
X134071382Y-109063645D01*
X134018108Y-109036500D01*
X134008317Y-109034949D01*
X134008316Y-109034949D01*
X133992323Y-109032416D01*
X133966944Y-109028397D01*
X133902792Y-108997985D01*
X133865265Y-108937717D01*
X133860655Y-108903948D01*
X133860655Y-108899793D01*
X133862206Y-108890000D01*
X133843500Y-108771892D01*
X133789211Y-108665345D01*
X133734150Y-108610284D01*
X133700124Y-108547972D01*
X133705189Y-108477157D01*
X133716736Y-108455648D01*
X133717834Y-108454550D01*
X133772123Y-108348003D01*
X133790829Y-108229895D01*
X133772123Y-108111787D01*
X133723712Y-108016776D01*
X133710608Y-107947000D01*
X133737308Y-107881215D01*
X133761917Y-107857637D01*
X133767314Y-107853716D01*
X133776155Y-107849211D01*
X133860711Y-107764655D01*
X133915000Y-107658108D01*
X133933706Y-107540000D01*
X133915000Y-107421892D01*
X133914981Y-107421856D01*
X133913111Y-107356368D01*
X133949773Y-107295570D01*
X133999933Y-107271351D01*
X133998882Y-107268116D01*
X134008315Y-107265051D01*
X134018108Y-107263500D01*
X134091140Y-107226288D01*
X134115822Y-107213712D01*
X134115823Y-107213711D01*
X134124655Y-107209211D01*
X134209211Y-107124655D01*
X134230114Y-107083632D01*
X134258999Y-107026941D01*
X134263500Y-107018108D01*
X134282206Y-106900000D01*
X134263500Y-106781892D01*
X134226763Y-106709793D01*
X134213712Y-106684178D01*
X134213711Y-106684177D01*
X134209211Y-106675345D01*
X134124655Y-106590789D01*
X134115823Y-106586289D01*
X134115822Y-106586288D01*
X134071381Y-106563644D01*
X134018108Y-106536500D01*
X133900000Y-106517794D01*
X133781892Y-106536500D01*
X133728619Y-106563644D01*
X133684178Y-106586288D01*
X133684177Y-106586289D01*
X133675345Y-106590789D01*
X133590789Y-106675345D01*
X133586289Y-106684177D01*
X133586288Y-106684178D01*
X133573237Y-106709793D01*
X133536500Y-106781892D01*
X133517794Y-106900000D01*
X133536500Y-107018108D01*
X133536519Y-107018144D01*
X133538389Y-107083632D01*
X133501727Y-107144430D01*
X133451567Y-107168649D01*
X133452618Y-107171884D01*
X133443185Y-107174949D01*
X133433392Y-107176500D01*
X133382953Y-107202200D01*
X133335678Y-107226288D01*
X133335677Y-107226289D01*
X133326845Y-107230789D01*
X133242289Y-107315345D01*
X133237789Y-107324177D01*
X133237788Y-107324178D01*
X133215145Y-107368618D01*
X133188000Y-107421892D01*
X133169294Y-107540000D01*
X133188000Y-107658108D01*
X133192501Y-107666941D01*
X133236411Y-107753119D01*
X133249515Y-107822895D01*
X133222815Y-107888680D01*
X133198206Y-107912258D01*
X133192809Y-107916179D01*
X133183968Y-107920684D01*
X133099412Y-108005240D01*
X133045123Y-108111787D01*
X133026417Y-108229895D01*
X127500000Y-108229895D01*
X127500000Y-106700000D01*
X128167794Y-106700000D01*
X128186500Y-106818108D01*
X128191001Y-106826941D01*
X128228227Y-106900000D01*
X128240789Y-106924655D01*
X128325345Y-107009211D01*
X128334177Y-107013711D01*
X128334178Y-107013712D01*
X128378619Y-107036356D01*
X128431892Y-107063500D01*
X128550000Y-107082206D01*
X128668108Y-107063500D01*
X128721381Y-107036356D01*
X128765822Y-107013712D01*
X128765823Y-107013711D01*
X128774655Y-107009211D01*
X128859211Y-106924655D01*
X128871774Y-106900000D01*
X128908999Y-106826941D01*
X128913500Y-106818108D01*
X128932206Y-106700000D01*
X128913500Y-106581892D01*
X128859211Y-106475345D01*
X128774655Y-106390789D01*
X128765823Y-106386289D01*
X128765822Y-106386288D01*
X128721381Y-106363644D01*
X128668108Y-106336500D01*
X128550000Y-106317794D01*
X128431892Y-106336500D01*
X128378619Y-106363644D01*
X128334178Y-106386288D01*
X128334177Y-106386289D01*
X128325345Y-106390789D01*
X128240789Y-106475345D01*
X128186500Y-106581892D01*
X128167794Y-106700000D01*
X127500000Y-106700000D01*
X127500000Y-105926000D01*
X127520002Y-105857879D01*
X127573658Y-105811386D01*
X127626000Y-105800000D01*
X130500000Y-105800000D01*
X130500000Y-105700000D01*
X131667794Y-105700000D01*
X131686500Y-105818108D01*
X131740789Y-105924655D01*
X131825345Y-106009211D01*
X131834177Y-106013711D01*
X131834178Y-106013712D01*
X131878619Y-106036356D01*
X131931892Y-106063500D01*
X132050000Y-106082206D01*
X132168108Y-106063500D01*
X132221382Y-106036355D01*
X132265822Y-106013712D01*
X132265823Y-106013711D01*
X132274655Y-106009211D01*
X132359211Y-105924655D01*
X132413500Y-105818108D01*
X132432206Y-105700000D01*
X132413500Y-105581892D01*
X132359211Y-105475345D01*
X132274655Y-105390789D01*
X132265823Y-105386289D01*
X132265822Y-105386288D01*
X132221381Y-105363644D01*
X132168108Y-105336500D01*
X132050000Y-105317794D01*
X131931892Y-105336500D01*
X131878619Y-105363644D01*
X131834178Y-105386288D01*
X131834177Y-105386289D01*
X131825345Y-105390789D01*
X131740789Y-105475345D01*
X131686500Y-105581892D01*
X131667794Y-105700000D01*
X130500000Y-105700000D01*
X130500000Y-105300000D01*
X133717794Y-105300000D01*
X133736500Y-105418108D01*
X133790789Y-105524655D01*
X133875345Y-105609211D01*
X133884177Y-105613711D01*
X133884178Y-105613712D01*
X133928618Y-105636355D01*
X133981892Y-105663500D01*
X134100000Y-105682206D01*
X134218108Y-105663500D01*
X134271381Y-105636356D01*
X134315822Y-105613712D01*
X134315823Y-105613711D01*
X134324655Y-105609211D01*
X134409211Y-105524655D01*
X134463500Y-105418108D01*
X134482206Y-105300000D01*
X134463500Y-105181892D01*
X134409211Y-105075345D01*
X134324655Y-104990789D01*
X134315823Y-104986289D01*
X134315822Y-104986288D01*
X134271382Y-104963645D01*
X134218108Y-104936500D01*
X134100000Y-104917794D01*
X133981892Y-104936500D01*
X133928619Y-104963644D01*
X133884178Y-104986288D01*
X133884177Y-104986289D01*
X133875345Y-104990789D01*
X133790789Y-105075345D01*
X133736500Y-105181892D01*
X133717794Y-105300000D01*
X130500000Y-105300000D01*
X130500000Y-103730000D01*
X134027794Y-103730000D01*
X134046500Y-103848108D01*
X134100789Y-103954655D01*
X134185345Y-104039211D01*
X134194177Y-104043711D01*
X134194178Y-104043712D01*
X134238619Y-104066356D01*
X134291892Y-104093500D01*
X134410000Y-104112206D01*
X134528108Y-104093500D01*
X134581382Y-104066355D01*
X134625822Y-104043712D01*
X134625823Y-104043711D01*
X134634655Y-104039211D01*
X134719211Y-103954655D01*
X134773500Y-103848108D01*
X134792206Y-103730000D01*
X134773500Y-103611892D01*
X134742187Y-103550437D01*
X134729082Y-103480660D01*
X134755782Y-103414875D01*
X134813809Y-103373968D01*
X134834742Y-103368785D01*
X134868108Y-103363500D01*
X134921382Y-103336355D01*
X134965822Y-103313712D01*
X134965823Y-103313711D01*
X134974655Y-103309211D01*
X135059211Y-103224655D01*
X135113500Y-103118108D01*
X135132206Y-103000000D01*
X135113500Y-102881892D01*
X135059211Y-102775345D01*
X134974655Y-102690789D01*
X134965823Y-102686289D01*
X134965822Y-102686288D01*
X134921381Y-102663644D01*
X134868108Y-102636500D01*
X134750000Y-102617794D01*
X134631892Y-102636500D01*
X134578619Y-102663644D01*
X134534178Y-102686288D01*
X134534177Y-102686289D01*
X134525345Y-102690789D01*
X134440789Y-102775345D01*
X134386500Y-102881892D01*
X134367794Y-103000000D01*
X134386500Y-103118108D01*
X134391001Y-103126941D01*
X134391002Y-103126944D01*
X134417813Y-103179563D01*
X134430918Y-103249340D01*
X134404218Y-103315125D01*
X134346191Y-103356032D01*
X134325258Y-103361215D01*
X134291892Y-103366500D01*
X134261068Y-103382206D01*
X134194178Y-103416288D01*
X134194177Y-103416289D01*
X134185345Y-103420789D01*
X134100789Y-103505345D01*
X134046500Y-103611892D01*
X134027794Y-103730000D01*
X130500000Y-103730000D01*
X130500000Y-102400000D01*
X137917794Y-102400000D01*
X137936500Y-102518108D01*
X137990789Y-102624655D01*
X138075345Y-102709211D01*
X138084177Y-102713711D01*
X138084178Y-102713712D01*
X138128619Y-102736356D01*
X138181892Y-102763500D01*
X138300000Y-102782206D01*
X138418108Y-102763500D01*
X138471381Y-102736356D01*
X138515822Y-102713712D01*
X138515823Y-102713711D01*
X138524655Y-102709211D01*
X138609211Y-102624655D01*
X138663500Y-102518108D01*
X138682206Y-102400000D01*
X138663500Y-102281892D01*
X138647250Y-102250000D01*
X139817794Y-102250000D01*
X139836500Y-102368108D01*
X139890789Y-102474655D01*
X139975345Y-102559211D01*
X139984177Y-102563711D01*
X139984178Y-102563712D01*
X140028619Y-102586356D01*
X140081892Y-102613500D01*
X140200000Y-102632206D01*
X140318108Y-102613500D01*
X140371381Y-102586356D01*
X140415822Y-102563712D01*
X140415823Y-102563711D01*
X140424655Y-102559211D01*
X140509211Y-102474655D01*
X140563500Y-102368108D01*
X140582206Y-102250000D01*
X140563500Y-102131892D01*
X140509211Y-102025345D01*
X140424655Y-101940789D01*
X140415823Y-101936289D01*
X140415822Y-101936288D01*
X140371382Y-101913645D01*
X140344603Y-101900000D01*
X142067794Y-101900000D01*
X142086500Y-102018108D01*
X142098165Y-102041001D01*
X142127106Y-102097800D01*
X142140789Y-102124655D01*
X142225345Y-102209211D01*
X142234177Y-102213711D01*
X142234178Y-102213712D01*
X142278619Y-102236356D01*
X142331892Y-102263500D01*
X142450000Y-102282206D01*
X142568108Y-102263500D01*
X142621381Y-102236356D01*
X142665822Y-102213712D01*
X142665823Y-102213711D01*
X142674655Y-102209211D01*
X142759211Y-102124655D01*
X142772895Y-102097800D01*
X142801835Y-102041001D01*
X142813500Y-102018108D01*
X142832206Y-101900000D01*
X142813500Y-101781892D01*
X142759211Y-101675345D01*
X142674655Y-101590789D01*
X142665823Y-101586289D01*
X142665822Y-101586288D01*
X142581846Y-101543500D01*
X142568108Y-101536500D01*
X142450000Y-101517794D01*
X142331892Y-101536500D01*
X142318154Y-101543500D01*
X142234178Y-101586288D01*
X142234177Y-101586289D01*
X142225345Y-101590789D01*
X142140789Y-101675345D01*
X142086500Y-101781892D01*
X142067794Y-101900000D01*
X140344603Y-101900000D01*
X140318108Y-101886500D01*
X140200000Y-101867794D01*
X140081892Y-101886500D01*
X140028619Y-101913644D01*
X139984178Y-101936288D01*
X139984177Y-101936289D01*
X139975345Y-101940789D01*
X139890789Y-102025345D01*
X139836500Y-102131892D01*
X139817794Y-102250000D01*
X138647250Y-102250000D01*
X138626467Y-102209211D01*
X138613712Y-102184178D01*
X138613711Y-102184177D01*
X138609211Y-102175345D01*
X138524655Y-102090789D01*
X138515823Y-102086289D01*
X138515822Y-102086288D01*
X138471382Y-102063645D01*
X138418108Y-102036500D01*
X138300000Y-102017794D01*
X138181892Y-102036500D01*
X138128618Y-102063645D01*
X138084178Y-102086288D01*
X138084177Y-102086289D01*
X138075345Y-102090789D01*
X137990789Y-102175345D01*
X137986289Y-102184177D01*
X137986288Y-102184178D01*
X137973533Y-102209211D01*
X137936500Y-102281892D01*
X137917794Y-102400000D01*
X130500000Y-102400000D01*
X130500000Y-101900000D01*
X130967794Y-101900000D01*
X130986500Y-102018108D01*
X130998165Y-102041001D01*
X131027106Y-102097800D01*
X131040789Y-102124655D01*
X131125345Y-102209211D01*
X131134177Y-102213711D01*
X131134178Y-102213712D01*
X131178619Y-102236356D01*
X131231892Y-102263500D01*
X131350000Y-102282206D01*
X131468108Y-102263500D01*
X131521381Y-102236356D01*
X131565822Y-102213712D01*
X131565823Y-102213711D01*
X131574655Y-102209211D01*
X131659211Y-102124655D01*
X131672895Y-102097800D01*
X131701835Y-102041001D01*
X131713500Y-102018108D01*
X131732206Y-101900000D01*
X131713500Y-101781892D01*
X131659211Y-101675345D01*
X131574655Y-101590789D01*
X131565823Y-101586289D01*
X131565822Y-101586288D01*
X131481846Y-101543500D01*
X131468108Y-101536500D01*
X131350000Y-101517794D01*
X131231892Y-101536500D01*
X131218154Y-101543500D01*
X131134178Y-101586288D01*
X131134177Y-101586289D01*
X131125345Y-101590789D01*
X131040789Y-101675345D01*
X130986500Y-101781892D01*
X130967794Y-101900000D01*
X130500000Y-101900000D01*
X130500000Y-101180000D01*
X135404294Y-101180000D01*
X135405845Y-101189793D01*
X135413647Y-101239054D01*
X135423000Y-101298108D01*
X135477289Y-101404655D01*
X135561845Y-101489211D01*
X135570677Y-101493711D01*
X135570678Y-101493712D01*
X135615119Y-101516356D01*
X135668392Y-101543500D01*
X135678185Y-101545051D01*
X135776707Y-101560655D01*
X135786500Y-101562206D01*
X135796121Y-101560682D01*
X135864150Y-101580657D01*
X135910643Y-101634313D01*
X135920477Y-101666943D01*
X135936500Y-101768108D01*
X135990789Y-101874655D01*
X136075345Y-101959211D01*
X136084177Y-101963711D01*
X136084178Y-101963712D01*
X136128618Y-101986355D01*
X136181892Y-102013500D01*
X136300000Y-102032206D01*
X136418108Y-102013500D01*
X136471382Y-101986355D01*
X136515822Y-101963712D01*
X136515823Y-101963711D01*
X136524655Y-101959211D01*
X136609211Y-101874655D01*
X136663500Y-101768108D01*
X136682206Y-101650000D01*
X136679722Y-101634313D01*
X136665051Y-101541685D01*
X136663500Y-101531892D01*
X136609211Y-101425345D01*
X136524655Y-101340789D01*
X136515823Y-101336289D01*
X136515822Y-101336288D01*
X136453195Y-101304378D01*
X136418108Y-101286500D01*
X136300000Y-101267794D01*
X136290379Y-101269318D01*
X136222350Y-101249343D01*
X136175857Y-101195687D01*
X136166022Y-101163055D01*
X136151551Y-101071684D01*
X136151551Y-101071683D01*
X136150000Y-101061892D01*
X136104360Y-100972319D01*
X136100212Y-100964178D01*
X136100211Y-100964177D01*
X136095711Y-100955345D01*
X136011155Y-100870789D01*
X136002323Y-100866289D01*
X136002322Y-100866288D01*
X135923221Y-100825984D01*
X135904608Y-100816500D01*
X135786500Y-100797794D01*
X135668392Y-100816500D01*
X135649779Y-100825984D01*
X135570678Y-100866288D01*
X135570677Y-100866289D01*
X135561845Y-100870789D01*
X135477289Y-100955345D01*
X135472789Y-100964177D01*
X135472788Y-100964178D01*
X135468640Y-100972319D01*
X135423000Y-101061892D01*
X135404294Y-101180000D01*
X130500000Y-101180000D01*
X130500000Y-100440000D01*
X129485940Y-100440000D01*
X129417819Y-100419998D01*
X129371326Y-100366342D01*
X129361222Y-100296068D01*
X129362715Y-100289648D01*
X129363500Y-100288108D01*
X129364485Y-100281892D01*
X129365939Y-100272709D01*
X129396349Y-100208555D01*
X129456616Y-100171026D01*
X129510097Y-100167967D01*
X129600000Y-100182206D01*
X129615236Y-100179793D01*
X129659054Y-100172853D01*
X129718108Y-100163500D01*
X129787568Y-100128108D01*
X129815822Y-100113712D01*
X129815823Y-100113711D01*
X129824655Y-100109211D01*
X129909211Y-100024655D01*
X129921774Y-100000000D01*
X129953194Y-99938334D01*
X129963500Y-99918108D01*
X129982206Y-99800000D01*
X129963500Y-99681892D01*
X129935935Y-99627794D01*
X129913712Y-99584178D01*
X129913711Y-99584177D01*
X129909211Y-99575345D01*
X129824655Y-99490789D01*
X129815823Y-99486289D01*
X129815822Y-99486288D01*
X129771382Y-99463645D01*
X129718108Y-99436500D01*
X129600000Y-99417794D01*
X129481892Y-99436500D01*
X129428618Y-99463645D01*
X129384178Y-99486288D01*
X129384177Y-99486289D01*
X129375345Y-99490789D01*
X129290789Y-99575345D01*
X129286289Y-99584177D01*
X129286288Y-99584178D01*
X129264065Y-99627794D01*
X129236500Y-99681892D01*
X129234378Y-99695287D01*
X129234061Y-99697291D01*
X129203651Y-99761445D01*
X129143384Y-99798974D01*
X129089903Y-99802033D01*
X129000000Y-99787794D01*
X128990207Y-99789345D01*
X128962912Y-99793668D01*
X128881892Y-99806500D01*
X128828619Y-99833644D01*
X128784178Y-99856288D01*
X128784177Y-99856289D01*
X128775345Y-99860789D01*
X128690789Y-99945345D01*
X128686289Y-99954177D01*
X128686288Y-99954178D01*
X128681538Y-99963500D01*
X128636500Y-100051892D01*
X128617794Y-100170000D01*
X128619345Y-100179793D01*
X128636500Y-100288108D01*
X128634275Y-100288460D01*
X128635922Y-100346025D01*
X128599263Y-100406825D01*
X128535552Y-100438153D01*
X128514060Y-100440000D01*
X127626000Y-100440000D01*
X127557879Y-100419998D01*
X127511386Y-100366342D01*
X127500000Y-100314000D01*
X127500000Y-97120000D01*
X130717794Y-97120000D01*
X130736500Y-97238108D01*
X130747253Y-97259211D01*
X130783656Y-97330655D01*
X130790789Y-97344655D01*
X130875345Y-97429211D01*
X130884177Y-97433711D01*
X130884180Y-97433713D01*
X130951556Y-97468044D01*
X131003171Y-97516793D01*
X131020236Y-97585708D01*
X130997334Y-97652909D01*
X130951556Y-97692576D01*
X130911345Y-97713065D01*
X130826789Y-97797621D01*
X130772500Y-97904168D01*
X130753794Y-98022276D01*
X130772500Y-98140384D01*
X130826789Y-98246931D01*
X130911345Y-98331487D01*
X130920177Y-98335987D01*
X130920178Y-98335988D01*
X130964618Y-98358631D01*
X131017892Y-98385776D01*
X131027685Y-98387327D01*
X131064697Y-98393189D01*
X131128850Y-98423601D01*
X131166378Y-98483869D01*
X131165364Y-98554859D01*
X131126132Y-98614031D01*
X131087181Y-98635662D01*
X131081892Y-98636500D01*
X131031502Y-98662175D01*
X130984178Y-98686288D01*
X130984177Y-98686289D01*
X130975345Y-98690789D01*
X130890789Y-98775345D01*
X130836500Y-98881892D01*
X130817794Y-99000000D01*
X130836500Y-99118108D01*
X130890789Y-99224655D01*
X130893257Y-99227123D01*
X130915916Y-99290631D01*
X130899834Y-99359782D01*
X130879216Y-99386918D01*
X130840789Y-99425345D01*
X130786500Y-99531892D01*
X130784949Y-99541685D01*
X130771958Y-99623712D01*
X130767794Y-99650000D01*
X130786500Y-99768108D01*
X130802227Y-99798974D01*
X130835399Y-99864076D01*
X130840789Y-99874655D01*
X130925345Y-99959211D01*
X130934177Y-99963711D01*
X130934178Y-99963712D01*
X130967431Y-99980655D01*
X131031892Y-100013500D01*
X131150000Y-100032206D01*
X131268108Y-100013500D01*
X131273866Y-100010566D01*
X131342916Y-100008593D01*
X131403714Y-100045256D01*
X131429914Y-100099522D01*
X131431884Y-100098882D01*
X131434949Y-100108315D01*
X131436500Y-100118108D01*
X131461905Y-100167967D01*
X131483448Y-100210247D01*
X131490789Y-100224655D01*
X131575345Y-100309211D01*
X131584177Y-100313711D01*
X131584178Y-100313712D01*
X131628618Y-100336355D01*
X131681892Y-100363500D01*
X131800000Y-100382206D01*
X131918108Y-100363500D01*
X131971381Y-100336356D01*
X132015822Y-100313712D01*
X132015823Y-100313711D01*
X132024655Y-100309211D01*
X132070905Y-100262961D01*
X132133217Y-100228935D01*
X132204032Y-100234000D01*
X132249095Y-100262961D01*
X132305345Y-100319211D01*
X132314177Y-100323711D01*
X132314178Y-100323712D01*
X132354221Y-100344115D01*
X132411892Y-100373500D01*
X132530000Y-100392206D01*
X132648108Y-100373500D01*
X132705779Y-100344115D01*
X132745822Y-100323712D01*
X132745823Y-100323711D01*
X132754655Y-100319211D01*
X132773866Y-100300000D01*
X134367794Y-100300000D01*
X134386500Y-100418108D01*
X134440789Y-100524655D01*
X134525345Y-100609211D01*
X134534177Y-100613711D01*
X134534178Y-100613712D01*
X134569415Y-100631666D01*
X134631892Y-100663500D01*
X134750000Y-100682206D01*
X134868108Y-100663500D01*
X134930585Y-100631666D01*
X134965822Y-100613712D01*
X134965823Y-100613711D01*
X134974655Y-100609211D01*
X135059211Y-100524655D01*
X135113500Y-100418108D01*
X135116368Y-100400000D01*
X140517794Y-100400000D01*
X140536500Y-100518108D01*
X140590789Y-100624655D01*
X140675345Y-100709211D01*
X140684177Y-100713711D01*
X140684178Y-100713712D01*
X140706550Y-100725111D01*
X140781892Y-100763500D01*
X140900000Y-100782206D01*
X141018108Y-100763500D01*
X141093450Y-100725111D01*
X141115822Y-100713712D01*
X141115823Y-100713711D01*
X141124655Y-100709211D01*
X141209211Y-100624655D01*
X141263500Y-100518108D01*
X141282206Y-100400000D01*
X141263500Y-100281892D01*
X141209211Y-100175345D01*
X141160429Y-100126563D01*
X141137001Y-100083659D01*
X141093273Y-100074799D01*
X141080585Y-100068334D01*
X141018108Y-100036500D01*
X140900000Y-100017794D01*
X140781892Y-100036500D01*
X140764708Y-100045256D01*
X140684178Y-100086288D01*
X140684177Y-100086289D01*
X140675345Y-100090789D01*
X140590789Y-100175345D01*
X140536500Y-100281892D01*
X140517794Y-100400000D01*
X135116368Y-100400000D01*
X135132206Y-100300000D01*
X135113500Y-100181892D01*
X135074792Y-100105924D01*
X135063712Y-100084178D01*
X135063711Y-100084177D01*
X135059211Y-100075345D01*
X134974655Y-99990789D01*
X134965823Y-99986289D01*
X134965822Y-99986288D01*
X134912264Y-99958999D01*
X134868108Y-99936500D01*
X134750000Y-99917794D01*
X134631892Y-99936500D01*
X134587736Y-99958999D01*
X134534178Y-99986288D01*
X134534177Y-99986289D01*
X134525345Y-99990789D01*
X134440789Y-100075345D01*
X134436289Y-100084177D01*
X134436288Y-100084178D01*
X134425208Y-100105924D01*
X134386500Y-100181892D01*
X134367794Y-100300000D01*
X132773866Y-100300000D01*
X132839211Y-100234655D01*
X132844307Y-100224655D01*
X132875467Y-100163500D01*
X132893500Y-100128108D01*
X132912206Y-100010000D01*
X132893500Y-99891892D01*
X132846678Y-99800000D01*
X132843712Y-99794178D01*
X132843711Y-99794177D01*
X132839211Y-99785345D01*
X132754655Y-99700789D01*
X132745823Y-99696289D01*
X132745822Y-99696288D01*
X132692264Y-99668999D01*
X132648108Y-99646500D01*
X132530000Y-99627794D01*
X132411892Y-99646500D01*
X132367736Y-99668999D01*
X132314178Y-99696288D01*
X132314177Y-99696289D01*
X132305345Y-99700789D01*
X132259095Y-99747039D01*
X132196783Y-99781065D01*
X132125968Y-99776000D01*
X132080905Y-99747039D01*
X132024655Y-99690789D01*
X132015823Y-99686289D01*
X132015822Y-99686288D01*
X131971381Y-99663644D01*
X131918108Y-99636500D01*
X131800000Y-99617794D01*
X131681892Y-99636500D01*
X131676134Y-99639434D01*
X131607084Y-99641407D01*
X131546286Y-99604744D01*
X131520086Y-99550478D01*
X131518116Y-99551118D01*
X131515051Y-99541685D01*
X131513500Y-99531892D01*
X131459211Y-99425345D01*
X131456743Y-99422877D01*
X131434084Y-99359369D01*
X131445565Y-99310000D01*
X134007794Y-99310000D01*
X134026500Y-99428108D01*
X134049404Y-99473059D01*
X134056145Y-99486288D01*
X134080789Y-99534655D01*
X134165345Y-99619211D01*
X134174177Y-99623711D01*
X134174178Y-99623712D01*
X134215858Y-99644949D01*
X134271892Y-99673500D01*
X134390000Y-99692206D01*
X134508108Y-99673500D01*
X134564142Y-99644949D01*
X134605822Y-99623712D01*
X134605823Y-99623711D01*
X134614655Y-99619211D01*
X134633866Y-99600000D01*
X141117794Y-99600000D01*
X141136500Y-99718108D01*
X141141001Y-99726941D01*
X141178227Y-99800000D01*
X141190789Y-99824655D01*
X141239571Y-99873437D01*
X141262999Y-99916341D01*
X141306727Y-99925201D01*
X141381892Y-99963500D01*
X141500000Y-99982206D01*
X141618108Y-99963500D01*
X141674142Y-99934949D01*
X141715822Y-99913712D01*
X141715823Y-99913711D01*
X141724655Y-99909211D01*
X141735905Y-99897961D01*
X141798217Y-99863935D01*
X141869032Y-99869000D01*
X141914095Y-99897961D01*
X141925345Y-99909211D01*
X141934177Y-99913711D01*
X141934178Y-99913712D01*
X141975858Y-99934949D01*
X142031892Y-99963500D01*
X142150000Y-99982206D01*
X142268108Y-99963500D01*
X142324142Y-99934949D01*
X142365822Y-99913712D01*
X142365823Y-99913711D01*
X142374655Y-99909211D01*
X142459211Y-99824655D01*
X142471774Y-99800000D01*
X142508999Y-99726941D01*
X142513500Y-99718108D01*
X142532206Y-99600000D01*
X142513500Y-99481892D01*
X142459211Y-99375345D01*
X142374655Y-99290789D01*
X142365823Y-99286289D01*
X142365822Y-99286288D01*
X142320278Y-99263082D01*
X142268108Y-99236500D01*
X142150000Y-99217794D01*
X142031892Y-99236500D01*
X141979722Y-99263082D01*
X141934178Y-99286288D01*
X141934177Y-99286289D01*
X141925345Y-99290789D01*
X141914095Y-99302039D01*
X141851783Y-99336065D01*
X141780968Y-99331000D01*
X141735905Y-99302039D01*
X141724655Y-99290789D01*
X141715823Y-99286289D01*
X141715822Y-99286288D01*
X141670278Y-99263082D01*
X141618108Y-99236500D01*
X141500000Y-99217794D01*
X141381892Y-99236500D01*
X141329722Y-99263082D01*
X141284178Y-99286288D01*
X141284177Y-99286289D01*
X141275345Y-99290789D01*
X141190789Y-99375345D01*
X141136500Y-99481892D01*
X141117794Y-99600000D01*
X134633866Y-99600000D01*
X134699211Y-99534655D01*
X134723856Y-99486288D01*
X134730596Y-99473059D01*
X134753500Y-99428108D01*
X134772206Y-99310000D01*
X134753500Y-99191892D01*
X134726355Y-99138618D01*
X134703712Y-99094178D01*
X134703711Y-99094177D01*
X134699211Y-99085345D01*
X134614655Y-99000789D01*
X134605823Y-98996289D01*
X134605822Y-98996288D01*
X134561382Y-98973645D01*
X134508108Y-98946500D01*
X134390000Y-98927794D01*
X134271892Y-98946500D01*
X134218619Y-98973644D01*
X134174178Y-98996288D01*
X134174177Y-98996289D01*
X134165345Y-99000789D01*
X134080789Y-99085345D01*
X134076289Y-99094177D01*
X134076288Y-99094178D01*
X134053645Y-99138618D01*
X134026500Y-99191892D01*
X134007794Y-99310000D01*
X131445565Y-99310000D01*
X131450166Y-99290218D01*
X131470784Y-99263082D01*
X131509211Y-99224655D01*
X131530406Y-99183059D01*
X131558999Y-99126941D01*
X131563500Y-99118108D01*
X131582206Y-99000000D01*
X131563500Y-98881892D01*
X131509211Y-98775345D01*
X131424655Y-98690789D01*
X131415823Y-98686289D01*
X131415822Y-98686288D01*
X131371381Y-98663644D01*
X131318108Y-98636500D01*
X131271303Y-98629087D01*
X131207150Y-98598675D01*
X131169622Y-98538407D01*
X131170636Y-98467417D01*
X131209868Y-98408245D01*
X131248819Y-98386614D01*
X131254108Y-98385776D01*
X131304498Y-98360101D01*
X131351822Y-98335988D01*
X131351823Y-98335987D01*
X131360655Y-98331487D01*
X131445211Y-98246931D01*
X131499500Y-98140384D01*
X131518206Y-98022276D01*
X131499500Y-97904168D01*
X131445211Y-97797621D01*
X131360655Y-97713065D01*
X131351821Y-97708564D01*
X131351820Y-97708563D01*
X131284444Y-97674232D01*
X131232829Y-97625483D01*
X131215764Y-97556568D01*
X131238666Y-97489367D01*
X131284445Y-97449699D01*
X131315823Y-97433711D01*
X131324655Y-97429211D01*
X131409211Y-97344655D01*
X131416345Y-97330655D01*
X131452747Y-97259211D01*
X131463500Y-97238108D01*
X131482206Y-97120000D01*
X131463500Y-97001892D01*
X131409211Y-96895345D01*
X131324655Y-96810789D01*
X131315823Y-96806289D01*
X131315822Y-96806288D01*
X131265803Y-96780802D01*
X131218108Y-96756500D01*
X131179903Y-96750449D01*
X131115749Y-96720037D01*
X131101095Y-96696503D01*
X131095611Y-96708512D01*
X131035885Y-96746896D01*
X131020096Y-96750449D01*
X130981892Y-96756500D01*
X130934197Y-96780802D01*
X130884178Y-96806288D01*
X130884177Y-96806289D01*
X130875345Y-96810789D01*
X130790789Y-96895345D01*
X130736500Y-97001892D01*
X130717794Y-97120000D01*
X127500000Y-97120000D01*
X127500000Y-96626000D01*
X127520002Y-96557879D01*
X127573658Y-96511386D01*
X127626000Y-96500000D01*
X131000387Y-96500000D01*
X131068508Y-96520002D01*
G37*
%TD.AperFunction*%
%TD*%
M02*
