%TF.GenerationSoftware,KiCad,Pcbnew,(6.0.4)*%
%TF.CreationDate,2023-01-29T14:49:02+00:00*%
%TF.ProjectId,PrettySmallRobot,50726574-7479-4536-9d61-6c6c526f626f,rev?*%
%TF.SameCoordinates,Original*%
%TF.FileFunction,Copper,L3,Inr*%
%TF.FilePolarity,Positive*%
%FSLAX46Y46*%
G04 Gerber Fmt 4.6, Leading zero omitted, Abs format (unit mm)*
G04 Created by KiCad (PCBNEW (6.0.4)) date 2023-01-29 14:49:02*
%MOMM*%
%LPD*%
G01*
G04 APERTURE LIST*
G04 Aperture macros list*
%AMRoundRect*
0 Rectangle with rounded corners*
0 $1 Rounding radius*
0 $2 $3 $4 $5 $6 $7 $8 $9 X,Y pos of 4 corners*
0 Add a 4 corners polygon primitive as box body*
4,1,4,$2,$3,$4,$5,$6,$7,$8,$9,$2,$3,0*
0 Add four circle primitives for the rounded corners*
1,1,$1+$1,$2,$3*
1,1,$1+$1,$4,$5*
1,1,$1+$1,$6,$7*
1,1,$1+$1,$8,$9*
0 Add four rect primitives between the rounded corners*
20,1,$1+$1,$2,$3,$4,$5,0*
20,1,$1+$1,$4,$5,$6,$7,0*
20,1,$1+$1,$6,$7,$8,$9,0*
20,1,$1+$1,$8,$9,$2,$3,0*%
G04 Aperture macros list end*
%TA.AperFunction,ComponentPad*%
%ADD10RoundRect,0.250000X-0.625000X0.350000X-0.625000X-0.350000X0.625000X-0.350000X0.625000X0.350000X0*%
%TD*%
%TA.AperFunction,ComponentPad*%
%ADD11O,1.750000X1.200000*%
%TD*%
%TA.AperFunction,ComponentPad*%
%ADD12O,2.000000X0.900000*%
%TD*%
%TA.AperFunction,ComponentPad*%
%ADD13O,1.700000X0.900000*%
%TD*%
%TA.AperFunction,ComponentPad*%
%ADD14RoundRect,0.250000X0.625000X-0.350000X0.625000X0.350000X-0.625000X0.350000X-0.625000X-0.350000X0*%
%TD*%
%TA.AperFunction,ViaPad*%
%ADD15C,0.460000*%
%TD*%
G04 APERTURE END LIST*
D10*
%TO.N,/MOTORA_OUT1*%
%TO.C,J9*%
X177000000Y-119500000D03*
D11*
%TO.N,/MOTORA_OUT2*%
X177000000Y-121500000D03*
%TD*%
D12*
%TO.N,GND*%
%TO.C,J1*%
X190830000Y-122977503D03*
X190830000Y-114327503D03*
D13*
X195000000Y-122977503D03*
X195000000Y-114327503D03*
%TD*%
D10*
%TO.N,+BATT*%
%TO.C,J10*%
X177000000Y-103000000D03*
D11*
%TO.N,GND*%
X177000000Y-105000000D03*
%TD*%
D14*
%TO.N,/MOTORB_OUT1*%
%TO.C,J8*%
X191000000Y-105000000D03*
D11*
%TO.N,/MOTORB_OUT2*%
X191000000Y-103000000D03*
%TD*%
D15*
%TO.N,Net-(R6-Pad2)*%
X183500000Y-102770000D03*
X183626500Y-103748500D03*
%TO.N,Net-(R5-Pad2)*%
X182920000Y-106200000D03*
X179340000Y-102230000D03*
%TO.N,+BATT*%
X188000000Y-98200000D03*
%TO.N,GND*%
X181500000Y-111900000D03*
X184700000Y-115300000D03*
X182000000Y-107600000D03*
X180300000Y-111300000D03*
X185900000Y-111600000D03*
X178700000Y-116300000D03*
X180000000Y-110300000D03*
X183700000Y-107400000D03*
X176700000Y-116300000D03*
X187100000Y-108800000D03*
X186600000Y-111000000D03*
X179200000Y-113800000D03*
X178500000Y-114100000D03*
X177300000Y-116300000D03*
X181700000Y-118700000D03*
X187200000Y-110400000D03*
X182800000Y-107400000D03*
X192400000Y-103300000D03*
X176700000Y-113900000D03*
X181700000Y-119700000D03*
X177400000Y-114600000D03*
X192700000Y-103900000D03*
X187200000Y-109600000D03*
X177200000Y-114100000D03*
X184300000Y-112800000D03*
X184700000Y-107400000D03*
X180400000Y-108500000D03*
X185100000Y-111900000D03*
X186300000Y-116100000D03*
X185800000Y-107600000D03*
X178000000Y-116300000D03*
X181200000Y-111300000D03*
X181100000Y-107900000D03*
X184500000Y-112300000D03*
X186800000Y-108000000D03*
X180000000Y-109300000D03*
X181500000Y-112600000D03*
X178000000Y-114600000D03*
%TO.N,Net-(J1-PadA5)*%
X191800000Y-119300000D03*
%TO.N,Net-(J1-PadB5)*%
X191800000Y-117500000D03*
%TO.N,+3V3*%
X187633289Y-104232317D03*
X172400000Y-123200000D03*
X188100000Y-118500000D03*
X188700000Y-103544532D03*
X187400000Y-121800000D03*
X188100000Y-119100000D03*
X193100000Y-111800000D03*
X186584294Y-103549480D03*
X185100000Y-112900000D03*
X185600000Y-112300000D03*
X183200000Y-122100000D03*
X194400000Y-102000000D03*
%TO.N,/~{RESET}*%
X180500000Y-113200000D03*
X195116733Y-110029643D03*
%TO.N,/MOTORB_IN1*%
X178725265Y-124590366D03*
%TO.N,/MOTORA_IN1*%
X178900000Y-118200000D03*
%TO.N,/VDDA*%
X181400000Y-113300000D03*
X183800000Y-113500000D03*
X180500000Y-114500000D03*
%TO.N,/VDD3P3*%
X179500000Y-116500000D03*
%TO.N,/BOOT*%
X179200000Y-117400000D03*
X187400000Y-113900000D03*
%TO.N,/MOTORA_IN2*%
X178500000Y-118800000D03*
%TO.N,/MOTORB_IN2*%
X179300000Y-125800000D03*
%TO.N,/VDD_SPI*%
X188000000Y-120000000D03*
%TD*%
%TA.AperFunction,Conductor*%
%TO.N,+3V3*%
G36*
X196942121Y-97521002D02*
G01*
X196988614Y-97574658D01*
X197000000Y-97627000D01*
X197000000Y-126373000D01*
X196979998Y-126441121D01*
X196926342Y-126487614D01*
X196874000Y-126499000D01*
X171177000Y-126499000D01*
X171108879Y-126478998D01*
X171062386Y-126425342D01*
X171051000Y-126373000D01*
X171051000Y-125800000D01*
X178924882Y-125800000D01*
X178943242Y-125915918D01*
X178947743Y-125924752D01*
X178947744Y-125924755D01*
X178969229Y-125966921D01*
X178996523Y-126020489D01*
X179079511Y-126103477D01*
X179133079Y-126130771D01*
X179175245Y-126152256D01*
X179175248Y-126152257D01*
X179184082Y-126156758D01*
X179300000Y-126175118D01*
X179415918Y-126156758D01*
X179424752Y-126152257D01*
X179424755Y-126152256D01*
X179466921Y-126130771D01*
X179520489Y-126103477D01*
X179603477Y-126020489D01*
X179630771Y-125966921D01*
X179652256Y-125924755D01*
X179652257Y-125924752D01*
X179656758Y-125915918D01*
X179675118Y-125800000D01*
X179656758Y-125684082D01*
X179652257Y-125675248D01*
X179652256Y-125675245D01*
X179630771Y-125633079D01*
X179603477Y-125579511D01*
X179520489Y-125496523D01*
X179466921Y-125469229D01*
X179424755Y-125447744D01*
X179424752Y-125447743D01*
X179415918Y-125443242D01*
X179300000Y-125424882D01*
X179184082Y-125443242D01*
X179175248Y-125447743D01*
X179175245Y-125447744D01*
X179133079Y-125469229D01*
X179079511Y-125496523D01*
X178996523Y-125579511D01*
X178969229Y-125633079D01*
X178947744Y-125675245D01*
X178947743Y-125675248D01*
X178943242Y-125684082D01*
X178924882Y-125800000D01*
X171051000Y-125800000D01*
X171051000Y-124590366D01*
X178350147Y-124590366D01*
X178368507Y-124706284D01*
X178373008Y-124715118D01*
X178373009Y-124715121D01*
X178394494Y-124757287D01*
X178421788Y-124810855D01*
X178504776Y-124893843D01*
X178558344Y-124921137D01*
X178600510Y-124942622D01*
X178600513Y-124942623D01*
X178609347Y-124947124D01*
X178725265Y-124965484D01*
X178841183Y-124947124D01*
X178850017Y-124942623D01*
X178850020Y-124942622D01*
X178892186Y-124921137D01*
X178945754Y-124893843D01*
X179028742Y-124810855D01*
X179056036Y-124757287D01*
X179077521Y-124715121D01*
X179077522Y-124715118D01*
X179082023Y-124706284D01*
X179100383Y-124590366D01*
X179082023Y-124474448D01*
X179077522Y-124465614D01*
X179077521Y-124465611D01*
X179056036Y-124423445D01*
X179028742Y-124369877D01*
X178945754Y-124286889D01*
X178892186Y-124259595D01*
X178850020Y-124238110D01*
X178850017Y-124238109D01*
X178841183Y-124233608D01*
X178725265Y-124215248D01*
X178609347Y-124233608D01*
X178600513Y-124238109D01*
X178600510Y-124238110D01*
X178558344Y-124259595D01*
X178504776Y-124286889D01*
X178421788Y-124369877D01*
X178394494Y-124423445D01*
X178373009Y-124465611D01*
X178373008Y-124465614D01*
X178368507Y-124474448D01*
X178350147Y-124590366D01*
X171051000Y-124590366D01*
X171051000Y-122977503D01*
X189697517Y-122977503D01*
X189717365Y-123128261D01*
X189775555Y-123268744D01*
X189868122Y-123389381D01*
X189988759Y-123481948D01*
X190129242Y-123540138D01*
X190242151Y-123555003D01*
X191417849Y-123555003D01*
X191530758Y-123540138D01*
X191671241Y-123481948D01*
X191791878Y-123389381D01*
X191884445Y-123268745D01*
X191942635Y-123128261D01*
X191962483Y-122977503D01*
X194017517Y-122977503D01*
X194037365Y-123128261D01*
X194095555Y-123268744D01*
X194188122Y-123389381D01*
X194308759Y-123481948D01*
X194449242Y-123540138D01*
X194562151Y-123555003D01*
X195437849Y-123555003D01*
X195550758Y-123540138D01*
X195691241Y-123481948D01*
X195811878Y-123389381D01*
X195904445Y-123268745D01*
X195962635Y-123128261D01*
X195982483Y-122977503D01*
X195962635Y-122826745D01*
X195904445Y-122686262D01*
X195811878Y-122565625D01*
X195691241Y-122473058D01*
X195550758Y-122414868D01*
X195437849Y-122400003D01*
X194562151Y-122400003D01*
X194449242Y-122414868D01*
X194308759Y-122473058D01*
X194188122Y-122565625D01*
X194095555Y-122686261D01*
X194037365Y-122826745D01*
X194017517Y-122977503D01*
X191962483Y-122977503D01*
X191942635Y-122826745D01*
X191884445Y-122686262D01*
X191791878Y-122565625D01*
X191671241Y-122473058D01*
X191530758Y-122414868D01*
X191417849Y-122400003D01*
X190242151Y-122400003D01*
X190129242Y-122414868D01*
X189988759Y-122473058D01*
X189868122Y-122565625D01*
X189775555Y-122686261D01*
X189717365Y-122826745D01*
X189697517Y-122977503D01*
X171051000Y-122977503D01*
X171051000Y-121539610D01*
X175993619Y-121539610D01*
X175994859Y-121546826D01*
X175994859Y-121546828D01*
X176001558Y-121585812D01*
X176022348Y-121706802D01*
X176088768Y-121862900D01*
X176093101Y-121868788D01*
X176093104Y-121868793D01*
X176184976Y-121993633D01*
X176184980Y-121993637D01*
X176189318Y-121999532D01*
X176318603Y-122109367D01*
X176469687Y-122186515D01*
X176476797Y-122188255D01*
X176476800Y-122188256D01*
X176558706Y-122208298D01*
X176634468Y-122226837D01*
X176641815Y-122227293D01*
X176643215Y-122227380D01*
X176643228Y-122227380D01*
X176645156Y-122227500D01*
X177317483Y-122227500D01*
X177384435Y-122219694D01*
X177436231Y-122213656D01*
X177436234Y-122213655D01*
X177443501Y-122212808D01*
X177450376Y-122210312D01*
X177450378Y-122210312D01*
X177596086Y-122157422D01*
X177596087Y-122157422D01*
X177602962Y-122154926D01*
X177744832Y-122061912D01*
X177861498Y-121938757D01*
X177946703Y-121792065D01*
X177964624Y-121732897D01*
X177993755Y-121636712D01*
X177995877Y-121629706D01*
X177999122Y-121577394D01*
X190765420Y-121577394D01*
X190795233Y-121725246D01*
X190863707Y-121859635D01*
X190965799Y-121970659D01*
X191012367Y-121999532D01*
X191086687Y-122045613D01*
X191086690Y-122045614D01*
X191093986Y-122050138D01*
X191238825Y-122092218D01*
X191245803Y-122092730D01*
X191247208Y-122092834D01*
X191247219Y-122092834D01*
X191249515Y-122093003D01*
X191357785Y-122093003D01*
X191362030Y-122092421D01*
X191362037Y-122092421D01*
X191422522Y-122084135D01*
X191469432Y-122077709D01*
X191533145Y-122050138D01*
X191599971Y-122021220D01*
X191599973Y-122021219D01*
X191607855Y-122017808D01*
X191725070Y-121922889D01*
X191812442Y-121799945D01*
X191863533Y-121658035D01*
X191865614Y-121629706D01*
X191873951Y-121516175D01*
X191874580Y-121507612D01*
X191866533Y-121467701D01*
X191846464Y-121368178D01*
X191844767Y-121359760D01*
X191776293Y-121225371D01*
X191674201Y-121114347D01*
X191588553Y-121061243D01*
X191553313Y-121039393D01*
X191553310Y-121039392D01*
X191546014Y-121034868D01*
X191401175Y-120992788D01*
X191394197Y-120992276D01*
X191392792Y-120992172D01*
X191392781Y-120992172D01*
X191390485Y-120992003D01*
X191282215Y-120992003D01*
X191277970Y-120992585D01*
X191277963Y-120992585D01*
X191220420Y-121000468D01*
X191170568Y-121007297D01*
X191162684Y-121010709D01*
X191162683Y-121010709D01*
X191040029Y-121063786D01*
X191040027Y-121063787D01*
X191032145Y-121067198D01*
X190914930Y-121162117D01*
X190827558Y-121285061D01*
X190776467Y-121426971D01*
X190765420Y-121577394D01*
X177999122Y-121577394D01*
X178006381Y-121460390D01*
X177977652Y-121293198D01*
X177911232Y-121137100D01*
X177906899Y-121131212D01*
X177906896Y-121131207D01*
X177815024Y-121006367D01*
X177815020Y-121006363D01*
X177810682Y-121000468D01*
X177681397Y-120890633D01*
X177530313Y-120813485D01*
X177523203Y-120811745D01*
X177523200Y-120811744D01*
X177441294Y-120791702D01*
X177365532Y-120773163D01*
X177358185Y-120772707D01*
X177356785Y-120772620D01*
X177356772Y-120772620D01*
X177354844Y-120772500D01*
X176682517Y-120772500D01*
X176615565Y-120780306D01*
X176563769Y-120786344D01*
X176563766Y-120786345D01*
X176556499Y-120787192D01*
X176549624Y-120789688D01*
X176549622Y-120789688D01*
X176403914Y-120842578D01*
X176397038Y-120845074D01*
X176255168Y-120938088D01*
X176138502Y-121061243D01*
X176053297Y-121207935D01*
X176051176Y-121214939D01*
X176051174Y-121214943D01*
X176027473Y-121293198D01*
X176004123Y-121370294D01*
X175993619Y-121539610D01*
X171051000Y-121539610D01*
X171051000Y-116800000D01*
X172950000Y-116800000D01*
X176500000Y-116800000D01*
X176500000Y-116786453D01*
X176502879Y-116773217D01*
X176505072Y-116773694D01*
X176520002Y-116722847D01*
X176573658Y-116676354D01*
X176645711Y-116666519D01*
X176700000Y-116675118D01*
X176815918Y-116656758D01*
X176824752Y-116652257D01*
X176824755Y-116652256D01*
X176911649Y-116607981D01*
X176920489Y-116603477D01*
X176926604Y-116597362D01*
X176992805Y-116573741D01*
X177061957Y-116589820D01*
X177072862Y-116596828D01*
X177079511Y-116603477D01*
X177088351Y-116607981D01*
X177175245Y-116652256D01*
X177175248Y-116652257D01*
X177184082Y-116656758D01*
X177300000Y-116675118D01*
X177415918Y-116656758D01*
X177424752Y-116652257D01*
X177424755Y-116652256D01*
X177478728Y-116624755D01*
X177520489Y-116603477D01*
X177560905Y-116563061D01*
X177623217Y-116529035D01*
X177694032Y-116534100D01*
X177739095Y-116563061D01*
X177779511Y-116603477D01*
X177821272Y-116624755D01*
X177875245Y-116652256D01*
X177875248Y-116652257D01*
X177884082Y-116656758D01*
X178000000Y-116675118D01*
X178115918Y-116656758D01*
X178124752Y-116652257D01*
X178124755Y-116652256D01*
X178178728Y-116624755D01*
X178220489Y-116603477D01*
X178260905Y-116563061D01*
X178323217Y-116529035D01*
X178394032Y-116534100D01*
X178439095Y-116563061D01*
X178479511Y-116603477D01*
X178521272Y-116624755D01*
X178575245Y-116652256D01*
X178575248Y-116652257D01*
X178584082Y-116656758D01*
X178700000Y-116675118D01*
X178815918Y-116656758D01*
X178824752Y-116652257D01*
X178824755Y-116652256D01*
X178878728Y-116624755D01*
X178920489Y-116603477D01*
X178941404Y-116582562D01*
X179003716Y-116548536D01*
X179074531Y-116553601D01*
X179131367Y-116596148D01*
X179141962Y-116616570D01*
X179143242Y-116615918D01*
X179196523Y-116720489D01*
X179279511Y-116803477D01*
X179279300Y-116803688D01*
X179318650Y-116854718D01*
X179324727Y-116925454D01*
X179291596Y-116988246D01*
X179229776Y-117023158D01*
X179206198Y-117025864D01*
X179200000Y-117024882D01*
X179084082Y-117043242D01*
X179075248Y-117047743D01*
X179075245Y-117047744D01*
X179033079Y-117069229D01*
X178979511Y-117096523D01*
X178896523Y-117179511D01*
X178884280Y-117203540D01*
X178847744Y-117275245D01*
X178847743Y-117275248D01*
X178843242Y-117284082D01*
X178824882Y-117400000D01*
X178843242Y-117515918D01*
X178847743Y-117524752D01*
X178847744Y-117524755D01*
X178869229Y-117566921D01*
X178896523Y-117620489D01*
X178903540Y-117627506D01*
X178909364Y-117635522D01*
X178906718Y-117637444D01*
X178932612Y-117684864D01*
X178927547Y-117755679D01*
X178885000Y-117812515D01*
X178829202Y-117836096D01*
X178784082Y-117843242D01*
X178775248Y-117847743D01*
X178775245Y-117847744D01*
X178733079Y-117869229D01*
X178679511Y-117896523D01*
X178596523Y-117979511D01*
X178569229Y-118033079D01*
X178547744Y-118075245D01*
X178547743Y-118075248D01*
X178543242Y-118084082D01*
X178524882Y-118200000D01*
X178526433Y-118209792D01*
X178539309Y-118291085D01*
X178530210Y-118361496D01*
X178484488Y-118415810D01*
X178434572Y-118435245D01*
X178384082Y-118443242D01*
X178375248Y-118447743D01*
X178375245Y-118447744D01*
X178333079Y-118469229D01*
X178279511Y-118496523D01*
X178196523Y-118579511D01*
X178189204Y-118593876D01*
X178147744Y-118675245D01*
X178147743Y-118675248D01*
X178143242Y-118684082D01*
X178124882Y-118800000D01*
X178126433Y-118809792D01*
X178126433Y-118813305D01*
X178106431Y-118881426D01*
X178052775Y-118927919D01*
X177982501Y-118938023D01*
X177917921Y-118908529D01*
X177911415Y-118902478D01*
X177854616Y-118845778D01*
X177854615Y-118845778D01*
X177847247Y-118838422D01*
X177779755Y-118805431D01*
X177743124Y-118787525D01*
X177743123Y-118787525D01*
X177734339Y-118783231D01*
X177724664Y-118781820D01*
X177724662Y-118781819D01*
X177665307Y-118773160D01*
X177665303Y-118773160D01*
X177660781Y-118772500D01*
X177002520Y-118772500D01*
X176339220Y-118772501D01*
X176265021Y-118783422D01*
X176251200Y-118790208D01*
X176161558Y-118834220D01*
X176161557Y-118834221D01*
X176152210Y-118838810D01*
X176063422Y-118927753D01*
X176058850Y-118937107D01*
X176020266Y-119016041D01*
X176008231Y-119040661D01*
X176006820Y-119050336D01*
X176006819Y-119050338D01*
X176000091Y-119096460D01*
X175997500Y-119114219D01*
X175997501Y-119885780D01*
X176008422Y-119959979D01*
X176028072Y-120000000D01*
X176058951Y-120062893D01*
X176063810Y-120072790D01*
X176152753Y-120161578D01*
X176220245Y-120194569D01*
X176256439Y-120212261D01*
X176265661Y-120216769D01*
X176275336Y-120218180D01*
X176275338Y-120218181D01*
X176334693Y-120226840D01*
X176334697Y-120226840D01*
X176339219Y-120227500D01*
X176997480Y-120227500D01*
X177660780Y-120227499D01*
X177734979Y-120216578D01*
X177837688Y-120166150D01*
X177838442Y-120165780D01*
X177838443Y-120165779D01*
X177847790Y-120161190D01*
X177936578Y-120072247D01*
X177991769Y-119959339D01*
X177997437Y-119920489D01*
X178001840Y-119890307D01*
X178001840Y-119890303D01*
X178002500Y-119885781D01*
X178002500Y-119700000D01*
X181324882Y-119700000D01*
X181343242Y-119815918D01*
X181347743Y-119824752D01*
X181347744Y-119824755D01*
X181369229Y-119866921D01*
X181396523Y-119920489D01*
X181479511Y-120003477D01*
X181533079Y-120030771D01*
X181575245Y-120052256D01*
X181575248Y-120052257D01*
X181584082Y-120056758D01*
X181700000Y-120075118D01*
X181815918Y-120056758D01*
X181824752Y-120052257D01*
X181824755Y-120052256D01*
X181866921Y-120030771D01*
X181920489Y-120003477D01*
X181923966Y-120000000D01*
X187624882Y-120000000D01*
X187643242Y-120115918D01*
X187647743Y-120124752D01*
X187647744Y-120124755D01*
X187666309Y-120161190D01*
X187696523Y-120220489D01*
X187779511Y-120303477D01*
X187833079Y-120330771D01*
X187875245Y-120352256D01*
X187875248Y-120352257D01*
X187884082Y-120356758D01*
X188000000Y-120375118D01*
X188115918Y-120356758D01*
X188124752Y-120352257D01*
X188124755Y-120352256D01*
X188166921Y-120330771D01*
X188220489Y-120303477D01*
X188303477Y-120220489D01*
X188333691Y-120161190D01*
X188352256Y-120124755D01*
X188352257Y-120124752D01*
X188356758Y-120115918D01*
X188375118Y-120000000D01*
X188356758Y-119884082D01*
X188352257Y-119875248D01*
X188352256Y-119875245D01*
X188322027Y-119815918D01*
X188303477Y-119779511D01*
X188220489Y-119696523D01*
X188166921Y-119669229D01*
X188124755Y-119647744D01*
X188124752Y-119647743D01*
X188115918Y-119643242D01*
X188000000Y-119624882D01*
X187884082Y-119643242D01*
X187875248Y-119647743D01*
X187875245Y-119647744D01*
X187833079Y-119669229D01*
X187779511Y-119696523D01*
X187696523Y-119779511D01*
X187677973Y-119815918D01*
X187647744Y-119875245D01*
X187647743Y-119875248D01*
X187643242Y-119884082D01*
X187624882Y-120000000D01*
X181923966Y-120000000D01*
X182003477Y-119920489D01*
X182030771Y-119866921D01*
X182052256Y-119824755D01*
X182052257Y-119824752D01*
X182056758Y-119815918D01*
X182075118Y-119700000D01*
X182056758Y-119584082D01*
X182052257Y-119575248D01*
X182052256Y-119575245D01*
X182019851Y-119511648D01*
X182003477Y-119479511D01*
X181920489Y-119396523D01*
X181866921Y-119369229D01*
X181824755Y-119347744D01*
X181824752Y-119347743D01*
X181815918Y-119343242D01*
X181700000Y-119324882D01*
X181584082Y-119343242D01*
X181575248Y-119347743D01*
X181575245Y-119347744D01*
X181533079Y-119369229D01*
X181479511Y-119396523D01*
X181396523Y-119479511D01*
X181380149Y-119511648D01*
X181347744Y-119575245D01*
X181347743Y-119575248D01*
X181343242Y-119584082D01*
X181324882Y-119700000D01*
X178002500Y-119700000D01*
X178002499Y-119300000D01*
X191424882Y-119300000D01*
X191443242Y-119415918D01*
X191447743Y-119424752D01*
X191447744Y-119424755D01*
X191469229Y-119466921D01*
X191496523Y-119520489D01*
X191579511Y-119603477D01*
X191621521Y-119624882D01*
X191675245Y-119652256D01*
X191675248Y-119652257D01*
X191684082Y-119656758D01*
X191800000Y-119675118D01*
X191915918Y-119656758D01*
X191924752Y-119652257D01*
X191924755Y-119652256D01*
X191978479Y-119624882D01*
X192020489Y-119603477D01*
X192103477Y-119520489D01*
X192130771Y-119466921D01*
X192152256Y-119424755D01*
X192152257Y-119424752D01*
X192156758Y-119415918D01*
X192175118Y-119300000D01*
X192156758Y-119184082D01*
X192152257Y-119175248D01*
X192152256Y-119175245D01*
X192115688Y-119103477D01*
X192103477Y-119079511D01*
X192020489Y-118996523D01*
X191966921Y-118969229D01*
X191924755Y-118947744D01*
X191924752Y-118947743D01*
X191915918Y-118943242D01*
X191800000Y-118924882D01*
X191684082Y-118943242D01*
X191675248Y-118947743D01*
X191675245Y-118947744D01*
X191633079Y-118969229D01*
X191579511Y-118996523D01*
X191496523Y-119079511D01*
X191484312Y-119103477D01*
X191447744Y-119175245D01*
X191447743Y-119175248D01*
X191443242Y-119184082D01*
X191424882Y-119300000D01*
X178002499Y-119300000D01*
X178002499Y-119130655D01*
X178022501Y-119062534D01*
X178076157Y-119016041D01*
X178146431Y-119005937D01*
X178211011Y-119035430D01*
X178217594Y-119041560D01*
X178279511Y-119103477D01*
X178309569Y-119118792D01*
X178375245Y-119152256D01*
X178375248Y-119152257D01*
X178384082Y-119156758D01*
X178500000Y-119175118D01*
X178615918Y-119156758D01*
X178624752Y-119152257D01*
X178624755Y-119152256D01*
X178690431Y-119118792D01*
X178720489Y-119103477D01*
X178803477Y-119020489D01*
X178842836Y-118943242D01*
X178852256Y-118924755D01*
X178852257Y-118924752D01*
X178856758Y-118915918D01*
X178875118Y-118800000D01*
X178860691Y-118708914D01*
X178861843Y-118700000D01*
X181324882Y-118700000D01*
X181343242Y-118815918D01*
X181347743Y-118824752D01*
X181347744Y-118824755D01*
X181352567Y-118834220D01*
X181396523Y-118920489D01*
X181479511Y-119003477D01*
X181526671Y-119027506D01*
X181575245Y-119052256D01*
X181575248Y-119052257D01*
X181584082Y-119056758D01*
X181700000Y-119075118D01*
X181815918Y-119056758D01*
X181824752Y-119052257D01*
X181824755Y-119052256D01*
X181873329Y-119027506D01*
X181920489Y-119003477D01*
X182003477Y-118920489D01*
X182047433Y-118834220D01*
X182052256Y-118824755D01*
X182052257Y-118824752D01*
X182056758Y-118815918D01*
X182075118Y-118700000D01*
X182056758Y-118584082D01*
X182052257Y-118575248D01*
X182052256Y-118575245D01*
X182015688Y-118503477D01*
X182003477Y-118479511D01*
X181920489Y-118396523D01*
X181851744Y-118361496D01*
X181824755Y-118347744D01*
X181824752Y-118347743D01*
X181815918Y-118343242D01*
X181700000Y-118324882D01*
X181584082Y-118343242D01*
X181575248Y-118347743D01*
X181575245Y-118347744D01*
X181548256Y-118361496D01*
X181479511Y-118396523D01*
X181396523Y-118479511D01*
X181384312Y-118503477D01*
X181347744Y-118575245D01*
X181347743Y-118575248D01*
X181343242Y-118584082D01*
X181324882Y-118700000D01*
X178861843Y-118700000D01*
X178869790Y-118638504D01*
X178915512Y-118584190D01*
X178965428Y-118564755D01*
X179015918Y-118556758D01*
X179024752Y-118552257D01*
X179024755Y-118552256D01*
X179066921Y-118530771D01*
X179120489Y-118503477D01*
X179203477Y-118420489D01*
X179242836Y-118343242D01*
X179252256Y-118324755D01*
X179252257Y-118324752D01*
X179256758Y-118315918D01*
X179275118Y-118200000D01*
X179256758Y-118084082D01*
X179252257Y-118075248D01*
X179252256Y-118075245D01*
X179230771Y-118033079D01*
X179203477Y-117979511D01*
X179196459Y-117972493D01*
X179190636Y-117964478D01*
X179193282Y-117962556D01*
X179167388Y-117915136D01*
X179172453Y-117844321D01*
X179215000Y-117787485D01*
X179270798Y-117763904D01*
X179315918Y-117756758D01*
X179324752Y-117752257D01*
X179324755Y-117752256D01*
X179373329Y-117727506D01*
X179420489Y-117703477D01*
X179503477Y-117620489D01*
X179530771Y-117566921D01*
X179552256Y-117524755D01*
X179552257Y-117524752D01*
X179556758Y-117515918D01*
X179559279Y-117500000D01*
X191424882Y-117500000D01*
X191443242Y-117615918D01*
X191447743Y-117624752D01*
X191447744Y-117624755D01*
X191469229Y-117666921D01*
X191496523Y-117720489D01*
X191579511Y-117803477D01*
X191621521Y-117824882D01*
X191675245Y-117852256D01*
X191675248Y-117852257D01*
X191684082Y-117856758D01*
X191800000Y-117875118D01*
X191915918Y-117856758D01*
X191924752Y-117852257D01*
X191924755Y-117852256D01*
X191978479Y-117824882D01*
X192020489Y-117803477D01*
X192103477Y-117720489D01*
X192130771Y-117666921D01*
X192152256Y-117624755D01*
X192152257Y-117624752D01*
X192156758Y-117615918D01*
X192175118Y-117500000D01*
X192156758Y-117384082D01*
X192152257Y-117375248D01*
X192152256Y-117375245D01*
X192110796Y-117293876D01*
X192103477Y-117279511D01*
X192020489Y-117196523D01*
X191966921Y-117169229D01*
X191924755Y-117147744D01*
X191924752Y-117147743D01*
X191915918Y-117143242D01*
X191800000Y-117124882D01*
X191684082Y-117143242D01*
X191675248Y-117147743D01*
X191675245Y-117147744D01*
X191633079Y-117169229D01*
X191579511Y-117196523D01*
X191496523Y-117279511D01*
X191489204Y-117293876D01*
X191447744Y-117375245D01*
X191447743Y-117375248D01*
X191443242Y-117384082D01*
X191424882Y-117500000D01*
X179559279Y-117500000D01*
X179575118Y-117400000D01*
X179556758Y-117284082D01*
X179552257Y-117275248D01*
X179552256Y-117275245D01*
X179515720Y-117203540D01*
X179503477Y-117179511D01*
X179420489Y-117096523D01*
X179420700Y-117096312D01*
X179381350Y-117045282D01*
X179375273Y-116974546D01*
X179408404Y-116911754D01*
X179470224Y-116876842D01*
X179493802Y-116874136D01*
X179500000Y-116875118D01*
X179615918Y-116856758D01*
X179624752Y-116852257D01*
X179624755Y-116852256D01*
X179666921Y-116830771D01*
X179720489Y-116803477D01*
X179803477Y-116720489D01*
X179838243Y-116652256D01*
X179852256Y-116624755D01*
X179852257Y-116624752D01*
X179856758Y-116615918D01*
X179875118Y-116500000D01*
X179856758Y-116384082D01*
X179852257Y-116375248D01*
X179852256Y-116375245D01*
X179820542Y-116313003D01*
X179803477Y-116279511D01*
X179720489Y-116196523D01*
X179666921Y-116169229D01*
X179624755Y-116147744D01*
X179624752Y-116147743D01*
X179615918Y-116143242D01*
X179500000Y-116124882D01*
X179384082Y-116143242D01*
X179375248Y-116147743D01*
X179375245Y-116147744D01*
X179333079Y-116169229D01*
X179279511Y-116196523D01*
X179258596Y-116217438D01*
X179196284Y-116251464D01*
X179125469Y-116246399D01*
X179068633Y-116203852D01*
X179058038Y-116183430D01*
X179056758Y-116184082D01*
X179013917Y-116100000D01*
X185924882Y-116100000D01*
X185943242Y-116215918D01*
X185947743Y-116224752D01*
X185947744Y-116224755D01*
X185961353Y-116251464D01*
X185996523Y-116320489D01*
X186079511Y-116403477D01*
X186133079Y-116430771D01*
X186175245Y-116452256D01*
X186175248Y-116452257D01*
X186184082Y-116456758D01*
X186300000Y-116475118D01*
X186415918Y-116456758D01*
X186424752Y-116452257D01*
X186424755Y-116452256D01*
X186466921Y-116430771D01*
X186520489Y-116403477D01*
X186603477Y-116320489D01*
X186638647Y-116251464D01*
X186652256Y-116224755D01*
X186652257Y-116224752D01*
X186656758Y-116215918D01*
X186675118Y-116100000D01*
X186656758Y-115984082D01*
X186652257Y-115975248D01*
X186652256Y-115975245D01*
X186626340Y-115924382D01*
X186603477Y-115879511D01*
X186521360Y-115797394D01*
X190765420Y-115797394D01*
X190767117Y-115805809D01*
X190767117Y-115805812D01*
X190779954Y-115869472D01*
X190795233Y-115945246D01*
X190863707Y-116079635D01*
X190965799Y-116190659D01*
X191029893Y-116230399D01*
X191086687Y-116265613D01*
X191086690Y-116265614D01*
X191093986Y-116270138D01*
X191238825Y-116312218D01*
X191245803Y-116312730D01*
X191247208Y-116312834D01*
X191247219Y-116312834D01*
X191249515Y-116313003D01*
X191357785Y-116313003D01*
X191362030Y-116312421D01*
X191362037Y-116312421D01*
X191422522Y-116304135D01*
X191469432Y-116297709D01*
X191491055Y-116288352D01*
X191599971Y-116241220D01*
X191599973Y-116241219D01*
X191607855Y-116237808D01*
X191725070Y-116142889D01*
X191812442Y-116019945D01*
X191863533Y-115878035D01*
X191874580Y-115727612D01*
X191844767Y-115579760D01*
X191776293Y-115445371D01*
X191674201Y-115334347D01*
X191592654Y-115283786D01*
X191553313Y-115259393D01*
X191553310Y-115259392D01*
X191546014Y-115254868D01*
X191401175Y-115212788D01*
X191394197Y-115212276D01*
X191392792Y-115212172D01*
X191392781Y-115212172D01*
X191390485Y-115212003D01*
X191282215Y-115212003D01*
X191277970Y-115212585D01*
X191277963Y-115212585D01*
X191217478Y-115220871D01*
X191170568Y-115227297D01*
X191162684Y-115230709D01*
X191162683Y-115230709D01*
X191040029Y-115283786D01*
X191040027Y-115283787D01*
X191032145Y-115287198D01*
X190914930Y-115382117D01*
X190827558Y-115505061D01*
X190776467Y-115646971D01*
X190765420Y-115797394D01*
X186521360Y-115797394D01*
X186520489Y-115796523D01*
X186466921Y-115769229D01*
X186424755Y-115747744D01*
X186424752Y-115747743D01*
X186415918Y-115743242D01*
X186300000Y-115724882D01*
X186184082Y-115743242D01*
X186175248Y-115747743D01*
X186175245Y-115747744D01*
X186133079Y-115769229D01*
X186079511Y-115796523D01*
X185996523Y-115879511D01*
X185973660Y-115924382D01*
X185947744Y-115975245D01*
X185947743Y-115975248D01*
X185943242Y-115984082D01*
X185924882Y-116100000D01*
X179013917Y-116100000D01*
X179003477Y-116079511D01*
X178920489Y-115996523D01*
X178866921Y-115969229D01*
X178824755Y-115947744D01*
X178824752Y-115947743D01*
X178815918Y-115943242D01*
X178700000Y-115924882D01*
X178584082Y-115943242D01*
X178575248Y-115947743D01*
X178575245Y-115947744D01*
X178533079Y-115969229D01*
X178479511Y-115996523D01*
X178439095Y-116036939D01*
X178376783Y-116070965D01*
X178305968Y-116065900D01*
X178260905Y-116036939D01*
X178220489Y-115996523D01*
X178166921Y-115969229D01*
X178124755Y-115947744D01*
X178124752Y-115947743D01*
X178115918Y-115943242D01*
X178000000Y-115924882D01*
X177884082Y-115943242D01*
X177875248Y-115947743D01*
X177875245Y-115947744D01*
X177833079Y-115969229D01*
X177779511Y-115996523D01*
X177739095Y-116036939D01*
X177676783Y-116070965D01*
X177605968Y-116065900D01*
X177560905Y-116036939D01*
X177520489Y-115996523D01*
X177466921Y-115969229D01*
X177424755Y-115947744D01*
X177424752Y-115947743D01*
X177415918Y-115943242D01*
X177300000Y-115924882D01*
X177184082Y-115943242D01*
X177175248Y-115947743D01*
X177175245Y-115947744D01*
X177121272Y-115975245D01*
X177079511Y-115996523D01*
X177073396Y-116002638D01*
X177007195Y-116026259D01*
X176938043Y-116010180D01*
X176927138Y-116003172D01*
X176920489Y-115996523D01*
X176878728Y-115975245D01*
X176824755Y-115947744D01*
X176824752Y-115947743D01*
X176815918Y-115943242D01*
X176700000Y-115924882D01*
X176645710Y-115933481D01*
X176575301Y-115924382D01*
X176520986Y-115878660D01*
X176500000Y-115809032D01*
X176500000Y-115300000D01*
X184324882Y-115300000D01*
X184343242Y-115415918D01*
X184347743Y-115424752D01*
X184347744Y-115424755D01*
X184358249Y-115445371D01*
X184396523Y-115520489D01*
X184479511Y-115603477D01*
X184533079Y-115630771D01*
X184575245Y-115652256D01*
X184575248Y-115652257D01*
X184584082Y-115656758D01*
X184700000Y-115675118D01*
X184815918Y-115656758D01*
X184824752Y-115652257D01*
X184824755Y-115652256D01*
X184866921Y-115630771D01*
X184920489Y-115603477D01*
X185003477Y-115520489D01*
X185041751Y-115445371D01*
X185052256Y-115424755D01*
X185052257Y-115424752D01*
X185056758Y-115415918D01*
X185075118Y-115300000D01*
X185056758Y-115184082D01*
X185052257Y-115175248D01*
X185052256Y-115175245D01*
X185030771Y-115133079D01*
X185003477Y-115079511D01*
X184920489Y-114996523D01*
X184866921Y-114969229D01*
X184824755Y-114947744D01*
X184824752Y-114947743D01*
X184815918Y-114943242D01*
X184700000Y-114924882D01*
X184584082Y-114943242D01*
X184575248Y-114947743D01*
X184575245Y-114947744D01*
X184533079Y-114969229D01*
X184479511Y-114996523D01*
X184396523Y-115079511D01*
X184369229Y-115133079D01*
X184347744Y-115175245D01*
X184347743Y-115175248D01*
X184343242Y-115184082D01*
X184324882Y-115300000D01*
X176500000Y-115300000D01*
X176500000Y-114390968D01*
X176520002Y-114322847D01*
X176573658Y-114276354D01*
X176645711Y-114266519D01*
X176700000Y-114275118D01*
X176772138Y-114263692D01*
X176842547Y-114272791D01*
X176892890Y-114313359D01*
X176896523Y-114320489D01*
X176979511Y-114403477D01*
X176986590Y-114407084D01*
X177029275Y-114462441D01*
X177036308Y-114527862D01*
X177024882Y-114600000D01*
X177043242Y-114715918D01*
X177047743Y-114724752D01*
X177047744Y-114724755D01*
X177069229Y-114766921D01*
X177096523Y-114820489D01*
X177179511Y-114903477D01*
X177221521Y-114924882D01*
X177275245Y-114952256D01*
X177275248Y-114952257D01*
X177284082Y-114956758D01*
X177400000Y-114975118D01*
X177515918Y-114956758D01*
X177524752Y-114952257D01*
X177524755Y-114952256D01*
X177611649Y-114907981D01*
X177620489Y-114903477D01*
X177626604Y-114897362D01*
X177692805Y-114873741D01*
X177761957Y-114889820D01*
X177772862Y-114896828D01*
X177779511Y-114903477D01*
X177788351Y-114907981D01*
X177875245Y-114952256D01*
X177875248Y-114952257D01*
X177884082Y-114956758D01*
X178000000Y-114975118D01*
X178115918Y-114956758D01*
X178124752Y-114952257D01*
X178124755Y-114952256D01*
X178178479Y-114924882D01*
X178220489Y-114903477D01*
X178303477Y-114820489D01*
X178330771Y-114766921D01*
X178352256Y-114724755D01*
X178352257Y-114724752D01*
X178356758Y-114715918D01*
X178375118Y-114600000D01*
X178374530Y-114596287D01*
X178393569Y-114531446D01*
X178429860Y-114500000D01*
X180124882Y-114500000D01*
X180143242Y-114615918D01*
X180147743Y-114624752D01*
X180147744Y-114624755D01*
X180148020Y-114625296D01*
X180196523Y-114720489D01*
X180279511Y-114803477D01*
X180325519Y-114826919D01*
X180375245Y-114852256D01*
X180375248Y-114852257D01*
X180384082Y-114856758D01*
X180500000Y-114875118D01*
X180615918Y-114856758D01*
X180624752Y-114852257D01*
X180624755Y-114852256D01*
X180674481Y-114826919D01*
X180720489Y-114803477D01*
X180803477Y-114720489D01*
X180851980Y-114625296D01*
X180852256Y-114624755D01*
X180852257Y-114624752D01*
X180856758Y-114615918D01*
X180875118Y-114500000D01*
X180856758Y-114384082D01*
X180852257Y-114375248D01*
X180852256Y-114375245D01*
X180827930Y-114327503D01*
X189697517Y-114327503D01*
X189717365Y-114478261D01*
X189775555Y-114618744D01*
X189868122Y-114739381D01*
X189988759Y-114831948D01*
X190129242Y-114890138D01*
X190242151Y-114905003D01*
X191417849Y-114905003D01*
X191530758Y-114890138D01*
X191671241Y-114831948D01*
X191791878Y-114739381D01*
X191884445Y-114618745D01*
X191942635Y-114478261D01*
X191962483Y-114327503D01*
X194017517Y-114327503D01*
X194037365Y-114478261D01*
X194095555Y-114618744D01*
X194188122Y-114739381D01*
X194308759Y-114831948D01*
X194449242Y-114890138D01*
X194562151Y-114905003D01*
X195437849Y-114905003D01*
X195550758Y-114890138D01*
X195691241Y-114831948D01*
X195811878Y-114739381D01*
X195904445Y-114618745D01*
X195962635Y-114478261D01*
X195982483Y-114327503D01*
X195962635Y-114176745D01*
X195904445Y-114036262D01*
X195811878Y-113915625D01*
X195691241Y-113823058D01*
X195550758Y-113764868D01*
X195437849Y-113750003D01*
X194562151Y-113750003D01*
X194449242Y-113764868D01*
X194308759Y-113823058D01*
X194188122Y-113915625D01*
X194095555Y-114036261D01*
X194037365Y-114176745D01*
X194017517Y-114327503D01*
X191962483Y-114327503D01*
X191942635Y-114176745D01*
X191884445Y-114036262D01*
X191791878Y-113915625D01*
X191671241Y-113823058D01*
X191530758Y-113764868D01*
X191417849Y-113750003D01*
X190242151Y-113750003D01*
X190129242Y-113764868D01*
X189988759Y-113823058D01*
X189868122Y-113915625D01*
X189775555Y-114036261D01*
X189717365Y-114176745D01*
X189697517Y-114327503D01*
X180827930Y-114327503D01*
X180827296Y-114326259D01*
X180803477Y-114279511D01*
X180720489Y-114196523D01*
X180665596Y-114168554D01*
X180624755Y-114147744D01*
X180624752Y-114147743D01*
X180615918Y-114143242D01*
X180500000Y-114124882D01*
X180384082Y-114143242D01*
X180375248Y-114147743D01*
X180375245Y-114147744D01*
X180334404Y-114168554D01*
X180279511Y-114196523D01*
X180196523Y-114279511D01*
X180172704Y-114326259D01*
X180147744Y-114375245D01*
X180147743Y-114375248D01*
X180143242Y-114384082D01*
X180124882Y-114500000D01*
X178429860Y-114500000D01*
X178447225Y-114484953D01*
X178495624Y-114474425D01*
X178500000Y-114475118D01*
X178615918Y-114456758D01*
X178624752Y-114452257D01*
X178624755Y-114452256D01*
X178671627Y-114428373D01*
X178720489Y-114403477D01*
X178803477Y-114320489D01*
X178856758Y-114215918D01*
X178858309Y-114206124D01*
X178858551Y-114205380D01*
X178898624Y-114146774D01*
X178964021Y-114119137D01*
X179035586Y-114132048D01*
X179084082Y-114156758D01*
X179200000Y-114175118D01*
X179315918Y-114156758D01*
X179324752Y-114152257D01*
X179324755Y-114152256D01*
X179378479Y-114124882D01*
X179420489Y-114103477D01*
X179503477Y-114020489D01*
X179530771Y-113966921D01*
X179552256Y-113924755D01*
X179552257Y-113924752D01*
X179556758Y-113915918D01*
X179559279Y-113900000D01*
X187024882Y-113900000D01*
X187043242Y-114015918D01*
X187047743Y-114024752D01*
X187047744Y-114024755D01*
X187057496Y-114043894D01*
X187096523Y-114120489D01*
X187179511Y-114203477D01*
X187221268Y-114224753D01*
X187275245Y-114252256D01*
X187275248Y-114252257D01*
X187284082Y-114256758D01*
X187400000Y-114275118D01*
X187515918Y-114256758D01*
X187524752Y-114252257D01*
X187524755Y-114252256D01*
X187578732Y-114224753D01*
X187620489Y-114203477D01*
X187703477Y-114120489D01*
X187742504Y-114043894D01*
X187752256Y-114024755D01*
X187752257Y-114024752D01*
X187756758Y-114015918D01*
X187775118Y-113900000D01*
X187756758Y-113784082D01*
X187752257Y-113775248D01*
X187752256Y-113775245D01*
X187710796Y-113693876D01*
X187703477Y-113679511D01*
X187620489Y-113596523D01*
X187566921Y-113569229D01*
X187524755Y-113547744D01*
X187524752Y-113547743D01*
X187515918Y-113543242D01*
X187400000Y-113524882D01*
X187284082Y-113543242D01*
X187275248Y-113547743D01*
X187275245Y-113547744D01*
X187233079Y-113569229D01*
X187179511Y-113596523D01*
X187096523Y-113679511D01*
X187089204Y-113693876D01*
X187047744Y-113775245D01*
X187047743Y-113775248D01*
X187043242Y-113784082D01*
X187024882Y-113900000D01*
X179559279Y-113900000D01*
X179575118Y-113800000D01*
X179556758Y-113684082D01*
X179552257Y-113675248D01*
X179552256Y-113675245D01*
X179517983Y-113607981D01*
X179503477Y-113579511D01*
X179420489Y-113496523D01*
X179366921Y-113469229D01*
X179324755Y-113447744D01*
X179324752Y-113447743D01*
X179315918Y-113443242D01*
X179200000Y-113424882D01*
X179084082Y-113443242D01*
X179075248Y-113447743D01*
X179075245Y-113447744D01*
X179033079Y-113469229D01*
X178979511Y-113496523D01*
X178896523Y-113579511D01*
X178843242Y-113684082D01*
X178841691Y-113693876D01*
X178841449Y-113694620D01*
X178801376Y-113753226D01*
X178735979Y-113780863D01*
X178664415Y-113767952D01*
X178651746Y-113761497D01*
X178615918Y-113743242D01*
X178500000Y-113724882D01*
X178384082Y-113743242D01*
X178375248Y-113747743D01*
X178375245Y-113747744D01*
X178343754Y-113763790D01*
X178279511Y-113796523D01*
X178196523Y-113879511D01*
X178180684Y-113910597D01*
X178147744Y-113975245D01*
X178147743Y-113975248D01*
X178143242Y-113984082D01*
X178124882Y-114100000D01*
X178125470Y-114103713D01*
X178106431Y-114168554D01*
X178052775Y-114215047D01*
X178004376Y-114225575D01*
X178000000Y-114224882D01*
X177884082Y-114243242D01*
X177875248Y-114247743D01*
X177875245Y-114247744D01*
X177826671Y-114272494D01*
X177779511Y-114296523D01*
X177773396Y-114302638D01*
X177707195Y-114326259D01*
X177638043Y-114310180D01*
X177627135Y-114303169D01*
X177620489Y-114296523D01*
X177613408Y-114292915D01*
X177570724Y-114237556D01*
X177563692Y-114172138D01*
X177575118Y-114100000D01*
X177556758Y-113984082D01*
X177552257Y-113975248D01*
X177552256Y-113975245D01*
X177519316Y-113910597D01*
X177503477Y-113879511D01*
X177420489Y-113796523D01*
X177356246Y-113763790D01*
X177324755Y-113747744D01*
X177324752Y-113747743D01*
X177315918Y-113743242D01*
X177200000Y-113724882D01*
X177127862Y-113736308D01*
X177057453Y-113727209D01*
X177007110Y-113686641D01*
X177003477Y-113679511D01*
X176920489Y-113596523D01*
X176866921Y-113569229D01*
X176824755Y-113547744D01*
X176824752Y-113547743D01*
X176815918Y-113543242D01*
X176700000Y-113524882D01*
X176645710Y-113533481D01*
X176575301Y-113524382D01*
X176520986Y-113478660D01*
X176500000Y-113409032D01*
X176500000Y-111300000D01*
X179924882Y-111300000D01*
X179943242Y-111415918D01*
X179947743Y-111424752D01*
X179947744Y-111424755D01*
X179950284Y-111429739D01*
X179996523Y-111520489D01*
X180079511Y-111603477D01*
X180131307Y-111629868D01*
X180175245Y-111652256D01*
X180175248Y-111652257D01*
X180184082Y-111656758D01*
X180300000Y-111675118D01*
X180415918Y-111656758D01*
X180424752Y-111652257D01*
X180424755Y-111652256D01*
X180468693Y-111629868D01*
X180520489Y-111603477D01*
X180603477Y-111520489D01*
X180637733Y-111453257D01*
X180686481Y-111401641D01*
X180755396Y-111384575D01*
X180822597Y-111407475D01*
X180862267Y-111453257D01*
X180896523Y-111520489D01*
X180979511Y-111603477D01*
X181075919Y-111652599D01*
X181127533Y-111701346D01*
X181144599Y-111770261D01*
X181143164Y-111784572D01*
X181124882Y-111900000D01*
X181143242Y-112015918D01*
X181147743Y-112024752D01*
X181147744Y-112024755D01*
X181169229Y-112066921D01*
X181196523Y-112120489D01*
X181236939Y-112160905D01*
X181270965Y-112223217D01*
X181265900Y-112294032D01*
X181236939Y-112339095D01*
X181196523Y-112379511D01*
X181182963Y-112406125D01*
X181147744Y-112475245D01*
X181147743Y-112475248D01*
X181143242Y-112484082D01*
X181124882Y-112600000D01*
X181143242Y-112715918D01*
X181147743Y-112724752D01*
X181147744Y-112724755D01*
X181169229Y-112766921D01*
X181196523Y-112820489D01*
X181202686Y-112826652D01*
X181226319Y-112892889D01*
X181210239Y-112962041D01*
X181179499Y-112996511D01*
X181179511Y-112996523D01*
X181096523Y-113079511D01*
X181086315Y-113099545D01*
X181037569Y-113151159D01*
X180968654Y-113168226D01*
X180901453Y-113145326D01*
X180857740Y-113090285D01*
X180856758Y-113084082D01*
X180803477Y-112979511D01*
X180720489Y-112896523D01*
X180666921Y-112869229D01*
X180624755Y-112847744D01*
X180624752Y-112847743D01*
X180615918Y-112843242D01*
X180500000Y-112824882D01*
X180384082Y-112843242D01*
X180375248Y-112847743D01*
X180375245Y-112847744D01*
X180333079Y-112869229D01*
X180279511Y-112896523D01*
X180196523Y-112979511D01*
X180180149Y-113011648D01*
X180147744Y-113075245D01*
X180147743Y-113075248D01*
X180143242Y-113084082D01*
X180124882Y-113200000D01*
X180143242Y-113315918D01*
X180147743Y-113324752D01*
X180147744Y-113324755D01*
X180162989Y-113354674D01*
X180196523Y-113420489D01*
X180279511Y-113503477D01*
X180320540Y-113524382D01*
X180375245Y-113552256D01*
X180375248Y-113552257D01*
X180384082Y-113556758D01*
X180500000Y-113575118D01*
X180615918Y-113556758D01*
X180624752Y-113552257D01*
X180624755Y-113552256D01*
X180679460Y-113524382D01*
X180720489Y-113503477D01*
X180803477Y-113420489D01*
X180813685Y-113400455D01*
X180862431Y-113348841D01*
X180931346Y-113331774D01*
X180998547Y-113354674D01*
X181042260Y-113409715D01*
X181043242Y-113415918D01*
X181096523Y-113520489D01*
X181179511Y-113603477D01*
X181221272Y-113624755D01*
X181275245Y-113652256D01*
X181275248Y-113652257D01*
X181284082Y-113656758D01*
X181400000Y-113675118D01*
X181515918Y-113656758D01*
X181524752Y-113652257D01*
X181524755Y-113652256D01*
X181578728Y-113624755D01*
X181620489Y-113603477D01*
X181703477Y-113520489D01*
X181713917Y-113500000D01*
X183424882Y-113500000D01*
X183443242Y-113615918D01*
X183447743Y-113624752D01*
X183447744Y-113624755D01*
X183461757Y-113652256D01*
X183496523Y-113720489D01*
X183579511Y-113803477D01*
X183633079Y-113830771D01*
X183675245Y-113852256D01*
X183675248Y-113852257D01*
X183684082Y-113856758D01*
X183800000Y-113875118D01*
X183915918Y-113856758D01*
X183924752Y-113852257D01*
X183924755Y-113852256D01*
X183966921Y-113830771D01*
X184020489Y-113803477D01*
X184103477Y-113720489D01*
X184138243Y-113652256D01*
X184152256Y-113624755D01*
X184152257Y-113624752D01*
X184156758Y-113615918D01*
X184175118Y-113500000D01*
X184156758Y-113384082D01*
X184140631Y-113352430D01*
X184127527Y-113282655D01*
X184154227Y-113216870D01*
X184212255Y-113175964D01*
X184272607Y-113170780D01*
X184290205Y-113173567D01*
X184290208Y-113173567D01*
X184300000Y-113175118D01*
X184415918Y-113156758D01*
X184424752Y-113152257D01*
X184424755Y-113152256D01*
X184480139Y-113124036D01*
X184520489Y-113103477D01*
X184603477Y-113020489D01*
X184645528Y-112937959D01*
X184652256Y-112924755D01*
X184652257Y-112924752D01*
X184656758Y-112915918D01*
X184675118Y-112800000D01*
X184663692Y-112727862D01*
X184672791Y-112657453D01*
X184713359Y-112607110D01*
X184720489Y-112603477D01*
X184803477Y-112520489D01*
X184843190Y-112442547D01*
X184852256Y-112424755D01*
X184852257Y-112424752D01*
X184856758Y-112415918D01*
X184864755Y-112365428D01*
X184895168Y-112301276D01*
X184955436Y-112263749D01*
X185008914Y-112260691D01*
X185100000Y-112275118D01*
X185215918Y-112256758D01*
X185224752Y-112252257D01*
X185224755Y-112252256D01*
X185266921Y-112230771D01*
X185320489Y-112203477D01*
X185403477Y-112120489D01*
X185430771Y-112066921D01*
X185452256Y-112024755D01*
X185452257Y-112024752D01*
X185456758Y-112015918D01*
X185463904Y-111970798D01*
X185494316Y-111906646D01*
X185554584Y-111869119D01*
X185625573Y-111870132D01*
X185662984Y-111892692D01*
X185664478Y-111890636D01*
X185672493Y-111896459D01*
X185679511Y-111903477D01*
X185721521Y-111924882D01*
X185775245Y-111952256D01*
X185775248Y-111952257D01*
X185784082Y-111956758D01*
X185900000Y-111975118D01*
X186015918Y-111956758D01*
X186024752Y-111952257D01*
X186024755Y-111952256D01*
X186078479Y-111924882D01*
X186120489Y-111903477D01*
X186203477Y-111820489D01*
X186230771Y-111766921D01*
X186252256Y-111724755D01*
X186252257Y-111724752D01*
X186256758Y-111715918D01*
X186275118Y-111600000D01*
X186256758Y-111484082D01*
X186254062Y-111478790D01*
X186252096Y-111410032D01*
X186288756Y-111349233D01*
X186352468Y-111317906D01*
X186423002Y-111325997D01*
X186431159Y-111329793D01*
X186451475Y-111340144D01*
X186484082Y-111356758D01*
X186600000Y-111375118D01*
X186715918Y-111356758D01*
X186724752Y-111352257D01*
X186724755Y-111352256D01*
X186768840Y-111329793D01*
X186820489Y-111303477D01*
X186903477Y-111220489D01*
X186941052Y-111146743D01*
X186952256Y-111124755D01*
X186952257Y-111124752D01*
X186956758Y-111115918D01*
X186975118Y-111000000D01*
X186959926Y-110904085D01*
X186969025Y-110833676D01*
X187014747Y-110779361D01*
X187082575Y-110758388D01*
X187104081Y-110759926D01*
X187200000Y-110775118D01*
X187315918Y-110756758D01*
X187324752Y-110752257D01*
X187324755Y-110752256D01*
X187366921Y-110730771D01*
X187420489Y-110703477D01*
X187503477Y-110620489D01*
X187550854Y-110527506D01*
X187552256Y-110524755D01*
X187552257Y-110524752D01*
X187556758Y-110515918D01*
X187575118Y-110400000D01*
X187556758Y-110284082D01*
X187552257Y-110275248D01*
X187552256Y-110275245D01*
X187510796Y-110193876D01*
X187503477Y-110179511D01*
X187420489Y-110096523D01*
X187420848Y-110096164D01*
X187381946Y-110045715D01*
X187380565Y-110029643D01*
X194741615Y-110029643D01*
X194759975Y-110145561D01*
X194764476Y-110154395D01*
X194764477Y-110154398D01*
X194777273Y-110179511D01*
X194813256Y-110250132D01*
X194896244Y-110333120D01*
X194949812Y-110360414D01*
X194991978Y-110381899D01*
X194991981Y-110381900D01*
X195000815Y-110386401D01*
X195116733Y-110404761D01*
X195232651Y-110386401D01*
X195241485Y-110381900D01*
X195241488Y-110381899D01*
X195283654Y-110360414D01*
X195337222Y-110333120D01*
X195420210Y-110250132D01*
X195456193Y-110179511D01*
X195468989Y-110154398D01*
X195468990Y-110154395D01*
X195473491Y-110145561D01*
X195491851Y-110029643D01*
X195473491Y-109913725D01*
X195468990Y-109904891D01*
X195468989Y-109904888D01*
X195447504Y-109862722D01*
X195420210Y-109809154D01*
X195337222Y-109726166D01*
X195283654Y-109698872D01*
X195241488Y-109677387D01*
X195241485Y-109677386D01*
X195232651Y-109672885D01*
X195116733Y-109654525D01*
X195000815Y-109672885D01*
X194991981Y-109677386D01*
X194991978Y-109677387D01*
X194949812Y-109698872D01*
X194896244Y-109726166D01*
X194813256Y-109809154D01*
X194785962Y-109862722D01*
X194764477Y-109904888D01*
X194764476Y-109904891D01*
X194759975Y-109913725D01*
X194741615Y-110029643D01*
X187380565Y-110029643D01*
X187375869Y-109974979D01*
X187409000Y-109912187D01*
X187417001Y-109905254D01*
X187420489Y-109903477D01*
X187503477Y-109820489D01*
X187530771Y-109766921D01*
X187552256Y-109724755D01*
X187552257Y-109724752D01*
X187556758Y-109715918D01*
X187575118Y-109600000D01*
X187556758Y-109484082D01*
X187552257Y-109475248D01*
X187552256Y-109475245D01*
X187522027Y-109415918D01*
X187503477Y-109379511D01*
X187420489Y-109296523D01*
X187380879Y-109276341D01*
X187329264Y-109227592D01*
X187312198Y-109158677D01*
X187335099Y-109091476D01*
X187348987Y-109074979D01*
X187403477Y-109020489D01*
X187442836Y-108943242D01*
X187452256Y-108924755D01*
X187452257Y-108924752D01*
X187456758Y-108915918D01*
X187475118Y-108800000D01*
X187456758Y-108684082D01*
X187452257Y-108675248D01*
X187452256Y-108675245D01*
X187422027Y-108615918D01*
X187403477Y-108579511D01*
X187320489Y-108496523D01*
X187266921Y-108469229D01*
X187224755Y-108447744D01*
X187224752Y-108447743D01*
X187215918Y-108443242D01*
X187170798Y-108436096D01*
X187106646Y-108405684D01*
X187069119Y-108345416D01*
X187070132Y-108274427D01*
X187092692Y-108237016D01*
X187090636Y-108235522D01*
X187096460Y-108227506D01*
X187103477Y-108220489D01*
X187142836Y-108143242D01*
X187152256Y-108124755D01*
X187152257Y-108124752D01*
X187156758Y-108115918D01*
X187175118Y-108000000D01*
X187156758Y-107884082D01*
X187152257Y-107875248D01*
X187152256Y-107875245D01*
X187110796Y-107793876D01*
X187103477Y-107779511D01*
X187020489Y-107696523D01*
X186946074Y-107658607D01*
X186924755Y-107647744D01*
X186924752Y-107647743D01*
X186915918Y-107643242D01*
X186800000Y-107624882D01*
X186684082Y-107643242D01*
X186675248Y-107647743D01*
X186675245Y-107647744D01*
X186653926Y-107658607D01*
X186579511Y-107696523D01*
X186496523Y-107779511D01*
X186489204Y-107793876D01*
X186447744Y-107875245D01*
X186447743Y-107875248D01*
X186443242Y-107884082D01*
X186424882Y-108000000D01*
X186443242Y-108115918D01*
X186447743Y-108124752D01*
X186447744Y-108124755D01*
X186457164Y-108143242D01*
X186496523Y-108220489D01*
X186579511Y-108303477D01*
X186633079Y-108330771D01*
X186675245Y-108352256D01*
X186675248Y-108352257D01*
X186684082Y-108356758D01*
X186729202Y-108363904D01*
X186793354Y-108394316D01*
X186830881Y-108454584D01*
X186829868Y-108525573D01*
X186807308Y-108562984D01*
X186809364Y-108564478D01*
X186803541Y-108572493D01*
X186796523Y-108579511D01*
X186777973Y-108615918D01*
X186747744Y-108675245D01*
X186747743Y-108675248D01*
X186743242Y-108684082D01*
X186724882Y-108800000D01*
X186743242Y-108915918D01*
X186747743Y-108924752D01*
X186747744Y-108924755D01*
X186757164Y-108943242D01*
X186796523Y-109020489D01*
X186879511Y-109103477D01*
X186919121Y-109123659D01*
X186970736Y-109172408D01*
X186987802Y-109241323D01*
X186964901Y-109308524D01*
X186951013Y-109325021D01*
X186896523Y-109379511D01*
X186877973Y-109415918D01*
X186847744Y-109475245D01*
X186847743Y-109475248D01*
X186843242Y-109484082D01*
X186824882Y-109600000D01*
X186843242Y-109715918D01*
X186847743Y-109724752D01*
X186847744Y-109724755D01*
X186869229Y-109766921D01*
X186896523Y-109820489D01*
X186979511Y-109903477D01*
X186979152Y-109903836D01*
X187018054Y-109954285D01*
X187024131Y-110025021D01*
X186991000Y-110087813D01*
X186982999Y-110094746D01*
X186979511Y-110096523D01*
X186896523Y-110179511D01*
X186889204Y-110193876D01*
X186847744Y-110275245D01*
X186847743Y-110275248D01*
X186843242Y-110284082D01*
X186824882Y-110400000D01*
X186840074Y-110495915D01*
X186830975Y-110566324D01*
X186785253Y-110620639D01*
X186717425Y-110641612D01*
X186695919Y-110640074D01*
X186600000Y-110624882D01*
X186484082Y-110643242D01*
X186475248Y-110647743D01*
X186475245Y-110647744D01*
X186433079Y-110669229D01*
X186379511Y-110696523D01*
X186296523Y-110779511D01*
X186269229Y-110833079D01*
X186247744Y-110875245D01*
X186247743Y-110875248D01*
X186243242Y-110884082D01*
X186224882Y-111000000D01*
X186243242Y-111115918D01*
X186245938Y-111121210D01*
X186247904Y-111189968D01*
X186211244Y-111250767D01*
X186147532Y-111282094D01*
X186076998Y-111274003D01*
X186068841Y-111270207D01*
X186048525Y-111259856D01*
X186015918Y-111243242D01*
X185900000Y-111224882D01*
X185784082Y-111243242D01*
X185775248Y-111247743D01*
X185775245Y-111247744D01*
X185733079Y-111269229D01*
X185679511Y-111296523D01*
X185596523Y-111379511D01*
X185582275Y-111407475D01*
X185547744Y-111475245D01*
X185547743Y-111475248D01*
X185543242Y-111484082D01*
X185541691Y-111493876D01*
X185536096Y-111529201D01*
X185505684Y-111593354D01*
X185445416Y-111630881D01*
X185374427Y-111629868D01*
X185337016Y-111607308D01*
X185335522Y-111609364D01*
X185327506Y-111603540D01*
X185320489Y-111596523D01*
X185266921Y-111569229D01*
X185224755Y-111547744D01*
X185224752Y-111547743D01*
X185215918Y-111543242D01*
X185100000Y-111524882D01*
X184984082Y-111543242D01*
X184975248Y-111547743D01*
X184975245Y-111547744D01*
X184933079Y-111569229D01*
X184879511Y-111596523D01*
X184796523Y-111679511D01*
X184777973Y-111715918D01*
X184747744Y-111775245D01*
X184747743Y-111775248D01*
X184743242Y-111784082D01*
X184741691Y-111793875D01*
X184735245Y-111834572D01*
X184704832Y-111898724D01*
X184644564Y-111936251D01*
X184591086Y-111939309D01*
X184500000Y-111924882D01*
X184384082Y-111943242D01*
X184375248Y-111947743D01*
X184375245Y-111947744D01*
X184333079Y-111969229D01*
X184279511Y-111996523D01*
X184196523Y-112079511D01*
X184180149Y-112111648D01*
X184147744Y-112175245D01*
X184147743Y-112175248D01*
X184143242Y-112184082D01*
X184124882Y-112300000D01*
X184136308Y-112372138D01*
X184127209Y-112442547D01*
X184086641Y-112492890D01*
X184079511Y-112496523D01*
X183996523Y-112579511D01*
X183969229Y-112633079D01*
X183947744Y-112675245D01*
X183947743Y-112675248D01*
X183943242Y-112684082D01*
X183924882Y-112800000D01*
X183943242Y-112915918D01*
X183959369Y-112947570D01*
X183972473Y-113017345D01*
X183945773Y-113083130D01*
X183887745Y-113124036D01*
X183827393Y-113129220D01*
X183809795Y-113126433D01*
X183809792Y-113126433D01*
X183800000Y-113124882D01*
X183684082Y-113143242D01*
X183675248Y-113147743D01*
X183675245Y-113147744D01*
X183635048Y-113168226D01*
X183579511Y-113196523D01*
X183496523Y-113279511D01*
X183477973Y-113315918D01*
X183447744Y-113375245D01*
X183447743Y-113375248D01*
X183443242Y-113384082D01*
X183424882Y-113500000D01*
X181713917Y-113500000D01*
X181742836Y-113443242D01*
X181752256Y-113424755D01*
X181752257Y-113424752D01*
X181756758Y-113415918D01*
X181775118Y-113300000D01*
X181756758Y-113184082D01*
X181752257Y-113175248D01*
X181752256Y-113175245D01*
X181715688Y-113103477D01*
X181703477Y-113079511D01*
X181697314Y-113073348D01*
X181673681Y-113007111D01*
X181689761Y-112937959D01*
X181720501Y-112903489D01*
X181720489Y-112903477D01*
X181803477Y-112820489D01*
X181830771Y-112766921D01*
X181852256Y-112724755D01*
X181852257Y-112724752D01*
X181856758Y-112715918D01*
X181875118Y-112600000D01*
X181856758Y-112484082D01*
X181852257Y-112475248D01*
X181852256Y-112475245D01*
X181817037Y-112406125D01*
X181803477Y-112379511D01*
X181763061Y-112339095D01*
X181729035Y-112276783D01*
X181734100Y-112205968D01*
X181763061Y-112160905D01*
X181803477Y-112120489D01*
X181830771Y-112066921D01*
X181852256Y-112024755D01*
X181852257Y-112024752D01*
X181856758Y-112015918D01*
X181875118Y-111900000D01*
X181856758Y-111784082D01*
X181852257Y-111775248D01*
X181852256Y-111775245D01*
X181822027Y-111715918D01*
X181803477Y-111679511D01*
X181720489Y-111596523D01*
X181624081Y-111547401D01*
X181572467Y-111498654D01*
X181555401Y-111429739D01*
X181556836Y-111415424D01*
X181565883Y-111358309D01*
X181575118Y-111300000D01*
X181556758Y-111184082D01*
X181552257Y-111175248D01*
X181552256Y-111175245D01*
X181522027Y-111115918D01*
X181503477Y-111079511D01*
X181420489Y-110996523D01*
X181366921Y-110969229D01*
X181324755Y-110947744D01*
X181324752Y-110947743D01*
X181315918Y-110943242D01*
X181200000Y-110924882D01*
X181084082Y-110943242D01*
X181075248Y-110947743D01*
X181075245Y-110947744D01*
X181033079Y-110969229D01*
X180979511Y-110996523D01*
X180896523Y-111079511D01*
X180862267Y-111146743D01*
X180813519Y-111198359D01*
X180744604Y-111215425D01*
X180677403Y-111192525D01*
X180637733Y-111146743D01*
X180603477Y-111079511D01*
X180520489Y-110996523D01*
X180466921Y-110969229D01*
X180424755Y-110947744D01*
X180424752Y-110947743D01*
X180415918Y-110943242D01*
X180300000Y-110924882D01*
X180184082Y-110943242D01*
X180175248Y-110947743D01*
X180175245Y-110947744D01*
X180133079Y-110969229D01*
X180079511Y-110996523D01*
X179996523Y-111079511D01*
X179977973Y-111115918D01*
X179947744Y-111175245D01*
X179947743Y-111175248D01*
X179943242Y-111184082D01*
X179924882Y-111300000D01*
X176500000Y-111300000D01*
X176500000Y-110940000D01*
X172950000Y-110940000D01*
X172950000Y-116800000D01*
X171051000Y-116800000D01*
X171051000Y-110300000D01*
X179624882Y-110300000D01*
X179643242Y-110415918D01*
X179647743Y-110424752D01*
X179647744Y-110424755D01*
X179669229Y-110466921D01*
X179696523Y-110520489D01*
X179779511Y-110603477D01*
X179813194Y-110620639D01*
X179875245Y-110652256D01*
X179875248Y-110652257D01*
X179884082Y-110656758D01*
X180000000Y-110675118D01*
X180115918Y-110656758D01*
X180124752Y-110652257D01*
X180124755Y-110652256D01*
X180186806Y-110620639D01*
X180220489Y-110603477D01*
X180303477Y-110520489D01*
X180330771Y-110466921D01*
X180352256Y-110424755D01*
X180352257Y-110424752D01*
X180356758Y-110415918D01*
X180375118Y-110300000D01*
X180356758Y-110184082D01*
X180352257Y-110175248D01*
X180352256Y-110175245D01*
X180330771Y-110133079D01*
X180303477Y-110079511D01*
X180220489Y-109996523D01*
X180166921Y-109969229D01*
X180124755Y-109947744D01*
X180124752Y-109947743D01*
X180115918Y-109943242D01*
X180000000Y-109924882D01*
X179884082Y-109943242D01*
X179875248Y-109947743D01*
X179875245Y-109947744D01*
X179833079Y-109969229D01*
X179779511Y-109996523D01*
X179696523Y-110079511D01*
X179669229Y-110133079D01*
X179647744Y-110175245D01*
X179647743Y-110175248D01*
X179643242Y-110184082D01*
X179624882Y-110300000D01*
X171051000Y-110300000D01*
X171051000Y-109300000D01*
X179624882Y-109300000D01*
X179643242Y-109415918D01*
X179647743Y-109424752D01*
X179647744Y-109424755D01*
X179669229Y-109466921D01*
X179696523Y-109520489D01*
X179779511Y-109603477D01*
X179833079Y-109630771D01*
X179875245Y-109652256D01*
X179875248Y-109652257D01*
X179884082Y-109656758D01*
X180000000Y-109675118D01*
X180115918Y-109656758D01*
X180124752Y-109652257D01*
X180124755Y-109652256D01*
X180166921Y-109630771D01*
X180220489Y-109603477D01*
X180303477Y-109520489D01*
X180330771Y-109466921D01*
X180352256Y-109424755D01*
X180352257Y-109424752D01*
X180356758Y-109415918D01*
X180375118Y-109300000D01*
X180356758Y-109184082D01*
X180352257Y-109175248D01*
X180352256Y-109175245D01*
X180325971Y-109123659D01*
X180303477Y-109079511D01*
X180297114Y-109073148D01*
X180273426Y-109006760D01*
X180289507Y-108937609D01*
X180340421Y-108888128D01*
X180395705Y-108874438D01*
X180400000Y-108875118D01*
X180515918Y-108856758D01*
X180524752Y-108852257D01*
X180524755Y-108852256D01*
X180566921Y-108830771D01*
X180620489Y-108803477D01*
X180703477Y-108720489D01*
X180730771Y-108666921D01*
X180752256Y-108624755D01*
X180752257Y-108624752D01*
X180756758Y-108615918D01*
X180775118Y-108500000D01*
X180756758Y-108384082D01*
X180754062Y-108378790D01*
X180752096Y-108310032D01*
X180788756Y-108249233D01*
X180852468Y-108217906D01*
X180923002Y-108225997D01*
X180931159Y-108229793D01*
X180945336Y-108237016D01*
X180984082Y-108256758D01*
X181100000Y-108275118D01*
X181215918Y-108256758D01*
X181224752Y-108252257D01*
X181224755Y-108252256D01*
X181273329Y-108227506D01*
X181320489Y-108203477D01*
X181403477Y-108120489D01*
X181430771Y-108066921D01*
X181452256Y-108024755D01*
X181452257Y-108024752D01*
X181456758Y-108015918D01*
X181475118Y-107900000D01*
X181474447Y-107895766D01*
X181493569Y-107830643D01*
X181547225Y-107784150D01*
X181617499Y-107774046D01*
X181682079Y-107803540D01*
X181695135Y-107817765D01*
X181696523Y-107820489D01*
X181779511Y-107903477D01*
X181833079Y-107930771D01*
X181875245Y-107952256D01*
X181875248Y-107952257D01*
X181884082Y-107956758D01*
X182000000Y-107975118D01*
X182115918Y-107956758D01*
X182124752Y-107952257D01*
X182124755Y-107952256D01*
X182166921Y-107930771D01*
X182220489Y-107903477D01*
X182303477Y-107820489D01*
X182356758Y-107715918D01*
X182360014Y-107717577D01*
X182389780Y-107674083D01*
X182455188Y-107646473D01*
X182525140Y-107658607D01*
X182558596Y-107682562D01*
X182579511Y-107703477D01*
X182621272Y-107724755D01*
X182675245Y-107752256D01*
X182675248Y-107752257D01*
X182684082Y-107756758D01*
X182800000Y-107775118D01*
X182915918Y-107756758D01*
X182924752Y-107752257D01*
X182924755Y-107752256D01*
X182978728Y-107724755D01*
X183020489Y-107703477D01*
X183103477Y-107620489D01*
X183137733Y-107553257D01*
X183186481Y-107501641D01*
X183255396Y-107484575D01*
X183322597Y-107507475D01*
X183362267Y-107553257D01*
X183396523Y-107620489D01*
X183479511Y-107703477D01*
X183521272Y-107724755D01*
X183575245Y-107752256D01*
X183575248Y-107752257D01*
X183584082Y-107756758D01*
X183700000Y-107775118D01*
X183815918Y-107756758D01*
X183824752Y-107752257D01*
X183824755Y-107752256D01*
X183878728Y-107724755D01*
X183920489Y-107703477D01*
X184003477Y-107620489D01*
X184042836Y-107543242D01*
X184052256Y-107524755D01*
X184052257Y-107524752D01*
X184056758Y-107515918D01*
X184075118Y-107400000D01*
X184324882Y-107400000D01*
X184343242Y-107515918D01*
X184347743Y-107524752D01*
X184347744Y-107524755D01*
X184357164Y-107543242D01*
X184396523Y-107620489D01*
X184479511Y-107703477D01*
X184521272Y-107724755D01*
X184575245Y-107752256D01*
X184575248Y-107752257D01*
X184584082Y-107756758D01*
X184700000Y-107775118D01*
X184815918Y-107756758D01*
X184824752Y-107752257D01*
X184824755Y-107752256D01*
X184878728Y-107724755D01*
X184920489Y-107703477D01*
X185003477Y-107620489D01*
X185013917Y-107600000D01*
X185424882Y-107600000D01*
X185443242Y-107715918D01*
X185447743Y-107724752D01*
X185447744Y-107724755D01*
X185461757Y-107752256D01*
X185496523Y-107820489D01*
X185579511Y-107903477D01*
X185633079Y-107930771D01*
X185675245Y-107952256D01*
X185675248Y-107952257D01*
X185684082Y-107956758D01*
X185800000Y-107975118D01*
X185915918Y-107956758D01*
X185924752Y-107952257D01*
X185924755Y-107952256D01*
X185966921Y-107930771D01*
X186020489Y-107903477D01*
X186103477Y-107820489D01*
X186138243Y-107752256D01*
X186152256Y-107724755D01*
X186152257Y-107724752D01*
X186156758Y-107715918D01*
X186175118Y-107600000D01*
X186156758Y-107484082D01*
X186152257Y-107475248D01*
X186152256Y-107475245D01*
X186130771Y-107433079D01*
X186103477Y-107379511D01*
X186020489Y-107296523D01*
X185966921Y-107269229D01*
X185924755Y-107247744D01*
X185924752Y-107247743D01*
X185915918Y-107243242D01*
X185800000Y-107224882D01*
X185684082Y-107243242D01*
X185675248Y-107247743D01*
X185675245Y-107247744D01*
X185633079Y-107269229D01*
X185579511Y-107296523D01*
X185496523Y-107379511D01*
X185469229Y-107433079D01*
X185447744Y-107475245D01*
X185447743Y-107475248D01*
X185443242Y-107484082D01*
X185424882Y-107600000D01*
X185013917Y-107600000D01*
X185042836Y-107543242D01*
X185052256Y-107524755D01*
X185052257Y-107524752D01*
X185056758Y-107515918D01*
X185075118Y-107400000D01*
X185056758Y-107284082D01*
X185052257Y-107275248D01*
X185052256Y-107275245D01*
X185026594Y-107224882D01*
X185003477Y-107179511D01*
X184920489Y-107096523D01*
X184866921Y-107069229D01*
X184824755Y-107047744D01*
X184824752Y-107047743D01*
X184815918Y-107043242D01*
X184700000Y-107024882D01*
X184584082Y-107043242D01*
X184575248Y-107047743D01*
X184575245Y-107047744D01*
X184533079Y-107069229D01*
X184479511Y-107096523D01*
X184396523Y-107179511D01*
X184373406Y-107224882D01*
X184347744Y-107275245D01*
X184347743Y-107275248D01*
X184343242Y-107284082D01*
X184324882Y-107400000D01*
X184075118Y-107400000D01*
X184056758Y-107284082D01*
X184052257Y-107275248D01*
X184052256Y-107275245D01*
X184026594Y-107224882D01*
X184003477Y-107179511D01*
X183920489Y-107096523D01*
X183866921Y-107069229D01*
X183824755Y-107047744D01*
X183824752Y-107047743D01*
X183815918Y-107043242D01*
X183700000Y-107024882D01*
X183584082Y-107043242D01*
X183575248Y-107047743D01*
X183575245Y-107047744D01*
X183533079Y-107069229D01*
X183479511Y-107096523D01*
X183396523Y-107179511D01*
X183364841Y-107241691D01*
X183362267Y-107246743D01*
X183313519Y-107298359D01*
X183244604Y-107315425D01*
X183177403Y-107292525D01*
X183137733Y-107246743D01*
X183135159Y-107241691D01*
X183103477Y-107179511D01*
X183020489Y-107096523D01*
X182966921Y-107069229D01*
X182924755Y-107047744D01*
X182924752Y-107047743D01*
X182915918Y-107043242D01*
X182800000Y-107024882D01*
X182684082Y-107043242D01*
X182675248Y-107047743D01*
X182675245Y-107047744D01*
X182633079Y-107069229D01*
X182579511Y-107096523D01*
X182496523Y-107179511D01*
X182443242Y-107284082D01*
X182439986Y-107282423D01*
X182410220Y-107325917D01*
X182344812Y-107353527D01*
X182274860Y-107341393D01*
X182241404Y-107317438D01*
X182220489Y-107296523D01*
X182166921Y-107269229D01*
X182124755Y-107247744D01*
X182124752Y-107247743D01*
X182115918Y-107243242D01*
X182000000Y-107224882D01*
X181884082Y-107243242D01*
X181875248Y-107247743D01*
X181875245Y-107247744D01*
X181833079Y-107269229D01*
X181779511Y-107296523D01*
X181696523Y-107379511D01*
X181669229Y-107433079D01*
X181647744Y-107475245D01*
X181647743Y-107475248D01*
X181643242Y-107484082D01*
X181624882Y-107600000D01*
X181625553Y-107604234D01*
X181606431Y-107669357D01*
X181552775Y-107715850D01*
X181482501Y-107725954D01*
X181417921Y-107696460D01*
X181404865Y-107682235D01*
X181403477Y-107679511D01*
X181320489Y-107596523D01*
X181266921Y-107569229D01*
X181224755Y-107547744D01*
X181224752Y-107547743D01*
X181215918Y-107543242D01*
X181100000Y-107524882D01*
X180984082Y-107543242D01*
X180975248Y-107547743D01*
X180975245Y-107547744D01*
X180933079Y-107569229D01*
X180879511Y-107596523D01*
X180796523Y-107679511D01*
X180782017Y-107707981D01*
X180747744Y-107775245D01*
X180747743Y-107775248D01*
X180743242Y-107784082D01*
X180724882Y-107900000D01*
X180743242Y-108015918D01*
X180745938Y-108021210D01*
X180747904Y-108089968D01*
X180711244Y-108150767D01*
X180647532Y-108182094D01*
X180576998Y-108174003D01*
X180568841Y-108170207D01*
X180548525Y-108159856D01*
X180515918Y-108143242D01*
X180400000Y-108124882D01*
X180284082Y-108143242D01*
X180275248Y-108147743D01*
X180275245Y-108147744D01*
X180233079Y-108169229D01*
X180179511Y-108196523D01*
X180096523Y-108279511D01*
X180084312Y-108303477D01*
X180047744Y-108375245D01*
X180047743Y-108375248D01*
X180043242Y-108384082D01*
X180024882Y-108500000D01*
X180043242Y-108615918D01*
X180047743Y-108624752D01*
X180047744Y-108624755D01*
X180069883Y-108668204D01*
X180096523Y-108720489D01*
X180102886Y-108726852D01*
X180126574Y-108793240D01*
X180110493Y-108862391D01*
X180059579Y-108911872D01*
X180004295Y-108925562D01*
X180000000Y-108924882D01*
X179884082Y-108943242D01*
X179875248Y-108947743D01*
X179875245Y-108947744D01*
X179833079Y-108969229D01*
X179779511Y-108996523D01*
X179696523Y-109079511D01*
X179674029Y-109123659D01*
X179647744Y-109175245D01*
X179647743Y-109175248D01*
X179643242Y-109184082D01*
X179624882Y-109300000D01*
X171051000Y-109300000D01*
X171051000Y-106200000D01*
X182544882Y-106200000D01*
X182563242Y-106315918D01*
X182567743Y-106324752D01*
X182567744Y-106324755D01*
X182589229Y-106366921D01*
X182616523Y-106420489D01*
X182699511Y-106503477D01*
X182753079Y-106530771D01*
X182795245Y-106552256D01*
X182795248Y-106552257D01*
X182804082Y-106556758D01*
X182920000Y-106575118D01*
X183035918Y-106556758D01*
X183044752Y-106552257D01*
X183044755Y-106552256D01*
X183086921Y-106530771D01*
X183140489Y-106503477D01*
X183223477Y-106420489D01*
X183250771Y-106366921D01*
X183272256Y-106324755D01*
X183272257Y-106324752D01*
X183276758Y-106315918D01*
X183295118Y-106200000D01*
X183276758Y-106084082D01*
X183272257Y-106075248D01*
X183272256Y-106075245D01*
X183250771Y-106033079D01*
X183223477Y-105979511D01*
X183140489Y-105896523D01*
X183086921Y-105869229D01*
X183044755Y-105847744D01*
X183044752Y-105847743D01*
X183035918Y-105843242D01*
X182920000Y-105824882D01*
X182804082Y-105843242D01*
X182795248Y-105847743D01*
X182795245Y-105847744D01*
X182753079Y-105869229D01*
X182699511Y-105896523D01*
X182616523Y-105979511D01*
X182589229Y-106033079D01*
X182567744Y-106075245D01*
X182567743Y-106075248D01*
X182563242Y-106084082D01*
X182544882Y-106200000D01*
X171051000Y-106200000D01*
X171051000Y-105039610D01*
X175993619Y-105039610D01*
X176022348Y-105206802D01*
X176088768Y-105362900D01*
X176093101Y-105368788D01*
X176093104Y-105368793D01*
X176184976Y-105493633D01*
X176184980Y-105493637D01*
X176189318Y-105499532D01*
X176318603Y-105609367D01*
X176469687Y-105686515D01*
X176476797Y-105688255D01*
X176476800Y-105688256D01*
X176558706Y-105708298D01*
X176634468Y-105726837D01*
X176641815Y-105727293D01*
X176643215Y-105727380D01*
X176643228Y-105727380D01*
X176645156Y-105727500D01*
X177317483Y-105727500D01*
X177384435Y-105719694D01*
X177436231Y-105713656D01*
X177436234Y-105713655D01*
X177443501Y-105712808D01*
X177450376Y-105710312D01*
X177450378Y-105710312D01*
X177596086Y-105657422D01*
X177596087Y-105657422D01*
X177602962Y-105654926D01*
X177744832Y-105561912D01*
X177861498Y-105438757D01*
X177946703Y-105292065D01*
X177995877Y-105129706D01*
X178006381Y-104960390D01*
X177977652Y-104793198D01*
X177911232Y-104637100D01*
X177906899Y-104631212D01*
X177906896Y-104631207D01*
X177894394Y-104614219D01*
X189997500Y-104614219D01*
X189997501Y-105385780D01*
X190008422Y-105459979D01*
X190035417Y-105514962D01*
X190058951Y-105562893D01*
X190063810Y-105572790D01*
X190152753Y-105661578D01*
X190207330Y-105688256D01*
X190256439Y-105712261D01*
X190265661Y-105716769D01*
X190275336Y-105718180D01*
X190275338Y-105718181D01*
X190334693Y-105726840D01*
X190334697Y-105726840D01*
X190339219Y-105727500D01*
X190997480Y-105727500D01*
X191660780Y-105727499D01*
X191734979Y-105716578D01*
X191837688Y-105666150D01*
X191838442Y-105665780D01*
X191838443Y-105665779D01*
X191847790Y-105661190D01*
X191891979Y-105616924D01*
X191929222Y-105579616D01*
X191929222Y-105579615D01*
X191936578Y-105572247D01*
X191991769Y-105459339D01*
X191993181Y-105449662D01*
X192001840Y-105390307D01*
X192001840Y-105390303D01*
X192002500Y-105385781D01*
X192002499Y-104614220D01*
X191991578Y-104540021D01*
X191941531Y-104438088D01*
X191940780Y-104436558D01*
X191940779Y-104436557D01*
X191936190Y-104427210D01*
X191847247Y-104338422D01*
X191747549Y-104289688D01*
X191743124Y-104287525D01*
X191743123Y-104287525D01*
X191734339Y-104283231D01*
X191724664Y-104281820D01*
X191724662Y-104281819D01*
X191665307Y-104273160D01*
X191665303Y-104273160D01*
X191660781Y-104272500D01*
X191002520Y-104272500D01*
X190339220Y-104272501D01*
X190265021Y-104283422D01*
X190252259Y-104289688D01*
X190161558Y-104334220D01*
X190161557Y-104334221D01*
X190152210Y-104338810D01*
X190144852Y-104346180D01*
X190144853Y-104346180D01*
X190103800Y-104387305D01*
X190063422Y-104427753D01*
X190008231Y-104540661D01*
X190006820Y-104550336D01*
X190006819Y-104550338D01*
X190006004Y-104555929D01*
X189997500Y-104614219D01*
X177894394Y-104614219D01*
X177815024Y-104506367D01*
X177815020Y-104506363D01*
X177810682Y-104500468D01*
X177681397Y-104390633D01*
X177530313Y-104313485D01*
X177523203Y-104311745D01*
X177523200Y-104311744D01*
X177441294Y-104291702D01*
X177365532Y-104273163D01*
X177358185Y-104272707D01*
X177356785Y-104272620D01*
X177356772Y-104272620D01*
X177354844Y-104272500D01*
X176682517Y-104272500D01*
X176615565Y-104280306D01*
X176563769Y-104286344D01*
X176563766Y-104286345D01*
X176556499Y-104287192D01*
X176549624Y-104289688D01*
X176549622Y-104289688D01*
X176414295Y-104338810D01*
X176397038Y-104345074D01*
X176255168Y-104438088D01*
X176138502Y-104561243D01*
X176053297Y-104707935D01*
X176004123Y-104870294D01*
X175993619Y-105039610D01*
X171051000Y-105039610D01*
X171051000Y-103748500D01*
X183251382Y-103748500D01*
X183269742Y-103864418D01*
X183274243Y-103873252D01*
X183274244Y-103873255D01*
X183287872Y-103900000D01*
X183323023Y-103968989D01*
X183406011Y-104051977D01*
X183459579Y-104079271D01*
X183501745Y-104100756D01*
X183501748Y-104100757D01*
X183510582Y-104105258D01*
X183626500Y-104123618D01*
X183742418Y-104105258D01*
X183751252Y-104100757D01*
X183751255Y-104100756D01*
X183793421Y-104079271D01*
X183846989Y-104051977D01*
X183929977Y-103968989D01*
X183965128Y-103900000D01*
X183978756Y-103873255D01*
X183978757Y-103873252D01*
X183983258Y-103864418D01*
X184001618Y-103748500D01*
X183983258Y-103632582D01*
X183978757Y-103623748D01*
X183978756Y-103623745D01*
X183947250Y-103561912D01*
X183929977Y-103528011D01*
X183846989Y-103445023D01*
X183788897Y-103415424D01*
X183751255Y-103396244D01*
X183751252Y-103396243D01*
X183742418Y-103391742D01*
X183626500Y-103373382D01*
X183626982Y-103370339D01*
X183574707Y-103354990D01*
X183522810Y-103389400D01*
X183520377Y-103390191D01*
X183510582Y-103391742D01*
X183406011Y-103445023D01*
X183323023Y-103528011D01*
X183305750Y-103561912D01*
X183274244Y-103623745D01*
X183274243Y-103623748D01*
X183269742Y-103632582D01*
X183251382Y-103748500D01*
X171051000Y-103748500D01*
X171051000Y-102614219D01*
X175997500Y-102614219D01*
X175997501Y-103385780D01*
X176008422Y-103459979D01*
X176033790Y-103511648D01*
X176058951Y-103562893D01*
X176063810Y-103572790D01*
X176152753Y-103661578D01*
X176220245Y-103694569D01*
X176256439Y-103712261D01*
X176265661Y-103716769D01*
X176275336Y-103718180D01*
X176275338Y-103718181D01*
X176334693Y-103726840D01*
X176334697Y-103726840D01*
X176339219Y-103727500D01*
X176997480Y-103727500D01*
X177660780Y-103727499D01*
X177734979Y-103716578D01*
X177810475Y-103679511D01*
X177838442Y-103665780D01*
X177838443Y-103665779D01*
X177847790Y-103661190D01*
X177891979Y-103616924D01*
X177929222Y-103579616D01*
X177929222Y-103579615D01*
X177936578Y-103572247D01*
X177991769Y-103459339D01*
X177993181Y-103449662D01*
X178001840Y-103390307D01*
X178001840Y-103390303D01*
X178002500Y-103385781D01*
X178002499Y-102770000D01*
X183124882Y-102770000D01*
X183143242Y-102885918D01*
X183147743Y-102894752D01*
X183147744Y-102894755D01*
X183153650Y-102906346D01*
X183196523Y-102990489D01*
X183279511Y-103073477D01*
X183333079Y-103100771D01*
X183375245Y-103122256D01*
X183375248Y-103122257D01*
X183384082Y-103126758D01*
X183500000Y-103145118D01*
X183499518Y-103148161D01*
X183551793Y-103163510D01*
X183603690Y-103129100D01*
X183606123Y-103128309D01*
X183615918Y-103126758D01*
X183720489Y-103073477D01*
X183754356Y-103039610D01*
X189993619Y-103039610D01*
X189994859Y-103046826D01*
X189994859Y-103046828D01*
X190014909Y-103163510D01*
X190022348Y-103206802D01*
X190088768Y-103362900D01*
X190093101Y-103368788D01*
X190093104Y-103368793D01*
X190184976Y-103493633D01*
X190184980Y-103493637D01*
X190189318Y-103499532D01*
X190318603Y-103609367D01*
X190469687Y-103686515D01*
X190476797Y-103688255D01*
X190476800Y-103688256D01*
X190558706Y-103708298D01*
X190634468Y-103726837D01*
X190641815Y-103727293D01*
X190643215Y-103727380D01*
X190643228Y-103727380D01*
X190645156Y-103727500D01*
X191317483Y-103727500D01*
X191384435Y-103719694D01*
X191436231Y-103713656D01*
X191436234Y-103713655D01*
X191443501Y-103712808D01*
X191450376Y-103710312D01*
X191450378Y-103710312D01*
X191596086Y-103657422D01*
X191596087Y-103657422D01*
X191602962Y-103654926D01*
X191744832Y-103561912D01*
X191861498Y-103438757D01*
X191862970Y-103440151D01*
X191911661Y-103403675D01*
X191982475Y-103398585D01*
X192044799Y-103432588D01*
X192068002Y-103464513D01*
X192088262Y-103504275D01*
X192096523Y-103520489D01*
X192179511Y-103603477D01*
X192275919Y-103652599D01*
X192327533Y-103701346D01*
X192344599Y-103770261D01*
X192343164Y-103784572D01*
X192324882Y-103900000D01*
X192343242Y-104015918D01*
X192347743Y-104024752D01*
X192347744Y-104024755D01*
X192369229Y-104066921D01*
X192396523Y-104120489D01*
X192479511Y-104203477D01*
X192533079Y-104230771D01*
X192575245Y-104252256D01*
X192575248Y-104252257D01*
X192584082Y-104256758D01*
X192700000Y-104275118D01*
X192815918Y-104256758D01*
X192824752Y-104252257D01*
X192824755Y-104252256D01*
X192866921Y-104230771D01*
X192920489Y-104203477D01*
X193003477Y-104120489D01*
X193030771Y-104066921D01*
X193052256Y-104024755D01*
X193052257Y-104024752D01*
X193056758Y-104015918D01*
X193075118Y-103900000D01*
X193056758Y-103784082D01*
X193052257Y-103775248D01*
X193052256Y-103775245D01*
X193027592Y-103726840D01*
X193003477Y-103679511D01*
X192920489Y-103596523D01*
X192824081Y-103547401D01*
X192772467Y-103498654D01*
X192755401Y-103429739D01*
X192756836Y-103415424D01*
X192760810Y-103390338D01*
X192775118Y-103300000D01*
X192756758Y-103184082D01*
X192752257Y-103175248D01*
X192752256Y-103175245D01*
X192728744Y-103129100D01*
X192703477Y-103079511D01*
X192620489Y-102996523D01*
X192566921Y-102969229D01*
X192524755Y-102947744D01*
X192524752Y-102947743D01*
X192515918Y-102943242D01*
X192400000Y-102924882D01*
X192284082Y-102943242D01*
X192275248Y-102947743D01*
X192275245Y-102947744D01*
X192179511Y-102996523D01*
X192177815Y-102993195D01*
X192128469Y-103010802D01*
X192059318Y-102994723D01*
X192009837Y-102943810D01*
X191997094Y-102906346D01*
X191995103Y-102894755D01*
X191977652Y-102793198D01*
X191911232Y-102637100D01*
X191906899Y-102631212D01*
X191906896Y-102631207D01*
X191815024Y-102506367D01*
X191815020Y-102506363D01*
X191810682Y-102500468D01*
X191681397Y-102390633D01*
X191530313Y-102313485D01*
X191523203Y-102311745D01*
X191523200Y-102311744D01*
X191441294Y-102291702D01*
X191365532Y-102273163D01*
X191358185Y-102272707D01*
X191356785Y-102272620D01*
X191356772Y-102272620D01*
X191354844Y-102272500D01*
X190682517Y-102272500D01*
X190615565Y-102280306D01*
X190563769Y-102286344D01*
X190563766Y-102286345D01*
X190556499Y-102287192D01*
X190549624Y-102289688D01*
X190549622Y-102289688D01*
X190414295Y-102338810D01*
X190397038Y-102345074D01*
X190255168Y-102438088D01*
X190138502Y-102561243D01*
X190053297Y-102707935D01*
X190051176Y-102714939D01*
X190051174Y-102714943D01*
X190029513Y-102786463D01*
X190004123Y-102870294D01*
X189993619Y-103039610D01*
X183754356Y-103039610D01*
X183803477Y-102990489D01*
X183846350Y-102906346D01*
X183852256Y-102894755D01*
X183852257Y-102894752D01*
X183856758Y-102885918D01*
X183875118Y-102770000D01*
X183856758Y-102654082D01*
X183852257Y-102645248D01*
X183852256Y-102645245D01*
X183812680Y-102567574D01*
X183803477Y-102549511D01*
X183720489Y-102466523D01*
X183661679Y-102436558D01*
X183624755Y-102417744D01*
X183624752Y-102417743D01*
X183615918Y-102413242D01*
X183500000Y-102394882D01*
X183384082Y-102413242D01*
X183375248Y-102417743D01*
X183375245Y-102417744D01*
X183338321Y-102436558D01*
X183279511Y-102466523D01*
X183196523Y-102549511D01*
X183187320Y-102567574D01*
X183147744Y-102645245D01*
X183147743Y-102645248D01*
X183143242Y-102654082D01*
X183124882Y-102770000D01*
X178002499Y-102770000D01*
X178002499Y-102614220D01*
X177991578Y-102540021D01*
X177941531Y-102438088D01*
X177940780Y-102436558D01*
X177940779Y-102436557D01*
X177936190Y-102427210D01*
X177847247Y-102338422D01*
X177747549Y-102289688D01*
X177743124Y-102287525D01*
X177743123Y-102287525D01*
X177734339Y-102283231D01*
X177724664Y-102281820D01*
X177724662Y-102281819D01*
X177665307Y-102273160D01*
X177665303Y-102273160D01*
X177660781Y-102272500D01*
X177002520Y-102272500D01*
X176339220Y-102272501D01*
X176265021Y-102283422D01*
X176252259Y-102289688D01*
X176161558Y-102334220D01*
X176161557Y-102334221D01*
X176152210Y-102338810D01*
X176144852Y-102346180D01*
X176144853Y-102346180D01*
X176073414Y-102417744D01*
X176063422Y-102427753D01*
X176044471Y-102466523D01*
X176015173Y-102526460D01*
X176008231Y-102540661D01*
X176006820Y-102550336D01*
X176006819Y-102550338D01*
X175998828Y-102605118D01*
X175997500Y-102614219D01*
X171051000Y-102614219D01*
X171051000Y-102230000D01*
X178964882Y-102230000D01*
X178983242Y-102345918D01*
X178987743Y-102354752D01*
X178987744Y-102354755D01*
X179004329Y-102387305D01*
X179036523Y-102450489D01*
X179119511Y-102533477D01*
X179173079Y-102560771D01*
X179215245Y-102582256D01*
X179215248Y-102582257D01*
X179224082Y-102586758D01*
X179340000Y-102605118D01*
X179455918Y-102586758D01*
X179464752Y-102582257D01*
X179464755Y-102582256D01*
X179506921Y-102560771D01*
X179560489Y-102533477D01*
X179643477Y-102450489D01*
X179675671Y-102387305D01*
X179692256Y-102354755D01*
X179692257Y-102354752D01*
X179696758Y-102345918D01*
X179715118Y-102230000D01*
X179696758Y-102114082D01*
X179692257Y-102105248D01*
X179692256Y-102105245D01*
X179670771Y-102063079D01*
X179643477Y-102009511D01*
X179560489Y-101926523D01*
X179506921Y-101899229D01*
X179464755Y-101877744D01*
X179464752Y-101877743D01*
X179455918Y-101873242D01*
X179340000Y-101854882D01*
X179224082Y-101873242D01*
X179215248Y-101877743D01*
X179215245Y-101877744D01*
X179173079Y-101899229D01*
X179119511Y-101926523D01*
X179036523Y-102009511D01*
X179009229Y-102063079D01*
X178987744Y-102105245D01*
X178987743Y-102105248D01*
X178983242Y-102114082D01*
X178964882Y-102230000D01*
X171051000Y-102230000D01*
X171051000Y-98200000D01*
X187624882Y-98200000D01*
X187643242Y-98315918D01*
X187647743Y-98324752D01*
X187647744Y-98324755D01*
X187669229Y-98366921D01*
X187696523Y-98420489D01*
X187779511Y-98503477D01*
X187833079Y-98530771D01*
X187875245Y-98552256D01*
X187875248Y-98552257D01*
X187884082Y-98556758D01*
X188000000Y-98575118D01*
X188115918Y-98556758D01*
X188124752Y-98552257D01*
X188124755Y-98552256D01*
X188166921Y-98530771D01*
X188220489Y-98503477D01*
X188303477Y-98420489D01*
X188330771Y-98366921D01*
X188352256Y-98324755D01*
X188352257Y-98324752D01*
X188356758Y-98315918D01*
X188375118Y-98200000D01*
X188356758Y-98084082D01*
X188352257Y-98075248D01*
X188352256Y-98075245D01*
X188330771Y-98033079D01*
X188303477Y-97979511D01*
X188220489Y-97896523D01*
X188166921Y-97869229D01*
X188124755Y-97847744D01*
X188124752Y-97847743D01*
X188115918Y-97843242D01*
X188000000Y-97824882D01*
X187884082Y-97843242D01*
X187875248Y-97847743D01*
X187875245Y-97847744D01*
X187833079Y-97869229D01*
X187779511Y-97896523D01*
X187696523Y-97979511D01*
X187669229Y-98033079D01*
X187647744Y-98075245D01*
X187647743Y-98075248D01*
X187643242Y-98084082D01*
X187624882Y-98200000D01*
X171051000Y-98200000D01*
X171051000Y-97627000D01*
X171071002Y-97558879D01*
X171124658Y-97512386D01*
X171177000Y-97501000D01*
X196874000Y-97501000D01*
X196942121Y-97521002D01*
G37*
%TD.AperFunction*%
%TD*%
M02*
