%TF.GenerationSoftware,KiCad,Pcbnew,(6.0.4)*%
%TF.CreationDate,2023-01-29T14:49:02+00:00*%
%TF.ProjectId,PrettySmallRobot,50726574-7479-4536-9d61-6c6c526f626f,rev?*%
%TF.SameCoordinates,Original*%
%TF.FileFunction,Legend,Bot*%
%TF.FilePolarity,Positive*%
%FSLAX46Y46*%
G04 Gerber Fmt 4.6, Leading zero omitted, Abs format (unit mm)*
G04 Created by KiCad (PCBNEW (6.0.4)) date 2023-01-29 14:49:02*
%MOMM*%
%LPD*%
G01*
G04 APERTURE LIST*
%ADD10C,0.150000*%
%ADD11C,0.120000*%
G04 APERTURE END LIST*
D10*
X195190001Y-105470000D02*
G75*
G03*
X195190001Y-105470000I-136015J0D01*
G01*
X172690001Y-118620000D02*
G75*
G03*
X172690001Y-118620000I-136015J0D01*
G01*
D11*
%TO.C,C20*%
X183856152Y-115903484D02*
X183856152Y-116119156D01*
X183136152Y-115903484D02*
X183136152Y-116119156D01*
%TO.C,U2*%
X195420000Y-105400000D02*
X195420000Y-103400000D01*
X193180000Y-103400000D02*
X193180000Y-104400000D01*
%TO.C,C3*%
X193307836Y-101340000D02*
X193092164Y-101340000D01*
X193307836Y-102060000D02*
X193092164Y-102060000D01*
%TO.C,C11*%
X185140000Y-119607836D02*
X185140000Y-119392164D01*
X185860000Y-119607836D02*
X185860000Y-119392164D01*
%TO.C,R9*%
X193480000Y-110653641D02*
X193480000Y-110346359D01*
X192720000Y-110653641D02*
X192720000Y-110346359D01*
%TO.C,C10*%
X187092164Y-120540000D02*
X187307836Y-120540000D01*
X187092164Y-121260000D02*
X187307836Y-121260000D01*
%TO.C,R2*%
X192820000Y-115846359D02*
X192820000Y-116153641D01*
X193580000Y-115846359D02*
X193580000Y-116153641D01*
%TO.C,R1*%
X194180000Y-120646359D02*
X194180000Y-120953641D01*
X193420000Y-120646359D02*
X193420000Y-120953641D01*
%TO.C,C2*%
X196460000Y-106092164D02*
X196460000Y-106307836D01*
X195740000Y-106092164D02*
X195740000Y-106307836D01*
%TO.C,C19*%
X181140000Y-115912164D02*
X181140000Y-116127836D01*
X181860000Y-115912164D02*
X181860000Y-116127836D01*
%TO.C,C24*%
X194560000Y-110392164D02*
X194560000Y-110607836D01*
X193840000Y-110392164D02*
X193840000Y-110607836D01*
%TO.C,C5*%
X185640000Y-117607836D02*
X185640000Y-117392164D01*
X186360000Y-117607836D02*
X186360000Y-117392164D01*
%TO.C,C4*%
X184640000Y-117607836D02*
X184640000Y-117392164D01*
X185360000Y-117607836D02*
X185360000Y-117392164D01*
%TO.C,C7*%
X173292164Y-117240000D02*
X173507836Y-117240000D01*
X173292164Y-117960000D02*
X173507836Y-117960000D01*
%TO.C,C16*%
X186860000Y-119607836D02*
X186860000Y-119392164D01*
X186140000Y-119607836D02*
X186140000Y-119392164D01*
%TO.C,C1*%
X183208091Y-118326020D02*
X183208091Y-118607180D01*
X184228091Y-118326020D02*
X184228091Y-118607180D01*
%TO.C,U1*%
X172480000Y-119000000D02*
X172480000Y-121000000D01*
X174720000Y-121000000D02*
X174720000Y-120000000D01*
%TO.C,C6*%
X173792164Y-122840000D02*
X174007836Y-122840000D01*
X173792164Y-123560000D02*
X174007836Y-123560000D01*
%TO.C,C18*%
X182136227Y-115911031D02*
X182136227Y-116126703D01*
X182856227Y-115911031D02*
X182856227Y-116126703D01*
%TD*%
M02*
