M48
; DRILL file {KiCad (6.0.4)} date Wed Jan 18 18:36:49 2023
; FORMAT={-:-/ absolute / metric / decimal}
; #@! TF.CreationDate,2023-01-18T18:36:49+00:00
; #@! TF.GenerationSoftware,Kicad,Pcbnew,(6.0.4)
; #@! TF.FileFunction,Plated,1,4,PTH
FMAT,2
METRIC
; #@! TA.AperFunction,Plated,PTH,ViaDrill
T1C0.200
; #@! TA.AperFunction,Plated,PTH,ComponentDrill
T2C0.600
; #@! TA.AperFunction,Plated,PTH,ComponentDrill
T3C2.200
%
G90
G05
T1
X128.15Y-99.75
X128.55Y-106.7
X128.55Y-109.8
X129.0Y-100.17
X129.15Y-119.35
X129.34Y-106.25
X129.6Y-99.8
X129.95Y-119.6
X130.7Y-117.9
X130.8Y-105.45
X131.01Y-102.79
X131.1Y-97.12
X131.136Y-98.022
X131.15Y-99.65
X131.2Y-99.0
X131.35Y-101.9
X131.49Y-105.3
X131.6Y-103.1
X131.6Y-103.7
X131.7Y-113.9
X131.8Y-100.0
X132.05Y-105.7
X132.53Y-100.01
X132.6Y-103.7
X132.636Y-105.246
X133.0Y-103.13
X133.33Y-105.29
X133.409Y-108.23
X133.48Y-108.89
X133.552Y-107.54
X133.9Y-106.9
X133.9Y-109.4
X134.1Y-105.3
X134.39Y-99.31
X134.41Y-103.73
X134.75Y-100.3
X134.75Y-103.0
X135.1Y-96.95
X135.4Y-100.25
X135.7Y-97.66
X135.786Y-101.18
X136.12Y-100.58
X136.3Y-101.65
X137.7Y-111.2
X138.14Y-96.92
X138.3Y-102.4
X138.6Y-100.7
X138.8Y-111.3
X139.6Y-100.4
X139.85Y-112.75
X140.2Y-102.25
X140.45Y-99.4
X140.6Y-97.1
X140.6Y-111.1
X140.9Y-100.4
X141.5Y-99.6
X141.55Y-111.55
X141.7Y-112.25
X142.15Y-99.6
X142.2Y-111.0
X142.45Y-101.9
X142.51Y-110.12
X142.6Y-113.14
X142.75Y-109.25
X143.0Y-112.0
X143.55Y-105.73
T3
X125.05Y-119.2
X146.15Y-98.7
T2
G00X134.6Y-114.63
M15
G01X134.6Y-115.73
M16
G05
G00X134.6Y-118.95
M15
G01X134.6Y-119.75
M16
G05
G00X143.25Y-114.63
M15
G01X143.25Y-115.73
M16
G05
G00X143.25Y-118.95
M15
G01X143.25Y-119.75
M16
G05
T0
M30
