%TF.GenerationSoftware,KiCad,Pcbnew,(6.0.4)*%
%TF.CreationDate,2023-01-18T18:35:58+00:00*%
%TF.ProjectId,PrettySmallRobot,50726574-7479-4536-9d61-6c6c526f626f,rev?*%
%TF.SameCoordinates,Original*%
%TF.FileFunction,Copper,L1,Top*%
%TF.FilePolarity,Positive*%
%FSLAX46Y46*%
G04 Gerber Fmt 4.6, Leading zero omitted, Abs format (unit mm)*
G04 Created by KiCad (PCBNEW (6.0.4)) date 2023-01-18 18:35:58*
%MOMM*%
%LPD*%
G01*
G04 APERTURE LIST*
G04 Aperture macros list*
%AMRoundRect*
0 Rectangle with rounded corners*
0 $1 Rounding radius*
0 $2 $3 $4 $5 $6 $7 $8 $9 X,Y pos of 4 corners*
0 Add a 4 corners polygon primitive as box body*
4,1,4,$2,$3,$4,$5,$6,$7,$8,$9,$2,$3,0*
0 Add four circle primitives for the rounded corners*
1,1,$1+$1,$2,$3*
1,1,$1+$1,$4,$5*
1,1,$1+$1,$6,$7*
1,1,$1+$1,$8,$9*
0 Add four rect primitives between the rounded corners*
20,1,$1+$1,$2,$3,$4,$5,0*
20,1,$1+$1,$4,$5,$6,$7,0*
20,1,$1+$1,$6,$7,$8,$9,0*
20,1,$1+$1,$8,$9,$2,$3,0*%
G04 Aperture macros list end*
%TA.AperFunction,SMDPad,CuDef*%
%ADD10R,1.700000X0.900000*%
%TD*%
%TA.AperFunction,SMDPad,CuDef*%
%ADD11R,1.600000X0.900000*%
%TD*%
%TA.AperFunction,SMDPad,CuDef*%
%ADD12R,0.250000X0.500000*%
%TD*%
%TA.AperFunction,SMDPad,CuDef*%
%ADD13RoundRect,0.140000X0.170000X-0.140000X0.170000X0.140000X-0.170000X0.140000X-0.170000X-0.140000X0*%
%TD*%
%TA.AperFunction,SMDPad,CuDef*%
%ADD14RoundRect,0.250000X0.650000X-0.325000X0.650000X0.325000X-0.650000X0.325000X-0.650000X-0.325000X0*%
%TD*%
%TA.AperFunction,SMDPad,CuDef*%
%ADD15RoundRect,0.135000X0.185000X-0.135000X0.185000X0.135000X-0.185000X0.135000X-0.185000X-0.135000X0*%
%TD*%
%TA.AperFunction,SMDPad,CuDef*%
%ADD16R,5.600000X5.600000*%
%TD*%
%TA.AperFunction,SMDPad,CuDef*%
%ADD17RoundRect,0.050000X-0.050000X-0.387500X0.050000X-0.387500X0.050000X0.387500X-0.050000X0.387500X0*%
%TD*%
%TA.AperFunction,SMDPad,CuDef*%
%ADD18RoundRect,0.050000X-0.387500X-0.050000X0.387500X-0.050000X0.387500X0.050000X-0.387500X0.050000X0*%
%TD*%
%TA.AperFunction,SMDPad,CuDef*%
%ADD19RoundRect,0.135000X-0.185000X0.135000X-0.185000X-0.135000X0.185000X-0.135000X0.185000X0.135000X0*%
%TD*%
%TA.AperFunction,SMDPad,CuDef*%
%ADD20RoundRect,0.147500X-0.147500X-0.172500X0.147500X-0.172500X0.147500X0.172500X-0.147500X0.172500X0*%
%TD*%
%TA.AperFunction,ComponentPad*%
%ADD21C,3.800000*%
%TD*%
%TA.AperFunction,SMDPad,CuDef*%
%ADD22R,1.400000X1.200000*%
%TD*%
%TA.AperFunction,SMDPad,CuDef*%
%ADD23RoundRect,0.140000X-0.170000X0.140000X-0.170000X-0.140000X0.170000X-0.140000X0.170000X0.140000X0*%
%TD*%
%TA.AperFunction,SMDPad,CuDef*%
%ADD24RoundRect,0.147500X0.172500X-0.147500X0.172500X0.147500X-0.172500X0.147500X-0.172500X-0.147500X0*%
%TD*%
%TA.AperFunction,ComponentPad*%
%ADD25O,0.900000X1.700000*%
%TD*%
%TA.AperFunction,ComponentPad*%
%ADD26O,0.900000X2.000000*%
%TD*%
%TA.AperFunction,SMDPad,CuDef*%
%ADD27R,0.300000X1.140000*%
%TD*%
%TA.AperFunction,SMDPad,CuDef*%
%ADD28R,0.600000X1.140000*%
%TD*%
%TA.AperFunction,SMDPad,CuDef*%
%ADD29R,0.600000X0.450000*%
%TD*%
%TA.AperFunction,ViaPad*%
%ADD30C,0.500000*%
%TD*%
%TA.AperFunction,Conductor*%
%ADD31C,0.293370*%
%TD*%
%TA.AperFunction,Conductor*%
%ADD32C,0.254000*%
%TD*%
%TA.AperFunction,Conductor*%
%ADD33C,0.150000*%
%TD*%
%TA.AperFunction,Conductor*%
%ADD34C,0.175000*%
%TD*%
%TA.AperFunction,Conductor*%
%ADD35C,0.135000*%
%TD*%
G04 APERTURE END LIST*
D10*
%TO.P,RST1,1,1*%
%TO.N,GND*%
X132000000Y-110000000D03*
%TO.P,RST1,2,2*%
%TO.N,/~{RESET}*%
X132000000Y-106600000D03*
%TD*%
%TO.P,BOOT1,1,1*%
%TO.N,/BOOT*%
X132000000Y-111900000D03*
%TO.P,BOOT1,2,2*%
%TO.N,GND*%
X132000000Y-115300000D03*
%TD*%
D11*
%TO.P,U2,9,GND*%
%TO.N,GND*%
X132700000Y-98400000D03*
D12*
%TO.P,U2,8,VCC*%
%TO.N,+3V3*%
X133450000Y-99350000D03*
%TO.P,U2,7,~{SLEEP}*%
X132950000Y-99350000D03*
%TO.P,U2,6,IN1*%
%TO.N,/MOTORB_IN1*%
X132450000Y-99350000D03*
%TO.P,U2,5,IN2*%
%TO.N,/MOTORB_IN2*%
X131950000Y-99350000D03*
%TO.P,U2,4,GND*%
%TO.N,GND*%
X131950000Y-97450000D03*
%TO.P,U2,3,OUT2*%
%TO.N,/MOTORB_OUT2*%
X132450000Y-97450000D03*
%TO.P,U2,2,OUT1*%
%TO.N,/MOTORB_OUT1*%
X132950000Y-97450000D03*
%TO.P,U2,1,VM*%
%TO.N,+BATT*%
X133450000Y-97450000D03*
%TD*%
D13*
%TO.P,C3,1*%
%TO.N,+3V3*%
X132400000Y-102060000D03*
%TO.P,C3,2*%
%TO.N,GND*%
X132400000Y-101100000D03*
%TD*%
D14*
%TO.P,AE1,2*%
%TO.N,N/C*%
X129300000Y-101650000D03*
%TO.P,AE1,1,A*%
%TO.N,Net-(AE1-Pad1)*%
X129300000Y-104600000D03*
%TD*%
D15*
%TO.P,R9,1*%
%TO.N,+3V3*%
X128700000Y-108710000D03*
%TO.P,R9,2*%
%TO.N,/~{RESET}*%
X128700000Y-107690000D03*
%TD*%
D16*
%TO.P,U4,57,GND*%
%TO.N,GND*%
X138300000Y-106800000D03*
D17*
%TO.P,U4,56,CHIP_PU/RESET*%
%TO.N,/~{RESET}*%
X135700000Y-103362500D03*
%TO.P,U4,55,GPIO46*%
%TO.N,unconnected-(U4-Pad55)*%
X136100000Y-103362500D03*
%TO.P,U4,54,VDDA*%
%TO.N,/VDDA*%
X136500000Y-103362500D03*
%TO.P,U4,53,XTAL_P*%
%TO.N,Net-(R3-Pad2)*%
X136900000Y-103362500D03*
%TO.P,U4,52,XTAL_N*%
%TO.N,Net-(C14-Pad2)*%
X137300000Y-103362500D03*
%TO.P,U4,51,VDDA*%
%TO.N,/VDDA*%
X137700000Y-103362500D03*
%TO.P,U4,50,GPIO45*%
%TO.N,unconnected-(U4-Pad50)*%
X138100000Y-103362500D03*
%TO.P,U4,49,U0RXD/GPIO44*%
%TO.N,unconnected-(U4-Pad49)*%
X138500000Y-103362500D03*
%TO.P,U4,48,U0TXD/GPIO43*%
%TO.N,unconnected-(U4-Pad48)*%
X138900000Y-103362500D03*
%TO.P,U4,47,MTMS/JTAG/GPIO42*%
%TO.N,unconnected-(U4-Pad47)*%
X139300000Y-103362500D03*
%TO.P,U4,46,MTDI/JTAG/GPIO41*%
%TO.N,unconnected-(U4-Pad46)*%
X139700000Y-103362500D03*
%TO.P,U4,45,VDD3P3_CPU*%
%TO.N,+3V3*%
X140100000Y-103362500D03*
%TO.P,U4,44,MTDO/JTAG/GPIO40*%
%TO.N,unconnected-(U4-Pad44)*%
X140500000Y-103362500D03*
%TO.P,U4,43,MTCK/JTAG/GPIO39*%
%TO.N,unconnected-(U4-Pad43)*%
X140900000Y-103362500D03*
D18*
%TO.P,U4,42,GPIO38*%
%TO.N,unconnected-(U4-Pad42)*%
X141737500Y-104200000D03*
%TO.P,U4,41,GPIO37*%
%TO.N,Net-(R10-Pad2)*%
X141737500Y-104600000D03*
%TO.P,U4,40,GPIO36*%
%TO.N,unconnected-(U4-Pad40)*%
X141737500Y-105000000D03*
%TO.P,U4,39,GPIO35*%
%TO.N,unconnected-(U4-Pad39)*%
X141737500Y-105400000D03*
%TO.P,U4,38,GPIO34*%
%TO.N,unconnected-(U4-Pad38)*%
X141737500Y-105800000D03*
%TO.P,U4,37,GPIO33*%
%TO.N,unconnected-(U4-Pad37)*%
X141737500Y-106200000D03*
%TO.P,U4,36,SPID/GPIO32*%
%TO.N,unconnected-(U4-Pad36)*%
X141737500Y-106600000D03*
%TO.P,U4,35,SPIQ/GPIO31*%
%TO.N,unconnected-(U4-Pad35)*%
X141737500Y-107000000D03*
%TO.P,U4,34,SPICLK/GPIO30*%
%TO.N,unconnected-(U4-Pad34)*%
X141737500Y-107400000D03*
%TO.P,U4,33,SPICS0/GPIO29*%
%TO.N,unconnected-(U4-Pad33)*%
X141737500Y-107800000D03*
%TO.P,U4,32,SPIWP/GPIO28*%
%TO.N,unconnected-(U4-Pad32)*%
X141737500Y-108200000D03*
%TO.P,U4,31,SPIHD/GPIO27*%
%TO.N,unconnected-(U4-Pad31)*%
X141737500Y-108600000D03*
%TO.P,U4,30,VDD_SPI*%
%TO.N,/VDD_SPI*%
X141737500Y-109000000D03*
%TO.P,U4,29,SPI_CS1/GPIO26*%
%TO.N,unconnected-(U4-Pad29)*%
X141737500Y-109400000D03*
D17*
%TO.P,U4,28,GPIO21*%
%TO.N,unconnected-(U4-Pad28)*%
X140900000Y-110237500D03*
%TO.P,U4,27,VDD3P3_RTC_IO*%
%TO.N,+3V3*%
X140500000Y-110237500D03*
%TO.P,U4,26,GPIO20/ADC2_CH9/USB_D+*%
%TO.N,/D+*%
X140100000Y-110237500D03*
%TO.P,U4,25,GPIO19/ADC2_CH8/USB_D-*%
%TO.N,/D-*%
X139700000Y-110237500D03*
%TO.P,U4,24,GPIO18/ADC2_CH7/DAC_2*%
%TO.N,Net-(R7-Pad1)*%
X139300000Y-110237500D03*
%TO.P,U4,23,GPIO17/ADC2_CH6/DAC_1*%
%TO.N,unconnected-(U4-Pad23)*%
X138900000Y-110237500D03*
%TO.P,U4,22,GPIO16/ADC2_CH5/XTAL_32K_N*%
%TO.N,unconnected-(U4-Pad22)*%
X138500000Y-110237500D03*
%TO.P,U4,21,GPIO15/ADC2_CH4/XTAL_32K_P*%
%TO.N,unconnected-(U4-Pad21)*%
X138100000Y-110237500D03*
%TO.P,U4,20,VDD3P3_RTC*%
%TO.N,+3V3*%
X137700000Y-110237500D03*
%TO.P,U4,19,GPIO14/ADC2_CH3*%
%TO.N,unconnected-(U4-Pad19)*%
X137300000Y-110237500D03*
%TO.P,U4,18,GPIO13/ADC2_CH2*%
%TO.N,unconnected-(U4-Pad18)*%
X136900000Y-110237500D03*
%TO.P,U4,17,GPIO12/ADC2_CH1*%
%TO.N,unconnected-(U4-Pad17)*%
X136500000Y-110237500D03*
%TO.P,U4,16,GPIO11/ADC2_CH0*%
%TO.N,unconnected-(U4-Pad16)*%
X136100000Y-110237500D03*
%TO.P,U4,15,GPIO10/ADC1_CH9*%
%TO.N,unconnected-(U4-Pad15)*%
X135700000Y-110237500D03*
D18*
%TO.P,U4,14,GPIO9/ADC1_CH8*%
%TO.N,unconnected-(U4-Pad14)*%
X134862500Y-109400000D03*
%TO.P,U4,13,GPIO8/ADC1_CH7*%
%TO.N,unconnected-(U4-Pad13)*%
X134862500Y-109000000D03*
%TO.P,U4,12,GPIO7/ADC1_CH6*%
%TO.N,/MOTORB_IN2*%
X134862500Y-108600000D03*
%TO.P,U4,11,GPIO6/ADC1_CH5*%
%TO.N,/MOTORB_IN1*%
X134862500Y-108200000D03*
%TO.P,U4,10,GPIO5/ADC1_CH4*%
%TO.N,/MOTORA_IN2*%
X134862500Y-107800000D03*
%TO.P,U4,9,GPIO4/ADC1_CH3*%
%TO.N,/MOTORA_IN1*%
X134862500Y-107400000D03*
%TO.P,U4,8,GPIO3/ADC1_CH2*%
%TO.N,unconnected-(U4-Pad8)*%
X134862500Y-107000000D03*
%TO.P,U4,7,GPIO2/ADC1_CH1*%
%TO.N,unconnected-(U4-Pad7)*%
X134862500Y-106600000D03*
%TO.P,U4,6,GPIO1/ADC1_CH0*%
%TO.N,unconnected-(U4-Pad6)*%
X134862500Y-106200000D03*
%TO.P,U4,5,GPIO0/BOOT*%
%TO.N,/BOOT*%
X134862500Y-105800000D03*
%TO.P,U4,4,VDD3P3*%
%TO.N,/VDD3P3*%
X134862500Y-105400000D03*
%TO.P,U4,3,VDD3P3*%
X134862500Y-105000000D03*
%TO.P,U4,2,LNA_IN/RF*%
%TO.N,Net-(C17-Pad1)*%
X134862500Y-104600000D03*
%TO.P,U4,1,VDDA*%
%TO.N,/VDDA*%
X134862500Y-104200000D03*
%TD*%
D13*
%TO.P,C17,1*%
%TO.N,Net-(C17-Pad1)*%
X133700000Y-104600000D03*
%TO.P,C17,2*%
%TO.N,GND*%
X133700000Y-103640000D03*
%TD*%
D19*
%TO.P,R2,1*%
%TO.N,GND*%
X140700000Y-112067500D03*
%TO.P,R2,2*%
%TO.N,Net-(J1-PadB5)*%
X140700000Y-113087500D03*
%TD*%
D20*
%TO.P,L2,1,1*%
%TO.N,Net-(AE1-Pad1)*%
X131830000Y-104550000D03*
%TO.P,L2,2,2*%
%TO.N,Net-(C17-Pad1)*%
X132800000Y-104550000D03*
%TD*%
D19*
%TO.P,R1,1*%
%TO.N,GND*%
X137675000Y-112117500D03*
%TO.P,R1,2*%
%TO.N,Net-(J1-PadA5)*%
X137675000Y-113137500D03*
%TD*%
D21*
%TO.P,H2,1*%
%TO.N,N/C*%
X125050000Y-119200000D03*
%TD*%
D13*
%TO.P,C13,1*%
%TO.N,Net-(AE1-Pad1)*%
X130900000Y-104600000D03*
%TO.P,C13,2*%
%TO.N,GND*%
X130900000Y-103640000D03*
%TD*%
%TO.P,C2,1*%
%TO.N,+BATT*%
X135100000Y-102060000D03*
%TO.P,C2,2*%
%TO.N,GND*%
X135100000Y-101100000D03*
%TD*%
D21*
%TO.P,H1,1*%
%TO.N,N/C*%
X146150000Y-98700000D03*
%TD*%
D13*
%TO.P,C15,1*%
%TO.N,Net-(C15-Pad1)*%
X135500000Y-99560000D03*
%TO.P,C15,2*%
%TO.N,GND*%
X135500000Y-98600000D03*
%TD*%
D22*
%TO.P,Y1,4,4*%
%TO.N,GND*%
X137000000Y-97800000D03*
%TO.P,Y1,3,3*%
%TO.N,Net-(C14-Pad2)*%
X139200000Y-97800000D03*
%TO.P,Y1,2,2*%
%TO.N,GND*%
X139200000Y-99500000D03*
%TO.P,Y1,1,1*%
%TO.N,Net-(C15-Pad1)*%
X137000000Y-99500000D03*
%TD*%
D13*
%TO.P,C14,1*%
%TO.N,GND*%
X140700000Y-98760000D03*
%TO.P,C14,2*%
%TO.N,Net-(C14-Pad2)*%
X140700000Y-97800000D03*
%TD*%
D23*
%TO.P,C24,1*%
%TO.N,/~{RESET}*%
X129700000Y-107720000D03*
%TO.P,C24,2*%
%TO.N,GND*%
X129700000Y-108680000D03*
%TD*%
D24*
%TO.P,D1,1,K*%
%TO.N,Net-(D1-Pad1)*%
X143280000Y-111105000D03*
%TO.P,D1,2,A*%
%TO.N,/VBUS*%
X143280000Y-110135000D03*
%TD*%
D25*
%TO.P,J1,S4,SHIELD*%
%TO.N,GND*%
X143250000Y-119350000D03*
%TO.P,J1,S3,SHIELD*%
X134600000Y-119350000D03*
D26*
%TO.P,J1,S2,SHIELD*%
X143250000Y-115180000D03*
%TO.P,J1,S1,SHIELD*%
X134600000Y-115180000D03*
D27*
%TO.P,J1,B8,SBU2*%
%TO.N,unconnected-(J1-PadB8)*%
X137175000Y-114600000D03*
%TO.P,J1,B7,DN2*%
%TO.N,/D-*%
X138175000Y-114600000D03*
%TO.P,J1,B6,DP2*%
%TO.N,/D+*%
X139675000Y-114600000D03*
%TO.P,J1,B5,CC2*%
%TO.N,Net-(J1-PadB5)*%
X140675000Y-114600000D03*
D28*
%TO.P,J1,B4_A9,VBUS*%
%TO.N,/VBUS*%
X141325000Y-114600000D03*
%TO.P,J1,B1_A12,GND*%
%TO.N,GND*%
X142125000Y-114600000D03*
D27*
%TO.P,J1,A8,SBU1*%
%TO.N,unconnected-(J1-PadA8)*%
X140175000Y-114600000D03*
%TO.P,J1,A7,DN1*%
%TO.N,/D-*%
X139175000Y-114600000D03*
%TO.P,J1,A6,DP1*%
%TO.N,/D+*%
X138675000Y-114600000D03*
%TO.P,J1,A5,CC1*%
%TO.N,Net-(J1-PadA5)*%
X137675000Y-114600000D03*
D28*
%TO.P,J1,A4_B9,VBUS*%
%TO.N,/VBUS*%
X136525000Y-114600000D03*
%TO.P,J1,A1_B12,GND*%
%TO.N,GND*%
X135725000Y-114600000D03*
%TD*%
D29*
%TO.P,D2,1,K*%
%TO.N,Net-(C22-Pad1)*%
X134225000Y-112587500D03*
%TO.P,D2,2,A*%
%TO.N,/VBUS*%
X136325000Y-112587500D03*
%TD*%
D19*
%TO.P,R3,1*%
%TO.N,Net-(C15-Pad1)*%
X136900000Y-101090000D03*
%TO.P,R3,2*%
%TO.N,Net-(R3-Pad2)*%
X136900000Y-102110000D03*
%TD*%
D13*
%TO.P,C7,1*%
%TO.N,+BATT*%
X134200000Y-102060000D03*
%TO.P,C7,2*%
%TO.N,GND*%
X134200000Y-101100000D03*
%TD*%
D24*
%TO.P,D4,1,K*%
%TO.N,GND*%
X142900000Y-106185000D03*
%TO.P,D4,2,A*%
%TO.N,Net-(D4-Pad2)*%
X142900000Y-105215000D03*
%TD*%
D19*
%TO.P,R10,1*%
%TO.N,Net-(D4-Pad2)*%
X142900000Y-103090000D03*
%TO.P,R10,2*%
%TO.N,Net-(R10-Pad2)*%
X142900000Y-104110000D03*
%TD*%
D11*
%TO.P,U1,9,GND*%
%TO.N,GND*%
X129800000Y-98400000D03*
D12*
%TO.P,U1,8,VCC*%
%TO.N,+3V3*%
X130550000Y-99350000D03*
%TO.P,U1,7,~{SLEEP}*%
X130050000Y-99350000D03*
%TO.P,U1,6,IN1*%
%TO.N,/MOTORA_IN1*%
X129550000Y-99350000D03*
%TO.P,U1,5,IN2*%
%TO.N,/MOTORA_IN2*%
X129050000Y-99350000D03*
%TO.P,U1,4,GND*%
%TO.N,GND*%
X129050000Y-97450000D03*
%TO.P,U1,3,OUT2*%
%TO.N,/MOTORA_OUT2*%
X129550000Y-97450000D03*
%TO.P,U1,2,OUT1*%
%TO.N,/MOTORA_OUT1*%
X130050000Y-97450000D03*
%TO.P,U1,1,VM*%
%TO.N,+BATT*%
X130550000Y-97450000D03*
%TD*%
D13*
%TO.P,C6,1*%
%TO.N,+3V3*%
X133300000Y-102060000D03*
%TO.P,C6,2*%
%TO.N,GND*%
X133300000Y-101100000D03*
%TD*%
D30*
%TO.N,GND*%
X143550000Y-105730000D03*
%TO.N,/VBUS*%
X143000000Y-112000000D03*
X142510000Y-110120000D03*
%TO.N,+BATT*%
X140900000Y-100400000D03*
X135786500Y-101180000D03*
X131136000Y-98022276D03*
X141500000Y-99600000D03*
X134390000Y-99310000D03*
X133900000Y-109400000D03*
X142150000Y-99600000D03*
%TO.N,GND*%
X138140000Y-96920000D03*
X138600000Y-100700000D03*
X131600000Y-103700000D03*
X133000000Y-103130000D03*
X131010000Y-102790000D03*
X131600000Y-103100000D03*
X132600000Y-103700000D03*
X141550000Y-111550000D03*
X135700000Y-97660000D03*
X140450000Y-99400000D03*
X131490000Y-105300000D03*
X130800000Y-105450000D03*
X139600000Y-100400000D03*
X141700000Y-112250000D03*
X128150000Y-99750000D03*
X136120000Y-100580000D03*
X142599948Y-113139948D03*
X129340000Y-106250000D03*
X135400000Y-100250000D03*
X132635606Y-105246228D03*
X139850000Y-112750000D03*
X133330000Y-105290000D03*
X140600000Y-97100000D03*
%TO.N,+3V3*%
X128550000Y-106700000D03*
X129150000Y-119350000D03*
X140600000Y-111100000D03*
X142450000Y-101900000D03*
X128550000Y-109800000D03*
X137700000Y-111200000D03*
X131150000Y-99650000D03*
X129950000Y-119600000D03*
X130700000Y-117900000D03*
X140200000Y-102250000D03*
X131350000Y-101900000D03*
%TO.N,/~{RESET}*%
X132050000Y-105700000D03*
X134750000Y-103000000D03*
%TO.N,Net-(R7-Pad1)*%
X138800000Y-111300000D03*
%TO.N,Net-(D1-Pad1)*%
X142200000Y-111000000D03*
%TO.N,Net-(C22-Pad1)*%
X131700000Y-113900000D03*
%TO.N,/MOTORB_OUT1*%
X134750000Y-100300000D03*
%TO.N,/MOTORB_OUT2*%
X131200000Y-99000000D03*
%TO.N,/MOTORB_IN1*%
X133408623Y-108229895D03*
X132530000Y-100010000D03*
%TO.N,/MOTORA_OUT1*%
X131100000Y-97120000D03*
%TO.N,/MOTORA_OUT2*%
X135100000Y-96950000D03*
%TO.N,/MOTORA_IN1*%
X129600000Y-99800000D03*
X133900000Y-106900000D03*
%TO.N,/VDDA*%
X134410000Y-103730000D03*
X138300000Y-102400000D03*
X136300000Y-101650000D03*
%TO.N,/VDD3P3*%
X134100000Y-105300000D03*
%TO.N,/MOTORA_IN2*%
X129000000Y-100170000D03*
X133551500Y-107540000D03*
%TO.N,/MOTORB_IN2*%
X131800000Y-100000000D03*
X133480000Y-108890000D03*
%TO.N,/VDD_SPI*%
X142750000Y-109250000D03*
%TD*%
D31*
%TO.N,/VBUS*%
X141325000Y-113675000D02*
X143000000Y-112000000D01*
D32*
X136525000Y-114600000D02*
X136525000Y-115177022D01*
X140650000Y-116200000D02*
X141138479Y-115711521D01*
D31*
X141325000Y-114600000D02*
X141325000Y-113675000D01*
X136525000Y-112787500D02*
X136325000Y-112587500D01*
D32*
X141138479Y-114786521D02*
X141325000Y-114600000D01*
D33*
X142530000Y-110100000D02*
X142510000Y-110120000D01*
D32*
X141138479Y-115711521D02*
X141138479Y-114786521D01*
D31*
X136525000Y-114600000D02*
X136525000Y-112787500D01*
D32*
X137547978Y-116200000D02*
X140650000Y-116200000D01*
X136525000Y-115177022D02*
X137547978Y-116200000D01*
D33*
X143000000Y-110100000D02*
X142530000Y-110100000D01*
D34*
%TO.N,+BATT*%
X134298480Y-99218480D02*
X134298480Y-98298480D01*
D33*
X135610000Y-101356500D02*
X135610000Y-101550000D01*
D34*
X131136000Y-98022276D02*
X131122276Y-98022276D01*
D33*
X134200000Y-102060000D02*
X135100000Y-102060000D01*
D34*
X134298480Y-98298480D02*
X133450000Y-97450000D01*
X134390000Y-99310000D02*
X134298480Y-99218480D01*
D33*
X135610000Y-101550000D02*
X135100000Y-102060000D01*
D34*
X131122276Y-98022276D02*
X130550000Y-97450000D01*
D33*
X135786500Y-101180000D02*
X135610000Y-101356500D01*
D34*
%TO.N,GND*%
X129050000Y-97650000D02*
X129800000Y-98400000D01*
D33*
X138300000Y-106800000D02*
X135050000Y-110050000D01*
D32*
X134200000Y-101100000D02*
X133828511Y-100728511D01*
D33*
X138300000Y-106800000D02*
X141450000Y-103650000D01*
X141450000Y-109905702D02*
X141450000Y-109950000D01*
D32*
X133828511Y-100728511D02*
X133828511Y-98578511D01*
D34*
X131950000Y-97800000D02*
X131950000Y-97450000D01*
X129050000Y-97450000D02*
X129050000Y-97650000D01*
X132550000Y-98400000D02*
X131950000Y-97800000D01*
X132700000Y-98400000D02*
X132550000Y-98400000D01*
D33*
X138300000Y-106800000D02*
X138344298Y-106800000D01*
D32*
X133828511Y-98578511D02*
X133650000Y-98400000D01*
X133650000Y-98400000D02*
X132700000Y-98400000D01*
D33*
X138344298Y-106800000D02*
X141450000Y-109905702D01*
%TO.N,Net-(J1-PadA5)*%
X137675000Y-113137500D02*
X137675000Y-114600000D01*
D34*
%TO.N,/D+*%
X138675000Y-113925000D02*
X138675000Y-114600000D01*
X139675000Y-114600000D02*
X139675000Y-113875000D01*
X140100000Y-111200000D02*
X140100000Y-110237500D01*
X139200000Y-113800000D02*
X139200000Y-112100000D01*
X138800000Y-113800000D02*
X138675000Y-113925000D01*
X139675000Y-113875000D02*
X139600000Y-113800000D01*
X139200000Y-112100000D02*
X140100000Y-111200000D01*
X139600000Y-113800000D02*
X139200000Y-113800000D01*
X139200000Y-113800000D02*
X138800000Y-113800000D01*
%TO.N,/D-*%
X138900000Y-115600000D02*
X139200000Y-115300000D01*
X138175000Y-113825000D02*
X138800000Y-113200000D01*
X138800000Y-113200000D02*
X138800000Y-112062273D01*
X138800000Y-112062273D02*
X139700000Y-111162272D01*
X138400000Y-115600000D02*
X138900000Y-115600000D01*
X138175000Y-115375000D02*
X138400000Y-115600000D01*
X139700000Y-111162272D02*
X139700000Y-110237500D01*
X138175000Y-114600000D02*
X138175000Y-113825000D01*
X138175000Y-114600000D02*
X138175000Y-115375000D01*
X139200000Y-114625000D02*
X139175000Y-114600000D01*
X139200000Y-115300000D02*
X139200000Y-114625000D01*
D33*
%TO.N,Net-(J1-PadB5)*%
X140675000Y-113112500D02*
X140700000Y-113087500D01*
X140675000Y-114600000D02*
X140675000Y-113112500D01*
%TO.N,+3V3*%
X133300000Y-102060000D02*
X132400000Y-102060000D01*
X133450000Y-100000000D02*
X132900000Y-100550000D01*
X133450000Y-99350000D02*
X132950000Y-99350000D01*
X140200000Y-102250000D02*
X142100000Y-102250000D01*
X140500000Y-111000000D02*
X140500000Y-110237500D01*
X131510000Y-102060000D02*
X131350000Y-101900000D01*
X133450000Y-99350000D02*
X133450000Y-100000000D01*
X131300000Y-100550000D02*
X131150000Y-100400000D01*
X132400000Y-102060000D02*
X131510000Y-102060000D01*
X132050000Y-100550000D02*
X131300000Y-100550000D01*
X137700000Y-111200000D02*
X137700000Y-110237500D01*
D32*
X128700000Y-108710000D02*
X128700000Y-109650000D01*
D33*
X140600000Y-111100000D02*
X140500000Y-111000000D01*
X140100000Y-103362500D02*
X140100000Y-102350000D01*
X132900000Y-100550000D02*
X132050000Y-100550000D01*
X130550000Y-99350000D02*
X130050000Y-99350000D01*
X142100000Y-102250000D02*
X142450000Y-101900000D01*
X140100000Y-102350000D02*
X140200000Y-102250000D01*
X131150000Y-100400000D02*
X131150000Y-99650000D01*
X130550000Y-99350000D02*
X130850000Y-99350000D01*
X130850000Y-99350000D02*
X131150000Y-99650000D01*
D32*
X128700000Y-109650000D02*
X128550000Y-109800000D01*
D33*
%TO.N,Net-(D4-Pad2)*%
X143290000Y-103090000D02*
X143600000Y-103400000D01*
X143600000Y-103400000D02*
X143600000Y-105000000D01*
X143600000Y-105000000D02*
X143385000Y-105215000D01*
X143385000Y-105215000D02*
X142900000Y-105215000D01*
X142900000Y-103090000D02*
X143290000Y-103090000D01*
%TO.N,Net-(R10-Pad2)*%
X142410000Y-104600000D02*
X142900000Y-104110000D01*
X141737500Y-104600000D02*
X142410000Y-104600000D01*
%TO.N,/~{RESET}*%
X129670000Y-107690000D02*
X129700000Y-107720000D01*
X128700000Y-107690000D02*
X129670000Y-107690000D01*
X130820000Y-106600000D02*
X132000000Y-106600000D01*
X129700000Y-107720000D02*
X130820000Y-106600000D01*
X135337500Y-103000000D02*
X135700000Y-103362500D01*
X134750000Y-103000000D02*
X135337500Y-103000000D01*
X132000000Y-105750000D02*
X132050000Y-105700000D01*
X132000000Y-106600000D02*
X132000000Y-105750000D01*
%TO.N,Net-(R7-Pad1)*%
X138800000Y-111300000D02*
X139300000Y-110800000D01*
X139300000Y-110800000D02*
X139300000Y-110237500D01*
%TO.N,Net-(D1-Pad1)*%
X142270000Y-111070000D02*
X142200000Y-111000000D01*
X143000000Y-111070000D02*
X142270000Y-111070000D01*
D35*
%TO.N,Net-(R3-Pad2)*%
X136900000Y-103362500D02*
X136900000Y-102110000D01*
D31*
%TO.N,Net-(C22-Pad1)*%
X132700000Y-113900000D02*
X131700000Y-113900000D01*
X134012500Y-112587500D02*
X132900000Y-113700000D01*
X132900000Y-113700000D02*
X132700000Y-113900000D01*
X134225000Y-112587500D02*
X134012500Y-112587500D01*
D34*
%TO.N,/MOTORB_OUT1*%
X134900000Y-100150000D02*
X134900000Y-97650000D01*
X132950000Y-97025000D02*
X132950000Y-97450000D01*
X134750000Y-100300000D02*
X134900000Y-100150000D01*
X134900000Y-97650000D02*
X134227989Y-96977989D01*
X132997011Y-96977989D02*
X132950000Y-97025000D01*
X134227989Y-96977989D02*
X132997011Y-96977989D01*
%TO.N,/MOTORB_OUT2*%
X131602989Y-97897011D02*
X131600000Y-97900000D01*
X132450000Y-97450000D02*
X132450000Y-97025000D01*
X131600000Y-97900000D02*
X131600000Y-98750000D01*
X131602989Y-96977989D02*
X131602989Y-97897011D01*
X132450000Y-97025000D02*
X132402989Y-96977989D01*
X132402989Y-96977989D02*
X131602989Y-96977989D01*
X131600000Y-98750000D02*
X131350000Y-99000000D01*
X131350000Y-99000000D02*
X131200000Y-99000000D01*
D33*
%TO.N,/MOTORB_IN1*%
X132400000Y-99400000D02*
X132450000Y-99350000D01*
X133408623Y-108229895D02*
X133438518Y-108200000D01*
X132530000Y-100010000D02*
X132400000Y-99880000D01*
X132400000Y-99880000D02*
X132400000Y-99400000D01*
X133438518Y-108200000D02*
X134862500Y-108200000D01*
D34*
%TO.N,/MOTORA_OUT1*%
X131039022Y-97120000D02*
X130897011Y-96977989D01*
X130050000Y-97025000D02*
X130050000Y-97450000D01*
X131100000Y-97120000D02*
X131039022Y-97120000D01*
X130897011Y-96977989D02*
X130097011Y-96977989D01*
X130097011Y-96977989D02*
X130050000Y-97025000D01*
%TO.N,/MOTORA_OUT2*%
X129550000Y-97050000D02*
X129950000Y-96650000D01*
X134800000Y-96650000D02*
X135100000Y-96950000D01*
X129950000Y-96650000D02*
X134800000Y-96650000D01*
X129550000Y-97450000D02*
X129550000Y-97050000D01*
D33*
%TO.N,/MOTORA_IN1*%
X129600000Y-99800000D02*
X129600000Y-99400000D01*
X134862500Y-107400000D02*
X134400000Y-107400000D01*
X129600000Y-99400000D02*
X129550000Y-99350000D01*
X134100000Y-107100000D02*
X133900000Y-106900000D01*
X134400000Y-107400000D02*
X134100000Y-107100000D01*
%TO.N,/VDDA*%
X136300000Y-101650000D02*
X136300000Y-102317224D01*
X138200000Y-102400000D02*
X137700000Y-102900000D01*
X134862500Y-104182500D02*
X134862500Y-104200000D01*
X136300000Y-102317224D02*
X136500000Y-102517224D01*
X134410000Y-103730000D02*
X134862500Y-104182500D01*
X136500000Y-102517224D02*
X136500000Y-103362500D01*
X137700000Y-103362500D02*
X137700000Y-102900000D01*
X138300000Y-102400000D02*
X138200000Y-102400000D01*
D31*
%TO.N,Net-(C17-Pad1)*%
X133700000Y-104600000D02*
X132850000Y-104600000D01*
X132850000Y-104600000D02*
X132800000Y-104550000D01*
X134862500Y-104600000D02*
X133700000Y-104600000D01*
D33*
%TO.N,/VDD3P3*%
X134100000Y-105300000D02*
X134300000Y-105300000D01*
X134400000Y-105000000D02*
X134862500Y-105000000D01*
X134100000Y-105300000D02*
X134400000Y-105000000D01*
X134300000Y-105300000D02*
X134400000Y-105400000D01*
X134400000Y-105400000D02*
X134862500Y-105400000D01*
%TO.N,/BOOT*%
X133100000Y-106000000D02*
X133300000Y-105800000D01*
X133300000Y-105800000D02*
X134862500Y-105800000D01*
X130400000Y-111700000D02*
X130400000Y-109400000D01*
X131800000Y-108000000D02*
X133000000Y-108000000D01*
X130400000Y-109400000D02*
X131800000Y-108000000D01*
X133100000Y-107900000D02*
X133100000Y-106000000D01*
X133000000Y-108000000D02*
X133100000Y-107900000D01*
X132000000Y-111900000D02*
X130600000Y-111900000D01*
X130600000Y-111900000D02*
X130400000Y-111700000D01*
%TO.N,/MOTORA_IN2*%
X133551500Y-107540000D02*
X133811500Y-107800000D01*
X129050000Y-100120000D02*
X129050000Y-99350000D01*
X129000000Y-100170000D02*
X129050000Y-100120000D01*
X133811500Y-107800000D02*
X134862500Y-107800000D01*
%TO.N,/MOTORB_IN2*%
X131800000Y-100000000D02*
X131800000Y-99500000D01*
X133770000Y-108600000D02*
X134862500Y-108600000D01*
X131800000Y-99500000D02*
X131950000Y-99350000D01*
X133480000Y-108890000D02*
X133770000Y-108600000D01*
%TO.N,/VDD_SPI*%
X141737500Y-109000000D02*
X142500000Y-109000000D01*
X142500000Y-109000000D02*
X142750000Y-109250000D01*
D31*
%TO.N,Net-(AE1-Pad1)*%
X130950000Y-104550000D02*
X130900000Y-104600000D01*
X131830000Y-104550000D02*
X130950000Y-104550000D01*
X130900000Y-104600000D02*
X129300000Y-104600000D01*
D35*
%TO.N,Net-(C15-Pad1)*%
X137000000Y-99500000D02*
X135460000Y-99500000D01*
X135460000Y-99500000D02*
X135400000Y-99560000D01*
X136900000Y-101090000D02*
X137000000Y-100990000D01*
X137000000Y-100990000D02*
X137000000Y-99500000D01*
%TO.N,Net-(C14-Pad2)*%
X139200000Y-97800000D02*
X138100000Y-98900000D01*
X138100000Y-101800000D02*
X137300000Y-102600000D01*
X137300000Y-102600000D02*
X137300000Y-103362500D01*
X140700000Y-97800000D02*
X139200000Y-97800000D01*
X138100000Y-98900000D02*
X138100000Y-101800000D01*
%TD*%
%TA.AperFunction,Conductor*%
%TO.N,GND*%
G36*
X131424637Y-104963646D02*
G01*
X131449632Y-104981790D01*
X131477621Y-105009730D01*
X131581706Y-105060608D01*
X131631229Y-105067833D01*
X131645969Y-105069983D01*
X131645971Y-105069983D01*
X131649514Y-105070500D01*
X131906404Y-105070500D01*
X131964595Y-105089407D01*
X132000559Y-105138907D01*
X132000559Y-105200093D01*
X131964595Y-105249593D01*
X131933609Y-105264689D01*
X131870935Y-105282601D01*
X131870933Y-105282602D01*
X131864155Y-105284539D01*
X131755019Y-105353399D01*
X131669596Y-105450122D01*
X131614754Y-105566932D01*
X131594901Y-105694440D01*
X131595816Y-105701437D01*
X131595816Y-105701438D01*
X131597001Y-105710500D01*
X131611633Y-105822394D01*
X131613016Y-105825536D01*
X131610523Y-105885010D01*
X131572517Y-105932960D01*
X131517732Y-105949500D01*
X131130252Y-105949500D01*
X131104005Y-105954721D01*
X131081334Y-105959230D01*
X131081332Y-105959231D01*
X131071769Y-105961133D01*
X131005448Y-106005448D01*
X130961133Y-106071769D01*
X130949500Y-106130252D01*
X130949500Y-106224230D01*
X130930593Y-106282421D01*
X130881093Y-106318385D01*
X130839314Y-106320849D01*
X130839314Y-106321005D01*
X130836663Y-106321005D01*
X130831186Y-106321328D01*
X130829562Y-106321005D01*
X130820000Y-106319103D01*
X130712505Y-106340485D01*
X130704397Y-106345903D01*
X130704396Y-106345903D01*
X130685268Y-106358684D01*
X130644378Y-106386006D01*
X130644377Y-106386007D01*
X130621376Y-106401376D01*
X130615957Y-106409486D01*
X130611426Y-106416267D01*
X130599115Y-106431269D01*
X129819880Y-107210504D01*
X129765363Y-107238281D01*
X129749876Y-107239500D01*
X129512137Y-107239501D01*
X129490100Y-107239501D01*
X129486890Y-107239924D01*
X129486883Y-107239924D01*
X129448025Y-107245039D01*
X129448024Y-107245039D01*
X129440513Y-107246028D01*
X129408723Y-107260852D01*
X129339534Y-107293115D01*
X129339532Y-107293116D01*
X129331684Y-107296776D01*
X129286469Y-107341991D01*
X129231953Y-107369769D01*
X129171521Y-107360198D01*
X129146461Y-107341992D01*
X129080404Y-107275935D01*
X129072556Y-107272275D01*
X129072554Y-107272274D01*
X128980042Y-107229135D01*
X128980041Y-107229135D01*
X128973173Y-107225932D01*
X128924316Y-107219500D01*
X128909442Y-107219500D01*
X128851251Y-107200593D01*
X128815287Y-107151093D01*
X128815287Y-107089907D01*
X128841662Y-107051028D01*
X128840724Y-107050179D01*
X128922590Y-106959735D01*
X128922590Y-106959734D01*
X128927322Y-106954507D01*
X128983588Y-106838375D01*
X129004997Y-106711120D01*
X129005133Y-106700000D01*
X128986839Y-106572259D01*
X128933428Y-106454788D01*
X128849193Y-106357028D01*
X128843276Y-106353193D01*
X128843274Y-106353191D01*
X128746824Y-106290677D01*
X128740906Y-106286841D01*
X128734150Y-106284821D01*
X128734149Y-106284820D01*
X128683980Y-106269816D01*
X128617273Y-106249866D01*
X128540644Y-106249398D01*
X128495282Y-106249121D01*
X128488231Y-106249078D01*
X128481454Y-106251015D01*
X128481453Y-106251015D01*
X128370935Y-106282601D01*
X128370933Y-106282602D01*
X128364155Y-106284539D01*
X128255019Y-106353399D01*
X128169596Y-106450122D01*
X128114754Y-106566932D01*
X128094901Y-106694440D01*
X128095816Y-106701437D01*
X128095816Y-106701438D01*
X128097082Y-106711120D01*
X128111633Y-106822394D01*
X128114471Y-106828845D01*
X128114472Y-106828847D01*
X128154828Y-106920563D01*
X128163605Y-106940510D01*
X128205122Y-106989900D01*
X128242100Y-107033892D01*
X128242103Y-107033894D01*
X128246639Y-107039291D01*
X128252509Y-107043199D01*
X128252512Y-107043201D01*
X128339045Y-107100802D01*
X128377008Y-107148785D01*
X128379517Y-107209919D01*
X128345613Y-107260852D01*
X128330019Y-107270473D01*
X128327446Y-107272274D01*
X128319596Y-107275935D01*
X128235935Y-107359596D01*
X128232275Y-107367444D01*
X128232274Y-107367446D01*
X128189135Y-107459958D01*
X128185932Y-107466827D01*
X128179500Y-107515684D01*
X128179500Y-107864316D01*
X128185932Y-107913173D01*
X128189135Y-107920041D01*
X128189135Y-107920042D01*
X128210333Y-107965500D01*
X128235935Y-108020404D01*
X128319596Y-108104065D01*
X128332919Y-108110277D01*
X128377664Y-108152005D01*
X128389338Y-108212067D01*
X128363479Y-108267519D01*
X128332920Y-108289722D01*
X128319596Y-108295935D01*
X128235935Y-108379596D01*
X128232275Y-108387444D01*
X128232274Y-108387446D01*
X128193590Y-108470405D01*
X128185932Y-108486827D01*
X128179500Y-108535684D01*
X128179500Y-108884316D01*
X128185932Y-108933173D01*
X128189135Y-108940041D01*
X128189135Y-108940042D01*
X128231027Y-109029878D01*
X128235935Y-109040404D01*
X128319596Y-109124065D01*
X128327446Y-109127726D01*
X128330283Y-109129712D01*
X128367106Y-109178576D01*
X128372500Y-109210809D01*
X128372500Y-109324679D01*
X128353593Y-109382870D01*
X128326328Y-109408406D01*
X128317592Y-109413918D01*
X128255019Y-109453399D01*
X128169596Y-109550122D01*
X128114754Y-109666932D01*
X128094901Y-109794440D01*
X128095816Y-109801437D01*
X128095816Y-109801438D01*
X128097029Y-109810714D01*
X128111633Y-109922394D01*
X128114471Y-109928845D01*
X128114472Y-109928847D01*
X128140030Y-109986932D01*
X128163605Y-110040510D01*
X128205122Y-110089901D01*
X128242100Y-110133892D01*
X128242103Y-110133894D01*
X128246639Y-110139291D01*
X128354060Y-110210796D01*
X128360788Y-110212898D01*
X128360790Y-110212899D01*
X128415646Y-110230037D01*
X128477233Y-110249278D01*
X128541744Y-110250460D01*
X128599202Y-110251514D01*
X128599204Y-110251514D01*
X128606255Y-110251643D01*
X128613058Y-110249788D01*
X128613060Y-110249788D01*
X128665822Y-110235403D01*
X128730755Y-110217700D01*
X128840724Y-110150179D01*
X128927322Y-110054507D01*
X128983588Y-109938375D01*
X128998556Y-109849407D01*
X129004363Y-109814891D01*
X129004363Y-109814886D01*
X129004997Y-109811120D01*
X129005133Y-109800000D01*
X129005694Y-109800007D01*
X129010346Y-109767464D01*
X129012497Y-109763739D01*
X129019291Y-109725210D01*
X129021160Y-109716778D01*
X129024440Y-109704539D01*
X129031287Y-109678984D01*
X129027877Y-109640011D01*
X129027500Y-109631383D01*
X129027500Y-109210809D01*
X129046407Y-109152618D01*
X129069717Y-109129712D01*
X129072554Y-109127726D01*
X129080404Y-109124065D01*
X129086528Y-109117941D01*
X129086531Y-109117939D01*
X129146816Y-109057655D01*
X129201333Y-109029878D01*
X129261765Y-109039450D01*
X129286823Y-109057655D01*
X129325853Y-109096685D01*
X129339826Y-109106469D01*
X129433776Y-109150278D01*
X129436388Y-109151040D01*
X129443569Y-109149708D01*
X129444805Y-109148406D01*
X129446000Y-109143126D01*
X129446000Y-108525000D01*
X129464907Y-108466809D01*
X129514407Y-108430845D01*
X129545000Y-108426000D01*
X130176309Y-108426000D01*
X130187144Y-108422479D01*
X130187144Y-108415610D01*
X130156469Y-108349826D01*
X130146685Y-108335853D01*
X130081190Y-108270358D01*
X130053413Y-108215841D01*
X130062984Y-108155409D01*
X130081190Y-108130350D01*
X130153224Y-108058316D01*
X130157194Y-108049804D01*
X130200769Y-107956356D01*
X130203972Y-107949487D01*
X130210500Y-107899901D01*
X130210499Y-107640125D01*
X130229406Y-107581935D01*
X130239495Y-107570121D01*
X130783752Y-107025864D01*
X130838269Y-106998087D01*
X130898701Y-107007658D01*
X130941966Y-107050923D01*
X130950854Y-107076553D01*
X130961133Y-107128231D01*
X131005448Y-107194552D01*
X131071769Y-107238867D01*
X131081332Y-107240769D01*
X131081334Y-107240770D01*
X131102798Y-107245039D01*
X131130252Y-107250500D01*
X132725500Y-107250500D01*
X132783691Y-107269407D01*
X132819655Y-107318907D01*
X132824500Y-107349500D01*
X132824500Y-107625500D01*
X132805593Y-107683691D01*
X132756093Y-107719655D01*
X132725500Y-107724500D01*
X131836884Y-107724500D01*
X131817571Y-107722598D01*
X131800000Y-107719103D01*
X131772868Y-107724500D01*
X131772867Y-107724500D01*
X131744292Y-107730184D01*
X131702070Y-107738582D01*
X131702068Y-107738583D01*
X131692505Y-107740485D01*
X131662567Y-107760489D01*
X131624378Y-107786006D01*
X131624377Y-107786007D01*
X131601376Y-107801376D01*
X131595957Y-107809486D01*
X131591426Y-107816267D01*
X131579115Y-107831269D01*
X130340512Y-109069872D01*
X130285995Y-109097649D01*
X130225563Y-109088078D01*
X130182298Y-109044813D01*
X130172727Y-108984381D01*
X130180784Y-108958029D01*
X130185362Y-108948212D01*
X130186750Y-108936904D01*
X130180523Y-108934000D01*
X129969680Y-108934000D01*
X129956995Y-108938122D01*
X129954000Y-108942243D01*
X129954000Y-109138506D01*
X129958122Y-109151191D01*
X129959545Y-109152225D01*
X129966221Y-109150279D01*
X130036582Y-109117469D01*
X130097312Y-109110012D01*
X130150826Y-109139675D01*
X130176684Y-109195127D01*
X130165010Y-109255189D01*
X130160738Y-109262194D01*
X130140485Y-109292505D01*
X130131181Y-109339278D01*
X130119103Y-109400000D01*
X130121486Y-109411977D01*
X130122598Y-109417569D01*
X130124500Y-109436884D01*
X130124500Y-111663116D01*
X130122598Y-111682429D01*
X130119103Y-111700000D01*
X130121005Y-111709562D01*
X130124500Y-111727132D01*
X130124500Y-111727133D01*
X130135268Y-111781265D01*
X130140485Y-111807495D01*
X130201376Y-111898624D01*
X130209486Y-111904043D01*
X130216267Y-111908574D01*
X130231269Y-111920885D01*
X130379115Y-112068731D01*
X130391426Y-112083733D01*
X130401376Y-112098624D01*
X130409486Y-112104043D01*
X130424377Y-112113993D01*
X130423958Y-112114620D01*
X130423966Y-112114625D01*
X130424385Y-112113998D01*
X130427258Y-112115918D01*
X130492505Y-112159515D01*
X130502068Y-112161417D01*
X130502070Y-112161418D01*
X130537442Y-112168453D01*
X130572867Y-112175500D01*
X130572868Y-112175500D01*
X130600000Y-112180897D01*
X130609562Y-112178995D01*
X130609563Y-112178995D01*
X130617572Y-112177402D01*
X130636885Y-112175500D01*
X130850500Y-112175500D01*
X130908691Y-112194407D01*
X130944655Y-112243907D01*
X130949500Y-112274500D01*
X130949500Y-112369748D01*
X130961133Y-112428231D01*
X131005448Y-112494552D01*
X131071769Y-112538867D01*
X131081332Y-112540769D01*
X131081334Y-112540770D01*
X131104005Y-112545279D01*
X131130252Y-112550500D01*
X132869748Y-112550500D01*
X132895995Y-112545279D01*
X132918666Y-112540770D01*
X132918668Y-112540769D01*
X132928231Y-112538867D01*
X132994552Y-112494552D01*
X133038867Y-112428231D01*
X133050500Y-112369748D01*
X133050500Y-111430252D01*
X133038867Y-111371769D01*
X132994552Y-111305448D01*
X132928231Y-111261133D01*
X132918668Y-111259231D01*
X132918666Y-111259230D01*
X132895995Y-111254721D01*
X132869748Y-111249500D01*
X131130252Y-111249500D01*
X131104005Y-111254721D01*
X131081334Y-111259230D01*
X131081332Y-111259231D01*
X131071769Y-111261133D01*
X131005448Y-111305448D01*
X130961133Y-111371769D01*
X130949500Y-111430252D01*
X130949500Y-111525500D01*
X130930593Y-111583691D01*
X130881093Y-111619655D01*
X130850500Y-111624500D01*
X130774500Y-111624500D01*
X130716309Y-111605593D01*
X130680345Y-111556093D01*
X130675500Y-111525500D01*
X130675500Y-110464840D01*
X130950000Y-110464840D01*
X130950948Y-110474462D01*
X130959702Y-110518474D01*
X130967021Y-110536142D01*
X131000389Y-110586082D01*
X131013918Y-110599611D01*
X131063858Y-110632979D01*
X131081526Y-110640298D01*
X131125538Y-110649052D01*
X131135160Y-110650000D01*
X131730320Y-110650000D01*
X131743005Y-110645878D01*
X131746000Y-110641757D01*
X131746000Y-110634320D01*
X132254000Y-110634320D01*
X132258122Y-110647005D01*
X132262243Y-110650000D01*
X132864840Y-110650000D01*
X132874462Y-110649052D01*
X132918474Y-110640298D01*
X132936142Y-110632979D01*
X132986082Y-110599611D01*
X132999611Y-110586082D01*
X133032979Y-110536142D01*
X133040298Y-110518474D01*
X133049052Y-110474462D01*
X133050000Y-110464840D01*
X133050000Y-110269680D01*
X133045878Y-110256995D01*
X133041757Y-110254000D01*
X132269680Y-110254000D01*
X132256995Y-110258122D01*
X132254000Y-110262243D01*
X132254000Y-110634320D01*
X131746000Y-110634320D01*
X131746000Y-110269680D01*
X131741878Y-110256995D01*
X131737757Y-110254000D01*
X130965680Y-110254000D01*
X130952995Y-110258122D01*
X130950000Y-110262243D01*
X130950000Y-110464840D01*
X130675500Y-110464840D01*
X130675500Y-109555124D01*
X130694407Y-109496933D01*
X130704496Y-109485120D01*
X130791406Y-109398210D01*
X130845923Y-109370433D01*
X130906355Y-109380004D01*
X130949620Y-109423269D01*
X130958508Y-109487527D01*
X130950948Y-109525536D01*
X130950000Y-109535160D01*
X130950000Y-109730320D01*
X130954122Y-109743005D01*
X130958243Y-109746000D01*
X131730320Y-109746000D01*
X131743005Y-109741878D01*
X131746000Y-109737757D01*
X131746000Y-109730320D01*
X132254000Y-109730320D01*
X132258122Y-109743005D01*
X132262243Y-109746000D01*
X133034320Y-109746000D01*
X133047005Y-109741878D01*
X133050000Y-109737757D01*
X133050000Y-109535160D01*
X133049052Y-109525538D01*
X133040298Y-109481526D01*
X133032979Y-109463858D01*
X132999611Y-109413918D01*
X132986082Y-109400389D01*
X132936142Y-109367021D01*
X132918474Y-109359702D01*
X132874462Y-109350948D01*
X132864840Y-109350000D01*
X132269680Y-109350000D01*
X132256995Y-109354122D01*
X132254000Y-109358243D01*
X132254000Y-109730320D01*
X131746000Y-109730320D01*
X131746000Y-109365680D01*
X131741878Y-109352995D01*
X131737757Y-109350000D01*
X131135160Y-109350000D01*
X131125536Y-109350948D01*
X131087527Y-109358508D01*
X131026766Y-109351316D01*
X130981837Y-109309783D01*
X130969900Y-109249773D01*
X130998210Y-109191406D01*
X131885120Y-108304496D01*
X131939637Y-108276719D01*
X131955124Y-108275500D01*
X132874709Y-108275500D01*
X132932900Y-108294407D01*
X132969590Y-108347198D01*
X132970256Y-108352289D01*
X133022228Y-108470405D01*
X133074400Y-108532471D01*
X133082256Y-108541817D01*
X133105226Y-108598527D01*
X133096088Y-108647593D01*
X133044754Y-108756932D01*
X133024901Y-108884440D01*
X133041633Y-109012394D01*
X133044471Y-109018845D01*
X133044472Y-109018847D01*
X133088075Y-109117942D01*
X133093605Y-109130510D01*
X133112189Y-109152618D01*
X133172100Y-109223892D01*
X133172103Y-109223894D01*
X133176639Y-109229291D01*
X133284060Y-109300796D01*
X133290788Y-109302898D01*
X133290790Y-109302899D01*
X133378553Y-109330318D01*
X133428458Y-109365719D01*
X133447194Y-109411977D01*
X133461633Y-109522394D01*
X133464471Y-109528845D01*
X133464472Y-109528847D01*
X133483061Y-109571093D01*
X133513605Y-109640510D01*
X133541674Y-109673902D01*
X133592100Y-109733892D01*
X133592103Y-109733894D01*
X133596639Y-109739291D01*
X133704060Y-109810796D01*
X133710788Y-109812898D01*
X133710790Y-109812899D01*
X133753368Y-109826201D01*
X133827233Y-109849278D01*
X133891744Y-109850460D01*
X133949202Y-109851514D01*
X133949204Y-109851514D01*
X133956255Y-109851643D01*
X133963058Y-109849788D01*
X133963060Y-109849788D01*
X134004828Y-109838400D01*
X134080755Y-109817700D01*
X134190724Y-109750179D01*
X134197840Y-109742318D01*
X134220957Y-109716778D01*
X134239896Y-109695854D01*
X134292963Y-109665401D01*
X134353796Y-109671955D01*
X134368295Y-109679976D01*
X134377260Y-109685966D01*
X134450326Y-109700500D01*
X135273799Y-109700500D01*
X135331990Y-109719407D01*
X135343803Y-109729496D01*
X135370504Y-109756197D01*
X135398281Y-109810714D01*
X135399500Y-109826201D01*
X135399500Y-110649674D01*
X135414034Y-110722740D01*
X135469399Y-110805601D01*
X135552260Y-110860966D01*
X135625326Y-110875500D01*
X135774674Y-110875500D01*
X135847740Y-110860966D01*
X135855848Y-110855548D01*
X135862114Y-110852953D01*
X135923110Y-110848152D01*
X135937886Y-110852953D01*
X135944152Y-110855548D01*
X135952260Y-110860966D01*
X136025326Y-110875500D01*
X136174674Y-110875500D01*
X136247740Y-110860966D01*
X136255848Y-110855548D01*
X136262114Y-110852953D01*
X136323110Y-110848152D01*
X136337886Y-110852953D01*
X136344152Y-110855548D01*
X136352260Y-110860966D01*
X136425326Y-110875500D01*
X136574674Y-110875500D01*
X136647740Y-110860966D01*
X136655848Y-110855548D01*
X136662114Y-110852953D01*
X136723110Y-110848152D01*
X136737886Y-110852953D01*
X136744152Y-110855548D01*
X136752260Y-110860966D01*
X136825326Y-110875500D01*
X136974674Y-110875500D01*
X137047740Y-110860966D01*
X137055848Y-110855548D01*
X137062114Y-110852953D01*
X137123110Y-110848152D01*
X137137886Y-110852953D01*
X137144152Y-110855548D01*
X137152260Y-110860966D01*
X137219530Y-110874347D01*
X137272914Y-110904244D01*
X137298530Y-110959809D01*
X137289831Y-111013518D01*
X137275127Y-111044838D01*
X137264754Y-111066932D01*
X137244901Y-111194440D01*
X137245816Y-111201437D01*
X137245816Y-111201438D01*
X137247082Y-111211120D01*
X137261633Y-111322394D01*
X137264471Y-111328845D01*
X137264472Y-111328847D01*
X137306995Y-111425488D01*
X137313605Y-111440510D01*
X137373405Y-111511651D01*
X137384268Y-111524574D01*
X137407238Y-111581284D01*
X137392487Y-111640665D01*
X137350325Y-111678000D01*
X137302738Y-111700191D01*
X137288765Y-111709974D01*
X137217474Y-111781265D01*
X137207691Y-111795238D01*
X137182486Y-111849288D01*
X137181098Y-111860596D01*
X137187325Y-111863500D01*
X138158461Y-111863500D01*
X138169296Y-111859979D01*
X138169296Y-111853110D01*
X138142309Y-111795238D01*
X138132526Y-111781265D01*
X138061235Y-111709974D01*
X138047264Y-111700192D01*
X138033609Y-111693824D01*
X137988862Y-111652095D01*
X137977188Y-111592033D01*
X138002052Y-111537664D01*
X138072590Y-111459735D01*
X138072590Y-111459734D01*
X138077322Y-111454507D01*
X138117409Y-111371769D01*
X138130512Y-111344724D01*
X138130512Y-111344723D01*
X138133588Y-111338375D01*
X138154997Y-111211120D01*
X138155133Y-111200000D01*
X138136839Y-111072259D01*
X138109635Y-111012427D01*
X138102762Y-110951629D01*
X138132937Y-110898402D01*
X138180442Y-110874353D01*
X138238178Y-110862868D01*
X138247740Y-110860966D01*
X138255848Y-110855549D01*
X138262114Y-110852953D01*
X138323110Y-110848152D01*
X138337886Y-110852953D01*
X138344152Y-110855549D01*
X138352260Y-110860966D01*
X138382771Y-110867035D01*
X138436154Y-110896932D01*
X138461770Y-110952497D01*
X138449833Y-111012507D01*
X138437661Y-111029667D01*
X138419596Y-111050122D01*
X138364754Y-111166932D01*
X138344901Y-111294440D01*
X138361633Y-111422394D01*
X138364471Y-111428845D01*
X138364472Y-111428847D01*
X138405633Y-111522393D01*
X138413605Y-111540510D01*
X138451746Y-111585884D01*
X138492100Y-111633892D01*
X138492103Y-111633894D01*
X138496639Y-111639291D01*
X138578564Y-111693824D01*
X138587041Y-111699467D01*
X138625005Y-111747451D01*
X138627514Y-111808585D01*
X138604766Y-111849206D01*
X138593132Y-111861748D01*
X138590554Y-111864425D01*
X138577411Y-111877568D01*
X138574939Y-111881171D01*
X138571841Y-111884700D01*
X138552348Y-111905714D01*
X138548432Y-111915530D01*
X138538119Y-111934846D01*
X138532134Y-111943571D01*
X138530023Y-111952465D01*
X138530022Y-111952468D01*
X138526308Y-111968115D01*
X138521936Y-111981938D01*
X138515182Y-111998868D01*
X138515181Y-111998872D01*
X138512591Y-112005364D01*
X138512000Y-112011391D01*
X138512000Y-112016822D01*
X138509523Y-112037987D01*
X138509470Y-112039069D01*
X138507360Y-112047961D01*
X138508593Y-112057018D01*
X138511096Y-112075413D01*
X138512000Y-112088763D01*
X138512000Y-113039700D01*
X138493093Y-113097891D01*
X138483010Y-113109697D01*
X138364501Y-113228205D01*
X138309987Y-113255981D01*
X138249555Y-113246410D01*
X138206290Y-113203145D01*
X138195500Y-113158200D01*
X138195500Y-112963184D01*
X138189068Y-112914327D01*
X138173605Y-112881166D01*
X138142726Y-112814946D01*
X138142725Y-112814944D01*
X138139065Y-112807096D01*
X138055404Y-112723435D01*
X138041491Y-112716947D01*
X137996744Y-112675219D01*
X137985070Y-112615158D01*
X138010929Y-112559705D01*
X138041493Y-112537499D01*
X138047265Y-112534808D01*
X138061235Y-112525026D01*
X138132526Y-112453735D01*
X138142309Y-112439762D01*
X138167514Y-112385712D01*
X138168902Y-112374404D01*
X138162675Y-112371500D01*
X137191539Y-112371500D01*
X137180704Y-112375021D01*
X137180704Y-112381890D01*
X137207691Y-112439762D01*
X137217474Y-112453735D01*
X137288765Y-112525026D01*
X137302735Y-112534808D01*
X137308507Y-112537499D01*
X137353255Y-112579227D01*
X137364930Y-112639288D01*
X137339072Y-112694741D01*
X137308509Y-112716947D01*
X137294596Y-112723435D01*
X137210935Y-112807096D01*
X137207275Y-112814944D01*
X137207274Y-112814946D01*
X137176395Y-112881166D01*
X137160932Y-112914327D01*
X137154500Y-112963184D01*
X137154500Y-113311816D01*
X137160932Y-113360673D01*
X137164135Y-113367541D01*
X137164135Y-113367542D01*
X137204532Y-113454172D01*
X137210935Y-113467904D01*
X137294596Y-113551565D01*
X137302444Y-113555225D01*
X137302446Y-113555226D01*
X137342340Y-113573829D01*
X137387088Y-113615558D01*
X137399500Y-113663553D01*
X137399500Y-113730500D01*
X137380593Y-113788691D01*
X137331093Y-113824655D01*
X137300500Y-113829500D01*
X137005252Y-113829500D01*
X136990502Y-113832434D01*
X136929740Y-113825244D01*
X136884809Y-113783713D01*
X136872185Y-113735337D01*
X136872185Y-112806982D01*
X136872562Y-112798353D01*
X136875445Y-112765403D01*
X136876200Y-112756774D01*
X136865397Y-112716457D01*
X136863527Y-112708025D01*
X136857784Y-112675451D01*
X136857783Y-112675448D01*
X136856280Y-112666924D01*
X136851951Y-112659426D01*
X136849628Y-112653043D01*
X136846754Y-112646879D01*
X136844511Y-112638510D01*
X136839543Y-112631415D01*
X136835882Y-112623564D01*
X136838766Y-112622219D01*
X136825500Y-112580144D01*
X136825500Y-112342752D01*
X136813867Y-112284269D01*
X136769552Y-112217948D01*
X136703231Y-112173633D01*
X136693668Y-112171731D01*
X136693666Y-112171730D01*
X136670995Y-112167221D01*
X136644748Y-112162000D01*
X136005252Y-112162000D01*
X135979005Y-112167221D01*
X135956334Y-112171730D01*
X135956332Y-112171731D01*
X135946769Y-112173633D01*
X135880448Y-112217948D01*
X135836133Y-112284269D01*
X135824500Y-112342752D01*
X135824500Y-112832248D01*
X135836133Y-112890731D01*
X135880448Y-112957052D01*
X135946769Y-113001367D01*
X135956332Y-113003269D01*
X135956334Y-113003270D01*
X135979005Y-113007779D01*
X136005252Y-113013000D01*
X136078815Y-113013000D01*
X136137006Y-113031907D01*
X136172970Y-113081407D01*
X136177815Y-113112000D01*
X136177815Y-113735846D01*
X136158908Y-113794037D01*
X136109408Y-113830001D01*
X136059504Y-113832944D01*
X136049469Y-113830948D01*
X136039840Y-113830000D01*
X135994680Y-113830000D01*
X135981995Y-113834122D01*
X135979000Y-113838243D01*
X135979000Y-114755000D01*
X135960093Y-114813191D01*
X135910593Y-114849155D01*
X135880000Y-114854000D01*
X135570000Y-114854000D01*
X135511809Y-114835093D01*
X135475845Y-114785593D01*
X135471000Y-114755000D01*
X135471000Y-113845680D01*
X135466878Y-113832995D01*
X135462757Y-113830000D01*
X135410160Y-113830000D01*
X135400538Y-113830948D01*
X135356526Y-113839702D01*
X135338858Y-113847021D01*
X135288918Y-113880389D01*
X135275389Y-113893918D01*
X135242021Y-113943858D01*
X135234702Y-113961526D01*
X135225948Y-114005536D01*
X135225000Y-114015160D01*
X135225000Y-114093066D01*
X135206093Y-114151257D01*
X135156593Y-114187221D01*
X135095407Y-114187221D01*
X135062895Y-114169347D01*
X134955853Y-114080795D01*
X134945420Y-114074173D01*
X134868186Y-114037830D01*
X134856886Y-114036402D01*
X134854000Y-114042535D01*
X134854000Y-116315241D01*
X134857520Y-116326075D01*
X134868913Y-116326075D01*
X134873032Y-116324737D01*
X134884213Y-116319476D01*
X135012363Y-116238149D01*
X135021882Y-116230275D01*
X135125774Y-116119640D01*
X135133042Y-116109636D01*
X135206158Y-115976640D01*
X135210706Y-115965152D01*
X135248452Y-115818142D01*
X135250000Y-115805890D01*
X135250000Y-115459741D01*
X135268907Y-115401550D01*
X135318407Y-115365586D01*
X135368313Y-115362643D01*
X135400536Y-115369052D01*
X135410160Y-115370000D01*
X135417017Y-115370000D01*
X135475208Y-115388907D01*
X135511172Y-115438407D01*
X135510164Y-115502535D01*
X135495098Y-115544383D01*
X135491467Y-115554468D01*
X135480420Y-115704891D01*
X135481754Y-115711506D01*
X135481754Y-115711508D01*
X135492508Y-115764840D01*
X135510233Y-115852743D01*
X135513295Y-115858752D01*
X135513295Y-115858753D01*
X135527220Y-115886082D01*
X135578707Y-115987132D01*
X135583270Y-115992095D01*
X135583272Y-115992097D01*
X135632928Y-116046097D01*
X135680799Y-116098156D01*
X135715449Y-116119640D01*
X135803247Y-116174077D01*
X135803249Y-116174078D01*
X135808986Y-116177635D01*
X135953825Y-116219715D01*
X135958995Y-116220095D01*
X135958997Y-116220095D01*
X135962714Y-116220368D01*
X135962721Y-116220368D01*
X135964515Y-116220500D01*
X136072785Y-116220500D01*
X136076128Y-116220042D01*
X136076129Y-116220042D01*
X136177749Y-116206122D01*
X136177753Y-116206121D01*
X136184432Y-116205206D01*
X136190618Y-116202529D01*
X136190622Y-116202528D01*
X136316661Y-116147986D01*
X136316665Y-116147984D01*
X136322855Y-116145305D01*
X136440070Y-116050386D01*
X136447563Y-116039842D01*
X136523535Y-115932940D01*
X136523536Y-115932939D01*
X136527442Y-115927442D01*
X136529726Y-115921097D01*
X136529728Y-115921094D01*
X136549997Y-115864793D01*
X136587498Y-115816447D01*
X136646254Y-115799377D01*
X136703822Y-115820103D01*
X136713146Y-115828323D01*
X137303237Y-116418414D01*
X137309072Y-116424782D01*
X137334218Y-116454750D01*
X137341714Y-116459078D01*
X137341719Y-116459082D01*
X137368109Y-116474318D01*
X137375390Y-116478956D01*
X137407435Y-116501394D01*
X137415800Y-116503636D01*
X137421172Y-116506141D01*
X137426738Y-116508167D01*
X137434239Y-116512497D01*
X137442769Y-116514001D01*
X137472777Y-116519292D01*
X137481211Y-116521162D01*
X137504864Y-116527500D01*
X137518993Y-116531286D01*
X137557958Y-116527877D01*
X137566586Y-116527500D01*
X140631383Y-116527500D01*
X140640011Y-116527877D01*
X140678984Y-116531287D01*
X140716781Y-116521159D01*
X140725210Y-116519291D01*
X140755211Y-116514001D01*
X140755212Y-116514001D01*
X140763739Y-116512497D01*
X140771237Y-116508168D01*
X140776798Y-116506144D01*
X140782177Y-116503636D01*
X140790543Y-116501394D01*
X140797636Y-116496428D01*
X140797639Y-116496426D01*
X140822587Y-116478956D01*
X140829874Y-116474314D01*
X140856261Y-116459080D01*
X140856263Y-116459078D01*
X140863760Y-116454750D01*
X140888916Y-116424770D01*
X140894752Y-116418402D01*
X141270051Y-116043104D01*
X141324567Y-116015327D01*
X141384999Y-116024898D01*
X141412927Y-116046097D01*
X141456224Y-116093182D01*
X141456229Y-116093186D01*
X141460799Y-116098156D01*
X141495449Y-116119640D01*
X141583247Y-116174077D01*
X141583249Y-116174078D01*
X141588986Y-116177635D01*
X141733825Y-116219715D01*
X141738995Y-116220095D01*
X141738997Y-116220095D01*
X141742714Y-116220368D01*
X141742721Y-116220368D01*
X141744515Y-116220500D01*
X141852785Y-116220500D01*
X141856128Y-116220042D01*
X141856129Y-116220042D01*
X141957749Y-116206122D01*
X141957753Y-116206121D01*
X141964432Y-116205206D01*
X141970618Y-116202529D01*
X141970622Y-116202528D01*
X142096661Y-116147986D01*
X142096665Y-116147984D01*
X142102855Y-116145305D01*
X142220070Y-116050386D01*
X142227563Y-116039842D01*
X142303535Y-115932940D01*
X142303536Y-115932939D01*
X142307442Y-115927442D01*
X142309726Y-115921097D01*
X142309728Y-115921094D01*
X142356248Y-115791880D01*
X142356249Y-115791877D01*
X142358533Y-115785532D01*
X142369580Y-115635109D01*
X142361970Y-115597368D01*
X142340032Y-115488568D01*
X142347065Y-115427788D01*
X142388479Y-115382750D01*
X142435003Y-115370545D01*
X142434996Y-115370477D01*
X142435420Y-115370435D01*
X142437079Y-115370000D01*
X142439840Y-115370000D01*
X142449464Y-115369052D01*
X142481687Y-115362643D01*
X142542448Y-115369835D01*
X142587378Y-115411368D01*
X142600000Y-115459741D01*
X142600000Y-115767789D01*
X142600390Y-115773977D01*
X142614636Y-115886755D01*
X142617709Y-115898721D01*
X142673583Y-116039842D01*
X142679532Y-116050664D01*
X142768746Y-116173456D01*
X142777202Y-116182461D01*
X142894147Y-116279205D01*
X142904580Y-116285827D01*
X142981814Y-116322170D01*
X142993114Y-116323598D01*
X142996000Y-116317465D01*
X142996000Y-114044759D01*
X142992480Y-114033925D01*
X142981087Y-114033925D01*
X142976968Y-114035263D01*
X142965787Y-114040524D01*
X142837637Y-114121851D01*
X142828118Y-114129725D01*
X142796168Y-114163749D01*
X142742551Y-114193225D01*
X142681848Y-114185557D01*
X142637246Y-114143673D01*
X142625000Y-114095979D01*
X142625000Y-114015160D01*
X142624052Y-114005536D01*
X142615298Y-113961526D01*
X142607979Y-113943858D01*
X142574611Y-113893918D01*
X142561082Y-113880389D01*
X142511142Y-113847021D01*
X142493474Y-113839702D01*
X142449462Y-113830948D01*
X142439840Y-113830000D01*
X142394680Y-113830000D01*
X142381995Y-113834122D01*
X142379000Y-113838243D01*
X142379000Y-114755000D01*
X142360093Y-114813191D01*
X142310593Y-114849155D01*
X142280000Y-114854000D01*
X141970000Y-114854000D01*
X141911809Y-114835093D01*
X141875845Y-114785593D01*
X141871000Y-114755000D01*
X141871000Y-113845680D01*
X141866878Y-113832995D01*
X141843402Y-113815938D01*
X141844526Y-113814392D01*
X141826034Y-113804970D01*
X141798255Y-113750454D01*
X141807825Y-113690022D01*
X141826032Y-113664961D01*
X143014421Y-112476572D01*
X143058384Y-112451063D01*
X143180755Y-112417700D01*
X143290724Y-112350179D01*
X143303819Y-112335712D01*
X143372590Y-112259735D01*
X143372590Y-112259734D01*
X143377322Y-112254507D01*
X143415601Y-112175499D01*
X143430512Y-112144724D01*
X143430512Y-112144723D01*
X143433588Y-112138375D01*
X143450477Y-112037987D01*
X143454363Y-112014891D01*
X143454363Y-112014886D01*
X143454997Y-112011120D01*
X143455133Y-112000000D01*
X143436839Y-111872259D01*
X143407888Y-111808585D01*
X143386349Y-111761212D01*
X143386348Y-111761211D01*
X143383428Y-111754788D01*
X143380667Y-111751584D01*
X143365571Y-111693629D01*
X143387896Y-111636662D01*
X143439442Y-111603697D01*
X143464397Y-111600500D01*
X143485486Y-111600500D01*
X143489069Y-111599972D01*
X143489076Y-111599972D01*
X143546271Y-111591552D01*
X143546273Y-111591551D01*
X143553884Y-111590431D01*
X143560790Y-111587040D01*
X143568138Y-111584757D01*
X143568910Y-111587243D01*
X143617424Y-111580289D01*
X143671526Y-111608866D01*
X143698498Y-111663786D01*
X143699500Y-111677832D01*
X143699500Y-113967150D01*
X143680593Y-114025341D01*
X143631093Y-114061305D01*
X143569907Y-114061305D01*
X143558348Y-114056728D01*
X143518187Y-114037830D01*
X143506886Y-114036402D01*
X143504000Y-114042535D01*
X143504000Y-116315241D01*
X143507520Y-116326075D01*
X143518913Y-116326075D01*
X143523032Y-116324737D01*
X143534214Y-116319475D01*
X143547452Y-116311074D01*
X143606715Y-116295857D01*
X143663604Y-116318380D01*
X143696389Y-116370040D01*
X143699500Y-116394662D01*
X143699500Y-118287150D01*
X143680593Y-118345341D01*
X143631093Y-118381305D01*
X143569907Y-118381305D01*
X143558348Y-118376728D01*
X143518187Y-118357830D01*
X143506886Y-118356402D01*
X143504000Y-118362535D01*
X143504000Y-120335241D01*
X143507520Y-120346075D01*
X143518913Y-120346075D01*
X143523032Y-120344737D01*
X143534214Y-120339475D01*
X143547452Y-120331074D01*
X143606715Y-120315857D01*
X143663604Y-120338380D01*
X143696389Y-120390040D01*
X143699500Y-120414662D01*
X143699500Y-121150500D01*
X143680593Y-121208691D01*
X143631093Y-121244655D01*
X143600500Y-121249500D01*
X127599000Y-121249500D01*
X127540809Y-121230593D01*
X127504845Y-121181093D01*
X127500000Y-121150500D01*
X127500000Y-119344440D01*
X128694901Y-119344440D01*
X128711633Y-119472394D01*
X128714471Y-119478845D01*
X128714472Y-119478847D01*
X128760764Y-119584054D01*
X128763605Y-119590510D01*
X128788125Y-119619680D01*
X128842100Y-119683892D01*
X128842103Y-119683894D01*
X128846639Y-119689291D01*
X128954060Y-119760796D01*
X128960788Y-119762898D01*
X128960790Y-119762899D01*
X128997930Y-119774502D01*
X129077233Y-119799278D01*
X129141744Y-119800460D01*
X129199202Y-119801514D01*
X129199204Y-119801514D01*
X129206255Y-119801643D01*
X129213058Y-119799788D01*
X129213060Y-119799788D01*
X129257070Y-119787789D01*
X129330755Y-119767700D01*
X129392144Y-119730007D01*
X129451626Y-119715671D01*
X129508175Y-119739037D01*
X129534561Y-119774502D01*
X129545463Y-119799278D01*
X129563605Y-119840510D01*
X129605122Y-119889901D01*
X129642100Y-119933892D01*
X129642103Y-119933894D01*
X129646639Y-119939291D01*
X129754060Y-120010796D01*
X129760788Y-120012898D01*
X129760790Y-120012899D01*
X129815646Y-120030037D01*
X129877233Y-120049278D01*
X129941744Y-120050461D01*
X129999202Y-120051514D01*
X129999204Y-120051514D01*
X130006255Y-120051643D01*
X130013058Y-120049788D01*
X130013060Y-120049788D01*
X130054828Y-120038400D01*
X130130755Y-120017700D01*
X130240724Y-119950179D01*
X130255466Y-119933892D01*
X130322590Y-119859735D01*
X130322590Y-119859734D01*
X130327322Y-119854507D01*
X130359647Y-119787789D01*
X133950000Y-119787789D01*
X133950390Y-119793977D01*
X133964636Y-119906755D01*
X133967709Y-119918721D01*
X134023583Y-120059842D01*
X134029532Y-120070664D01*
X134118746Y-120193456D01*
X134127202Y-120202461D01*
X134244147Y-120299205D01*
X134254580Y-120305827D01*
X134331814Y-120342170D01*
X134343114Y-120343598D01*
X134346000Y-120337465D01*
X134346000Y-120335241D01*
X134854000Y-120335241D01*
X134857520Y-120346075D01*
X134868913Y-120346075D01*
X134873032Y-120344737D01*
X134884213Y-120339476D01*
X135012363Y-120258149D01*
X135021882Y-120250275D01*
X135125774Y-120139640D01*
X135133042Y-120129636D01*
X135206158Y-119996640D01*
X135210706Y-119985152D01*
X135248452Y-119838142D01*
X135250000Y-119825890D01*
X135250000Y-119787789D01*
X142600000Y-119787789D01*
X142600390Y-119793977D01*
X142614636Y-119906755D01*
X142617709Y-119918721D01*
X142673583Y-120059842D01*
X142679532Y-120070664D01*
X142768746Y-120193456D01*
X142777202Y-120202461D01*
X142894147Y-120299205D01*
X142904580Y-120305827D01*
X142981814Y-120342170D01*
X142993114Y-120343598D01*
X142996000Y-120337465D01*
X142996000Y-119619680D01*
X142991878Y-119606995D01*
X142987757Y-119604000D01*
X142615680Y-119604000D01*
X142602995Y-119608122D01*
X142600000Y-119612243D01*
X142600000Y-119787789D01*
X135250000Y-119787789D01*
X135250000Y-119619680D01*
X135245878Y-119606995D01*
X135241757Y-119604000D01*
X134869680Y-119604000D01*
X134856995Y-119608122D01*
X134854000Y-119612243D01*
X134854000Y-120335241D01*
X134346000Y-120335241D01*
X134346000Y-119619680D01*
X134341878Y-119606995D01*
X134337757Y-119604000D01*
X133965680Y-119604000D01*
X133952995Y-119608122D01*
X133950000Y-119612243D01*
X133950000Y-119787789D01*
X130359647Y-119787789D01*
X130372725Y-119760796D01*
X130380512Y-119744724D01*
X130380512Y-119744723D01*
X130383588Y-119738375D01*
X130404997Y-119611120D01*
X130405048Y-119606995D01*
X130405086Y-119603825D01*
X130405133Y-119600000D01*
X130386839Y-119472259D01*
X130333428Y-119354788D01*
X130249193Y-119257028D01*
X130243276Y-119253193D01*
X130243274Y-119253191D01*
X130146824Y-119190677D01*
X130140906Y-119186841D01*
X130134150Y-119184821D01*
X130134149Y-119184820D01*
X130091335Y-119172016D01*
X130017273Y-119149866D01*
X129940644Y-119149398D01*
X129895282Y-119149121D01*
X129888231Y-119149078D01*
X129881454Y-119151015D01*
X129881453Y-119151015D01*
X129770935Y-119182601D01*
X129770933Y-119182602D01*
X129764155Y-119184539D01*
X129758191Y-119188302D01*
X129709018Y-119219328D01*
X129649715Y-119234389D01*
X129592886Y-119211716D01*
X129566068Y-119176576D01*
X129536350Y-119111214D01*
X129536349Y-119111213D01*
X129533428Y-119104788D01*
X129512345Y-119080320D01*
X133950000Y-119080320D01*
X133954122Y-119093005D01*
X133958243Y-119096000D01*
X134330320Y-119096000D01*
X134343005Y-119091878D01*
X134346000Y-119087757D01*
X134346000Y-119080320D01*
X134854000Y-119080320D01*
X134858122Y-119093005D01*
X134862243Y-119096000D01*
X135234320Y-119096000D01*
X135247005Y-119091878D01*
X135250000Y-119087757D01*
X135250000Y-119080320D01*
X142600000Y-119080320D01*
X142604122Y-119093005D01*
X142608243Y-119096000D01*
X142980320Y-119096000D01*
X142993005Y-119091878D01*
X142996000Y-119087757D01*
X142996000Y-118364759D01*
X142992480Y-118353925D01*
X142981087Y-118353925D01*
X142976968Y-118355263D01*
X142965787Y-118360524D01*
X142837637Y-118441851D01*
X142828118Y-118449725D01*
X142724226Y-118560360D01*
X142716958Y-118570364D01*
X142643842Y-118703360D01*
X142639294Y-118714848D01*
X142601548Y-118861858D01*
X142600000Y-118874110D01*
X142600000Y-119080320D01*
X135250000Y-119080320D01*
X135250000Y-118912211D01*
X135249610Y-118906023D01*
X135235364Y-118793245D01*
X135232291Y-118781279D01*
X135176417Y-118640158D01*
X135170468Y-118629336D01*
X135081254Y-118506544D01*
X135072798Y-118497539D01*
X134955853Y-118400795D01*
X134945420Y-118394173D01*
X134868186Y-118357830D01*
X134856886Y-118356402D01*
X134854000Y-118362535D01*
X134854000Y-119080320D01*
X134346000Y-119080320D01*
X134346000Y-118364759D01*
X134342480Y-118353925D01*
X134331087Y-118353925D01*
X134326968Y-118355263D01*
X134315787Y-118360524D01*
X134187637Y-118441851D01*
X134178118Y-118449725D01*
X134074226Y-118560360D01*
X134066958Y-118570364D01*
X133993842Y-118703360D01*
X133989294Y-118714848D01*
X133951548Y-118861858D01*
X133950000Y-118874110D01*
X133950000Y-119080320D01*
X129512345Y-119080320D01*
X129449193Y-119007028D01*
X129443276Y-119003193D01*
X129443274Y-119003191D01*
X129346824Y-118940677D01*
X129340906Y-118936841D01*
X129334150Y-118934821D01*
X129334149Y-118934820D01*
X129291335Y-118922016D01*
X129217273Y-118899866D01*
X129140644Y-118899398D01*
X129095282Y-118899121D01*
X129088231Y-118899078D01*
X129081454Y-118901015D01*
X129081453Y-118901015D01*
X128970935Y-118932601D01*
X128970933Y-118932602D01*
X128964155Y-118934539D01*
X128855019Y-119003399D01*
X128769596Y-119100122D01*
X128714754Y-119216932D01*
X128694901Y-119344440D01*
X127500000Y-119344440D01*
X127500000Y-117894440D01*
X130244901Y-117894440D01*
X130245816Y-117901437D01*
X130245816Y-117901438D01*
X130247082Y-117911120D01*
X130261633Y-118022394D01*
X130264471Y-118028845D01*
X130264472Y-118028847D01*
X130271458Y-118044724D01*
X130313605Y-118140510D01*
X130355122Y-118189901D01*
X130392100Y-118233892D01*
X130392103Y-118233894D01*
X130396639Y-118239291D01*
X130504060Y-118310796D01*
X130510788Y-118312898D01*
X130510790Y-118312899D01*
X130565647Y-118330037D01*
X130627233Y-118349278D01*
X130691744Y-118350461D01*
X130749202Y-118351514D01*
X130749204Y-118351514D01*
X130756255Y-118351643D01*
X130763058Y-118349788D01*
X130763060Y-118349788D01*
X130804828Y-118338400D01*
X130880755Y-118317700D01*
X130990724Y-118250179D01*
X131077322Y-118154507D01*
X131133588Y-118038375D01*
X131154997Y-117911120D01*
X131155133Y-117900000D01*
X131136839Y-117772259D01*
X131083428Y-117654788D01*
X130999193Y-117557028D01*
X130993276Y-117553193D01*
X130993274Y-117553191D01*
X130896824Y-117490677D01*
X130890906Y-117486841D01*
X130884150Y-117484821D01*
X130884149Y-117484820D01*
X130841335Y-117472016D01*
X130767273Y-117449866D01*
X130690644Y-117449398D01*
X130645282Y-117449121D01*
X130638231Y-117449078D01*
X130631454Y-117451015D01*
X130631453Y-117451015D01*
X130520935Y-117482601D01*
X130520933Y-117482602D01*
X130514155Y-117484539D01*
X130405019Y-117553399D01*
X130319596Y-117650122D01*
X130264754Y-117766932D01*
X130244901Y-117894440D01*
X127500000Y-117894440D01*
X127500000Y-116998029D01*
X127500170Y-116996524D01*
X127500465Y-116995913D01*
X127500485Y-116972845D01*
X127502230Y-116972847D01*
X127502224Y-116972781D01*
X127500500Y-116972781D01*
X127500500Y-116955892D01*
X127500545Y-116904726D01*
X127500545Y-116904437D01*
X127500503Y-116904349D01*
X127500500Y-116904325D01*
X127500500Y-115764840D01*
X130950000Y-115764840D01*
X130950948Y-115774462D01*
X130959702Y-115818474D01*
X130967021Y-115836142D01*
X131000389Y-115886082D01*
X131013918Y-115899611D01*
X131063858Y-115932979D01*
X131081526Y-115940298D01*
X131125538Y-115949052D01*
X131135160Y-115950000D01*
X131730320Y-115950000D01*
X131743005Y-115945878D01*
X131746000Y-115941757D01*
X131746000Y-115934320D01*
X132254000Y-115934320D01*
X132258122Y-115947005D01*
X132262243Y-115950000D01*
X132864840Y-115950000D01*
X132874462Y-115949052D01*
X132918474Y-115940298D01*
X132936142Y-115932979D01*
X132986082Y-115899611D01*
X132999611Y-115886082D01*
X133032979Y-115836142D01*
X133040298Y-115818474D01*
X133049052Y-115774462D01*
X133049709Y-115767789D01*
X133950000Y-115767789D01*
X133950390Y-115773977D01*
X133964636Y-115886755D01*
X133967709Y-115898721D01*
X134023583Y-116039842D01*
X134029532Y-116050664D01*
X134118746Y-116173456D01*
X134127202Y-116182461D01*
X134244147Y-116279205D01*
X134254580Y-116285827D01*
X134331814Y-116322170D01*
X134343114Y-116323598D01*
X134346000Y-116317465D01*
X134346000Y-115449680D01*
X134341878Y-115436995D01*
X134337757Y-115434000D01*
X133965680Y-115434000D01*
X133952995Y-115438122D01*
X133950000Y-115442243D01*
X133950000Y-115767789D01*
X133049709Y-115767789D01*
X133050000Y-115764840D01*
X133050000Y-115569680D01*
X133045878Y-115556995D01*
X133041757Y-115554000D01*
X132269680Y-115554000D01*
X132256995Y-115558122D01*
X132254000Y-115562243D01*
X132254000Y-115934320D01*
X131746000Y-115934320D01*
X131746000Y-115569680D01*
X131741878Y-115556995D01*
X131737757Y-115554000D01*
X130965680Y-115554000D01*
X130952995Y-115558122D01*
X130950000Y-115562243D01*
X130950000Y-115764840D01*
X127500500Y-115764840D01*
X127500500Y-115030320D01*
X130950000Y-115030320D01*
X130954122Y-115043005D01*
X130958243Y-115046000D01*
X131730320Y-115046000D01*
X131743005Y-115041878D01*
X131746000Y-115037757D01*
X131746000Y-115030320D01*
X132254000Y-115030320D01*
X132258122Y-115043005D01*
X132262243Y-115046000D01*
X133034320Y-115046000D01*
X133047005Y-115041878D01*
X133050000Y-115037757D01*
X133050000Y-114910320D01*
X133950000Y-114910320D01*
X133954122Y-114923005D01*
X133958243Y-114926000D01*
X134330320Y-114926000D01*
X134343005Y-114921878D01*
X134346000Y-114917757D01*
X134346000Y-114044759D01*
X134342480Y-114033925D01*
X134331087Y-114033925D01*
X134326968Y-114035263D01*
X134315787Y-114040524D01*
X134187637Y-114121851D01*
X134178118Y-114129725D01*
X134074226Y-114240360D01*
X134066958Y-114250364D01*
X133993842Y-114383360D01*
X133989294Y-114394848D01*
X133951548Y-114541858D01*
X133950000Y-114554110D01*
X133950000Y-114910320D01*
X133050000Y-114910320D01*
X133050000Y-114835160D01*
X133049052Y-114825538D01*
X133040298Y-114781526D01*
X133032979Y-114763858D01*
X132999611Y-114713918D01*
X132986082Y-114700389D01*
X132936142Y-114667021D01*
X132918474Y-114659702D01*
X132874462Y-114650948D01*
X132864840Y-114650000D01*
X132269680Y-114650000D01*
X132256995Y-114654122D01*
X132254000Y-114658243D01*
X132254000Y-115030320D01*
X131746000Y-115030320D01*
X131746000Y-114665680D01*
X131741878Y-114652995D01*
X131737757Y-114650000D01*
X131135160Y-114650000D01*
X131125538Y-114650948D01*
X131081526Y-114659702D01*
X131063858Y-114667021D01*
X131013918Y-114700389D01*
X131000389Y-114713918D01*
X130967021Y-114763858D01*
X130959702Y-114781526D01*
X130950948Y-114825538D01*
X130950000Y-114835160D01*
X130950000Y-115030320D01*
X127500500Y-115030320D01*
X127500500Y-113894440D01*
X131244901Y-113894440D01*
X131261633Y-114022394D01*
X131264471Y-114028845D01*
X131264472Y-114028847D01*
X131309739Y-114131724D01*
X131313605Y-114140510D01*
X131351471Y-114185557D01*
X131392100Y-114233892D01*
X131392103Y-114233894D01*
X131396639Y-114239291D01*
X131504060Y-114310796D01*
X131510788Y-114312898D01*
X131510790Y-114312899D01*
X131565647Y-114330037D01*
X131627233Y-114349278D01*
X131691744Y-114350461D01*
X131749202Y-114351514D01*
X131749204Y-114351514D01*
X131756255Y-114351643D01*
X131763058Y-114349788D01*
X131763060Y-114349788D01*
X131804828Y-114338400D01*
X131880755Y-114317700D01*
X131971767Y-114261819D01*
X132023567Y-114247185D01*
X132680527Y-114247185D01*
X132689155Y-114247562D01*
X132730726Y-114251199D01*
X132739087Y-114248959D01*
X132739094Y-114248958D01*
X132771042Y-114240397D01*
X132779472Y-114238528D01*
X132820576Y-114231280D01*
X132828081Y-114226947D01*
X132834455Y-114224627D01*
X132840619Y-114221753D01*
X132848990Y-114219510D01*
X132883179Y-114195571D01*
X132890461Y-114190932D01*
X132919106Y-114174394D01*
X132926609Y-114170062D01*
X132953435Y-114138092D01*
X132959269Y-114131724D01*
X133166975Y-113924018D01*
X134048998Y-113041996D01*
X134103515Y-113014219D01*
X134119002Y-113013000D01*
X134544748Y-113013000D01*
X134570995Y-113007779D01*
X134593666Y-113003270D01*
X134593668Y-113003269D01*
X134603231Y-113001367D01*
X134669552Y-112957052D01*
X134713867Y-112890731D01*
X134725500Y-112832248D01*
X134725500Y-112342752D01*
X134713867Y-112284269D01*
X134669552Y-112217948D01*
X134603231Y-112173633D01*
X134593668Y-112171731D01*
X134593666Y-112171730D01*
X134570995Y-112167221D01*
X134544748Y-112162000D01*
X133905252Y-112162000D01*
X133879005Y-112167221D01*
X133856334Y-112171730D01*
X133856332Y-112171731D01*
X133846769Y-112173633D01*
X133780448Y-112217948D01*
X133736133Y-112284269D01*
X133724500Y-112342752D01*
X133724500Y-112347610D01*
X133724023Y-112352454D01*
X133721666Y-112352222D01*
X133705593Y-112401689D01*
X133695504Y-112413502D01*
X132675982Y-113433025D01*
X132585188Y-113523819D01*
X132530671Y-113551596D01*
X132515184Y-113552815D01*
X132021971Y-113552815D01*
X131968125Y-113536891D01*
X131929983Y-113512169D01*
X131890906Y-113486841D01*
X131884150Y-113484821D01*
X131884149Y-113484820D01*
X131841335Y-113472016D01*
X131767273Y-113449866D01*
X131690644Y-113449398D01*
X131645282Y-113449121D01*
X131638231Y-113449078D01*
X131631454Y-113451015D01*
X131631453Y-113451015D01*
X131520935Y-113482601D01*
X131520933Y-113482602D01*
X131514155Y-113484539D01*
X131405019Y-113553399D01*
X131319596Y-113650122D01*
X131264754Y-113766932D01*
X131244901Y-113894440D01*
X127500500Y-113894440D01*
X127500500Y-105899000D01*
X127519407Y-105840809D01*
X127568907Y-105804845D01*
X127599500Y-105800000D01*
X130500000Y-105800000D01*
X130500000Y-105163791D01*
X130518907Y-105105600D01*
X130568407Y-105069636D01*
X130626705Y-105068746D01*
X130633642Y-105070768D01*
X130640513Y-105073972D01*
X130690099Y-105080500D01*
X130899967Y-105080500D01*
X131109900Y-105080499D01*
X131113110Y-105080076D01*
X131113117Y-105080076D01*
X131151975Y-105074961D01*
X131151976Y-105074961D01*
X131159487Y-105073972D01*
X131244105Y-105034514D01*
X131260466Y-105026885D01*
X131260468Y-105026884D01*
X131268316Y-105023224D01*
X131309688Y-104981852D01*
X131364205Y-104954075D01*
X131424637Y-104963646D01*
G37*
%TD.AperFunction*%
%TA.AperFunction,Conductor*%
G36*
X142118076Y-109719407D02*
G01*
X142154040Y-109768907D01*
X142154040Y-109830093D01*
X142137723Y-109858668D01*
X142138137Y-109858940D01*
X142134263Y-109864837D01*
X142129596Y-109870122D01*
X142074754Y-109986932D01*
X142054901Y-110114440D01*
X142071633Y-110242394D01*
X142074471Y-110248845D01*
X142074472Y-110248847D01*
X142083639Y-110269680D01*
X142123605Y-110360510D01*
X142128142Y-110365907D01*
X142128143Y-110365909D01*
X142155962Y-110399003D01*
X142178932Y-110455713D01*
X142164182Y-110515093D01*
X142117345Y-110554464D01*
X142107384Y-110557894D01*
X142020935Y-110582601D01*
X142020933Y-110582602D01*
X142014155Y-110584539D01*
X141905019Y-110653399D01*
X141819596Y-110750122D01*
X141764754Y-110866932D01*
X141744901Y-110994440D01*
X141745816Y-111001437D01*
X141745816Y-111001438D01*
X141747396Y-111013518D01*
X141761633Y-111122394D01*
X141764471Y-111128845D01*
X141764472Y-111128847D01*
X141795780Y-111200000D01*
X141813605Y-111240510D01*
X141835496Y-111266552D01*
X141892100Y-111333892D01*
X141892103Y-111333894D01*
X141896639Y-111339291D01*
X142004060Y-111410796D01*
X142010788Y-111412898D01*
X142010790Y-111412899D01*
X142065647Y-111430037D01*
X142127233Y-111449278D01*
X142191744Y-111450460D01*
X142249202Y-111451514D01*
X142249204Y-111451514D01*
X142256255Y-111451643D01*
X142263058Y-111449788D01*
X142263060Y-111449788D01*
X142316504Y-111435217D01*
X142380755Y-111417700D01*
X142455561Y-111371769D01*
X142474511Y-111360134D01*
X142526312Y-111345500D01*
X142703770Y-111345500D01*
X142761961Y-111364407D01*
X142792637Y-111400869D01*
X142820628Y-111457880D01*
X142822095Y-111459345D01*
X142839614Y-111514573D01*
X142820299Y-111572630D01*
X142793445Y-111597606D01*
X142705019Y-111653399D01*
X142619596Y-111750122D01*
X142564754Y-111866932D01*
X142561082Y-111890514D01*
X142555466Y-111926585D01*
X142527649Y-111981358D01*
X141389504Y-113119503D01*
X141334987Y-113147280D01*
X141274555Y-113137709D01*
X141231290Y-113094444D01*
X141220500Y-113049499D01*
X141220500Y-112913184D01*
X141214068Y-112864327D01*
X141187381Y-112807096D01*
X141167726Y-112764946D01*
X141167725Y-112764944D01*
X141164065Y-112757096D01*
X141080404Y-112673435D01*
X141066491Y-112666947D01*
X141021744Y-112625219D01*
X141010070Y-112565158D01*
X141035929Y-112509705D01*
X141066493Y-112487499D01*
X141072265Y-112484808D01*
X141086235Y-112475026D01*
X141157526Y-112403735D01*
X141167309Y-112389762D01*
X141192514Y-112335712D01*
X141193902Y-112324404D01*
X141187675Y-112321500D01*
X140216539Y-112321500D01*
X140205704Y-112325021D01*
X140205704Y-112331890D01*
X140232691Y-112389762D01*
X140242474Y-112403735D01*
X140313765Y-112475026D01*
X140327735Y-112484808D01*
X140333507Y-112487499D01*
X140378255Y-112529227D01*
X140389930Y-112589288D01*
X140364072Y-112644741D01*
X140333509Y-112666947D01*
X140319596Y-112673435D01*
X140235935Y-112757096D01*
X140232275Y-112764944D01*
X140232274Y-112764946D01*
X140212619Y-112807096D01*
X140185932Y-112864327D01*
X140179500Y-112913184D01*
X140179500Y-113261816D01*
X140185932Y-113310673D01*
X140189135Y-113317541D01*
X140189135Y-113317542D01*
X140212451Y-113367542D01*
X140235935Y-113417904D01*
X140319596Y-113501565D01*
X140342340Y-113512171D01*
X140387087Y-113553897D01*
X140399500Y-113601894D01*
X140399500Y-113730500D01*
X140380593Y-113788691D01*
X140331093Y-113824655D01*
X140300500Y-113829500D01*
X140037607Y-113829500D01*
X139979416Y-113810593D01*
X139948504Y-113770380D01*
X139948345Y-113769525D01*
X139943550Y-113761746D01*
X139943548Y-113761741D01*
X139935110Y-113748053D01*
X139928424Y-113735183D01*
X139918470Y-113712012D01*
X139914626Y-113707332D01*
X139910782Y-113703488D01*
X139897576Y-113686780D01*
X139896842Y-113685971D01*
X139892048Y-113678193D01*
X139870005Y-113661431D01*
X139859926Y-113652632D01*
X139839788Y-113632494D01*
X139837342Y-113629661D01*
X139835217Y-113625313D01*
X139800524Y-113593131D01*
X139797848Y-113590554D01*
X139784705Y-113577411D01*
X139781102Y-113574939D01*
X139777573Y-113571841D01*
X139756559Y-113552348D01*
X139746741Y-113548431D01*
X139727427Y-113538119D01*
X139718702Y-113532134D01*
X139709808Y-113530023D01*
X139709805Y-113530022D01*
X139694158Y-113526308D01*
X139680335Y-113521936D01*
X139663405Y-113515182D01*
X139663401Y-113515181D01*
X139656909Y-113512591D01*
X139650882Y-113512000D01*
X139645448Y-113512000D01*
X139624303Y-113509525D01*
X139623210Y-113509472D01*
X139614313Y-113507360D01*
X139605253Y-113508593D01*
X139605252Y-113508593D01*
X139600348Y-113509260D01*
X139540140Y-113498371D01*
X139497830Y-113454172D01*
X139488000Y-113411164D01*
X139488000Y-112260302D01*
X139506907Y-112202111D01*
X139516996Y-112190298D01*
X140072143Y-111635151D01*
X140126660Y-111607374D01*
X140187092Y-111616945D01*
X140230357Y-111660210D01*
X140239928Y-111720642D01*
X140231871Y-111746994D01*
X140207486Y-111799287D01*
X140206098Y-111810596D01*
X140212325Y-111813500D01*
X141183461Y-111813500D01*
X141194296Y-111809979D01*
X141194296Y-111803110D01*
X141167309Y-111745238D01*
X141157526Y-111731265D01*
X141086235Y-111659974D01*
X141072262Y-111650191D01*
X140979909Y-111607125D01*
X140965531Y-111602934D01*
X140962293Y-111602508D01*
X140959504Y-111601178D01*
X140958260Y-111600815D01*
X140958319Y-111600612D01*
X140907069Y-111576165D01*
X140877876Y-111522393D01*
X140885865Y-111461731D01*
X140901821Y-111437919D01*
X140902008Y-111437713D01*
X140977322Y-111354507D01*
X141033588Y-111238375D01*
X141052015Y-111128847D01*
X141054363Y-111114891D01*
X141054363Y-111114886D01*
X141054997Y-111111120D01*
X141055133Y-111100000D01*
X141036839Y-110972259D01*
X141033919Y-110965836D01*
X141031940Y-110959069D01*
X141034178Y-110958415D01*
X141028507Y-110908251D01*
X141058683Y-110855024D01*
X141070501Y-110845758D01*
X141122491Y-110811020D01*
X141130601Y-110805601D01*
X141185966Y-110722740D01*
X141200500Y-110649674D01*
X141200500Y-109826201D01*
X141219407Y-109768010D01*
X141229496Y-109756197D01*
X141256197Y-109729496D01*
X141310714Y-109701719D01*
X141326201Y-109700500D01*
X142059885Y-109700500D01*
X142118076Y-109719407D01*
G37*
%TD.AperFunction*%
%TA.AperFunction,Conductor*%
G36*
X143661790Y-105443667D02*
G01*
X143695783Y-105494541D01*
X143699500Y-105521414D01*
X143699500Y-109562272D01*
X143680593Y-109620463D01*
X143631093Y-109656427D01*
X143569907Y-109656427D01*
X143563001Y-109653633D01*
X143560198Y-109652767D01*
X143553294Y-109649392D01*
X143503771Y-109642167D01*
X143489031Y-109640017D01*
X143489029Y-109640017D01*
X143485486Y-109639500D01*
X143219891Y-109639500D01*
X143161700Y-109620593D01*
X143125736Y-109571093D01*
X143125736Y-109509907D01*
X143130797Y-109497334D01*
X143130992Y-109496933D01*
X143183588Y-109388375D01*
X143198322Y-109300796D01*
X143204363Y-109264891D01*
X143204363Y-109264886D01*
X143204997Y-109261120D01*
X143205133Y-109250000D01*
X143186839Y-109122259D01*
X143149188Y-109039450D01*
X143136349Y-109011212D01*
X143136348Y-109011211D01*
X143133428Y-109004788D01*
X143074936Y-108936904D01*
X143053798Y-108912372D01*
X143053797Y-108912371D01*
X143049193Y-108907028D01*
X143043276Y-108903193D01*
X143043274Y-108903191D01*
X142946824Y-108840677D01*
X142940906Y-108836841D01*
X142934150Y-108834821D01*
X142934149Y-108834820D01*
X142908154Y-108827046D01*
X142817273Y-108799866D01*
X142794125Y-108799725D01*
X142724951Y-108799302D01*
X142670556Y-108782620D01*
X142632110Y-108756932D01*
X142632108Y-108756931D01*
X142615605Y-108745904D01*
X142607495Y-108740485D01*
X142597932Y-108738583D01*
X142597930Y-108738582D01*
X142562558Y-108731547D01*
X142527133Y-108724500D01*
X142527132Y-108724500D01*
X142500000Y-108719103D01*
X142490438Y-108721005D01*
X142480686Y-108721005D01*
X142480686Y-108718780D01*
X142433046Y-108713138D01*
X142388119Y-108671602D01*
X142375500Y-108623235D01*
X142375500Y-108525326D01*
X142360966Y-108452260D01*
X142355548Y-108444152D01*
X142352953Y-108437886D01*
X142348152Y-108376890D01*
X142352953Y-108362114D01*
X142355548Y-108355848D01*
X142360966Y-108347740D01*
X142375500Y-108274674D01*
X142375500Y-108125326D01*
X142360966Y-108052260D01*
X142355548Y-108044152D01*
X142352953Y-108037886D01*
X142348152Y-107976890D01*
X142352953Y-107962114D01*
X142355548Y-107955848D01*
X142360966Y-107947740D01*
X142375500Y-107874674D01*
X142375500Y-107725326D01*
X142360966Y-107652260D01*
X142355548Y-107644152D01*
X142352953Y-107637886D01*
X142348152Y-107576890D01*
X142352953Y-107562114D01*
X142355548Y-107555848D01*
X142360966Y-107547740D01*
X142375500Y-107474674D01*
X142375500Y-107325326D01*
X142360966Y-107252260D01*
X142355548Y-107244152D01*
X142352953Y-107237886D01*
X142348152Y-107176890D01*
X142352953Y-107162114D01*
X142355548Y-107155848D01*
X142360966Y-107147740D01*
X142375500Y-107074674D01*
X142375500Y-106925326D01*
X142360966Y-106852260D01*
X142355548Y-106844152D01*
X142352953Y-106837886D01*
X142348152Y-106776890D01*
X142352953Y-106762114D01*
X142355549Y-106755848D01*
X142360966Y-106747740D01*
X142371568Y-106694440D01*
X142373787Y-106683286D01*
X142403684Y-106629903D01*
X142459250Y-106604287D01*
X142519259Y-106616224D01*
X142527666Y-106621503D01*
X142532957Y-106625208D01*
X142629306Y-106670136D01*
X142634888Y-106671763D01*
X142643570Y-106670154D01*
X142644804Y-106668854D01*
X142646000Y-106663569D01*
X142646000Y-106658952D01*
X143154000Y-106658952D01*
X143158122Y-106671637D01*
X143159574Y-106672693D01*
X143161361Y-106672857D01*
X143170694Y-106670136D01*
X143267043Y-106625208D01*
X143281016Y-106615424D01*
X143355424Y-106541016D01*
X143365208Y-106527043D01*
X143399636Y-106453212D01*
X143401024Y-106441904D01*
X143394797Y-106439000D01*
X143169680Y-106439000D01*
X143156995Y-106443122D01*
X143154000Y-106447243D01*
X143154000Y-106658952D01*
X142646000Y-106658952D01*
X142646000Y-106030000D01*
X142664907Y-105971809D01*
X142714407Y-105935845D01*
X142745000Y-105931000D01*
X143390583Y-105931000D01*
X143401418Y-105927479D01*
X143401418Y-105920610D01*
X143365208Y-105842957D01*
X143355424Y-105828984D01*
X143296833Y-105770393D01*
X143269056Y-105715876D01*
X143278627Y-105655444D01*
X143296772Y-105630447D01*
X143353950Y-105573170D01*
X143353952Y-105573167D01*
X143359730Y-105567379D01*
X143374179Y-105537820D01*
X143416720Y-105493845D01*
X143443806Y-105484200D01*
X143454668Y-105482039D01*
X143492495Y-105474515D01*
X143545499Y-105439099D01*
X143604386Y-105422490D01*
X143661790Y-105443667D01*
G37*
%TD.AperFunction*%
%TA.AperFunction,Conductor*%
G36*
X132359831Y-104928939D02*
G01*
X132384905Y-104947123D01*
X132447621Y-105009730D01*
X132551706Y-105060608D01*
X132601229Y-105067833D01*
X132615969Y-105069983D01*
X132615971Y-105069983D01*
X132619514Y-105070500D01*
X132980486Y-105070500D01*
X132984069Y-105069972D01*
X132984076Y-105069972D01*
X133041271Y-105061552D01*
X133041273Y-105061551D01*
X133048884Y-105060431D01*
X133152880Y-105009372D01*
X133158658Y-105003584D01*
X133158662Y-105003581D01*
X133165282Y-104996949D01*
X133219775Y-104969125D01*
X133280215Y-104978645D01*
X133305349Y-104996889D01*
X133331684Y-105023224D01*
X133339532Y-105026884D01*
X133339534Y-105026885D01*
X133433044Y-105070489D01*
X133440513Y-105073972D01*
X133490099Y-105080500D01*
X133562605Y-105080500D01*
X133620796Y-105099407D01*
X133656760Y-105148907D01*
X133660426Y-105194730D01*
X133644901Y-105294440D01*
X133658115Y-105395486D01*
X133660361Y-105412663D01*
X133649159Y-105472814D01*
X133604740Y-105514893D01*
X133562197Y-105524500D01*
X133336885Y-105524500D01*
X133317572Y-105522598D01*
X133309563Y-105521005D01*
X133309562Y-105521005D01*
X133300000Y-105519103D01*
X133272868Y-105524500D01*
X133272867Y-105524500D01*
X133192505Y-105540485D01*
X133176206Y-105551376D01*
X133176204Y-105551377D01*
X133142493Y-105573902D01*
X133124378Y-105586006D01*
X133124377Y-105586007D01*
X133101376Y-105601376D01*
X133095957Y-105609486D01*
X133091426Y-105616267D01*
X133079115Y-105631269D01*
X132931269Y-105779115D01*
X132916267Y-105791426D01*
X132901376Y-105801376D01*
X132895957Y-105809486D01*
X132882929Y-105828984D01*
X132840485Y-105892505D01*
X132839962Y-105892155D01*
X132813977Y-105929436D01*
X132754227Y-105949500D01*
X132581939Y-105949500D01*
X132523748Y-105930593D01*
X132487784Y-105881093D01*
X132484311Y-105834075D01*
X132486277Y-105822394D01*
X132504997Y-105711120D01*
X132505133Y-105700000D01*
X132486839Y-105572259D01*
X132441624Y-105472814D01*
X132436349Y-105461212D01*
X132436348Y-105461211D01*
X132433428Y-105454788D01*
X132349193Y-105357028D01*
X132343276Y-105353193D01*
X132343274Y-105353191D01*
X132246824Y-105290677D01*
X132240906Y-105286841D01*
X132234150Y-105284821D01*
X132234149Y-105284820D01*
X132191335Y-105272016D01*
X132117273Y-105249866D01*
X132110216Y-105249823D01*
X132103245Y-105248781D01*
X132103737Y-105245488D01*
X132058887Y-105230672D01*
X132023167Y-105180997D01*
X132023466Y-105119812D01*
X132059673Y-105070489D01*
X132079074Y-105060819D01*
X132078884Y-105060431D01*
X132147210Y-105026885D01*
X132182880Y-105009372D01*
X132210412Y-104981792D01*
X132244899Y-104947245D01*
X132299391Y-104919420D01*
X132359831Y-104928939D01*
G37*
%TD.AperFunction*%
%TA.AperFunction,Conductor*%
G36*
X133954593Y-99444718D02*
G01*
X133965116Y-99463037D01*
X133988367Y-99515878D01*
X134003605Y-99550510D01*
X134034670Y-99587466D01*
X134082100Y-99643892D01*
X134082103Y-99643894D01*
X134086639Y-99649291D01*
X134194060Y-99720796D01*
X134200788Y-99722898D01*
X134200790Y-99722899D01*
X134250327Y-99738375D01*
X134317233Y-99759278D01*
X134381204Y-99760451D01*
X134419131Y-99761146D01*
X134476965Y-99781116D01*
X134512016Y-99831267D01*
X134510894Y-99892442D01*
X134470143Y-99943856D01*
X134460985Y-99949634D01*
X134460982Y-99949637D01*
X134455019Y-99953399D01*
X134369596Y-100050122D01*
X134314754Y-100166932D01*
X134294901Y-100294440D01*
X134295816Y-100301437D01*
X134295816Y-100301438D01*
X134296723Y-100308375D01*
X134311633Y-100422394D01*
X134314471Y-100428845D01*
X134314472Y-100428847D01*
X134356897Y-100525265D01*
X134363605Y-100540510D01*
X134399705Y-100583456D01*
X134430783Y-100620428D01*
X134453753Y-100677138D01*
X134454000Y-100684130D01*
X134454000Y-100830320D01*
X134458122Y-100843005D01*
X134462243Y-100846000D01*
X135255000Y-100846000D01*
X135313191Y-100864907D01*
X135349155Y-100914407D01*
X135354000Y-100945000D01*
X135354000Y-101026575D01*
X135350965Y-101046887D01*
X135351254Y-101046932D01*
X135331401Y-101174440D01*
X135332316Y-101181437D01*
X135332316Y-101181438D01*
X135340257Y-101242163D01*
X135329055Y-101302314D01*
X135284636Y-101344393D01*
X135242093Y-101354000D01*
X131923691Y-101354000D01*
X131912856Y-101357521D01*
X131912856Y-101364390D01*
X131943531Y-101430174D01*
X131953315Y-101444147D01*
X132018810Y-101509642D01*
X132046587Y-101564159D01*
X132037016Y-101624591D01*
X132018810Y-101649650D01*
X131946776Y-101721684D01*
X131943116Y-101729534D01*
X131938149Y-101736627D01*
X131936003Y-101735124D01*
X131903292Y-101770206D01*
X131843231Y-101781884D01*
X131787777Y-101756029D01*
X131765169Y-101724598D01*
X131748979Y-101688991D01*
X131733428Y-101654788D01*
X131668556Y-101579500D01*
X131653798Y-101562372D01*
X131653797Y-101562371D01*
X131649193Y-101557028D01*
X131643276Y-101553193D01*
X131643274Y-101553191D01*
X131546824Y-101490677D01*
X131540906Y-101486841D01*
X131534150Y-101484821D01*
X131534149Y-101484820D01*
X131491335Y-101472016D01*
X131417273Y-101449866D01*
X131340644Y-101449398D01*
X131295282Y-101449121D01*
X131288231Y-101449078D01*
X131281454Y-101451015D01*
X131281453Y-101451015D01*
X131170935Y-101482601D01*
X131170933Y-101482602D01*
X131164155Y-101484539D01*
X131158191Y-101488302D01*
X131109587Y-101518969D01*
X131055019Y-101553399D01*
X130969596Y-101650122D01*
X130914754Y-101766932D01*
X130894901Y-101894440D01*
X130895816Y-101901437D01*
X130895816Y-101901438D01*
X130897082Y-101911120D01*
X130911633Y-102022394D01*
X130914471Y-102028845D01*
X130914472Y-102028847D01*
X130945996Y-102100491D01*
X130963605Y-102140510D01*
X130981007Y-102161212D01*
X131042100Y-102233892D01*
X131042103Y-102233894D01*
X131046639Y-102239291D01*
X131154060Y-102310796D01*
X131160788Y-102312898D01*
X131160790Y-102312899D01*
X131215647Y-102330037D01*
X131277233Y-102349278D01*
X131341744Y-102350461D01*
X131399202Y-102351514D01*
X131399204Y-102351514D01*
X131406255Y-102351643D01*
X131413057Y-102349789D01*
X131413062Y-102349788D01*
X131450317Y-102339631D01*
X131495667Y-102338047D01*
X131500434Y-102338995D01*
X131500438Y-102338995D01*
X131510000Y-102340897D01*
X131527571Y-102337402D01*
X131546884Y-102335500D01*
X131854415Y-102335500D01*
X131912606Y-102354407D01*
X131937092Y-102384113D01*
X131938149Y-102383373D01*
X131943116Y-102390466D01*
X131946776Y-102398316D01*
X132031684Y-102483224D01*
X132039532Y-102486884D01*
X132039534Y-102486885D01*
X132129840Y-102528995D01*
X132140513Y-102533972D01*
X132190099Y-102540500D01*
X132399967Y-102540500D01*
X132609900Y-102540499D01*
X132613110Y-102540076D01*
X132613117Y-102540076D01*
X132651975Y-102534961D01*
X132651976Y-102534961D01*
X132659487Y-102533972D01*
X132723556Y-102504096D01*
X132760466Y-102486885D01*
X132760468Y-102486884D01*
X132768316Y-102483224D01*
X132779996Y-102471544D01*
X132834513Y-102443767D01*
X132894945Y-102453338D01*
X132920004Y-102471544D01*
X132931684Y-102483224D01*
X132939532Y-102486884D01*
X132939534Y-102486885D01*
X133029840Y-102528995D01*
X133040513Y-102533972D01*
X133090099Y-102540500D01*
X133299967Y-102540500D01*
X133509900Y-102540499D01*
X133513110Y-102540076D01*
X133513117Y-102540076D01*
X133551975Y-102534961D01*
X133551976Y-102534961D01*
X133559487Y-102533972D01*
X133623556Y-102504096D01*
X133660466Y-102486885D01*
X133660468Y-102486884D01*
X133668316Y-102483224D01*
X133679996Y-102471544D01*
X133734513Y-102443767D01*
X133794945Y-102453338D01*
X133820004Y-102471544D01*
X133831684Y-102483224D01*
X133839532Y-102486884D01*
X133839534Y-102486885D01*
X133929840Y-102528995D01*
X133940513Y-102533972D01*
X133990099Y-102540500D01*
X134007558Y-102540500D01*
X134335213Y-102540499D01*
X134393403Y-102559406D01*
X134429367Y-102608906D01*
X134429367Y-102670091D01*
X134409416Y-102705033D01*
X134378107Y-102740485D01*
X134369596Y-102750122D01*
X134314754Y-102866932D01*
X134294901Y-102994440D01*
X134311633Y-103122394D01*
X134314471Y-103128845D01*
X134314472Y-103128847D01*
X134331256Y-103166991D01*
X134337386Y-103227869D01*
X134306562Y-103280723D01*
X134267846Y-103302052D01*
X134234452Y-103311596D01*
X134173306Y-103309407D01*
X134137243Y-103286411D01*
X134074147Y-103223315D01*
X134060174Y-103213531D01*
X133966224Y-103169722D01*
X133963612Y-103168960D01*
X133956431Y-103170292D01*
X133955195Y-103171594D01*
X133954000Y-103176874D01*
X133954000Y-103795000D01*
X133935093Y-103853191D01*
X133885593Y-103889155D01*
X133855000Y-103894000D01*
X133223691Y-103894000D01*
X133212856Y-103897521D01*
X133212856Y-103904389D01*
X133224664Y-103929711D01*
X133232121Y-103990441D01*
X133202458Y-104043955D01*
X133147006Y-104069813D01*
X133091464Y-104060494D01*
X133074619Y-104052260D01*
X133048294Y-104039392D01*
X132998771Y-104032167D01*
X132984031Y-104030017D01*
X132984029Y-104030017D01*
X132980486Y-104029500D01*
X132619514Y-104029500D01*
X132615931Y-104030028D01*
X132615924Y-104030028D01*
X132558729Y-104038448D01*
X132558727Y-104038449D01*
X132551116Y-104039569D01*
X132544210Y-104042960D01*
X132544209Y-104042960D01*
X132525267Y-104052260D01*
X132447120Y-104090628D01*
X132441339Y-104096419D01*
X132385101Y-104152755D01*
X132330609Y-104180580D01*
X132270169Y-104171061D01*
X132245094Y-104152876D01*
X132188169Y-104096050D01*
X132182379Y-104090270D01*
X132078294Y-104039392D01*
X132028771Y-104032167D01*
X132014031Y-104030017D01*
X132014029Y-104030017D01*
X132010486Y-104029500D01*
X131649514Y-104029500D01*
X131645931Y-104030028D01*
X131645924Y-104030028D01*
X131588729Y-104038448D01*
X131588727Y-104038449D01*
X131581116Y-104039569D01*
X131574210Y-104042960D01*
X131574209Y-104042960D01*
X131499795Y-104079495D01*
X131439227Y-104088169D01*
X131385129Y-104059585D01*
X131358164Y-104004662D01*
X131366440Y-103948788D01*
X131385362Y-103908211D01*
X131386750Y-103896904D01*
X131380523Y-103894000D01*
X130745000Y-103894000D01*
X130686809Y-103875093D01*
X130650845Y-103825593D01*
X130646000Y-103795000D01*
X130646000Y-103370320D01*
X131154000Y-103370320D01*
X131158122Y-103383005D01*
X131162243Y-103386000D01*
X131376309Y-103386000D01*
X131385245Y-103383096D01*
X133213250Y-103383096D01*
X133219477Y-103386000D01*
X133430320Y-103386000D01*
X133443005Y-103381878D01*
X133446000Y-103377757D01*
X133446000Y-103181494D01*
X133441878Y-103168809D01*
X133440455Y-103167775D01*
X133433776Y-103169722D01*
X133339826Y-103213531D01*
X133325853Y-103223315D01*
X133253315Y-103295853D01*
X133243531Y-103309826D01*
X133214638Y-103371788D01*
X133213250Y-103383096D01*
X131385245Y-103383096D01*
X131387144Y-103382479D01*
X131387144Y-103375610D01*
X131356469Y-103309826D01*
X131346685Y-103295853D01*
X131274147Y-103223315D01*
X131260174Y-103213531D01*
X131166224Y-103169722D01*
X131163612Y-103168960D01*
X131156431Y-103170292D01*
X131155195Y-103171594D01*
X131154000Y-103176874D01*
X131154000Y-103370320D01*
X130646000Y-103370320D01*
X130646000Y-103181494D01*
X130641878Y-103168809D01*
X130640455Y-103167775D01*
X130626702Y-103171783D01*
X130565545Y-103169914D01*
X130517167Y-103132455D01*
X130500000Y-103076738D01*
X130500000Y-100440000D01*
X129704878Y-100440000D01*
X129646687Y-100421093D01*
X129610723Y-100371593D01*
X129610723Y-100310407D01*
X129646687Y-100260907D01*
X129678838Y-100245486D01*
X129682264Y-100244552D01*
X129780755Y-100217700D01*
X129882463Y-100155251D01*
X129884711Y-100153871D01*
X129890724Y-100150179D01*
X129895459Y-100144948D01*
X129972590Y-100059735D01*
X129972590Y-100059734D01*
X129977322Y-100054507D01*
X130028021Y-99949866D01*
X130030512Y-99944724D01*
X130030512Y-99944723D01*
X130033588Y-99938375D01*
X130034759Y-99931417D01*
X130042892Y-99883075D01*
X130071192Y-99828827D01*
X130125973Y-99801575D01*
X130140520Y-99800500D01*
X130194748Y-99800500D01*
X130221644Y-99795150D01*
X130243671Y-99790769D01*
X130243673Y-99790768D01*
X130253231Y-99788867D01*
X130261334Y-99783452D01*
X130262115Y-99783129D01*
X130323112Y-99778329D01*
X130337885Y-99783129D01*
X130338666Y-99783452D01*
X130346769Y-99788867D01*
X130356327Y-99790768D01*
X130356329Y-99790769D01*
X130378356Y-99795150D01*
X130405252Y-99800500D01*
X130659401Y-99800500D01*
X130717592Y-99819407D01*
X130750017Y-99859629D01*
X130760334Y-99883075D01*
X130763605Y-99890510D01*
X130841539Y-99983224D01*
X130846639Y-99989291D01*
X130845504Y-99990245D01*
X130872264Y-100036221D01*
X130874500Y-100057145D01*
X130874500Y-100363116D01*
X130872598Y-100382429D01*
X130869103Y-100400000D01*
X130874500Y-100427132D01*
X130874500Y-100427133D01*
X130890485Y-100507495D01*
X130951376Y-100598624D01*
X130959486Y-100604043D01*
X130966267Y-100608574D01*
X130981269Y-100620885D01*
X131079115Y-100718731D01*
X131091426Y-100733733D01*
X131101376Y-100748624D01*
X131109486Y-100754043D01*
X131117797Y-100759596D01*
X131124377Y-100763993D01*
X131124378Y-100763994D01*
X131150535Y-100781471D01*
X131192505Y-100809515D01*
X131202068Y-100811417D01*
X131202070Y-100811418D01*
X131233654Y-100817700D01*
X131272867Y-100825500D01*
X131272868Y-100825500D01*
X131300000Y-100830897D01*
X131317571Y-100827402D01*
X131336884Y-100825500D01*
X131853565Y-100825500D01*
X131895402Y-100834775D01*
X131919475Y-100846000D01*
X133930320Y-100846000D01*
X133943005Y-100841878D01*
X133946000Y-100837757D01*
X133946000Y-100641494D01*
X133941878Y-100628809D01*
X133940455Y-100627775D01*
X133933776Y-100629722D01*
X133839826Y-100673531D01*
X133825853Y-100683315D01*
X133820004Y-100689164D01*
X133765487Y-100716941D01*
X133705055Y-100707370D01*
X133679996Y-100689164D01*
X133674147Y-100683315D01*
X133660174Y-100673531D01*
X133566225Y-100629722D01*
X133551843Y-100625530D01*
X133513053Y-100620423D01*
X133506599Y-100620000D01*
X133458624Y-100620000D01*
X133400433Y-100601093D01*
X133364469Y-100551593D01*
X133364469Y-100490407D01*
X133388620Y-100450996D01*
X133618731Y-100220885D01*
X133633733Y-100208574D01*
X133640514Y-100204043D01*
X133648624Y-100198624D01*
X133664331Y-100175118D01*
X133676126Y-100157466D01*
X133704098Y-100115603D01*
X133704099Y-100115601D01*
X133709515Y-100107495D01*
X133711697Y-100096523D01*
X133725500Y-100027133D01*
X133725500Y-100027129D01*
X133730896Y-100000000D01*
X133727402Y-99982433D01*
X133725500Y-99963121D01*
X133725500Y-99765682D01*
X133742185Y-99710680D01*
X133752431Y-99695346D01*
X133763867Y-99678231D01*
X133775500Y-99619748D01*
X133775500Y-99502909D01*
X133794407Y-99444718D01*
X133843907Y-99408754D01*
X133905093Y-99408754D01*
X133954593Y-99444718D01*
G37*
%TD.AperFunction*%
%TA.AperFunction,Conductor*%
G36*
X143959191Y-96669407D02*
G01*
X143995155Y-96718907D01*
X144000000Y-96749500D01*
X144000000Y-100650496D01*
X143981093Y-100708687D01*
X143931593Y-100744651D01*
X143900915Y-100749496D01*
X143854437Y-100749455D01*
X143844388Y-100754280D01*
X143844389Y-100754280D01*
X143843489Y-100754712D01*
X143822655Y-100761987D01*
X143810815Y-100764688D01*
X143802097Y-100771635D01*
X143801525Y-100772091D01*
X143782686Y-100783909D01*
X143771976Y-100789052D01*
X143764389Y-100798539D01*
X143748778Y-100814123D01*
X143739276Y-100821695D01*
X143734432Y-100831738D01*
X143734118Y-100832390D01*
X143722264Y-100851214D01*
X143714844Y-100860492D01*
X143712123Y-100872326D01*
X143704810Y-100893151D01*
X143699535Y-100904087D01*
X143699515Y-100927155D01*
X143697770Y-100927153D01*
X143697776Y-100927219D01*
X143699500Y-100927219D01*
X143699500Y-100944108D01*
X143699455Y-100995563D01*
X143699497Y-100995651D01*
X143699500Y-100995675D01*
X143699500Y-102870876D01*
X143680593Y-102929067D01*
X143631093Y-102965031D01*
X143569907Y-102965031D01*
X143530496Y-102940880D01*
X143510885Y-102921269D01*
X143498574Y-102906267D01*
X143494043Y-102899486D01*
X143488624Y-102891376D01*
X143465623Y-102876007D01*
X143465622Y-102876006D01*
X143439465Y-102858529D01*
X143419971Y-102845503D01*
X143385251Y-102805029D01*
X143370759Y-102773952D01*
X143364065Y-102759596D01*
X143280404Y-102675935D01*
X143272556Y-102672275D01*
X143272554Y-102672274D01*
X143180042Y-102629135D01*
X143180041Y-102629135D01*
X143173173Y-102625932D01*
X143124316Y-102619500D01*
X142675684Y-102619500D01*
X142626827Y-102625932D01*
X142619959Y-102629135D01*
X142619958Y-102629135D01*
X142527446Y-102672274D01*
X142527444Y-102672275D01*
X142519596Y-102675935D01*
X142435935Y-102759596D01*
X142432275Y-102767444D01*
X142432274Y-102767446D01*
X142389802Y-102858528D01*
X142385932Y-102866827D01*
X142384943Y-102874339D01*
X142383414Y-102885957D01*
X142379500Y-102915684D01*
X142379500Y-103264316D01*
X142385932Y-103313173D01*
X142389135Y-103320041D01*
X142389135Y-103320042D01*
X142400749Y-103344947D01*
X142435935Y-103420404D01*
X142519596Y-103504065D01*
X142532919Y-103510277D01*
X142577664Y-103552005D01*
X142589338Y-103612067D01*
X142563479Y-103667519D01*
X142532920Y-103689722D01*
X142519596Y-103695935D01*
X142435935Y-103779596D01*
X142401617Y-103853191D01*
X142386263Y-103886118D01*
X142344535Y-103930866D01*
X142284474Y-103942540D01*
X142241539Y-103926594D01*
X142230850Y-103919452D01*
X142230847Y-103919451D01*
X142222740Y-103914034D01*
X142149674Y-103899500D01*
X141326201Y-103899500D01*
X141268010Y-103880593D01*
X141256197Y-103870504D01*
X141229496Y-103843803D01*
X141201719Y-103789286D01*
X141200500Y-103773799D01*
X141200500Y-102950326D01*
X141185966Y-102877260D01*
X141157984Y-102835381D01*
X141136020Y-102802509D01*
X141130601Y-102794399D01*
X141047740Y-102739034D01*
X140974674Y-102724500D01*
X140825326Y-102724500D01*
X140752260Y-102739034D01*
X140744153Y-102744451D01*
X140737886Y-102747047D01*
X140676890Y-102751848D01*
X140662114Y-102747047D01*
X140655847Y-102744451D01*
X140647740Y-102739034D01*
X140579442Y-102725448D01*
X140526059Y-102695552D01*
X140500443Y-102639987D01*
X140512380Y-102579978D01*
X140525362Y-102561912D01*
X140528848Y-102558061D01*
X140581917Y-102527609D01*
X140602243Y-102525500D01*
X142063116Y-102525500D01*
X142082429Y-102527402D01*
X142100000Y-102530897D01*
X142127132Y-102525500D01*
X142127133Y-102525500D01*
X142162558Y-102518453D01*
X142197930Y-102511418D01*
X142197932Y-102511417D01*
X142207495Y-102509515D01*
X142265901Y-102470489D01*
X142275622Y-102463994D01*
X142275623Y-102463993D01*
X142290518Y-102454041D01*
X142290520Y-102454039D01*
X142298624Y-102448624D01*
X142304039Y-102440520D01*
X142304043Y-102440516D01*
X142308578Y-102433729D01*
X142320888Y-102418728D01*
X142360352Y-102379264D01*
X142414869Y-102351487D01*
X142432169Y-102350285D01*
X142446604Y-102350550D01*
X142499202Y-102351514D01*
X142499204Y-102351514D01*
X142506255Y-102351643D01*
X142513058Y-102349788D01*
X142513060Y-102349788D01*
X142565466Y-102335500D01*
X142630755Y-102317700D01*
X142740724Y-102250179D01*
X142827322Y-102154507D01*
X142883588Y-102038375D01*
X142895268Y-101968950D01*
X142904363Y-101914891D01*
X142904363Y-101914886D01*
X142904997Y-101911120D01*
X142905133Y-101900000D01*
X142886839Y-101772259D01*
X142856792Y-101706174D01*
X142836349Y-101661212D01*
X142836348Y-101661210D01*
X142833428Y-101654788D01*
X142768556Y-101579500D01*
X142753798Y-101562372D01*
X142753797Y-101562371D01*
X142749193Y-101557028D01*
X142743276Y-101553193D01*
X142743274Y-101553191D01*
X142646824Y-101490677D01*
X142640906Y-101486841D01*
X142634150Y-101484821D01*
X142634149Y-101484820D01*
X142591335Y-101472016D01*
X142517273Y-101449866D01*
X142440644Y-101449398D01*
X142395282Y-101449121D01*
X142388231Y-101449078D01*
X142381454Y-101451015D01*
X142381453Y-101451015D01*
X142270935Y-101482601D01*
X142270933Y-101482602D01*
X142264155Y-101484539D01*
X142258191Y-101488302D01*
X142209587Y-101518969D01*
X142155019Y-101553399D01*
X142069596Y-101650122D01*
X142014754Y-101766932D01*
X142013669Y-101773902D01*
X141995478Y-101890731D01*
X141967843Y-101945320D01*
X141913400Y-101973240D01*
X141897657Y-101974500D01*
X140602708Y-101974500D01*
X140544517Y-101955593D01*
X140527709Y-101940123D01*
X140522573Y-101934162D01*
X140499193Y-101907028D01*
X140493276Y-101903193D01*
X140493274Y-101903191D01*
X140396824Y-101840677D01*
X140390906Y-101836841D01*
X140384150Y-101834821D01*
X140384149Y-101834820D01*
X140341335Y-101822016D01*
X140267273Y-101799866D01*
X140190644Y-101799398D01*
X140145282Y-101799121D01*
X140138231Y-101799078D01*
X140131454Y-101801015D01*
X140131453Y-101801015D01*
X140020935Y-101832601D01*
X140020933Y-101832602D01*
X140014155Y-101834539D01*
X139905019Y-101903399D01*
X139819596Y-102000122D01*
X139764754Y-102116932D01*
X139744901Y-102244440D01*
X139761633Y-102372394D01*
X139764471Y-102378845D01*
X139764472Y-102378847D01*
X139813605Y-102490510D01*
X139812136Y-102491156D01*
X139824500Y-102534416D01*
X139824500Y-102625500D01*
X139805593Y-102683691D01*
X139756093Y-102719655D01*
X139725500Y-102724500D01*
X139625326Y-102724500D01*
X139552260Y-102739034D01*
X139544153Y-102744451D01*
X139537886Y-102747047D01*
X139476890Y-102751848D01*
X139462114Y-102747047D01*
X139455847Y-102744451D01*
X139447740Y-102739034D01*
X139374674Y-102724500D01*
X139225326Y-102724500D01*
X139152260Y-102739034D01*
X139144153Y-102744451D01*
X139137886Y-102747047D01*
X139076890Y-102751848D01*
X139062114Y-102747047D01*
X139055847Y-102744451D01*
X139047740Y-102739034D01*
X138974674Y-102724500D01*
X138825326Y-102724500D01*
X138819188Y-102725721D01*
X138818551Y-102725646D01*
X138815714Y-102725925D01*
X138815653Y-102725303D01*
X138758427Y-102718532D01*
X138713495Y-102677001D01*
X138701556Y-102616992D01*
X138710776Y-102585458D01*
X138711222Y-102584539D01*
X138733588Y-102538375D01*
X138747776Y-102454041D01*
X138754363Y-102414891D01*
X138754363Y-102414886D01*
X138754997Y-102411120D01*
X138755133Y-102400000D01*
X138736839Y-102272259D01*
X138683428Y-102154788D01*
X138599193Y-102057028D01*
X138593276Y-102053193D01*
X138593274Y-102053191D01*
X138496824Y-101990677D01*
X138490906Y-101986841D01*
X138484153Y-101984821D01*
X138484148Y-101984819D01*
X138431084Y-101968950D01*
X138380750Y-101934162D01*
X138360477Y-101876433D01*
X138362352Y-101854786D01*
X138371348Y-101809562D01*
X138373250Y-101800000D01*
X138369902Y-101783168D01*
X138368000Y-101763855D01*
X138368000Y-100397690D01*
X138369056Y-100394440D01*
X140444901Y-100394440D01*
X140445816Y-100401437D01*
X140445816Y-100401438D01*
X140446878Y-100409562D01*
X140461633Y-100522394D01*
X140464471Y-100528845D01*
X140464472Y-100528847D01*
X140508001Y-100627775D01*
X140513605Y-100640510D01*
X140541219Y-100673361D01*
X140592100Y-100733892D01*
X140592103Y-100733894D01*
X140596639Y-100739291D01*
X140704060Y-100810796D01*
X140710788Y-100812898D01*
X140710790Y-100812899D01*
X140751121Y-100825499D01*
X140827233Y-100849278D01*
X140891744Y-100850460D01*
X140949202Y-100851514D01*
X140949204Y-100851514D01*
X140956255Y-100851643D01*
X140963058Y-100849788D01*
X140963060Y-100849788D01*
X141007188Y-100837757D01*
X141080755Y-100817700D01*
X141190724Y-100750179D01*
X141207280Y-100731888D01*
X141272590Y-100659735D01*
X141272590Y-100659734D01*
X141277322Y-100654507D01*
X141311746Y-100583456D01*
X141330512Y-100544724D01*
X141330512Y-100544723D01*
X141333588Y-100538375D01*
X141347500Y-100455680D01*
X141354363Y-100414891D01*
X141354363Y-100414886D01*
X141354997Y-100411120D01*
X141355133Y-100400000D01*
X141336839Y-100272259D01*
X141295306Y-100180912D01*
X141288433Y-100120115D01*
X141318608Y-100066888D01*
X141374306Y-100041564D01*
X141414949Y-100045441D01*
X141420498Y-100047175D01*
X141420506Y-100047176D01*
X141427233Y-100049278D01*
X141491744Y-100050461D01*
X141549202Y-100051514D01*
X141549204Y-100051514D01*
X141556255Y-100051643D01*
X141563058Y-100049788D01*
X141563060Y-100049788D01*
X141610214Y-100036932D01*
X141680755Y-100017700D01*
X141774364Y-99960224D01*
X141833846Y-99945888D01*
X141881024Y-99962179D01*
X141954060Y-100010796D01*
X141960788Y-100012898D01*
X141960790Y-100012899D01*
X142006351Y-100027133D01*
X142077233Y-100049278D01*
X142141744Y-100050461D01*
X142199202Y-100051514D01*
X142199204Y-100051514D01*
X142206255Y-100051643D01*
X142213058Y-100049788D01*
X142213060Y-100049788D01*
X142260214Y-100036932D01*
X142330755Y-100017700D01*
X142440724Y-99950179D01*
X142450579Y-99939291D01*
X142522590Y-99859735D01*
X142522590Y-99859734D01*
X142527322Y-99854507D01*
X142573398Y-99759407D01*
X142580512Y-99744724D01*
X142580512Y-99744723D01*
X142583588Y-99738375D01*
X142602744Y-99624512D01*
X142604363Y-99614891D01*
X142604363Y-99614886D01*
X142604997Y-99611120D01*
X142605133Y-99600000D01*
X142586839Y-99472259D01*
X142533428Y-99354788D01*
X142449193Y-99257028D01*
X142443276Y-99253193D01*
X142443274Y-99253191D01*
X142346824Y-99190677D01*
X142340906Y-99186841D01*
X142334150Y-99184821D01*
X142334149Y-99184820D01*
X142241568Y-99157132D01*
X142217273Y-99149866D01*
X142140644Y-99149398D01*
X142095282Y-99149121D01*
X142088231Y-99149078D01*
X142081454Y-99151015D01*
X142081453Y-99151015D01*
X141970935Y-99182601D01*
X141970933Y-99182602D01*
X141964155Y-99184539D01*
X141958191Y-99188302D01*
X141877439Y-99239253D01*
X141818136Y-99254314D01*
X141770765Y-99238602D01*
X141731399Y-99213087D01*
X141690906Y-99186841D01*
X141684150Y-99184821D01*
X141684149Y-99184820D01*
X141591568Y-99157132D01*
X141567273Y-99149866D01*
X141490644Y-99149398D01*
X141445282Y-99149121D01*
X141438231Y-99149078D01*
X141431454Y-99151015D01*
X141431453Y-99151015D01*
X141320935Y-99182601D01*
X141320933Y-99182602D01*
X141314155Y-99184539D01*
X141308191Y-99188302D01*
X141301753Y-99191182D01*
X141300476Y-99188327D01*
X141254018Y-99200123D01*
X141197190Y-99177447D01*
X141164543Y-99125699D01*
X141170773Y-99059496D01*
X141185362Y-99028209D01*
X141186750Y-99016904D01*
X141180523Y-99014000D01*
X140969680Y-99014000D01*
X140956995Y-99018122D01*
X140954000Y-99022243D01*
X140954000Y-99218506D01*
X140958122Y-99231191D01*
X140959545Y-99232225D01*
X140966219Y-99230280D01*
X140987100Y-99220543D01*
X141047830Y-99213087D01*
X141101343Y-99242751D01*
X141127201Y-99298204D01*
X141118554Y-99352341D01*
X141064754Y-99466932D01*
X141044901Y-99594440D01*
X141045816Y-99601437D01*
X141045816Y-99601438D01*
X141047082Y-99611120D01*
X141061633Y-99722394D01*
X141064471Y-99728845D01*
X141064472Y-99728847D01*
X141104897Y-99820720D01*
X141111027Y-99881598D01*
X141080203Y-99934452D01*
X141024199Y-99959094D01*
X140985914Y-99955441D01*
X140979086Y-99953399D01*
X140967273Y-99949866D01*
X140890644Y-99949398D01*
X140845282Y-99949121D01*
X140838231Y-99949078D01*
X140831454Y-99951015D01*
X140831453Y-99951015D01*
X140720935Y-99982601D01*
X140720933Y-99982602D01*
X140714155Y-99984539D01*
X140605019Y-100053399D01*
X140519596Y-100150122D01*
X140464754Y-100266932D01*
X140444901Y-100394440D01*
X138369056Y-100394440D01*
X138386907Y-100339499D01*
X138436407Y-100303535D01*
X138476703Y-100299167D01*
X138485161Y-100300000D01*
X138930320Y-100300000D01*
X138943005Y-100295878D01*
X138946000Y-100291757D01*
X138946000Y-100284320D01*
X139454000Y-100284320D01*
X139458122Y-100297005D01*
X139462243Y-100300000D01*
X139914840Y-100300000D01*
X139924462Y-100299052D01*
X139968474Y-100290298D01*
X139986142Y-100282979D01*
X140036082Y-100249611D01*
X140049611Y-100236082D01*
X140082979Y-100186142D01*
X140090298Y-100168474D01*
X140099052Y-100124462D01*
X140100000Y-100114840D01*
X140100000Y-99769680D01*
X140095878Y-99756995D01*
X140091757Y-99754000D01*
X139469680Y-99754000D01*
X139456995Y-99758122D01*
X139454000Y-99762243D01*
X139454000Y-100284320D01*
X138946000Y-100284320D01*
X138946000Y-99345000D01*
X138964907Y-99286809D01*
X139014407Y-99250845D01*
X139045000Y-99246000D01*
X140084320Y-99246000D01*
X140097005Y-99241878D01*
X140100000Y-99237757D01*
X140100000Y-99189840D01*
X140118907Y-99131649D01*
X140168407Y-99095685D01*
X140229593Y-99095685D01*
X140269004Y-99119836D01*
X140325853Y-99176685D01*
X140339826Y-99186469D01*
X140433776Y-99230278D01*
X140436388Y-99231040D01*
X140443569Y-99229708D01*
X140444805Y-99228406D01*
X140446000Y-99223126D01*
X140446000Y-98605000D01*
X140464907Y-98546809D01*
X140514407Y-98510845D01*
X140545000Y-98506000D01*
X141176309Y-98506000D01*
X141187144Y-98502479D01*
X141187144Y-98495610D01*
X141156469Y-98429826D01*
X141146685Y-98415853D01*
X141081190Y-98350358D01*
X141053413Y-98295841D01*
X141062984Y-98235409D01*
X141081190Y-98210350D01*
X141153224Y-98138316D01*
X141157232Y-98129722D01*
X141200769Y-98036356D01*
X141203972Y-98029487D01*
X141210500Y-97979901D01*
X141210499Y-97620100D01*
X141209722Y-97614190D01*
X141204961Y-97578025D01*
X141204961Y-97578024D01*
X141203972Y-97570513D01*
X141165035Y-97487012D01*
X141156885Y-97469534D01*
X141156884Y-97469532D01*
X141153224Y-97461684D01*
X141068316Y-97376776D01*
X141060468Y-97373116D01*
X141060466Y-97373115D01*
X140966356Y-97329231D01*
X140959487Y-97326028D01*
X140909901Y-97319500D01*
X140700033Y-97319500D01*
X140490100Y-97319501D01*
X140486890Y-97319924D01*
X140486883Y-97319924D01*
X140448025Y-97325039D01*
X140448024Y-97325039D01*
X140440513Y-97326028D01*
X140391208Y-97349020D01*
X140339534Y-97373115D01*
X140339532Y-97373116D01*
X140331684Y-97376776D01*
X140269504Y-97438956D01*
X140214987Y-97466733D01*
X140154555Y-97457162D01*
X140111290Y-97413897D01*
X140100500Y-97368952D01*
X140100500Y-97180252D01*
X140088867Y-97121769D01*
X140044552Y-97055448D01*
X139978231Y-97011133D01*
X139968668Y-97009231D01*
X139968666Y-97009230D01*
X139942984Y-97004122D01*
X139919748Y-96999500D01*
X138480252Y-96999500D01*
X138457016Y-97004122D01*
X138431334Y-97009230D01*
X138431332Y-97009231D01*
X138421769Y-97011133D01*
X138355448Y-97055448D01*
X138311133Y-97121769D01*
X138299500Y-97180252D01*
X138299500Y-98280483D01*
X138280593Y-98338674D01*
X138270504Y-98350487D01*
X138055960Y-98565031D01*
X138001443Y-98592808D01*
X137941011Y-98583237D01*
X137897746Y-98539972D01*
X137888858Y-98475713D01*
X137899052Y-98424462D01*
X137900000Y-98414840D01*
X137900000Y-98069680D01*
X137895878Y-98056995D01*
X137891757Y-98054000D01*
X136115680Y-98054000D01*
X136102995Y-98058122D01*
X136100000Y-98062243D01*
X136100000Y-98170160D01*
X136081093Y-98228351D01*
X136031593Y-98264315D01*
X135970407Y-98264315D01*
X135930996Y-98240164D01*
X135874147Y-98183315D01*
X135860174Y-98173531D01*
X135766224Y-98129722D01*
X135763612Y-98128960D01*
X135756431Y-98130292D01*
X135755195Y-98131594D01*
X135754000Y-98136874D01*
X135754000Y-98330320D01*
X135758122Y-98343005D01*
X135762243Y-98346000D01*
X135991989Y-98346000D01*
X135991989Y-98347151D01*
X136033951Y-98347151D01*
X136083451Y-98383115D01*
X136100456Y-98421992D01*
X136109702Y-98468474D01*
X136117021Y-98486142D01*
X136150389Y-98536082D01*
X136163919Y-98549612D01*
X136190518Y-98567385D01*
X136228397Y-98615435D01*
X136230799Y-98676573D01*
X136196806Y-98727447D01*
X136190530Y-98732007D01*
X136155448Y-98755448D01*
X136111133Y-98821769D01*
X136107769Y-98819521D01*
X136080396Y-98851595D01*
X136020906Y-98865900D01*
X135986798Y-98856926D01*
X135980523Y-98854000D01*
X135345000Y-98854000D01*
X135286809Y-98835093D01*
X135250845Y-98785593D01*
X135246000Y-98755000D01*
X135246000Y-98141494D01*
X135241878Y-98128807D01*
X135228809Y-98119312D01*
X135192845Y-98069812D01*
X135188000Y-98039220D01*
X135188000Y-97701114D01*
X135188274Y-97697378D01*
X135189846Y-97692801D01*
X135188070Y-97645505D01*
X135188000Y-97641790D01*
X135188000Y-97623212D01*
X135187200Y-97618919D01*
X135186894Y-97614190D01*
X135186163Y-97594723D01*
X135185820Y-97585587D01*
X135181649Y-97575879D01*
X135175281Y-97554920D01*
X135175019Y-97553512D01*
X135175018Y-97553510D01*
X135173345Y-97544525D01*
X135168548Y-97536742D01*
X135164923Y-97530861D01*
X135164792Y-97530320D01*
X136100000Y-97530320D01*
X136104122Y-97543005D01*
X136108243Y-97546000D01*
X136730320Y-97546000D01*
X136743005Y-97541878D01*
X136746000Y-97537757D01*
X136746000Y-97530320D01*
X137254000Y-97530320D01*
X137258122Y-97543005D01*
X137262243Y-97546000D01*
X137884320Y-97546000D01*
X137897005Y-97541878D01*
X137900000Y-97537757D01*
X137900000Y-97185160D01*
X137899052Y-97175538D01*
X137890298Y-97131526D01*
X137882979Y-97113858D01*
X137849611Y-97063918D01*
X137836082Y-97050389D01*
X137786142Y-97017021D01*
X137768474Y-97009702D01*
X137724462Y-97000948D01*
X137714840Y-97000000D01*
X137269680Y-97000000D01*
X137256995Y-97004122D01*
X137254000Y-97008243D01*
X137254000Y-97530320D01*
X136746000Y-97530320D01*
X136746000Y-97015680D01*
X136741878Y-97002995D01*
X136737757Y-97000000D01*
X136285160Y-97000000D01*
X136275538Y-97000948D01*
X136231526Y-97009702D01*
X136213858Y-97017021D01*
X136163918Y-97050389D01*
X136150389Y-97063918D01*
X136117021Y-97113858D01*
X136109702Y-97131526D01*
X136100948Y-97175538D01*
X136100000Y-97185160D01*
X136100000Y-97530320D01*
X135164792Y-97530320D01*
X135150486Y-97471403D01*
X135173755Y-97414815D01*
X135223161Y-97383402D01*
X135225006Y-97382899D01*
X135280755Y-97367700D01*
X135390724Y-97300179D01*
X135395459Y-97294948D01*
X135472590Y-97209735D01*
X135472590Y-97209734D01*
X135477322Y-97204507D01*
X135517409Y-97121769D01*
X135530512Y-97094724D01*
X135530512Y-97094723D01*
X135533588Y-97088375D01*
X135547069Y-97008243D01*
X135554363Y-96964891D01*
X135554363Y-96964886D01*
X135554997Y-96961120D01*
X135555133Y-96950000D01*
X135536839Y-96822259D01*
X135522388Y-96790476D01*
X135515515Y-96729678D01*
X135545690Y-96676451D01*
X135601388Y-96651127D01*
X135612510Y-96650500D01*
X143901000Y-96650500D01*
X143959191Y-96669407D01*
G37*
%TD.AperFunction*%
%TA.AperFunction,Conductor*%
G36*
X136045445Y-99902838D02*
G01*
X136088710Y-99946103D01*
X136099500Y-99991048D01*
X136099500Y-100119748D01*
X136100448Y-100124512D01*
X136108390Y-100164440D01*
X136111133Y-100178231D01*
X136155448Y-100244552D01*
X136221769Y-100288867D01*
X136231332Y-100290769D01*
X136231334Y-100290770D01*
X136249786Y-100294440D01*
X136280252Y-100300500D01*
X136633000Y-100300500D01*
X136691191Y-100319407D01*
X136727155Y-100368907D01*
X136732000Y-100399500D01*
X136732000Y-100525265D01*
X136713093Y-100583456D01*
X136663593Y-100619420D01*
X136645923Y-100623418D01*
X136626827Y-100625932D01*
X136619959Y-100629135D01*
X136619958Y-100629135D01*
X136527446Y-100672274D01*
X136527444Y-100672275D01*
X136519596Y-100675935D01*
X136435935Y-100759596D01*
X136432275Y-100767444D01*
X136432274Y-100767446D01*
X136393012Y-100851643D01*
X136385932Y-100866827D01*
X136379500Y-100915684D01*
X136379500Y-100938789D01*
X136360593Y-100996980D01*
X136311093Y-101032944D01*
X136249907Y-101032944D01*
X136200407Y-100996980D01*
X136190378Y-100979765D01*
X136172849Y-100941212D01*
X136172848Y-100941211D01*
X136169928Y-100934788D01*
X136096688Y-100849788D01*
X136090298Y-100842372D01*
X136090297Y-100842371D01*
X136085693Y-100837028D01*
X136079776Y-100833193D01*
X136079774Y-100833191D01*
X135983324Y-100770677D01*
X135977406Y-100766841D01*
X135970650Y-100764821D01*
X135970649Y-100764820D01*
X135919306Y-100749465D01*
X135853773Y-100729866D01*
X135777144Y-100729398D01*
X135731782Y-100729121D01*
X135724731Y-100729078D01*
X135717955Y-100731015D01*
X135717952Y-100731015D01*
X135621451Y-100758595D01*
X135560304Y-100756406D01*
X135524242Y-100733410D01*
X135474147Y-100683315D01*
X135460174Y-100673531D01*
X135366225Y-100629722D01*
X135351843Y-100625530D01*
X135313053Y-100620423D01*
X135306599Y-100620000D01*
X135253564Y-100620000D01*
X135195373Y-100601093D01*
X135159409Y-100551593D01*
X135159409Y-100490407D01*
X135164470Y-100477834D01*
X135180512Y-100444724D01*
X135180512Y-100444723D01*
X135183588Y-100438375D01*
X135204997Y-100311120D01*
X135205133Y-100300000D01*
X135190969Y-100201100D01*
X135190087Y-100182228D01*
X135190528Y-100173210D01*
X135192640Y-100164313D01*
X135191219Y-100153871D01*
X135191072Y-100152786D01*
X135191697Y-100149330D01*
X135191854Y-100146124D01*
X135192273Y-100146145D01*
X135201961Y-100092578D01*
X135246161Y-100050269D01*
X135290099Y-100041728D01*
X135290099Y-100040500D01*
X135709900Y-100040499D01*
X135713110Y-100040076D01*
X135713117Y-100040076D01*
X135751975Y-100034961D01*
X135751976Y-100034961D01*
X135759487Y-100033972D01*
X135811999Y-100009485D01*
X135860466Y-99986885D01*
X135860468Y-99986884D01*
X135868316Y-99983224D01*
X135930496Y-99921044D01*
X135985013Y-99893267D01*
X136045445Y-99902838D01*
G37*
%TD.AperFunction*%
%TA.AperFunction,Conductor*%
G36*
X129359026Y-96669407D02*
G01*
X129394990Y-96718907D01*
X129394990Y-96780093D01*
X129373416Y-96816828D01*
X129343130Y-96849477D01*
X129340553Y-96852153D01*
X129327411Y-96865295D01*
X129324939Y-96868898D01*
X129321841Y-96872427D01*
X129302348Y-96893441D01*
X129298432Y-96903257D01*
X129288119Y-96922573D01*
X129282134Y-96931298D01*
X129280024Y-96940187D01*
X129279615Y-96941111D01*
X129238753Y-96986651D01*
X129198238Y-96997544D01*
X129177995Y-97004122D01*
X129175000Y-97008243D01*
X129175000Y-97476000D01*
X129156093Y-97534191D01*
X129106593Y-97570155D01*
X129076000Y-97575000D01*
X128740680Y-97575000D01*
X128727995Y-97579122D01*
X128725000Y-97583243D01*
X128725000Y-97714840D01*
X128725948Y-97724462D01*
X128734702Y-97768474D01*
X128742021Y-97786142D01*
X128780808Y-97844192D01*
X128779388Y-97845141D01*
X128801908Y-97889341D01*
X128801294Y-97920677D01*
X128801425Y-97920690D01*
X128801261Y-97922356D01*
X128801226Y-97924137D01*
X128800948Y-97925536D01*
X128800000Y-97935160D01*
X128800000Y-98130320D01*
X128804122Y-98143005D01*
X128808243Y-98146000D01*
X129955000Y-98146000D01*
X130013191Y-98164907D01*
X130049155Y-98214407D01*
X130054000Y-98245000D01*
X130054000Y-98555000D01*
X130035093Y-98613191D01*
X129985593Y-98649155D01*
X129955000Y-98654000D01*
X128815680Y-98654000D01*
X128802995Y-98658122D01*
X128800000Y-98662243D01*
X128800000Y-98864840D01*
X128800948Y-98874462D01*
X128801105Y-98875253D01*
X128801062Y-98875620D01*
X128801425Y-98879310D01*
X128800616Y-98879390D01*
X128793916Y-98936014D01*
X128780397Y-98955414D01*
X128780448Y-98955448D01*
X128736133Y-99021769D01*
X128734231Y-99031332D01*
X128734230Y-99031334D01*
X128733271Y-99036155D01*
X128724500Y-99080252D01*
X128724500Y-99619748D01*
X128736133Y-99678231D01*
X128741551Y-99686340D01*
X128745282Y-99695346D01*
X128742728Y-99696404D01*
X128755286Y-99740922D01*
X128734111Y-99798327D01*
X128715993Y-99814641D01*
X128716354Y-99815065D01*
X128710984Y-99819636D01*
X128705019Y-99823399D01*
X128619596Y-99920122D01*
X128564754Y-100036932D01*
X128544901Y-100164440D01*
X128561633Y-100292394D01*
X128564472Y-100298846D01*
X128564473Y-100298850D01*
X128565476Y-100301129D01*
X128565683Y-100303183D01*
X128566370Y-100305644D01*
X128565943Y-100305763D01*
X128571606Y-100362006D01*
X128540782Y-100414860D01*
X128484778Y-100439502D01*
X128474860Y-100440000D01*
X127599500Y-100440000D01*
X127541309Y-100421093D01*
X127505345Y-100371593D01*
X127500500Y-100341000D01*
X127500500Y-97309320D01*
X128725000Y-97309320D01*
X128729122Y-97322005D01*
X128733243Y-97325000D01*
X128909320Y-97325000D01*
X128922005Y-97320878D01*
X128925000Y-97316757D01*
X128925000Y-97015680D01*
X128920878Y-97002995D01*
X128916757Y-97000000D01*
X128910160Y-97000000D01*
X128900538Y-97000948D01*
X128856526Y-97009702D01*
X128838858Y-97017021D01*
X128788918Y-97050389D01*
X128775389Y-97063918D01*
X128742021Y-97113858D01*
X128734702Y-97131526D01*
X128725948Y-97175538D01*
X128725000Y-97185160D01*
X128725000Y-97309320D01*
X127500500Y-97309320D01*
X127500500Y-96749500D01*
X127519407Y-96691309D01*
X127568907Y-96655345D01*
X127599500Y-96650500D01*
X129300835Y-96650500D01*
X129359026Y-96669407D01*
G37*
%TD.AperFunction*%
%TA.AperFunction,Conductor*%
G36*
X133755889Y-98164907D02*
G01*
X133767702Y-98174996D01*
X133981484Y-98388778D01*
X134009261Y-98443295D01*
X134010480Y-98458782D01*
X134010480Y-99036155D01*
X134001095Y-99078228D01*
X133966922Y-99151015D01*
X133964115Y-99156994D01*
X133922269Y-99201633D01*
X133862178Y-99213150D01*
X133806793Y-99187147D01*
X133777270Y-99133556D01*
X133775500Y-99114920D01*
X133775500Y-99080252D01*
X133766729Y-99036155D01*
X133765770Y-99031334D01*
X133765769Y-99031332D01*
X133763867Y-99021769D01*
X133719552Y-98955448D01*
X133720884Y-98954558D01*
X133698211Y-98910058D01*
X133698815Y-98879334D01*
X133698575Y-98879310D01*
X133698875Y-98876262D01*
X133698895Y-98875253D01*
X133699052Y-98874462D01*
X133700000Y-98864840D01*
X133700000Y-98669680D01*
X133695878Y-98656995D01*
X133691757Y-98654000D01*
X132545000Y-98654000D01*
X132486809Y-98635093D01*
X132450845Y-98585593D01*
X132446000Y-98555000D01*
X132446000Y-98245000D01*
X132464907Y-98186809D01*
X132514407Y-98150845D01*
X132545000Y-98146000D01*
X133697698Y-98146000D01*
X133755889Y-98164907D01*
G37*
%TD.AperFunction*%
%TD*%
M02*
