%TF.GenerationSoftware,KiCad,Pcbnew,(6.0.4)*%
%TF.CreationDate,2023-01-18T18:35:58+00:00*%
%TF.ProjectId,PrettySmallRobot,50726574-7479-4536-9d61-6c6c526f626f,rev?*%
%TF.SameCoordinates,Original*%
%TF.FileFunction,Legend,Bot*%
%TF.FilePolarity,Positive*%
%FSLAX46Y46*%
G04 Gerber Fmt 4.6, Leading zero omitted, Abs format (unit mm)*
G04 Created by KiCad (PCBNEW (6.0.4)) date 2023-01-18 18:35:58*
%MOMM*%
%LPD*%
G01*
G04 APERTURE LIST*
%ADD10C,0.150000*%
%ADD11C,0.125000*%
%ADD12C,0.120000*%
G04 APERTURE END LIST*
D10*
X135100000Y-110680000D02*
X136120000Y-110680000D01*
X140638284Y-106140000D02*
G75*
G03*
X140638284Y-106140000I-28284J0D01*
G01*
%TO.C,U3*%
X139481904Y-104522380D02*
X139481904Y-105331904D01*
X139434285Y-105427142D01*
X139386666Y-105474761D01*
X139291428Y-105522380D01*
X139100952Y-105522380D01*
X139005714Y-105474761D01*
X138958095Y-105427142D01*
X138910476Y-105331904D01*
X138910476Y-104522380D01*
X138529523Y-104522380D02*
X137910476Y-104522380D01*
X138243809Y-104903333D01*
X138100952Y-104903333D01*
X138005714Y-104950952D01*
X137958095Y-104998571D01*
X137910476Y-105093809D01*
X137910476Y-105331904D01*
X137958095Y-105427142D01*
X138005714Y-105474761D01*
X138100952Y-105522380D01*
X138386666Y-105522380D01*
X138481904Y-105474761D01*
X138529523Y-105427142D01*
%TO.C,C20*%
X138157142Y-100507142D02*
X138204761Y-100459523D01*
X138252380Y-100316666D01*
X138252380Y-100221428D01*
X138204761Y-100078571D01*
X138109523Y-99983333D01*
X138014285Y-99935714D01*
X137823809Y-99888095D01*
X137680952Y-99888095D01*
X137490476Y-99935714D01*
X137395238Y-99983333D01*
X137300000Y-100078571D01*
X137252380Y-100221428D01*
X137252380Y-100316666D01*
X137300000Y-100459523D01*
X137347619Y-100507142D01*
X137347619Y-100888095D02*
X137300000Y-100935714D01*
X137252380Y-101030952D01*
X137252380Y-101269047D01*
X137300000Y-101364285D01*
X137347619Y-101411904D01*
X137442857Y-101459523D01*
X137538095Y-101459523D01*
X137680952Y-101411904D01*
X138252380Y-100840476D01*
X138252380Y-101459523D01*
X137252380Y-102078571D02*
X137252380Y-102173809D01*
X137300000Y-102269047D01*
X137347619Y-102316666D01*
X137442857Y-102364285D01*
X137633333Y-102411904D01*
X137871428Y-102411904D01*
X138061904Y-102364285D01*
X138157142Y-102316666D01*
X138204761Y-102269047D01*
X138252380Y-102173809D01*
X138252380Y-102078571D01*
X138204761Y-101983333D01*
X138157142Y-101935714D01*
X138061904Y-101888095D01*
X137871428Y-101840476D01*
X137633333Y-101840476D01*
X137442857Y-101888095D01*
X137347619Y-101935714D01*
X137300000Y-101983333D01*
X137252380Y-102078571D01*
%TO.C,D3*%
X136052380Y-105611904D02*
X135052380Y-105611904D01*
X135052380Y-105850000D01*
X135100000Y-105992857D01*
X135195238Y-106088095D01*
X135290476Y-106135714D01*
X135480952Y-106183333D01*
X135623809Y-106183333D01*
X135814285Y-106135714D01*
X135909523Y-106088095D01*
X136004761Y-105992857D01*
X136052380Y-105850000D01*
X136052380Y-105611904D01*
X135052380Y-106516666D02*
X135052380Y-107135714D01*
X135433333Y-106802380D01*
X135433333Y-106945238D01*
X135480952Y-107040476D01*
X135528571Y-107088095D01*
X135623809Y-107135714D01*
X135861904Y-107135714D01*
X135957142Y-107088095D01*
X136004761Y-107040476D01*
X136052380Y-106945238D01*
X136052380Y-106659523D01*
X136004761Y-106564285D01*
X135957142Y-106516666D01*
%TO.C,C22*%
X131162857Y-113597142D02*
X131210476Y-113644761D01*
X131353333Y-113692380D01*
X131448571Y-113692380D01*
X131591428Y-113644761D01*
X131686666Y-113549523D01*
X131734285Y-113454285D01*
X131781904Y-113263809D01*
X131781904Y-113120952D01*
X131734285Y-112930476D01*
X131686666Y-112835238D01*
X131591428Y-112740000D01*
X131448571Y-112692380D01*
X131353333Y-112692380D01*
X131210476Y-112740000D01*
X131162857Y-112787619D01*
X130781904Y-112787619D02*
X130734285Y-112740000D01*
X130639047Y-112692380D01*
X130400952Y-112692380D01*
X130305714Y-112740000D01*
X130258095Y-112787619D01*
X130210476Y-112882857D01*
X130210476Y-112978095D01*
X130258095Y-113120952D01*
X130829523Y-113692380D01*
X130210476Y-113692380D01*
X129829523Y-112787619D02*
X129781904Y-112740000D01*
X129686666Y-112692380D01*
X129448571Y-112692380D01*
X129353333Y-112740000D01*
X129305714Y-112787619D01*
X129258095Y-112882857D01*
X129258095Y-112978095D01*
X129305714Y-113120952D01*
X129877142Y-113692380D01*
X129258095Y-113692380D01*
%TO.C,C23*%
X128857142Y-113907142D02*
X128904761Y-113859523D01*
X128952380Y-113716666D01*
X128952380Y-113621428D01*
X128904761Y-113478571D01*
X128809523Y-113383333D01*
X128714285Y-113335714D01*
X128523809Y-113288095D01*
X128380952Y-113288095D01*
X128190476Y-113335714D01*
X128095238Y-113383333D01*
X128000000Y-113478571D01*
X127952380Y-113621428D01*
X127952380Y-113716666D01*
X128000000Y-113859523D01*
X128047619Y-113907142D01*
X128047619Y-114288095D02*
X128000000Y-114335714D01*
X127952380Y-114430952D01*
X127952380Y-114669047D01*
X128000000Y-114764285D01*
X128047619Y-114811904D01*
X128142857Y-114859523D01*
X128238095Y-114859523D01*
X128380952Y-114811904D01*
X128952380Y-114240476D01*
X128952380Y-114859523D01*
X127952380Y-115192857D02*
X127952380Y-115811904D01*
X128333333Y-115478571D01*
X128333333Y-115621428D01*
X128380952Y-115716666D01*
X128428571Y-115764285D01*
X128523809Y-115811904D01*
X128761904Y-115811904D01*
X128857142Y-115764285D01*
X128904761Y-115716666D01*
X128952380Y-115621428D01*
X128952380Y-115335714D01*
X128904761Y-115240476D01*
X128857142Y-115192857D01*
%TO.C,U6*%
X131611904Y-119452380D02*
X131611904Y-120261904D01*
X131564285Y-120357142D01*
X131516666Y-120404761D01*
X131421428Y-120452380D01*
X131230952Y-120452380D01*
X131135714Y-120404761D01*
X131088095Y-120357142D01*
X131040476Y-120261904D01*
X131040476Y-119452380D01*
X130135714Y-119452380D02*
X130326190Y-119452380D01*
X130421428Y-119500000D01*
X130469047Y-119547619D01*
X130564285Y-119690476D01*
X130611904Y-119880952D01*
X130611904Y-120261904D01*
X130564285Y-120357142D01*
X130516666Y-120404761D01*
X130421428Y-120452380D01*
X130230952Y-120452380D01*
X130135714Y-120404761D01*
X130088095Y-120357142D01*
X130040476Y-120261904D01*
X130040476Y-120023809D01*
X130088095Y-119928571D01*
X130135714Y-119880952D01*
X130230952Y-119833333D01*
X130421428Y-119833333D01*
X130516666Y-119880952D01*
X130564285Y-119928571D01*
X130611904Y-120023809D01*
%TO.C,C11*%
X143457142Y-110107142D02*
X143504761Y-110059523D01*
X143552380Y-109916666D01*
X143552380Y-109821428D01*
X143504761Y-109678571D01*
X143409523Y-109583333D01*
X143314285Y-109535714D01*
X143123809Y-109488095D01*
X142980952Y-109488095D01*
X142790476Y-109535714D01*
X142695238Y-109583333D01*
X142600000Y-109678571D01*
X142552380Y-109821428D01*
X142552380Y-109916666D01*
X142600000Y-110059523D01*
X142647619Y-110107142D01*
X143552380Y-111059523D02*
X143552380Y-110488095D01*
X143552380Y-110773809D02*
X142552380Y-110773809D01*
X142695238Y-110678571D01*
X142790476Y-110583333D01*
X142838095Y-110488095D01*
X143552380Y-112011904D02*
X143552380Y-111440476D01*
X143552380Y-111726190D02*
X142552380Y-111726190D01*
X142695238Y-111630952D01*
X142790476Y-111535714D01*
X142838095Y-111440476D01*
%TO.C,C21*%
X137374285Y-107934285D02*
X137402857Y-107905714D01*
X137431428Y-107820000D01*
X137431428Y-107762857D01*
X137402857Y-107677142D01*
X137345714Y-107620000D01*
X137288571Y-107591428D01*
X137174285Y-107562857D01*
X137088571Y-107562857D01*
X136974285Y-107591428D01*
X136917142Y-107620000D01*
X136860000Y-107677142D01*
X136831428Y-107762857D01*
X136831428Y-107820000D01*
X136860000Y-107905714D01*
X136888571Y-107934285D01*
X136888571Y-108162857D02*
X136860000Y-108191428D01*
X136831428Y-108248571D01*
X136831428Y-108391428D01*
X136860000Y-108448571D01*
X136888571Y-108477142D01*
X136945714Y-108505714D01*
X137002857Y-108505714D01*
X137088571Y-108477142D01*
X137431428Y-108134285D01*
X137431428Y-108505714D01*
X137431428Y-109077142D02*
X137431428Y-108734285D01*
X137431428Y-108905714D02*
X136831428Y-108905714D01*
X136917142Y-108848571D01*
X136974285Y-108791428D01*
X137002857Y-108734285D01*
%TO.C,R7*%
X139002380Y-114133333D02*
X138526190Y-113800000D01*
X139002380Y-113561904D02*
X138002380Y-113561904D01*
X138002380Y-113942857D01*
X138050000Y-114038095D01*
X138097619Y-114085714D01*
X138192857Y-114133333D01*
X138335714Y-114133333D01*
X138430952Y-114085714D01*
X138478571Y-114038095D01*
X138526190Y-113942857D01*
X138526190Y-113561904D01*
X138002380Y-114466666D02*
X138002380Y-115133333D01*
X139002380Y-114704761D01*
%TO.C,C10*%
X136557142Y-111807142D02*
X136604761Y-111759523D01*
X136652380Y-111616666D01*
X136652380Y-111521428D01*
X136604761Y-111378571D01*
X136509523Y-111283333D01*
X136414285Y-111235714D01*
X136223809Y-111188095D01*
X136080952Y-111188095D01*
X135890476Y-111235714D01*
X135795238Y-111283333D01*
X135700000Y-111378571D01*
X135652380Y-111521428D01*
X135652380Y-111616666D01*
X135700000Y-111759523D01*
X135747619Y-111807142D01*
X136652380Y-112759523D02*
X136652380Y-112188095D01*
X136652380Y-112473809D02*
X135652380Y-112473809D01*
X135795238Y-112378571D01*
X135890476Y-112283333D01*
X135938095Y-112188095D01*
X135652380Y-113378571D02*
X135652380Y-113473809D01*
X135700000Y-113569047D01*
X135747619Y-113616666D01*
X135842857Y-113664285D01*
X136033333Y-113711904D01*
X136271428Y-113711904D01*
X136461904Y-113664285D01*
X136557142Y-113616666D01*
X136604761Y-113569047D01*
X136652380Y-113473809D01*
X136652380Y-113378571D01*
X136604761Y-113283333D01*
X136557142Y-113235714D01*
X136461904Y-113188095D01*
X136271428Y-113140476D01*
X136033333Y-113140476D01*
X135842857Y-113188095D01*
X135747619Y-113235714D01*
X135700000Y-113283333D01*
X135652380Y-113378571D01*
%TO.C,J3*%
X134433333Y-95052380D02*
X134433333Y-95766666D01*
X134480952Y-95909523D01*
X134576190Y-96004761D01*
X134719047Y-96052380D01*
X134814285Y-96052380D01*
X134052380Y-95052380D02*
X133433333Y-95052380D01*
X133766666Y-95433333D01*
X133623809Y-95433333D01*
X133528571Y-95480952D01*
X133480952Y-95528571D01*
X133433333Y-95623809D01*
X133433333Y-95861904D01*
X133480952Y-95957142D01*
X133528571Y-96004761D01*
X133623809Y-96052380D01*
X133909523Y-96052380D01*
X134004761Y-96004761D01*
X134052380Y-95957142D01*
D11*
X134326190Y-99526190D02*
X133826190Y-99526190D01*
X134183333Y-99692857D01*
X133826190Y-99859523D01*
X134326190Y-99859523D01*
X133826190Y-100192857D02*
X133826190Y-100288095D01*
X133850000Y-100335714D01*
X133897619Y-100383333D01*
X133992857Y-100407142D01*
X134159523Y-100407142D01*
X134254761Y-100383333D01*
X134302380Y-100335714D01*
X134326190Y-100288095D01*
X134326190Y-100192857D01*
X134302380Y-100145238D01*
X134254761Y-100097619D01*
X134159523Y-100073809D01*
X133992857Y-100073809D01*
X133897619Y-100097619D01*
X133850000Y-100145238D01*
X133826190Y-100192857D01*
X133826190Y-100550000D02*
X133826190Y-100835714D01*
X134326190Y-100692857D02*
X133826190Y-100692857D01*
X133826190Y-101097619D02*
X133826190Y-101192857D01*
X133850000Y-101240476D01*
X133897619Y-101288095D01*
X133992857Y-101311904D01*
X134159523Y-101311904D01*
X134254761Y-101288095D01*
X134302380Y-101240476D01*
X134326190Y-101192857D01*
X134326190Y-101097619D01*
X134302380Y-101050000D01*
X134254761Y-101002380D01*
X134159523Y-100978571D01*
X133992857Y-100978571D01*
X133897619Y-101002380D01*
X133850000Y-101050000D01*
X133826190Y-101097619D01*
X134326190Y-101811904D02*
X134088095Y-101645238D01*
X134326190Y-101526190D02*
X133826190Y-101526190D01*
X133826190Y-101716666D01*
X133850000Y-101764285D01*
X133873809Y-101788095D01*
X133921428Y-101811904D01*
X133992857Y-101811904D01*
X134040476Y-101788095D01*
X134064285Y-101764285D01*
X134088095Y-101716666D01*
X134088095Y-101526190D01*
X134183333Y-102002380D02*
X134183333Y-102240476D01*
X134326190Y-101954761D02*
X133826190Y-102121428D01*
X134326190Y-102288095D01*
X134373809Y-102335714D02*
X134373809Y-102716666D01*
X133873809Y-102811904D02*
X133850000Y-102835714D01*
X133826190Y-102883333D01*
X133826190Y-103002380D01*
X133850000Y-103050000D01*
X133873809Y-103073809D01*
X133921428Y-103097619D01*
X133969047Y-103097619D01*
X134040476Y-103073809D01*
X134326190Y-102788095D01*
X134326190Y-103097619D01*
D10*
%TO.C,C9*%
X142207142Y-111983333D02*
X142254761Y-111935714D01*
X142302380Y-111792857D01*
X142302380Y-111697619D01*
X142254761Y-111554761D01*
X142159523Y-111459523D01*
X142064285Y-111411904D01*
X141873809Y-111364285D01*
X141730952Y-111364285D01*
X141540476Y-111411904D01*
X141445238Y-111459523D01*
X141350000Y-111554761D01*
X141302380Y-111697619D01*
X141302380Y-111792857D01*
X141350000Y-111935714D01*
X141397619Y-111983333D01*
X142302380Y-112459523D02*
X142302380Y-112650000D01*
X142254761Y-112745238D01*
X142207142Y-112792857D01*
X142064285Y-112888095D01*
X141873809Y-112935714D01*
X141492857Y-112935714D01*
X141397619Y-112888095D01*
X141350000Y-112840476D01*
X141302380Y-112745238D01*
X141302380Y-112554761D01*
X141350000Y-112459523D01*
X141397619Y-112411904D01*
X141492857Y-112364285D01*
X141730952Y-112364285D01*
X141826190Y-112411904D01*
X141873809Y-112459523D01*
X141921428Y-112554761D01*
X141921428Y-112745238D01*
X141873809Y-112840476D01*
X141826190Y-112888095D01*
X141730952Y-112935714D01*
%TO.C,C19*%
X140907142Y-100557142D02*
X140954761Y-100509523D01*
X141002380Y-100366666D01*
X141002380Y-100271428D01*
X140954761Y-100128571D01*
X140859523Y-100033333D01*
X140764285Y-99985714D01*
X140573809Y-99938095D01*
X140430952Y-99938095D01*
X140240476Y-99985714D01*
X140145238Y-100033333D01*
X140050000Y-100128571D01*
X140002380Y-100271428D01*
X140002380Y-100366666D01*
X140050000Y-100509523D01*
X140097619Y-100557142D01*
X141002380Y-101509523D02*
X141002380Y-100938095D01*
X141002380Y-101223809D02*
X140002380Y-101223809D01*
X140145238Y-101128571D01*
X140240476Y-101033333D01*
X140288095Y-100938095D01*
X141002380Y-101985714D02*
X141002380Y-102176190D01*
X140954761Y-102271428D01*
X140907142Y-102319047D01*
X140764285Y-102414285D01*
X140573809Y-102461904D01*
X140192857Y-102461904D01*
X140097619Y-102414285D01*
X140050000Y-102366666D01*
X140002380Y-102271428D01*
X140002380Y-102080952D01*
X140050000Y-101985714D01*
X140097619Y-101938095D01*
X140192857Y-101890476D01*
X140430952Y-101890476D01*
X140526190Y-101938095D01*
X140573809Y-101985714D01*
X140621428Y-102080952D01*
X140621428Y-102271428D01*
X140573809Y-102366666D01*
X140526190Y-102414285D01*
X140430952Y-102461904D01*
%TO.C,C5*%
X128657142Y-107483333D02*
X128704761Y-107435714D01*
X128752380Y-107292857D01*
X128752380Y-107197619D01*
X128704761Y-107054761D01*
X128609523Y-106959523D01*
X128514285Y-106911904D01*
X128323809Y-106864285D01*
X128180952Y-106864285D01*
X127990476Y-106911904D01*
X127895238Y-106959523D01*
X127800000Y-107054761D01*
X127752380Y-107197619D01*
X127752380Y-107292857D01*
X127800000Y-107435714D01*
X127847619Y-107483333D01*
X127752380Y-108388095D02*
X127752380Y-107911904D01*
X128228571Y-107864285D01*
X128180952Y-107911904D01*
X128133333Y-108007142D01*
X128133333Y-108245238D01*
X128180952Y-108340476D01*
X128228571Y-108388095D01*
X128323809Y-108435714D01*
X128561904Y-108435714D01*
X128657142Y-108388095D01*
X128704761Y-108340476D01*
X128752380Y-108245238D01*
X128752380Y-108007142D01*
X128704761Y-107911904D01*
X128657142Y-107864285D01*
%TO.C,J5*%
X128733333Y-94812380D02*
X128733333Y-95526666D01*
X128780952Y-95669523D01*
X128876190Y-95764761D01*
X129019047Y-95812380D01*
X129114285Y-95812380D01*
X127780952Y-94812380D02*
X128257142Y-94812380D01*
X128304761Y-95288571D01*
X128257142Y-95240952D01*
X128161904Y-95193333D01*
X127923809Y-95193333D01*
X127828571Y-95240952D01*
X127780952Y-95288571D01*
X127733333Y-95383809D01*
X127733333Y-95621904D01*
X127780952Y-95717142D01*
X127828571Y-95764761D01*
X127923809Y-95812380D01*
X128161904Y-95812380D01*
X128257142Y-95764761D01*
X128304761Y-95717142D01*
D11*
X128726190Y-99390476D02*
X128226190Y-99390476D01*
X128583333Y-99557142D01*
X128226190Y-99723809D01*
X128726190Y-99723809D01*
X128226190Y-100057142D02*
X128226190Y-100152380D01*
X128250000Y-100200000D01*
X128297619Y-100247619D01*
X128392857Y-100271428D01*
X128559523Y-100271428D01*
X128654761Y-100247619D01*
X128702380Y-100200000D01*
X128726190Y-100152380D01*
X128726190Y-100057142D01*
X128702380Y-100009523D01*
X128654761Y-99961904D01*
X128559523Y-99938095D01*
X128392857Y-99938095D01*
X128297619Y-99961904D01*
X128250000Y-100009523D01*
X128226190Y-100057142D01*
X128226190Y-100414285D02*
X128226190Y-100700000D01*
X128726190Y-100557142D02*
X128226190Y-100557142D01*
X128226190Y-100961904D02*
X128226190Y-101057142D01*
X128250000Y-101104761D01*
X128297619Y-101152380D01*
X128392857Y-101176190D01*
X128559523Y-101176190D01*
X128654761Y-101152380D01*
X128702380Y-101104761D01*
X128726190Y-101057142D01*
X128726190Y-100961904D01*
X128702380Y-100914285D01*
X128654761Y-100866666D01*
X128559523Y-100842857D01*
X128392857Y-100842857D01*
X128297619Y-100866666D01*
X128250000Y-100914285D01*
X128226190Y-100961904D01*
X128726190Y-101676190D02*
X128488095Y-101509523D01*
X128726190Y-101390476D02*
X128226190Y-101390476D01*
X128226190Y-101580952D01*
X128250000Y-101628571D01*
X128273809Y-101652380D01*
X128321428Y-101676190D01*
X128392857Y-101676190D01*
X128440476Y-101652380D01*
X128464285Y-101628571D01*
X128488095Y-101580952D01*
X128488095Y-101390476D01*
X128464285Y-102057142D02*
X128488095Y-102128571D01*
X128511904Y-102152380D01*
X128559523Y-102176190D01*
X128630952Y-102176190D01*
X128678571Y-102152380D01*
X128702380Y-102128571D01*
X128726190Y-102080952D01*
X128726190Y-101890476D01*
X128226190Y-101890476D01*
X128226190Y-102057142D01*
X128250000Y-102104761D01*
X128273809Y-102128571D01*
X128321428Y-102152380D01*
X128369047Y-102152380D01*
X128416666Y-102128571D01*
X128440476Y-102104761D01*
X128464285Y-102057142D01*
X128464285Y-101890476D01*
X128773809Y-102271428D02*
X128773809Y-102652380D01*
X128273809Y-102747619D02*
X128250000Y-102771428D01*
X128226190Y-102819047D01*
X128226190Y-102938095D01*
X128250000Y-102985714D01*
X128273809Y-103009523D01*
X128321428Y-103033333D01*
X128369047Y-103033333D01*
X128440476Y-103009523D01*
X128726190Y-102723809D01*
X128726190Y-103033333D01*
D10*
%TO.C,J4*%
X132833333Y-95052380D02*
X132833333Y-95766666D01*
X132880952Y-95909523D01*
X132976190Y-96004761D01*
X133119047Y-96052380D01*
X133214285Y-96052380D01*
X131928571Y-95385714D02*
X131928571Y-96052380D01*
X132166666Y-95004761D02*
X132404761Y-95719047D01*
X131785714Y-95719047D01*
D11*
X132726190Y-99490476D02*
X132226190Y-99490476D01*
X132583333Y-99657142D01*
X132226190Y-99823809D01*
X132726190Y-99823809D01*
X132226190Y-100157142D02*
X132226190Y-100252380D01*
X132250000Y-100300000D01*
X132297619Y-100347619D01*
X132392857Y-100371428D01*
X132559523Y-100371428D01*
X132654761Y-100347619D01*
X132702380Y-100300000D01*
X132726190Y-100252380D01*
X132726190Y-100157142D01*
X132702380Y-100109523D01*
X132654761Y-100061904D01*
X132559523Y-100038095D01*
X132392857Y-100038095D01*
X132297619Y-100061904D01*
X132250000Y-100109523D01*
X132226190Y-100157142D01*
X132226190Y-100514285D02*
X132226190Y-100800000D01*
X132726190Y-100657142D02*
X132226190Y-100657142D01*
X132226190Y-101061904D02*
X132226190Y-101157142D01*
X132250000Y-101204761D01*
X132297619Y-101252380D01*
X132392857Y-101276190D01*
X132559523Y-101276190D01*
X132654761Y-101252380D01*
X132702380Y-101204761D01*
X132726190Y-101157142D01*
X132726190Y-101061904D01*
X132702380Y-101014285D01*
X132654761Y-100966666D01*
X132559523Y-100942857D01*
X132392857Y-100942857D01*
X132297619Y-100966666D01*
X132250000Y-101014285D01*
X132226190Y-101061904D01*
X132726190Y-101776190D02*
X132488095Y-101609523D01*
X132726190Y-101490476D02*
X132226190Y-101490476D01*
X132226190Y-101680952D01*
X132250000Y-101728571D01*
X132273809Y-101752380D01*
X132321428Y-101776190D01*
X132392857Y-101776190D01*
X132440476Y-101752380D01*
X132464285Y-101728571D01*
X132488095Y-101680952D01*
X132488095Y-101490476D01*
X132464285Y-102157142D02*
X132488095Y-102228571D01*
X132511904Y-102252380D01*
X132559523Y-102276190D01*
X132630952Y-102276190D01*
X132678571Y-102252380D01*
X132702380Y-102228571D01*
X132726190Y-102180952D01*
X132726190Y-101990476D01*
X132226190Y-101990476D01*
X132226190Y-102157142D01*
X132250000Y-102204761D01*
X132273809Y-102228571D01*
X132321428Y-102252380D01*
X132369047Y-102252380D01*
X132416666Y-102228571D01*
X132440476Y-102204761D01*
X132464285Y-102157142D01*
X132464285Y-101990476D01*
X132773809Y-102371428D02*
X132773809Y-102752380D01*
X132726190Y-103133333D02*
X132726190Y-102847619D01*
X132726190Y-102990476D02*
X132226190Y-102990476D01*
X132297619Y-102942857D01*
X132345238Y-102895238D01*
X132369047Y-102847619D01*
D10*
%TO.C,C8*%
X143257142Y-102633333D02*
X143304761Y-102585714D01*
X143352380Y-102442857D01*
X143352380Y-102347619D01*
X143304761Y-102204761D01*
X143209523Y-102109523D01*
X143114285Y-102061904D01*
X142923809Y-102014285D01*
X142780952Y-102014285D01*
X142590476Y-102061904D01*
X142495238Y-102109523D01*
X142400000Y-102204761D01*
X142352380Y-102347619D01*
X142352380Y-102442857D01*
X142400000Y-102585714D01*
X142447619Y-102633333D01*
X142780952Y-103204761D02*
X142733333Y-103109523D01*
X142685714Y-103061904D01*
X142590476Y-103014285D01*
X142542857Y-103014285D01*
X142447619Y-103061904D01*
X142400000Y-103109523D01*
X142352380Y-103204761D01*
X142352380Y-103395238D01*
X142400000Y-103490476D01*
X142447619Y-103538095D01*
X142542857Y-103585714D01*
X142590476Y-103585714D01*
X142685714Y-103538095D01*
X142733333Y-103490476D01*
X142780952Y-103395238D01*
X142780952Y-103204761D01*
X142828571Y-103109523D01*
X142876190Y-103061904D01*
X142971428Y-103014285D01*
X143161904Y-103014285D01*
X143257142Y-103061904D01*
X143304761Y-103109523D01*
X143352380Y-103204761D01*
X143352380Y-103395238D01*
X143304761Y-103490476D01*
X143257142Y-103538095D01*
X143161904Y-103585714D01*
X142971428Y-103585714D01*
X142876190Y-103538095D01*
X142828571Y-103490476D01*
X142780952Y-103395238D01*
%TO.C,C4*%
X130757142Y-105833333D02*
X130804761Y-105785714D01*
X130852380Y-105642857D01*
X130852380Y-105547619D01*
X130804761Y-105404761D01*
X130709523Y-105309523D01*
X130614285Y-105261904D01*
X130423809Y-105214285D01*
X130280952Y-105214285D01*
X130090476Y-105261904D01*
X129995238Y-105309523D01*
X129900000Y-105404761D01*
X129852380Y-105547619D01*
X129852380Y-105642857D01*
X129900000Y-105785714D01*
X129947619Y-105833333D01*
X130185714Y-106690476D02*
X130852380Y-106690476D01*
X129804761Y-106452380D02*
X130519047Y-106214285D01*
X130519047Y-106833333D01*
%TO.C,J7*%
X143333333Y-94812380D02*
X143333333Y-95526666D01*
X143380952Y-95669523D01*
X143476190Y-95764761D01*
X143619047Y-95812380D01*
X143714285Y-95812380D01*
X142952380Y-94812380D02*
X142285714Y-94812380D01*
X142714285Y-95812380D01*
D11*
X142750000Y-99819047D02*
X142726190Y-99771428D01*
X142726190Y-99700000D01*
X142750000Y-99628571D01*
X142797619Y-99580952D01*
X142845238Y-99557142D01*
X142940476Y-99533333D01*
X143011904Y-99533333D01*
X143107142Y-99557142D01*
X143154761Y-99580952D01*
X143202380Y-99628571D01*
X143226190Y-99700000D01*
X143226190Y-99747619D01*
X143202380Y-99819047D01*
X143178571Y-99842857D01*
X143011904Y-99842857D01*
X143011904Y-99747619D01*
X143226190Y-100057142D02*
X142726190Y-100057142D01*
X143226190Y-100342857D01*
X142726190Y-100342857D01*
X143226190Y-100580952D02*
X142726190Y-100580952D01*
X142726190Y-100700000D01*
X142750000Y-100771428D01*
X142797619Y-100819047D01*
X142845238Y-100842857D01*
X142940476Y-100866666D01*
X143011904Y-100866666D01*
X143107142Y-100842857D01*
X143154761Y-100819047D01*
X143202380Y-100771428D01*
X143226190Y-100700000D01*
X143226190Y-100580952D01*
D10*
%TO.C,L1*%
X133651666Y-107622380D02*
X134127857Y-107622380D01*
X134127857Y-106622380D01*
X132794523Y-107622380D02*
X133365952Y-107622380D01*
X133080238Y-107622380D02*
X133080238Y-106622380D01*
X133175476Y-106765238D01*
X133270714Y-106860476D01*
X133365952Y-106908095D01*
%TO.C,J6*%
X141833333Y-94812380D02*
X141833333Y-95526666D01*
X141880952Y-95669523D01*
X141976190Y-95764761D01*
X142119047Y-95812380D01*
X142214285Y-95812380D01*
X140928571Y-94812380D02*
X141119047Y-94812380D01*
X141214285Y-94860000D01*
X141261904Y-94907619D01*
X141357142Y-95050476D01*
X141404761Y-95240952D01*
X141404761Y-95621904D01*
X141357142Y-95717142D01*
X141309523Y-95764761D01*
X141214285Y-95812380D01*
X141023809Y-95812380D01*
X140928571Y-95764761D01*
X140880952Y-95717142D01*
X140833333Y-95621904D01*
X140833333Y-95383809D01*
X140880952Y-95288571D01*
X140928571Y-95240952D01*
X141023809Y-95193333D01*
X141214285Y-95193333D01*
X141309523Y-95240952D01*
X141357142Y-95288571D01*
X141404761Y-95383809D01*
D11*
X141464285Y-99730952D02*
X141488095Y-99802380D01*
X141511904Y-99826190D01*
X141559523Y-99850000D01*
X141630952Y-99850000D01*
X141678571Y-99826190D01*
X141702380Y-99802380D01*
X141726190Y-99754761D01*
X141726190Y-99564285D01*
X141226190Y-99564285D01*
X141226190Y-99730952D01*
X141250000Y-99778571D01*
X141273809Y-99802380D01*
X141321428Y-99826190D01*
X141369047Y-99826190D01*
X141416666Y-99802380D01*
X141440476Y-99778571D01*
X141464285Y-99730952D01*
X141464285Y-99564285D01*
X141583333Y-100040476D02*
X141583333Y-100278571D01*
X141726190Y-99992857D02*
X141226190Y-100159523D01*
X141726190Y-100326190D01*
X141226190Y-100421428D02*
X141226190Y-100707142D01*
X141726190Y-100564285D02*
X141226190Y-100564285D01*
X141226190Y-100802380D02*
X141226190Y-101088095D01*
X141726190Y-100945238D02*
X141226190Y-100945238D01*
X141535714Y-101254761D02*
X141535714Y-101635714D01*
X141726190Y-101445238D02*
X141345238Y-101445238D01*
D10*
%TO.C,R6*%
X138966666Y-104532380D02*
X139300000Y-104056190D01*
X139538095Y-104532380D02*
X139538095Y-103532380D01*
X139157142Y-103532380D01*
X139061904Y-103580000D01*
X139014285Y-103627619D01*
X138966666Y-103722857D01*
X138966666Y-103865714D01*
X139014285Y-103960952D01*
X139061904Y-104008571D01*
X139157142Y-104056190D01*
X139538095Y-104056190D01*
X138109523Y-103532380D02*
X138300000Y-103532380D01*
X138395238Y-103580000D01*
X138442857Y-103627619D01*
X138538095Y-103770476D01*
X138585714Y-103960952D01*
X138585714Y-104341904D01*
X138538095Y-104437142D01*
X138490476Y-104484761D01*
X138395238Y-104532380D01*
X138204761Y-104532380D01*
X138109523Y-104484761D01*
X138061904Y-104437142D01*
X138014285Y-104341904D01*
X138014285Y-104103809D01*
X138061904Y-104008571D01*
X138109523Y-103960952D01*
X138204761Y-103913333D01*
X138395238Y-103913333D01*
X138490476Y-103960952D01*
X138538095Y-104008571D01*
X138585714Y-104103809D01*
%TO.C,C16*%
X143042857Y-106557142D02*
X143090476Y-106604761D01*
X143233333Y-106652380D01*
X143328571Y-106652380D01*
X143471428Y-106604761D01*
X143566666Y-106509523D01*
X143614285Y-106414285D01*
X143661904Y-106223809D01*
X143661904Y-106080952D01*
X143614285Y-105890476D01*
X143566666Y-105795238D01*
X143471428Y-105700000D01*
X143328571Y-105652380D01*
X143233333Y-105652380D01*
X143090476Y-105700000D01*
X143042857Y-105747619D01*
X142090476Y-106652380D02*
X142661904Y-106652380D01*
X142376190Y-106652380D02*
X142376190Y-105652380D01*
X142471428Y-105795238D01*
X142566666Y-105890476D01*
X142661904Y-105938095D01*
X141233333Y-105652380D02*
X141423809Y-105652380D01*
X141519047Y-105700000D01*
X141566666Y-105747619D01*
X141661904Y-105890476D01*
X141709523Y-106080952D01*
X141709523Y-106461904D01*
X141661904Y-106557142D01*
X141614285Y-106604761D01*
X141519047Y-106652380D01*
X141328571Y-106652380D01*
X141233333Y-106604761D01*
X141185714Y-106557142D01*
X141138095Y-106461904D01*
X141138095Y-106223809D01*
X141185714Y-106128571D01*
X141233333Y-106080952D01*
X141328571Y-106033333D01*
X141519047Y-106033333D01*
X141614285Y-106080952D01*
X141661904Y-106128571D01*
X141709523Y-106223809D01*
%TO.C,R5*%
X144246666Y-107142380D02*
X144580000Y-106666190D01*
X144818095Y-107142380D02*
X144818095Y-106142380D01*
X144437142Y-106142380D01*
X144341904Y-106190000D01*
X144294285Y-106237619D01*
X144246666Y-106332857D01*
X144246666Y-106475714D01*
X144294285Y-106570952D01*
X144341904Y-106618571D01*
X144437142Y-106666190D01*
X144818095Y-106666190D01*
X143341904Y-106142380D02*
X143818095Y-106142380D01*
X143865714Y-106618571D01*
X143818095Y-106570952D01*
X143722857Y-106523333D01*
X143484761Y-106523333D01*
X143389523Y-106570952D01*
X143341904Y-106618571D01*
X143294285Y-106713809D01*
X143294285Y-106951904D01*
X143341904Y-107047142D01*
X143389523Y-107094761D01*
X143484761Y-107142380D01*
X143722857Y-107142380D01*
X143818095Y-107094761D01*
X143865714Y-107047142D01*
%TO.C,J2*%
X130433333Y-94752380D02*
X130433333Y-95466666D01*
X130480952Y-95609523D01*
X130576190Y-95704761D01*
X130719047Y-95752380D01*
X130814285Y-95752380D01*
X130004761Y-94847619D02*
X129957142Y-94800000D01*
X129861904Y-94752380D01*
X129623809Y-94752380D01*
X129528571Y-94800000D01*
X129480952Y-94847619D01*
X129433333Y-94942857D01*
X129433333Y-95038095D01*
X129480952Y-95180952D01*
X130052380Y-95752380D01*
X129433333Y-95752380D01*
D11*
X130226190Y-99426190D02*
X129726190Y-99426190D01*
X130083333Y-99592857D01*
X129726190Y-99759523D01*
X130226190Y-99759523D01*
X129726190Y-100092857D02*
X129726190Y-100188095D01*
X129750000Y-100235714D01*
X129797619Y-100283333D01*
X129892857Y-100307142D01*
X130059523Y-100307142D01*
X130154761Y-100283333D01*
X130202380Y-100235714D01*
X130226190Y-100188095D01*
X130226190Y-100092857D01*
X130202380Y-100045238D01*
X130154761Y-99997619D01*
X130059523Y-99973809D01*
X129892857Y-99973809D01*
X129797619Y-99997619D01*
X129750000Y-100045238D01*
X129726190Y-100092857D01*
X129726190Y-100450000D02*
X129726190Y-100735714D01*
X130226190Y-100592857D02*
X129726190Y-100592857D01*
X129726190Y-100997619D02*
X129726190Y-101092857D01*
X129750000Y-101140476D01*
X129797619Y-101188095D01*
X129892857Y-101211904D01*
X130059523Y-101211904D01*
X130154761Y-101188095D01*
X130202380Y-101140476D01*
X130226190Y-101092857D01*
X130226190Y-100997619D01*
X130202380Y-100950000D01*
X130154761Y-100902380D01*
X130059523Y-100878571D01*
X129892857Y-100878571D01*
X129797619Y-100902380D01*
X129750000Y-100950000D01*
X129726190Y-100997619D01*
X130226190Y-101711904D02*
X129988095Y-101545238D01*
X130226190Y-101426190D02*
X129726190Y-101426190D01*
X129726190Y-101616666D01*
X129750000Y-101664285D01*
X129773809Y-101688095D01*
X129821428Y-101711904D01*
X129892857Y-101711904D01*
X129940476Y-101688095D01*
X129964285Y-101664285D01*
X129988095Y-101616666D01*
X129988095Y-101426190D01*
X130083333Y-101902380D02*
X130083333Y-102140476D01*
X130226190Y-101854761D02*
X129726190Y-102021428D01*
X130226190Y-102188095D01*
X130273809Y-102235714D02*
X130273809Y-102616666D01*
X130226190Y-102997619D02*
X130226190Y-102711904D01*
X130226190Y-102854761D02*
X129726190Y-102854761D01*
X129797619Y-102807142D01*
X129845238Y-102759523D01*
X129869047Y-102711904D01*
D10*
%TO.C,C1*%
X132007142Y-105283333D02*
X132054761Y-105235714D01*
X132102380Y-105092857D01*
X132102380Y-104997619D01*
X132054761Y-104854761D01*
X131959523Y-104759523D01*
X131864285Y-104711904D01*
X131673809Y-104664285D01*
X131530952Y-104664285D01*
X131340476Y-104711904D01*
X131245238Y-104759523D01*
X131150000Y-104854761D01*
X131102380Y-104997619D01*
X131102380Y-105092857D01*
X131150000Y-105235714D01*
X131197619Y-105283333D01*
X132102380Y-106235714D02*
X132102380Y-105664285D01*
X132102380Y-105950000D02*
X131102380Y-105950000D01*
X131245238Y-105854761D01*
X131340476Y-105759523D01*
X131388095Y-105664285D01*
%TO.C,C18*%
X139607142Y-100607142D02*
X139654761Y-100559523D01*
X139702380Y-100416666D01*
X139702380Y-100321428D01*
X139654761Y-100178571D01*
X139559523Y-100083333D01*
X139464285Y-100035714D01*
X139273809Y-99988095D01*
X139130952Y-99988095D01*
X138940476Y-100035714D01*
X138845238Y-100083333D01*
X138750000Y-100178571D01*
X138702380Y-100321428D01*
X138702380Y-100416666D01*
X138750000Y-100559523D01*
X138797619Y-100607142D01*
X139702380Y-101559523D02*
X139702380Y-100988095D01*
X139702380Y-101273809D02*
X138702380Y-101273809D01*
X138845238Y-101178571D01*
X138940476Y-101083333D01*
X138988095Y-100988095D01*
X139130952Y-102130952D02*
X139083333Y-102035714D01*
X139035714Y-101988095D01*
X138940476Y-101940476D01*
X138892857Y-101940476D01*
X138797619Y-101988095D01*
X138750000Y-102035714D01*
X138702380Y-102130952D01*
X138702380Y-102321428D01*
X138750000Y-102416666D01*
X138797619Y-102464285D01*
X138892857Y-102511904D01*
X138940476Y-102511904D01*
X139035714Y-102464285D01*
X139083333Y-102416666D01*
X139130952Y-102321428D01*
X139130952Y-102130952D01*
X139178571Y-102035714D01*
X139226190Y-101988095D01*
X139321428Y-101940476D01*
X139511904Y-101940476D01*
X139607142Y-101988095D01*
X139654761Y-102035714D01*
X139702380Y-102130952D01*
X139702380Y-102321428D01*
X139654761Y-102416666D01*
X139607142Y-102464285D01*
X139511904Y-102511904D01*
X139321428Y-102511904D01*
X139226190Y-102464285D01*
X139178571Y-102416666D01*
X139130952Y-102321428D01*
%TO.C,C12*%
X141354285Y-109384285D02*
X141382857Y-109355714D01*
X141411428Y-109270000D01*
X141411428Y-109212857D01*
X141382857Y-109127142D01*
X141325714Y-109070000D01*
X141268571Y-109041428D01*
X141154285Y-109012857D01*
X141068571Y-109012857D01*
X140954285Y-109041428D01*
X140897142Y-109070000D01*
X140840000Y-109127142D01*
X140811428Y-109212857D01*
X140811428Y-109270000D01*
X140840000Y-109355714D01*
X140868571Y-109384285D01*
X141411428Y-109955714D02*
X141411428Y-109612857D01*
X141411428Y-109784285D02*
X140811428Y-109784285D01*
X140897142Y-109727142D01*
X140954285Y-109670000D01*
X140982857Y-109612857D01*
X140868571Y-110184285D02*
X140840000Y-110212857D01*
X140811428Y-110270000D01*
X140811428Y-110412857D01*
X140840000Y-110470000D01*
X140868571Y-110498571D01*
X140925714Y-110527142D01*
X140982857Y-110527142D01*
X141068571Y-110498571D01*
X141411428Y-110155714D01*
X141411428Y-110527142D01*
D12*
%TO.C,U3*%
X138720000Y-109030000D02*
X139520000Y-109030000D01*
X138720000Y-105910000D02*
X140520000Y-105910000D01*
X138720000Y-105910000D02*
X137920000Y-105910000D01*
X138720000Y-109030000D02*
X137920000Y-109030000D01*
%TO.C,C20*%
X137940000Y-103727836D02*
X137940000Y-103512164D01*
X138660000Y-103727836D02*
X138660000Y-103512164D01*
%TO.C,D3*%
X136450000Y-110400000D02*
X136450000Y-107850000D01*
X136450000Y-110400000D02*
X134750000Y-110400000D01*
X134750000Y-110400000D02*
X134750000Y-107850000D01*
%TO.C,C22*%
X130627836Y-114760000D02*
X130412164Y-114760000D01*
X130627836Y-114040000D02*
X130412164Y-114040000D01*
%TO.C,C23*%
X129010000Y-117257836D02*
X129010000Y-117042164D01*
X128290000Y-117257836D02*
X128290000Y-117042164D01*
%TO.C,U6*%
X129340000Y-117200000D02*
X129340000Y-115400000D01*
X132460000Y-117200000D02*
X132460000Y-116400000D01*
X129340000Y-117200000D02*
X129340000Y-118000000D01*
X132460000Y-117200000D02*
X132460000Y-118000000D01*
%TO.C,C11*%
X142287836Y-108960000D02*
X142072164Y-108960000D01*
X142287836Y-108240000D02*
X142072164Y-108240000D01*
%TO.C,C21*%
X136800000Y-109992164D02*
X136800000Y-110207836D01*
X137520000Y-109992164D02*
X137520000Y-110207836D01*
%TO.C,R7*%
X138120000Y-112256359D02*
X138120000Y-112563641D01*
X138880000Y-112256359D02*
X138880000Y-112563641D01*
%TO.C,C10*%
X138010000Y-112272164D02*
X138010000Y-112487836D01*
X137290000Y-112272164D02*
X137290000Y-112487836D01*
%TO.C,C9*%
X140390000Y-112092164D02*
X140390000Y-112307836D01*
X141110000Y-112092164D02*
X141110000Y-112307836D01*
%TO.C,C19*%
X140680000Y-103687836D02*
X140680000Y-103472164D01*
X139960000Y-103687836D02*
X139960000Y-103472164D01*
%TO.C,C5*%
X129760000Y-107692164D02*
X129760000Y-107907836D01*
X129040000Y-107692164D02*
X129040000Y-107907836D01*
%TO.C,C8*%
X142060000Y-102772164D02*
X142060000Y-102987836D01*
X141340000Y-102772164D02*
X141340000Y-102987836D01*
%TO.C,C4*%
X130760000Y-107692164D02*
X130760000Y-107907836D01*
X130040000Y-107692164D02*
X130040000Y-107907836D01*
%TO.C,R6*%
X138953641Y-105630000D02*
X138646359Y-105630000D01*
X138953641Y-104870000D02*
X138646359Y-104870000D01*
%TO.C,C16*%
X142287836Y-107240000D02*
X142072164Y-107240000D01*
X142287836Y-107960000D02*
X142072164Y-107960000D01*
%TO.C,R5*%
X142333641Y-106160000D02*
X142026359Y-106160000D01*
X142333641Y-106920000D02*
X142026359Y-106920000D01*
%TO.C,C1*%
X131190000Y-107609420D02*
X131190000Y-107890580D01*
X132210000Y-107609420D02*
X132210000Y-107890580D01*
%TO.C,C18*%
X139660000Y-103727836D02*
X139660000Y-103512164D01*
X138940000Y-103727836D02*
X138940000Y-103512164D01*
%TO.C,C12*%
X139697836Y-109910000D02*
X139482164Y-109910000D01*
X139697836Y-110630000D02*
X139482164Y-110630000D01*
%TD*%
M02*
