%TF.GenerationSoftware,KiCad,Pcbnew,(6.0.4)*%
%TF.CreationDate,2023-01-28T19:19:13+00:00*%
%TF.ProjectId,PrettySmallRobot,50726574-7479-4536-9d61-6c6c526f626f,rev?*%
%TF.SameCoordinates,Original*%
%TF.FileFunction,Copper,L2,Inr*%
%TF.FilePolarity,Positive*%
%FSLAX46Y46*%
G04 Gerber Fmt 4.6, Leading zero omitted, Abs format (unit mm)*
G04 Created by KiCad (PCBNEW (6.0.4)) date 2023-01-28 19:19:13*
%MOMM*%
%LPD*%
G01*
G04 APERTURE LIST*
G04 Aperture macros list*
%AMRoundRect*
0 Rectangle with rounded corners*
0 $1 Rounding radius*
0 $2 $3 $4 $5 $6 $7 $8 $9 X,Y pos of 4 corners*
0 Add a 4 corners polygon primitive as box body*
4,1,4,$2,$3,$4,$5,$6,$7,$8,$9,$2,$3,0*
0 Add four circle primitives for the rounded corners*
1,1,$1+$1,$2,$3*
1,1,$1+$1,$4,$5*
1,1,$1+$1,$6,$7*
1,1,$1+$1,$8,$9*
0 Add four rect primitives between the rounded corners*
20,1,$1+$1,$2,$3,$4,$5,0*
20,1,$1+$1,$4,$5,$6,$7,0*
20,1,$1+$1,$6,$7,$8,$9,0*
20,1,$1+$1,$8,$9,$2,$3,0*%
G04 Aperture macros list end*
%TA.AperFunction,ComponentPad*%
%ADD10O,2.000000X0.900000*%
%TD*%
%TA.AperFunction,ComponentPad*%
%ADD11O,1.700000X0.900000*%
%TD*%
%TA.AperFunction,ComponentPad*%
%ADD12RoundRect,0.250000X-0.625000X0.350000X-0.625000X-0.350000X0.625000X-0.350000X0.625000X0.350000X0*%
%TD*%
%TA.AperFunction,ComponentPad*%
%ADD13O,1.750000X1.200000*%
%TD*%
%TA.AperFunction,ComponentPad*%
%ADD14RoundRect,0.250000X0.625000X-0.350000X0.625000X0.350000X-0.625000X0.350000X-0.625000X-0.350000X0*%
%TD*%
%TA.AperFunction,ViaPad*%
%ADD15C,0.460000*%
%TD*%
%TA.AperFunction,Conductor*%
%ADD16C,0.150000*%
%TD*%
G04 APERTURE END LIST*
D10*
%TO.N,GND*%
%TO.C,J1*%
X190830000Y-122977503D03*
X190830000Y-114327503D03*
D11*
X195000000Y-122977503D03*
X195000000Y-114327503D03*
%TD*%
D12*
%TO.N,/MOTORA_OUT1*%
%TO.C,J9*%
X177000000Y-119500000D03*
D13*
%TO.N,/MOTORA_OUT2*%
X177000000Y-121500000D03*
%TD*%
D12*
%TO.N,+BATT*%
%TO.C,J10*%
X177000000Y-103000000D03*
D13*
%TO.N,GND*%
X177000000Y-105000000D03*
%TD*%
D14*
%TO.N,/MOTORB_OUT1*%
%TO.C,J8*%
X191000000Y-105000000D03*
D13*
%TO.N,/MOTORB_OUT2*%
X191000000Y-103000000D03*
%TD*%
D15*
%TO.N,GND*%
X192400000Y-103300000D03*
X192700000Y-103900000D03*
%TO.N,/VDDA*%
X181400000Y-113300000D03*
%TO.N,+3V3*%
X172400000Y-123200000D03*
%TO.N,/MOTORA_IN2*%
X178500000Y-118800000D03*
%TO.N,/MOTORA_IN1*%
X178900000Y-118200000D03*
%TO.N,GND*%
X181700000Y-118700000D03*
X184700000Y-115300000D03*
X186300000Y-116100000D03*
X181700000Y-119700000D03*
%TO.N,+3V3*%
X187400000Y-121800000D03*
%TO.N,/VDDA*%
X183800000Y-113500000D03*
%TO.N,+3V3*%
X188100000Y-118500000D03*
X188100000Y-119100000D03*
%TO.N,Net-(J1-PadA5)*%
X191800000Y-119300000D03*
%TO.N,Net-(J1-PadB5)*%
X191800000Y-117500000D03*
%TO.N,+3V3*%
X183200000Y-122100000D03*
X185600000Y-112300000D03*
X185100000Y-112900000D03*
%TO.N,/BOOT*%
X179200000Y-117400000D03*
X187400000Y-113900000D03*
%TO.N,/~{RESET}*%
X180500000Y-113200000D03*
X195116733Y-110029643D03*
%TO.N,+3V3*%
X193100000Y-111800000D03*
%TO.N,/MOTORB_IN1*%
X178725265Y-124590366D03*
%TO.N,/MOTORB_IN2*%
X179300000Y-125800000D03*
%TO.N,+3V3*%
X194400000Y-102000000D03*
X186584294Y-103549480D03*
X187633289Y-104232317D03*
X188700000Y-103544532D03*
%TO.N,+BATT*%
X188000000Y-98200000D03*
%TO.N,GND*%
X184300000Y-112800000D03*
X184500000Y-112300000D03*
X185100000Y-111900000D03*
X185900000Y-111600000D03*
X186600000Y-111000000D03*
X187200000Y-110400000D03*
X187200000Y-109600000D03*
X187100000Y-108800000D03*
X186800000Y-108000000D03*
X185800000Y-107600000D03*
X184700000Y-107400000D03*
X183700000Y-107400000D03*
X182800000Y-107400000D03*
X182000000Y-107600000D03*
X181100000Y-107900000D03*
X180400000Y-108500000D03*
X180000000Y-109300000D03*
X180000000Y-110300000D03*
X180300000Y-111300000D03*
X181200000Y-111300000D03*
X181500000Y-111900000D03*
X181500000Y-112600000D03*
X178700000Y-116300000D03*
X178000000Y-116300000D03*
X177300000Y-116300000D03*
X176700000Y-116300000D03*
X178500000Y-114100000D03*
X178000000Y-114600000D03*
X177400000Y-114600000D03*
X177200000Y-114100000D03*
X176700000Y-113900000D03*
X179200000Y-113800000D03*
%TO.N,/VDD_SPI*%
X188000000Y-120000000D03*
%TO.N,/VDDA*%
X180500000Y-114500000D03*
%TO.N,/VDD3P3*%
X179500000Y-116500000D03*
%TD*%
D16*
%TO.N,/BOOT*%
X183400000Y-117900000D02*
X187400000Y-113900000D01*
X179200000Y-117400000D02*
X179700000Y-117900000D01*
X179700000Y-117900000D02*
X183400000Y-117900000D01*
%TD*%
%TA.AperFunction,Conductor*%
%TO.N,GND*%
G36*
X196942121Y-97521002D02*
G01*
X196988614Y-97574658D01*
X197000000Y-97627000D01*
X197000000Y-126373000D01*
X196979998Y-126441121D01*
X196926342Y-126487614D01*
X196874000Y-126499000D01*
X171177000Y-126499000D01*
X171108879Y-126478998D01*
X171062386Y-126425342D01*
X171051000Y-126373000D01*
X171051000Y-125800000D01*
X178924882Y-125800000D01*
X178943242Y-125915918D01*
X178947743Y-125924752D01*
X178947744Y-125924755D01*
X178969229Y-125966921D01*
X178996523Y-126020489D01*
X179079511Y-126103477D01*
X179133079Y-126130771D01*
X179175245Y-126152256D01*
X179175248Y-126152257D01*
X179184082Y-126156758D01*
X179300000Y-126175118D01*
X179415918Y-126156758D01*
X179424752Y-126152257D01*
X179424755Y-126152256D01*
X179466921Y-126130771D01*
X179520489Y-126103477D01*
X179603477Y-126020489D01*
X179630771Y-125966921D01*
X179652256Y-125924755D01*
X179652257Y-125924752D01*
X179656758Y-125915918D01*
X179675118Y-125800000D01*
X179656758Y-125684082D01*
X179652257Y-125675248D01*
X179652256Y-125675245D01*
X179630771Y-125633079D01*
X179603477Y-125579511D01*
X179520489Y-125496523D01*
X179466921Y-125469229D01*
X179424755Y-125447744D01*
X179424752Y-125447743D01*
X179415918Y-125443242D01*
X179300000Y-125424882D01*
X179184082Y-125443242D01*
X179175248Y-125447743D01*
X179175245Y-125447744D01*
X179133079Y-125469229D01*
X179079511Y-125496523D01*
X178996523Y-125579511D01*
X178969229Y-125633079D01*
X178947744Y-125675245D01*
X178947743Y-125675248D01*
X178943242Y-125684082D01*
X178924882Y-125800000D01*
X171051000Y-125800000D01*
X171051000Y-124590366D01*
X178350147Y-124590366D01*
X178368507Y-124706284D01*
X178373008Y-124715118D01*
X178373009Y-124715121D01*
X178394494Y-124757287D01*
X178421788Y-124810855D01*
X178504776Y-124893843D01*
X178558344Y-124921137D01*
X178600510Y-124942622D01*
X178600513Y-124942623D01*
X178609347Y-124947124D01*
X178725265Y-124965484D01*
X178841183Y-124947124D01*
X178850017Y-124942623D01*
X178850020Y-124942622D01*
X178892186Y-124921137D01*
X178945754Y-124893843D01*
X179028742Y-124810855D01*
X179056036Y-124757287D01*
X179077521Y-124715121D01*
X179077522Y-124715118D01*
X179082023Y-124706284D01*
X179100383Y-124590366D01*
X179082023Y-124474448D01*
X179077522Y-124465614D01*
X179077521Y-124465611D01*
X179056036Y-124423445D01*
X179028742Y-124369877D01*
X178945754Y-124286889D01*
X178892186Y-124259595D01*
X178850020Y-124238110D01*
X178850017Y-124238109D01*
X178841183Y-124233608D01*
X178725265Y-124215248D01*
X178609347Y-124233608D01*
X178600513Y-124238109D01*
X178600510Y-124238110D01*
X178558344Y-124259595D01*
X178504776Y-124286889D01*
X178421788Y-124369877D01*
X178394494Y-124423445D01*
X178373009Y-124465611D01*
X178373008Y-124465614D01*
X178368507Y-124474448D01*
X178350147Y-124590366D01*
X171051000Y-124590366D01*
X171051000Y-123200000D01*
X172024882Y-123200000D01*
X172043242Y-123315918D01*
X172047743Y-123324752D01*
X172047744Y-123324755D01*
X172069229Y-123366921D01*
X172096523Y-123420489D01*
X172179511Y-123503477D01*
X172233079Y-123530771D01*
X172275245Y-123552256D01*
X172275248Y-123552257D01*
X172284082Y-123556758D01*
X172400000Y-123575118D01*
X172515918Y-123556758D01*
X172524752Y-123552257D01*
X172524755Y-123552256D01*
X172566921Y-123530771D01*
X172620489Y-123503477D01*
X172703477Y-123420489D01*
X172730771Y-123366921D01*
X172752256Y-123324755D01*
X172752257Y-123324752D01*
X172756758Y-123315918D01*
X172768533Y-123241578D01*
X189356363Y-123241578D01*
X189412310Y-123393639D01*
X189417877Y-123405052D01*
X189513708Y-123559611D01*
X189521460Y-123569677D01*
X189646408Y-123701806D01*
X189656026Y-123710108D01*
X189804987Y-123814411D01*
X189816081Y-123820611D01*
X189982980Y-123892835D01*
X189995083Y-123896674D01*
X190174600Y-123934178D01*
X190184152Y-123935418D01*
X190187384Y-123935503D01*
X190557885Y-123935503D01*
X190573124Y-123931028D01*
X190574329Y-123929638D01*
X190576000Y-123921955D01*
X190576000Y-123917388D01*
X191084000Y-123917388D01*
X191088475Y-123932627D01*
X191089865Y-123933832D01*
X191097548Y-123935503D01*
X191425447Y-123935503D01*
X191431822Y-123935180D01*
X191567277Y-123921421D01*
X191579717Y-123918867D01*
X191753244Y-123864487D01*
X191764932Y-123859478D01*
X191923979Y-123771316D01*
X191934412Y-123764065D01*
X192072491Y-123645718D01*
X192081244Y-123636527D01*
X192192711Y-123492823D01*
X192199435Y-123482063D01*
X192279732Y-123318878D01*
X192284155Y-123306984D01*
X192299251Y-123249033D01*
X192299021Y-123241578D01*
X193676363Y-123241578D01*
X193732310Y-123393639D01*
X193737877Y-123405052D01*
X193833708Y-123559611D01*
X193841460Y-123569677D01*
X193966408Y-123701806D01*
X193976026Y-123710108D01*
X194124987Y-123814411D01*
X194136081Y-123820611D01*
X194302980Y-123892835D01*
X194315083Y-123896674D01*
X194494600Y-123934178D01*
X194504152Y-123935418D01*
X194507384Y-123935503D01*
X194727885Y-123935503D01*
X194743124Y-123931028D01*
X194744329Y-123929638D01*
X194746000Y-123921955D01*
X194746000Y-123917388D01*
X195254000Y-123917388D01*
X195258475Y-123932627D01*
X195259865Y-123933832D01*
X195267548Y-123935503D01*
X195445447Y-123935503D01*
X195451822Y-123935180D01*
X195587277Y-123921421D01*
X195599717Y-123918867D01*
X195773244Y-123864487D01*
X195784932Y-123859478D01*
X195943979Y-123771316D01*
X195954412Y-123764065D01*
X196092491Y-123645718D01*
X196101244Y-123636527D01*
X196212711Y-123492823D01*
X196219435Y-123482063D01*
X196299732Y-123318878D01*
X196304155Y-123306984D01*
X196319251Y-123249033D01*
X196318817Y-123234939D01*
X196310636Y-123231503D01*
X195272115Y-123231503D01*
X195256876Y-123235978D01*
X195255671Y-123237368D01*
X195254000Y-123245051D01*
X195254000Y-123917388D01*
X194746000Y-123917388D01*
X194746000Y-123249618D01*
X194741525Y-123234379D01*
X194740135Y-123233174D01*
X194732452Y-123231503D01*
X193690771Y-123231503D01*
X193677240Y-123235476D01*
X193676363Y-123241578D01*
X192299021Y-123241578D01*
X192298817Y-123234939D01*
X192290636Y-123231503D01*
X191102115Y-123231503D01*
X191086876Y-123235978D01*
X191085671Y-123237368D01*
X191084000Y-123245051D01*
X191084000Y-123917388D01*
X190576000Y-123917388D01*
X190576000Y-123249618D01*
X190571525Y-123234379D01*
X190570135Y-123233174D01*
X190562452Y-123231503D01*
X189370771Y-123231503D01*
X189357240Y-123235476D01*
X189356363Y-123241578D01*
X172768533Y-123241578D01*
X172775118Y-123200000D01*
X172756758Y-123084082D01*
X172752257Y-123075248D01*
X172752256Y-123075245D01*
X172730771Y-123033079D01*
X172703477Y-122979511D01*
X172620489Y-122896523D01*
X172566921Y-122869229D01*
X172524755Y-122847744D01*
X172524752Y-122847743D01*
X172515918Y-122843242D01*
X172400000Y-122824882D01*
X172284082Y-122843242D01*
X172275248Y-122847743D01*
X172275245Y-122847744D01*
X172233079Y-122869229D01*
X172179511Y-122896523D01*
X172096523Y-122979511D01*
X172069229Y-123033079D01*
X172047744Y-123075245D01*
X172047743Y-123075248D01*
X172043242Y-123084082D01*
X172024882Y-123200000D01*
X171051000Y-123200000D01*
X171051000Y-122705973D01*
X189360749Y-122705973D01*
X189361183Y-122720067D01*
X189369364Y-122723503D01*
X190557885Y-122723503D01*
X190573124Y-122719028D01*
X190574329Y-122717638D01*
X190576000Y-122709955D01*
X190576000Y-122037618D01*
X190571525Y-122022379D01*
X190570135Y-122021174D01*
X190562452Y-122019503D01*
X190234553Y-122019503D01*
X190228178Y-122019826D01*
X190092723Y-122033585D01*
X190080283Y-122036139D01*
X189906756Y-122090519D01*
X189895068Y-122095528D01*
X189736021Y-122183690D01*
X189725588Y-122190941D01*
X189587509Y-122309288D01*
X189578756Y-122318479D01*
X189467289Y-122462183D01*
X189460565Y-122472943D01*
X189380268Y-122636128D01*
X189375845Y-122648022D01*
X189360749Y-122705973D01*
X171051000Y-122705973D01*
X171051000Y-121539610D01*
X175993619Y-121539610D01*
X175994859Y-121546826D01*
X175994859Y-121546828D01*
X176000475Y-121579511D01*
X176022348Y-121706802D01*
X176088768Y-121862900D01*
X176093101Y-121868788D01*
X176093104Y-121868793D01*
X176184976Y-121993633D01*
X176184980Y-121993637D01*
X176189318Y-121999532D01*
X176318603Y-122109367D01*
X176469687Y-122186515D01*
X176476797Y-122188255D01*
X176476800Y-122188256D01*
X176558706Y-122208298D01*
X176634468Y-122226837D01*
X176641815Y-122227293D01*
X176643215Y-122227380D01*
X176643228Y-122227380D01*
X176645156Y-122227500D01*
X177317483Y-122227500D01*
X177384435Y-122219694D01*
X177436231Y-122213656D01*
X177436234Y-122213655D01*
X177443501Y-122212808D01*
X177450376Y-122210312D01*
X177450378Y-122210312D01*
X177596086Y-122157422D01*
X177596087Y-122157422D01*
X177602962Y-122154926D01*
X177686738Y-122100000D01*
X182824882Y-122100000D01*
X182843242Y-122215918D01*
X182847743Y-122224752D01*
X182847744Y-122224755D01*
X182848982Y-122227184D01*
X182896523Y-122320489D01*
X182979511Y-122403477D01*
X183033079Y-122430771D01*
X183075245Y-122452256D01*
X183075248Y-122452257D01*
X183084082Y-122456758D01*
X183200000Y-122475118D01*
X183315918Y-122456758D01*
X183324752Y-122452257D01*
X183324755Y-122452256D01*
X183366921Y-122430771D01*
X183420489Y-122403477D01*
X183503477Y-122320489D01*
X183551018Y-122227184D01*
X183552256Y-122224755D01*
X183552257Y-122224752D01*
X183556758Y-122215918D01*
X183575118Y-122100000D01*
X183556758Y-121984082D01*
X183552257Y-121975248D01*
X183552256Y-121975245D01*
X183525579Y-121922889D01*
X183503477Y-121879511D01*
X183423966Y-121800000D01*
X187024882Y-121800000D01*
X187043242Y-121915918D01*
X187047743Y-121924752D01*
X187047744Y-121924755D01*
X187067912Y-121964336D01*
X187096523Y-122020489D01*
X187179511Y-122103477D01*
X187233079Y-122130771D01*
X187275245Y-122152256D01*
X187275248Y-122152257D01*
X187284082Y-122156758D01*
X187400000Y-122175118D01*
X187515918Y-122156758D01*
X187524752Y-122152257D01*
X187524755Y-122152256D01*
X187566921Y-122130771D01*
X187620489Y-122103477D01*
X187703477Y-122020489D01*
X187732088Y-121964336D01*
X187752256Y-121924755D01*
X187752257Y-121924752D01*
X187756758Y-121915918D01*
X187775118Y-121800000D01*
X187756758Y-121684082D01*
X187752257Y-121675248D01*
X187752256Y-121675245D01*
X187725330Y-121622401D01*
X187703477Y-121579511D01*
X187701360Y-121577394D01*
X190765420Y-121577394D01*
X190767117Y-121585809D01*
X190767117Y-121585812D01*
X190774495Y-121622401D01*
X190795233Y-121725246D01*
X190863707Y-121859635D01*
X190965799Y-121970659D01*
X191024397Y-122006991D01*
X191071751Y-122059886D01*
X191084000Y-122114077D01*
X191084000Y-122705388D01*
X191088475Y-122720627D01*
X191089865Y-122721832D01*
X191097548Y-122723503D01*
X192289229Y-122723503D01*
X192302760Y-122719530D01*
X192303637Y-122713428D01*
X192300894Y-122705973D01*
X193680749Y-122705973D01*
X193681183Y-122720067D01*
X193689364Y-122723503D01*
X194727885Y-122723503D01*
X194743124Y-122719028D01*
X194744329Y-122717638D01*
X194746000Y-122709955D01*
X194746000Y-122705388D01*
X195254000Y-122705388D01*
X195258475Y-122720627D01*
X195259865Y-122721832D01*
X195267548Y-122723503D01*
X196309229Y-122723503D01*
X196322760Y-122719530D01*
X196323637Y-122713428D01*
X196267690Y-122561367D01*
X196262123Y-122549954D01*
X196166292Y-122395395D01*
X196158540Y-122385329D01*
X196033592Y-122253200D01*
X196023974Y-122244898D01*
X195875013Y-122140595D01*
X195863919Y-122134395D01*
X195697020Y-122062171D01*
X195684917Y-122058332D01*
X195505400Y-122020828D01*
X195495848Y-122019588D01*
X195492616Y-122019503D01*
X195272115Y-122019503D01*
X195256876Y-122023978D01*
X195255671Y-122025368D01*
X195254000Y-122033051D01*
X195254000Y-122705388D01*
X194746000Y-122705388D01*
X194746000Y-122037618D01*
X194741525Y-122022379D01*
X194740135Y-122021174D01*
X194732452Y-122019503D01*
X194554553Y-122019503D01*
X194548178Y-122019826D01*
X194412723Y-122033585D01*
X194400283Y-122036139D01*
X194226756Y-122090519D01*
X194215068Y-122095528D01*
X194056021Y-122183690D01*
X194045588Y-122190941D01*
X193907509Y-122309288D01*
X193898756Y-122318479D01*
X193787289Y-122462183D01*
X193780565Y-122472943D01*
X193700268Y-122636128D01*
X193695845Y-122648022D01*
X193680749Y-122705973D01*
X192300894Y-122705973D01*
X192247690Y-122561367D01*
X192242123Y-122549954D01*
X192146292Y-122395395D01*
X192138540Y-122385329D01*
X192013592Y-122253200D01*
X192003974Y-122244898D01*
X191855013Y-122140595D01*
X191843916Y-122134393D01*
X191780868Y-122107110D01*
X191726293Y-122061700D01*
X191704933Y-121993992D01*
X191723569Y-121925485D01*
X191728202Y-121918484D01*
X191807464Y-121806951D01*
X191807467Y-121806946D01*
X191812442Y-121799945D01*
X191863533Y-121658035D01*
X191865614Y-121629706D01*
X191873951Y-121516175D01*
X191874580Y-121507612D01*
X191866533Y-121467701D01*
X191846464Y-121368178D01*
X191844767Y-121359760D01*
X191776293Y-121225371D01*
X191674201Y-121114347D01*
X191588553Y-121061243D01*
X191553313Y-121039393D01*
X191553310Y-121039392D01*
X191546014Y-121034868D01*
X191401175Y-120992788D01*
X191394197Y-120992276D01*
X191392792Y-120992172D01*
X191392781Y-120992172D01*
X191390485Y-120992003D01*
X191282215Y-120992003D01*
X191277970Y-120992585D01*
X191277963Y-120992585D01*
X191220420Y-121000468D01*
X191170568Y-121007297D01*
X191162684Y-121010709D01*
X191162683Y-121010709D01*
X191040029Y-121063786D01*
X191040027Y-121063787D01*
X191032145Y-121067198D01*
X190914930Y-121162117D01*
X190827558Y-121285061D01*
X190776467Y-121426971D01*
X190765420Y-121577394D01*
X187701360Y-121577394D01*
X187620489Y-121496523D01*
X187563922Y-121467701D01*
X187524755Y-121447744D01*
X187524752Y-121447743D01*
X187515918Y-121443242D01*
X187400000Y-121424882D01*
X187284082Y-121443242D01*
X187275248Y-121447743D01*
X187275245Y-121447744D01*
X187236078Y-121467701D01*
X187179511Y-121496523D01*
X187096523Y-121579511D01*
X187074670Y-121622401D01*
X187047744Y-121675245D01*
X187047743Y-121675248D01*
X187043242Y-121684082D01*
X187024882Y-121800000D01*
X183423966Y-121800000D01*
X183420489Y-121796523D01*
X183366921Y-121769229D01*
X183324755Y-121747744D01*
X183324752Y-121747743D01*
X183315918Y-121743242D01*
X183200000Y-121724882D01*
X183084082Y-121743242D01*
X183075248Y-121747743D01*
X183075245Y-121747744D01*
X183033079Y-121769229D01*
X182979511Y-121796523D01*
X182896523Y-121879511D01*
X182874421Y-121922889D01*
X182847744Y-121975245D01*
X182847743Y-121975248D01*
X182843242Y-121984082D01*
X182824882Y-122100000D01*
X177686738Y-122100000D01*
X177744832Y-122061912D01*
X177861498Y-121938757D01*
X177946703Y-121792065D01*
X177964624Y-121732897D01*
X177993755Y-121636712D01*
X177995877Y-121629706D01*
X178006381Y-121460390D01*
X178003435Y-121443242D01*
X177978892Y-121300414D01*
X177977652Y-121293198D01*
X177911232Y-121137100D01*
X177906899Y-121131212D01*
X177906896Y-121131207D01*
X177815024Y-121006367D01*
X177815020Y-121006363D01*
X177810682Y-121000468D01*
X177681397Y-120890633D01*
X177530313Y-120813485D01*
X177523203Y-120811745D01*
X177523200Y-120811744D01*
X177441294Y-120791702D01*
X177365532Y-120773163D01*
X177358185Y-120772707D01*
X177356785Y-120772620D01*
X177356772Y-120772620D01*
X177354844Y-120772500D01*
X176682517Y-120772500D01*
X176615565Y-120780306D01*
X176563769Y-120786344D01*
X176563766Y-120786345D01*
X176556499Y-120787192D01*
X176549624Y-120789688D01*
X176549622Y-120789688D01*
X176403914Y-120842578D01*
X176397038Y-120845074D01*
X176255168Y-120938088D01*
X176138502Y-121061243D01*
X176053297Y-121207935D01*
X176051176Y-121214939D01*
X176051174Y-121214943D01*
X176027473Y-121293198D01*
X176004123Y-121370294D01*
X175993619Y-121539610D01*
X171051000Y-121539610D01*
X171051000Y-119114219D01*
X175997500Y-119114219D01*
X175997501Y-119885780D01*
X176008422Y-119959979D01*
X176012739Y-119968771D01*
X176058951Y-120062893D01*
X176063810Y-120072790D01*
X176152753Y-120161578D01*
X176220245Y-120194569D01*
X176256439Y-120212261D01*
X176265661Y-120216769D01*
X176275336Y-120218180D01*
X176275338Y-120218181D01*
X176334693Y-120226840D01*
X176334697Y-120226840D01*
X176339219Y-120227500D01*
X176997480Y-120227500D01*
X177660780Y-120227499D01*
X177734979Y-120216578D01*
X177837688Y-120166150D01*
X177838442Y-120165780D01*
X177838443Y-120165779D01*
X177847790Y-120161190D01*
X177936578Y-120072247D01*
X177971893Y-120000000D01*
X187624882Y-120000000D01*
X187643242Y-120115918D01*
X187647743Y-120124752D01*
X187647744Y-120124755D01*
X187666309Y-120161190D01*
X187696523Y-120220489D01*
X187779511Y-120303477D01*
X187833079Y-120330771D01*
X187875245Y-120352256D01*
X187875248Y-120352257D01*
X187884082Y-120356758D01*
X188000000Y-120375118D01*
X188115918Y-120356758D01*
X188124752Y-120352257D01*
X188124755Y-120352256D01*
X188166921Y-120330771D01*
X188220489Y-120303477D01*
X188303477Y-120220489D01*
X188333691Y-120161190D01*
X188352256Y-120124755D01*
X188352257Y-120124752D01*
X188356758Y-120115918D01*
X188375118Y-120000000D01*
X188356758Y-119884082D01*
X188352257Y-119875248D01*
X188352256Y-119875245D01*
X188330771Y-119833079D01*
X188303477Y-119779511D01*
X188220489Y-119696523D01*
X188200455Y-119686315D01*
X188148841Y-119637569D01*
X188131774Y-119568654D01*
X188154674Y-119501453D01*
X188209715Y-119457740D01*
X188215918Y-119456758D01*
X188320489Y-119403477D01*
X188403477Y-119320489D01*
X188413917Y-119300000D01*
X191424882Y-119300000D01*
X191443242Y-119415918D01*
X191447743Y-119424752D01*
X191447744Y-119424755D01*
X191464051Y-119456758D01*
X191496523Y-119520489D01*
X191579511Y-119603477D01*
X191621521Y-119624882D01*
X191675245Y-119652256D01*
X191675248Y-119652257D01*
X191684082Y-119656758D01*
X191800000Y-119675118D01*
X191915918Y-119656758D01*
X191924752Y-119652257D01*
X191924755Y-119652256D01*
X191978479Y-119624882D01*
X192020489Y-119603477D01*
X192103477Y-119520489D01*
X192135949Y-119456758D01*
X192152256Y-119424755D01*
X192152257Y-119424752D01*
X192156758Y-119415918D01*
X192175118Y-119300000D01*
X192156758Y-119184082D01*
X192152257Y-119175248D01*
X192152256Y-119175245D01*
X192121161Y-119114219D01*
X192103477Y-119079511D01*
X192020489Y-118996523D01*
X191966921Y-118969229D01*
X191924755Y-118947744D01*
X191924752Y-118947743D01*
X191915918Y-118943242D01*
X191800000Y-118924882D01*
X191684082Y-118943242D01*
X191675248Y-118947743D01*
X191675245Y-118947744D01*
X191633079Y-118969229D01*
X191579511Y-118996523D01*
X191496523Y-119079511D01*
X191478839Y-119114219D01*
X191447744Y-119175245D01*
X191447743Y-119175248D01*
X191443242Y-119184082D01*
X191424882Y-119300000D01*
X188413917Y-119300000D01*
X188430771Y-119266921D01*
X188452256Y-119224755D01*
X188452257Y-119224752D01*
X188456758Y-119215918D01*
X188475118Y-119100000D01*
X188456758Y-118984082D01*
X188452257Y-118975248D01*
X188452256Y-118975245D01*
X188407981Y-118888351D01*
X188403477Y-118879511D01*
X188397362Y-118873396D01*
X188373741Y-118807195D01*
X188389820Y-118738043D01*
X188396828Y-118727138D01*
X188403477Y-118720489D01*
X188445250Y-118638504D01*
X188452256Y-118624755D01*
X188452257Y-118624752D01*
X188456758Y-118615918D01*
X188475118Y-118500000D01*
X188456758Y-118384082D01*
X188452257Y-118375248D01*
X188452256Y-118375245D01*
X188422027Y-118315918D01*
X188403477Y-118279511D01*
X188320489Y-118196523D01*
X188266921Y-118169229D01*
X188224755Y-118147744D01*
X188224752Y-118147743D01*
X188215918Y-118143242D01*
X188100000Y-118124882D01*
X187984082Y-118143242D01*
X187975248Y-118147743D01*
X187975245Y-118147744D01*
X187933079Y-118169229D01*
X187879511Y-118196523D01*
X187796523Y-118279511D01*
X187777973Y-118315918D01*
X187747744Y-118375245D01*
X187747743Y-118375248D01*
X187743242Y-118384082D01*
X187724882Y-118500000D01*
X187743242Y-118615918D01*
X187747743Y-118624752D01*
X187747744Y-118624755D01*
X187754750Y-118638504D01*
X187796523Y-118720489D01*
X187802638Y-118726604D01*
X187826259Y-118792805D01*
X187810180Y-118861957D01*
X187803172Y-118872862D01*
X187796523Y-118879511D01*
X187792019Y-118888351D01*
X187747744Y-118975245D01*
X187747743Y-118975248D01*
X187743242Y-118984082D01*
X187724882Y-119100000D01*
X187743242Y-119215918D01*
X187747743Y-119224752D01*
X187747744Y-119224755D01*
X187769229Y-119266921D01*
X187796523Y-119320489D01*
X187879511Y-119403477D01*
X187899545Y-119413685D01*
X187951159Y-119462431D01*
X187968226Y-119531346D01*
X187945326Y-119598547D01*
X187890285Y-119642260D01*
X187884082Y-119643242D01*
X187779511Y-119696523D01*
X187696523Y-119779511D01*
X187669229Y-119833079D01*
X187647744Y-119875245D01*
X187647743Y-119875248D01*
X187643242Y-119884082D01*
X187624882Y-120000000D01*
X177971893Y-120000000D01*
X177991769Y-119959339D01*
X178002500Y-119885781D01*
X178002499Y-119130655D01*
X178022501Y-119062534D01*
X178076157Y-119016041D01*
X178146431Y-119005937D01*
X178211011Y-119035430D01*
X178217594Y-119041560D01*
X178279511Y-119103477D01*
X178309569Y-119118792D01*
X178375245Y-119152256D01*
X178375248Y-119152257D01*
X178384082Y-119156758D01*
X178500000Y-119175118D01*
X178615918Y-119156758D01*
X178624752Y-119152257D01*
X178624755Y-119152256D01*
X178690431Y-119118792D01*
X178720489Y-119103477D01*
X178803477Y-119020489D01*
X178842836Y-118943242D01*
X178852256Y-118924755D01*
X178852257Y-118924752D01*
X178856758Y-118915918D01*
X178875118Y-118800000D01*
X178860691Y-118708914D01*
X178869790Y-118638504D01*
X178915512Y-118584190D01*
X178965428Y-118564755D01*
X179015918Y-118556758D01*
X179024752Y-118552257D01*
X179024755Y-118552256D01*
X179066921Y-118530771D01*
X179120489Y-118503477D01*
X179203477Y-118420489D01*
X179233535Y-118361496D01*
X179252256Y-118324755D01*
X179252257Y-118324752D01*
X179256758Y-118315918D01*
X179275118Y-118200000D01*
X179260040Y-118104804D01*
X179258310Y-118093878D01*
X179258309Y-118093875D01*
X179256758Y-118084082D01*
X179252417Y-118075563D01*
X179250395Y-118004794D01*
X179287057Y-117943996D01*
X179350768Y-117912670D01*
X179421302Y-117920762D01*
X179461351Y-117947729D01*
X179530798Y-118017176D01*
X179532584Y-118019177D01*
X179537446Y-118029301D01*
X179559344Y-118046813D01*
X179566021Y-118052789D01*
X179567948Y-118054326D01*
X179572955Y-118059333D01*
X179578945Y-118063098D01*
X179581315Y-118064988D01*
X179588097Y-118069808D01*
X179598514Y-118078139D01*
X179598517Y-118078141D01*
X179609599Y-118087003D01*
X179621237Y-118089679D01*
X179631349Y-118096035D01*
X179655971Y-118098819D01*
X179658713Y-118099129D01*
X179667208Y-118100581D01*
X179670042Y-118100903D01*
X179676989Y-118102500D01*
X179684117Y-118102500D01*
X179686769Y-118102801D01*
X179695591Y-118103298D01*
X179709052Y-118104820D01*
X179709053Y-118104820D01*
X179723153Y-118106414D01*
X179733900Y-118102661D01*
X179736779Y-118102500D01*
X183363213Y-118102500D01*
X183365891Y-118102652D01*
X183376487Y-118106373D01*
X183390586Y-118104804D01*
X183390587Y-118104804D01*
X183404009Y-118103310D01*
X183404342Y-118103273D01*
X183413306Y-118102776D01*
X183415757Y-118102500D01*
X183422831Y-118102500D01*
X183429729Y-118100926D01*
X183432733Y-118100588D01*
X183440940Y-118099200D01*
X183468308Y-118096154D01*
X183478429Y-118089817D01*
X183490074Y-118087161D01*
X183511611Y-118069999D01*
X183518650Y-118065015D01*
X183520877Y-118063242D01*
X183526918Y-118059460D01*
X183531959Y-118054419D01*
X183534044Y-118052759D01*
X183540629Y-118046876D01*
X183551229Y-118038429D01*
X183562328Y-118029585D01*
X183567273Y-118019333D01*
X183569199Y-118017179D01*
X184086378Y-117500000D01*
X191424882Y-117500000D01*
X191443242Y-117615918D01*
X191447743Y-117624752D01*
X191447744Y-117624755D01*
X191466006Y-117660595D01*
X191496523Y-117720489D01*
X191579511Y-117803477D01*
X191621521Y-117824882D01*
X191675245Y-117852256D01*
X191675248Y-117852257D01*
X191684082Y-117856758D01*
X191800000Y-117875118D01*
X191915918Y-117856758D01*
X191924752Y-117852257D01*
X191924755Y-117852256D01*
X191978479Y-117824882D01*
X192020489Y-117803477D01*
X192103477Y-117720489D01*
X192133994Y-117660595D01*
X192152256Y-117624755D01*
X192152257Y-117624752D01*
X192156758Y-117615918D01*
X192175118Y-117500000D01*
X192156758Y-117384082D01*
X192152257Y-117375248D01*
X192152256Y-117375245D01*
X192110796Y-117293876D01*
X192103477Y-117279511D01*
X192020489Y-117196523D01*
X191966921Y-117169229D01*
X191924755Y-117147744D01*
X191924752Y-117147743D01*
X191915918Y-117143242D01*
X191800000Y-117124882D01*
X191684082Y-117143242D01*
X191675248Y-117147743D01*
X191675245Y-117147744D01*
X191633079Y-117169229D01*
X191579511Y-117196523D01*
X191496523Y-117279511D01*
X191489204Y-117293876D01*
X191447744Y-117375245D01*
X191447743Y-117375248D01*
X191443242Y-117384082D01*
X191424882Y-117500000D01*
X184086378Y-117500000D01*
X185788984Y-115797394D01*
X190765420Y-115797394D01*
X190795233Y-115945246D01*
X190863707Y-116079635D01*
X190965799Y-116190659D01*
X191029893Y-116230399D01*
X191086687Y-116265613D01*
X191086690Y-116265614D01*
X191093986Y-116270138D01*
X191238825Y-116312218D01*
X191245803Y-116312730D01*
X191247208Y-116312834D01*
X191247219Y-116312834D01*
X191249515Y-116313003D01*
X191357785Y-116313003D01*
X191362030Y-116312421D01*
X191362037Y-116312421D01*
X191422522Y-116304135D01*
X191469432Y-116297709D01*
X191491055Y-116288352D01*
X191599971Y-116241220D01*
X191599973Y-116241219D01*
X191607855Y-116237808D01*
X191725070Y-116142889D01*
X191812442Y-116019945D01*
X191863533Y-115878035D01*
X191874580Y-115727612D01*
X191844767Y-115579760D01*
X191776293Y-115445371D01*
X191737157Y-115402811D01*
X191705771Y-115339129D01*
X191713797Y-115268588D01*
X191758686Y-115213583D01*
X191768819Y-115207323D01*
X191923979Y-115121316D01*
X191934412Y-115114065D01*
X192072491Y-114995718D01*
X192081244Y-114986527D01*
X192192711Y-114842823D01*
X192199435Y-114832063D01*
X192279732Y-114668878D01*
X192284155Y-114656984D01*
X192299251Y-114599033D01*
X192299021Y-114591578D01*
X193676363Y-114591578D01*
X193732310Y-114743639D01*
X193737877Y-114755052D01*
X193833708Y-114909611D01*
X193841460Y-114919677D01*
X193966408Y-115051806D01*
X193976026Y-115060108D01*
X194124987Y-115164411D01*
X194136081Y-115170611D01*
X194302980Y-115242835D01*
X194315083Y-115246674D01*
X194494600Y-115284178D01*
X194504152Y-115285418D01*
X194507384Y-115285503D01*
X194727885Y-115285503D01*
X194743124Y-115281028D01*
X194744329Y-115279638D01*
X194746000Y-115271955D01*
X194746000Y-115267388D01*
X195254000Y-115267388D01*
X195258475Y-115282627D01*
X195259865Y-115283832D01*
X195267548Y-115285503D01*
X195445447Y-115285503D01*
X195451822Y-115285180D01*
X195587277Y-115271421D01*
X195599717Y-115268867D01*
X195773244Y-115214487D01*
X195784932Y-115209478D01*
X195943979Y-115121316D01*
X195954412Y-115114065D01*
X196092491Y-114995718D01*
X196101244Y-114986527D01*
X196212711Y-114842823D01*
X196219435Y-114832063D01*
X196299732Y-114668878D01*
X196304155Y-114656984D01*
X196319251Y-114599033D01*
X196318817Y-114584939D01*
X196310636Y-114581503D01*
X195272115Y-114581503D01*
X195256876Y-114585978D01*
X195255671Y-114587368D01*
X195254000Y-114595051D01*
X195254000Y-115267388D01*
X194746000Y-115267388D01*
X194746000Y-114599618D01*
X194741525Y-114584379D01*
X194740135Y-114583174D01*
X194732452Y-114581503D01*
X193690771Y-114581503D01*
X193677240Y-114585476D01*
X193676363Y-114591578D01*
X192299021Y-114591578D01*
X192298817Y-114584939D01*
X192290636Y-114581503D01*
X191102115Y-114581503D01*
X191086876Y-114585978D01*
X191085671Y-114587368D01*
X191084000Y-114595051D01*
X191084000Y-115186160D01*
X191063998Y-115254281D01*
X191031283Y-115286133D01*
X191032145Y-115287198D01*
X190914930Y-115382117D01*
X190827558Y-115505061D01*
X190776467Y-115646971D01*
X190765420Y-115797394D01*
X185788984Y-115797394D01*
X186994800Y-114591578D01*
X189356363Y-114591578D01*
X189412310Y-114743639D01*
X189417877Y-114755052D01*
X189513708Y-114909611D01*
X189521460Y-114919677D01*
X189646408Y-115051806D01*
X189656026Y-115060108D01*
X189804987Y-115164411D01*
X189816081Y-115170611D01*
X189982980Y-115242835D01*
X189995083Y-115246674D01*
X190174600Y-115284178D01*
X190184152Y-115285418D01*
X190187384Y-115285503D01*
X190557885Y-115285503D01*
X190573124Y-115281028D01*
X190574329Y-115279638D01*
X190576000Y-115271955D01*
X190576000Y-114599618D01*
X190571525Y-114584379D01*
X190570135Y-114583174D01*
X190562452Y-114581503D01*
X189370771Y-114581503D01*
X189357240Y-114585476D01*
X189356363Y-114591578D01*
X186994800Y-114591578D01*
X187277996Y-114308382D01*
X187340308Y-114274356D01*
X187386800Y-114273028D01*
X187390203Y-114273567D01*
X187390208Y-114273567D01*
X187400000Y-114275118D01*
X187515918Y-114256758D01*
X187524752Y-114252257D01*
X187524755Y-114252256D01*
X187566921Y-114230771D01*
X187620489Y-114203477D01*
X187703477Y-114120489D01*
X187736349Y-114055973D01*
X189360749Y-114055973D01*
X189361183Y-114070067D01*
X189369364Y-114073503D01*
X190557885Y-114073503D01*
X190573124Y-114069028D01*
X190574329Y-114067638D01*
X190576000Y-114059955D01*
X190576000Y-114055388D01*
X191084000Y-114055388D01*
X191088475Y-114070627D01*
X191089865Y-114071832D01*
X191097548Y-114073503D01*
X192289229Y-114073503D01*
X192302760Y-114069530D01*
X192303637Y-114063428D01*
X192300894Y-114055973D01*
X193680749Y-114055973D01*
X193681183Y-114070067D01*
X193689364Y-114073503D01*
X194727885Y-114073503D01*
X194743124Y-114069028D01*
X194744329Y-114067638D01*
X194746000Y-114059955D01*
X194746000Y-114055388D01*
X195254000Y-114055388D01*
X195258475Y-114070627D01*
X195259865Y-114071832D01*
X195267548Y-114073503D01*
X196309229Y-114073503D01*
X196322760Y-114069530D01*
X196323637Y-114063428D01*
X196267690Y-113911367D01*
X196262123Y-113899954D01*
X196166292Y-113745395D01*
X196158540Y-113735329D01*
X196033592Y-113603200D01*
X196023974Y-113594898D01*
X195875013Y-113490595D01*
X195863919Y-113484395D01*
X195697020Y-113412171D01*
X195684917Y-113408332D01*
X195505400Y-113370828D01*
X195495848Y-113369588D01*
X195492616Y-113369503D01*
X195272115Y-113369503D01*
X195256876Y-113373978D01*
X195255671Y-113375368D01*
X195254000Y-113383051D01*
X195254000Y-114055388D01*
X194746000Y-114055388D01*
X194746000Y-113387618D01*
X194741525Y-113372379D01*
X194740135Y-113371174D01*
X194732452Y-113369503D01*
X194554553Y-113369503D01*
X194548178Y-113369826D01*
X194412723Y-113383585D01*
X194400283Y-113386139D01*
X194226756Y-113440519D01*
X194215068Y-113445528D01*
X194056021Y-113533690D01*
X194045588Y-113540941D01*
X193907509Y-113659288D01*
X193898756Y-113668479D01*
X193787289Y-113812183D01*
X193780565Y-113822943D01*
X193700268Y-113986128D01*
X193695845Y-113998022D01*
X193680749Y-114055973D01*
X192300894Y-114055973D01*
X192247690Y-113911367D01*
X192242123Y-113899954D01*
X192146292Y-113745395D01*
X192138540Y-113735329D01*
X192013592Y-113603200D01*
X192003974Y-113594898D01*
X191855013Y-113490595D01*
X191843919Y-113484395D01*
X191677020Y-113412171D01*
X191664917Y-113408332D01*
X191485400Y-113370828D01*
X191475848Y-113369588D01*
X191472616Y-113369503D01*
X191102115Y-113369503D01*
X191086876Y-113373978D01*
X191085671Y-113375368D01*
X191084000Y-113383051D01*
X191084000Y-114055388D01*
X190576000Y-114055388D01*
X190576000Y-113387618D01*
X190571525Y-113372379D01*
X190570135Y-113371174D01*
X190562452Y-113369503D01*
X190234553Y-113369503D01*
X190228178Y-113369826D01*
X190092723Y-113383585D01*
X190080283Y-113386139D01*
X189906756Y-113440519D01*
X189895068Y-113445528D01*
X189736021Y-113533690D01*
X189725588Y-113540941D01*
X189587509Y-113659288D01*
X189578756Y-113668479D01*
X189467289Y-113812183D01*
X189460565Y-113822943D01*
X189380268Y-113986128D01*
X189375845Y-113998022D01*
X189360749Y-114055973D01*
X187736349Y-114055973D01*
X187736647Y-114055388D01*
X187752256Y-114024755D01*
X187752257Y-114024752D01*
X187756758Y-114015918D01*
X187775118Y-113900000D01*
X187756758Y-113784082D01*
X187752257Y-113775248D01*
X187752256Y-113775245D01*
X187719851Y-113711648D01*
X187703477Y-113679511D01*
X187620489Y-113596523D01*
X187566921Y-113569229D01*
X187524755Y-113547744D01*
X187524752Y-113547743D01*
X187515918Y-113543242D01*
X187400000Y-113524882D01*
X187284082Y-113543242D01*
X187275248Y-113547743D01*
X187275245Y-113547744D01*
X187233079Y-113569229D01*
X187179511Y-113596523D01*
X187096523Y-113679511D01*
X187080149Y-113711648D01*
X187047744Y-113775245D01*
X187047743Y-113775248D01*
X187043242Y-113784082D01*
X187024882Y-113900000D01*
X187026433Y-113909792D01*
X187026433Y-113909797D01*
X187026972Y-113913200D01*
X187026433Y-113917370D01*
X187026433Y-113919712D01*
X187026130Y-113919712D01*
X187017872Y-113983611D01*
X186991618Y-114022004D01*
X183353027Y-117660595D01*
X183290715Y-117694621D01*
X183263932Y-117697500D01*
X179836069Y-117697500D01*
X179767948Y-117677498D01*
X179746974Y-117660595D01*
X179608382Y-117522003D01*
X179574356Y-117459691D01*
X179573028Y-117413201D01*
X179573567Y-117409797D01*
X179573567Y-117409792D01*
X179575118Y-117400000D01*
X179556758Y-117284082D01*
X179552257Y-117275248D01*
X179552256Y-117275245D01*
X179515720Y-117203540D01*
X179503477Y-117179511D01*
X179420489Y-117096523D01*
X179420700Y-117096312D01*
X179381350Y-117045282D01*
X179375273Y-116974546D01*
X179408404Y-116911754D01*
X179470224Y-116876842D01*
X179493802Y-116874136D01*
X179500000Y-116875118D01*
X179615918Y-116856758D01*
X179624752Y-116852257D01*
X179624755Y-116852256D01*
X179666921Y-116830771D01*
X179720489Y-116803477D01*
X179803477Y-116720489D01*
X179830771Y-116666921D01*
X179852256Y-116624755D01*
X179852257Y-116624752D01*
X179856758Y-116615918D01*
X179875118Y-116500000D01*
X179856758Y-116384082D01*
X179852257Y-116375248D01*
X179852256Y-116375245D01*
X179820542Y-116313003D01*
X179803477Y-116279511D01*
X179720489Y-116196523D01*
X179666921Y-116169229D01*
X179624755Y-116147744D01*
X179624752Y-116147743D01*
X179615918Y-116143242D01*
X179500000Y-116124882D01*
X179384082Y-116143242D01*
X179375248Y-116147743D01*
X179375245Y-116147744D01*
X179333079Y-116169229D01*
X179279511Y-116196523D01*
X179196523Y-116279511D01*
X179179458Y-116313003D01*
X179147744Y-116375245D01*
X179147743Y-116375248D01*
X179143242Y-116384082D01*
X179124882Y-116500000D01*
X179143242Y-116615918D01*
X179147743Y-116624752D01*
X179147744Y-116624755D01*
X179169229Y-116666921D01*
X179196523Y-116720489D01*
X179279511Y-116803477D01*
X179279300Y-116803688D01*
X179318650Y-116854718D01*
X179324727Y-116925454D01*
X179291596Y-116988246D01*
X179229776Y-117023158D01*
X179206198Y-117025864D01*
X179200000Y-117024882D01*
X179084082Y-117043242D01*
X179075248Y-117047743D01*
X179075245Y-117047744D01*
X179033079Y-117069229D01*
X178979511Y-117096523D01*
X178896523Y-117179511D01*
X178884280Y-117203540D01*
X178847744Y-117275245D01*
X178847743Y-117275248D01*
X178843242Y-117284082D01*
X178824882Y-117400000D01*
X178843242Y-117515918D01*
X178847743Y-117524752D01*
X178847744Y-117524755D01*
X178869229Y-117566921D01*
X178896523Y-117620489D01*
X178903541Y-117627507D01*
X178909364Y-117635522D01*
X178906718Y-117637444D01*
X178932612Y-117684864D01*
X178927547Y-117755679D01*
X178885000Y-117812515D01*
X178829202Y-117836096D01*
X178784082Y-117843242D01*
X178775248Y-117847743D01*
X178775245Y-117847744D01*
X178733079Y-117869229D01*
X178679511Y-117896523D01*
X178596523Y-117979511D01*
X178576523Y-118018764D01*
X178547744Y-118075245D01*
X178547743Y-118075248D01*
X178543242Y-118084082D01*
X178524882Y-118200000D01*
X178526433Y-118209792D01*
X178539309Y-118291085D01*
X178530210Y-118361496D01*
X178484488Y-118415810D01*
X178434572Y-118435245D01*
X178384082Y-118443242D01*
X178375248Y-118447743D01*
X178375245Y-118447744D01*
X178333079Y-118469229D01*
X178279511Y-118496523D01*
X178196523Y-118579511D01*
X178177973Y-118615918D01*
X178147744Y-118675245D01*
X178147743Y-118675248D01*
X178143242Y-118684082D01*
X178124882Y-118800000D01*
X178126433Y-118809792D01*
X178126433Y-118813305D01*
X178106431Y-118881426D01*
X178052775Y-118927919D01*
X177982501Y-118938023D01*
X177917921Y-118908529D01*
X177911415Y-118902478D01*
X177854616Y-118845778D01*
X177854615Y-118845778D01*
X177847247Y-118838422D01*
X177779755Y-118805431D01*
X177743124Y-118787525D01*
X177743123Y-118787525D01*
X177734339Y-118783231D01*
X177724664Y-118781820D01*
X177724662Y-118781819D01*
X177665307Y-118773160D01*
X177665303Y-118773160D01*
X177660781Y-118772500D01*
X177002520Y-118772500D01*
X176339220Y-118772501D01*
X176265021Y-118783422D01*
X176231256Y-118800000D01*
X176161558Y-118834220D01*
X176161557Y-118834221D01*
X176152210Y-118838810D01*
X176063422Y-118927753D01*
X176058850Y-118937107D01*
X176020266Y-119016041D01*
X176008231Y-119040661D01*
X176006820Y-119050336D01*
X176006819Y-119050338D01*
X176000091Y-119096460D01*
X175997500Y-119114219D01*
X171051000Y-119114219D01*
X171051000Y-116800000D01*
X172950000Y-116800000D01*
X176500000Y-116800000D01*
X176500000Y-114500000D01*
X180124882Y-114500000D01*
X180143242Y-114615918D01*
X180147743Y-114624752D01*
X180147744Y-114624755D01*
X180164166Y-114656984D01*
X180196523Y-114720489D01*
X180279511Y-114803477D01*
X180333079Y-114830771D01*
X180375245Y-114852256D01*
X180375248Y-114852257D01*
X180384082Y-114856758D01*
X180500000Y-114875118D01*
X180615918Y-114856758D01*
X180624752Y-114852257D01*
X180624755Y-114852256D01*
X180666921Y-114830771D01*
X180720489Y-114803477D01*
X180803477Y-114720489D01*
X180835834Y-114656984D01*
X180852256Y-114624755D01*
X180852257Y-114624752D01*
X180856758Y-114615918D01*
X180875118Y-114500000D01*
X180856758Y-114384082D01*
X180852257Y-114375248D01*
X180852256Y-114375245D01*
X180818187Y-114308382D01*
X180803477Y-114279511D01*
X180720489Y-114196523D01*
X180666921Y-114169229D01*
X180624755Y-114147744D01*
X180624752Y-114147743D01*
X180615918Y-114143242D01*
X180500000Y-114124882D01*
X180384082Y-114143242D01*
X180375248Y-114147743D01*
X180375245Y-114147744D01*
X180333079Y-114169229D01*
X180279511Y-114196523D01*
X180196523Y-114279511D01*
X180181813Y-114308382D01*
X180147744Y-114375245D01*
X180147743Y-114375248D01*
X180143242Y-114384082D01*
X180124882Y-114500000D01*
X176500000Y-114500000D01*
X176500000Y-113200000D01*
X180124882Y-113200000D01*
X180143242Y-113315918D01*
X180147743Y-113324752D01*
X180147744Y-113324755D01*
X180160017Y-113348841D01*
X180196523Y-113420489D01*
X180279511Y-113503477D01*
X180321521Y-113524882D01*
X180375245Y-113552256D01*
X180375248Y-113552257D01*
X180384082Y-113556758D01*
X180500000Y-113575118D01*
X180615918Y-113556758D01*
X180624752Y-113552257D01*
X180624755Y-113552256D01*
X180678479Y-113524882D01*
X180720489Y-113503477D01*
X180803477Y-113420489D01*
X180813685Y-113400455D01*
X180862431Y-113348841D01*
X180931346Y-113331774D01*
X180998547Y-113354674D01*
X181042260Y-113409715D01*
X181043242Y-113415918D01*
X181096523Y-113520489D01*
X181179511Y-113603477D01*
X181221272Y-113624755D01*
X181275245Y-113652256D01*
X181275248Y-113652257D01*
X181284082Y-113656758D01*
X181400000Y-113675118D01*
X181515918Y-113656758D01*
X181524752Y-113652257D01*
X181524755Y-113652256D01*
X181578728Y-113624755D01*
X181620489Y-113603477D01*
X181703477Y-113520489D01*
X181713917Y-113500000D01*
X183424882Y-113500000D01*
X183443242Y-113615918D01*
X183447743Y-113624752D01*
X183447744Y-113624755D01*
X183461757Y-113652256D01*
X183496523Y-113720489D01*
X183579511Y-113803477D01*
X183617716Y-113822943D01*
X183675245Y-113852256D01*
X183675248Y-113852257D01*
X183684082Y-113856758D01*
X183800000Y-113875118D01*
X183915918Y-113856758D01*
X183924752Y-113852257D01*
X183924755Y-113852256D01*
X183982284Y-113822943D01*
X184020489Y-113803477D01*
X184103477Y-113720489D01*
X184138243Y-113652256D01*
X184152256Y-113624755D01*
X184152257Y-113624752D01*
X184156758Y-113615918D01*
X184175118Y-113500000D01*
X184156758Y-113384082D01*
X184152257Y-113375248D01*
X184152256Y-113375245D01*
X184122027Y-113315918D01*
X184103477Y-113279511D01*
X184020489Y-113196523D01*
X183964952Y-113168226D01*
X183924755Y-113147744D01*
X183924752Y-113147743D01*
X183915918Y-113143242D01*
X183800000Y-113124882D01*
X183684082Y-113143242D01*
X183675248Y-113147743D01*
X183675245Y-113147744D01*
X183635048Y-113168226D01*
X183579511Y-113196523D01*
X183496523Y-113279511D01*
X183477973Y-113315918D01*
X183447744Y-113375245D01*
X183447743Y-113375248D01*
X183443242Y-113384082D01*
X183424882Y-113500000D01*
X181713917Y-113500000D01*
X181741671Y-113445528D01*
X181752256Y-113424755D01*
X181752257Y-113424752D01*
X181756758Y-113415918D01*
X181775118Y-113300000D01*
X181756758Y-113184082D01*
X181752257Y-113175248D01*
X181752256Y-113175245D01*
X181719851Y-113111648D01*
X181703477Y-113079511D01*
X181620489Y-112996523D01*
X181566921Y-112969229D01*
X181524755Y-112947744D01*
X181524752Y-112947743D01*
X181515918Y-112943242D01*
X181400000Y-112924882D01*
X181284082Y-112943242D01*
X181275248Y-112947743D01*
X181275245Y-112947744D01*
X181233079Y-112969229D01*
X181179511Y-112996523D01*
X181096523Y-113079511D01*
X181086315Y-113099545D01*
X181037569Y-113151159D01*
X180968654Y-113168226D01*
X180901453Y-113145326D01*
X180857740Y-113090285D01*
X180856758Y-113084082D01*
X180803477Y-112979511D01*
X180723966Y-112900000D01*
X184724882Y-112900000D01*
X184743242Y-113015918D01*
X184747743Y-113024752D01*
X184747744Y-113024755D01*
X184769229Y-113066921D01*
X184796523Y-113120489D01*
X184879511Y-113203477D01*
X184933079Y-113230771D01*
X184975245Y-113252256D01*
X184975248Y-113252257D01*
X184984082Y-113256758D01*
X185100000Y-113275118D01*
X185215918Y-113256758D01*
X185224752Y-113252257D01*
X185224755Y-113252256D01*
X185266921Y-113230771D01*
X185320489Y-113203477D01*
X185403477Y-113120489D01*
X185430771Y-113066921D01*
X185452256Y-113024755D01*
X185452257Y-113024752D01*
X185456758Y-113015918D01*
X185475118Y-112900000D01*
X185473567Y-112890207D01*
X185462333Y-112819278D01*
X185471433Y-112748867D01*
X185517155Y-112694552D01*
X185586782Y-112673567D01*
X185590208Y-112673567D01*
X185600000Y-112675118D01*
X185715918Y-112656758D01*
X185724752Y-112652257D01*
X185724755Y-112652256D01*
X185766921Y-112630771D01*
X185820489Y-112603477D01*
X185903477Y-112520489D01*
X185938815Y-112451133D01*
X185952256Y-112424755D01*
X185952257Y-112424752D01*
X185956758Y-112415918D01*
X185975118Y-112300000D01*
X185956758Y-112184082D01*
X185952257Y-112175248D01*
X185952256Y-112175245D01*
X185915688Y-112103477D01*
X185903477Y-112079511D01*
X185820489Y-111996523D01*
X185766921Y-111969229D01*
X185724755Y-111947744D01*
X185724752Y-111947743D01*
X185715918Y-111943242D01*
X185600000Y-111924882D01*
X185484082Y-111943242D01*
X185475248Y-111947743D01*
X185475245Y-111947744D01*
X185433079Y-111969229D01*
X185379511Y-111996523D01*
X185296523Y-112079511D01*
X185284312Y-112103477D01*
X185247744Y-112175245D01*
X185247743Y-112175248D01*
X185243242Y-112184082D01*
X185224882Y-112300000D01*
X185226433Y-112309792D01*
X185226433Y-112309793D01*
X185237667Y-112380722D01*
X185228567Y-112451133D01*
X185182845Y-112505448D01*
X185113218Y-112526433D01*
X185109792Y-112526433D01*
X185100000Y-112524882D01*
X184984082Y-112543242D01*
X184975248Y-112547743D01*
X184975245Y-112547744D01*
X184933079Y-112569229D01*
X184879511Y-112596523D01*
X184796523Y-112679511D01*
X184769229Y-112733079D01*
X184747744Y-112775245D01*
X184747743Y-112775248D01*
X184743242Y-112784082D01*
X184724882Y-112900000D01*
X180723966Y-112900000D01*
X180720489Y-112896523D01*
X180666921Y-112869229D01*
X180624755Y-112847744D01*
X180624752Y-112847743D01*
X180615918Y-112843242D01*
X180500000Y-112824882D01*
X180384082Y-112843242D01*
X180375248Y-112847743D01*
X180375245Y-112847744D01*
X180333079Y-112869229D01*
X180279511Y-112896523D01*
X180196523Y-112979511D01*
X180177973Y-113015918D01*
X180147744Y-113075245D01*
X180147743Y-113075248D01*
X180143242Y-113084082D01*
X180124882Y-113200000D01*
X176500000Y-113200000D01*
X176500000Y-111800000D01*
X192724882Y-111800000D01*
X192743242Y-111915918D01*
X192747743Y-111924752D01*
X192747744Y-111924755D01*
X192757164Y-111943242D01*
X192796523Y-112020489D01*
X192879511Y-112103477D01*
X192933079Y-112130771D01*
X192975245Y-112152256D01*
X192975248Y-112152257D01*
X192984082Y-112156758D01*
X193100000Y-112175118D01*
X193215918Y-112156758D01*
X193224752Y-112152257D01*
X193224755Y-112152256D01*
X193266921Y-112130771D01*
X193320489Y-112103477D01*
X193403477Y-112020489D01*
X193442836Y-111943242D01*
X193452256Y-111924755D01*
X193452257Y-111924752D01*
X193456758Y-111915918D01*
X193475118Y-111800000D01*
X193456758Y-111684082D01*
X193452257Y-111675248D01*
X193452256Y-111675245D01*
X193430771Y-111633079D01*
X193403477Y-111579511D01*
X193320489Y-111496523D01*
X193266921Y-111469229D01*
X193224755Y-111447744D01*
X193224752Y-111447743D01*
X193215918Y-111443242D01*
X193100000Y-111424882D01*
X192984082Y-111443242D01*
X192975248Y-111447743D01*
X192975245Y-111447744D01*
X192933079Y-111469229D01*
X192879511Y-111496523D01*
X192796523Y-111579511D01*
X192769229Y-111633079D01*
X192747744Y-111675245D01*
X192747743Y-111675248D01*
X192743242Y-111684082D01*
X192724882Y-111800000D01*
X176500000Y-111800000D01*
X176500000Y-110940000D01*
X172950000Y-110940000D01*
X172950000Y-116800000D01*
X171051000Y-116800000D01*
X171051000Y-110029643D01*
X194741615Y-110029643D01*
X194759975Y-110145561D01*
X194764476Y-110154395D01*
X194764477Y-110154398D01*
X194785962Y-110196564D01*
X194813256Y-110250132D01*
X194896244Y-110333120D01*
X194949812Y-110360414D01*
X194991978Y-110381899D01*
X194991981Y-110381900D01*
X195000815Y-110386401D01*
X195116733Y-110404761D01*
X195232651Y-110386401D01*
X195241485Y-110381900D01*
X195241488Y-110381899D01*
X195283654Y-110360414D01*
X195337222Y-110333120D01*
X195420210Y-110250132D01*
X195447504Y-110196564D01*
X195468989Y-110154398D01*
X195468990Y-110154395D01*
X195473491Y-110145561D01*
X195491851Y-110029643D01*
X195473491Y-109913725D01*
X195468990Y-109904891D01*
X195468989Y-109904888D01*
X195447504Y-109862722D01*
X195420210Y-109809154D01*
X195337222Y-109726166D01*
X195283654Y-109698872D01*
X195241488Y-109677387D01*
X195241485Y-109677386D01*
X195232651Y-109672885D01*
X195116733Y-109654525D01*
X195000815Y-109672885D01*
X194991981Y-109677386D01*
X194991978Y-109677387D01*
X194949812Y-109698872D01*
X194896244Y-109726166D01*
X194813256Y-109809154D01*
X194785962Y-109862722D01*
X194764477Y-109904888D01*
X194764476Y-109904891D01*
X194759975Y-109913725D01*
X194741615Y-110029643D01*
X171051000Y-110029643D01*
X171051000Y-105267399D01*
X175649712Y-105267399D01*
X175671194Y-105356537D01*
X175675083Y-105367832D01*
X175757629Y-105549382D01*
X175763576Y-105559724D01*
X175878968Y-105722397D01*
X175886761Y-105731425D01*
X176030831Y-105869342D01*
X176040196Y-105876738D01*
X176207741Y-105984921D01*
X176218345Y-105990417D01*
X176403312Y-106064961D01*
X176414770Y-106068355D01*
X176611928Y-106106857D01*
X176620791Y-106107934D01*
X176623500Y-106108000D01*
X176727885Y-106108000D01*
X176743124Y-106103525D01*
X176744329Y-106102135D01*
X176746000Y-106094452D01*
X176746000Y-106089885D01*
X177254000Y-106089885D01*
X177258475Y-106105124D01*
X177259865Y-106106329D01*
X177267548Y-106108000D01*
X177324832Y-106108000D01*
X177330808Y-106107715D01*
X177479494Y-106093529D01*
X177491228Y-106091270D01*
X177682599Y-106035128D01*
X177693675Y-106030698D01*
X177870978Y-105939381D01*
X177881024Y-105932931D01*
X178037857Y-105809738D01*
X178046506Y-105801501D01*
X178177212Y-105650877D01*
X178184147Y-105641153D01*
X178284010Y-105468533D01*
X178288984Y-105457669D01*
X178354407Y-105269273D01*
X178354648Y-105268284D01*
X178353180Y-105257992D01*
X178339615Y-105254000D01*
X177272115Y-105254000D01*
X177256876Y-105258475D01*
X177255671Y-105259865D01*
X177254000Y-105267548D01*
X177254000Y-106089885D01*
X176746000Y-106089885D01*
X176746000Y-105272115D01*
X176741525Y-105256876D01*
X176740135Y-105255671D01*
X176732452Y-105254000D01*
X175664598Y-105254000D01*
X175651067Y-105257973D01*
X175649712Y-105267399D01*
X171051000Y-105267399D01*
X171051000Y-104731716D01*
X175645352Y-104731716D01*
X175646820Y-104742008D01*
X175660385Y-104746000D01*
X178335402Y-104746000D01*
X178348933Y-104742027D01*
X178350288Y-104732601D01*
X178328806Y-104643463D01*
X178324917Y-104632168D01*
X178316756Y-104614219D01*
X189997500Y-104614219D01*
X189997501Y-105385780D01*
X190008422Y-105459979D01*
X190012739Y-105468771D01*
X190058951Y-105562893D01*
X190063810Y-105572790D01*
X190152753Y-105661578D01*
X190220245Y-105694569D01*
X190256439Y-105712261D01*
X190265661Y-105716769D01*
X190275336Y-105718180D01*
X190275338Y-105718181D01*
X190334693Y-105726840D01*
X190334697Y-105726840D01*
X190339219Y-105727500D01*
X190997480Y-105727500D01*
X191660780Y-105727499D01*
X191734979Y-105716578D01*
X191837688Y-105666150D01*
X191838442Y-105665780D01*
X191838443Y-105665779D01*
X191847790Y-105661190D01*
X191936578Y-105572247D01*
X191991769Y-105459339D01*
X192002500Y-105385781D01*
X192002499Y-104614220D01*
X191991578Y-104540021D01*
X191964583Y-104485038D01*
X191940780Y-104436558D01*
X191940779Y-104436557D01*
X191936190Y-104427210D01*
X191847247Y-104338422D01*
X191779755Y-104305431D01*
X191743124Y-104287525D01*
X191743123Y-104287525D01*
X191734339Y-104283231D01*
X191724664Y-104281820D01*
X191724662Y-104281819D01*
X191665307Y-104273160D01*
X191665303Y-104273160D01*
X191660781Y-104272500D01*
X191002520Y-104272500D01*
X190339220Y-104272501D01*
X190265021Y-104283422D01*
X190210038Y-104310417D01*
X190161558Y-104334220D01*
X190161557Y-104334221D01*
X190152210Y-104338810D01*
X190063422Y-104427753D01*
X190008231Y-104540661D01*
X190006820Y-104550336D01*
X190006819Y-104550338D01*
X189998490Y-104607435D01*
X189997500Y-104614219D01*
X178316756Y-104614219D01*
X178242371Y-104450618D01*
X178236424Y-104440276D01*
X178121032Y-104277603D01*
X178113239Y-104268575D01*
X178075363Y-104232317D01*
X187258171Y-104232317D01*
X187276531Y-104348235D01*
X187281032Y-104357069D01*
X187281033Y-104357072D01*
X187302518Y-104399238D01*
X187329812Y-104452806D01*
X187412800Y-104535794D01*
X187441345Y-104550338D01*
X187508534Y-104584573D01*
X187508537Y-104584574D01*
X187517371Y-104589075D01*
X187633289Y-104607435D01*
X187749207Y-104589075D01*
X187758041Y-104584574D01*
X187758044Y-104584573D01*
X187825233Y-104550338D01*
X187853778Y-104535794D01*
X187936766Y-104452806D01*
X187964060Y-104399238D01*
X187985545Y-104357072D01*
X187985546Y-104357069D01*
X187990047Y-104348235D01*
X188008407Y-104232317D01*
X187990047Y-104116399D01*
X187985546Y-104107565D01*
X187985545Y-104107562D01*
X187961626Y-104060619D01*
X187936766Y-104011828D01*
X187853778Y-103928840D01*
X187800210Y-103901546D01*
X187758044Y-103880061D01*
X187758041Y-103880060D01*
X187749207Y-103875559D01*
X187633289Y-103857199D01*
X187517371Y-103875559D01*
X187508537Y-103880060D01*
X187508534Y-103880061D01*
X187466368Y-103901546D01*
X187412800Y-103928840D01*
X187329812Y-104011828D01*
X187304952Y-104060619D01*
X187281033Y-104107562D01*
X187281032Y-104107565D01*
X187276531Y-104116399D01*
X187258171Y-104232317D01*
X178075363Y-104232317D01*
X177969169Y-104130658D01*
X177959804Y-104123262D01*
X177792259Y-104015079D01*
X177781658Y-104009585D01*
X177667907Y-103963741D01*
X177612201Y-103919725D01*
X177589135Y-103852580D01*
X177606032Y-103783624D01*
X177657528Y-103734749D01*
X177696658Y-103722218D01*
X177734979Y-103716578D01*
X177837688Y-103666150D01*
X177838442Y-103665780D01*
X177838443Y-103665779D01*
X177847790Y-103661190D01*
X177891979Y-103616924D01*
X177929222Y-103579616D01*
X177929222Y-103579615D01*
X177936578Y-103572247D01*
X177947707Y-103549480D01*
X186209176Y-103549480D01*
X186227536Y-103665398D01*
X186232037Y-103674232D01*
X186232038Y-103674235D01*
X186251414Y-103712261D01*
X186280817Y-103769969D01*
X186363805Y-103852957D01*
X186417000Y-103880061D01*
X186459539Y-103901736D01*
X186459542Y-103901737D01*
X186468376Y-103906238D01*
X186584294Y-103924598D01*
X186700212Y-103906238D01*
X186709046Y-103901737D01*
X186709049Y-103901736D01*
X186751588Y-103880061D01*
X186804783Y-103852957D01*
X186887771Y-103769969D01*
X186917174Y-103712261D01*
X186936550Y-103674235D01*
X186936551Y-103674232D01*
X186941052Y-103665398D01*
X186959412Y-103549480D01*
X186958628Y-103544532D01*
X188324882Y-103544532D01*
X188343242Y-103660450D01*
X188347743Y-103669284D01*
X188347744Y-103669287D01*
X188368648Y-103710312D01*
X188396523Y-103765021D01*
X188479511Y-103848009D01*
X188533079Y-103875303D01*
X188575245Y-103896788D01*
X188575248Y-103896789D01*
X188584082Y-103901290D01*
X188700000Y-103919650D01*
X188815918Y-103901290D01*
X188824752Y-103896789D01*
X188824755Y-103896788D01*
X188866921Y-103875303D01*
X188920489Y-103848009D01*
X189003477Y-103765021D01*
X189031352Y-103710312D01*
X189052256Y-103669287D01*
X189052257Y-103669284D01*
X189056758Y-103660450D01*
X189075118Y-103544532D01*
X189056758Y-103428614D01*
X189052257Y-103419780D01*
X189052256Y-103419777D01*
X189019846Y-103356169D01*
X189003477Y-103324043D01*
X188920489Y-103241055D01*
X188839101Y-103199586D01*
X188824755Y-103192276D01*
X188824752Y-103192275D01*
X188815918Y-103187774D01*
X188700000Y-103169414D01*
X188584082Y-103187774D01*
X188575248Y-103192275D01*
X188575245Y-103192276D01*
X188560899Y-103199586D01*
X188479511Y-103241055D01*
X188396523Y-103324043D01*
X188380154Y-103356169D01*
X188347744Y-103419777D01*
X188347743Y-103419780D01*
X188343242Y-103428614D01*
X188324882Y-103544532D01*
X186958628Y-103544532D01*
X186941052Y-103433562D01*
X186936551Y-103424728D01*
X186936550Y-103424725D01*
X186905048Y-103362900D01*
X186887771Y-103328991D01*
X186804783Y-103246003D01*
X186741064Y-103213537D01*
X186709049Y-103197224D01*
X186709046Y-103197223D01*
X186700212Y-103192722D01*
X186584294Y-103174362D01*
X186468376Y-103192722D01*
X186459542Y-103197223D01*
X186459539Y-103197224D01*
X186427524Y-103213537D01*
X186363805Y-103246003D01*
X186280817Y-103328991D01*
X186263540Y-103362900D01*
X186232038Y-103424725D01*
X186232037Y-103424728D01*
X186227536Y-103433562D01*
X186209176Y-103549480D01*
X177947707Y-103549480D01*
X177991769Y-103459339D01*
X177993181Y-103449662D01*
X178001840Y-103390307D01*
X178001840Y-103390303D01*
X178002500Y-103385781D01*
X178002500Y-103039610D01*
X189993619Y-103039610D01*
X189994859Y-103046826D01*
X189994859Y-103046828D01*
X190016190Y-103170965D01*
X190022348Y-103206802D01*
X190088768Y-103362900D01*
X190093101Y-103368788D01*
X190093104Y-103368793D01*
X190184976Y-103493633D01*
X190184980Y-103493637D01*
X190189318Y-103499532D01*
X190318603Y-103609367D01*
X190469687Y-103686515D01*
X190476797Y-103688255D01*
X190476800Y-103688256D01*
X190558706Y-103708298D01*
X190634468Y-103726837D01*
X190641815Y-103727293D01*
X190643215Y-103727380D01*
X190643228Y-103727380D01*
X190645156Y-103727500D01*
X191317483Y-103727500D01*
X191384435Y-103719694D01*
X191436231Y-103713656D01*
X191436234Y-103713655D01*
X191443501Y-103712808D01*
X191450376Y-103710312D01*
X191450378Y-103710312D01*
X191596086Y-103657422D01*
X191596087Y-103657422D01*
X191602962Y-103654926D01*
X191744832Y-103561912D01*
X191861498Y-103438757D01*
X191946703Y-103292065D01*
X191960028Y-103248072D01*
X191993755Y-103136712D01*
X191995877Y-103129706D01*
X192006381Y-102960390D01*
X191977652Y-102793198D01*
X191911232Y-102637100D01*
X191906899Y-102631212D01*
X191906896Y-102631207D01*
X191815024Y-102506367D01*
X191815020Y-102506363D01*
X191810682Y-102500468D01*
X191681397Y-102390633D01*
X191530313Y-102313485D01*
X191523203Y-102311745D01*
X191523200Y-102311744D01*
X191441294Y-102291702D01*
X191365532Y-102273163D01*
X191358185Y-102272707D01*
X191356785Y-102272620D01*
X191356772Y-102272620D01*
X191354844Y-102272500D01*
X190682517Y-102272500D01*
X190615565Y-102280306D01*
X190563769Y-102286344D01*
X190563766Y-102286345D01*
X190556499Y-102287192D01*
X190549624Y-102289688D01*
X190549622Y-102289688D01*
X190414295Y-102338810D01*
X190397038Y-102345074D01*
X190255168Y-102438088D01*
X190138502Y-102561243D01*
X190053297Y-102707935D01*
X190004123Y-102870294D01*
X189993619Y-103039610D01*
X178002500Y-103039610D01*
X178002499Y-102614220D01*
X177991578Y-102540021D01*
X177941531Y-102438088D01*
X177940780Y-102436558D01*
X177940779Y-102436557D01*
X177936190Y-102427210D01*
X177847247Y-102338422D01*
X177775758Y-102303477D01*
X177743124Y-102287525D01*
X177743123Y-102287525D01*
X177734339Y-102283231D01*
X177724664Y-102281820D01*
X177724662Y-102281819D01*
X177665307Y-102273160D01*
X177665303Y-102273160D01*
X177660781Y-102272500D01*
X177002520Y-102272500D01*
X176339220Y-102272501D01*
X176265021Y-102283422D01*
X176252259Y-102289688D01*
X176161558Y-102334220D01*
X176161557Y-102334221D01*
X176152210Y-102338810D01*
X176134293Y-102356758D01*
X176103800Y-102387305D01*
X176063422Y-102427753D01*
X176008231Y-102540661D01*
X176006820Y-102550336D01*
X176006819Y-102550338D01*
X176006004Y-102555929D01*
X175997500Y-102614219D01*
X175997501Y-103385780D01*
X176008422Y-103459979D01*
X176035417Y-103514962D01*
X176058951Y-103562893D01*
X176063810Y-103572790D01*
X176152753Y-103661578D01*
X176207330Y-103688256D01*
X176256439Y-103712261D01*
X176265661Y-103716769D01*
X176275336Y-103718180D01*
X176275338Y-103718181D01*
X176294409Y-103720963D01*
X176358929Y-103750590D01*
X176397188Y-103810395D01*
X176397041Y-103881392D01*
X176358534Y-103941038D01*
X176322187Y-103960664D01*
X176322978Y-103962641D01*
X176306325Y-103969302D01*
X176129022Y-104060619D01*
X176118976Y-104067069D01*
X175962143Y-104190262D01*
X175953494Y-104198499D01*
X175822788Y-104349123D01*
X175815853Y-104358847D01*
X175715990Y-104531467D01*
X175711016Y-104542331D01*
X175645593Y-104730727D01*
X175645352Y-104731716D01*
X171051000Y-104731716D01*
X171051000Y-102000000D01*
X194024882Y-102000000D01*
X194043242Y-102115918D01*
X194047743Y-102124752D01*
X194047744Y-102124755D01*
X194069229Y-102166921D01*
X194096523Y-102220489D01*
X194179511Y-102303477D01*
X194205689Y-102316815D01*
X194275245Y-102352256D01*
X194275248Y-102352257D01*
X194284082Y-102356758D01*
X194400000Y-102375118D01*
X194515918Y-102356758D01*
X194524752Y-102352257D01*
X194524755Y-102352256D01*
X194594311Y-102316815D01*
X194620489Y-102303477D01*
X194703477Y-102220489D01*
X194730771Y-102166921D01*
X194752256Y-102124755D01*
X194752257Y-102124752D01*
X194756758Y-102115918D01*
X194775118Y-102000000D01*
X194756758Y-101884082D01*
X194752257Y-101875248D01*
X194752256Y-101875245D01*
X194730771Y-101833079D01*
X194703477Y-101779511D01*
X194620489Y-101696523D01*
X194566921Y-101669229D01*
X194524755Y-101647744D01*
X194524752Y-101647743D01*
X194515918Y-101643242D01*
X194400000Y-101624882D01*
X194284082Y-101643242D01*
X194275248Y-101647743D01*
X194275245Y-101647744D01*
X194233079Y-101669229D01*
X194179511Y-101696523D01*
X194096523Y-101779511D01*
X194069229Y-101833079D01*
X194047744Y-101875245D01*
X194047743Y-101875248D01*
X194043242Y-101884082D01*
X194024882Y-102000000D01*
X171051000Y-102000000D01*
X171051000Y-98200000D01*
X187624882Y-98200000D01*
X187643242Y-98315918D01*
X187647743Y-98324752D01*
X187647744Y-98324755D01*
X187669229Y-98366921D01*
X187696523Y-98420489D01*
X187779511Y-98503477D01*
X187833079Y-98530771D01*
X187875245Y-98552256D01*
X187875248Y-98552257D01*
X187884082Y-98556758D01*
X188000000Y-98575118D01*
X188115918Y-98556758D01*
X188124752Y-98552257D01*
X188124755Y-98552256D01*
X188166921Y-98530771D01*
X188220489Y-98503477D01*
X188303477Y-98420489D01*
X188330771Y-98366921D01*
X188352256Y-98324755D01*
X188352257Y-98324752D01*
X188356758Y-98315918D01*
X188375118Y-98200000D01*
X188356758Y-98084082D01*
X188352257Y-98075248D01*
X188352256Y-98075245D01*
X188330771Y-98033079D01*
X188303477Y-97979511D01*
X188220489Y-97896523D01*
X188166921Y-97869229D01*
X188124755Y-97847744D01*
X188124752Y-97847743D01*
X188115918Y-97843242D01*
X188000000Y-97824882D01*
X187884082Y-97843242D01*
X187875248Y-97847743D01*
X187875245Y-97847744D01*
X187833079Y-97869229D01*
X187779511Y-97896523D01*
X187696523Y-97979511D01*
X187669229Y-98033079D01*
X187647744Y-98075245D01*
X187647743Y-98075248D01*
X187643242Y-98084082D01*
X187624882Y-98200000D01*
X171051000Y-98200000D01*
X171051000Y-97627000D01*
X171071002Y-97558879D01*
X171124658Y-97512386D01*
X171177000Y-97501000D01*
X196874000Y-97501000D01*
X196942121Y-97521002D01*
G37*
%TD.AperFunction*%
%TD*%
M02*
