  0
SECTION
  2
HEADER
  9
$ACADVER
  1
AC1014
  9
$HANDSEED
  5
FFFF
  9
$MEASUREMENT
 70
     1
  0
ENDSEC
  0
SECTION
  2
TABLES
  0
TABLE
  2
VPORT
  5
8
330
0
100
AcDbSymbolTable
 70
     4
  0
VPORT
  5
2E
330
8
100
AcDbSymbolTableRecord
100
AcDbViewportTableRecord
  2
*ACTIVE
 70
     0
 10
0.0
 20
0.0
 11
1.0
 21
1.0
 12
210.0
 22
148.5
 13
0.0
 23
0.0
 14
10.0
 24
10.0
 15
10.0
 25
10.0
 16
0.0
 26
0.0
 36
1.0
 17
0.0
 27
0.0
 37
0.0
 40
341.0
 41
1.24
 42
50.0
 43
0.0
 44
0.0
 50
0.0
 51
0.0
 71
     0
 72
   100
 73
     1
 74
     3
 75
     0
 76
     0
 77
     0
 78
     0
  0
ENDTAB
  0
TABLE
  2
LTYPE
  5
5
330
0
100
AcDbSymbolTable
 70
     1
  0
LTYPE
  5
14
330
5
100
AcDbSymbolTableRecord
100
AcDbLinetypeTableRecord
  2
BYBLOCK
 70
     0
  3

 72
    65
 73
     0
 40
0.0
  0
LTYPE
  5
15
330
5
100
AcDbSymbolTableRecord
100
AcDbLinetypeTableRecord
  2
BYLAYER
 70
     0
  3

 72
    65
 73
     0
 40
0.0
  0
LTYPE
  5
16
330
5
100
AcDbSymbolTableRecord
100
AcDbLinetypeTableRecord
  2
CONTINUOUS
 70
     0
  3
Solid line
 72
    65
 73
     0
 40
0.0
  0
ENDTAB
  0
TABLE
  2
LAYER
  5
2
100
AcDbSymbolTable
 70
1
  0
LAYER
  5
50
100
AcDbSymbolTableRecord
100
AcDbLayerTableRecord
  2
0
 70
0
  6
CONTINUOUS
  0
ENDTAB
  0
TABLE
  2
STYLE
  5
3
330
0
100
AcDbSymbolTable
 70
     1
  0
STYLE
  5
11
330
3
100
AcDbSymbolTableRecord
100
AcDbTextStyleTableRecord
  2
STANDARD
 70
     0
 40
0.0
 41
1.0
 50
0.0
 71
     0
 42
2.5
  3
txt
  4

  0
ENDTAB
  0
TABLE
  2
VIEW
  5
6
330
0
100
AcDbSymbolTable
 70
     0
  0
ENDTAB
  0
TABLE
  2
UCS
  5
7
330
0
100
AcDbSymbolTable
 70
     0
  0
ENDTAB
  0
TABLE
  2
APPID
  5
9
330
0
100
AcDbSymbolTable
 70
     2
  0
APPID
  5
12
330
9
100
AcDbSymbolTableRecord
100
AcDbRegAppTableRecord
  2
ACAD
 70
     0
  0
ENDTAB
  0
TABLE
  2
DIMSTYLE
  5
A
330
0
100
AcDbSymbolTable
 70
     1
  0
DIMSTYLE
105
27
330
A
100
AcDbSymbolTableRecord
100
AcDbDimStyleTableRecord
  2
ISO-25
 70
     0
  3

  4

  5

  6

  7

 40
1.0
 41
2.5
 42
0.625
 43
3.75
 44
1.25
 45
0.0
 46
0.0
 47
0.0
 48
0.0
140
2.5
141
2.5
142
0.0
143
0.03937007874016
144
1.0
145
0.0
146
1.0
147
0.625
 71
     0
 72
     0
 73
     0
 74
     0
 75
     0
 76
     0
 77
     1
 78
     8
170
     0
171
     3
172
     1
173
     0
174
     0
175
     0
176
     0
177
     0
178
     0
270
     2
271
     2
272
     2
273
     2
274
     3
340
11
275
     0
280
     0
281
     0
282
     0
283
     0
284
     8
285
     0
286
     0
287
     3
288
     0
  0
ENDTAB
  0
TABLE
  2
BLOCK_RECORD
  5
1
330
0
100
AcDbSymbolTable
 70
     1
  0
BLOCK_RECORD
  5
1F
330
1
100
AcDbSymbolTableRecord
100
AcDbBlockTableRecord
  2
*MODEL_SPACE
  0
BLOCK_RECORD
  5
1B
330
1
100
AcDbSymbolTableRecord
100
AcDbBlockTableRecord
  2
*PAPER_SPACE
  0
ENDTAB
  0
ENDSEC
  0
SECTION
  2
BLOCKS
  0
BLOCK
  5
20
330
1F
100
AcDbEntity
  8
0
100
AcDbBlockBegin
  2
*MODEL_SPACE
 70
     0
 10
0.0
 20
0.0
 30
0.0
  3
*MODEL_SPACE
  1

  0
ENDBLK
  5
21
330
1F
100
AcDbEntity
  8
0
100
AcDbBlockEnd
  0
BLOCK
  5
1C
330
1B
100
AcDbEntity
 67
     1
  8
0
100
AcDbBlockBegin
  2
*PAPER_SPACE
  1

  0
ENDBLK
  5
1D
330
1B
100
AcDbEntity
 67
     1
  8
0
100
AcDbBlockEnd
  0
ENDSEC
  0
SECTION
  2
ENTITIES
  0
LWPOLYLINE
  5
100
100
AcDbEntity
  8
0
 62
7
100
AcDbPolyline
 90
4
 70
1
 10
501.738998
 20
-470.569789
 30
0.0
 10
807.881021
 20
-470.569789
 30
0.0
 10
807.881021
 20
-561.278537
 30
0.0
 10
501.738998
 20
-561.278537
 30
0.0
  0
LWPOLYLINE
  5
101
100
AcDbEntity
  8
0
 62
7
100
AcDbPolyline
 90
4
 70
1
 10
28.346484
 20
-28.344234
 30
0.0
 10
813.550318
 20
-28.344234
 30
0.0
 10
813.550318
 20
-566.947833
 30
0.0
 10
28.346484
 20
-566.947833
 30
0.0
  0
LWPOLYLINE
  5
102
100
AcDbEntity
  8
0
 62
7
100
AcDbPolyline
 90
4
 70
1
 10
34.015780
 20
-34.013530
 30
0.0
 10
807.881021
 20
-34.013530
 30
0.0
 10
807.881021
 20
-561.278537
 30
0.0
 10
34.015780
 20
-561.278537
 30
0.0
  0
LWPOLYLINE
  5
103
100
AcDbEntity
  8
0
 62
7
100
AcDbPolyline
 90
2
 70
0
 10
170.078902
 20
-34.013530
 30
0.0
 10
170.078902
 20
-28.344234
 30
0.0
  0
LWPOLYLINE
  5
104
100
AcDbEntity
  8
0
 62
7
100
AcDbPolyline
 90
2
 70
0
 10
311.811321
 20
-34.013530
 30
0.0
 10
311.811321
 20
-28.344234
 30
0.0
  0
LWPOLYLINE
  5
105
100
AcDbEntity
  8
0
 62
7
100
AcDbPolyline
 90
2
 70
0
 10
453.543739
 20
-34.013530
 30
0.0
 10
453.543739
 20
-28.344234
 30
0.0
  0
LWPOLYLINE
  5
106
100
AcDbEntity
  8
0
 62
7
100
AcDbPolyline
 90
2
 70
0
 10
595.276157
 20
-34.013530
 30
0.0
 10
595.276157
 20
-28.344234
 30
0.0
  0
LWPOLYLINE
  5
107
100
AcDbEntity
  8
0
 62
7
100
AcDbPolyline
 90
2
 70
0
 10
737.008576
 20
-34.013530
 30
0.0
 10
737.008576
 20
-28.344234
 30
0.0
  0
LWPOLYLINE
  5
108
100
AcDbEntity
  8
0
 62
7
100
AcDbPolyline
 90
2
 70
0
 10
102.232943
 20
-32.845925
 30
0.0
 10
100.127204
 20
-32.845925
 30
0.0
  0
LWPOLYLINE
  5
109
100
AcDbEntity
  8
0
 62
7
100
AcDbPolyline
 90
5
 70
0
 10
101.180072
 20
-32.845925
 30
0.0
 10
101.180072
 20
-29.160882
 30
0.0
 10
100.829117
 20
-29.687316
 30
0.0
 10
100.478159
 20
-30.038273
 30
0.0
 10
100.127204
 20
-30.213750
 30
0.0
  0
LWPOLYLINE
  5
10a
100
AcDbEntity
  8
0
 62
7
100
AcDbPolyline
 90
11
 70
0
 10
241.859623
 20
-29.511837
 30
0.0
 10
242.035099
 20
-29.336361
 30
0.0
 10
242.386057
 20
-29.160882
 30
0.0
 10
243.263448
 20
-29.160882
 30
0.0
 10
243.614403
 20
-29.336361
 30
0.0
 10
243.789882
 20
-29.511837
 30
0.0
 10
243.965361
 20
-29.862795
 30
0.0
 10
243.965361
 20
-30.213750
 30
0.0
 10
243.789882
 20
-30.740186
 30
0.0
 10
241.684144
 20
-32.845925
 30
0.0
 10
243.965361
 20
-32.845925
 30
0.0
  0
LWPOLYLINE
  5
10b
100
AcDbEntity
  8
0
 62
7
100
AcDbPolyline
 90
14
 70
0
 10
383.416562
 20
-29.160882
 30
0.0
 10
385.697780
 20
-29.160882
 30
0.0
 10
384.469430
 20
-30.564707
 30
0.0
 10
384.995867
 20
-30.564707
 30
0.0
 10
385.346822
 20
-30.740186
 30
0.0
 10
385.522301
 20
-30.915662
 30
0.0
 10
385.697780
 20
-31.266620
 30
0.0
 10
385.697780
 20
-32.144012
 30
0.0
 10
385.522301
 20
-32.494967
 30
0.0
 10
385.346822
 20
-32.670446
 30
0.0
 10
384.995867
 20
-32.845925
 30
0.0
 10
383.942996
 20
-32.845925
 30
0.0
 10
383.592041
 20
-32.670446
 30
0.0
 10
383.416562
 20
-32.494967
 30
0.0
  0
LWPOLYLINE
  5
10c
100
AcDbEntity
  8
0
 62
7
100
AcDbPolyline
 90
2
 70
0
 10
527.079240
 20
-30.389228
 30
0.0
 10
527.079240
 20
-32.845925
 30
0.0
  0
LWPOLYLINE
  5
10d
100
AcDbEntity
  8
0
 62
7
100
AcDbPolyline
 90
3
 70
0
 10
526.201849
 20
-28.985403
 30
0.0
 10
525.324460
 20
-31.617575
 30
0.0
 10
527.605674
 20
-31.617575
 30
0.0
  0
LWPOLYLINE
  5
10e
100
AcDbEntity
  8
0
 62
7
100
AcDbPolyline
 90
16
 70
0
 10
668.987138
 20
-29.160882
 30
0.0
 10
667.232354
 20
-29.160882
 30
0.0
 10
667.056878
 20
-30.915662
 30
0.0
 10
667.232354
 20
-30.740186
 30
0.0
 10
667.583312
 20
-30.564707
 30
0.0
 10
668.460704
 20
-30.564707
 30
0.0
 10
668.811659
 20
-30.740186
 30
0.0
 10
668.987138
 20
-30.915662
 30
0.0
 10
669.162616
 20
-31.266620
 30
0.0
 10
669.162616
 20
-32.144012
 30
0.0
 10
668.987138
 20
-32.494967
 30
0.0
 10
668.811659
 20
-32.670446
 30
0.0
 10
668.460704
 20
-32.845925
 30
0.0
 10
667.583312
 20
-32.845925
 30
0.0
 10
667.232354
 20
-32.670446
 30
0.0
 10
667.056878
 20
-32.494967
 30
0.0
  0
LWPOLYLINE
  5
10f
100
AcDbEntity
  8
0
 62
7
100
AcDbPolyline
 90
22
 70
0
 10
810.544077
 20
-29.160882
 30
0.0
 10
809.842164
 20
-29.160882
 30
0.0
 10
809.491209
 20
-29.336361
 30
0.0
 10
809.315730
 20
-29.511837
 30
0.0
 10
808.964773
 20
-30.038273
 30
0.0
 10
808.789297
 20
-30.740186
 30
0.0
 10
808.789297
 20
-32.144012
 30
0.0
 10
808.964773
 20
-32.494967
 30
0.0
 10
809.140252
 20
-32.670446
 30
0.0
 10
809.491209
 20
-32.845925
 30
0.0
 10
810.193122
 20
-32.845925
 30
0.0
 10
810.544077
 20
-32.670446
 30
0.0
 10
810.719556
 20
-32.494967
 30
0.0
 10
810.895035
 20
-32.144012
 30
0.0
 10
810.895035
 20
-31.266620
 30
0.0
 10
810.719556
 20
-30.915662
 30
0.0
 10
810.544077
 20
-30.740186
 30
0.0
 10
810.193122
 20
-30.564707
 30
0.0
 10
809.491209
 20
-30.564707
 30
0.0
 10
809.140252
 20
-30.740186
 30
0.0
 10
808.964773
 20
-30.915662
 30
0.0
 10
808.789297
 20
-31.266620
 30
0.0
  0
LWPOLYLINE
  5
110
100
AcDbEntity
  8
0
 62
7
100
AcDbPolyline
 90
2
 70
0
 10
170.078902
 20
-561.278537
 30
0.0
 10
170.078902
 20
-566.947833
 30
0.0
  0
LWPOLYLINE
  5
111
100
AcDbEntity
  8
0
 62
7
100
AcDbPolyline
 90
2
 70
0
 10
311.811321
 20
-561.278537
 30
0.0
 10
311.811321
 20
-566.947833
 30
0.0
  0
LWPOLYLINE
  5
112
100
AcDbEntity
  8
0
 62
7
100
AcDbPolyline
 90
2
 70
0
 10
453.543739
 20
-561.278537
 30
0.0
 10
453.543739
 20
-566.947833
 30
0.0
  0
LWPOLYLINE
  5
113
100
AcDbEntity
  8
0
 62
7
100
AcDbPolyline
 90
2
 70
0
 10
595.276157
 20
-561.278537
 30
0.0
 10
595.276157
 20
-566.947833
 30
0.0
  0
LWPOLYLINE
  5
114
100
AcDbEntity
  8
0
 62
7
100
AcDbPolyline
 90
2
 70
0
 10
737.008576
 20
-561.278537
 30
0.0
 10
737.008576
 20
-566.947833
 30
0.0
  0
LWPOLYLINE
  5
115
100
AcDbEntity
  8
0
 62
7
100
AcDbPolyline
 90
2
 70
0
 10
102.232943
 20
-565.780227
 30
0.0
 10
100.127204
 20
-565.780227
 30
0.0
  0
LWPOLYLINE
  5
116
100
AcDbEntity
  8
0
 62
7
100
AcDbPolyline
 90
5
 70
0
 10
101.180072
 20
-565.780227
 30
0.0
 10
101.180072
 20
-562.095185
 30
0.0
 10
100.829117
 20
-562.621618
 30
0.0
 10
100.478159
 20
-562.972576
 30
0.0
 10
100.127204
 20
-563.148052
 30
0.0
  0
LWPOLYLINE
  5
117
100
AcDbEntity
  8
0
 62
7
100
AcDbPolyline
 90
11
 70
0
 10
241.859623
 20
-562.446140
 30
0.0
 10
242.035099
 20
-562.270663
 30
0.0
 10
242.386057
 20
-562.095185
 30
0.0
 10
243.263448
 20
-562.095185
 30
0.0
 10
243.614403
 20
-562.270663
 30
0.0
 10
243.789882
 20
-562.446140
 30
0.0
 10
243.965361
 20
-562.797097
 30
0.0
 10
243.965361
 20
-563.148052
 30
0.0
 10
243.789882
 20
-563.674489
 30
0.0
 10
241.684144
 20
-565.780227
 30
0.0
 10
243.965361
 20
-565.780227
 30
0.0
  0
LWPOLYLINE
  5
118
100
AcDbEntity
  8
0
 62
7
100
AcDbPolyline
 90
14
 70
0
 10
383.416562
 20
-562.095185
 30
0.0
 10
385.697780
 20
-562.095185
 30
0.0
 10
384.469430
 20
-563.499010
 30
0.0
 10
384.995867
 20
-563.499010
 30
0.0
 10
385.346822
 20
-563.674489
 30
0.0
 10
385.522301
 20
-563.849965
 30
0.0
 10
385.697780
 20
-564.200923
 30
0.0
 10
385.697780
 20
-565.078315
 30
0.0
 10
385.522301
 20
-565.429270
 30
0.0
 10
385.346822
 20
-565.604749
 30
0.0
 10
384.995867
 20
-565.780227
 30
0.0
 10
383.942996
 20
-565.780227
 30
0.0
 10
383.592041
 20
-565.604749
 30
0.0
 10
383.416562
 20
-565.429270
 30
0.0
  0
LWPOLYLINE
  5
119
100
AcDbEntity
  8
0
 62
7
100
AcDbPolyline
 90
2
 70
0
 10
527.079240
 20
-563.323531
 30
0.0
 10
527.079240
 20
-565.780227
 30
0.0
  0
LWPOLYLINE
  5
11a
100
AcDbEntity
  8
0
 62
7
100
AcDbPolyline
 90
3
 70
0
 10
526.201849
 20
-561.919706
 30
0.0
 10
525.324460
 20
-564.551878
 30
0.0
 10
527.605674
 20
-564.551878
 30
0.0
  0
LWPOLYLINE
  5
11b
100
AcDbEntity
  8
0
 62
7
100
AcDbPolyline
 90
16
 70
0
 10
668.987138
 20
-562.095185
 30
0.0
 10
667.232354
 20
-562.095185
 30
0.0
 10
667.056878
 20
-563.849965
 30
0.0
 10
667.232354
 20
-563.674489
 30
0.0
 10
667.583312
 20
-563.499010
 30
0.0
 10
668.460704
 20
-563.499010
 30
0.0
 10
668.811659
 20
-563.674489
 30
0.0
 10
668.987138
 20
-563.849965
 30
0.0
 10
669.162616
 20
-564.200923
 30
0.0
 10
669.162616
 20
-565.078315
 30
0.0
 10
668.987138
 20
-565.429270
 30
0.0
 10
668.811659
 20
-565.604749
 30
0.0
 10
668.460704
 20
-565.780227
 30
0.0
 10
667.583312
 20
-565.780227
 30
0.0
 10
667.232354
 20
-565.604749
 30
0.0
 10
667.056878
 20
-565.429270
 30
0.0
  0
LWPOLYLINE
  5
11c
100
AcDbEntity
  8
0
 62
7
100
AcDbPolyline
 90
22
 70
0
 10
810.544077
 20
-562.095185
 30
0.0
 10
809.842164
 20
-562.095185
 30
0.0
 10
809.491209
 20
-562.270663
 30
0.0
 10
809.315730
 20
-562.446140
 30
0.0
 10
808.964773
 20
-562.972576
 30
0.0
 10
808.789297
 20
-563.674489
 30
0.0
 10
808.789297
 20
-565.078315
 30
0.0
 10
808.964773
 20
-565.429270
 30
0.0
 10
809.140252
 20
-565.604749
 30
0.0
 10
809.491209
 20
-565.780227
 30
0.0
 10
810.193122
 20
-565.780227
 30
0.0
 10
810.544077
 20
-565.604749
 30
0.0
 10
810.719556
 20
-565.429270
 30
0.0
 10
810.895035
 20
-565.078315
 30
0.0
 10
810.895035
 20
-564.200923
 30
0.0
 10
810.719556
 20
-563.849965
 30
0.0
 10
810.544077
 20
-563.674489
 30
0.0
 10
810.193122
 20
-563.499010
 30
0.0
 10
809.491209
 20
-563.499010
 30
0.0
 10
809.140252
 20
-563.674489
 30
0.0
 10
808.964773
 20
-563.849965
 30
0.0
 10
808.789297
 20
-564.200923
 30
0.0
  0
LWPOLYLINE
  5
11d
100
AcDbEntity
  8
0
 62
7
100
AcDbPolyline
 90
2
 70
0
 10
28.346484
 20
-170.076652
 30
0.0
 10
34.015780
 20
-170.076652
 30
0.0
  0
LWPOLYLINE
  5
11e
100
AcDbEntity
  8
0
 62
7
100
AcDbPolyline
 90
2
 70
0
 10
28.346484
 20
-311.809071
 30
0.0
 10
34.015780
 20
-311.809071
 30
0.0
  0
LWPOLYLINE
  5
11f
100
AcDbEntity
  8
0
 62
7
100
AcDbPolyline
 90
2
 70
0
 10
28.346484
 20
-453.541489
 30
0.0
 10
34.015780
 20
-453.541489
 30
0.0
  0
LWPOLYLINE
  5
120
100
AcDbEntity
  8
0
 62
7
100
AcDbPolyline
 90
2
 70
0
 10
30.303740
 20
-99.824615
 30
0.0
 10
32.058521
 20
-99.824615
 30
0.0
  0
LWPOLYLINE
  5
121
100
AcDbEntity
  8
0
 62
7
100
AcDbPolyline
 90
3
 70
0
 10
29.952783
 20
-100.877486
 30
0.0
 10
31.181132
 20
-97.192443
 30
0.0
 10
32.409479
 20
-100.877486
 30
0.0
  0
LWPOLYLINE
  5
122
100
AcDbEntity
  8
0
 62
7
100
AcDbPolyline
 90
19
 70
0
 10
31.444349
 20
-240.679642
 30
0.0
 10
31.970783
 20
-240.855121
 30
0.0
 10
32.146262
 20
-241.030599
 30
0.0
 10
32.321738
 20
-241.381554
 30
0.0
 10
32.321738
 20
-241.907991
 30
0.0
 10
32.146262
 20
-242.258946
 30
0.0
 10
31.970783
 20
-242.434425
 30
0.0
 10
31.619825
 20
-242.609904
 30
0.0
 10
30.215999
 20
-242.609904
 30
0.0
 10
30.215999
 20
-238.924861
 30
0.0
 10
31.444349
 20
-238.924861
 30
0.0
 10
31.795304
 20
-239.100340
 30
0.0
 10
31.970783
 20
-239.275816
 30
0.0
 10
32.146262
 20
-239.626774
 30
0.0
 10
32.146262
 20
-239.977729
 30
0.0
 10
31.970783
 20
-240.328687
 30
0.0
 10
31.795304
 20
-240.504166
 30
0.0
 10
31.444349
 20
-240.679642
 30
0.0
 10
30.215999
 20
-240.679642
 30
0.0
  0
LWPOLYLINE
  5
123
100
AcDbEntity
  8
0
 62
7
100
AcDbPolyline
 90
16
 70
0
 10
32.321738
 20
-383.991365
 30
0.0
 10
32.146262
 20
-384.166843
 30
0.0
 10
31.619825
 20
-384.342322
 30
0.0
 10
31.268870
 20
-384.342322
 30
0.0
 10
30.742436
 20
-384.166843
 30
0.0
 10
30.391478
 20
-383.815886
 30
0.0
 10
30.215999
 20
-383.464931
 30
0.0
 10
30.040523
 20
-382.763018
 30
0.0
 10
30.040523
 20
-382.236584
 30
0.0
 10
30.215999
 20
-381.534671
 30
0.0
 10
30.391478
 20
-381.183713
 30
0.0
 10
30.742436
 20
-380.832758
 30
0.0
 10
31.268870
 20
-380.657280
 30
0.0
 10
31.619825
 20
-380.657280
 30
0.0
 10
32.146262
 20
-380.832758
 30
0.0
 10
32.321738
 20
-381.008234
 30
0.0
  0
LWPOLYLINE
  5
124
100
AcDbEntity
  8
0
 62
7
100
AcDbPolyline
 90
12
 70
1
 10
30.215999
 20
-526.074741
 30
0.0
 10
30.215999
 20
-522.389698
 30
0.0
 10
31.093391
 20
-522.389698
 30
0.0
 10
31.619825
 20
-522.565177
 30
0.0
 10
31.970783
 20
-522.916132
 30
0.0
 10
32.146262
 20
-523.267090
 30
0.0
 10
32.321738
 20
-523.969002
 30
0.0
 10
32.321738
 20
-524.495436
 30
0.0
 10
32.146262
 20
-525.197349
 30
0.0
 10
31.970783
 20
-525.548304
 30
0.0
 10
31.619825
 20
-525.899262
 30
0.0
 10
31.093391
 20
-526.074741
 30
0.0
  0
LWPOLYLINE
  5
125
100
AcDbEntity
  8
0
 62
7
100
AcDbPolyline
 90
2
 70
0
 10
813.550318
 20
-170.076652
 30
0.0
 10
807.881021
 20
-170.076652
 30
0.0
  0
LWPOLYLINE
  5
126
100
AcDbEntity
  8
0
 62
7
100
AcDbPolyline
 90
2
 70
0
 10
813.550318
 20
-311.809071
 30
0.0
 10
807.881021
 20
-311.809071
 30
0.0
  0
LWPOLYLINE
  5
127
100
AcDbEntity
  8
0
 62
7
100
AcDbPolyline
 90
2
 70
0
 10
813.550318
 20
-453.541489
 30
0.0
 10
807.881021
 20
-453.541489
 30
0.0
  0
LWPOLYLINE
  5
128
100
AcDbEntity
  8
0
 62
7
100
AcDbPolyline
 90
2
 70
0
 10
809.838278
 20
-99.824615
 30
0.0
 10
811.593059
 20
-99.824615
 30
0.0
  0
LWPOLYLINE
  5
129
100
AcDbEntity
  8
0
 62
7
100
AcDbPolyline
 90
3
 70
0
 10
809.487320
 20
-100.877486
 30
0.0
 10
810.715670
 20
-97.192443
 30
0.0
 10
811.944016
 20
-100.877486
 30
0.0
  0
LWPOLYLINE
  5
12a
100
AcDbEntity
  8
0
 62
7
100
AcDbPolyline
 90
19
 70
0
 10
810.978887
 20
-240.679642
 30
0.0
 10
811.505321
 20
-240.855121
 30
0.0
 10
811.680799
 20
-241.030599
 30
0.0
 10
811.856276
 20
-241.381554
 30
0.0
 10
811.856276
 20
-241.907991
 30
0.0
 10
811.680799
 20
-242.258946
 30
0.0
 10
811.505321
 20
-242.434425
 30
0.0
 10
811.154363
 20
-242.609904
 30
0.0
 10
809.750537
 20
-242.609904
 30
0.0
 10
809.750537
 20
-238.924861
 30
0.0
 10
810.978887
 20
-238.924861
 30
0.0
 10
811.329842
 20
-239.100340
 30
0.0
 10
811.505321
 20
-239.275816
 30
0.0
 10
811.680799
 20
-239.626774
 30
0.0
 10
811.680799
 20
-239.977729
 30
0.0
 10
811.505321
 20
-240.328687
 30
0.0
 10
811.329842
 20
-240.504166
 30
0.0
 10
810.978887
 20
-240.679642
 30
0.0
 10
809.750537
 20
-240.679642
 30
0.0
  0
LWPOLYLINE
  5
12b
100
AcDbEntity
  8
0
 62
7
100
AcDbPolyline
 90
16
 70
0
 10
811.856276
 20
-383.991365
 30
0.0
 10
811.680799
 20
-384.166843
 30
0.0
 10
811.154363
 20
-384.342322
 30
0.0
 10
810.803408
 20
-384.342322
 30
0.0
 10
810.276974
 20
-384.166843
 30
0.0
 10
809.926016
 20
-383.815886
 30
0.0
 10
809.750537
 20
-383.464931
 30
0.0
 10
809.575061
 20
-382.763018
 30
0.0
 10
809.575061
 20
-382.236584
 30
0.0
 10
809.750537
 20
-381.534671
 30
0.0
 10
809.926016
 20
-381.183713
 30
0.0
 10
810.276974
 20
-380.832758
 30
0.0
 10
810.803408
 20
-380.657280
 30
0.0
 10
811.154363
 20
-380.657280
 30
0.0
 10
811.680799
 20
-380.832758
 30
0.0
 10
811.856276
 20
-381.008234
 30
0.0
  0
LWPOLYLINE
  5
12c
100
AcDbEntity
  8
0
 62
7
100
AcDbPolyline
 90
12
 70
1
 10
809.750537
 20
-526.074741
 30
0.0
 10
809.750537
 20
-522.389698
 30
0.0
 10
810.627929
 20
-522.389698
 30
0.0
 10
811.154363
 20
-522.565177
 30
0.0
 10
811.505321
 20
-522.916132
 30
0.0
 10
811.680799
 20
-523.267090
 30
0.0
 10
811.856276
 20
-523.969002
 30
0.0
 10
811.856276
 20
-524.495436
 30
0.0
 10
811.680799
 20
-525.197349
 30
0.0
 10
811.505321
 20
-525.548304
 30
0.0
 10
811.154363
 20
-525.899262
 30
0.0
 10
810.627929
 20
-526.074741
 30
0.0
  0
LWPOLYLINE
  5
12d
100
AcDbEntity
  8
0
 62
7
100
AcDbPolyline
 90
12
 70
1
 10
568.160881
 20
-549.312270
 30
0.0
 10
568.160881
 20
-545.060297
 30
0.0
 10
569.173255
 20
-545.060297
 30
0.0
 10
569.780681
 20
-545.262773
 30
0.0
 10
570.185630
 20
-545.667723
 30
0.0
 10
570.388106
 20
-546.072672
 30
0.0
 10
570.590580
 20
-546.882571
 30
0.0
 10
570.590580
 20
-547.489996
 30
0.0
 10
570.388106
 20
-548.299895
 30
0.0
 10
570.185630
 20
-548.704844
 30
0.0
 10
569.780681
 20
-549.109794
 30
0.0
 10
569.173255
 20
-549.312270
 30
0.0
  0
LWPOLYLINE
  5
12e
100
AcDbEntity
  8
0
 62
7
100
AcDbPolyline
 90
6
 70
0
 10
574.235130
 20
-549.312270
 30
0.0
 10
574.235130
 20
-547.085047
 30
0.0
 10
574.032653
 20
-546.680097
 30
0.0
 10
573.627704
 20
-546.477621
 30
0.0
 10
572.817805
 20
-546.477621
 30
0.0
 10
572.412853
 20
-546.680097
 30
0.0
  0
LWPOLYLINE
  5
12f
100
AcDbEntity
  8
0
 62
7
100
AcDbPolyline
 90
10
 70
0
 10
574.235130
 20
-549.109794
 30
0.0
 10
573.830177
 20
-549.312270
 30
0.0
 10
572.817805
 20
-549.312270
 30
0.0
 10
572.412853
 20
-549.109794
 30
0.0
 10
572.210380
 20
-548.704844
 30
0.0
 10
572.210380
 20
-548.299895
 30
0.0
 10
572.412853
 20
-547.894946
 30
0.0
 10
572.817805
 20
-547.692469
 30
0.0
 10
573.830177
 20
-547.692469
 30
0.0
 10
574.235130
 20
-547.489996
 30
0.0
  0
LWPOLYLINE
  5
130
100
AcDbEntity
  8
0
 62
7
100
AcDbPolyline
 90
2
 70
0
 10
575.652454
 20
-546.477621
 30
0.0
 10
577.272251
 20
-546.477621
 30
0.0
  0
LWPOLYLINE
  5
131
100
AcDbEntity
  8
0
 62
7
100
AcDbPolyline
 90
5
 70
0
 10
576.259876
 20
-545.060297
 30
0.0
 10
576.259876
 20
-548.704844
 30
0.0
 10
576.462352
 20
-549.109794
 30
0.0
 10
576.867302
 20
-549.312270
 30
0.0
 10
577.272251
 20
-549.312270
 30
0.0
  0
LWPOLYLINE
  5
132
100
AcDbEntity
  8
0
 62
7
100
AcDbPolyline
 90
13
 70
0
 10
580.309376
 20
-549.109794
 30
0.0
 10
579.904426
 20
-549.312270
 30
0.0
 10
579.094525
 20
-549.312270
 30
0.0
 10
578.689575
 20
-549.109794
 30
0.0
 10
578.487102
 20
-548.704844
 30
0.0
 10
578.487102
 20
-547.085047
 30
0.0
 10
578.689575
 20
-546.680097
 30
0.0
 10
579.094525
 20
-546.477621
 30
0.0
 10
579.904426
 20
-546.477621
 30
0.0
 10
580.309376
 20
-546.680097
 30
0.0
 10
580.511849
 20
-547.085047
 30
0.0
 10
580.511849
 20
-547.489996
 30
0.0
 10
578.487102
 20
-547.894946
 30
0.0
  0
LWPOLYLINE
  5
133
100
AcDbEntity
  8
0
 62
7
100
AcDbPolyline
 90
6
 70
0
 10
582.334122
 20
-548.907320
 30
0.0
 10
582.536599
 20
-549.109794
 30
0.0
 10
582.334122
 20
-549.312270
 30
0.0
 10
582.131649
 20
-549.109794
 30
0.0
 10
582.334122
 20
-548.907320
 30
0.0
 10
582.334122
 20
-549.312270
 30
0.0
  0
LWPOLYLINE
  5
134
100
AcDbEntity
  8
0
 62
7
100
AcDbPolyline
 90
6
 70
0
 10
582.334122
 20
-546.680097
 30
0.0
 10
582.536599
 20
-546.882571
 30
0.0
 10
582.334122
 20
-547.085047
 30
0.0
 10
582.131649
 20
-546.882571
 30
0.0
 10
582.334122
 20
-546.680097
 30
0.0
 10
582.334122
 20
-547.085047
 30
0.0
  0
LWPOLYLINE
  5
135
100
AcDbEntity
  8
0
 62
7
100
AcDbPolyline
 90
2
 70
0
 10
501.738998
 20
-551.357267
 30
0.0
 10
807.881021
 20
-551.357267
 30
0.0
  0
LWPOLYLINE
  5
136
100
AcDbEntity
  8
0
 62
7
100
AcDbPolyline
 90
2
 70
0
 10
505.798616
 20
-557.249285
 30
0.0
 10
505.798616
 20
-552.997313
 30
0.0
  0
LWPOLYLINE
  5
137
100
AcDbEntity
  8
0
 62
7
100
AcDbPolyline
 90
2
 70
0
 10
508.228316
 20
-557.249285
 30
0.0
 10
506.406042
 20
-554.819586
 30
0.0
  0
LWPOLYLINE
  5
138
100
AcDbEntity
  8
0
 62
7
100
AcDbPolyline
 90
2
 70
0
 10
508.228316
 20
-552.997313
 30
0.0
 10
505.798616
 20
-555.427012
 30
0.0
  0
LWPOLYLINE
  5
139
100
AcDbEntity
  8
0
 62
7
100
AcDbPolyline
 90
2
 70
0
 10
510.050589
 20
-557.249285
 30
0.0
 10
510.050589
 20
-554.414637
 30
0.0
  0
LWPOLYLINE
  5
13a
100
AcDbEntity
  8
0
 62
7
100
AcDbPolyline
 90
6
 70
0
 10
510.050589
 20
-552.997313
 30
0.0
 10
509.848116
 20
-553.199789
 30
0.0
 10
510.050589
 20
-553.402262
 30
0.0
 10
510.253065
 20
-553.199789
 30
0.0
 10
510.050589
 20
-552.997313
 30
0.0
 10
510.050589
 20
-553.402262
 30
0.0
  0
LWPOLYLINE
  5
13b
100
AcDbEntity
  8
0
 62
7
100
AcDbPolyline
 90
16
 70
0
 10
514.505038
 20
-556.844336
 30
0.0
 10
514.302562
 20
-557.046809
 30
0.0
 10
513.695139
 20
-557.249285
 30
0.0
 10
513.290190
 20
-557.249285
 30
0.0
 10
512.682764
 20
-557.046809
 30
0.0
 10
512.277815
 20
-556.641860
 30
0.0
 10
512.075339
 20
-556.236910
 30
0.0
 10
511.872865
 20
-555.427012
 30
0.0
 10
511.872865
 20
-554.819586
 30
0.0
 10
512.075339
 20
-554.009687
 30
0.0
 10
512.277815
 20
-553.604738
 30
0.0
 10
512.682764
 20
-553.199789
 30
0.0
 10
513.290190
 20
-552.997313
 30
0.0
 10
513.695139
 20
-552.997313
 30
0.0
 10
514.302562
 20
-553.199789
 30
0.0
 10
514.505038
 20
-553.402262
 30
0.0
  0
LWPOLYLINE
  5
13c
100
AcDbEntity
  8
0
 62
7
100
AcDbPolyline
 90
6
 70
0
 10
518.149585
 20
-557.249285
 30
0.0
 10
518.149585
 20
-555.022062
 30
0.0
 10
517.947112
 20
-554.617113
 30
0.0
 10
517.542162
 20
-554.414637
 30
0.0
 10
516.732261
 20
-554.414637
 30
0.0
 10
516.327311
 20
-554.617113
 30
0.0
  0
LWPOLYLINE
  5
13d
100
AcDbEntity
  8
0
 62
7
100
AcDbPolyline
 90
10
 70
0
 10
518.149585
 20
-557.046809
 30
0.0
 10
517.744635
 20
-557.249285
 30
0.0
 10
516.732261
 20
-557.249285
 30
0.0
 10
516.327311
 20
-557.046809
 30
0.0
 10
516.124838
 20
-556.641860
 30
0.0
 10
516.124838
 20
-556.236910
 30
0.0
 10
516.327311
 20
-555.831961
 30
0.0
 10
516.732261
 20
-555.629485
 30
0.0
 10
517.744635
 20
-555.629485
 30
0.0
 10
518.149585
 20
-555.427012
 30
0.0
  0
LWPOLYLINE
  5
13e
100
AcDbEntity
  8
0
 62
7
100
AcDbPolyline
 90
2
 70
0
 10
521.996608
 20
-557.249285
 30
0.0
 10
521.996608
 20
-552.997313
 30
0.0
  0
LWPOLYLINE
  5
13f
100
AcDbEntity
  8
0
 62
7
100
AcDbPolyline
 90
12
 70
0
 10
521.996608
 20
-557.046809
 30
0.0
 10
521.591659
 20
-557.249285
 30
0.0
 10
520.781760
 20
-557.249285
 30
0.0
 10
520.376811
 20
-557.046809
 30
0.0
 10
520.174334
 20
-556.844336
 30
0.0
 10
519.971858
 20
-556.439386
 30
0.0
 10
519.971858
 20
-555.224536
 30
0.0
 10
520.174334
 20
-554.819586
 30
0.0
 10
520.376811
 20
-554.617113
 30
0.0
 10
520.781760
 20
-554.414637
 30
0.0
 10
521.591659
 20
-554.414637
 30
0.0
 10
521.996608
 20
-554.617113
 30
0.0
  0
LWPOLYLINE
  5
140
100
AcDbEntity
  8
0
 62
7
100
AcDbPolyline
 90
2
 70
0
 10
527.260955
 20
-555.022062
 30
0.0
 10
528.678280
 20
-555.022062
 30
0.0
  0
LWPOLYLINE
  5
141
100
AcDbEntity
  8
0
 62
7
100
AcDbPolyline
 90
4
 70
0
 10
529.285705
 20
-557.249285
 30
0.0
 10
527.260955
 20
-557.249285
 30
0.0
 10
527.260955
 20
-552.997313
 30
0.0
 10
529.285705
 20
-552.997313
 30
0.0
  0
LWPOLYLINE
  5
142
100
AcDbEntity
  8
0
 62
7
100
AcDbPolyline
 90
6
 70
0
 10
531.107979
 20
-556.844336
 30
0.0
 10
531.310452
 20
-557.046809
 30
0.0
 10
531.107979
 20
-557.249285
 30
0.0
 10
530.905502
 20
-557.046809
 30
0.0
 10
531.107979
 20
-556.844336
 30
0.0
 10
531.107979
 20
-557.249285
 30
0.0
  0
LWPOLYLINE
  5
143
100
AcDbEntity
  8
0
 62
7
100
AcDbPolyline
 90
12
 70
1
 10
533.132728
 20
-557.249285
 30
0.0
 10
533.132728
 20
-552.997313
 30
0.0
 10
534.145100
 20
-552.997313
 30
0.0
 10
534.752526
 20
-553.199789
 30
0.0
 10
535.157475
 20
-553.604738
 30
0.0
 10
535.359951
 20
-554.009687
 30
0.0
 10
535.562424
 20
-554.819586
 30
0.0
 10
535.562424
 20
-555.427012
 30
0.0
 10
535.359951
 20
-556.236910
 30
0.0
 10
535.157475
 20
-556.641860
 30
0.0
 10
534.752526
 20
-557.046809
 30
0.0
 10
534.145100
 20
-557.249285
 30
0.0
  0
LWPOLYLINE
  5
144
100
AcDbEntity
  8
0
 62
7
100
AcDbPolyline
 90
6
 70
0
 10
537.384701
 20
-556.844336
 30
0.0
 10
537.587174
 20
-557.046809
 30
0.0
 10
537.384701
 20
-557.249285
 30
0.0
 10
537.182225
 20
-557.046809
 30
0.0
 10
537.384701
 20
-556.844336
 30
0.0
 10
537.384701
 20
-557.249285
 30
0.0
  0
LWPOLYLINE
  5
145
100
AcDbEntity
  8
0
 62
7
100
AcDbPolyline
 90
2
 70
0
 10
539.206974
 20
-556.034437
 30
0.0
 10
541.231721
 20
-556.034437
 30
0.0
  0
LWPOLYLINE
  5
146
100
AcDbEntity
  8
0
 62
7
100
AcDbPolyline
 90
3
 70
0
 10
538.802025
 20
-557.249285
 30
0.0
 10
540.219349
 20
-552.997313
 30
0.0
 10
541.636673
 20
-557.249285
 30
0.0
  0
LWPOLYLINE
  5
147
100
AcDbEntity
  8
0
 62
7
100
AcDbPolyline
 90
6
 70
0
 10
543.053997
 20
-556.844336
 30
0.0
 10
543.256471
 20
-557.046809
 30
0.0
 10
543.053997
 20
-557.249285
 30
0.0
 10
542.851521
 20
-557.046809
 30
0.0
 10
543.053997
 20
-556.844336
 30
0.0
 10
543.053997
 20
-557.249285
 30
0.0
  0
LWPOLYLINE
  5
148
100
AcDbEntity
  8
0
 62
7
100
AcDbPolyline
 90
2
 70
0
 10
551.557943
 20
-557.249285
 30
0.0
 10
551.557943
 20
-552.997313
 30
0.0
  0
LWPOLYLINE
  5
149
100
AcDbEntity
  8
0
 62
7
100
AcDbPolyline
 90
2
 70
0
 10
551.962892
 20
-555.629485
 30
0.0
 10
553.177740
 20
-557.249285
 30
0.0
  0
LWPOLYLINE
  5
14a
100
AcDbEntity
  8
0
 62
7
100
AcDbPolyline
 90
2
 70
0
 10
553.177740
 20
-554.414637
 30
0.0
 10
551.557943
 20
-556.034437
 30
0.0
  0
LWPOLYLINE
  5
14b
100
AcDbEntity
  8
0
 62
7
100
AcDbPolyline
 90
2
 70
0
 10
555.000014
 20
-557.249285
 30
0.0
 10
555.000014
 20
-554.414637
 30
0.0
  0
LWPOLYLINE
  5
14c
100
AcDbEntity
  8
0
 62
7
100
AcDbPolyline
 90
6
 70
0
 10
555.000014
 20
-552.997313
 30
0.0
 10
554.797540
 20
-553.199789
 30
0.0
 10
555.000014
 20
-553.402262
 30
0.0
 10
555.202490
 20
-553.199789
 30
0.0
 10
555.000014
 20
-552.997313
 30
0.0
 10
555.000014
 20
-553.402262
 30
0.0
  0
LWPOLYLINE
  5
14d
100
AcDbEntity
  8
0
 62
7
100
AcDbPolyline
 90
12
 70
0
 10
558.847037
 20
-557.046809
 30
0.0
 10
558.442087
 20
-557.249285
 30
0.0
 10
557.632189
 20
-557.249285
 30
0.0
 10
557.227239
 20
-557.046809
 30
0.0
 10
557.024763
 20
-556.844336
 30
0.0
 10
556.822287
 20
-556.439386
 30
0.0
 10
556.822287
 20
-555.224536
 30
0.0
 10
557.024763
 20
-554.819586
 30
0.0
 10
557.227239
 20
-554.617113
 30
0.0
 10
557.632189
 20
-554.414637
 30
0.0
 10
558.442087
 20
-554.414637
 30
0.0
 10
558.847037
 20
-554.617113
 30
0.0
  0
LWPOLYLINE
  5
14e
100
AcDbEntity
  8
0
 62
7
100
AcDbPolyline
 90
6
 70
0
 10
562.491584
 20
-557.249285
 30
0.0
 10
562.491584
 20
-555.022062
 30
0.0
 10
562.289111
 20
-554.617113
 30
0.0
 10
561.884161
 20
-554.414637
 30
0.0
 10
561.074260
 20
-554.414637
 30
0.0
 10
560.669310
 20
-554.617113
 30
0.0
  0
LWPOLYLINE
  5
14f
100
AcDbEntity
  8
0
 62
7
100
AcDbPolyline
 90
10
 70
0
 10
562.491584
 20
-557.046809
 30
0.0
 10
562.086635
 20
-557.249285
 30
0.0
 10
561.074260
 20
-557.249285
 30
0.0
 10
560.669310
 20
-557.046809
 30
0.0
 10
560.466837
 20
-556.641860
 30
0.0
 10
560.466837
 20
-556.236910
 30
0.0
 10
560.669310
 20
-555.831961
 30
0.0
 10
561.074260
 20
-555.629485
 30
0.0
 10
562.086635
 20
-555.629485
 30
0.0
 10
562.491584
 20
-555.427012
 30
0.0
  0
LWPOLYLINE
  5
150
100
AcDbEntity
  8
0
 62
7
100
AcDbPolyline
 90
2
 70
0
 10
566.338607
 20
-557.249285
 30
0.0
 10
566.338607
 20
-552.997313
 30
0.0
  0
LWPOLYLINE
  5
151
100
AcDbEntity
  8
0
 62
7
100
AcDbPolyline
 90
12
 70
0
 10
566.338607
 20
-557.046809
 30
0.0
 10
565.933658
 20
-557.249285
 30
0.0
 10
565.123759
 20
-557.249285
 30
0.0
 10
564.718810
 20
-557.046809
 30
0.0
 10
564.516334
 20
-556.844336
 30
0.0
 10
564.313860
 20
-556.439386
 30
0.0
 10
564.313860
 20
-555.224536
 30
0.0
 10
564.516334
 20
-554.819586
 30
0.0
 10
564.718810
 20
-554.617113
 30
0.0
 10
565.123759
 20
-554.414637
 30
0.0
 10
565.933658
 20
-554.414637
 30
0.0
 10
566.338607
 20
-554.617113
 30
0.0
  0
LWPOLYLINE
  5
152
100
AcDbEntity
  8
0
 62
7
100
AcDbPolyline
 90
12
 70
0
 10
572.817805
 20
-558.869085
 30
0.0
 10
572.615329
 20
-558.666609
 30
0.0
 10
572.210380
 20
-558.059184
 30
0.0
 10
572.007904
 20
-557.654235
 30
0.0
 10
571.805431
 20
-557.046809
 30
0.0
 10
571.602954
 20
-556.034437
 30
0.0
 10
571.602954
 20
-555.224536
 30
0.0
 10
571.805431
 20
-554.212161
 30
0.0
 10
572.007904
 20
-553.604738
 30
0.0
 10
572.210380
 20
-553.199789
 30
0.0
 10
572.615329
 20
-552.592363
 30
0.0
 10
572.817805
 20
-552.389887
 30
0.0
  0
LWPOLYLINE
  5
153
100
AcDbEntity
  8
0
 62
7
100
AcDbPolyline
 90
22
 70
0
 10
576.259876
 20
-552.997313
 30
0.0
 10
575.449978
 20
-552.997313
 30
0.0
 10
575.045028
 20
-553.199789
 30
0.0
 10
574.842552
 20
-553.402262
 30
0.0
 10
574.437603
 20
-554.009687
 30
0.0
 10
574.235130
 20
-554.819586
 30
0.0
 10
574.235130
 20
-556.439386
 30
0.0
 10
574.437603
 20
-556.844336
 30
0.0
 10
574.640079
 20
-557.046809
 30
0.0
 10
575.045028
 20
-557.249285
 30
0.0
 10
575.854927
 20
-557.249285
 30
0.0
 10
576.259876
 20
-557.046809
 30
0.0
 10
576.462352
 20
-556.844336
 30
0.0
 10
576.664826
 20
-556.439386
 30
0.0
 10
576.664826
 20
-555.427012
 30
0.0
 10
576.462352
 20
-555.022062
 30
0.0
 10
576.259876
 20
-554.819586
 30
0.0
 10
575.854927
 20
-554.617113
 30
0.0
 10
575.045028
 20
-554.617113
 30
0.0
 10
574.640079
 20
-554.819586
 30
0.0
 10
574.437603
 20
-555.022062
 30
0.0
 10
574.235130
 20
-555.427012
 30
0.0
  0
LWPOLYLINE
  5
154
100
AcDbEntity
  8
0
 62
7
100
AcDbPolyline
 90
6
 70
0
 10
578.487102
 20
-556.844336
 30
0.0
 10
578.689575
 20
-557.046809
 30
0.0
 10
578.487102
 20
-557.249285
 30
0.0
 10
578.284626
 20
-557.046809
 30
0.0
 10
578.487102
 20
-556.844336
 30
0.0
 10
578.487102
 20
-557.249285
 30
0.0
  0
LWPOLYLINE
  5
155
100
AcDbEntity
  8
0
 62
7
100
AcDbPolyline
 90
20
 70
1
 10
581.321750
 20
-552.997313
 30
0.0
 10
581.726700
 20
-552.997313
 30
0.0
 10
582.131649
 20
-553.199789
 30
0.0
 10
582.334122
 20
-553.402262
 30
0.0
 10
582.536599
 20
-553.807211
 30
0.0
 10
582.739075
 20
-554.617113
 30
0.0
 10
582.739075
 20
-555.629485
 30
0.0
 10
582.536599
 20
-556.439386
 30
0.0
 10
582.334122
 20
-556.844336
 30
0.0
 10
582.131649
 20
-557.046809
 30
0.0
 10
581.726700
 20
-557.249285
 30
0.0
 10
581.321750
 20
-557.249285
 30
0.0
 10
580.916798
 20
-557.046809
 30
0.0
 10
580.714325
 20
-556.844336
 30
0.0
 10
580.511849
 20
-556.439386
 30
0.0
 10
580.309376
 20
-555.629485
 30
0.0
 10
580.309376
 20
-554.617113
 30
0.0
 10
580.511849
 20
-553.807211
 30
0.0
 10
580.714325
 20
-553.402262
 30
0.0
 10
580.916798
 20
-553.199789
 30
0.0
  0
LWPOLYLINE
  5
156
100
AcDbEntity
  8
0
 62
7
100
AcDbPolyline
 90
6
 70
0
 10
584.561348
 20
-556.844336
 30
0.0
 10
584.763821
 20
-557.046809
 30
0.0
 10
584.561348
 20
-557.249285
 30
0.0
 10
584.358872
 20
-557.046809
 30
0.0
 10
584.561348
 20
-556.844336
 30
0.0
 10
584.561348
 20
-557.249285
 30
0.0
  0
LWPOLYLINE
  5
157
100
AcDbEntity
  8
0
 62
7
100
AcDbPolyline
 90
2
 70
0
 10
588.408371
 20
-554.414637
 30
0.0
 10
588.408371
 20
-557.249285
 30
0.0
  0
LWPOLYLINE
  5
158
100
AcDbEntity
  8
0
 62
7
100
AcDbPolyline
 90
3
 70
0
 10
587.395997
 20
-552.794837
 30
0.0
 10
586.383622
 20
-555.831961
 30
0.0
 10
589.015794
 20
-555.831961
 30
0.0
  0
LWPOLYLINE
  5
159
100
AcDbEntity
  8
0
 62
7
100
AcDbPolyline
 90
12
 70
0
 10
590.230645
 20
-558.869085
 30
0.0
 10
590.433118
 20
-558.666609
 30
0.0
 10
590.838068
 20
-558.059184
 30
0.0
 10
591.040544
 20
-557.654235
 30
0.0
 10
591.243020
 20
-557.046809
 30
0.0
 10
591.445493
 20
-556.034437
 30
0.0
 10
591.445493
 20
-555.224536
 30
0.0
 10
591.243020
 20
-554.212161
 30
0.0
 10
591.040544
 20
-553.604738
 30
0.0
 10
590.838068
 20
-553.199789
 30
0.0
 10
590.433118
 20
-552.592363
 30
0.0
 10
590.230645
 20
-552.389887
 30
0.0
  0
LWPOLYLINE
  5
15a
100
AcDbEntity
  8
0
 62
7
100
AcDbPolyline
 90
2
 70
0
 10
501.738998
 20
-542.853322
 30
0.0
 10
807.881021
 20
-542.853322
 30
0.0
  0
LWPOLYLINE
  5
15b
100
AcDbEntity
  8
0
 62
7
100
AcDbPolyline
 90
2
 70
0
 10
749.513585
 20
-549.312270
 30
0.0
 10
748.096260
 20
-547.287520
 30
0.0
  0
LWPOLYLINE
  5
15c
100
AcDbEntity
  8
0
 62
7
100
AcDbPolyline
 90
11
 70
0
 10
747.083886
 20
-549.312270
 30
0.0
 10
747.083886
 20
-545.060297
 30
0.0
 10
748.703686
 20
-545.060297
 30
0.0
 10
749.108635
 20
-545.262773
 30
0.0
 10
749.311111
 20
-545.465247
 30
0.0
 10
749.513585
 20
-545.870196
 30
0.0
 10
749.513585
 20
-546.477621
 30
0.0
 10
749.311111
 20
-546.882571
 30
0.0
 10
749.108635
 20
-547.085047
 30
0.0
 10
748.703686
 20
-547.287520
 30
0.0
 10
747.083886
 20
-547.287520
 30
0.0
  0
LWPOLYLINE
  5
15d
100
AcDbEntity
  8
0
 62
7
100
AcDbPolyline
 90
13
 70
0
 10
752.955658
 20
-549.109794
 30
0.0
 10
752.550709
 20
-549.312270
 30
0.0
 10
751.740810
 20
-549.312270
 30
0.0
 10
751.335858
 20
-549.109794
 30
0.0
 10
751.133385
 20
-548.704844
 30
0.0
 10
751.133385
 20
-547.085047
 30
0.0
 10
751.335858
 20
-546.680097
 30
0.0
 10
751.740810
 20
-546.477621
 30
0.0
 10
752.550709
 20
-546.477621
 30
0.0
 10
752.955658
 20
-546.680097
 30
0.0
 10
753.158135
 20
-547.085047
 30
0.0
 10
753.158135
 20
-547.489996
 30
0.0
 10
751.133385
 20
-547.894946
 30
0.0
  0
LWPOLYLINE
  5
15e
100
AcDbEntity
  8
0
 62
7
100
AcDbPolyline
 90
3
 70
0
 10
754.575459
 20
-546.477621
 30
0.0
 10
755.587831
 20
-549.312270
 30
0.0
 10
756.600206
 20
-546.477621
 30
0.0
  0
LWPOLYLINE
  5
15f
100
AcDbEntity
  8
0
 62
7
100
AcDbPolyline
 90
6
 70
0
 10
758.220006
 20
-548.907320
 30
0.0
 10
758.422479
 20
-549.109794
 30
0.0
 10
758.220006
 20
-549.312270
 30
0.0
 10
758.017530
 20
-549.109794
 30
0.0
 10
758.220006
 20
-548.907320
 30
0.0
 10
758.220006
 20
-549.312270
 30
0.0
  0
LWPOLYLINE
  5
160
100
AcDbEntity
  8
0
 62
7
100
AcDbPolyline
 90
6
 70
0
 10
758.220006
 20
-546.680097
 30
0.0
 10
758.422479
 20
-546.882571
 30
0.0
 10
758.220006
 20
-547.085047
 30
0.0
 10
758.017530
 20
-546.882571
 30
0.0
 10
758.220006
 20
-546.680097
 30
0.0
 10
758.220006
 20
-547.085047
 30
0.0
  0
LWPOLYLINE
  5
161
100
AcDbEntity
  8
0
 62
7
100
AcDbPolyline
 90
20
 70
0
 10
505.596143
 20
-549.109794
 30
0.0
 10
506.203569
 20
-549.312270
 30
0.0
 10
507.215941
 20
-549.312270
 30
0.0
 10
507.620893
 20
-549.109794
 30
0.0
 10
507.823366
 20
-548.907320
 30
0.0
 10
508.025842
 20
-548.502371
 30
0.0
 10
508.025842
 20
-548.097422
 30
0.0
 10
507.823366
 20
-547.692469
 30
0.0
 10
507.620893
 20
-547.489996
 30
0.0
 10
507.215941
 20
-547.287520
 30
0.0
 10
506.406042
 20
-547.085047
 30
0.0
 10
506.001093
 20
-546.882571
 30
0.0
 10
505.798616
 20
-546.680097
 30
0.0
 10
505.596143
 20
-546.275145
 30
0.0
 10
505.596143
 20
-545.870196
 30
0.0
 10
505.798616
 20
-545.465247
 30
0.0
 10
506.001093
 20
-545.262773
 30
0.0
 10
506.406042
 20
-545.060297
 30
0.0
 10
507.418417
 20
-545.060297
 30
0.0
 10
508.025842
 20
-545.262773
 30
0.0
  0
LWPOLYLINE
  5
162
100
AcDbEntity
  8
0
 62
7
100
AcDbPolyline
 90
2
 70
0
 10
509.848116
 20
-549.312270
 30
0.0
 10
509.848116
 20
-546.477621
 30
0.0
  0
LWPOLYLINE
  5
163
100
AcDbEntity
  8
0
 62
7
100
AcDbPolyline
 90
6
 70
0
 10
509.848116
 20
-545.060297
 30
0.0
 10
509.645640
 20
-545.262773
 30
0.0
 10
509.848116
 20
-545.465247
 30
0.0
 10
510.050589
 20
-545.262773
 30
0.0
 10
509.848116
 20
-545.060297
 30
0.0
 10
509.848116
 20
-545.465247
 30
0.0
  0
LWPOLYLINE
  5
164
100
AcDbEntity
  8
0
 62
7
100
AcDbPolyline
 90
4
 70
0
 10
511.467913
 20
-546.477621
 30
0.0
 10
513.695139
 20
-546.477621
 30
0.0
 10
511.467913
 20
-549.312270
 30
0.0
 10
513.695139
 20
-549.312270
 30
0.0
  0
LWPOLYLINE
  5
165
100
AcDbEntity
  8
0
 62
7
100
AcDbPolyline
 90
13
 70
0
 10
516.934737
 20
-549.109794
 30
0.0
 10
516.529787
 20
-549.312270
 30
0.0
 10
515.719886
 20
-549.312270
 30
0.0
 10
515.314936
 20
-549.109794
 30
0.0
 10
515.112463
 20
-548.704844
 30
0.0
 10
515.112463
 20
-547.085047
 30
0.0
 10
515.314936
 20
-546.680097
 30
0.0
 10
515.719886
 20
-546.477621
 30
0.0
 10
516.529787
 20
-546.477621
 30
0.0
 10
516.934737
 20
-546.680097
 30
0.0
 10
517.137210
 20
-547.085047
 30
0.0
 10
517.137210
 20
-547.489996
 30
0.0
 10
515.112463
 20
-547.894946
 30
0.0
  0
LWPOLYLINE
  5
166
100
AcDbEntity
  8
0
 62
7
100
AcDbPolyline
 90
6
 70
0
 10
518.959486
 20
-548.907320
 30
0.0
 10
519.161960
 20
-549.109794
 30
0.0
 10
518.959486
 20
-549.312270
 30
0.0
 10
518.757010
 20
-549.109794
 30
0.0
 10
518.959486
 20
-548.907320
 30
0.0
 10
518.959486
 20
-549.312270
 30
0.0
  0
LWPOLYLINE
  5
167
100
AcDbEntity
  8
0
 62
7
100
AcDbPolyline
 90
6
 70
0
 10
518.959486
 20
-546.680097
 30
0.0
 10
519.161960
 20
-546.882571
 30
0.0
 10
518.959486
 20
-547.085047
 30
0.0
 10
518.757010
 20
-546.882571
 30
0.0
 10
518.959486
 20
-546.680097
 30
0.0
 10
518.959486
 20
-547.085047
 30
0.0
  0
LWPOLYLINE
  5
168
100
AcDbEntity
  8
0
 62
7
100
AcDbPolyline
 90
2
 70
0
 10
524.021358
 20
-548.097422
 30
0.0
 10
526.046107
 20
-548.097422
 30
0.0
  0
LWPOLYLINE
  5
169
100
AcDbEntity
  8
0
 62
7
100
AcDbPolyline
 90
3
 70
0
 10
523.616408
 20
-549.312270
 30
0.0
 10
525.033732
 20
-545.060297
 30
0.0
 10
526.451057
 20
-549.312270
 30
0.0
  0
LWPOLYLINE
  5
16a
100
AcDbEntity
  8
0
 62
7
100
AcDbPolyline
 90
2
 70
0
 10
529.690654
 20
-546.477621
 30
0.0
 10
529.690654
 20
-549.312270
 30
0.0
  0
LWPOLYLINE
  5
16b
100
AcDbEntity
  8
0
 62
7
100
AcDbPolyline
 90
3
 70
0
 10
528.678280
 20
-544.857821
 30
0.0
 10
527.665905
 20
-547.894946
 30
0.0
 10
530.298080
 20
-547.894946
 30
0.0
  0
LWPOLYLINE
  5
16c
100
AcDbEntity
  8
0
 62
7
100
AcDbPolyline
 90
2
 70
0
 10
746.743728
 20
-557.249285
 30
0.0
 10
746.743728
 20
-552.997313
 30
0.0
  0
LWPOLYLINE
  5
16d
100
AcDbEntity
  8
0
 62
7
100
AcDbPolyline
 90
2
 70
0
 10
750.590751
 20
-557.249285
 30
0.0
 10
750.590751
 20
-552.997313
 30
0.0
  0
LWPOLYLINE
  5
16e
100
AcDbEntity
  8
0
 62
7
100
AcDbPolyline
 90
12
 70
0
 10
750.590751
 20
-557.046809
 30
0.0
 10
750.185802
 20
-557.249285
 30
0.0
 10
749.375903
 20
-557.249285
 30
0.0
 10
748.970954
 20
-557.046809
 30
0.0
 10
748.768477
 20
-556.844336
 30
0.0
 10
748.566004
 20
-556.439386
 30
0.0
 10
748.566004
 20
-555.224536
 30
0.0
 10
748.768477
 20
-554.819586
 30
0.0
 10
748.970954
 20
-554.617113
 30
0.0
 10
749.375903
 20
-554.414637
 30
0.0
 10
750.185802
 20
-554.414637
 30
0.0
 10
750.590751
 20
-554.617113
 30
0.0
  0
LWPOLYLINE
  5
16f
100
AcDbEntity
  8
0
 62
7
100
AcDbPolyline
 90
6
 70
0
 10
752.615501
 20
-556.844336
 30
0.0
 10
752.817977
 20
-557.046809
 30
0.0
 10
752.615501
 20
-557.249285
 30
0.0
 10
752.413025
 20
-557.046809
 30
0.0
 10
752.615501
 20
-556.844336
 30
0.0
 10
752.615501
 20
-557.249285
 30
0.0
  0
LWPOLYLINE
  5
170
100
AcDbEntity
  8
0
 62
7
100
AcDbPolyline
 90
6
 70
0
 10
752.615501
 20
-554.617113
 30
0.0
 10
752.817977
 20
-554.819586
 30
0.0
 10
752.615501
 20
-555.022062
 30
0.0
 10
752.413025
 20
-554.819586
 30
0.0
 10
752.615501
 20
-554.617113
 30
0.0
 10
752.615501
 20
-555.022062
 30
0.0
  0
LWPOLYLINE
  5
171
100
AcDbEntity
  8
0
 62
7
100
AcDbPolyline
 90
2
 70
0
 10
760.107071
 20
-557.249285
 30
0.0
 10
757.677372
 20
-557.249285
 30
0.0
  0
LWPOLYLINE
  5
172
100
AcDbEntity
  8
0
 62
7
100
AcDbPolyline
 90
5
 70
0
 10
758.892223
 20
-557.249285
 30
0.0
 10
758.892223
 20
-552.997313
 30
0.0
 10
758.487274
 20
-553.604738
 30
0.0
 10
758.082321
 20
-554.009687
 30
0.0
 10
757.677372
 20
-554.212161
 30
0.0
  0
LWPOLYLINE
  5
173
100
AcDbEntity
  8
0
 62
7
100
AcDbPolyline
 90
2
 70
0
 10
764.966469
 20
-552.794837
 30
0.0
 10
761.321922
 20
-558.261660
 30
0.0
  0
LWPOLYLINE
  5
174
100
AcDbEntity
  8
0
 62
7
100
AcDbPolyline
 90
2
 70
0
 10
768.611016
 20
-557.249285
 30
0.0
 10
766.181317
 20
-557.249285
 30
0.0
  0
LWPOLYLINE
  5
175
100
AcDbEntity
  8
0
 62
7
100
AcDbPolyline
 90
5
 70
0
 10
767.396168
 20
-557.249285
 30
0.0
 10
767.396168
 20
-552.997313
 30
0.0
 10
766.991219
 20
-553.604738
 30
0.0
 10
766.586266
 20
-554.009687
 30
0.0
 10
766.181317
 20
-554.212161
 30
0.0
  0
LWPOLYLINE
  5
176
100
AcDbEntity
  8
0
 62
7
100
AcDbPolyline
 90
2
 70
0
 10
501.738998
 20
-531.514729
 30
0.0
 10
807.881021
 20
-531.514729
 30
0.0
  0
LWPOLYLINE
  5
177
100
AcDbEntity
  8
0
 62
7
100
AcDbPolyline
 90
2
 70
0
 10
506.592993
 20
-533.512478
 30
0.0
 10
509.832593
 20
-533.512478
 30
0.0
  0
LWPOLYLINE
  5
178
100
AcDbEntity
  8
0
 62
7
100
AcDbPolyline
 90
2
 70
0
 10
507.504131
 20
-539.181775
 30
0.0
 10
508.212793
 20
-533.512478
 30
0.0
  0
LWPOLYLINE
  5
179
100
AcDbEntity
  8
0
 62
7
100
AcDbPolyline
 90
2
 70
0
 10
511.013695
 20
-539.181775
 30
0.0
 10
511.486137
 20
-535.402245
 30
0.0
  0
LWPOLYLINE
  5
17a
100
AcDbEntity
  8
0
 62
7
100
AcDbPolyline
 90
6
 70
0
 10
511.722357
 20
-533.512478
 30
0.0
 10
511.418644
 20
-533.782447
 30
0.0
 10
511.654867
 20
-534.052414
 30
0.0
 10
511.958580
 20
-533.782447
 30
0.0
 10
511.722357
 20
-533.512478
 30
0.0
 10
511.654867
 20
-534.052414
 30
0.0
  0
LWPOLYLINE
  5
17b
100
AcDbEntity
  8
0
 62
7
100
AcDbPolyline
 90
2
 70
0
 10
513.375904
 20
-535.402245
 30
0.0
 10
515.535634
 20
-535.402245
 30
0.0
  0
LWPOLYLINE
  5
17c
100
AcDbEntity
  8
0
 62
7
100
AcDbPolyline
 90
5
 70
0
 10
514.422022
 20
-533.512478
 30
0.0
 10
513.814600
 20
-538.371876
 30
0.0
 10
514.017073
 20
-538.911809
 30
0.0
 10
514.523262
 20
-539.181775
 30
0.0
 10
515.063194
 20
-539.181775
 30
0.0
  0
LWPOLYLINE
  5
17d
100
AcDbEntity
  8
0
 62
7
100
AcDbPolyline
 90
4
 70
0
 10
517.762859
 20
-539.181775
 30
0.0
 10
517.256671
 20
-538.911809
 30
0.0
 10
517.054197
 20
-538.371876
 30
0.0
 10
517.661620
 20
-533.512478
 30
0.0
  0
LWPOLYLINE
  5
17e
100
AcDbEntity
  8
0
 62
7
100
AcDbPolyline
 90
13
 70
0
 10
522.116069
 20
-538.911809
 30
0.0
 10
521.542390
 20
-539.181775
 30
0.0
 10
520.462525
 20
-539.181775
 30
0.0
 10
519.956336
 20
-538.911809
 30
0.0
 10
519.753863
 20
-538.371876
 30
0.0
 10
520.023829
 20
-536.212144
 30
0.0
 10
520.361285
 20
-535.672211
 30
0.0
 10
520.934964
 20
-535.402245
 30
0.0
 10
522.014832
 20
-535.402245
 30
0.0
 10
522.521018
 20
-535.672211
 30
0.0
 10
522.723494
 20
-536.212144
 30
0.0
 10
522.656001
 20
-536.752079
 30
0.0
 10
519.888846
 20
-537.292011
 30
0.0
  0
LWPOLYLINE
  5
17f
100
AcDbEntity
  8
0
 62
7
100
AcDbPolyline
 90
6
 70
0
 10
524.849480
 20
-538.641843
 30
0.0
 10
525.085700
 20
-538.911809
 30
0.0
 10
524.781987
 20
-539.181775
 30
0.0
 10
524.545768
 20
-538.911809
 30
0.0
 10
524.849480
 20
-538.641843
 30
0.0
 10
524.781987
 20
-539.181775
 30
0.0
  0
LWPOLYLINE
  5
180
100
AcDbEntity
  8
0
 62
7
100
AcDbPolyline
 90
6
 70
0
 10
525.220683
 20
-535.672211
 30
0.0
 10
525.456903
 20
-535.942177
 30
0.0
 10
525.153193
 20
-536.212144
 30
0.0
 10
524.916970
 20
-535.942177
 30
0.0
 10
525.220683
 20
-535.672211
 30
0.0
 10
525.153193
 20
-536.212144
 30
0.0
  0
LWPOLYLINE
  5
181
100
AcDbEntity
  8
0
 62
7
100
AcDbPolyline
 90
2
 70
0
 10
507.215941
 20
-526.108649
 30
0.0
 10
505.798616
 20
-526.108649
 30
0.0
  0
LWPOLYLINE
  5
182
100
AcDbEntity
  8
0
 62
7
100
AcDbPolyline
 90
3
 70
0
 10
505.798616
 20
-528.335872
 30
0.0
 10
505.798616
 20
-524.083899
 30
0.0
 10
507.823366
 20
-524.083899
 30
0.0
  0
LWPOLYLINE
  5
183
100
AcDbEntity
  8
0
 62
7
100
AcDbPolyline
 90
2
 70
0
 10
509.443166
 20
-528.335872
 30
0.0
 10
509.443166
 20
-525.501223
 30
0.0
  0
LWPOLYLINE
  5
184
100
AcDbEntity
  8
0
 62
7
100
AcDbPolyline
 90
6
 70
0
 10
509.443166
 20
-524.083899
 30
0.0
 10
509.240690
 20
-524.286375
 30
0.0
 10
509.443166
 20
-524.488849
 30
0.0
 10
509.645640
 20
-524.286375
 30
0.0
 10
509.443166
 20
-524.083899
 30
0.0
 10
509.443166
 20
-524.488849
 30
0.0
  0
LWPOLYLINE
  5
185
100
AcDbEntity
  8
0
 62
7
100
AcDbPolyline
 90
4
 70
0
 10
512.075339
 20
-528.335872
 30
0.0
 10
511.670389
 20
-528.133396
 30
0.0
 10
511.467913
 20
-527.728446
 30
0.0
 10
511.467913
 20
-524.083899
 30
0.0
  0
LWPOLYLINE
  5
186
100
AcDbEntity
  8
0
 62
7
100
AcDbPolyline
 90
13
 70
0
 10
515.314936
 20
-528.133396
 30
0.0
 10
514.909987
 20
-528.335872
 30
0.0
 10
514.100088
 20
-528.335872
 30
0.0
 10
513.695139
 20
-528.133396
 30
0.0
 10
513.492663
 20
-527.728446
 30
0.0
 10
513.492663
 20
-526.108649
 30
0.0
 10
513.695139
 20
-525.703700
 30
0.0
 10
514.100088
 20
-525.501223
 30
0.0
 10
514.909987
 20
-525.501223
 30
0.0
 10
515.314936
 20
-525.703700
 30
0.0
 10
515.517413
 20
-526.108649
 30
0.0
 10
515.517413
 20
-526.513598
 30
0.0
 10
513.492663
 20
-526.918548
 30
0.0
  0
LWPOLYLINE
  5
187
100
AcDbEntity
  8
0
 62
7
100
AcDbPolyline
 90
6
 70
0
 10
517.339686
 20
-527.930922
 30
0.0
 10
517.542162
 20
-528.133396
 30
0.0
 10
517.339686
 20
-528.335872
 30
0.0
 10
517.137210
 20
-528.133396
 30
0.0
 10
517.339686
 20
-527.930922
 30
0.0
 10
517.339686
 20
-528.335872
 30
0.0
  0
LWPOLYLINE
  5
188
100
AcDbEntity
  8
0
 62
7
100
AcDbPolyline
 90
6
 70
0
 10
517.339686
 20
-525.703700
 30
0.0
 10
517.542162
 20
-525.906173
 30
0.0
 10
517.339686
 20
-526.108649
 30
0.0
 10
517.137210
 20
-525.906173
 30
0.0
 10
517.339686
 20
-525.703700
 30
0.0
 10
517.339686
 20
-526.108649
 30
0.0
  0
LWPOLYLINE
  5
189
100
AcDbEntity
  8
0
 62
7
100
AcDbPolyline
 90
11
 70
0
 10
522.604033
 20
-528.335872
 30
0.0
 10
522.604033
 20
-524.083899
 30
0.0
 10
524.223831
 20
-524.083899
 30
0.0
 10
524.628783
 20
-524.286375
 30
0.0
 10
524.831256
 20
-524.488849
 30
0.0
 10
525.033732
 20
-524.893798
 30
0.0
 10
525.033732
 20
-525.501223
 30
0.0
 10
524.831256
 20
-525.906173
 30
0.0
 10
524.628783
 20
-526.108649
 30
0.0
 10
524.223831
 20
-526.311122
 30
0.0
 10
522.604033
 20
-526.311122
 30
0.0
  0
LWPOLYLINE
  5
18a
100
AcDbEntity
  8
0
 62
7
100
AcDbPolyline
 90
2
 70
0
 10
526.856006
 20
-528.335872
 30
0.0
 10
526.856006
 20
-525.501223
 30
0.0
  0
LWPOLYLINE
  5
18b
100
AcDbEntity
  8
0
 62
7
100
AcDbPolyline
 90
5
 70
0
 10
526.856006
 20
-526.311122
 30
0.0
 10
527.058479
 20
-525.906173
 30
0.0
 10
527.260955
 20
-525.703700
 30
0.0
 10
527.665905
 20
-525.501223
 30
0.0
 10
528.070854
 20
-525.501223
 30
0.0
  0
LWPOLYLINE
  5
18c
100
AcDbEntity
  8
0
 62
7
100
AcDbPolyline
 90
13
 70
0
 10
531.107979
 20
-528.133396
 30
0.0
 10
530.703029
 20
-528.335872
 30
0.0
 10
529.893128
 20
-528.335872
 30
0.0
 10
529.488178
 20
-528.133396
 30
0.0
 10
529.285705
 20
-527.728446
 30
0.0
 10
529.285705
 20
-526.108649
 30
0.0
 10
529.488178
 20
-525.703700
 30
0.0
 10
529.893128
 20
-525.501223
 30
0.0
 10
530.703029
 20
-525.501223
 30
0.0
 10
531.107979
 20
-525.703700
 30
0.0
 10
531.310452
 20
-526.108649
 30
0.0
 10
531.310452
 20
-526.513598
 30
0.0
 10
529.285705
 20
-526.918548
 30
0.0
  0
LWPOLYLINE
  5
18d
100
AcDbEntity
  8
0
 62
7
100
AcDbPolyline
 90
2
 70
0
 10
532.525303
 20
-525.501223
 30
0.0
 10
534.145100
 20
-525.501223
 30
0.0
  0
LWPOLYLINE
  5
18e
100
AcDbEntity
  8
0
 62
7
100
AcDbPolyline
 90
5
 70
0
 10
533.132728
 20
-524.083899
 30
0.0
 10
533.132728
 20
-527.728446
 30
0.0
 10
533.335201
 20
-528.133396
 30
0.0
 10
533.740151
 20
-528.335872
 30
0.0
 10
534.145100
 20
-528.335872
 30
0.0
  0
LWPOLYLINE
  5
18f
100
AcDbEntity
  8
0
 62
7
100
AcDbPolyline
 90
2
 70
0
 10
534.955002
 20
-525.501223
 30
0.0
 10
536.574799
 20
-525.501223
 30
0.0
  0
LWPOLYLINE
  5
190
100
AcDbEntity
  8
0
 62
7
100
AcDbPolyline
 90
5
 70
0
 10
535.562424
 20
-524.083899
 30
0.0
 10
535.562424
 20
-527.728446
 30
0.0
 10
535.764900
 20
-528.133396
 30
0.0
 10
536.169850
 20
-528.335872
 30
0.0
 10
536.574799
 20
-528.335872
 30
0.0
  0
LWPOLYLINE
  5
191
100
AcDbEntity
  8
0
 62
7
100
AcDbPolyline
 90
2
 70
0
 10
537.587174
 20
-525.501223
 30
0.0
 10
538.599549
 20
-528.335872
 30
0.0
  0
LWPOLYLINE
  5
192
100
AcDbEntity
  8
0
 62
7
100
AcDbPolyline
 90
5
 70
0
 10
539.611924
 20
-525.501223
 30
0.0
 10
538.599549
 20
-528.335872
 30
0.0
 10
538.194599
 20
-529.348247
 30
0.0
 10
537.992123
 20
-529.550720
 30
0.0
 10
537.587174
 20
-529.753196
 30
0.0
  0
LWPOLYLINE
  5
193
100
AcDbEntity
  8
0
 62
7
100
AcDbPolyline
 90
20
 70
0
 10
541.029248
 20
-528.133396
 30
0.0
 10
541.636673
 20
-528.335872
 30
0.0
 10
542.649045
 20
-528.335872
 30
0.0
 10
543.053997
 20
-528.133396
 30
0.0
 10
543.256471
 20
-527.930922
 30
0.0
 10
543.458947
 20
-527.525973
 30
0.0
 10
543.458947
 20
-527.121024
 30
0.0
 10
543.256471
 20
-526.716072
 30
0.0
 10
543.053997
 20
-526.513598
 30
0.0
 10
542.649045
 20
-526.311122
 30
0.0
 10
541.839147
 20
-526.108649
 30
0.0
 10
541.434197
 20
-525.906173
 30
0.0
 10
541.231721
 20
-525.703700
 30
0.0
 10
541.029248
 20
-525.298747
 30
0.0
 10
541.029248
 20
-524.893798
 30
0.0
 10
541.231721
 20
-524.488849
 30
0.0
 10
541.434197
 20
-524.286375
 30
0.0
 10
541.839147
 20
-524.083899
 30
0.0
 10
542.851521
 20
-524.083899
 30
0.0
 10
543.458947
 20
-524.286375
 30
0.0
  0
LWPOLYLINE
  5
194
100
AcDbEntity
  8
0
 62
7
100
AcDbPolyline
 90
2
 70
0
 10
545.281220
 20
-528.335872
 30
0.0
 10
545.281220
 20
-525.501223
 30
0.0
  0
LWPOLYLINE
  5
195
100
AcDbEntity
  8
0
 62
7
100
AcDbPolyline
 90
7
 70
0
 10
545.281220
 20
-525.906173
 30
0.0
 10
545.483694
 20
-525.703700
 30
0.0
 10
545.888646
 20
-525.501223
 30
0.0
 10
546.496068
 20
-525.501223
 30
0.0
 10
546.901018
 20
-525.703700
 30
0.0
 10
547.103494
 20
-526.108649
 30
0.0
 10
547.103494
 20
-528.335872
 30
0.0
  0
LWPOLYLINE
  5
196
100
AcDbEntity
  8
0
 62
7
100
AcDbPolyline
 90
7
 70
0
 10
547.103494
 20
-526.108649
 30
0.0
 10
547.305970
 20
-525.703700
 30
0.0
 10
547.710919
 20
-525.501223
 30
0.0
 10
548.318342
 20
-525.501223
 30
0.0
 10
548.723294
 20
-525.703700
 30
0.0
 10
548.925767
 20
-526.108649
 30
0.0
 10
548.925767
 20
-528.335872
 30
0.0
  0
LWPOLYLINE
  5
197
100
AcDbEntity
  8
0
 62
7
100
AcDbPolyline
 90
6
 70
0
 10
552.772791
 20
-528.335872
 30
0.0
 10
552.772791
 20
-526.108649
 30
0.0
 10
552.570315
 20
-525.703700
 30
0.0
 10
552.165365
 20
-525.501223
 30
0.0
 10
551.355466
 20
-525.501223
 30
0.0
 10
550.950517
 20
-525.703700
 30
0.0
  0
LWPOLYLINE
  5
198
100
AcDbEntity
  8
0
 62
7
100
AcDbPolyline
 90
10
 70
0
 10
552.772791
 20
-528.133396
 30
0.0
 10
552.367841
 20
-528.335872
 30
0.0
 10
551.355466
 20
-528.335872
 30
0.0
 10
550.950517
 20
-528.133396
 30
0.0
 10
550.748041
 20
-527.728446
 30
0.0
 10
550.748041
 20
-527.323497
 30
0.0
 10
550.950517
 20
-526.918548
 30
0.0
 10
551.355466
 20
-526.716072
 30
0.0
 10
552.367841
 20
-526.716072
 30
0.0
 10
552.772791
 20
-526.513598
 30
0.0
  0
LWPOLYLINE
  5
199
100
AcDbEntity
  8
0
 62
7
100
AcDbPolyline
 90
4
 70
0
 10
555.404963
 20
-528.335872
 30
0.0
 10
555.000014
 20
-528.133396
 30
0.0
 10
554.797540
 20
-527.728446
 30
0.0
 10
554.797540
 20
-524.083899
 30
0.0
  0
LWPOLYLINE
  5
19a
100
AcDbEntity
  8
0
 62
7
100
AcDbPolyline
 90
4
 70
0
 10
557.632189
 20
-528.335872
 30
0.0
 10
557.227239
 20
-528.133396
 30
0.0
 10
557.024763
 20
-527.728446
 30
0.0
 10
557.024763
 20
-524.083899
 30
0.0
  0
LWPOLYLINE
  5
19b
100
AcDbEntity
  8
0
 62
7
100
AcDbPolyline
 90
2
 70
0
 10
561.681685
 20
-528.335872
 30
0.0
 10
560.264361
 20
-526.311122
 30
0.0
  0
LWPOLYLINE
  5
19c
100
AcDbEntity
  8
0
 62
7
100
AcDbPolyline
 90
11
 70
0
 10
559.251986
 20
-528.335872
 30
0.0
 10
559.251986
 20
-524.083899
 30
0.0
 10
560.871786
 20
-524.083899
 30
0.0
 10
561.276736
 20
-524.286375
 30
0.0
 10
561.479212
 20
-524.488849
 30
0.0
 10
561.681685
 20
-524.893798
 30
0.0
 10
561.681685
 20
-525.501223
 30
0.0
 10
561.479212
 20
-525.906173
 30
0.0
 10
561.276736
 20
-526.108649
 30
0.0
 10
560.871786
 20
-526.311122
 30
0.0
 10
559.251986
 20
-526.311122
 30
0.0
  0
LWPOLYLINE
  5
19d
100
AcDbEntity
  8
0
 62
7
100
AcDbPolyline
 90
16
 70
1
 10
564.111384
 20
-528.335872
 30
0.0
 10
563.706435
 20
-528.133396
 30
0.0
 10
563.503959
 20
-527.930922
 30
0.0
 10
563.301485
 20
-527.525973
 30
0.0
 10
563.301485
 20
-526.311122
 30
0.0
 10
563.503959
 20
-525.906173
 30
0.0
 10
563.706435
 20
-525.703700
 30
0.0
 10
564.111384
 20
-525.501223
 30
0.0
 10
564.718810
 20
-525.501223
 30
0.0
 10
565.123759
 20
-525.703700
 30
0.0
 10
565.326232
 20
-525.906173
 30
0.0
 10
565.528708
 20
-526.311122
 30
0.0
 10
565.528708
 20
-527.525973
 30
0.0
 10
565.326232
 20
-527.930922
 30
0.0
 10
565.123759
 20
-528.133396
 30
0.0
 10
564.718810
 20
-528.335872
 30
0.0
  0
LWPOLYLINE
  5
19e
100
AcDbEntity
  8
0
 62
7
100
AcDbPolyline
 90
2
 70
0
 10
567.350982
 20
-528.335872
 30
0.0
 10
567.350982
 20
-524.083899
 30
0.0
  0
LWPOLYLINE
  5
19f
100
AcDbEntity
  8
0
 62
7
100
AcDbPolyline
 90
12
 70
0
 10
567.350982
 20
-525.703700
 30
0.0
 10
567.755931
 20
-525.501223
 30
0.0
 10
568.565833
 20
-525.501223
 30
0.0
 10
568.970782
 20
-525.703700
 30
0.0
 10
569.173255
 20
-525.906173
 30
0.0
 10
569.375732
 20
-526.311122
 30
0.0
 10
569.375732
 20
-527.525973
 30
0.0
 10
569.173255
 20
-527.930922
 30
0.0
 10
568.970782
 20
-528.133396
 30
0.0
 10
568.565833
 20
-528.335872
 30
0.0
 10
567.755931
 20
-528.335872
 30
0.0
 10
567.350982
 20
-528.133396
 30
0.0
  0
LWPOLYLINE
  5
1a0
100
AcDbEntity
  8
0
 62
7
100
AcDbPolyline
 90
16
 70
1
 10
571.805431
 20
-528.335872
 30
0.0
 10
571.400481
 20
-528.133396
 30
0.0
 10
571.198005
 20
-527.930922
 30
0.0
 10
570.995529
 20
-527.525973
 30
0.0
 10
570.995529
 20
-526.311122
 30
0.0
 10
571.198005
 20
-525.906173
 30
0.0
 10
571.400481
 20
-525.703700
 30
0.0
 10
571.805431
 20
-525.501223
 30
0.0
 10
572.412853
 20
-525.501223
 30
0.0
 10
572.817805
 20
-525.703700
 30
0.0
 10
573.020279
 20
-525.906173
 30
0.0
 10
573.222755
 20
-526.311122
 30
0.0
 10
573.222755
 20
-527.525973
 30
0.0
 10
573.020279
 20
-527.930922
 30
0.0
 10
572.817805
 20
-528.133396
 30
0.0
 10
572.412853
 20
-528.335872
 30
0.0
  0
LWPOLYLINE
  5
1a1
100
AcDbEntity
  8
0
 62
7
100
AcDbPolyline
 90
2
 70
0
 10
574.437603
 20
-525.501223
 30
0.0
 10
576.057403
 20
-525.501223
 30
0.0
  0
LWPOLYLINE
  5
1a2
100
AcDbEntity
  8
0
 62
7
100
AcDbPolyline
 90
5
 70
0
 10
575.045028
 20
-524.083899
 30
0.0
 10
575.045028
 20
-527.728446
 30
0.0
 10
575.247502
 20
-528.133396
 30
0.0
 10
575.652454
 20
-528.335872
 30
0.0
 10
576.057403
 20
-528.335872
 30
0.0
  0
LWPOLYLINE
  5
1a3
100
AcDbEntity
  8
0
 62
7
100
AcDbPolyline
 90
6
 70
0
 10
577.474727
 20
-527.930922
 30
0.0
 10
577.677201
 20
-528.133396
 30
0.0
 10
577.474727
 20
-528.335872
 30
0.0
 10
577.272251
 20
-528.133396
 30
0.0
 10
577.474727
 20
-527.930922
 30
0.0
 10
577.474727
 20
-528.335872
 30
0.0
  0
LWPOLYLINE
  5
1a4
100
AcDbEntity
  8
0
 62
7
100
AcDbPolyline
 90
2
 70
0
 10
579.499474
 20
-528.335872
 30
0.0
 10
579.499474
 20
-524.083899
 30
0.0
  0
LWPOLYLINE
  5
1a5
100
AcDbEntity
  8
0
 62
7
100
AcDbPolyline
 90
2
 70
0
 10
579.904426
 20
-526.716072
 30
0.0
 10
581.119274
 20
-528.335872
 30
0.0
  0
LWPOLYLINE
  5
1a6
100
AcDbEntity
  8
0
 62
7
100
AcDbPolyline
 90
2
 70
0
 10
581.119274
 20
-525.501223
 30
0.0
 10
579.499474
 20
-527.121024
 30
0.0
  0
LWPOLYLINE
  5
1a7
100
AcDbEntity
  8
0
 62
7
100
AcDbPolyline
 90
2
 70
0
 10
582.941548
 20
-528.335872
 30
0.0
 10
582.941548
 20
-525.501223
 30
0.0
  0
LWPOLYLINE
  5
1a8
100
AcDbEntity
  8
0
 62
7
100
AcDbPolyline
 90
6
 70
0
 10
582.941548
 20
-524.083899
 30
0.0
 10
582.739075
 20
-524.286375
 30
0.0
 10
582.941548
 20
-524.488849
 30
0.0
 10
583.144024
 20
-524.286375
 30
0.0
 10
582.941548
 20
-524.083899
 30
0.0
 10
582.941548
 20
-524.488849
 30
0.0
  0
LWPOLYLINE
  5
1a9
100
AcDbEntity
  8
0
 62
7
100
AcDbPolyline
 90
12
 70
0
 10
586.788571
 20
-528.133396
 30
0.0
 10
586.383622
 20
-528.335872
 30
0.0
 10
585.573723
 20
-528.335872
 30
0.0
 10
585.168771
 20
-528.133396
 30
0.0
 10
584.966298
 20
-527.930922
 30
0.0
 10
584.763821
 20
-527.525973
 30
0.0
 10
584.763821
 20
-526.311122
 30
0.0
 10
584.966298
 20
-525.906173
 30
0.0
 10
585.168771
 20
-525.703700
 30
0.0
 10
585.573723
 20
-525.501223
 30
0.0
 10
586.383622
 20
-525.501223
 30
0.0
 10
586.788571
 20
-525.703700
 30
0.0
  0
LWPOLYLINE
  5
1aa
100
AcDbEntity
  8
0
 62
7
100
AcDbPolyline
 90
6
 70
0
 10
590.433118
 20
-528.335872
 30
0.0
 10
590.433118
 20
-526.108649
 30
0.0
 10
590.230645
 20
-525.703700
 30
0.0
 10
589.825696
 20
-525.501223
 30
0.0
 10
589.015794
 20
-525.501223
 30
0.0
 10
588.610845
 20
-525.703700
 30
0.0
  0
LWPOLYLINE
  5
1ab
100
AcDbEntity
  8
0
 62
7
100
AcDbPolyline
 90
10
 70
0
 10
590.433118
 20
-528.133396
 30
0.0
 10
590.028169
 20
-528.335872
 30
0.0
 10
589.015794
 20
-528.335872
 30
0.0
 10
588.610845
 20
-528.133396
 30
0.0
 10
588.408371
 20
-527.728446
 30
0.0
 10
588.408371
 20
-527.323497
 30
0.0
 10
588.610845
 20
-526.918548
 30
0.0
 10
589.015794
 20
-526.716072
 30
0.0
 10
590.028169
 20
-526.716072
 30
0.0
 10
590.433118
 20
-526.513598
 30
0.0
  0
LWPOLYLINE
  5
1ac
100
AcDbEntity
  8
0
 62
7
100
AcDbPolyline
 90
2
 70
0
 10
594.280141
 20
-528.335872
 30
0.0
 10
594.280141
 20
-524.083899
 30
0.0
  0
LWPOLYLINE
  5
1ad
100
AcDbEntity
  8
0
 62
7
100
AcDbPolyline
 90
12
 70
0
 10
594.280141
 20
-528.133396
 30
0.0
 10
593.875192
 20
-528.335872
 30
0.0
 10
593.065293
 20
-528.335872
 30
0.0
 10
592.660344
 20
-528.133396
 30
0.0
 10
592.457868
 20
-527.930922
 30
0.0
 10
592.255392
 20
-527.525973
 30
0.0
 10
592.255392
 20
-526.311122
 30
0.0
 10
592.457868
 20
-525.906173
 30
0.0
 10
592.660344
 20
-525.703700
 30
0.0
 10
593.065293
 20
-525.501223
 30
0.0
 10
593.875192
 20
-525.501223
 30
0.0
 10
594.280141
 20
-525.703700
 30
0.0
  0
LWPOLYLINE
  5
1ae
100
AcDbEntity
  8
0
 62
7
100
AcDbPolyline
 90
2
 70
0
 10
595.292516
 20
-528.740821
 30
0.0
 10
598.532114
 20
-528.740821
 30
0.0
  0
LWPOLYLINE
  5
1af
100
AcDbEntity
  8
0
 62
7
100
AcDbPolyline
 90
2
 70
0
 10
599.544489
 20
-525.501223
 30
0.0
 10
599.544489
 20
-529.753196
 30
0.0
  0
LWPOLYLINE
  5
1b0
100
AcDbEntity
  8
0
 62
7
100
AcDbPolyline
 90
12
 70
0
 10
599.544489
 20
-525.703700
 30
0.0
 10
599.949438
 20
-525.501223
 30
0.0
 10
600.759337
 20
-525.501223
 30
0.0
 10
601.164289
 20
-525.703700
 30
0.0
 10
601.366762
 20
-525.906173
 30
0.0
 10
601.569238
 20
-526.311122
 30
0.0
 10
601.569238
 20
-527.525973
 30
0.0
 10
601.366762
 20
-527.930922
 30
0.0
 10
601.164289
 20
-528.133396
 30
0.0
 10
600.759337
 20
-528.335872
 30
0.0
 10
599.949438
 20
-528.335872
 30
0.0
 10
599.544489
 20
-528.133396
 30
0.0
  0
LWPOLYLINE
  5
1b1
100
AcDbEntity
  8
0
 62
7
100
AcDbPolyline
 90
12
 70
0
 10
605.213786
 20
-528.133396
 30
0.0
 10
604.808836
 20
-528.335872
 30
0.0
 10
603.998937
 20
-528.335872
 30
0.0
 10
603.593985
 20
-528.133396
 30
0.0
 10
603.391512
 20
-527.930922
 30
0.0
 10
603.189036
 20
-527.525973
 30
0.0
 10
603.189036
 20
-526.311122
 30
0.0
 10
603.391512
 20
-525.906173
 30
0.0
 10
603.593985
 20
-525.703700
 30
0.0
 10
603.998937
 20
-525.501223
 30
0.0
 10
604.808836
 20
-525.501223
 30
0.0
 10
605.213786
 20
-525.703700
 30
0.0
  0
LWPOLYLINE
  5
1b2
100
AcDbEntity
  8
0
 62
7
100
AcDbPolyline
 90
2
 70
0
 10
607.036059
 20
-528.335872
 30
0.0
 10
607.036059
 20
-524.083899
 30
0.0
  0
LWPOLYLINE
  5
1b3
100
AcDbEntity
  8
0
 62
7
100
AcDbPolyline
 90
12
 70
0
 10
607.036059
 20
-525.703700
 30
0.0
 10
607.441008
 20
-525.501223
 30
0.0
 10
608.250910
 20
-525.501223
 30
0.0
 10
608.655859
 20
-525.703700
 30
0.0
 10
608.858333
 20
-525.906173
 30
0.0
 10
609.060809
 20
-526.311122
 30
0.0
 10
609.060809
 20
-527.525973
 30
0.0
 10
608.858333
 20
-527.930922
 30
0.0
 10
608.655859
 20
-528.133396
 30
0.0
 10
608.250910
 20
-528.335872
 30
0.0
 10
607.441008
 20
-528.335872
 30
0.0
 10
607.036059
 20
-528.133396
 30
0.0
  0
LWPOLYLINE
  5
1b4
100
AcDbEntity
  8
0
 62
7
100
AcDbPolyline
 90
2
 70
0
 10
501.738998
 20
-514.506838
 30
0.0
 10
807.881021
 20
-514.506838
 30
0.0
  0
LWPOLYLINE
  5
1b5
100
AcDbEntity
  8
0
 62
7
100
AcDbPolyline
 90
20
 70
0
 10
505.596143
 20
-520.479845
 30
0.0
 10
506.203569
 20
-520.682321
 30
0.0
 10
507.215941
 20
-520.682321
 30
0.0
 10
507.620893
 20
-520.479845
 30
0.0
 10
507.823366
 20
-520.277372
 30
0.0
 10
508.025842
 20
-519.872422
 30
0.0
 10
508.025842
 20
-519.467473
 30
0.0
 10
507.823366
 20
-519.062521
 30
0.0
 10
507.620893
 20
-518.860048
 30
0.0
 10
507.215941
 20
-518.657572
 30
0.0
 10
506.406042
 20
-518.455098
 30
0.0
 10
506.001093
 20
-518.252622
 30
0.0
 10
505.798616
 20
-518.050149
 30
0.0
 10
505.596143
 20
-517.645197
 30
0.0
 10
505.596143
 20
-517.240247
 30
0.0
 10
505.798616
 20
-516.835298
 30
0.0
 10
506.001093
 20
-516.632825
 30
0.0
 10
506.406042
 20
-516.430349
 30
0.0
 10
507.418417
 20
-516.430349
 30
0.0
 10
508.025842
 20
-516.632825
 30
0.0
  0
LWPOLYLINE
  5
1b6
100
AcDbEntity
  8
0
 62
7
100
AcDbPolyline
 90
2
 70
0
 10
509.848116
 20
-520.682321
 30
0.0
 10
509.848116
 20
-516.430349
 30
0.0
  0
LWPOLYLINE
  5
1b7
100
AcDbEntity
  8
0
 62
7
100
AcDbPolyline
 90
7
 70
0
 10
511.670389
 20
-520.682321
 30
0.0
 10
511.670389
 20
-518.455098
 30
0.0
 10
511.467913
 20
-518.050149
 30
0.0
 10
511.062964
 20
-517.847673
 30
0.0
 10
510.455541
 20
-517.847673
 30
0.0
 10
510.050589
 20
-518.050149
 30
0.0
 10
509.848116
 20
-518.252622
 30
0.0
  0
LWPOLYLINE
  5
1b8
100
AcDbEntity
  8
0
 62
7
100
AcDbPolyline
 90
13
 70
0
 10
515.314936
 20
-520.479845
 30
0.0
 10
514.909987
 20
-520.682321
 30
0.0
 10
514.100088
 20
-520.682321
 30
0.0
 10
513.695139
 20
-520.479845
 30
0.0
 10
513.492663
 20
-520.074896
 30
0.0
 10
513.492663
 20
-518.455098
 30
0.0
 10
513.695139
 20
-518.050149
 30
0.0
 10
514.100088
 20
-517.847673
 30
0.0
 10
514.909987
 20
-517.847673
 30
0.0
 10
515.314936
 20
-518.050149
 30
0.0
 10
515.517413
 20
-518.455098
 30
0.0
 10
515.517413
 20
-518.860048
 30
0.0
 10
513.492663
 20
-519.264997
 30
0.0
  0
LWPOLYLINE
  5
1b9
100
AcDbEntity
  8
0
 62
7
100
AcDbPolyline
 90
13
 70
0
 10
518.959486
 20
-520.479845
 30
0.0
 10
518.554534
 20
-520.682321
 30
0.0
 10
517.744635
 20
-520.682321
 30
0.0
 10
517.339686
 20
-520.479845
 30
0.0
 10
517.137210
 20
-520.074896
 30
0.0
 10
517.137210
 20
-518.455098
 30
0.0
 10
517.339686
 20
-518.050149
 30
0.0
 10
517.744635
 20
-517.847673
 30
0.0
 10
518.554534
 20
-517.847673
 30
0.0
 10
518.959486
 20
-518.050149
 30
0.0
 10
519.161960
 20
-518.455098
 30
0.0
 10
519.161960
 20
-518.860048
 30
0.0
 10
517.137210
 20
-519.264997
 30
0.0
  0
LWPOLYLINE
  5
1ba
100
AcDbEntity
  8
0
 62
7
100
AcDbPolyline
 90
2
 70
0
 10
520.376811
 20
-517.847673
 30
0.0
 10
521.996608
 20
-517.847673
 30
0.0
  0
LWPOLYLINE
  5
1bb
100
AcDbEntity
  8
0
 62
7
100
AcDbPolyline
 90
5
 70
0
 10
520.984233
 20
-516.430349
 30
0.0
 10
520.984233
 20
-520.074896
 30
0.0
 10
521.186709
 20
-520.479845
 30
0.0
 10
521.591659
 20
-520.682321
 30
0.0
 10
521.996608
 20
-520.682321
 30
0.0
  0
LWPOLYLINE
  5
1bc
100
AcDbEntity
  8
0
 62
7
100
AcDbPolyline
 90
6
 70
0
 10
523.413932
 20
-520.277372
 30
0.0
 10
523.616408
 20
-520.479845
 30
0.0
 10
523.413932
 20
-520.682321
 30
0.0
 10
523.211459
 20
-520.479845
 30
0.0
 10
523.413932
 20
-520.277372
 30
0.0
 10
523.413932
 20
-520.682321
 30
0.0
  0
LWPOLYLINE
  5
1bd
100
AcDbEntity
  8
0
 62
7
100
AcDbPolyline
 90
6
 70
0
 10
523.413932
 20
-518.050149
 30
0.0
 10
523.616408
 20
-518.252622
 30
0.0
 10
523.413932
 20
-518.455098
 30
0.0
 10
523.211459
 20
-518.252622
 30
0.0
 10
523.413932
 20
-518.050149
 30
0.0
 10
523.413932
 20
-518.455098
 30
0.0
  0
LWPOLYLINE
  5
1be
100
AcDbEntity
  8
0
 62
7
100
AcDbPolyline
 90
2
 70
0
 10
558.431965
 20
-542.853322
 30
0.0
 10
558.431965
 20
-551.357267
 30
0.0
  0
LWPOLYLINE
  5
1bf
100
AcDbEntity
  8
0
 62
7
100
AcDbPolyline
 90
2
 70
0
 10
739.849460
 20
-542.853322
 30
0.0
 10
739.849460
 20
-561.278537
 30
0.0
  0
LWPOLYLINE
  5
1c0
100
AcDbEntity
  8
0
 62
7
100
AcDbPolyline
 90
2
 70
0
 10
438.934557
 20
-340.681722
 30
0.0
 10
438.934557
 20
-269.815532
 30
0.0
  0
LWPOLYLINE
  5
1c1
100
AcDbEntity
  8
0
 62
7
100
AcDbPolyline
 90
3
 70
0
 10
486.273184
 20
-340.398257
 30
0.0
 10
461.685700
 20
-340.545489
 30
0.0
 10
438.934557
 20
-340.681722
 30
0.0
  0
LWPOLYLINE
  5
1c2
100
AcDbEntity
  8
0
 62
7
100
AcDbPolyline
 90
2
 70
0
 10
485.989720
 20
-269.815532
 30
0.0
 10
486.273184
 20
-340.398257
 30
0.0
  0
LWPOLYLINE
  5
1c3
100
AcDbEntity
  8
0
 62
7
100
AcDbPolyline
 90
2
 70
0
 10
438.934557
 20
-269.815532
 30
0.0
 10
485.989720
 20
-269.815532
 30
0.0
  0
ENDSEC
  0
SECTION
  2
OBJECTS
  0
DICTIONARY
  5
C
330
0
100
AcDbDictionary
  3
ACAD_GROUP
350
D
  3
ACAD_MLINESTYLE
350
17
  0
DICTIONARY
  5
D
330
C
100
AcDbDictionary
  0
DICTIONARY
  5
1A
330
C
100
AcDbDictionary
  0
DICTIONARY
  5
17
330
C
100
AcDbDictionary
  3
STANDARD
350
18
  0
DICTIONARY
  5
19
330
C
100
AcDbDictionary
  0
ENDSEC
  0
EOF
