<?xml version="1.0" encoding="UTF-8" standalone="no"?>
<!-- Created with Inkscape (http://www.inkscape.org/) -->

<svg
   width="4.921308mm"
   height="4.4811988mm"
   viewBox="0 0 4.9213081 4.4811988"
   version="1.1"
   id="svg5"
   inkscape:version="1.1.1 (3bf5ae0d25, 2021-09-20)"
   sodipodi:docname="wifi_car.svg"
   xmlns:inkscape="http://www.inkscape.org/namespaces/inkscape"
   xmlns:sodipodi="http://sodipodi.sourceforge.net/DTD/sodipodi-0.dtd"
   xmlns="http://www.w3.org/2000/svg"
   xmlns:svg="http://www.w3.org/2000/svg">
  <sodipodi:namedview
     id="namedview7"
     pagecolor="#ffffff"
     bordercolor="#999999"
     borderopacity="1"
     inkscape:pageshadow="0"
     inkscape:pageopacity="0"
     inkscape:pagecheckerboard="0"
     inkscape:document-units="mm"
     showgrid="false"
     inkscape:zoom="20.496745"
     inkscape:cx="2.6101705"
     inkscape:cy="-3.8298764"
     inkscape:window-width="3440"
     inkscape:window-height="1377"
     inkscape:window-x="-8"
     inkscape:window-y="-8"
     inkscape:window-maximized="1"
     inkscape:current-layer="layer1"
     fit-margin-top="0"
     fit-margin-left="0"
     fit-margin-right="0"
     fit-margin-bottom="0" />
  <defs
     id="defs2" />
  <g
     inkscape:label="Layer 1"
     inkscape:groupmode="layer"
     id="layer1"
     transform="translate(-180.05843,-131.00747)">
    <path
       style="fill:#000000;stroke-width:0.0207635"
       d="m 180.83182,135.46017 c -0.28915,-0.1032 -0.42139,-0.44535 -0.27561,-0.71319 0.16991,-0.31217 0.56686,-0.36341 0.81445,-0.10512 0.0905,0.0944 0.13091,0.20092 0.13037,0.34375 -5.5e-4,0.14715 -0.0488,0.25967 -0.15606,0.36342 -0.13308,0.12883 -0.33875,0.17337 -0.51315,0.11114 z m 0.27215,-0.29066 c 0.1133,-0.0586 0.14036,-0.21806 0.0543,-0.32027 -0.0658,-0.0782 -0.14911,-0.0979 -0.24477,-0.058 -0.0865,0.0361 -0.11803,0.0869 -0.11803,0.18981 0,0.0953 0.0275,0.14674 0.0991,0.18564 0.0722,0.0392 0.13718,0.04 0.20929,0.002 z m 2.55168,0.29066 c -0.35188,-0.12558 -0.45568,-0.56948 -0.19429,-0.83089 0.25745,-0.25744 0.66937,-0.17988 0.82075,0.15455 0.17652,0.38995 -0.22232,0.82056 -0.62646,0.67634 z m 0.30838,-0.33167 c 0.0918,-0.0918 0.0965,-0.19065 0.0135,-0.28277 -0.11347,-0.12587 -0.30517,-0.0875 -0.35767,0.0716 -0.0209,0.0632 -0.0188,0.0861 0.0134,0.15198 0.0715,0.14597 0.21781,0.17217 0.33075,0.0592 z m -3.8461,-0.18607 -0.0595,-0.0512 v -0.41649 c 0,-0.38907 0.003,-0.41917 0.0415,-0.45723 0.0335,-0.0329 0.12936,-0.0533 0.49831,-0.10581 0.25124,-0.0358 0.46709,-0.0761 0.47967,-0.0896 0.0126,-0.0135 0.16559,-0.19739 0.34002,-0.40866 0.17443,-0.21127 0.33569,-0.40047 0.35836,-0.42046 0.0379,-0.0335 0.11592,-0.0364 0.98942,-0.0364 0.78259,0 0.9555,0.005 0.99002,0.0293 0.023,0.0162 0.1629,0.21211 0.31088,0.43556 l 0.26906,0.40626 0.27282,4.7e-4 c 0.39817,7e-4 0.37085,-0.0414 0.37085,0.57143 v 0.49158 l -0.0582,0.0501 c -0.0525,0.0452 -0.0772,0.0501 -0.25069,0.0501 H 184.478 l -0.0236,-0.12657 c -0.058,-0.31198 -0.31829,-0.526 -0.63784,-0.52447 -0.31486,0.002 -0.58492,0.2284 -0.62797,0.52757 l -0.0163,0.11309 -0.76277,0.006 -0.76278,0.006 v -0.0623 c 0,-0.0835 -0.0674,-0.25637 -0.13406,-0.34373 -0.12544,-0.16448 -0.38056,-0.27278 -0.58227,-0.2472 -0.28953,0.0367 -0.52839,0.26686 -0.56823,0.5475 -0.0133,0.0938 -0.0144,0.0949 -0.0992,0.10113 -0.0668,0.005 -0.0987,-0.005 -0.14519,-0.0449 z m 3.85441,-1.12465 c 0,-0.006 -0.0842,-0.13682 -0.18724,-0.29069 l -0.18723,-0.27976 h -0.82807 -0.82808 l -0.20454,0.24334 c -0.1125,0.13385 -0.22158,0.26466 -0.24239,0.2907 l -0.0379,0.0473 h 1.25769 c 0.69174,0 1.2577,-0.005 1.2577,-0.0109 z m -1.23542,-1.52961 c -0.0578,-0.0328 -0.072,-0.0588 -0.0724,-0.1329 -6.3e-4,-0.13265 0.16444,-0.18366 0.24851,-0.0768 0.0517,0.0657 0.0426,0.14212 -0.0236,0.19816 -0.0494,0.0417 -0.0934,0.045 -0.15253,0.0115 z m -0.41999,-0.37618 c -0.085,-0.0576 -0.0962,-0.0874 -0.056,-0.14872 0.0967,-0.14761 0.4146,-0.27595 0.61805,-0.24954 0.19095,0.0248 0.423,0.15413 0.48595,0.27085 0.0236,0.0437 0.0191,0.0536 -0.0514,0.11169 -0.0962,0.0793 -0.13214,0.0796 -0.24095,0.003 -0.1671,-0.11879 -0.35975,-0.11996 -0.5254,-0.003 -0.1073,0.0756 -0.13973,0.078 -0.2302,0.0166 z m -0.41783,-0.28434 c -0.0473,-0.0344 -0.0862,-0.0758 -0.0862,-0.0922 0,-0.0497 0.21641,-0.26636 0.34062,-0.3411 0.49853,-0.29999 1.10535,-0.23415 1.51058,0.16391 0.0781,0.0768 0.14209,0.15059 0.14209,0.16404 0,0.03 -0.0814,0.10728 -0.1537,0.14598 -0.0512,0.0274 -0.0586,0.0237 -0.17434,-0.0867 -0.38958,-0.37159 -0.93323,-0.37724 -1.32184,-0.0137 -0.0719,0.0672 -0.13977,0.12225 -0.15088,0.12225 -0.0111,0 -0.059,-0.028 -0.10637,-0.0624 z"
       id="path910" />
  </g>
</svg>
